<?xml version="1.0" encoding="utf-8"?>
<svg version="1.2" baseProfile="tiny"
    xmlns="http://www.w3.org/2000/svg"
    xmlns:svg="http://www.w3.org/2000/svg"
    xmlns:xlink="http://www.w3.org/1999/xlink"
    viewBox="0 0 225 314" width="225px" height="314px"
    fill="#d40000">
    <defs>
        <style>
            .maxi-card { display: none; }
            @media (min-width: 75px) {
                .maxi-card { display: block; }
                .mini-card { display: none; }
            }
        </style>

        <path id="suit" d="M16.491,0.199
            c7.12-0.475,10.831,5.639,11.556,10.456c0.432,0.766,0.668,0.55,0.834-0.042c0.348-6.186,5.855-11.24,10.955-10.55
            c8.3,0.108,13.344,9.393,11.926,17.251c-1.733,9.6-6.877,15.38-10.771,21.332C36.585,44.811,30.654,53.715,28.742,58
            c0,0-6.027-9.222-13.87-20.067c-5.243-7.252-9.44-15.11-9.831-21.875C4.595,8.327,7.751,1.399,16.491,0.199L16.491,0.199z"/>
        <path id="numeral" d="M0,32.676l0.164-2.018c0.51-6.24,1.875-8.348,9.623-14.856c3.76-3.159,4.994-4.717,5.168-6.525
            c0.49-4.261-3.352-5.592-5.855-5.613c-3.241-0.03-6.909,1.911-5.161,6.414l-3.638,1.066C-0.432,6.945,0.32,3.002,3.727,1.251
            c4.548-2.279,10.382-1.385,13.324,2.207c1.979,2.414,2.429,5.746,1.367,8.355c-3.1,6.671-13.621,9.605-14.49,17.318
            h11.631v-4.295h3.427v7.908L0,32.676z"/>
    </defs>

    <rect width="100%" height="100%" fill="#fefefe"/>

    <!-- Little Card -->
    <g class="mini-card">
        <use xlink:href="#numeral" transform="matrix(3.5,0,0,3.5,78.4,33.95)"/>
        <use xlink:href="#suit" transform="matrix(2,0,0,2,55.5,170)"/>
    </g>

    <!-- Big Card -->
    <g class="maxi-card">

        <!-- Top Numeral and Suit -->
        <use xlink:href="#numeral" transform="matrix(1,0,0,1,7,12)"/>
        <use xlink:href="#suit" transform="matrix(0.4,0,0,0.4,6,51)"/>

        <!-- Bottom Numeral and Suit -->
        <use xlink:href="#numeral" transform="matrix(-1,0,0,-1,218,302)"/>
        <use xlink:href="#suit" transform="matrix(-0.4,0,0,-0.4,218,263)"/>

        <!-- Card Face -->
        <use xlink:href="#suit" transform="matrix(1,0,0,1,84,28)"/><!-- top center -->
        <use xlink:href="#suit" transform="matrix(-1,0,0,-1,141,286)"/><!-- bottom center -->
    </g>
</svg>
