<?xml version="1.0" encoding="utf-8"?>
<svg version="1.2" baseProfile="tiny"
    xmlns="http://www.w3.org/2000/svg"
    xmlns:svg="http://www.w3.org/2000/svg"
    xmlns:xlink="http://www.w3.org/1999/xlink"
    viewBox="0 0 225 314" width="225px" height="314px"
    fill="#d40000">
    <defs>
        <style>
            .maxi-card { display: none; }
            @media (min-width: 75px) {
                .maxi-card { display: block; }
                .mini-card { display: none; }
            }
        </style>

        <polygon id="suit" points="28.5,0 48.612,29 28.5,58 8.388,29"/>
        <path id="numeral" d="M10.34,31.817v-2.812h2.585v-4.635H0v-3.271L13.986,0l2.285,0.008v21.09h3.953v3.271h-3.953l-0.076,4.637h2.167v2.812H10.34L10.34,31.817zM12.925,7.72L4.046,21.097h8.879V7.72z"/>
    </defs>

    <rect width="100%" height="100%" fill="#fefefe"/>

    <!-- Little Card -->
    <g class="mini-card">
        <use xlink:href="#numeral" transform="matrix(3.5,0,0,3.5,78.4,33.95)"/>
        <use xlink:href="#suit" transform="matrix(2,0,0,2,55.5,170)"/>
    </g>

    <!-- Big Card -->
    <g class="maxi-card">

        <!-- Top Numeral and Suit -->
        <use xlink:href="#numeral" transform="matrix(1,0,0,1,7,12)"/>
        <use xlink:href="#suit" transform="matrix(0.4,0,0,0.4,6,51)"/>

        <!-- Bottom Numeral and Suit -->
        <use xlink:href="#numeral" transform="matrix(-1,0,0,-1,218,302)"/>
        <use xlink:href="#suit" transform="matrix(-0.4,0,0,-0.4,218,263)"/>

        <!-- Card Face -->
        <use xlink:href="#suit" transform="matrix(1,0,0,1,34,28)"/><!-- top left -->
        <use xlink:href="#suit" transform="matrix(1,0,0,1,134,28)"/><!-- top right -->
        <use xlink:href="#suit" transform="matrix(-1,0,0,-1,91,286)"/><!-- bottom left -->
        <use xlink:href="#suit" transform="matrix(-1,0,0,-1,191,286)"/><!-- bottom right -->
    </g>
</svg>
