<?xml version="1.0" encoding="utf-8"?>
<svg version="1.2" baseProfile="tiny"
    xmlns="http://www.w3.org/2000/svg"
    xmlns:svg="http://www.w3.org/2000/svg"
    xmlns:xlink="http://www.w3.org/1999/xlink"
    viewBox="0 0 225 314" width="225px" height="314px">
    <defs>
        <style>
            .maxi-card { display: none; }
            @media (min-width: 75px) {
                .maxi-card { display: block; }
                .mini-card { display: none; }
            }
        </style>

        <path id="suit" d="M26.406,40.187c0.015-1.979-1.561-2.017-1.542-0.573c-0.133,7.257-6.311,10.83-10.799,9.982
            c-6.92-1.307-9.129-8.129-9.062-12.148C5.205,25.046,17.775,15.9,29.116,0c8.311,14.351,22.028,25.623,22.839,36.717
            c1.08,14.749-17.711,20.25-20.394,3.06c-0.173-1.214-1.613-1.759-1.501-0.063c0.408,4.711-0.171,6.674,5.179,18.287H21.252
            C24.351,52.574,26.195,45.911,26.406,40.187L26.406,40.187z"/>
        <path id="numeral" d="M0.313,22.581c-0.408-2.747-0.402-9.844-0.066-11.942C1.276,4.21,3.779,1.271,7.97,0.306
            c4.067-0.936,9.789,0.105,11.044,5.481L15.607,5.85c-1.84-3.634-6.495-2.661-9.115-1.082c-2.094,1.263-3.039,6.521-2.635,6.844
            c-0.003,0,3.957-2.877,7.076-2.665c6.668,0.682,9.417,6.354,9.184,11.719c-0.209,6.449-2.294,11.602-9.36,11.944
            C4.038,32.361,0.957,28.762,0.313,22.581z
            M16.882,20.876c0.037-4.476-2.033-7.822-5.948-8.192c-3.916-0.368-7.864,3.382-7.591,7.942c0.273,4.578,2.078,8.434,6.825,8.412
            C15.276,29.014,16.857,24.061,16.882,20.876L16.882,20.876z"/>
    </defs>

    <rect width="100%" height="100%" fill="#fefefe"/>

    <!-- Little Card -->
    <g class="mini-card">
        <use xlink:href="#numeral" transform="matrix(3.5,0,0,3.5,78.4,33.95)"/>
        <use xlink:href="#suit" transform="matrix(2,0,0,2,55.5,170)"/>
    </g>

    <!-- Big Card -->
    <g class="maxi-card">

        <!-- Top Numeral and Suit -->
        <use xlink:href="#numeral" transform="matrix(1,0,0,1,7,12)"/>
        <use xlink:href="#suit" transform="matrix(0.4,0,0,0.4,6,51)"/>

        <!-- Bottom Numeral and Suit -->
        <use xlink:href="#numeral" transform="matrix(-1,0,0,-1,218,302)"/>
        <use xlink:href="#suit" transform="matrix(-0.4,0,0,-0.4,218,263)"/>

        <!-- Card Face -->
        <use xlink:href="#suit" transform="matrix(1,0,0,1,34,28)"/><!-- top left -->
        <use xlink:href="#suit" transform="matrix(1,0,0,1,134,28)"/><!-- top right -->

        <use xlink:href="#suit" transform="matrix(1,0,0,1,34,128.5)"/><!-- center left -->
        <use xlink:href="#suit" transform="matrix(1,0,0,1,134,128.5)"/><!-- center right -->

        <use xlink:href="#suit" transform="matrix(-1,0,0,-1,91,286)"/><!-- bottom left -->
        <use xlink:href="#suit" transform="matrix(-1,0,0,-1,191,286)"/><!-- bottom right -->
    </g>
</svg>
