<?xml version="1.0" encoding="utf-8"?>
<svg version="1.2" baseProfile="tiny"
    xmlns="http://www.w3.org/2000/svg"
    xmlns:svg="http://www.w3.org/2000/svg"
    xmlns:xlink="http://www.w3.org/1999/xlink"
    viewBox="0 0 225 314" width="225px" height="314px"
    fill="#d40000">
    <defs>
        <style>
            .maxi-card { display: none; }
            @media (min-width: 75px) {
                .maxi-card { display: block; }
                .mini-card { display: none; }
            }
        </style>

        <path id="suit" d="M16.491,0.199
            c7.12-0.475,10.831,5.639,11.556,10.456c0.432,0.766,0.668,0.55,0.834-0.042c0.348-6.186,5.855-11.24,10.955-10.55
            c8.3,0.108,13.344,9.393,11.926,17.251c-1.733,9.6-6.877,15.38-10.771,21.332C36.585,44.811,30.654,53.715,28.742,58
            c0,0-6.027-9.222-13.87-20.067c-5.243-7.252-9.44-15.11-9.831-21.875C4.595,8.327,7.751,1.399,16.491,0.199L16.491,0.199z"/>
        <path id="numeral" d="M0.224,26.224l3.025-0.942
            c1.143,2.995,3.45,3.879,5.893,3.688c4.381-0.34,5.836-5.147,6.164-9.397c-1.707,1.772-4.273,2.674-6.459,2.586
            c-6.982-0.369-8.77-5.854-8.834-11.601c-0.195-4.847,1.848-8.355,5.348-9.964c1.853-0.815,6.097-0.815,7.959,0.148
            c4.283,2.217,5.867,6.049,5.58,15.19c0.004,7.523-1.625,16.287-9.838,16.476C4.314,33.052,0.71,29.429,0.224,26.224L0.224,26.224z
            M12.111,17.98c1.427-0.887,2.229-1.717,2.867-2.963c0.525-1.021,0.703-1.553,0.553-3.67c-0.385-5.456-3.299-8.547-7.524-7.933
            C5.651,3.758,4.363,5.053,3.625,7.463c-1.367,4.45,0.364,9.657,3.606,10.855C8.695,18.859,10.947,18.704,12.111,17.98z"/>
    </defs>

    <rect width="100%" height="100%" fill="#fefefe"/>

    <!-- Little Card -->
    <g class="mini-card">
        <use xlink:href="#numeral" transform="matrix(3.5,0,0,3.5,78.4,33.95)"/>
        <use xlink:href="#suit" transform="matrix(2,0,0,2,55.5,170)"/>
    </g>

    <!-- Big Card -->
    <g class="maxi-card">

        <!-- Top Numeral and Suit -->
        <use xlink:href="#numeral" transform="matrix(1,0,0,1,7,12)"/>
        <use xlink:href="#suit" transform="matrix(0.4,0,0,0.4,6,51)"/>

        <!-- Bottom Numeral and Suit -->
        <use xlink:href="#numeral" transform="matrix(-1,0,0,-1,218,302)"/>
        <use xlink:href="#suit" transform="matrix(-0.4,0,0,-0.4,218,263)"/>

        <!-- Card Face -->
        <use xlink:href="#suit" transform="matrix(1,0,0,1,34,28)"/><!-- top left -->
        <use xlink:href="#suit" transform="matrix(1,0,0,1,34,95)"/><!-- center top left -->
        <use xlink:href="#suit" transform="matrix(-1,0,0,-1,91,221)"/><!-- center bottom left -->
        <use xlink:href="#suit" transform="matrix(-1,0,0,-1,91,286)"/><!-- bottom left -->

        <use xlink:href="#suit" transform="matrix(1,0,0,1,84,120.5)"/><!-- center center offset -->

        <use xlink:href="#suit" transform="matrix(1,0,0,1,134,28)"/><!-- top right -->
        <use xlink:href="#suit" transform="matrix(1,0,0,1,134,95)"/><!-- center top right -->
        <use xlink:href="#suit" transform="matrix(-1,0,0,-1,191,221)"/><!-- center bottom right -->
        <use xlink:href="#suit" transform="matrix(-1,0,0,-1,191,286)"/><!-- bottom right -->
    </g>
</svg>
