<?xml version="1.0" encoding="utf-8"?>
<svg version="1.2" baseProfile="tiny"
    xmlns="http://www.w3.org/2000/svg"
    xmlns:svg="http://www.w3.org/2000/svg"
    xmlns:xlink="http://www.w3.org/1999/xlink"
    viewBox="0 0 225 314" width="225px" height="314px">
    <defs>
        <style>
            .maxi-card { display: none; }
            @media (min-width: 75px) {
                .maxi-card { display: block; }
                .mini-card { display: none; }
            }
        </style>

        <path id="suit" d="M26.406,40.187c0.015-1.979-1.561-2.017-1.542-0.573c-0.133,7.257-6.311,10.83-10.799,9.982
            c-6.92-1.307-9.129-8.129-9.062-12.148C5.205,25.046,17.775,15.9,29.116,0c8.311,14.351,22.028,25.623,22.839,36.717
            c1.08,14.749-17.711,20.25-20.394,3.06c-0.173-1.214-1.613-1.759-1.501-0.063c0.408,4.711-0.171,6.674,5.179,18.287H21.252
            C24.351,52.574,26.195,45.911,26.406,40.187L26.406,40.187z"/>
        <path id="numeral" d="M0,32.008V29.27h2.661L8.325,0h3.224l6.242,29.27h2.147v2.738h-7.317V29.27h1.977l-0.787-4.484
            H6.426l-0.57,4.484h1.978v2.738H0z M13.178,21.592L9.971,5.922l-3.008,15.67H13.178z"/>
    </defs>

    <rect width="100%" height="100%" fill="#fefefe"/>

    <!-- Little Card -->
    <g class="mini-card">
        <use xlink:href="#numeral" transform="matrix(3.5,0,0,3.5,78.4,33.95)"/>
        <use xlink:href="#suit" transform="matrix(2,0,0,2,55.5,170)"/>
    </g>

    <!-- Big Card -->
    <g class="maxi-card">

        <!-- Top Numeral and Suit -->
        <use xlink:href="#numeral" transform="matrix(1,0,0,1,7,12)"/>
        <use xlink:href="#suit" transform="matrix(0.4,0,0,0.4,6,51)"/>

        <!-- Bottom Numeral and Suit -->
        <use xlink:href="#numeral" transform="matrix(-1,0,0,-1,218,302)"/>
        <use xlink:href="#suit" transform="matrix(-0.4,0,0,-0.4,218,263)"/>

        <!-- Card Face -->
        <path d="M108.862,223.515c-7.825-0.004-14.295-0.072-14.376-0.15c-0.08-0.078,0.557-0.684,1.416-1.346
            c3.131-2.41,5.828-6.428,8.939-13.312c2.139-4.732,2.828-6.631,3.538-9.762c1.137-5.008,1.101-8.438-0.106-9.883l-0.578-0.691
            l-2.33,2.447c-2.59,2.721-5.961,5.039-9.722,6.684c-4.12,1.801-6.785,2.377-11.31,2.445c-3.568,0.053-4.336-0.039-6.887-0.834
            c-6.438-2.004-11.655-6.594-14.693-12.93c-1.831-3.814-2.299-5.93-2.387-10.785c-0.072-3.93,0.014-4.693,0.906-8.117
            c1.396-5.348,4.254-11.962,7.164-16.579c3.538-5.612,11.693-16.027,20.314-25.941c7.092-8.157,9.949-11.791,14.897-18.945
            c5.265-7.611,7.354-11.261,8.351-14.582c0.399-1.328,0.798-2.415,0.887-2.415c0.088,0,0.604,1.319,1.146,2.932
            c2.154,6.414,7.732,15.195,15.82,24.905c1.439,1.729,5.631,6.653,9.316,10.942c12.064,14.047,17.158,21.119,21.658,30.072
            c3.484,6.932,4.859,12.275,4.695,18.248c-0.209,7.635-2.654,13.027-8.322,18.355c-2.334,2.195-5.914,4.275-8.76,5.088
            c-0.881,0.25-3.262,0.574-5.293,0.717c-6.084,0.432-10.617-0.762-16.936-4.449c-2.963-1.73-6.312-4.525-7.238-6.039
            c-0.748-1.225-1.32-1.146-1.883,0.256c-0.943,2.357-1.096,4.482-0.52,7.314c1.791,8.834,7.521,20.148,12.441,24.568l1.988,1.787
            l-3.955,0.004C124.87,223.521,116.687,223.519,108.862,223.515L108.862,223.515z M121.853,218.843
            c-1.543-1.232-4.885-5.992-6.539-9.312c-1.721-3.453-2.246-5.988-1.76-8.484c0.199-1.025,0.438-2.24,0.527-2.703
            c0.105-0.537-0.121-1.379-0.629-2.342l-0.793-1.504l-0.887,1.691l-0.889,1.689l0.587,1.559c0.864,2.297,0.657,5.633-0.505,8.146
            c-1.471,3.176-6.396,10.49-7.666,11.381c-1.485,1.041-0.825,1.008,2.006-0.104c2.039-0.801,2.69-0.898,6.291-0.932
            c4.139-0.039,7.912,0.498,9.561,1.359C122.689,220.089,123.089,219.831,121.853,218.843z M115.919,216.777
            c-1.912-0.418-6.729-0.297-8.514,0.213c-0.791,0.227-0.789,0.217,0.176-0.875c1.326-1.502,2.166-3.092,3.736-7.09
            c1.209-3.074,1.365-3.318,1.649-2.596c0.173,0.439,0.86,2.283,1.526,4.1c1.168,3.178,1.893,4.506,3.299,6.033
            C118.529,217.361,118.572,217.357,115.919,216.777z M147.726,195.038c4.477-1.707,8.627-5.699,10.811-10.393
            c1.373-2.953,1.859-4.736,2.275-8.32c0.584-5.023-0.264-9.531-2.996-15.928c-3.611-8.456-8.686-15.408-19.291-26.43
            c-16.123-16.756-20.119-21.97-23.912-31.208c-0.65-1.582-1.289-3.488-1.42-4.237c-0.132-0.749-0.335-1.357-0.452-1.351
            c-0.116,0.007-0.581,1.223-1.033,2.704c-2.714,8.906-8.835,17.488-23.072,32.356c-9.925,10.364-11.469,12.202-15.538,18.498
            c-5.314,8.223-7.764,14.84-8.039,21.719c-0.433,10.846,5.25,20.117,13.9,22.674c5.289,1.564,12.551,0.295,18.271-3.191
            c4.596-2.803,6.936-5.115,8.705-8.604c0.568-1.119,1.086-2.1,1.149-2.178s0.64,0.348,1.281,0.945
            c1.122,1.045,3.089,4.385,3.904,6.629l0.392,1.08l1.055-2.521c0.701-1.674,1.633-3.162,2.773-4.432l1.717-1.912l1.148,2.285
            c2.619,5.215,9.928,10.371,17.373,12.258C139.909,196.288,144.986,196.083,147.726,195.038L147.726,195.038z M139.212,194.79
            c-2.709-0.322-4.41-0.842-7.238-2.211c-7.434-3.6-11.354-7.602-12.113-12.365c-0.135-0.838-0.395-1.521-0.578-1.518
            c-1.092,0.016-4.594,4.072-5.801,6.717c-0.273,0.6-0.623,1.092-0.776,1.094c-0.153,0.004-0.599-0.605-0.989-1.352
            c-1.134-2.158-3.246-4.932-4.412-5.795c-1.178-0.869-1.174-0.873-1.732,0.986c-0.598,1.988-1.823,4.387-3.018,5.902
            c-1.218,1.549-6.374,5.223-9.021,6.43c-5.946,2.709-12.95,2.738-17.656,0.07c-4.032-2.285-7.05-6.518-8.552-11.992
            c-2.123-7.74-0.941-15.025,3.85-23.745c4.412-8.031,7.137-11.647,15.262-20.253c13.469-14.267,20.244-23.053,24.166-31.34
            c1.63-3.444,1.992-3.268,1.07,0.521c-1.574,6.473-12.142,22.15-28.279,41.958c-4.35,5.338-9.035,13.186-10.473,17.539
            c-1.973,5.98-2.259,10.797-0.932,15.721c1.889,7.002,5.789,11.043,11.495,11.91c8.277,1.258,15.681-4.74,20.583-16.672l1.184-2.883
            l1.623,2.432c1.76,2.637,5.339,6.393,6.08,6.381c0.568-0.008,4.758-4.508,6.137-6.592c0.557-0.842,1.094-1.537,1.189-1.543
            c0.098-0.006,0.379,0.527,0.625,1.188c0.246,0.658,1.025,2.328,1.73,3.711c4.994,9.793,11.615,14.596,19.273,13.98
            c3.406-0.273,5.869-1.723,8.248-4.852c2.58-3.391,3.799-6.562,4.215-10.955c0.459-4.879-0.77-10.26-3.793-16.581
            c-1.693-3.543-6.703-10.765-10.682-15.396c-7.777-9.053-20.65-27.077-24.186-33.866c-0.918-1.76-2.1-5.62-2.39-7.797
            c-0.233-1.759,0.124-1.4,1.067,1.068c1.535,4.022,5.326,10.037,9.523,15.108c2.631,3.179,5.535,6.381,12.822,14.144
            c4.695,5.002,7.67,8.441,11.039,12.761c5.762,7.391,10.498,17.184,11.637,24.066c1.111,6.717-1.572,15.123-6.248,19.564
            c-1.824,1.732-5.447,3.615-8.133,4.227C142.745,195.081,141.941,195.115,139.212,194.79z M136.372,191.187
            c-2.729-0.992-5.002-2.463-6.812-4.402c-3.217-3.449-6.564-9.254-8.094-14.033c-0.801-2.504-1.082-2.867-1.4-1.812
            c-0.652,2.17-6.35,10.412-7.202,10.424c-0.604,0.008-3.241-3.41-5.753-7.457c-1.302-2.096-2.408-3.852-2.459-3.9
            c-0.052-0.051-0.388,1.076-0.747,2.504c-1.642,6.523-6.544,14.355-10.819,17.287c-6.033,4.135-14.975,2.312-17.7-3.609
            c-0.726-1.578-1.347-4.887-0.917-4.895c0.146-0.002,0.27,0.145,0.271,0.324c0.011,0.715,1.842,2.959,3.09,3.785
            c4.893,3.248,9.613,2.719,15.056-1.686c4.255-3.443,8.195-11.211,6.687-13.182c-0.391-0.512-0.425-0.432-0.301,0.691
            c0.185,1.67-0.543,2.783-2.486,3.805c-0.84,0.441-1.666,1.059-1.836,1.373c-0.283,0.523-0.385,0.5-1.244-0.299
            c-0.516-0.479-1.277-0.865-1.691-0.859c-0.744,0.012-0.746,0.023-0.146,0.666c0.729,0.783,0.853,3.336,0.253,5.205
            c-0.483,1.506-2.943,4.158-4.633,4.994c-2.834,1.404-7.34,0.473-9.633-1.992c-3.287-3.529-1.997-9.455,2.597-11.936
            c2.206-1.191,5.337-0.742,6.995,1.004c0.777,0.818,0.783,0.859,0.271,1.975c-0.716,1.561-1.221,1.662-2.434,0.484
            c-0.951-0.922-1.17-0.99-2.641-0.826c-2.785,0.309-4.508,2.846-3.734,5.496c0.444,1.52,2.77,3.6,4.322,3.867
            c4.076,0.701,7.885-3.797,6.854-8.094c-0.32-1.34-0.268-1.801,0.463-3.986c1.6-4.793,0.704-12.203-1.847-15.287
            c-0.505-0.609-0.513-0.6-0.198,0.242c0.34,0.91,0.18,1.848-0.316,1.855c-0.158,0.003-0.29-0.147-0.293-0.333
            c-0.002-0.186-0.607-0.596-1.342-0.912c-1.678-0.721-2.969-0.34-3.68,1.085c-0.464,0.932-0.459,0.97,0.102,0.73
            c1.33-0.568,1.8-0.578,3.006-0.055c2.34,1.013,3.75,3.859,3.791,7.656c0.025,2.295-0.477,4.988-0.931,4.994
            c-0.094,0.002-0.719-0.418-1.39-0.934c-1.615-1.24-2.633-1.578-4.635-1.541c-3.344,0.064-6.596,2.543-8.369,6.377
            c-0.573,1.24-1.041,2.621-1.041,3.068c0.003,0.773-0.016,0.781-0.387,0.176c-0.537-0.879-0.501-5.9,0.062-8.678
            c1.418-6.986,6.993-17.113,13.367-24.278l1.715-1.929l0.232,3.024c0.182,2.371,0.416,3.372,1.084,4.632
            c1.041,1.959,3.31,4.051,4.953,4.566c1.797,0.563,4.641,0.225,5.848-0.695c1.256-0.957,2.146-2.936,1.84-4.084
            c-0.162-0.604-0.111-0.815,0.17-0.727c0.682,0.217,1.616,1.668,1.939,3.014c0.33,1.372,0.023,4.422-0.558,5.547
            s-2.452,2.35-4.376,2.865c-2.935,0.785-3.535,1.123-4.07,2.299c-0.627,1.373-0.323,3.219,0.608,3.699
            c0.627,0.324,0.632,0.309,0.117-0.402c-0.683-0.945-0.676-1.102,0.091-1.893c0.545-0.561,1.066-0.658,3.766-0.705
            c3.959-0.068,5.432-0.676,6.57-2.713c1.248-2.229,1.531-3.841,1.08-6.136c-0.713-3.62-2.622-6.612-4.943-7.745
            c-1.932-0.943-3.484-0.963-4.6-0.06c-1.01,0.819-1.113,1.456-0.149,0.921c0.979-0.543,2.14,0.063,2.733,1.428
            c0.419,0.963,0.426,1.268,0.055,2.195c-1.229,3.068-4.824,3.359-8,0.647c-2.029-1.733-2.929-3.621-2.952-6.194
            c-0.032-3.587,1.769-6.554,4.923-8.108c1.256-0.619,4.043-0.694,5.635-0.151c4.443,1.515,8.515,7.152,10.008,13.855
            c0.553,2.482,1.951,13.203,1.979,15.174c0.012,0.801-0.24,1.811-0.606,2.432c-0.794,1.348-0.781,2.219,0.042,2.717
            c0.355,0.215,0.652,0.719,0.658,1.117c0.007,0.432,0.207,0.723,0.494,0.719c0.285-0.004,0.477-0.301,0.471-0.732
            c-0.006-0.4,0.275-0.91,0.625-1.137c0.773-0.5,0.799-1.387,0.076-2.732c-0.439-0.822-0.511-1.574-0.379-4.076
            c0.209-4.004,1.137-10.504,1.926-13.481c1.67-6.302,5.23-11.649,8.918-13.391c3.006-1.418,7.021-0.473,9.389,2.21
            c1.504,1.707,1.914,3.015,1.814,5.807c-0.07,1.965-0.252,2.612-1.178,4.203c-1.475,2.539-3.578,3.869-5.867,3.709
            c-1.326-0.094-1.766-0.3-2.67-1.257c-0.852-0.903-1.086-1.421-1.1-2.45c-0.027-1.72,1.148-3.033,2.547-2.85
            c1.16,0.153,1.211-0.219,0.123-0.909c-1.297-0.822-3.629-0.412-5.496,0.966c-1.66,1.226-3.381,3.84-3.922,5.957
            c-0.475,1.865-0.098,5.285,0.775,7.021c1.201,2.391,2.199,2.869,6.24,2.996c3.033,0.098,3.537,0.197,4.186,0.826
            c0.645,0.625,0.686,0.801,0.326,1.396c-0.34,0.562-0.338,0.654,0.014,0.531c0.617-0.215,1.012-1.643,0.738-2.666
            c-0.41-1.531-1.791-2.557-3.98-2.951c-1.092-0.197-2.367-0.652-2.836-1.01c-2.516-1.918-3.201-7.166-1.268-9.701
            c0.881-1.154,1.24-1.082,1.049,0.215c-0.203,1.381,0.545,2.791,2.08,3.926c0.922,0.682,1.605,0.89,3.148,0.959
            c2.484,0.113,3.934-0.498,5.838-2.46c2.051-2.112,2.734-3.918,2.715-7.159c-0.01-1.456,0.086-2.65,0.213-2.654
            c0.398-0.008,4.82,5.691,7.639,9.848c5.979,8.811,8.529,15.859,8.08,22.324c-0.203,2.91-0.65,3.631-0.988,1.59
            c-0.441-2.676-3.311-6.574-5.926-8.055c-1.133-0.643-1.877-0.809-3.6-0.805c-2.338,0.004-3.721,0.531-5.246,2.002l-0.844,0.811
            l-0.441-0.748c-0.281-0.479-0.453-1.795-0.473-3.643c-0.035-3.369,0.646-5.354,2.518-7.334c1.484-1.569,2.723-1.875,3.971-0.98
            l0.939,0.672l-0.016-0.924c-0.029-2.062-2.871-2.824-4.865-1.305l-1.012,0.771l0.129-0.973c0.166-1.264-0.389-1.061-1.457,0.533
            c-1.24,1.854-1.768,3.834-1.902,7.154c-0.104,2.527,0.002,3.471,0.607,5.455c0.402,1.32,0.734,2.797,0.734,3.283
            c0.002,0.486-0.014,1.715-0.033,2.732c-0.061,3.064,1.295,5.365,3.82,6.486c3.719,1.648,7.543-0.682,7.484-4.561
            c-0.025-1.82-0.754-2.975-2.387-3.787c-1.207-0.604-3.23-0.379-4.127,0.457c-0.602,0.561-0.656,0.547-1.641-0.406
            c-1.002-0.975-1.01-1.002-0.471-1.85c1.133-1.789,5.145-2.76,7.166-1.736c0.482,0.244,1.418,0.988,2.08,1.656
            c3.209,3.23,3.457,7.607,0.619,10.93c-2.285,2.676-4.652,3.281-8.277,2.121c-2.611-0.838-4.234-2.123-5.254-4.168
            c-1.436-2.881-1.443-3.914-0.043-6.734c0.342-0.691-1.402-0.084-2.24,0.779c-0.742,0.766-1.037,0.902-1.248,0.58
            c-0.15-0.23-0.277-0.521-0.283-0.648c-0.004-0.125-0.723-0.68-1.596-1.232c-2.232-1.416-3.148-3.436-2.344-5.17
            c0.318-0.682,0.312-0.686-0.162-0.076c-1.078,1.389-0.678,3.648,1.305,7.371c3.393,6.371,8.678,10.271,14.246,10.51
            c2.254,0.098,2.711,0.014,4.277-0.781c1.801-0.914,3.588-2.754,4.617-4.75l0.584-1.133l0.027,1.123
            c0.061,2.418-2.598,6.84-5.113,8.508c-1.471,0.975-1.832,1.066-4.666,1.191C138.847,191.89,138.054,191.798,136.372,191.187
            L136.372,191.187z M139.781,182.665c-0.922-0.164-2.359-1.568-2.926-2.855c-0.449-1.021-0.664-3.615-0.299-3.621
            c0.693-0.01,2.061,1.213,2.6,2.328c0.564,1.166,0.764,1.318,1.727,1.303c1.311-0.02,1.99-0.84,1.412-1.707
            c-0.203-0.307-0.676-0.541-1.051-0.521c-0.75,0.039-0.898-0.477-0.311-1.082c0.408-0.42,1.797-0.539,2.648-0.225
            c0.707,0.258,1.488,1.781,1.506,2.932c0.016,1.107-0.941,2.469-2.215,3.152C141.982,182.845,141.2,182.921,139.781,182.665
            L139.781,182.665z M81.677,181.784c-1.507-1.35-1.824-2.855-0.919-4.354c0.723-1.193,1.942-1.646,3.085-1.146
            c0.959,0.42,1.094,1.334,0.162,1.105c-0.461-0.113-0.736,0.076-1.004,0.686c-0.311,0.711-0.275,0.943,0.223,1.479
            c0.326,0.35,0.922,0.631,1.322,0.625c0.823-0.014,2.042-1.41,2.029-2.324c-0.006-0.33,0.189-0.602,0.434-0.605
            c0.242-0.004,0.619-0.227,0.835-0.494c0.653-0.812,0.956-0.564,0.976,0.799c0.044,2.932-1.549,4.863-4.225,5.125
            C82.984,182.837,82.781,182.775,81.677,181.784L81.677,181.784z M112.301,158.152c-0.017-0.751-0.243-1.724-0.503-2.162
            c-0.662-1.119-0.617-1.645,0.244-2.848l0.752-1.053l0.75,1.173c0.674,1.056,0.709,1.272,0.34,2.179
            c-0.225,0.553-0.463,1.693-0.529,2.535C113.196,160.001,112.347,160.144,112.301,158.152L112.301,158.152z M110.614,150.224
            c-0.694-3.271-2.796-6.859-5.647-9.639c-3.009-2.935-5.472-4.208-7.463-3.858c-1.062,0.186-1.254,0.133-1.252-0.347
            c0.005-0.893,0.723-2.007,1.738-2.698c1.842-1.254,3.201-0.761,6.139,2.224c4.287,4.357,7.363,10.301,7.424,14.342
            C111.585,152.456,111.085,152.443,110.614,150.224L110.614,150.224z M113.808,150.415c-0.051-3.896,2.668-9.733,6.467-13.881
            c3.742-4.089,6.26-4.729,8.367-2.13c0.377,0.464,0.689,1.154,0.693,1.534c0.01,0.628-0.156,0.692-1.836,0.707
            c-2.582,0.023-4.512,1.084-7.441,4.094c-2.832,2.908-4.779,6.311-5.33,9.316c-0.205,1.122-0.492,2.042-0.637,2.044
            C113.948,152.103,113.82,151.344,113.808,150.415L113.808,150.415z M112.442,145.249c-0.042-2.815-0.654-6.043-2.649-13.976
            c-1.926-7.651-1.673-11.795,1.03-16.891c0.601-1.131,1.257-2.684,1.46-3.451l0.369-1.394l0.416,1.279
            c0.229,0.703,0.945,2.374,1.594,3.712c2.521,5.211,2.859,8.796,1.393,14.732c-1.279,5.178-2.322,10.367-2.816,14.025
            C112.765,146.79,112.476,147.505,112.442,145.249z M108.654,138.949c-0.498-0.729-1.755-2.338-2.792-3.574
            c-2.306-2.749-3.254-4.514-3.528-6.573c-0.365-2.734,0.787-4.444,2.728-4.048c1.874,0.383,2.753,2.688,3.685,9.674
            c0.385,2.878,0.787,5.37,0.894,5.538c0.107,0.168,0.134,0.306,0.058,0.308C109.622,140.275,109.153,139.678,108.654,138.949
            L108.654,138.949z M116.046,139.375c0.068-0.531,0.264-2.414,0.434-4.184c0.549-5.71,1.584-8.86,3.336-10.146
            c1.174-0.862,1.697-0.869,2.479-0.029c0.484,0.52,0.627,1.143,0.641,2.803c0.025,2.713-0.443,3.71-3.547,7.55
            c-1.348,1.667-2.68,3.467-2.959,4.002l-0.508,0.972L116.046,139.375z M101.152,131.694c-0.918-0.577-1.543-0.584-2.914-0.035
            c-0.486,0.195-0.469,0.059,0.139-1.045c0.385-0.698,1.186-1.843,1.781-2.544l1.082-1.275l0.021,1.459
            c0.012,0.802,0.241,2.052,0.51,2.777c0.268,0.726,0.457,1.309,0.42,1.296C102.156,132.315,101.687,132.03,101.152,131.694
            L101.152,131.694z M123.628,130.876c0.123-0.692,0.307-1.973,0.404-2.846l0.18-1.587l0.854,1.25
            c0.471,0.688,1.104,1.717,1.408,2.287l0.555,1.036l-1.061,0.016c-0.584,0.009-1.398,0.26-1.812,0.559l-0.752,0.543L123.628,130.876z
            M106.368,122.958c-0.422-0.341-1.041-0.616-1.375-0.611s-0.607-0.053-0.608-0.129c-0.004-0.246,2.494-4.029,2.78-4.212
            c0.155-0.099,0.185,0.384,0.066,1.088c-0.117,0.696-0.131,1.994-0.032,2.884s0.126,1.615,0.059,1.61
            C107.192,123.583,106.791,123.299,106.368,122.958L106.368,122.958z M118.294,120.836c0.006-1.398,0.043-2.542,0.08-2.544
            c0.129-0.005,2.721,3.779,2.723,3.977c0.002,0.108-0.146,0.107-0.332-0.003c-0.184-0.11-0.818,0.095-1.41,0.456l-1.074,0.656
            L118.294,120.836z"/>
    </g>
</svg>
