<?xml version="1.0" encoding="utf-8"?>
<svg version="1.2" baseProfile="tiny"
    xmlns="http://www.w3.org/2000/svg"
    xmlns:svg="http://www.w3.org/2000/svg"
    xmlns:xlink="http://www.w3.org/1999/xlink"
    viewBox="0 0 225 314" width="225px" height="314px">
    <defs>
        <style>
            .maxi-card { display: none; }
            @media (min-width: 75px) {
                .maxi-card { display: block; }
                .mini-card { display: none; }
            }
        </style>

        <path id="suit" d="M20.976,57.141c2.879-5.775,4.976-11.7,5.348-18.037c0.342-2.331-1.074-2.37-1.288-0.729
            c-4.076,15.593-25.763,11.37-25.017-3.296c0.604-11.896,12.42-14.454,18.582-10.565c2.434,1.434,2.295,0.575,0.967-0.911
            C10.416,13.391,15.958,0.241,28.331,0c13.38,0.793,16.853,14.87,8.646,23.147c-1.021,0.994-3.283,4.191,0.123,1.956
            c8.287-5.888,19.787,0.443,19.553,9.521c-0.434,16.738-20.84,17.986-25.203,4.006c-0.42-1.55-1.629-2.328-1.295,0.305
            c0.604,4.767,1.855,11.953,5.438,18.205L20.976,57.141L20.976,57.141z"/>
        <path id="numeral" d="M19.876,0H9.635v3.498h3.809c0,0-0.045-0.664-0.012,7.141c0.021,5.473,0.016,8.967-0.049,11.266
            c0.018,3.062-0.486,4.936-1.691,6.061c-1.908,1.604-5.641,1.443-7.021-0.067c-1.021-1.187-1.237-3.453-1.176-6.121H0.016
            c0,0,0.002,1.291,0,1.971c-0.605,12.592,16.264,10.457,16.803,1.67c0.113-1.877,0.057-1.194,0.01-11.598
            c-0.049-11.147-0.01-10.32-0.01-10.32h3.057V0z"/>
    </defs>

    <rect width="100%" height="100%" fill="#fefefe"/>

    <!-- Little Card -->
    <g class="mini-card">
        <use xlink:href="#numeral" transform="matrix(3.5,0,0,3.5,78.4,33.95)"/>
        <use xlink:href="#suit" transform="matrix(2,0,0,2,55.5,170)"/>
    </g>

    <!-- Big Card -->
    <g class="maxi-card">

        <!-- Top Numeral and Suit -->
        <use xlink:href="#numeral" transform="matrix(1,0,0,1,7,12)"/>
        <use xlink:href="#suit" transform="matrix(0.4,0,0,0.4,6,51)"/>

        <!-- Bottom Numeral and Suit -->
        <use xlink:href="#numeral" transform="matrix(-1,0,0,-1,218,302)"/>
        <use xlink:href="#suit" transform="matrix(-0.4,0,0,-0.4,218,263)"/>

        <!-- Card Face -->
        <use xlink:href="#suit" transform="matrix(0.8,0,0,0.8,38,36)"/><!-- top left -->
        <use xlink:href="#suit" transform="matrix(-0.8,0,0,-0.8,186,278)"/><!-- bottom right -->

        <path fill="#E2CF00"
            d="M62.98,279.226c-0.836,1.194-4.455-7.136-6.777-13.447c-1.145-3.103-2.668-5.658-2.039-6.474c1.656-1.674,5.939-0.178,9.059,2.214
            c3.33,2.555,5.682,6.312,5.682,6.312L62.98,279.226z M33.769,273.051l-0.104-4.647c2.869-2.58,6.963-6.308,11.133-11.123
            l-10.818,0.065l-0.852-4.041L33.017,76.706c0,0,11.859,12.28,12.166,12.282c0.355,0.002,0.133,73.319,0.088,122.348
            c0.096,0.232-6.254,0.088-6.67,3.295c-0.275,2.121,6.887,1.828,7,1.97c-0.016,22.038-0.32,37.858-0.166,37.86
            c5.438,0,6.578,0.215,6.578,0.215C45.88,261.015,39.505,266.198,33.769,273.051z M72.427,250.365
            c-0.957-1.902-2.48-9.217-3.646-9.041c-5.35,1.771-7.074-6.115-1.537-6.521c2.098-0.151,4.438,2.576,5.75,5.972
            C73.624,242.549,72.974,251.075,72.427,250.365z M73.632,239.396c-1.578-2.574-3.088-11.979-5.965-11.445
            c-2.625,0.598-4.305-1.699-4.049-3.713c1.348-5.65,10.967-0.281,13.49,1.021C75.859,228.097,74.091,235.172,73.632,239.396z
            M53.456,213.601c-0.688-0.281,1.07-3.119,1.088-6.39c0.02-3.705-1.67-7.797-1.471-8.393c6.297-4.935,14.854-10.248,16.412-7.422
            c1.6,12.021,0.771,18.705-1.023,27.68l-1.186,0.619c0,0-1.988-0.373-3.467-1.135l-7.752-3.896L53.456,213.601z M154.714,122.857
            c-1.164-9.262-0.318-23.671,1.336-29.373c0.635-1.93,12.623,6.054,13.58,6.648c0.896,0.558,1.328,0.474,0.787,2.908
            c-0.627,2.814-0.529,6.124,0.357,9.893c0.328,1.406,0.588,1.952-0.297,2.569C169.56,116.144,155.017,123.792,154.714,122.857
            L154.714,122.857z M149.027,84.422c0.248-0.594,1.236-7.525,1.545-7.553c1.004-0.087,2.479,6.788,5.039,9.058
            c4.836-0.558,5.4,2.715,4.457,4.297c0.232,0.693-1.562,2.202-3.238,2.059C152.659,90.656,147.036,89.216,149.027,84.422z
            M84.351,78.778c-1.361-0.96,1.225-7.869,8.584-6.283c3.168-5.962,3.342-19.405,4.871-20.237c2.307-0.851,25.795-7.367,25.098-1.687
            c-0.752,6.099-1.965,35.483-10.811,42.704c-0.889,1.055,13.998,11.12,13.998,11.12s15.699-9.772,14.803-9.627
            c-0.387,0.104-0.691,8.312-0.922,21.586c-0.223,12.812,1.652,21.982,5.559,35.533c-0.496,1.641,2.986,9.837,6.885,17.964
            c4.42,9.215,10.398,18.518,10.398,18.518c-10.277-3.461-19.723-2.113-31.244-6.07l-0.564,45.541c0,0,5.965,3.113,7.115,4.545
            c0.561,0.699,0.627,1.675,0.688,2.558c0.25,3.438-2.656,7.528-8.188,6.18c-1.734,6.066-4.221,20.33-4.316,20.326
            c-8.443,1.135-17,2.354-25.553,1.899c0,0,1.279-4.581,1.77-11.469c0.178-2.51,0.305-5.211,0.6-8.086
            c1.082-10.586,4.197-22.146,9.229-22.889c-0.992,0.393-12.764-9.754-14.371-10.48c-6.615,3.451-15.312,9.242-15.312,9.242
            s1.145-8.387,1.199-17.178c0.055-9.424-0.611-19.838-0.91-22.549c-2.281-15.527-8.627-29.661-13.754-40.235
            c-2.062-4.25-5.145-11.048-5.145-11.048c7.561-0.87,16.119-0.457,29.479,3.53c0,0-0.752-45.961-0.756-45.706
            c0.121,0.41-3.436-1.463-6.689-3.53C84.343,81.841,84.521,78.897,84.351,78.778L84.351,78.778z M151.015,68.474
            c0.057-0.469,0.271-5.659,0.271-5.659c2.092,2.45,3.775,9.635,4.191,9.513c0,0,2.688-0.421,3.521,0.468
            c2.725,2.897,0.047,6.318-2.676,5.679C153.616,77.779,150.638,73.15,151.015,68.474z M178.792,224.301
            c0,0-0.713-81.11-0.697-121.966c2.912-0.476,5.928,1.462,8.656-2.682c-1.443-2.989-5.562-2.078-8.66-2.683l-0.029-37.668
            c0,0-5.168-0.09-5.174-0.43c-0.004-0.311,2.664-2.821,7.713-8.097c0.607-0.635,1.639-1.735,2.289-2.445
            c2.549-2.776,6.594-7.4,6.787-7.214c1.588,1.347,1.422,3.535-5.951,10.381c-5.373,4.988-5.58,4.655,0.363,4.572
            c5.668-0.104,6.389-0.575,5.594,1.465c0.012,0.833,0.66,1.481,0.508,1.613c-0.166,0.141,0.035,177.206,0.035,177.206
            L178.792,224.301z M161.476,35.383c0.039,0.104,0.781,0.387,1.582,1.271c3.27,5.35,4.965,12.128,7.529,16.803
            c-5.316,2.362-12.691-2.88-14.471-7.464C153.958,40.22,160.281,32.203,161.476,35.383z"/>
        <path fill="#131F67"
            d="M31.607,27.874l0.209,257.113l160.803,0.24l-0.691-257.648L31.607,27.874z M84.851,81.931c0.221,0.414,0.574,1.013,0.574,1.013
            s-0.387,0.1-0.658,0.275c-18.605,6.884-38.73,22.217-39.078,22.667l0.354-16.973L33.566,75.947l0.047-45.993h48.391l14.193,23.728
            c-0.854,6.216-3.064,18.247-3.064,18.247c-1.303-0.313-5.697-0.728-8.07,2.677C83.929,76.229,83.325,78.442,84.851,81.931
            L84.851,81.931z M175.577,134.865l1.838-2.328l-3.24,0.148l2.225-2.413l-3.584-0.082l2.795-2.374l-3.773-0.044l2.805-2.334
            l-4.131,0.186l2.959-2.539l-4.082,0.019l3.045-2.557l-3.992-0.055l2.594-2.295l-3.486-0.042l3.941-2.768
            c1.684,0.735,3.939,1.153,6.213,1.201l0.047,18.629L175.577,134.865z M178.404,102.563c9.215,0.029,11.186-4.893,0.049-5.675
            c0,0-0.871-24.428-0.621-34.539c0.002-1.233,0.119-2.62,0.119-2.62l-6.066-0.155c0,0,16.262-17.553,17.795-18.979
            c1.389,58.999,1.328,195.985,1.328,195.985l-12.428-12.432l-0.137-38.732c-4.158-4.213-6.541-10.359-9.02-14.338l-6.795-3.303
            l1.598-5.459l-0.684-1.551l-2.121,7.723l7.436,3.533l0.785,1.598l-1.252,7.277l7.035,2.412l1.219,1.674l-0.439,7.106l1.455,0.445
            l0.016,1.408l-1.461-0.123l-0.521,7.979l1.986,0.584l-0.004,1.802c-0.002-0.031-1.158,0.008-1.727-0.043
            c-0.783-0.425-2.076-2.104-2.076-2.104l0.701-8.861l-8.918-1.786l-0.664-0.939l1.641-8.855l-9.363-2.864
            c0.961,2.364,2.234,4.575,3.295,6.903c-1.285,0.371-2.629,0.455-3.93,0.734c-0.352,11.965,0.055,24.414-0.318,35.666
            c-7.535,0.545-4-0.174-7.277-0.123c-1.283,0-2.322,1.041-2.322,2.324c0,0.817,0.424,1.539,1.066,1.953l-1.299,0.465l-2.271-2.57
            l4.746-4.551l-0.029-1.309l-5.893,5.893l2.551,2.943l-1.518,0.786l-2.328-2.45c0,0-5.01,5.127-4.697,5.221
            c0.154,0.047,0.434,0.305,0.621,0.568c3.568,7.7-1.301,11.379-7.184,9.248c-1.496,7.088-2.922,13.481-4.1,20.823
            c-4.396,1.66-25.074,2.619-25.303,2.238c0,0-0.523-0.5-0.547-0.75c0.094-0.328-0.594,0.684-0.594,0.684
            c0,0.438-18.023-0.448-26.912-2.143c0,0-0.184-0.854-0.109-1.978c0.145-2.256-0.029-2.233,2.021-1.905
            c4.193,0.28,7.445-1.158,8.738-4.847c0.727-2.065,0.385-3.928-0.721-9.452c-1.074-5.367-1.084-4.789-0.957-5.515
            c0.148-0.852,1.068-1.803,2.389-2.873c0.996-0.809,1.098-2.334,0.295-1.489c-0.553,0.805-1.52,1.092-2.391,1.541
            c-2.039,1.067-1.973,2.098-0.768,6.506c0.564,2.067,1.156,4.295,1.176,4.555c0.061,0.811-0.23,0.479-1.445-0.354
            c-0.779-0.568-1.676-1.039-2.475-1.507c-2.443-1.303-1.359,0.123,0.99,1.688c1.848,1.369,2.152,1.959,0.559,1.303
            c-1.643-0.672-4-0.381-5.846,0.312c-0.361,0.203-0.629,0.18-0.688-0.15c-0.082-0.518,0.234-1.812,0.371-4.809
            c0.344-7.572,2.129-15.646,7.166-20.312c7.213-6.678,19.062-2.146,25.641,4.041l0.711-1.082c-4.414-3.705-12.066-8.326-19.518-7.43
            c3.115-2.599,9.988-6.902,9.988-6.902c4.715,3.418,8.189,6.828,13.363,10.529l0.9-0.598l-14.232-11.283l-15.332,10.108
            c0,0,0.639-9.696,0.877-13.241l-6.648,5.879l5.129,7.594l-5.439,5.596c0,0,0.918-0.129-0.086,1.599
            c-1.529,3.104-2.455,8.104-3.16,13.184c0.137,3.795-0.799,7.99-1.088,11.332c-0.504-3.129-1.098-4.773-2.256-7.615
            c-1.062-2.735-1.479-2.715-2.68-2.315c-6.506,0.547-3.562-12.002,4.125-3.793c0.338,0.348,0.895,0.772,0.92,0.69
            c0.16-0.504-2.041-7.113-2.893-8.637c-0.898-1.609-0.906-1.836-2.242-1.699c-2.5,0.258-3.346-0.633-3.6-3.264
            c0.332-4.976,5.717-2.873,9.166-1.344c0.312,0.237-1.619-1.759-2.309-2.461c-0.939-0.957-1.092-1.57-1.092-1.57l0.205-2.642
            l5.273-4.815l-4.338-6.404l0.184-2.291l4.637-5.561l-4.941-5.361l-0.061-1.912l4.016-5.342l-5.381-4.314l-0.262-1.721
            c0,0,3.455-6.393,3.359-6.625c-0.078-0.195-5.832-4.166-5.832-4.166l-0.578-2.688l2.5-6.822l-5.979-3.412l-1.096-3.083l1.684-6.319
            l-6.201-2.863l-1.77-3.562l1.152-6.642l-6.951-2.059l-1.844-2.921l0.242-5.841l-1.701-0.176l0.023-1.44l1.895,0.015
            c0,0-0.146-0.216,0.062-3.102c0.354-4.906,0.389-4.718-0.781-4.921c-2.469-0.429-1.902-1.945,0.621-1.664
            c0.387,0.043,0.713,0.076,0.99,0.128c0.664,0.125,1.176,0.986,1.176,0.986l-0.555,9.06l8.889,1.484l0.844,1.138l-1.488,8.396
            l8.344,2.413l1.125,2.033l-2.367,8.732l8.412,3.698l0.555,1.621l-3.568,7.752l7.727,3.756l0.484,1.856l-4.291,7.994l8.906,6.48
            c0,0-0.236-0.635-0.592-1.691l-7.062-5.045l3.58-6.822c0,0,0.283,0.498,0.588,0.394c-0.182-1.14-0.322-2.283-0.404-3.404
            l-3.645-9.501l11.795-7.931c-5.057-3.043-11.434-2.942-17.285-4.083c0,0-0.258-0.814-0.697-1.546
            c-1.703-2.731-3.236-6.205-5.137-9.789c1.398-0.66,2.008-0.575,3.51-0.868c0,0,3.799-23.805,6.775-35.438
            c0,0,0.459,0.14,0.684,0.146c1.445,0,2.617-1.176,2.617-2.622c0-0.791-0.355-1.497-0.906-1.979c0.324-0.092,0.666-0.184,1.029-0.27
            c0.479-0.007,2.412,2.128,2.412,2.128l-4.975,4.902l-0.027,1.622c1.982-2.065,6.344-6.524,6.344-6.524l-2.625-2.759l1.299-0.606
            l2.129,2.343l4.773-4.907l1.223,0.835c-1.607,2.111-2.654,2.8-5.062,5.295c1.258,1.488,6.129,6.183,6.129,6.183l-0.014-1.621
            l-4.803-4.655l4.67-4.66l0.27-0.31c0,0,3.709,1.604,3.943,1.601c-1.576-1.297-4.406-2.407-5.943-3.528
            c-6.967-4.108-0.35-12.608,6.076-10.498c0.184,0.687,3.545-17.93,3.166-18.956c0.34-2.883,0.414-2.476-0.584-4.127
            c-2.992-6.894-11.721-19.939-11.721-19.939l78.545-0.503c-0.818,1.595-1.643,2.889-2.264,4.752c0,0,4.414,4.598,6.029,10.643
            c0.898,3.373,2.193,6.53,4.465,8.775c0.035,0.08-0.08,0.181-0.221,0.273c-6.211,2.188-13.285-3.108-15.463-9.152l-3.562,5.809
            c1.609,0.182-23.721-2.874-29.936-2.103c0.555,0.107,1.201,0.564,0.836,2.309c-0.633,3.006-1.76,13.868-1.76,13.868
            c-1.248,10.567-2.213,23.849-9.186,28.241c0,0,1.066,1.137,1.988,1.717c0.023-0.016-0.82-0.867-0.848-0.967
            c0.004-0.308,0.178-0.502,0.383-0.664c1.479-1.197,3.279-3.681,3.215-3.745c5.756,4.998,14.764,9.302,20.191,7.515
            c2.143-0.449,3.094-2.514,4.23-0.839c-1.477,9.091-1.375,19.093-0.805,26.947c0.891,17.509,4.756,27.542,8.586,39.946
            c-1.971,0.695-12.08,7.472-12.08,7.472c-0.061,0.862,12.195,3.676,17.006,3.178c0,0,0.988,0.963,0.992,0.76
            c-0.025-0.053-0.061-0.123-0.096-0.188c0.713-0.396,1.195-1.16,1.195-2.033c0-1.283-1.035-2.324-2.318-2.324
            c-0.24,0-0.475,0.037-0.689,0.105c-0.605-1.482-1.119-2.779-1.119-2.779l6.807,2.963l-2.219,7.449l0.746,1.654l2.707-9.701
            l-8.691-3.722l-0.588-1.721l3.604-7.359l-7.771-4.604l-0.326-1.465l4.184-7.898l-7.523-5.778l5.504-7.111l-6.775-5.689l0.076-0.942
            l5.613-6.462l-5.803-5.966l-0.162-2.413l6.324-5.621l-5.461-7.933c2.275-1.528,3.549-3.272,5.037-5.012l1.336,0.583l-4.854,3.675
            l5.182,7.485l5.469-4.937l-2.963-4.831l1.807,0.82l1.654,2.589l-0.271,2.646l-5.398,4.916l4.641,6.724l0.039,1.232
            c0,0-2.887,3.316-4.988,5.783l5.885,6.49l-4.812,6.141l6.055,5.152l-0.172-1.546l-4.465-3.769l3.428-4.153
            c0.244-2.503-0.299-6.798,0.98-8.684c-2.066-2.022-0.986-6.896,0.029-8.476c-1.975-2.337-0.846-7.467,0.414-7.683
            c-1.508-1.891-0.908-5.72,0.352-6.965c0.402-0.216-5.381-2.302-9.029-4.808c3.035-5.647,2.328-10.964,3.285-12.879
            c1.314,3.79,2.994,7.821,4.447,10.725c0.152,0.301,0.475,0.232,0.957,0.241c6.033,0.537,5.459,5.511,0.934,6.783
            c0,0,9.201,6.853,13.863,7.61c0.049,0.122,0.014,0.283-0.143,0.605c-0.662,1.368-1.043,3.735-1.143,5.817
            c-0.336,3.098,1.162,7.852,1.162,7.852l-1.91,1.182c-0.381,1.636-2.516,1.669-2.723,2.835c0.449,5.006,10.227,24.174,12.291,26.341
            C179.15,131.061,177.656,116.213,178.404,102.563z M176.173,137.444l1.584-1.302l-0.037,2.068L176.173,137.444z M177.72,140.615
            l-0.799-0.596l0.805-0.893L177.72,140.615z M79.417,165.027c0.148,0.942,0.324,1.877,0.516,2.793
            c-1.123,0.295-1.953,1.313-1.953,2.531c0,1.446,1.176,2.623,2.623,2.623c0.205,0,0.404-0.031,0.598-0.076
            c0.41,1.442,0.807,2.688,1.113,3.604l0.531,0.379c-1.434-4.985,1.344-7.668-2.76-11.811
            C80.025,164.863,79.722,164.92,79.417,165.027L79.417,165.027z M164.116,29.787l25.561,0.167v9.434l-19.699,20.943l7.598,0.094
            l-0.08,35.924c-2.084,0.864-4.068,2.207-5.988,3.504l-11.98-6.629l-0.863-0.44c0,0,0.33-0.094,1.033-0.555
            c1.355-0.889,1.873-3.071,1.256-4.712c-1.006-2.684-3.084-2.199-4.816-2.205c-1.438-1.11-2.67-4.826-3.68-7.307
            c-0.467-1.077-0.912-1.901-1.027-2.526c-0.105-0.577-0.104-1.082-0.104-1.082s0.232,0.071,0.574,0.77
            c1.906,4.021,6.367,5.963,8.736,2.162c1.199-2.331,0.371-4.993-1.645-5.737c-0.617-0.229-2.717,0.015-2.717,0.015
            c-0.123,0.073-1.521-1.974-3.498-8.699c-0.812-2.777-1.025-8.805-0.252-9.672c1.311-1.588,1.645-3.82,2.756-5.423
            c0.502-1.008,0.477-0.379,1.266,0.743c2.689,3.829,7.42,6.796,11.748,6.608c3.072-0.133,4.021-1.181,3.295-2.066
            c-1.686-1.723-2.789-4.141-3.342-6.259c-1.289-4.929-2.654-9.325-6.117-13.155L164.116,29.787z M151.138,53.191
            c0.322,0.305,0.066,0.774,0.01,1.626c-0.148,2.16-0.195,2.186-1.438,1.641c-2.381-1.045-5.75-0.131-7.779,2.071
            c-2.561,2.777-2.643,5.638-1.045,11.284c1.828,6.35,1.783,7.188-0.404,8.485c-1.318,1.122-2.67,3.474-2.162,3.467
            c0.068-0.002,0.252-0.144,0.4-0.313c0.15-0.17,1.355-1.139,2.281-1.772c2.543-1.739,3.34-2.629,2.17-5.841
            c-1.152-3.171-2.082-6.271-1.602-6.463c0.23-0.092,1.107,0.94,1.65,1.252c1.111,0.638,3.457,1.817,3.744,1.815
            c0.398-0.002-0.025-0.287-1.17-1.038c-3.061-2.01-4.314-3.83-1.361-2.679c1.582,0.616,3.256,0.257,4.201-0.053
            c1.1-0.359,1.676-0.723,1.791-0.309c0.16,1.956,0.008,3.971-0.113,5.937c-0.035,0.125-0.184,1.464-0.332,2.969
            c-0.559,5.713-1.533,10.524-4.043,13.625c-8.398,10.372-17.957,7.35-28.693-0.952c4.004-11.094,3.729-19.74,4.717-23.26
            c0.928-0.278,2.014,0.266,2.689,0.645c1.494,0.852,3.195,1.362,4.83,1.451c1.521,0.082,1.787-0.134,1.65,0.316
            c-0.105,0.349-2.557,1.067-4.059,1.381c-2.732,0.566-2.531,1.199-0.23,0.991c2.42-0.219,4.756-1.18,7.232-2.827
            c1.717-1.141,1.777-1.143,1.316-2.573c-0.109-0.345-0.344-0.861,0.477-1.162c0.848-0.312,0.729-0.658,0.246-1.043
            c-0.117-0.094-0.424-0.116-0.545-0.213c-0.152-0.12,0.012-0.657,0.01-0.73c-3.125-2.643-8.635-2.706-13.162,0.006
            c-0.229-0.081-0.463-0.436-0.242-0.921c0.477-1.042,5.35-2.291,8.811-2.347c1.576-0.025,1.885,0.175,4.262,0.899
            c0.977,0.3,1.523,0.378,1.611,0.229c0.203-0.338-0.15-1.345-0.9-1.883c-2.537-1.818-6.23-1.674-11.273,0.327
            c-2.697,1.07-2.418,1.438-1.547-3.889c0.242-1.478,0.521-2.605,0.521-2.605S147.257,51.575,151.138,53.191z M147.507,58.193
            c1.248,0.008,2.389,0.32,3.053,0.967c0.973,1.075-0.047,1.411-1.592,0.825c-1.977-0.75-4.223-0.323-5.965,0.758
            c-1.117,0.694-1.357,0.323-0.416-0.673C143.722,58.865,145.683,58.181,147.507,58.193z M129.56,60.045
            c2.178-0.015,4.172,0.375,4.988,1.294c0.748,0.839,0.027,0.926-1.84,0.194c-2.629-1.027-6.135-0.702-9.027,0.735
            c-1.484,0.737-1.939,0.889-1.744,0.047C122.81,60.953,126.382,60.068,129.56,60.045z M146.966,60.724
            c2.074,0.005,3.836,0.479,3.51,1.563c-0.117,0.387-0.219,0.153-1.703-0.304c-1.48-0.456-3.375-0.283-5.275,0.271
            c-1.775,0.519-2.115,0.636-1.318-0.133C143.144,61.19,145.138,60.718,146.966,60.724z M151.191,61.765
            c2.1,3.235,2.471,7.979,4.701,10.551c4.135-0.771,6.09,3.115,2.611,5.704c-1.768,0.98-3.924,0.241-5.508-2.354
            c-1.51-2.471-1.926-3.967-1.975-5.536C151.159,66.837,150.972,65.075,151.191,61.765z M126.997,63.251l0.916,0.108
            c0.664,2.252,2.152,2.389,3.043,0.028l0.693,0.113C130.595,66.394,127.96,66.513,126.997,63.251z M125.579,63.293
            c0.383-0.021,0.699,0.381,0.869,0.911c0.354,1.198-0.049,1.047-0.877,0.54c-0.842-0.51-1.484-0.847-1.002-1.053
            C124.929,63.499,125.216,63.368,125.579,63.293z M133.441,64.062c0.314,0.392,0.387,0.691-0.021,0.977
            c-0.398,0.209-0.691,0.341-1.076,0.479c-0.367,0.111-0.594,0.022-0.438-0.508c0.096-0.454,0.383-1.104,0.596-1.36
            C132.861,63.585,133.243,63.837,133.441,64.062z M144.54,63.786l0.725,0.053c0.762,2.06,2.539,1.999,3.225,0.213l0.648-0.005
            C147.913,67.236,145.423,66.659,144.54,63.786z M143.232,64.056c0.693,0,1.369,1,0.988,1.514c-0.385,0.321-2.1-0.045-2.252-0.679
            C141.909,64.508,142.536,64.058,143.232,64.056z M149.945,64.251c0.336,0.08,0.311,0.333,0.32,0.375
            c0.18,0.843-0.83,1.137-1.057,0.815C149.085,65.263,149.615,64.589,149.945,64.251z M133.97,73.269
            c-1.699,0.476-2.488,1.941-2.381,3.578c0.086,1.324,0.775,2.403,1.781,2.633c2.023,0.459,3.428-0.955,5.498-1.526
            c0.895-0.234,0.686-1.388,0.113-1.89c-0.736-0.645-1.865-0.242-3.381,0.917c-2.971,2.273-3.686-2.1-0.977-2.871
            C135.046,73.99,134.851,73.022,133.97,73.269z M46.111,173.984l1.154,0.334l-1.152,1.367
            C46.113,175.685,46.116,174.503,46.111,173.984L46.111,173.984z M49.327,178.663l-2.379,2.676l3.23-0.242l-2.189,2.277l3.361,0.135
            l-2.473,2.56l3.307-0.066l-2.443,2.47l3.121,0.09l-2.062,2.26l3.434-0.264l-2.506,2.703l3.678-0.066l-2.787,2.521l3.668-0.024
            l-1.102,1.256l0.977,0.49c0.998-0.465,6.752-2.254,6.943-3.603c-1.271-0.34-5.012,1.562-5.26,1.248
            c-1.5-6.617-7.969-21.25-12.236-25.518l-0.299,41.352c-0.652,0.605-1.693,0.306-2.359,0.574c-2.162-0.113-5.777,3.502-3.889,4.219
            c0.988,0.219,6.455,1.154,6.471,1.428c0.67,11.984-0.412,24.035,0.086,36.828c1.529,0.228,6.527,0.513,6.527,0.513
            s-18.334,19.131-18.693,18.746c0.428-20.505,0.203-60.589-0.156-60.736c0.004-1.203,0.424-3.736,0.424-3.736L33.325,81.231
            c0,0-0.107-0.57-0.328-0.935c-0.377-0.622-0.404-0.781-0.432-2.692c-0.146-1.182,0.023-1.488,0.023-1.488l0,0l12.545,13.247
            l0.236,37.334c0,0,11.646,17.262,14.381,25.354c5.99,12.054,5.342,29.617,8.975,36.341c0.076,0,0.148-0.003,0.223-0.009
            c0.088,0.979,0.1,1.373,0.242,1.525c0.271,2.193,0.568,5.188,0.568,5.188l-1.312,2.087l1.465,1.877l0.01,5.006l-1.953,1.987
            l1.787,2.267l-0.498,4.674l-1.395,1.242l0.793,1.065c0,0,0.131,1.687-0.186,3.613c-0.215,1.311-1.506,1.133-4.191-0.232
            c-3.805-1.44-7.699-4.022-10.705-5.969c0.18-2.434,3.193-7.983-1-14.104c-1.551-1.162-6.055-0.736-6.447-0.912l0.035-18.853
            M46.154,176.669l2.029-0.354l-2.049,2.053L46.154,176.669z M142.818,82.561c-0.164,0.02-0.371,0.174-0.641,0.475
            c-0.279,0.316-0.73,0.23-1.873,0.161c-1.223-0.074-1.531-0.04-2.338,0.251c-0.918,0.333-0.938,0.332-1.574,0.062
            c-0.992-0.423-1.615-0.473-2.529-0.213c-1.121,0.318-1.83,0.231-2.521-0.108c-0.701-0.346-0.924-0.275-1.166,0.359
            c-0.104,0.268-0.6,1.304-0.83,1.654c-0.748,1.146-0.568,1.336,1,0.854c1.078-0.331,3.064-0.541,4.541,0.07
            c1.125,0.466,2.463,0.317,4.064-0.379c1.402-0.609,2.787-0.805,4.133,0.327c0.785,0.659,0.742,0.16,0.541-1.204
            C143.4,83.344,143.243,82.511,142.818,82.561z M89.591,87.373c-1.447,0-2.621,1.171-2.621,2.617s1.174,2.622,2.621,2.622
            C90.277,92.042,90.63,87.479,89.591,87.373z M140.185,87.394c-1.594,0.542-3.783,1.268-6.252,0.544
            c-1.938-0.593-1.477,0.864,0.629,1.048c1.467,0.126,1.365,0.126,0.225,1.193c-0.961,0.9,0.244,0.836,0.9,0.275
            c0.775-0.661,2.885-0.489,4.072,0.052c0.521,0.237,0.578-0.75-0.043-0.967c-1.564-0.547-1.188-0.589,0.52-1.145
            C140.868,88.252,140.89,87.155,140.185,87.394z M89.591,88.25c0.828,0.312,0.311,3.35,0,3.484c-0.963,0-1.744-0.782-1.744-1.744
            C87.845,89.028,88.628,88.25,89.591,88.25z M75.615,88.36c0.668-0.229,1.139,0.882,1.139,1.631c0,0.962-0.779,1.744-1.74,1.744
            c-1.178-1.147-1.393-2.427-0.029-3.148C75.179,88.511,75.388,88.436,75.615,88.36L75.615,88.36z M82.503,90.923l-5.6,5.661
            l5.496,5.565l5.504-5.688L82.503,90.923z M148.822,93.167c0.801,0,1.447,0.653,1.447,1.455s-0.646,1.451-1.447,1.451
            c-0.805,0-1.457-0.649-1.457-1.451S148.017,93.167,148.822,93.167z M82.456,95.068c0.801,0,1.451,0.654,1.451,1.456
            s-0.65,1.45-1.451,1.45c-0.803,0-1.451-0.648-1.451-1.45S81.654,95.068,82.456,95.068z M141.97,96.457l4.012,5.399l-4.918,4.408
            l0.252-2.739c1.084-0.196,1.906-1.148,1.906-2.29c0-0.99-0.621-1.833-1.494-2.166L141.97,96.457z M75.179,96.755l-0.057,1.471
            l5.053,5.006l-5.002,5.19l0.043,1.438l6.225-6.628L75.179,96.755z M89.462,96.759l-6.176,6.34l5.959,6.51l0.076-1.649l-4.682-4.836
            l4.771-4.735L89.462,96.759z M178.609,97.775c1.258-0.001,2.336,0.411,2.664,1.232c0.258,0.462,0.395,0.86,0.771,1.033
            c0.734,0.336,1.73,0.104,1.777-0.143c0.086-0.001-1.17-0.12-1.385-0.312c-0.982-0.886-0.816-1.442,0.578-1.332
            c0.451,0.021,1.705,0.039,1.734,0.53c0.279,1.694-1.975,2.935-4.857,2.708c-2.057-0.34-2.066,0.452-2.209,1.55
            c-0.092,0.36-0.408,0.942-0.664,1.403c-0.729,1.304-0.967,1.122-0.461,1.626c0.492,0.642,1.129,1.438,1.119,2.186l-0.021,6.873
            c0,0-4.314-0.019-5.814-1.103c-1.568-2.865-2.639-9.044-0.332-12.437c0.809-1.017,1.988-1.502,3.35-2.579
            C175.907,98.181,177.349,97.777,178.609,97.775z M154.216,98.547l-0.156,1.986c-1.096,0.187-1.936,1.137-1.936,2.285
            c0,1.019,0.662,1.882,1.574,2.194l-0.139,1.727l-3.199-4.594L154.216,98.547z M141.652,99.89c0.473,0.263,0.793,0.766,0.793,1.346
            c0,0.684-0.439,1.266-1.055,1.47L141.652,99.89z M74.892,100.615c-2.215,1.149-1.451,5.606,0,5.238c1.447,0,2.617-1.177,2.617-2.622
            C77.509,101.785,76.341,100.615,74.892,100.615z M89.353,100.681c-1.445,0-2.621,1.171-2.621,2.616c0,1.446,1.176,2.622,2.621,2.622
            C91.277,105.315,90.187,100.767,89.353,100.681z M153.993,101.344l-0.23,2.859c-0.508-0.254-0.855-0.778-0.855-1.385
            C152.907,102.126,153.365,101.54,153.993,101.344z M74.892,101.492c0.965,0,1.74,0.777,1.74,1.739c0,0.963-0.777,1.745-1.74,1.745
            C74.322,105.089,73.956,101.793,74.892,101.492z M89.353,101.559c1.166,0.095,0.197,3.062,0,3.483c-0.963,0-1.744-0.782-1.744-1.745
            C87.609,102.336,88.39,101.559,89.353,101.559z M148.091,103.212l-5.779,5.76l5.707,6.293l4.752-5.774L148.091,103.212z
            M82.366,104.308l-5.543,5.709l5.236,5.414l5.529-5.838L82.366,104.308z M45.945,107.433l2.023,2.146l-2.092,0.02L45.945,107.433z
            M147.638,107.646c0.805,0,1.451,0.652,1.451,1.456c0,0.802-0.646,1.449-1.451,1.449c-0.801,0-1.449-0.647-1.449-1.449
            C146.187,108.298,146.839,107.646,147.638,107.646z M82.337,108.433c0.803,0,1.455,0.648,1.455,1.45
            c0,0.803-0.652,1.455-1.455,1.455s-1.451-0.652-1.451-1.455C80.886,109.081,81.534,108.433,82.337,108.433z M89.501,110.129
            l-6.125,6.329l5.916,6.301l0.08-1.492l-4.74-4.771l4.807-4.921L89.501,110.129z M75.095,110.14l0.062,1.603l4.916,4.873
            l-5.168,5.196l0.209,1.398l6.354-6.571L75.095,110.14z M141.216,111.875l4.434,4.409l-4.42,4.921l-0.004-2.556
            c0.91-0.314,1.564-1.184,1.564-2.199c0-1.02-0.656-1.878-1.57-2.19L141.216,111.875z M153.437,112.103l0.049,1.802
            c-0.996,0.261-1.734,1.164-1.734,2.242c0,1.121,0.797,2.057,1.854,2.274l0.037,1.428l-3.508-3.868L153.437,112.103z M50.956,112.913
            c0,0,1.479,1.578,1.98,2.224c-0.393,0.457-0.637,1.048-0.637,1.697c0,1.446,1.176,2.621,2.623,2.621
            c0.416,0,0.807-0.102,1.156-0.273c0.27,0.398,1.451,2.033,1.451,2.033l-6.969-1.118L50.956,112.913z M89.468,113.961
            c-1.447,0-2.621,1.17-2.621,2.617c0,1.446,1.174,2.621,2.621,2.621C92.097,118.664,91.579,114.087,89.468,113.961z M74.874,114.061
            c-1.445,0-2.621,1.17-2.621,2.616s1.176,2.621,2.621,2.621c1.447,0,2.617-1.175,2.617-2.621S76.322,114.061,74.874,114.061z
            M153.505,114.71l0.08,2.906c-0.615-0.205-1.057-0.787-1.057-1.47C152.529,115.493,152.931,114.936,153.505,114.71z M89.468,114.837
            c1.693,0.617,1.178,3.602,0,3.484c-0.963,0-1.744-0.782-1.744-1.744C87.722,115.615,88.505,114.837,89.468,114.837z M74.874,114.938
            c0.963,0,1.74,0.776,1.74,1.739s-0.777,1.744-1.74,1.744c-0.961,0-1.744-0.782-1.744-1.744
            C73.13,115.714,73.913,114.938,74.874,114.938z M141.22,115.104c0.473,0.264,0.793,0.766,0.793,1.347
            c0,0.578-0.316,1.085-0.787,1.351L141.22,115.104z M53.488,115.847l2.039,2.622c-0.189,0.069-0.391,0.108-0.604,0.108
            c-0.963,0-1.744-0.782-1.744-1.744C53.179,116.466,53.294,116.128,53.488,115.847L53.488,115.847z M147.825,117.038l-4.789,5.755
            l5.885,5.22l4.172-5.166L147.825,117.038z M82.388,117.73l-5.875,5.965l4.148,4.31l-2.295-0.252l-3.318-3.385l-0.076,1.124
            l1.809,2.066l-1.93-0.066l0.34,0.896c4.758,0.135,9.283,1.533,13.898,2.448l0.281-0.621l-1.711-0.438l1.617-1.935l-0.02-1.47
            l-2.797,2.996l-0.949-0.218l3.965-4.087l-0.266-1.247l-4.875,4.986l-1.416-0.321l4.953-5.055L82.388,117.73z M148.068,121.162
            c0.801,0,1.447,0.649,1.447,1.451s-0.646,1.45-1.447,1.45c-0.805,0-1.457-0.648-1.457-1.45S147.263,121.162,148.068,121.162z
            M82.191,121.916c0.801,0,1.449,0.649,1.449,1.451s-0.648,1.45-1.449,1.45c-0.805,0-1.451-0.648-1.451-1.45
            S81.388,121.916,82.191,121.916z M49.288,122.333c0,0-0.377,4.772-0.588,7.069l7.59,2.028l0.943-7.623L49.288,122.333z
            M45.978,122.694l1.059,0.038l-0.133,4.398l-1.072-1.052L45.978,122.694z M60.019,124.623c0,0,0.766,1.228,1.639,2.579
            c-0.471,0.473-0.762,1.121-0.762,1.84c0,1.446,1.178,2.622,2.623,2.622c0.268,0,0.521-0.04,0.766-0.114
            c0.34,0.646,0.977,1.669,0.977,1.669l-6.506-1.905L60.019,124.623z M141.458,125.112l5.105,4.158l-3.971,4.883l-0.266-2.095
            c0.896-0.323,1.537-1.181,1.537-2.188c0-1.207-0.922-2.196-2.1-2.309L141.458,125.112z M53.128,125.183
            c0.801,0,1.451,0.648,1.451,1.45c0,0.803-0.65,1.455-1.451,1.455c-0.803,0-1.455-0.652-1.455-1.455
            C51.673,125.831,52.325,125.183,53.128,125.183z M155.187,125.643c-1.281,0-2.326,1.034-2.326,2.317s1.045,2.328,2.326,2.328
            C155.695,130.661,155.835,126.299,155.187,125.643z M155.187,126.42c0.139,0.691,0.307,3.254,0,3.092
            c-0.854,0-1.551-0.696-1.551-1.551C153.636,127.108,154.335,126.42,155.187,126.42z M62.15,127.965
            c0.582,0.915,1.184,1.901,1.691,2.792c-0.104,0.021-0.213,0.029-0.322,0.029c-0.963,0-1.744-0.783-1.744-1.745
            C61.775,128.634,61.915,128.261,62.15,127.965z M141.866,128.365c0.695,0.146,1.223,0.765,1.223,1.507
            c0,0.606-0.352,1.131-0.859,1.385L141.866,128.365z M148.782,129.725l-4.314,5.788l6.547,5.105l3.709-6.334L148.782,129.725z
            M50.298,132.081l4.877,1.427l-0.918,4.992c-0.078-0.291-0.352-0.816-0.717-1.444c0.209-0.379,0.332-0.811,0.332-1.271
            c0-1.446-1.17-2.616-2.617-2.616c-0.07,0-0.141,0.004-0.209,0.009C50.611,132.535,50.298,132.081,50.298,132.081z M57.527,133.295
            l-1.59,7.96l7.342,2.953l1.785-8.41L57.527,133.295z M149.616,133.357c0.803,0,1.451,0.647,1.451,1.45s-0.648,1.45-1.451,1.45
            c-0.801,0-1.455-0.647-1.455-1.45S148.812,133.357,149.616,133.357z M51.663,134.09c0.764,0.185,1.332,0.871,1.332,1.692
            c0,0.109-0.016,0.215-0.033,0.318C52.542,135.427,52.085,134.727,51.663,134.09z M155.845,134.308l-3.934,7.411l6.688,4.671
            l-0.459-1.584l-4.781-3.509l2.779-5.099L155.845,134.308z M60.784,136.989c0.803,0,1.451,0.653,1.451,1.455
            s-0.648,1.451-1.451,1.451c-0.801,0-1.451-0.649-1.451-1.451S59.984,136.989,60.784,136.989z M67.712,137.728l1.559,2.717
            c-0.643,0.477-1.062,1.238-1.062,2.1c0,1.447,1.176,2.622,2.623,2.622c0.217,0,0.424-0.031,0.625-0.08l1.129,2.395l-6.812-2.981
            L67.712,137.728z M157.365,137.751c-0.611-0.142-1.195,0.248-1.613,0.652c-0.438,0.422-0.711,1.015-0.711,1.671
            c0,1.283,1.041,2.323,2.324,2.323C159.118,141.972,158.177,137.94,157.365,137.751z M143.267,138.392l5.537,3.958l-3.23,6.238
            c0,0-0.324-1.26-0.734-2.953c0.785-0.372,1.332-1.172,1.332-2.101c0-1.283-1.041-2.323-2.324-2.323c-0.01,0-0.018,0-0.027,0
            C143.599,140.197,143.407,139.216,143.267,138.392z M157.365,138.529c0.961,0.294,0.637,2.992,0,3.092
            c-0.846,0.132-1.547-0.692-1.547-1.546C155.818,139.22,156.511,138.529,157.365,138.529z M69.656,141.259l1.418,3.012
            c-0.08,0.011-0.16,0.019-0.242,0.019c-0.963,0-1.746-0.782-1.746-1.745C69.085,142.035,69.304,141.577,69.656,141.259z
            M143.993,141.999c0.787,0.072,1.398,0.731,1.398,1.536c0,0.559-0.301,1.046-0.744,1.318
            C144.433,143.953,144.21,142.972,143.993,141.999z M151.3,142.791l-3.793,7.495l7.008,4.271l3.225-7.25L151.3,142.791z
            M57.466,144.233l4.318,1.963l-1.219,4.456l-0.525-1.09c0.254-0.405,0.408-0.881,0.408-1.396c0-1.351-1.023-2.462-2.338-2.603
            L57.466,144.233z M64.288,146.347l-2.119,7.494l6.732,3.506l3.07-7.545L64.288,146.347z M58.618,146.617
            c0.562,0.287,0.953,0.872,0.953,1.55c0,0.119-0.018,0.234-0.039,0.348L58.618,146.617z M152.546,147.224
            c0.803,0,1.457,0.652,1.457,1.455s-0.654,1.45-1.457,1.45c-0.801,0-1.449-0.647-1.449-1.45
            C151.095,147.877,151.745,147.224,152.546,147.224z M158.943,147.637l-3.217,7.847l7.383,4.069l-0.557-1.43l-5.455-3.147l2.34-5.68
            L158.943,147.637z M66.991,150.253c0.801,0,1.449,0.649,1.449,1.451s-0.648,1.45-1.449,1.45c-0.805,0-1.451-0.648-1.451-1.45
            S66.187,150.253,66.991,150.253z M161.261,151.415c-1.283,0-2.322,1.04-2.322,2.323c0,1.282,1.041,2.37,2.322,2.323
            C163.593,156.008,162.404,151.396,161.261,151.415z M74.206,151.675c0.439,0.799,0.771,1.634,1.076,2.489
            c-0.693,0.47-1.152,1.267-1.152,2.166c0,1.396,1.092,2.537,2.465,2.617c0.053,0.004,0.295,0.039,0.295,0.039l0.418,1.578
            l-5.795-3.039C72.325,155.344,73.019,153.833,74.206,151.675z M161.261,152.193c0.678,0.283,0.859,3.004,0,3.092
            c-0.854,0-1.545-0.693-1.545-1.546C159.716,152.884,160.407,152.193,161.261,152.193z M146.982,153.092l5.691,3.263l-2.857,6.17
            l-0.85-2.826c0.613-0.42,1.021-1.121,1.021-1.92c0-1.273-1.025-2.31-2.295-2.324L146.982,153.092z M75.591,155.038l0.906,3.016
            c-0.922-0.047-1.49-0.789-1.49-1.723C75.007,155.816,75.234,155.357,75.591,155.038z M147.933,156.26
            c0.727,0.128,1.275,0.757,1.275,1.519c0,0.443-0.186,0.84-0.484,1.123L147.933,156.26z M62.966,156.46l4.404,2.574l-1.986,5.139
            l-0.578-1.854c0.395-0.459,0.635-1.053,0.635-1.707c0-1.221-0.838-2.242-1.969-2.531L62.966,156.46z M154.904,156.564l-2.67,7.153
            l7.725,4.06l1.928-7.32L154.904,156.564z M63.82,159.187c0.445,0.313,0.742,0.836,0.742,1.426c0,0.211-0.041,0.41-0.107,0.598
            L63.82,159.187z M69.589,159.542l-3.135,7.258l6.52,4.295l3.395-7.565L69.589,159.542z M157.325,160.722
            c0.803,0,1.451,0.647,1.451,1.45c0,0.802-0.648,1.451-1.451,1.451c-0.801,0-1.449-0.649-1.449-1.451
            S156.525,160.722,157.325,160.722z M164.966,163.913c-0.65,0.416-1.035,1.225-1.035,2.053c0,1.283,1.039,2.33,2.322,2.322
            c0.287-0.002,0.543-0.031,0.771-0.084C167.695,167.308,166.745,163.87,164.966,163.913z M71.536,163.704
            c0.803,0,1.451,0.648,1.451,1.451c0,0.801-0.648,1.455-1.451,1.455c-0.801,0-1.449-0.654-1.449-1.455
            C70.087,164.353,70.736,163.704,71.536,163.704z M166.595,167.443c-0.096,0.051-0.209,0.074-0.344,0.067
            c-0.852-0.039-1.545-0.69-1.545-1.545c0-0.485,0.225-0.92,0.576-1.203C166.618,163.76,166.812,167.642,166.595,167.443z
            M80.118,168.676c0.268,1.191,0.561,2.322,0.85,3.377c-0.119,0.025-0.24,0.041-0.365,0.041c-0.963,0-1.746-0.78-1.746-1.743
            C78.855,169.556,79.388,168.885,80.118,168.676z M161.056,169.531l-2.02,8.047l7.727,2.814l1.48-7.613L161.056,169.531z
            M66.847,169.64l4.102,2.829c0,0-1.324,3.197-2.445,4.902l-0.318-1.479c0.68-0.476,1.125-1.259,1.125-2.148
            c0-1.281-0.918-2.348-2.135-2.574L66.847,169.64z M153.56,170.025c0.855,0,1.541,0.688,1.541,1.541c0,0.559-0.168,0.789-0.609,1.061
            c-0.34-0.764-0.809-1.52-1.23-2.545C153.388,170.047,153.425,170.025,153.56,170.025z M67.384,172.148
            c0.617,0.268,1.049,0.883,1.049,1.598c0,0.453-0.174,0.865-0.457,1.176L67.384,172.148z M73.542,173.323l-3.721,6.467l5.461,4.178
            l4.268-6.473L73.542,173.323z M163.656,173.542c0.801,0,1.451,0.652,1.451,1.455s-0.65,1.451-1.451,1.451
            c-0.805,0-1.455-0.648-1.455-1.451S162.851,173.542,163.656,173.542z M170.341,175.551l0.947,1.472
            c-0.295,0.389-0.477,0.871-0.477,1.397c0,1.281,1.047,2.322,2.328,2.322c0.176,0,0.346-0.016,0.51-0.053l0.764,1.182l-4.846-1.736
            L170.341,175.551z M74.657,177.279c0.801,0,1.449,0.647,1.449,1.449c0,0.803-0.648,1.45-1.449,1.45c-0.805,0-1.457-0.647-1.457-1.45
            C73.2,177.926,73.853,177.279,74.657,177.279z M171.753,177.743l1.432,2.223c-0.014,0-0.027,0-0.043,0
            C171.788,179.941,171.216,178.827,171.753,177.743z M81.622,177.84l-5.273,6.994l6.994,5.183l-0.109-1.545l-5.111-3.65l3.889-5.178
            L81.622,177.84z M158.611,180.208l6.961,2.187l-1.49,6.901l-1.639-2.727c0.443-0.424,0.725-1.019,0.725-1.683
            c0-1.282-1.035-2.323-2.318-2.323c-0.26,0-0.512,0.045-0.744,0.123L158.611,180.208z M82.792,181.407
            c-1.32,0.133-2.355,1.246-2.355,2.604c0,1.445,1.174,2.621,2.621,2.621c0.666,0.078,0.762-0.938,0-0.877
            c-0.963,0-1.744-0.783-1.744-1.744c0-0.926,0.721-1.678,1.631-1.735l-0.129-0.867C82.806,181.407,82.8,181.407,82.792,181.407z
            M168.062,182.152l-1.209,7.988l7.887,1.684l0.588-7.244L168.062,182.152z M69.484,182.347l3.723,2.747l-2.826,3.955l-0.152-1.133
            c0.676-0.475,1.115-1.262,1.115-2.147c0-1.136-0.723-2.093-1.73-2.455L69.484,182.347z M160.847,183.34
            c0.855,0,1.541,0.693,1.541,1.547c0,0.38-0.139,0.726-0.363,0.994l-1.506-2.502C160.626,183.357,160.738,183.34,160.847,183.34z
            M135.845,184.39c0.168,0.061,0.645,0.098,0.568,0.25c-0.062,0.129-1.322,1.514-1.322,1.514l0.143,1.289l2.236-2.537l0.902,0.332
            l-3.146,3.195l-0.145,1.19l4.186-4.111l1.787,0.492l-4.867,4.795l5.607,5.685l5.613-5.724l-3.986-4.356l1.973,0.186
            c0.83,0.949,1.746,2.457,3.275,3.262l-0.152-1.137c-0.078,0.053-1.855-1.674-1.574-1.955l1.57,0.115c0,0,2.266-0.66-0.574-0.66
            c-3.727,0.002-7.742-1.268-10.941-2.219c-0.357-0.107-0.902-0.393-1.168-0.402C134.87,183.741,135.183,184.137,135.845,184.39
            L135.845,184.39z M69.755,184.37c0.43,0.316,0.711,0.822,0.711,1.398c0,0.409-0.143,0.787-0.379,1.086L69.755,184.37z
            M170.952,185.758c0.801,0,1.449,0.648,1.449,1.451s-0.648,1.451-1.449,1.451c-0.803,0-1.451-0.648-1.451-1.451
            S170.15,185.758,170.952,185.758z M75.548,185.902l-4.533,5.76l5.135,4.926l5.258-6.162L75.548,185.902z M177.329,187.376
            l0.359,0.062l0.02,3.93l-0.584-0.123L177.329,187.376z M141.947,189.202c0.801,0,1.451,0.648,1.451,1.449
            c0,0.803-0.65,1.451-1.451,1.451c-0.805,0-1.455-0.648-1.455-1.451C140.491,189.851,141.142,189.202,141.947,189.202z
            M76.249,189.615c0.803,0,1.451,0.652,1.451,1.455s-0.648,1.451-1.451,1.451c-0.801,0-1.449-0.648-1.449-1.451
            S75.448,189.615,76.249,189.615z M83.247,190.756l-5.855,6.979l6.287,6.49l-0.02-1.451l-4.883-5.119l4.574-5.334L83.247,190.756z
            M148.716,191.396l-6.025,6.088l6.006,6.225l0.143-1.397l-4.637-4.681l4.344-4.483L148.716,191.396z M135.47,192.027l0.01,1.654
            l3.777,3.846l-3.867,3.949l0.023,1.678l5.484-5.654L135.47,192.027z M166.339,192.753l7.098,1.342l-0.438,6.703l-1.707-2.062
            c0.291-0.39,0.465-0.871,0.465-1.396c0-1.28-1.039-2.317-2.322-2.317c-0.367,0-0.711,0.086-1.02,0.237L166.339,192.753z
            M70.687,193.947l3.498,3.68l-3.342,3.779l-0.029-1.285c0.934-0.402,1.586-1.33,1.586-2.408c0-1.117-0.697-2.065-1.684-2.44
            L70.687,193.947z M83.659,194.876c-1.162,0.269-2.033,1.308-2.033,2.551c0,1.244,0.871,2.287,2.033,2.556v-0.914
            c-0.672-0.242-1.156-0.885-1.156-1.642c0-0.756,0.484-1.395,1.156-1.635V194.876z M135.085,195.122
            c-1.076,0.711-0.596,4.713,0,4.646c1.283,0,2.318-1.039,2.318-2.322S136.368,195.122,135.085,195.122z M148.829,195.503
            c-1.281,0-2.322,1.039-2.322,2.322s1.041,2.322,2.322,2.322C149.849,199.812,149.433,195.736,148.829,195.503z M169.433,195.801
            c0.855,0,1.545,0.687,1.545,1.539c0,0.279-0.076,0.543-0.209,0.771l-1.838-2.229C169.089,195.827,169.259,195.801,169.433,195.801z
            M135.085,195.9c0.854,0,1.541,0.692,1.541,1.547c0,0.854-0.689,1.545-1.541,1.545C135.163,198.439,134.796,195.837,135.085,195.9z
            M70.736,196.256c0.477,0.31,0.785,0.845,0.785,1.455c0,0.584-0.281,1.105-0.725,1.422L70.736,196.256z M148.829,196.281
            c0.193,0.625,0.436,3.199,0,3.09c-0.854,0-1.545-0.691-1.545-1.545S147.976,196.281,148.829,196.281z M141.804,198.532l-5.656,5.627
            l5.775,5.902l5.461-5.826L141.804,198.532z M76.556,198.835l-5.061,5.467l4.877,6.334l5.723-5.698L76.556,198.835z M49.105,199.034
            c1.561,0.002,3.014,0.268,3.605,1.305c2.385,3.193,1.699,9.752,0.049,12.008c-3.711,3.367-5.811,4.261-9.994,3.49
            c0.48-1.893-1.531-2.912-1.82-2.494c-0.037,0.006-0.193,0.338-0.006,0.359c1.443,0.178,1.328,1.898,1.158,1.906
            c-1.594-0.051-2.631-0.023-2.793-0.732c-0.1-0.438,0.156-1.115,1.086-1.875c1.09-0.873,6.115-0.854,6.115-0.854
            c0.02,0.008-0.012-1.429,0.492-2.252c0.441-0.724,1.057-1.525,0.635-1.857c-0.725-0.336-1.213-1.148-1.316-2.086
            c-0.197-1.967,0.113-6.697,0.043-6.748C47.204,199.124,48.173,199.032,49.105,199.034z M141.794,202.685
            c0.803,0,1.455,0.647,1.455,1.45c0,0.802-0.652,1.451-1.455,1.451c-0.801,0-1.451-0.649-1.451-1.451
            S140.993,202.685,141.794,202.685z M76.595,203.249c0.801,0,1.449,0.648,1.449,1.451c0,0.801-0.648,1.455-1.449,1.455
            c-0.803,0-1.457-0.654-1.457-1.455C75.138,203.898,75.794,203.249,76.595,203.249z M148.712,204.615l-5.912,6.031l6.301,6.518
            l-0.199-1.768l-4.537-4.67l4.438-4.627L148.712,204.615z M135.355,204.728l-0.16,1.67l4.188,4.397l-3.803,3.908l-0.059,1.896
            l5.596-5.898L135.355,204.728z M70.626,207.003l3.344,4.689l-3.979,3.49l0.104-1.332c1.154-0.273,2.016-1.312,2.016-2.552
            c0-1.098-0.676-2.032-1.633-2.424L70.626,207.003z M83.142,207.928c-0.076,0.974-0.131,1.759-0.18,2.476
            c-1.084,0.32-1.879,1.326-1.879,2.512c0,1.055,0.625,1.959,1.521,2.377c-0.07,0.75-0.164,1.582-0.297,2.625l-3.998-5.846
            L83.142,207.928z M177.636,208.204l0.156,16.398l11.85,12.332l0.127,46.026l-48.928,0.297L128.255,261.9
            c-0.275-0.402-0.613-0.271-0.887-0.672l3.729-19.929c5.875,2.705,10.816-4.291,7.609-9.961
            C156.816,224.726,177.636,208.204,177.636,208.204z M148.745,208.294c-1.283,0-2.324,1.035-2.324,2.318s1.041,2.328,2.324,2.328
            s0.797-0.795,0.797-2.076C149.542,209.581,150.029,208.294,148.745,208.294z M135.218,208.431c-0.645,0.733-1.012,4.678,0,4.646
            c1.283-0.039,2.324-1.045,2.324-2.328S136.501,208.431,135.218,208.431z M148.745,209.072c0.854,0,0.463,0.836,0.463,1.688
            c0,0.854,0.391,1.4-0.463,1.4c-0.855,0-1.547-0.695-1.547-1.549C147.198,209.757,147.89,209.072,148.745,209.072z M135.218,209.208
            c0.854,0,1.541,0.688,1.541,1.541c0,0.854-0.688,1.545-1.541,1.545C135.308,212.038,134.831,209.314,135.218,209.208z
            M70.409,209.82c0.494,0.307,0.824,0.854,0.824,1.479c0,0.724-0.439,1.343-1.066,1.607L70.409,209.82z M82.89,211.376
            c-0.07,1.111-0.123,2.027-0.197,2.953c-0.441-0.316-0.73-0.83-0.73-1.414C81.962,212.249,82.341,211.667,82.89,211.376z
            M141.726,211.911l-5.514,5.514l5.742,5.966l5.457-5.775L141.726,211.911z M76.138,213.342l-5.771,4.638l3.717,5.698l1.295,0.777
            l5.285-4.522L76.138,213.342z M52.958,213.728l13.592,7.252c0,0-3.525,1.477-3.428,3.832c0.139,2.633,1.719,4.784,4.85,3.977
            c0.719-0.104,1.047,0.195,1.74,1.812c1.326,3.094,2.637,6.495,2.123,6.391c-1.666-1.332-1.418-1.404-3.379-2.285
            c-3.662-1.01-5.889,2.396-4.732,5.152c1.078,2.543,2.873,2.688,4.67,2.428c0.264,0.061,0.486,0.35,0.664,0.684
            c0.57,1.156,1.438,3.218,2.115,6.386c1.043,4.887,1.277,11.002,0.516,12.541c-1.053,2.127-2.508,5.006-2.508,5.006
            c-2.834-5.402-9.012-10.14-15.953-8.463c-0.234,0.146-0.281,0.909,0.033,1.356c2.252,2.953,2.633,5.662,3.438,8.566
            c2.062,7.445,6.225,11.707,6.168,10.945l-2.18,3.95c0,0-18.875,0.095-26.6,0v-9.069l20.234-20.726l-8.018-0.34l0.277-35.729
            C49.513,216.786,52.958,213.728,52.958,213.728z M141.827,216.017c0.803,0,1.451,0.647,1.451,1.45c0,0.802-0.648,1.455-1.451,1.455
            c-0.801,0-1.455-0.653-1.455-1.455S141.027,216.017,141.827,216.017z M75.525,217.486c0.803,0,1.453,0.649,1.453,1.451
            c0,0.803-0.65,1.455-1.453,1.455c-0.805,0-1.451-0.652-1.451-1.455C74.073,218.135,74.72,217.486,75.525,217.486z M135.337,218.82
            l0.143,1.432l3.977,4.166l-3.684,3.746c-0.535,0.734-1.91,0.574-2.342,0.625c-0.002,0.047,0.092,0.545,0.418,0.688
            c0.344,0.151,0.754,0.125,0.92,0.219c0.383,0.219,0.631,0.252,0.631,0.252l5.352-5.478L135.337,218.82z M135.4,222.056
            c-0.969,0.305-0.797,4.409,0,4.646c1.279,0,2.32-1.039,2.32-2.322S136.679,222.056,135.4,222.056z M149.038,222.687
            c0.098,0.381,0.24,3.057,0,3.092c-0.855,0-1.545-0.691-1.545-1.545C147.493,223.379,148.183,222.687,149.038,222.687z
            M135.4,222.835c0.854,0,1.545,0.691,1.545,1.545c0,0.854-0.691,1.545-1.545,1.545C135.191,225.57,134.845,222.883,135.4,222.835z
            M87.572,223.579c-0.23,0.086-0.551,0.031-0.803,0.033c-0.807,0.002-1.809-0.568-2.027-0.465c-0.252,0.119-0.168,0.646-0.154,0.883
            c0.027,0.221,0.643,0.293,0.893,0.459c0.406,0.268,0.297,0.359-0.164,0.469c-0.41,0.096-0.74,0.123-1.002,0.494
            c-0.16,0.23-0.176,0.633,0.102,0.629c1.609-0.022,3.652-0.688,5.58-0.041c1.102,0.396,1.818,0.639,1.994,0.488
            c0.367-0.316-0.922-1.549-2.156-1.779c-1.244-0.231-1.689-0.137-1.287-0.508c0.209-0.191,0.488-0.117,0.51-0.256
            c0.059-0.385-0.227-0.783-0.562-0.838C88.13,223.088,87.845,223.469,87.572,223.579L87.572,223.579z M94.497,227.447
            c-0.131,0.002-0.318,0.096-0.572,0.299c-0.734,0.488-1.885,1.141-4.656,0.381c-1.523-0.502-3.234-0.063-4.229,0.217
            c-0.777,0.218-1.889,0.433-2.779,0.023c-0.869-0.418-1.82-1.051-1.645-0.398c0.045,0.168,0.098,1.125,0.107,1.693
            c0.027,1.338,0.119,2.453,1.086,1.404c0.418-0.455,0.924-0.459,1.867-0.086c0.674,0.266,1.146,0.444,1.67,0.104
            c0.738-0.484,1.377-0.604,2.744-0.143c0.648,0.221,1.328,0.239,2.148-0.267c1.361-0.838,2.227-0.022,2.75,0.836
            c0.412,0.679,0.619-0.289,1.383-2.305C94.765,228.245,94.888,227.443,94.497,227.447z M87.97,234.937
            c-0.742,0.42-1.775,0.545-2.529,1.041c-1.594,1.098-0.102,2.012,1.006,1.782c0.453-0.104,0.977-0.327,1.557-0.713
            c1.992-1.321,3.098-1.129,3.285,0.474c0.203,1.729-2.463,2.512-2.215,3.313c0.336,0.523,1.629-0.194,2.43-1.28
            C93.88,236.333,91.263,233.077,87.97,234.937z M98.292,244.019c-2.703,0.307-6.771,1.61-8.814,3.146
            c-1.605,1.25-2.045,1.564-1.365,2.062c0.623,0.457,1.1,0.473,0.246,1.346c-0.305,0.312-0.822,0.965-0.82,1.092
            c0.01,0.625,3.822,2.486,6.012,2.777c1.689,0.225,4.418-0.031,5.891-0.625c1.938-0.783,2.004-1.318,0.172-0.779
            c-1.432,0.42-3.156,0.736-4.855,0.613c-1.531-0.111-3.031-0.578-3.979-0.916c-2.344-0.836-1.936-1.812,0.432-0.98
            c2.725,1.177,6.256,1.156,9.391-0.256c1.266-0.572,1.621-1.02,1.85-0.826c0.057,0.05,0.184,0.359,0.219,0.445
            c0.08,0.207,0.088-0.531,0.199-1.705c0.092-0.977,0.184-2.281,0.184-2.281s-0.188,0.552-0.184,0.812
            c0.025,1.705-0.803,1.713-3.145,0.408c-2.75-1.513-4.088-1.363-6.701-1.349c-1.146,0.006-1.197-0.324,0.414-0.854
            c0.768-0.254,1.945-0.662,3.699-1.226C98.585,244.46,98.974,243.941,98.292,244.019z M77.556,247.46
            c0.996,0,1.891,0.846,2.145,2.488l-0.99-0.072c-0.33-2.449-2.109-1.893-2.807-0.436l-0.873,0.022
            C75.716,248.116,76.679,247.458,77.556,247.46z M80.091,247.611c0.402-0.037,2.279,0.873,2.393,1.151
            c0.125,0.308-0.588,0.638-1.213,0.82c-0.719,0.211-0.572,0.242-0.799-0.184C80.156,248.803,79.597,247.635,80.091,247.611z
            M75.304,247.73c0.021,0.264-0.551,1.227-0.961,1.352c-0.484,0.146-0.869-0.498-0.471-0.826
            C74.234,248.07,75.23,247.353,75.304,247.73L75.304,247.73z M94.589,247.857c1.26-0.052,2.432,1.221,2.531,2.727l-0.637-0.014
            c-0.59-3.133-2.994-2.424-3.535-0.189l-0.75-0.213C92.823,248.547,93.724,247.892,94.589,247.857L94.589,247.857z M92.113,248.081
            c0.346-0.022,0.301,0.256-0.113,1.09c-0.195,0.394-0.334,0.615-0.678,0.603c-0.467-0.068-0.777-0.22-1.016-0.588
            c-0.162-0.365,0.219-0.65,1.023-0.906C91.7,248.163,91.956,248.09,92.113,248.081L92.113,248.081z M97.409,248.312
            c0.221,0.002,0.623,0.145,1.256,0.422c1.619,0.715,1.809,1.008,0.963,1.414c-0.377,0.18-0.688,0.313-0.939,0.397
            c-0.758,0.252-0.734-0.172-0.938-0.696c-0.117-0.298-0.256-0.566-0.404-0.884C97.14,248.527,97.134,248.31,97.409,248.312z
            M73.698,250.967c0.27-0.002,0.854,0.354,2.023,0.771c1.684,0.602,3.379,0.381,5.613-0.33c0.922-0.295,1.236-0.479,0.873,0.057
            c-0.289,0.425-1.857,1.199-3.139,1.517c-2.4,0.596-5.57-0.533-5.572-1.765C73.517,251.04,73.577,250.967,73.698,250.967
            L73.698,250.967z M81.638,252.991c0.244,0.006,0.006,0.371-0.502,0.939c-0.789,0.879-1.992,1.483-3.219,1.7
            c-2.582,0.457-4.721-0.246-4.742-1.69c-0.014-1.041,0.168-1.058,1.441-0.398c1.082,0.56,3.514,0.693,5.473,0.062
            c0.645-0.17,1.303-0.562,1.416-0.593C81.562,252.997,81.605,252.991,81.638,252.991L81.638,252.991z M101.486,254.39
            c-1.959,0.518-4.039,1.038-5.939,1.403c-2.037,0.398-5.006,0.033-6.557-0.729c-1.146-0.562-1.547-0.23-1.043,0.862
            c0.328,0.716,0.822,1.466,2.295,1.978c2.133,0.744,7.135-0.465,10.852-2.385C103.253,254.56,102.839,253.978,101.486,254.39
            L101.486,254.39z M69.222,269.111l3.346-5.68c22.641,4.385,47.139,1.2,54.637,0.163c0,0,8.186,13.544,11.129,18.3
            c0.277,0.506,1.039,2.219,1.039,2.219l-77.307-0.063c1.08-2.176,2.107-4.989,2.107-4.989c-2.361-0.945-4.195-4.476-5.33-7.453
            c-0.994-2.613-2.719-8.996-4.984-12.105C57.825,257.251,67.802,262.273,69.222,269.111z"/>
        <path fill="#D40000" d="M138.714,283.474l-76.568,0.002l9.977-19.941c18.613,2.818,36.961,2.467,55.102-0.402l11.49,20.345V283.474L138.714,283.474z
            M34.083,267.579l-0.229-9.625l9.938,0.021L34.083,267.579z M117.267,204.404l-0.111-31.049l14.012,9.217l-0.51,31.525
            L117.267,204.404z M83.759,197.083c0.504-11.104-2.152-21.467-4.201-31.971l14.51-9.531l0.791,35.053L83.759,197.083z
            M45.562,167.904l0.393-40.035c13.051,18.771,20.982,37.463,23.26,63.203c-3.549,1.43-7.012,3.01-10.65,4.287
            C54.372,185.738,50.144,176.422,45.562,167.904L45.562,167.904z M177.806,185.137c-12.061-15.321-19.338-36.336-23.135-61.486
            l11.041-5.36c3.664,8.88,7.23,17.915,11.865,25.284L177.806,185.137z M130.183,157.844l-1.174-33.602l11.053-6.714
            c0.588,11.529,2.408,22.341,4.588,31.424L130.183,157.844z M106.144,139.911l-11.93-6.938l0.678-30.377l10.906,8.549
            L106.144,139.911z M180.609,55.683c0.854-3.182,6.604-7.24,9.066-9.43l-0.102,8.995C189.575,55.249,181.046,55.852,180.609,55.683z
            M97.001,50.819L84.626,29.701l77.572-0.651l-9.967,21.266C131.687,46.559,114.113,48.254,97.001,50.819z"/>
        <path d="M132.81,240.765c0.182,0.057,2.576-1.566,3.82-3.955c1.344-2.642,0.129-5.234,0.527-5.244
            c2.477,0.737,1.764,5.457,0.902,6.92c-0.73,1.271-2.129,2.127-3.574,2.371C133.058,241.099,132.81,240.765,132.81,240.765z
            M136.845,230.448c-0.5,0.008-0.717-0.076-1.043-0.416c-0.457-0.475-1.004-0.791-1.295-0.75c-0.393,0.057-0.57-0.014-0.574-0.223
            c-0.002-0.17,0.172-0.199,0.816-0.144c0.391,0.035,1.219-0.584,1.219-0.584l0.008-44.602c3.51,1.453,8.75,2.291,12.777,2.768
            l0.271,39.756c0,0,5.908-3.096,8.057-4.332l0.076-35.586l4.188-0.457l-6.611-13.432c-0.928,0.713-13.939-0.504-17.189-2.617
            l11.873-7.408c-1.207-3.678-2.303-7.19-3.311-10.917c-0.031-0.113-0.252-0.103-0.281-0.217c-0.244-0.909-0.418-1.318-0.648-2.232
            c-0.041-0.17,0.027-0.448-0.02-0.617c-2.561-8.812-4.307-20.488-4.658-30.94c0.037-0.1,0.416-0.014,0.416-0.014l-0.076-6.386
            l-0.422,0.279l0.041-2.89l0.43-0.424c0.01-0.562,0.049-1.617,0.049-1.617l-0.549-0.344l0.283-4.841l0.566-0.084l0.311-7.666
            l-15.037,9.732c0,0-9.811-7.026-14.102-10.67c4.721-3.211,5.973-9.471,7.143-14.666c1.197-5.142,1.592-9.386,1.93-13.688
            c0.373-4.741,1.16-10.805,1.787-13.793c0.381-1.805,0.367-2.003-0.166-2.033c-0.184-0.011,0.006-0.069,0.424-0.133
            c9.641-0.386,19.992,1.051,29.186,2.245c0,0,2.275-4.237,3.064-5.8c0,0,0.463,1.435,0.955,2.432
            c1.117,2.113,3.668,4.357,5.852,5.564c0.814,0.536,3.156,1.321,4.74,1.589c0.932,0.153,2.432-0.142,3.541-0.583
            c0.383-0.159,0.68-0.358,0.684-0.56c0.002-0.203-0.299-0.407-0.684-0.773c-0.328-0.312-0.766-0.913-0.977-1.341
            c-0.668-1.355-1.686-3.632-2.256-5.761c-1.604-4.235-2.793-9.347-6.475-11.6l2.541-5.085l-80.016,0.021l12.381,20.854
            c0,0,0.375,0.621,0.498,0.844c0.365,0.656,0.518,0.562,0.518,0.562c-0.809,7.292-1.953,14.47-3.471,21.524
            c0,0-0.16-0.563-2.512-0.529c-6.883,0.099-9.293,7.746-3.537,11.132c0.543,0.322,1.465,0.939,2.375,1.417
            c0.264,0.136,3.562,2.071,3.562,2.071l-3.953-1.778l-0.287,45.89c0,0-8.244-2.479-13.68-2.712l0.055-39.786l-7.592,4.097
            l-0.344,35.572l-4.158,0.268c0,0,1.574,3.353,1.926,4.056c0.703,1.411,2.471,4.548,3.678,6.528c0.428,0.701,1.428,2.262,1.428,2.262
            c5.541,0.146,11.211,0.979,16.363,3.27l-11.926,7.759c4.98,14.035,11.191,34.57,7.73,67.713l0.836-0.529l0.229-3.571l14.844-10.215
            l18.312,14.747c0,0-1.33-0.034-1.627-0.049c-4.67-0.164-7.959,4.611-9.088,8.603c-1.988,7.028-2.25,8.764-3.166,19.912
            c-0.361,4.407-1.234,8.661-2.123,12.862c-0.469,2.111-0.4,2.322-0.4,2.322c9.314,0.297,19.041-0.688,26.338-2.301
            c0,0,3.082-14.619,4.182-20.826c1.037,0.596,1.959,0.855,2.895,0.834C141.187,240.629,140.57,230.726,136.845,230.448
            L136.845,230.448z M104.698,30.018l3.787,13.283l-9.273,0.858l-7.699-14.032L104.698,30.018z M161.706,29.832l-9.533,20.222
            c-19.998-2.807-31.541-3.072-54.754,0.215L85.353,30.106l3.176-0.027l9.098,16.098l13.512-1.347l-3.732-14.73l3.568-0.11
            l3.695,14.457l20.914-0.111c0.678-4.844,1.99-14.315,1.99-14.315l3.861,0.043l-2.572,14.637l12.354,1.549l7.137-16.361
            L161.706,29.832z M134.884,30.02l-1.219,12.296l-17.301,0.133l-2.77-12.438L134.884,30.02z M155.845,29.783l-5.873,14.594
            l-8.559-1.144l2.336-13.247L155.845,29.783z M166.398,44.084c0.379,1.246,0.766,2.467,0.855,2.716
            c1.396,3.784,1.971,5.034,2.883,6.292c0.15,0.207,0.197,0.185-0.023,0.361c-4.203,2.055-11.803-3.002-13.631-7.633
            c0.229-0.447,1.244-2.327,1.244-2.327c0.531,1.035,0.135,2.058,0.482,2.987c0.086,0.396,0.955-2.679,0.955-2.679
            s0.838,1.364,0.939,3.988c0.016,0.404,1.092-1.76,1.092-1.76c1.354,1.82,1.277,4.979,1.277,4.979
            c1.523-1.851,0.574-2.91,2.928,1.806c0.271-0.49,0.141-1.012,0.496-0.873c1.035,0.399,2.49,1.125,3.018,0.979
            c-0.689-0.864-2.029-1.319-2.396-2.469c0,0,1.062,0.09,1.133,0.038c-1.203-0.654-2.359-1.22-3.266-2.479
            c0.271-0.099,1.357,0.088,1.312-0.027c-1.629-1.473-4.074-2.66-0.537-2.328c-2.299-1.617-4.861-2.733-0.867-2.613
            c-2.848-1.345-3.617-2.175-3.086-2.402c0.299-0.13,1.15,0.384,2.508-0.052c-2.289-0.933-3.23-1.358-3.322-1.667
            c-0.109-0.372,0.977-0.576,1.723-1.384c0,0-0.922,0.209-1.324-0.218c0,0,0.447-1.289,0.791-2.032
            C164.495,37.931,165.64,41.674,166.398,44.084L166.398,44.084z M190.941,38.951c0,0-12.873,13.869-19.246,20.75l6.227,0.093
            l0.285,37.555c2.17,0.293,5.934,0.007,7.355,1.451c0.887,1.31-2.535,3.881-4.465,3.342c-1.285-0.348-2.873-0.071-2.873-0.071
            l0.133,41.847c-4.109-7.629-7.254-12.457-11.805-25.704c1.318-0.917,2.674-1.624,2.9-1.778c-1.748-4.218-2.957-10.851-0.518-16.63
            l1.684,1.003c-1.234,3.527-1.688,8.743,0.33,13.564l0.463-0.486c0,0-0.5-0.962-0.82-2.022c-0.287-0.947-0.699-2.168-0.701-3.434
            c-0.082-2.24-0.014-4.167,0.518-5.964c0.182-0.587,0.439-1.462,0.578-1.729c0.137-0.271,0.268-0.52,0.266-0.593
            c-4.951-2.008-8.502-4.941-12.771-7.041c-0.162-0.079-0.297-0.146-0.406-0.206c-0.541-0.303-0.398-0.405,0.449-0.742
            c1.781-0.709,2.508-1.569,2.469-3.299c-0.055-2.461-1.371-3.419-4.248-3.259c-1.045,0.06-1.111,0.045-1.299-0.312
            c-0.434-0.836-1.938-4.154-1.939-4.286c0-0.078-0.312-0.824-0.695-1.659c-0.592-1.332-1.271-2.704-1.553-4.094
            c-0.141-0.69-0.541-0.962-0.643-0.249c-0.762,5.296-1.463,8.092-2.83,11.274c-0.408,0.946-0.715,1.743-0.684,1.771
            c0.131,0.117,2.422,1.181,3.494,1.622c4.182,1.721,6.084,2.783,5.438,3.039c-0.449,0.178-0.611,0.489-0.725,1.379
            c-0.301,2.332-0.268,3.525,0.123,4.263c0.408,0.774,0.4,0.829-0.27,1.267c-0.582,0.379-0.457,0.381-0.615,2.328
            c-0.186,2.312-0.061,3.78-0.061,3.78l1.043,1.337l-1.062,1.318l-0.244,6.056l1.434,1.085l-1.338,1.32l0.479,5.521
            c0,0-0.176,0.51-0.406,0.764c2.264,23.354,11.018,46.888,24.127,62.929l0.131,38.363l12.848,12.857L190.941,38.951z M189.933,41.42
            v3.024l-10.908,11.75l10.908,0.189v2.562l-16.75-0.032L189.933,41.42z M189.765,46.553l0.027,8.469l-8.154,0.01L189.765,46.553z
            M114.937,50.821l1.699-0.07c-0.064,1.707-0.742,9.589-1.551,16.49c-0.912,7.781-2.777,14.494-3.135,14.494l-1.643-0.996
            C113.029,71.813,113.753,60.323,114.937,50.821L114.937,50.821z M122.654,50.577c-0.24,4.817-1.248,8.188-1.559,13.884
            c-0.383,6.957-1.578,15.619-4.709,22.805c-1.053,2.42-3.002,4.69-5.732,5.764c-4.791,1.879-8.857-4.06-5.619-8.428
            c2.561-3.452,6.566-3.408,7.783,0.085c1.006,2.887-2.225,6.512-4.803,5.386c-1.791-0.782-1.334-4.01,0.68-4.771
            c0.834-0.313,1.541,0.744,1.129,1.692c-0.324,0.747-0.359,1.215,0.08,0.897c1.818-1.283,0.447-4.341-1.812-3.196
            c-3.012,1.524-2.506,6.008,0.531,6.203c3.84,0.378,6.805-4.354,8.703-13.339c2.08-10.056,1.562-19.058,3.559-26.952L122.654,50.577z
            M117.745,50.745l2.018-0.061c-0.16,0.746-0.189,1.543-0.326,2.455c-0.797,5.275-1.268,12.976-2.084,19.011
            c-1.15,8.515-3.213,13.689-3.266,13.059c-0.23-1.032-0.883-1.869-1.383-2.687c2.082-5.662,2.922-10.814,3.457-15.666
            C116.784,61.188,116.96,55.928,117.745,50.745z M109.113,51.234l1.77-0.091c-0.688,11.288-2.344,21.522-3.322,25.916
            c-0.303,1.323-0.4,1.897-0.652,2.009c-0.277,0.122-0.742-0.326-1.871-0.953C106.753,78.358,108.132,58.92,109.113,51.234z
            M111.876,51.072l1.922-0.188c-0.285,4.081-0.973,10.497-1.744,16.282c-0.934,6.994-2.154,13.192-2.764,13.101l-1.605-0.557
            C108.759,80.045,111.404,59.178,111.876,51.072z M108.224,51.271c-1.258,8.546-1.377,18.53-3.979,26.511l-1.801-0.838
            c0.49,0.161,1.771-5.191,2.207-11.249c0.377-5.272,1.328-11.009,1.609-14.188L108.224,51.271z M105.255,51.584
            c-0.717,3.019-0.717,7.465-1.254,11.174c-0.664,4.594-1.373,13.923-2.436,13.707l-1.842-0.932c0.969,0.291,2.65-17.383,3.676-23.66
            L105.255,51.584z M100.411,52.332l1.867-0.253c-0.898,6.9-2.525,22.989-3.486,23.109l-1.752-0.931
            C97.72,71.433,99.452,61.823,100.411,52.332z M99.249,52.601c-0.773,7.585-1.498,15.266-3.115,21.164l-1.916-0.863
            c0,0,1.33-6.487,1.961-11.044c0.621-4.497,0.717-5.14,0.914-6.312c0.438-2.584,0.559-2.68,0.559-2.68L99.249,52.601z
            M181.292,60.375l-0.184,36.421l-2.123-0.08l0.086-36.396L181.292,60.375z M186.308,60.663c0.803,0,1.449,0.648,1.449,1.45
            c0,0.803-0.646,1.456-1.449,1.456s-1.449-0.653-1.449-1.456C184.859,61.312,185.507,60.663,186.308,60.663z M152.101,74.028
            c1.502,2.751,2.656,3.759,3.98,4.285c2.391,0.947,5.686-1.39,4.486-4.66c-0.631-1.722-2.23-1.977-4.26-1.633
            c0,0-0.875-0.621-1.902-3.738c-1.219-3.688-3.129-7.484-3.129-7.484C151.157,65.424,150.07,70.242,152.101,74.028z M188.456,64.043
            c0.803,0,1.455,0.649,1.455,1.451s-0.652,1.45-1.455,1.45c-0.801,0-1.451-0.648-1.451-1.45S187.656,64.043,188.456,64.043z
            M184.472,64.101c0.805,0,1.451,0.647,1.451,1.449c0,0.803-0.646,1.456-1.451,1.456c-0.801,0-1.455-0.653-1.455-1.456
            C183.017,64.748,183.673,64.101,184.472,64.101z M151.929,63.752c1.348,2.793,1.631,4.896,2.938,7.427
            c0.572,1.104,1.086,2.052,1.086,2.052c4.268-2.007,5.908,3.048,2.447,4.659c-3.406,1.59-7.24-4.445-6.869-10.943
            C151.634,65.155,151.929,63.752,151.929,63.752L151.929,63.752z M186.386,67.524c0.801,0,1.449,0.647,1.449,1.45
            c0,0.802-0.648,1.455-1.449,1.455c-0.803,0-1.451-0.653-1.451-1.455C184.935,68.171,185.583,67.524,186.386,67.524z M190.228,70.25
            v3.104l-7.586,7.359v-3.002L190.228,70.25z M90.499,72.64c1.449,0.019,2.145,0.446,1.186,0.828c-3.186,1.266-4.6,3.28-4.775,6.804
            c-0.008,1.78,0.205,2.015-0.891,1.021C83.22,77.375,87.253,72.615,90.499,72.64z M93.161,73.913
            c0.354-0.014,0.703,0.032,1.053,0.143c0.854,0.269,0.541,0.287-0.898,1.242c-2.742,1.821-3.576,3.604-3.699,7.249
            c-0.033,0.55,0.08,1.005,0.033,1.235c-0.039,0.175-0.25,0.118-0.379,0.111c-0.523-0.088-0.846-0.642-0.996-1.108
            C86.534,79.314,89.749,74.042,93.161,73.913z M96.132,75.119c0.236-0.003,0.443,0.034,0.611,0.118
            c0.672,0.335,0.424,0.384-0.807,1.26c-2.182,1.554-3.26,3.839-3.514,6.391c-0.162,1.638,1.104,3.584-1.135,1.979
            c-1.57-1.305-1.258-4.693,0.41-7.021C92.726,76.413,94.859,75.133,96.132,75.119L96.132,75.119z M190.226,74.409v3.533l-7.584,7.206
            v-3.618L190.226,74.409z M98.568,76.251c0.859,0.01,1.248,0.562,0.24,1.195c-2.455,1.543-3.932,4.488-3.789,7.562
            c0.143,1.856,0.213,2.19-0.977,0.964c-1.91-1.978-0.561-7.344,3.139-9.351C97.685,76.357,98.177,76.247,98.568,76.251z
            M101.081,77.281c1.414-0.034,1.609,0.681,0.346,1.563c-2.414,1.687-4.025,4.654-3.988,7.354c0.02,1.254-0.08,1.41-0.635,0.986
            c-2.787-2.131,0.201-9.559,3.979-9.887C100.888,77.29,100.986,77.282,101.081,77.281z M150.96,77.513
            c0.346,0.023,0.965,1.252,1.934,3.82c0.936,2.478,2.443,5.601,2.764,5.718c0.1,0.036,0.525-0.111,0.945-0.332
            c3.182-1.67,5.422,3.068,2.285,4.831c-2.232,1.254-4.34-0.091-6.283-4.016c-2.291-4.627-2.918-8.062-1.811-9.914
            C150.841,77.545,150.894,77.507,150.96,77.513L150.96,77.513z M103.669,78.774c0.383-0.018,0.756,0.056,1.105,0.236
            c0.82,0.428,0.701,0.742-0.562,1.483c-1.303,0.765-1.816,1.243-2.562,2.376c-1.168,1.767-1.363,2.445-1.365,4.722
            c0,1.855-0.551,1.958-1.66,0.31C96.714,85.059,100.544,78.911,103.669,78.774L103.669,78.774z M106.845,80.438
            c1.25-0.027,2.074,0.481,0.877,1.113c-3.803,2.012-5.402,4.897-4.674,8.448c0.229,1.113-1.043,0.171-1.816-1.346
            c-1.127-2.215,0.953-6.497,3.793-7.804C105.62,80.576,106.279,80.45,106.845,80.438z M149.775,83.704
            c0.236,0.018,0.514,0.65,1.123,2.21c0.396,1.017,0.93,2.232,1.186,2.702s0.436,0.911,0.395,0.98
            c-0.215,0.356-1.979-0.251-2.57-0.887c-0.916-0.981-1.205-3.181-0.588-4.438C149.501,83.906,149.632,83.695,149.775,83.704z
            M186.308,86.382c0.803,0,1.449,0.649,1.449,1.451s-0.646,1.455-1.449,1.455s-1.449-0.653-1.449-1.455
            S185.507,86.382,186.308,86.382z M37.409,88.725c0.801,0,1.451,0.653,1.451,1.456c0,0.802-0.65,1.449-1.451,1.449
            c-0.803,0-1.451-0.647-1.451-1.449C35.958,89.378,36.607,88.725,37.409,88.725z M97.396,89.161c1.586-0.056,2.074,0.693,2.344,3.102
            c0.182,1.652,0.539,1.807,3.139,1.369c2.744-0.461,3.662,0.283,3.859,3.124c0.152,2.254,0.135,2.236,3.256,2.257
            c3.072,0.021,3.398,0.332,3.754,3.48c0.264,2.339,0.174,2.273,3.195,2.232c3.348-0.045,3.646,0.201,3.873,3.162
            c0.186,2.398,0.344,2.555,2.457,2.381c2.068-0.172,5.891-0.189,6.604-0.033c1.781,0.388,1.855,0.314,2.238-2.086
            c0.504-3.162,1.129-3.559,5.016-3.167c1.912,0.19,2.133,0.151,2.402-1.528c0.359-2.241,0.811-2.898,0.811-0.956
            c0.002,4.904-0.338,5.133-3.609,4.261c-2.459-0.654-2.498-0.151-2.758,2.215c-0.227,2.088-0.576,2.942-1.346,3.276
            c-0.598,0.26-2.604,0.037-3.41-0.189c-0.305-0.087-2.215-0.134-4.475-0.109c-5.445,0.058-5.504,0.07-5.498-3.755
            c0.002-1.61-0.352-1.956-3.201-1.87c-3.576,0.106-3.389,0.203-3.996-4.09c-0.213-1.488-0.33-1.546-3.291-1.503
            c-3.225,0.046-3.959,0.093-3.77-2.625c0.174-2.473-0.428-3.12-3.119-2.494c-2.865,0.667-3.414-0.549-3.693-2.759
            c-0.26-2.046-0.434-1.534-1.801-1.642c-1.518-0.117-1.34-1.822,0.271-1.98C96.923,89.205,97.171,89.169,97.396,89.161L97.396,89.161
            z M188.552,89.906c0.801,0,1.451,0.648,1.451,1.451c0,0.802-0.65,1.449-1.451,1.449c-0.803,0-1.451-0.647-1.451-1.449
            C187.101,90.554,187.749,89.906,188.552,89.906z M184.464,89.987c0.803,0,1.451,0.653,1.451,1.455s-0.648,1.451-1.451,1.451
            c-0.801,0-1.449-0.649-1.449-1.451S183.663,89.987,184.464,89.987z M39.585,92.405c0.801,0,1.455,0.647,1.455,1.45
            c0,0.802-0.654,1.451-1.455,1.451c-0.803,0-1.451-0.649-1.451-1.451C38.134,93.052,38.782,92.405,39.585,92.405z M35.507,92.438
            c0.803,0,1.451,0.647,1.451,1.45c0,0.802-0.648,1.45-1.451,1.45c-0.801,0-1.449-0.648-1.449-1.45
            C34.058,93.085,34.706,92.438,35.507,92.438z M111.376,93.672l15.094,11.265l14.287-9.562l-0.086,3.488l-14.186,9.433
            c0,0-12.072-9.348-17.906-13.86L111.376,93.672z M186.499,93.84c0.801,0,1.451,0.653,1.451,1.455s-0.65,1.451-1.451,1.451
            c-0.803,0-1.451-0.649-1.451-1.451S185.697,93.84,186.499,93.84z M161.775,95.742l3.582,5.816l-3.574,2.594l3.252,4.159
            l-3.508,3.595l3.854,2.45l-3.604,5.021l-4.99,2.217l4.992-6.559l-4.133-2.836l3.92-4.221l-3.518-4.608l3.641-2.844l-3.939-6.458
            l0.258-0.312L161.775,95.742z M95.597,94.457l26.521,19.841c0,0,2.449,1.845,3.152,2.289c1.488,0.943,1.785,0.566,3.271-0.454
            c3.352-1.989,11.463-7.511,11.463-7.511l-0.064,2.858c0,0-8.158,6.104-12.676,8.638c-0.641,0.354-1.328,0.019-1.811-0.346
            c-9.852-7.803-19.928-15.365-29.914-23.008L95.597,94.457z M156.542,94.774c0.111,0.198,0.469,0.271,0.641,0.539
            c1.176,1.817,3.305,5.051,3.305,5.051l-3.729,2.959l3.424,4.496l-4.279,4.348l4.371,2.976c0,0-2.715,4.153-4.766,6.055l-0.051-3.229
            l1.754-2.113l-2.012-1.385l-0.006-4.438l2.045-2.154l-1.873-1.894l0.334-4.854l1.787-1.413l-1.477-2.021L156.542,94.774z
            M37.46,95.763c0.801,0,1.455,0.648,1.455,1.45s-0.654,1.45-1.455,1.45c-0.803,0-1.451-0.648-1.451-1.45S36.657,95.763,37.46,95.763
            z M189.941,101.056l-7.381,6.817v-3.097l7.381-7.242V101.056z M41.677,97.725v3.736l-7.879,7.275v-3.608L41.677,97.725z
            M189.941,102.01v3.709l-7.381,6.935v-3.674L189.941,102.01z M181.259,102.593l0.152,120.596l8.564,9.063l0.008,3.008
            l-10.844-11.231l-0.246-121.335L181.259,102.593z M41.677,102.235v4.198l-7.879,7.188v-3.951L41.677,102.235z M95.577,103.003
            l10.42,8.112l-0.043,28.278c-4.221-3.174-7.607-5.064-10.811-6.674L95.577,103.003z M186.509,112.151
            c0.801,0,1.449,0.647,1.449,1.451c0,0.802-0.648,1.449-1.449,1.449c-0.803,0-1.457-0.647-1.457-1.449
            C185.052,112.798,185.706,112.151,186.509,112.151z M109.134,113.533l0.039,28.854l-2.053-1.876l-0.119-28.616L109.134,113.533z
            M37.974,113.81c0.801,0,1.447,0.648,1.447,1.45c0,0.803-0.646,1.455-1.447,1.455c-0.805,0-1.457-0.652-1.457-1.455
            C36.517,114.458,37.171,113.81,37.974,113.81z M188.447,115.867c0.803,0,1.451,0.649,1.451,1.451s-0.648,1.455-1.451,1.455
            s-1.449-0.653-1.449-1.455S187.644,115.867,188.447,115.867z M184.312,116.047c0.803,0,1.449,0.648,1.449,1.45
            s-0.646,1.451-1.449,1.451s-1.449-0.649-1.449-1.451S183.511,116.047,184.312,116.047z M110.3,115.907l6.354,5.943l-6.545,6.211
            l-0.055-2.867l3.645-3.514l-3.662-3.797L110.3,115.907z M112.718,116.432l5.299,3.911l-0.83,1.008L112.718,116.432z M40.12,117.309
            c0.803,0,1.451,0.648,1.451,1.45c0,0.803-0.648,1.45-1.451,1.45c-0.801,0-1.451-0.647-1.451-1.45
            C38.669,117.957,39.32,117.309,40.12,117.309z M35.868,117.379c0.801,0,1.451,0.653,1.451,1.455s-0.65,1.451-1.451,1.451
            c-0.803,0-1.451-0.649-1.451-1.451S35.066,117.379,35.868,117.379z M140.031,117.906c1.02,11.544,1.729,19.534,4.711,30.42
            l-13.711,8.767l0.125-33.437L140.031,117.906z M177.816,144.322l-0.057,39.646c-12.938-18.409-19.916-39.932-22.16-60.326
            c0,0,6.945-3.2,10.318-5.164C169.491,126.85,167.948,126.838,177.816,144.322z M186.681,119.584c0.805,0,1.451,0.654,1.451,1.456
            s-0.646,1.45-1.451,1.45c-0.801,0-1.447-0.648-1.447-1.45S185.882,119.584,186.681,119.584z M38.031,121.145
            c0.801,0,1.451,0.647,1.451,1.449c0,0.803-0.65,1.456-1.451,1.456c-0.803,0-1.451-0.653-1.451-1.456
            C36.579,121.792,37.228,121.145,38.031,121.145z M118.921,121.01l5.035,3.844l0.012,2.913l-6.023-5.792L118.921,121.01z
            M117.195,122.549l6.297,6.224l-6.604,6.586l-6.508-6.17L117.195,122.549z M164.597,122.767l-6.068,2.489
            c2.32,21.039,8.348,36.812,16.471,49.595l0.186-29.512C170.991,138.703,167.816,130.707,164.597,122.767L164.597,122.767z
            M190.118,123.202v3.309l-7.559,6.932v-3.297L190.118,123.202z M117.187,125.023l-4.01,3.916l4.039,3.905l3.889-3.905
            L117.187,125.023z M41.677,124.588v3.521l-7.502,7.245v-3.742L41.677,124.588z M126.14,126.562l0.062,33.674l-1.668,0.791
            l0.117-35.182L126.14,126.562z M117.115,127.071l1.818,1.83l-1.904,1.915l-1.793-1.829L117.115,127.071z M190.118,127.422v3.816
            l-7.559,7.056l-0.127-3.64L190.118,127.422z M106.513,141.735c7.799,6.747,13.789,16.989,20.367,22.714
            c2.66,2.307,9.168,5.906,12.678,7.014c3.992,1.258,7.098,1.773,11.104,1.844c3.162,0.058,3.178,0.074,3.178,0.074l1.338,2.381
            l-2.213-0.03l-0.145,8.403c2.346,0.115,4.643-0.016,6.906-0.297l0.818,1.531c-16.129,2.186-31.895-3.926-41.377-11.736
            c-4.324-3.555-7.838-7.895-12.115-14.215c-8.23-12.841-22.732-19.041-36.236-19.186l-1.119-1.74l2.256,0.075
            c0,0,0.229-1.614,0.258-4.359c0.035-3.091,0.016-3.634-0.227-3.723c-1.637-0.19-6.568-0.089-6.426,0.12l-1.014-1.814
            C80.642,127.129,96.486,132.734,106.513,141.735L106.513,141.735z M41.677,129.061v3.452l-7.502,7.076v-3.458L41.677,129.061z
            M124.132,129.355l-0.197,3.086l-3.576,3.537l3.805,3.692l-0.09,2.578l-6.711-6.222L124.132,129.355z M75.132,130.452
            c-0.344,0-0.553,0.029-0.592,0.095c-0.088,0.149-0.039,1.476-0.332,6.272c-0.107,1.758-0.23,1.765,1.246,1.941
            c1.238,0.043,4.006,0.751,5.848,0.97c1.553,0.206,1.229-0.268,1.666-1.509c0.477-1.355,0.736-2.561,1.328-4.496
            c0.543-1.773,0.293-1.831-3.203-2.484C78.677,130.79,76.169,130.452,75.132,130.452z M110.027,130.158l6.07,6.059l-5.979,6.071
            l-0.104-2.934c1.152-1.025,2.525-2.193,3.539-3.353l-3.521-3.598L110.027,130.158z M79.577,132.122l0.65,1.071l1.564,0.258
            l-0.273,1.091l0.797,1.124l-0.98,0.735l0.035,1.355l-1.225-0.043l-1.066,0.762l-0.842-1.068l-1.227-0.04l0.066-1.521l-0.795-0.673
            l0.951-0.851l-0.123-1.35l1.51,0.254L79.577,132.122z M69.718,133.948l0.965,0.633l-0.98,0.677l-0.045,1.037l-0.6,0.511
            l-2.203-4.311l1.434,0.58l1.094-0.727L69.718,133.948z M87.392,132.952c-0.77,0.013-0.871,1.438-1.705,4.132
            c-1.164,3.759-1.25,3.411,0.984,4.195c0.996,0.349,2.898,0.991,3.904,1.464c2.451,1.152,2.465,1.148,3.381-0.417
            c0.406-0.694,1.176-2.399,1.715-3.283c1.346-2.207,1.383-2.101-1.09-3.291c-1.455-0.7-2.336-0.985-5.393-2.227
            C88.341,133.181,87.796,132.946,87.392,132.952L87.392,132.952z M89.841,135.446l1.07,0.671l1.203-0.501l0.238,1.294l1.318,0.511
            l-0.375,1.273l0.58,0.954l-1.121,0.218l-0.812,1.765l-1.232-0.862l-1.305,0.472l-0.361-0.971l-1.338-0.646l0.484-1.07l-0.666-1.441
            l1.527-0.117L89.841,135.446z M116.761,136.769l6.703,6.566l-6.104,6.116l-6.697-6.589L116.761,136.769z M186.679,137.964
            c0.803,0,1.451,0.649,1.451,1.451s-0.648,1.451-1.451,1.451s-1.451-0.649-1.451-1.451S185.876,137.964,186.679,137.964z
            M98.865,138.284c-0.389,0.006-0.609,0.363-0.947,1.053c-0.143,0.29-0.969,1.836-1.734,3.033c-1.723,2.698-1.725,2.561-0.004,3.617
            c0.729,0.448,2.408,1.83,3.852,3.135c1.336,1.207,1.191,0.922,4.068-1.956c1.877-1.876,3.033-2.403,2.303-3.393
            c-1.779-1.524-3.238-2.639-5.166-4.097C99.962,138.729,99.304,138.279,98.865,138.284L98.865,138.284z M117.075,139.018
            l-3.953,3.874l4.455,4.034l3.693-3.794L117.075,139.018z M49.368,137.703l0.043,30.296c4.346,7.435,8.809,14.932,11.131,23.297
            l6.377-3.125C63.868,163.42,56.775,149.696,49.368,137.703L49.368,137.703z M38.015,139.606c0.803,0,1.449,0.648,1.449,1.45
            c0,0.803-0.646,1.45-1.449,1.45s-1.449-0.647-1.449-1.45C36.566,140.254,37.214,139.606,38.015,139.606z M117.124,141.222
            l1.904,1.75l-1.754,1.905l-1.926-1.991L117.124,141.222z M188.456,141.506c0.803,0,1.455,0.648,1.455,1.451
            c0,0.802-0.652,1.45-1.455,1.45c-0.801,0-1.451-0.648-1.451-1.45S187.656,141.506,188.456,141.506z M184.558,141.655
            c0.805,0,1.455,0.647,1.455,1.45c0,0.802-0.65,1.451-1.455,1.451c-0.803,0-1.449-0.649-1.449-1.451
            C183.109,142.302,183.757,141.655,184.558,141.655z M99.761,141.56l1.102,0.815l1.295-0.557l0.094,1.523l1.178,0.58l-0.742,1.08
            l0.449,1.421l-1.273,0.041l-0.992,1.301l-0.889-0.854l-1.736,0.116l-0.275-1.479l-0.75-0.589l0.582-0.979l-0.426-1.306l1.484-0.102
            L99.761,141.56z M35.882,143.175c0.803,0,1.451,0.648,1.451,1.451c0,0.802-0.648,1.45-1.451,1.45c-0.801,0-1.451-0.648-1.451-1.45
            C34.429,143.824,35.081,143.175,35.882,143.175z M40.06,143.218c0.801,0,1.447,0.653,1.447,1.455c0,0.803-0.646,1.451-1.447,1.451
            c-0.805,0-1.451-0.648-1.451-1.451C38.609,143.871,39.257,143.218,40.06,143.218z M124.087,146.681l-3.461,3.229l3.41,3.556
            l-0.105,2.729l-6.051-6.036l6.15-6.038L124.087,146.681z M89.87,145.979l-12.988,8.615l-0.789-2.155l11.578-7.582L89.87,145.979z
            M186.49,145.277c0.803,0,1.451,0.652,1.451,1.455c0,0.802-0.648,1.451-1.451,1.451c-0.805,0-1.451-0.649-1.451-1.451
            C185.038,145.929,185.685,145.277,186.49,145.277z M108.62,146.153c-0.602,0.042-1.213,0.752-2.379,1.991
            c-1.146,1.215-2.492,2.643-2.781,2.846c-0.902,0.635-0.857,0.788,0.711,2.551c0.479,0.535,1.379,1.629,2.002,2.433
            c0.623,0.805,1.617,1.811,1.814,2.018c0.637,0.668,0.984,0.529,3.916-1.574c3.557-2.554,3.539-2.175,0.27-6.396
            C110.292,147.589,109.39,146.097,108.62,146.153z M37.974,147.044c0.801,0,1.447,0.649,1.447,1.451s-0.646,1.451-1.447,1.451
            c-0.805,0-1.457-0.649-1.457-1.451S37.171,147.044,37.974,147.044z M114.152,147.571l2.346,2.518l-0.209,0.251L114.152,147.571z
            M190.029,148.13v4.363l-7.23,6.679v-3.989L190.029,148.13z M109.056,149.406l0.879,1.21l1.49-0.097l-0.219,1.424l0.791,0.579
            l-0.773,1.079l-0.061,1.359l-1.23-0.292l-1.008,1.214l-0.992-1.163l-1.168,0.137l0.039-1.415l-1.189-0.677l0.842-0.922l0.023-1.584
            l1.736-0.064L109.056,149.406z M144.827,149.497l0.723,2.2l-18.076,11.763l-1.58-1.813L144.827,149.497z M97.505,150.969
            l1.439,1.084L79.97,164.252l-0.57-1.59L97.505,150.969z M42.011,150.502v3.628l-8.004,7.713v-3.745L42.011,150.502z
            M117.142,151.372l0.23-0.189l6.203,5.958l-1.172,1.245L117.142,151.372z M100.009,153.121l0.17,35.185l-1.654-1.145l0.125-33.382
            L100.009,153.121z M101.029,153.933l1.346,1.186l-1.289,1.262L101.029,153.933z M190.029,153.632v3.569l-7.23,6.865v-3.73
            L190.029,153.632z M42.011,155.347v3.354l-8.004,7.65v-3.39L42.011,155.347z M116.605,155.803c-0.205-0.004-0.432,0.132-0.758,0.39
            c-0.299,0.233-1.023,0.74-1.617,1.123c-2.178,1.416-4.021,2.742-4.104,2.938c-0.168,0.406,2.018,3.256,5.049,6.674
            c1.193,1.345,1.16,1.604,2.357,0.408c0.951-1.08,4.436-4.037,4.336-4.828c-0.193-0.905-1.393-1.936-4.365-5.959
            C117.105,156.042,116.872,155.808,116.605,155.803L116.605,155.803z M103.165,156.17l4.76,6.812l-0.635,0.633l-5.838-5.762
            L103.165,156.17z M93.866,156.976l0.01,32.825l-8.934,6.347c0.164,0.086-1.098-19.726-4.514-30.287L93.866,156.976z
            M116.081,158.131l0.875,1.634l1.322-0.224l-0.176,1.5l1.123,0.881l-1.104,1.525l0.146,1.086l-1.301-0.293l-1.184,1.223
            l-0.812-1.557l-1.707,0.026l0.238-1.495l-1.189-1.002l1.299-0.769l0.182-1.363l1.119,0.097L116.081,158.131z M123.831,158.385
            l0.146,1.343l-0.797-0.693L123.831,158.385z M100.997,160.769l-0.014-1.918l5.693,5.495l-5.814,5.451l0.041-2.59l3.311-3.154
            L100.997,160.769z M148.06,159.706l0.811,2.449l-11.699,7.203l-2.359-1.226L148.06,159.706z M186.609,163.753
            c0.801,0,1.453,0.648,1.453,1.449c0,0.803-0.652,1.457-1.453,1.457c-0.805,0-1.451-0.654-1.451-1.457
            C185.157,164.402,185.804,163.753,186.609,163.753z M112.14,168.474l-4.109-4.113l0.518-0.562L112.14,168.474z M122.73,164.777
            c-1.395,1.19-4.365,4.625-4.359,5.192c0.004,0.564,4.117,4.119,6.59,5.697c0.777,0.494,1.084,0.51,1.385,0.062
            c4.273-6.384,4.453-6.168,2.762-7.414c-1.719-1.314-3.729-3.271-5.102-3.943C123.427,164.087,123.327,164.262,122.73,164.777
            L122.73,164.777z M107.325,165.087l6.773,6.498l-6.281,6.062l-6.521-6.882L107.325,165.087z M38.134,165.577
            c0.803,0,1.451,0.648,1.451,1.451s-0.648,1.451-1.451,1.451c-0.801,0-1.451-0.648-1.451-1.451S37.333,165.577,38.134,165.577z
            M123.753,166.883l1.139,1.015l1.361-0.354l0.305,1.344l1.311,0.482l-0.703,1.365l0.098,1.723l-1.318-0.246l-0.916,1.412
            l-1.342-1.35l-1.535,0.129l0.084-1.506l-1.357-0.656l0.861-0.99l-0.539-1.354l1.625,0.256L123.753,166.883z M188.538,167.488
            c0.801,0,1.449,0.65,1.449,1.451c0,0.803-0.648,1.451-1.449,1.451c-0.803,0-1.457-0.648-1.457-1.451
            C187.081,168.137,187.736,167.488,188.538,167.488z M103.763,170.913l4.014,4.105l3.691-3.541l-3.914-4.134L103.763,170.913z
            M184.536,167.545c0.801,0,1.451,0.648,1.451,1.449c0,0.803-0.65,1.457-1.451,1.457c-0.803,0-1.451-0.654-1.451-1.457
            C183.085,168.195,183.734,167.545,184.536,167.545z M36.134,169.058c0.801,0,1.451,0.653,1.451,1.455c0,0.803-0.65,1.45-1.451,1.45
            c-0.803,0-1.451-0.647-1.451-1.45C34.683,169.712,35.331,169.058,36.134,169.058z M40.386,169.072c0.803,0,1.451,0.654,1.451,1.455
            c0,0.803-0.648,1.451-1.451,1.451c-0.801,0-1.451-0.648-1.451-1.451C38.935,169.726,39.585,169.072,40.386,169.072z
            M107.573,169.396l1.826,1.883l-1.689,1.781l-1.889-1.943L107.573,169.396z M132.363,170.687c-0.936,0.67-3.475,5.479-3.908,6.537
            c0.004,0.254,1.225,1.028,2.754,1.743c1.305,0.609,5.533,2.306,5.924,2.4c0.85,0.205,0.996-0.117,1.137-0.67
            c0.076-0.293,0.412-1.412,0.787-2.627c1.311-4.256,1.703-4.055-0.246-4.701c-0.672-0.223-2.783-0.934-4.111-1.547
            C133.382,171.215,132.786,170.678,132.363,170.687z M186.49,171.456c0.801,0,1.455,0.648,1.455,1.451s-0.654,1.455-1.455,1.455
            c-0.805,0-1.451-0.652-1.451-1.455S185.685,171.456,186.49,171.456z M117.179,173.448l0.229,28.537l-2.234-1.748l-0.061-28.631
            L117.179,173.448z M107.193,178.312l-6.164,6.272l-0.039-3.194l3.451-3.128l-3.516-3.676l0.072-2.469
            C103.247,173.958,105.167,176.222,107.193,178.312z M38.107,172.837c0.801,0,1.447,0.648,1.447,1.449
            c0,0.803-0.646,1.457-1.447,1.457c-0.805,0-1.457-0.654-1.457-1.457C36.65,173.486,37.304,172.837,38.107,172.837z M133.247,172.775
            l1.244,1.037l1.041-0.627l0.6,1.067l1.494,0.209l-0.67,1.631l0.879,1.261l-1.459,0.27l-0.361,1.738l-1.43-0.851l-1.088,0.472
            l-0.789-1.476l-1.693-0.067l0.924-1.601l-0.869-1.266l1.227-0.08L133.247,172.775z M114.22,172.887l-0.01,2.517l-2.682,2.719
            l2.689,2.932l-0.014,2.927l-5.574-5.677L114.22,172.887z M142.822,174.54c-0.562,0.019-0.566,0.609-0.996,2.541
            c-0.094,0.418-0.393,1.539-0.658,2.494c-0.812,2.889-0.916,2.943,1.592,3.439c1.451,0.217,7.732,1.68,7.859,0.678
            c0.158-1.699,0.26-5.703,0.283-7.064c0.055-0.457-0.055-0.887-0.512-0.94C147.529,175.344,144.343,174.592,142.822,174.54z
            M118.351,174.663c3.568,2.436,7.021,4.916,11.119,7.139l0.105,29.347l-11.246-8.375L118.351,174.663z M189.941,174.747v3.598
            l-7.498,7.158v-3.436L189.941,174.747z M146.017,175.995l0.65,1.393l1.365-0.454l-0.008,1.663l1.217,0.769l-1.469,0.676
            l-0.129,2.023l-1.486-0.457l-1.227,0.758l-1.084-1.139l-1.326-0.025l0.486-1.799l-0.857-0.822l1.246-0.611l0.102-1.604l1.332,0.797
            L146.017,175.995z M42.169,175.728v3.469l-8.162,7.512v-3.031L42.169,175.728z M156.24,177.902l1.83,3.096l-0.66,1.252l-1.23-0.6
            l-1.348,0.498l0.205-1.654l-1.041-0.828l1.053-0.967l-0.047-1.215L156.24,177.902z M107.894,178.922l6.26,6.484l-6.375,6.584
            l-6.26-6.578L107.894,178.922z M189.941,182.984l-7.498,6.963v-3.387l7.498-7.109V182.984z M42.169,180.15v3.385l-8.162,7.646
            v-3.136L42.169,180.15z M107.911,181.361l-4.064,4.021l4.031,4.045l4.07-3.944L107.911,181.361z M107.966,183.665l1.74,1.787
            l-1.664,1.727l-1.793-1.743L107.966,183.665z M100.988,186.137l6.205,6.369l-0.715,0.843l-5.498-4.271L100.988,186.137z
            M114.304,186.654l0.164,2.875l-3.383,2.889l3.09,3.244l0.086,2.986l-5.881-6.056L114.304,186.654z M186.601,189.572
            c0.805,0,1.451,0.65,1.451,1.451c0,0.803-0.646,1.451-1.451,1.451c-0.801,0-1.449-0.648-1.449-1.451
            C185.152,190.222,185.802,189.572,186.601,189.572z M38.281,191.325c0.803,0,1.451,0.65,1.451,1.451
            c0,0.803-0.648,1.455-1.451,1.455c-0.801,0-1.449-0.652-1.449-1.455C36.831,191.976,37.48,191.325,38.281,191.325z M67.988,192.215
            l-4.578,6.847l3.605,2.418l-3.416,4.592l3.557,4.275l-3.578,3.069l3.631,6.215c-1.443-0.284-2.912-1.248-4.24-1.916l-2.738-5.207
            l3.148-2.709l-3.195-3.709l3.352-3.971l-3.361-2.356l3.666-5.638L67.988,192.215z M188.339,193.128c0.801,0,1.449,0.648,1.449,1.451
            c0,0.801-0.648,1.449-1.449,1.449c-0.803,0-1.451-0.648-1.451-1.449C186.888,193.777,187.536,193.128,188.339,193.128z
            M98.296,193.015l31.6,24.354l-0.129,3.229l-31.605-24.286l-13.42,9.473l0.121-3.447L98.296,193.015z M184.47,193.322
            c0.801,0,1.451,0.65,1.451,1.451c0,0.803-0.65,1.451-1.451,1.451c-0.803,0-1.451-0.648-1.451-1.451
            C183.017,193.972,183.667,193.322,184.47,193.322z M110.921,196.431l-0.332,0.063l-3.447-2.518l0.75-0.847
            C107.89,193.131,110.154,195.628,110.921,196.431z M40.429,195.029c0.803,0,1.455,0.654,1.455,1.455
            c0,0.803-0.652,1.451-1.455,1.451s-1.451-0.648-1.451-1.451C38.978,195.683,39.626,195.029,40.429,195.029z M36.517,195.047
            c0.803,0,1.457,0.648,1.457,1.451c0,0.801-0.654,1.451-1.457,1.451s-1.449-0.65-1.449-1.451
            C35.068,195.697,35.716,195.047,36.517,195.047z M186.601,196.963c0.805,0,1.451,0.652,1.451,1.455c0,0.802-0.646,1.451-1.451,1.451
            c-0.801,0-1.449-0.65-1.449-1.451C185.152,197.616,185.802,196.963,186.601,196.963z M38.267,198.572
            c0.803,0,1.449,0.652,1.449,1.455c0,0.801-0.646,1.451-1.449,1.451s-1.451-0.65-1.451-1.451
            C36.816,199.224,37.466,198.572,38.267,198.572z M189.941,201.273v3.205l-7.09,6.866v-3.092L189.941,201.273z M94.292,202.236
            c1.053-0.01,2.465,0.043,4.365,0.108c1.627,0.056,3.428,0.091,3.998,0.076c2.252-0.062,2.986,0.705,3.027,3.14
            c0.037,2.161,0.027,2.155,2.857,2.274c3.414,0.144,4.314,1.021,4.361,4.242c0.018,1.256,1.033,1.748,3.02,1.465
            c3.135-0.444,3.742-0.014,4.107,2.896c0.301,2.432,0.139,2.307,3.01,2.284c3.086-0.021,3.775,0.496,3.812,2.873
            c0.02,1.382,0.355,1.795,1.549,1.902c1.275,0.115,1.826,0.771,1.195,1.418c-0.115,0.117-0.705,0.189-1.635,0.203
            c-1.969,0.027-2.617-0.59-2.982-2.844c-0.256-1.566-0.414-1.648-3.029-1.574c-3.338,0.092-3.598-0.109-3.959-3.021
            c-0.311-2.497-0.73-2.756-3.6-2.213c-2.084,0.396-3.189-0.524-3.459-2.873c-0.305-2.635-0.422-2.729-3.381-2.836
            c-2.965-0.104-3.791-0.625-3.816-2.407c-0.039-2.763-0.389-3.013-4.035-2.9c-1.77,0.053-3.58,0.021-4.621-0.086
            c-2.209-0.229-2.197-0.24-2.418,1.881c-0.33,3.172-0.795,3.463-4.988,3.154c-1.752-0.129-1.877-0.05-1.996,1.284
            c-0.15,1.669-0.768,2.695-1.242,2.066c-0.248-0.33-0.25-0.359,0-2.803c0.279-2.732,0.312-2.752,3.873-2.479
            c2.414,0.187,2.299,0.273,2.559-1.92C91.177,202.879,91.13,202.265,94.292,202.236L94.292,202.236z M42.288,201.986v3.516
            l-8.281,7.689v-3.408L42.288,201.986z M68.013,206.118l1.805,2.461l-0.584,4.578l-1.531,1.152l1.084,2.176l-0.35,2.674l-0.43,0.246
            l-3.006-5.836l3.559-3.131l-3.645-4.447l3.443-4.643l-3.574-2.515l4.295-6.324c0.744-0.903,0.789,2.687,0.789,2.687l-1.779,2.693
            l1.99,1.719h0.004l0.006,4.264L68.013,206.118z M70.288,204.045l0.191-5.739l-1.551-1.203l1.197-1.99l-0.082-5.084l-0.361-0.248
            c-2.982-36.397-20.803-57.904-23.592-62.782c0,0-0.617-0.498-0.506-1.748c0.049-0.543,0.074-3.751,0.053-7.131
            c-0.111-17.252,0.033-29.071,0.033-29.071l-13.1-13.962l0.076,5.108l0.643,0.464l-0.002,23.26l-0.545,0.029
            c0,0-0.168,6.254-0.125,10.55l0.779,0.021l-0.047,15.982l-0.664,0.079l0.039,10.355l0.721-0.002c0,0,0.17,10.856-0.088,16.137
            l-0.537,0.033l0.035,10.293l0.609,0.047l0.041,14.723l-0.752,0.113l0.205,9.719l0.611,0.033c0.221,6.004,0.115,16.385,0.115,16.385
            l-0.699,0.033l0.172,9.648l0.502,0.032l-0.146,16.939l-0.457,0.053l0.176,10.006l0.494,0.045l-0.084,8.32l-0.34,0.06l-0.082,3.11
            l0.363,0.824l0.023,11.086l-0.275,0.121l-0.082,5.568l20.312-20.541l-7.479-0.224l0.006-6.639
            c0.002-10.955,0.148-19.795-0.182-30.48c-0.098-0.096-0.838-0.213-1.648-0.26c-3.85-0.227-4.895-0.537-4.906-1.461
            c-0.018-1.143,1.729-2.559,3.178-2.578c0.326-0.006,0.877-0.33,0.877-0.33L42.943,90.204l-9.088-9.519l0.037-3.022l11.199,11.854
            l0.42,121.479l0.428-0.195l0.029-40.799c5.738,8.584,8.957,17.092,12.15,25.599c0,0,1.129-0.39,1.176-0.412
            c0.01-0.01-0.402-0.146-0.402-0.146c-3.258-10.871-7.379-18.754-12.723-26.981l0.076-39.538
            c13.686,19.332,20.303,36.718,23.051,61.775l-6.926,3.459l-0.672,0.896l-5.232,2.617l-0.5-0.836l-3.172,2.196
            c2.449,4.273,2.359,10.418,0.361,13.672l0.859,0.535c0.059,0.234,3.287-6.651-0.324-13.66l2.363-1.454
            c3.41,7.047,1.826,14.637,0.221,16.592c0,0,2.469,1.571,4.242,2.535c1.926,1.047,3.641,2.004,5.949,2.747
            c1.424,0.58,2.328-0.102,2.324-0.114l0.689-3.935l-1.1-1.5l1.281-1.03l0.584-6.023l-1.377-1.389L70.288,204.045z M189.941,205.654
            v3.879l-7.09,6.715v-3.817L189.941,205.654z M42.288,209.81l-8.281,7.6v-3.162l8.281-7.773V209.81z M187.122,214.98
            c0.803,0,1.457,0.651,1.457,1.455c0,0.803-0.654,1.45-1.457,1.45c-0.801,0-1.449-0.647-1.449-1.45
            C185.673,215.631,186.322,214.98,187.122,214.98z M45.595,217.329l0.008,35.807l-2.186,0.002l0.1-36.245L45.595,217.329z
            M38.281,217.003c0.803,0,1.451,0.648,1.451,1.451s-0.648,1.451-1.451,1.451c-0.801,0-1.449-0.648-1.449-1.451
            S37.48,217.003,38.281,217.003z M185.056,218.387c0.803,0,1.451,0.648,1.451,1.451c0,0.802-0.648,1.455-1.451,1.455
            s-1.455-0.653-1.455-1.455S184.255,218.387,185.056,218.387z M188.968,218.45c0.803,0,1.451,0.648,1.451,1.449
            c0,0.803-0.648,1.451-1.451,1.451c-0.801,0-1.455-0.648-1.455-1.451C187.513,219.099,188.167,218.45,188.968,218.45z
            M40.548,220.629c0.801,0,1.455,0.654,1.455,1.455c0,0.803-0.654,1.451-1.455,1.451c-0.803,0-1.451-0.648-1.451-1.451
            C39.095,221.284,39.745,220.629,40.548,220.629z M115.302,220.672c7.566,0.938,5.562,8.871,2.373,10.521
            c-4.342,2.022-7.818-2.049-5.047-6.176c2.035-3.029,5.904-1.025,4.41,2.293c-0.842,1.869-2.588,1.649-2.572-0.24
            c0.623-1.797,0.051-1.156-0.436-0.521c-1.529,1.99,1.557,4.103,3.145,2.138c0.973-1.205,1.178-2.638,0.844-3.781
            c-0.568-1.953-2.824-3.098-5.377-1.289c-3.049,3.658-4.678,8.389-5.578,13.682c-1.918,11.265-2.014,23.115-3.66,26.119l-1.791-0.043
            c2.604-12.891,2.617-23.924,5.396-34.088C108.386,224.247,111.894,220.663,115.302,220.672z M36.579,220.736
            c0.803,0,1.451,0.651,1.451,1.455c0,0.801-0.648,1.451-1.451,1.451s-1.451-0.65-1.451-1.451
            C35.128,221.387,35.777,220.736,36.579,220.736z M67.271,220.935c-1.992,0.039-4.02,1.69-3.861,3.801
            c0.188,2.562,1.707,3.705,4.205,3.447c1.336-0.138,1.299-0.158,2.197,1.45c0.811,1.449,2.945,7.636,2.959,8.572
            c-1.025-1.361-3.422-3.889-5.633-3.783c-2.375,0.172-4.373,2.422-2.578,5.607c0.955,1.562,2.652,1.867,4.377,1.352
            c2.582,4.019,3.07,8.043,3.893,12.713c0,0,1.02-9.995,1.33-13.981c0.586-6.111,1.422-10.068,3.787-14.914
            c-1.975-1.137-4.084-2.029-6.207-2.848c-0.846-0.326-1.73-0.33-2.566-0.877C68.595,221.087,67.935,220.92,67.271,220.935
            L67.271,220.935z M187.282,221.749c0.801,0,1.451,0.648,1.451,1.449c0,0.803-0.65,1.457-1.451,1.457
            c-0.805,0-1.451-0.654-1.451-1.457C185.831,222.398,186.478,221.749,187.282,221.749z M71.359,224.954
            c1.492,2.43,2.951,5.936,3.082,8.143c0.051,1.462-0.238,3.257-0.486,4.933c-0.123,0.83-0.438,0.021-1.002-1.771
            c-2.354-7.436-2.975-8.858-4.607-8.487c-0.93,0.211-1.898,0.248-2.531-0.103c-2.072-1.143-2.262-4.975,0.762-5.707
            C68.966,221.443,70.505,223.566,71.359,224.954L71.359,224.954z M71.304,223.107c3.016,1.188,4.939,2.977,4.391,5.889
            c-0.242,1.096-0.404,1.998-0.697,1.881c-0.34-0.133-0.807-1.447-1.742-3.709C73.042,226.437,70.894,223.12,71.304,223.107z
            M121.185,223.232c0.16-0.021,0.41,0.127,0.75,0.444c2.377,2.341,1.086,7.615-2.076,9.134c-1.305,0.896-3.701,0.75-3.715-0.117
            c-0.006-0.336,0.07-0.428,0.404-0.433c2.662,0.021,5.492-3.68,4.709-7.62C121.161,224.047,120.98,223.26,121.185,223.232
            L121.185,223.232z M38.343,224.512c0.803,0,1.451,0.65,1.451,1.451c0,0.804-0.648,1.455-1.451,1.455s-1.455-0.651-1.455-1.455
            C36.888,225.163,37.54,224.512,38.343,224.512z M123.683,224.958c0.166-0.022,0.744,0.226,1.127,0.687
            c2.238,2.696,0.422,7.293-3.1,8.868c-1.344,0.728-2.475,0.226-2.189-0.522c2.396-0.994,4.658-3.568,4.424-7.088
            C123.851,225.667,123.441,224.995,123.683,224.958z M76.228,225.448l0.814,0.387l-0.336,0.705
            C76.552,226.118,76.554,225.954,76.228,225.448z M126.23,225.741c0.18-0.004,0.576-0.064,0.955,0.303
            c1.447,1.406,1.678,5.353,0.285,7.301c-0.65,0.914-2.676,2.574-3.277,2.742c-0.703,0.086-1.193,0.189-2.363-0.342
            c-0.395-0.014,0.176-0.383,0.914-0.811c2.621-1.513,4.357-4.213,3.902-6.746C126.366,226.62,125.888,225.749,126.23,225.741z
            M128.886,227.012c0.693,0.062,1.232,0.671,1.562,1.188c1.721,2.471,0.291,7.67-3.23,8.748c-2.346,0.717-3.219,0.039-1.32-1.07
            c2.727-1.59,4.143-4.701,3.354-7.17C128.874,227.527,128.515,227.038,128.886,227.012L128.886,227.012z M131.724,228.823
            c0.82,0.012,1.455,0.639,1.744,1.287c0.682,1.596,0.572,3.832-0.311,5.404c-0.881,1.567-2.568,2.872-4.443,3.063
            c-0.49,0.047-0.914-0.027-1.283-0.186c-0.824-0.355-0.541-0.408,1.01-1.22c2.469-1.291,3.928-3.977,3.553-6.94
            C131.853,229.122,131.407,228.825,131.724,228.823z M42.288,228.282v3.832l-8.061,7.606v-3.739L42.288,228.282z M110.771,228.779
            c0.152,0.158,1.064,2.332,1.18,2.781c-1.889,2.715-2.422,7.172-2.713,10.547c-1.066,9.567-2.172,21.123-2.656,21.229l-2.098,0.047
            c0.799,0.533,1.822-15.866,3.449-26.256C108.058,236.312,109.802,228.294,110.771,228.779z M135.156,230.476
            c2.77,1.873,1.291,7.721-2.561,9.166c-1.396,0.536-1.912,0.604-2.545-0.011c-0.396-0.387-0.779-0.518,0.236-0.877
            c2.848-0.742,4.857-3.399,4.377-6.485C134.609,231.517,133.902,229.534,135.156,230.476L135.156,230.476z M112.761,232.094
            l1.26,0.81c-1.357,4.049-1.859,8.822-2.414,13.445c-0.672,5.59-1.264,11.346-2.078,16.834l-1.926,0.069
            c1.006-3.393,1.469-12.867,2.465-20.807C110.65,238.428,111.281,232.904,112.761,232.094L112.761,232.094z M114.947,233.417
            l1.613,0.937c-0.568,2.258-1.244,4.733-1.578,7.104c-0.74,5.269-1.031,11.658-2.736,21.49l-1.746,0.147
            c0.438-3.157,1.27-10.19,1.982-16.661C113.304,238.917,114.597,233.234,114.947,233.417z M42.288,233.163v3.762l-8.061,7.42v-3.465
            L42.288,233.163z M117.679,234.607c0,0,1.389,0.78,1.564,0.873c-1.049,4.149-1.562,8.008-2.078,11.771
            c-0.697,5.076-1.215,10.014-2.176,15.592l-1.861,0.117c0.926-4.276,1.986-14.328,2.82-21.416
            C116.431,237.431,117.433,234.527,117.679,234.607z M73.304,243.053c0.023,2.837-0.598,7.23-0.598,7.23
            c-0.244,0.141-1.006-6.438-3.662-9.412c-3.236,1.541-6.029-2.074-3.822-4.559C69.532,232.609,73.304,240.521,73.304,243.053z
            M120.103,235.738l2.256,1.039c-0.277-0.049-0.811,1.504-1.328,3.924c-1.578,7.375-3.145,21.91-3.398,21.904l-1.738,0.145
            c0.562-3.904,1.336-10.072,2.145-15.529C118.956,241.038,119.808,235.769,120.103,235.738L120.103,235.738z M123.236,237.152
            l1.711,1.026c-0.148-0.106-0.77,1.724-1.068,2.998c-1.541,7.357-2.236,13.808-3.189,20.943l-1.865,0.242
            c-0.141,0.207,1.609-14.043,3.055-21.24C122.372,238.663,123.097,237.068,123.236,237.152L123.236,237.152z M125.904,238.431
            l1.836,0.905c-1.996,5.646-2.182,11.045-4.094,22.375l-1.938,0.353c0.779-7.254,1.887-15.045,3.477-22.146
            C125.406,238.965,125.884,238.45,125.904,238.431L125.904,238.431z M128.527,239.754l2.062,0.83l-4.32,20.801l-1.74,0.236
            c1.084-5.996,1.645-12.932,3.107-18.397C127.947,242.066,128.12,240.765,128.527,239.754L128.527,239.754z M38.652,243.049
            c0.801,0,1.455,0.65,1.455,1.451c0,0.803-0.654,1.451-1.455,1.451c-0.803,0-1.451-0.648-1.451-1.451
            C37.2,243.7,37.849,243.049,38.652,243.049z M40.548,246.454c0.801,0,1.455,0.654,1.455,1.457c0,0.801-0.654,1.449-1.455,1.449
            c-0.803,0-1.451-0.648-1.451-1.449C39.095,247.109,39.745,246.454,40.548,246.454z M36.769,246.544c0.803,0,1.455,0.65,1.455,1.451
            c0,0.803-0.652,1.455-1.455,1.455s-1.451-0.652-1.451-1.455C35.318,247.195,35.968,246.544,36.769,246.544z M38.579,249.892
            c0.803,0,1.451,0.653,1.451,1.455c0,0.803-0.648,1.45-1.451,1.45c-0.801,0-1.455-0.647-1.455-1.45
            C37.124,250.545,37.779,249.892,38.579,249.892z M51.71,254.74L34.3,272.376l-0.055-3.524l11.934-11.718l-12.025-0.184l0.029-2.385
            L51.71,254.74z M43.73,258.103l-9.328,8.901l-0.078-9.053L43.73,258.103z M53.695,258.753c0,0-0.053,0.324,0.822,1.859
            c2.545,4.422,3.135,8.51,5.385,13.25c1.117,2.594,3.641,5.213,4.203,5.361l-2.803,5.127l79.064-0.164l-12.656-22.095
            c-20.088,3.72-38.135,3.066-55.1,0.097c-0.973,1.307-2.039,3.965-3.061,5.887C67.017,261.258,58.915,256.859,53.695,258.753z
            M56.572,259.344c4.178-0.059,7.66,1.929,10.754,6.142c0.98,1.342,1.365,1.947,1.359,2.512c-0.104,0.652-1.396,2.734-1.396,2.734
            s-0.752-2.068-0.93-3.068c-1.125,4.137-1.572-0.658-2.006-1.922c-1.369,3.996-2.107-1.498-2.041-2.979
            c-1.863,2.562-1.742-1.646-2.652-2.431c-0.021,2.222-1.328,0.701-3.021,0.229c0.887,1.242,2.607,2.073,0.406,2.35
            c2.195,1.516,3.295,1.283,1.164,2.119c1.643,0.906,4.346,1.996,1.357,2.592c1.826,1.15,4.762,1.635,1.605,2.734
            c2.385,1.459,5.561,1.354,1.094,2.526c1.619,0.945,4.471,1.302,1.279,2.123c0.492,0.222,1.348,0.793,1.348,0.793l-1.379,2.181
            c0,0-0.498-0.041-0.836-0.396c-1.465-1.528-2.891-4.344-4.166-8.287c-0.938-2.901-2.055-5.967-3.287-8.512
            C54.558,259.441,54.622,259.374,56.572,259.344L56.572,259.344z M127.181,264.322l10.928,18.695l-2.594,0.041l-9.646-16.009
            l-13.018,1.472l4.287,14.311l-3.869,0.105l-3.84-14.078c-7.266,0.293-14.195,0.375-20.238-0.109l-2.051,14.281l-3.689-0.125
            l2.34-14.135l-12.215-1.562l-6.625,15.855l-3.816,0.071c2.463-4.153,8.613-17.569,9.762-18.891
            C99.503,268.503,113.316,266.206,127.181,264.322L127.181,264.322z M124.628,268.656l8.273,14.383l-13.289,0.062l-4.467-13.32
            L124.628,268.656z M74.906,269.077c2.621,0.764,5.441,0.93,8.285,1.033l-2.416,12.871l-11.775-0.025L74.906,269.077z
            M108.054,270.59l3.123,12.498l-22.166,0.113l1.828-12.457C96.657,271.092,102.341,270.771,108.054,270.59z"/>
    </g>
</svg>
