<?xml version="1.0" encoding="utf-8"?>
<svg version="1.2" baseProfile="tiny"
    xmlns="http://www.w3.org/2000/svg"
    xmlns:svg="http://www.w3.org/2000/svg"
    xmlns:xlink="http://www.w3.org/1999/xlink"
    viewBox="0 0 225 314" width="225px" height="314px"
    fill="#d40000">
    <defs>
        <style>
            .maxi-card { display: none; }
            @media (min-width: 75px) {
                .maxi-card { display: block; }
                .mini-card { display: none; }
            }
        </style>

        <path id="suit" d="M16.491,0.199
            c7.12-0.475,10.831,5.639,11.556,10.456c0.432,0.766,0.668,0.55,0.834-0.042c0.348-6.186,5.855-11.24,10.955-10.55
            c8.3,0.108,13.344,9.393,11.926,17.251c-1.733,9.6-6.877,15.38-10.771,21.332C36.585,44.811,30.654,53.715,28.742,58
            c0,0-6.027-9.222-13.87-20.067c-5.243-7.252-9.44-15.11-9.831-21.875C4.595,8.327,7.751,1.399,16.491,0.199L16.491,0.199z"/>
        <path id="numeral" d="M19.876,0H9.635v3.498h3.809c0,0-0.045-0.664-0.012,7.141c0.021,5.473,0.016,8.967-0.049,11.266
            c0.018,3.062-0.486,4.936-1.691,6.061c-1.908,1.604-5.641,1.443-7.021-0.067c-1.021-1.187-1.237-3.453-1.176-6.121H0.016
            c0,0,0.002,1.291,0,1.971c-0.605,12.592,16.264,10.457,16.803,1.67c0.113-1.877,0.057-1.194,0.01-11.598
            c-0.049-11.147-0.01-10.32-0.01-10.32h3.057V0z"/>
    </defs>

    <rect width="100%" height="100%" fill="#fefefe"/>

    <!-- Little Card -->
    <g class="mini-card">
        <use xlink:href="#numeral" transform="matrix(3.5,0,0,3.5,78.4,33.95)"/>
        <use xlink:href="#suit" transform="matrix(2,0,0,2,55.5,170)"/>
    </g>

    <!-- Big Card -->
    <g class="maxi-card">

        <!-- Top Numeral and Suit -->
        <use xlink:href="#numeral" transform="matrix(1,0,0,1,7,12)"/>
        <use xlink:href="#suit" transform="matrix(0.4,0,0,0.4,6,51)"/>

        <!-- Bottom Numeral and Suit -->
        <use xlink:href="#numeral" transform="matrix(-1,0,0,-1,218,302)"/>
        <use xlink:href="#suit" transform="matrix(-0.4,0,0,-0.4,218,263)"/>

        <!-- Card Face -->
        <use xlink:href="#suit" transform="matrix(0.8,0,0,0.8,38,34)"/><!-- top left -->
        <use xlink:href="#suit" transform="matrix(-0.8,0,0,-0.8,187,278)"/><!-- bottom right -->

        <path fill="#E2CF00" d="M192.518,37.445l-11.525,7.513l-0.16,8.762c-6.835-3.28-9.806-8.651-10.882-14.943c-1.934,2.438-1.55,14.749-1.55,14.749
            c-1.756,0.911-2.398,2.102-3.521,3.171c1.103,1.82,4.223,4.92,4.223,4.92c-0.021-0.055-1.431,12.817,0.273,13.33
            c1.559-5.486,3.632-10.273,11.267-15.292c0,0,0.116,20.437-0.373,40.182c-3.23-2.224-10.061-6.218-14.474-10.304
            c5.722-7.379-0.111-16.998-8.65-10.609c-5.534-2.995-6.384-17.143-7.753-24.554c-0.263-1.486-1.552-5.845-1.552-5.845
            s-18.235-5.044-26.066-4.634c6.577,17.139,5.301,38.024-23.808,41.938c-13.946,6.377-30.059,13.486-45.719,26.768
            c-2.885,19.775-13.084,29.513-20.286,34.898c0.052,8.014-0.054,15.946,0.276,24.035c-0.007,0.049,6.573-4.32,7.607-3.516
            c5.499,35.741,25.637,42.827,23.623,43.817c-0.325,0.16-6.6,6.609-6.6,6.609l-24.578-16.19c-0.842,24.712-0.354,49.912,0,74.666
            c4.34-2.453,12.316-8.32,12.316-8.32l0.121-8.408c-0.037-0.799,11.177,7.004,11.203,16.299c0.873,0.594,2.786-13.375,1.044-14.888
            l4.597-4.742l-4.95-4.766c0,0,1.257-7.911-1.31-12.468c-1.662,10.432-10.322,13.685-10.322,13.685s-0.169-38.131-0.393-38.164
            l15.447,9.779c-1.149,0.237-4.092,5.705-1.022,10.134c1.869,2.698,8.588,2.52,9.105-0.587c9.5,8.854,5.843,19.438,9.998,31.997
            l26.959,4.945c-11.11-20.612,0.946-44.101,22.765-42.421c4.087-1.702,7.787-4.16,7.787-4.16s-2.713-4.435-6.139-8.549l-46.697-0.771
            l21.769-40.814l-14.317-0.461c0,0,11.635-24.677,9.121-26.665c-0.883-0.698-0.514-8.655-0.514-8.655l12.789,0.476
            c0.506-5.695-6.186-27.399-15.626-41.593l52.487,0.471l-29.548,41.209l15.87,0.456l-9.47,19.453l1.518,15.172l-14.08,0.456
            c2.427,21.033,18.052,43.194,23.545,50.038c9.08-2.152,26.035-15.127,36.556-23.194c1.363-14.115,6.224-26.131,18.93-35.095
            l0.039-23.236c0,0-7.252,4.682-7.25,4.358c0.029-5.029-2.593-15.499-7.429-24.83c-5.189-10.014-13.708-19.084-15.667-19.651
            c4.506-6.817,6.429-7.428,6.364-7.536l24.542,15.739L192.518,37.445z M68.812,86.99c0,0-4.773,1.817-8.921,1.761
            c-7.434,0.383-13.103,0.982-16.117,7.079c-0.612,1.855,0.729,2.539,1.716,3.025C51.093,91.899,65.984,101.088,68.812,86.99z
            M35.817,118.914c0,0.982,1.099,2.589,1.648,0.922c0.478-1.189,0.574-3.118,0.039-4.306
            C36.012,114.69,35.834,117.952,35.817,118.914z M116.31,152.574l-7.258,0.034l-0.044,8.519l7.395,0.35L116.31,152.574z
            M187.611,194.987c-0.159,0.846-0.942,4.652,0.829,3.99C190.53,197.367,188.75,189.968,187.611,194.987z M180.778,216.373
            c-0.857-1.249-3.509,1.855-5.685,1.973c-9.671,0.517-16.796-0.776-18,9.34c5.577-3.561,13.391-1.937,18.425-3.088
            C179.157,223.39,183.331,220.095,180.778,216.373L180.778,216.373z"/>
        <path fill="#131F67" d="M31.003,288.484c-1.085-88.702-0.566-176.257-0.262-263.966l163.716,0.917c-0.586,87.537-0.696,175.34,0.467,263.751L31.003,288.484
            z M38.003,117.833c0.141-2.538-0.903-3.589-1.809-1.843c-0.214,0.412-0.917,4.823,0.752,4.97
            C38.043,121.057,37.943,118.923,38.003,117.833z M35.354,120.812c-0.01-0.6-0.379-0.859,0.438-6.074
            c-1.56-0.602-2.91-3.134-1.774-4.734c0.443-0.624,0.313-0.762,0.133-1.286c-0.447-1.296-0.211-2.353,0.992-3.179
            c0.769-0.528,0.803-0.668,0.556-1.363c-0.634-1.791-0.039-3.54,1.674-4.136c1.188-0.412,0.958-0.471,1.083-1.224
            c0.279-1.685,1.211-2.704,2.901-2.533c1.571,0.158,1.675,0.159,1.81-0.608c0.373-2.125,2.948-4.445,6.311-6.022
            c1.67-0.782,4.438-1.337,9.741-1.323c3.037-0.053,6.824-0.458,8.949-2.325c0.351-0.327,0.838-1.188,1.008-1.07
            c0.396,0.273,0.3,2.389-0.477,4.316c-2.261,5.621-5.322,7.169-13.974,7.118c-2.579-0.123-6.379,0.226-7.99,1.866
            c-0.479,0.509-0.8,0.988-0.619,1.25c3.584,0.508,7.264,2.125,9.405,9.197c6.5-4.607,16.86-11.664,29.707-18.043
            c-1.543-8.452,5.786-9.756,9.896-8.074c0,0,0.105-0.551-0.054-1.19c-0.155-0.624-0.383-1.438-1.142-2.487
            c-0.19-0.382-1.345-1.109-1.117-1.684c0.372-0.941,0.206-1.2-0.581-2.066c-0.511-0.562-0.172-1.767-0.048-2.252
            c0.162-0.905,0.758-2.196,0.231-2.684c-0.814-0.753-3.587-2.028-5.015-3.042c-1.579-1.148-1.609-2.181,0.704-5.956
            c1.054-2.195,2.05-4.553,2.89-6.13c1.271-2.385,1.402-3.957,0.632-5.324c-1.006-1.786-0.84-3.904-0.816-3.85
            c0,0-9.494-13.509-13.406-18.819l-44.418-0.145L32.546,128.49l7.919-7.304l-2.076-2.456c-0.294,1.426-0.027,2.821-1.787,2.902
            C36.003,121.652,35.448,121.402,35.354,120.812z M61.749,256.218c0.253-4.016-1.669-10.59-4.564-15.144
            c0.125,3.458,0.374,7.687-0.32,11.067L61.749,256.218z M131.844,266.698c-0.351-0.113-3.266-0.291-5.097-0.389
            c-6.071-0.322-10.013-3.233-12.645-7.262c-0.646-0.99-0.379-0.945,1.056,0.176c4.03,3.148,7.804,5.031,11.116,4.56
            c4.696-0.67,7.229,1.052,6.579,3.058C132.74,267.192,132.701,266.973,131.844,266.698L131.844,266.698z M115.94,257.739
            c-0.939-0.814-1.009-1.181,0.105-0.438c3.409,2.269,7.524,5.973,12.61,3.803c1.055-0.676,0.085-0.587-1.681-0.399
            c-2.699,0.287-5.987-1.083-10.032-3.876c-1.975-1.363-1.104-2.514,1.119-1.446c0.687,0.33,1.383,0.573,1.826,0.602
            c2.188-1.453,6.79-1.437,6.683-1.429c0.524-0.45-1.194-1.167-3.753-2.134c-1.661-0.627-2.063-0.885-0.826-0.933
            c1.08-0.043,2.78,0.496,4.007,1.29c2.046,1.314,3.076,2.043,3.687,2.129c1.004,0.079,2.028,0.224,0.306,1.022
            c-0.783,0.363-0.714,0.456-0.624,1.335c0.141,1.373,0.223,1.357,0.856,2.134c1.068,1.178,1.534,3.37,0.01,1.998
            c-0.328-0.151-0.362,0.14-1.26,0.502C123.701,263.385,119.776,261.065,115.94,257.739z M125.669,258.13
            c0.293-0.387,0.735-1.375,0.795-1.651c-0.102-0.641-0.671-0.44-0.959-0.079c-0.492,0.604-1.181,1.492-0.614,1.795
            C125.158,258.338,125.42,258.458,125.669,258.13z M123.869,257.715l1.172-2.089c-0.29-0.135-4.259,0.685-3.637,1.254
            C121.955,257.385,123.869,257.715,123.869,257.715z M128.337,250.708c-1.808-0.967-2.335-3.051-0.984-4.435
            c1.136-1.163,3.06-1.064,5.362,0.353c0.811,0.499,1.308,0.752,1.862,0.548c0.929-0.342,1.284,0.179,1.208,0.907
            c-0.169,1.602-2.664,1.994-4.238,0.166c-2.081-2.418-4.343-0.731-3.68,1.017c0.338,0.89,0.993,1.028,1.746,1.362
            C129.613,250.801,128.863,250.99,128.337,250.708L128.337,250.708z M120.097,239.939c2.994-0.807,7.446,2.36,9.861,1.929
            c1.047-0.224,0.898,1.283-0.188,1.83c-1.271,0.639-3.076,0.208-6.907-1.789c-3.154-1.704-5.708,1.121-3.599,3.229
            c0.452,0.427,1.111,0.683,1.92,0.645c1.066-0.05,1.381,0.241,0.005,0.595c-0.79,0.203-2.261-0.117-2.972-0.837
            C116.519,243.82,116.937,240.513,120.097,239.939z M56.723,230.689c-0.089-3.56,1.812-5.537,1.86-5.552l-13.459-9.13l0.2,36.468
            c6.669-4.233,8.857-9.569,9.24-16.457c13.166,14.746,9.057,32.697,0.834,42.92c-0.338-6.257-2.206-13.649-9.808-17.438l-0.014,7.463
            l-12.616,8.945l0.076,8.245l29.681,0.093l14.354-20.96c-2.597-9.506-2.206-17.417-3.963-21.767c-1.317-3.575-3.82-8.194-5.438-7.479
            C62.202,240.37,56.829,235.319,56.723,230.689z M68.048,234.897c4.662,3.357,5.906,8.843,6.862,13.719
            c0.032,0.042,2.447,16.529,2.523,16.751c0.312,0.904,0.209,1.807-0.591,2.493c-4.305,5.904-12.721,18.568-12.721,18.568
            l82.489,0.485c-4.402-6.402-7.839-12.731-12.02-17.995c0.176-0.281-0.327-3.876-1.023-5.038c-0.718-1.197-0.884-1.825-0.397-2.92
            c1.206-2.698,2.444-5.622,3.56-8.098c2.134-4.743,2.378-4.783-0.536-6.323c-3.454-2.011-4.069-2.665-3.346-4.961
            c0.265-0.836,0.298-1.17-0.771-1.388c-0.495-0.102-1.7-0.39-2.509-0.613c-2.332-0.735-1.657-0.279-2.51,0.324
            c-0.649,0.32-1.209-0.911-1.97-2.365c-0.875-1.673-1.097-1.712,0.351-0.852c2.683,1.596,7.443,0.976,5.767-0.871
            c-0.818-0.9-1.576-1.362-1.49-3.401c0.085-2.023,0.116-2.616-1.258-2.897c-2.748-0.562-5.736-0.328-8.295,0.311
            c-7.786,1.943-14.032,8.697-16.401,13.717c-0.532,0.874,0.692,0.829,1.221,0.833c2.552-0.228,4.362,3.838,2.692,5.661
            c-0.772,0.813-1.542,0.314-0.719-0.742c0.94-1.748-0.461-4.06-2.516-3.472c-2.586,0.741-2.659,4.084-2.979,6.413
            c-0.881,6.712,2.529,15.684,3.363,17.515c0,0,0.182,0.272,0.12,0.272c-0.062,0-0.473,0.378-0.646,0.181
            c-0.599-0.68-2.109-6.17-2.929-10.093c-1.588-10.849,1.219-20.824,10.245-26.49c7.995-5.768,12.022-4.526,16.562-4.792
            c1.55-0.559,3.7-1.404,5.329-2.203c7.996-4.367,14.476-8.091,21.27-11.791c6.595-3.591,11.018-8.717,17.047-11.92
            c0.274-0.146,0.558-0.484,0.839-0.623c7.499-6.516,14.91-12.914,19.383-17.373c0.542-0.545,0.99-1.282,0.99-1.282l-0.758-37.601
            c0,0-0.754-0.627-0.751-1.225c0.008-1.306-0.477-1.056-3.158,0.831c-3.371,2.372-3.601,2.253-3.601,2.253
            c-1.784-17.251-11.113-34.215-22.421-44.135l0.465-0.635c0,0,3.782,2.497,5.67,3.686v-2.405l-4.554-2.853
            c0,0-0.405-0.329,0.038-0.932c0.243-0.331,0.866-0.086,0.866-0.086l3.649,2.69v-2.196l-2.95-1.88l0.945-1.19l1.58,1.025
            c-0.671-1.738,0.277-1.677,1.25-0.525c0.405,0.528,0.927,1.205,1.148,1.845c0.085,0.244,0.337,0.844,0.337,0.844l2.587,1.925
            c0,0-0.1-0.938-0.008-1.226c0.437-1.363,3.559,3.037,3.167,3.141l2.648,1.909c0.628-0.956,2.988,0.949,3.085,1.888
            c0.208,0.409,9.131,6.148,9.131,6.148l0.098-3.17l0.962-1.252l0.433-73.241l-11.847,7.574l-0.13,8.866
            c-5.597-1.811-10.444-9.917-11.154-14.974c-0.364-0.199-1.985,9.974-1.128,14.426c-1.479,1.102-3.971,3.676-3.951,3.689l4.488,4.91
            c0,0-0.897,7.52-0.688,11.256c0.182,1.772,0.217,1.952,0.747,1.956c0.43,0.002,0.816-0.463,0.819-0.868
            c1.055-4.473,4.517-11.452,10.508-13.829c0.396-0.013-0.031,39.9-0.031,39.9l-14.869-10.143c-0.74-0.637,0.971-0.596,2.016-3.974
            c2.694-8.712-6.651-11.791-10.262-6.746c-0.594-0.004-3.074-3.069-3.445-4.351c-2.75-5.54-3.277-11.82-3.811-16.857
            c-0.323-2.29-1.163-6.045-1.86-8.306c-0.372-1.208-0.409-2.079,0.394-3.204c3.683-4.974,7.249-10.2,10.352-15.299
            c2.832-3.721,2.279-3.908,2.279-3.908l-82.706-0.268l13.222,17.417l1.339,0.521c-2.288,0.295-1.51,2.295-0.622,4.446
            c1.092,2.644,0.971,3.19-1.8,8.637c-4.062,7.985-4.279,7.284-0.228,9.756c2.502,1.602,2.957,1.952,2.589,4.127
            c-0.368,2.176-0.47,1.503,1.596,1.681c1.104,0.095,1.985,0.294,2.482,0.52c0.565,0.256,0.985,0.612,1.712,0.374
            c1.224-0.401,1.254-0.105,1.303,0.792c0.021,0.382,0.599,1.17,0.777,1.463c0.472,0.773,0.251,0.901-0.612,0.357
            c-2.66-1.675-7.106-0.959-5.47,0.861c0.673,0.75,1.351,3.245,1.409,4.485c0.104,2.218,1.544,3.005,4.57,2.548
            c5.812-0.433,18.916-7.647,21.97-15.75c-6.712,2.285-5.333-5.952-2.94-5.692c0,0-0.644,1.461-0.664,2.294
            c-0.073,2.946,2.395,3.175,4.095,1.088c0.739-1.096,1.637-5.167,1.195-9.763c-0.535-5.566-2.791-11.793-3.199-13.338
            c9.6,22.912,0.784,32.987-12.703,39.562c-5.166,2.157-5.875,2.145-8.919,2.286c-2.084,0.169-3.963,1.204-5.962,1.861
            c-11.541,5.508-25.724,12.377-38.41,22.623c-9.104,6.744-16.335,12.807-23.523,20.596l-0.029,40.427
            c2.162-0.336,5.671-2.441,7.749-3.653c2.381,15.1,10.146,32.586,23.008,43.043c-0.008-0.005-0.304,0.57-0.311,0.565
            c-1.832-1.217-3.663-2.427-5.438-3.359l-0.093,1.924l4.328,2.976c0.114,0.462-0.742,1.107-0.742,1.107l-3.572-2.468l-0.027,1.959
            l2.766,1.764c0.747,0.749-0.905,1.139-0.905,1.139l-1.639-1.188c0,0,0.117,0.952,0.067,1.12c-0.428,1.446-2.794-1.748-3.222-3.341
            l-2.328-1.38c0.33,0.943-0.504,1.075-1.163,0.839c-1.749-0.887-1.652-2.377-2.017-3.261l-3.099-1.965
            c-0.533,2.952-3.682-1.205-3.185-2.2l-3.974-2.705c0.22,0.083-1.515,0.441-2.102,0.058c-0.676-0.44-0.913-2.242-0.913-2.242
            l-2.383-1.475v2.581l24.504,17.109l-0.353,0.664L31.19,201.425l1.035,75.899l12.462-8.62c-0.239-2.841,0.285-5.378,0.05-8.614
            c6.403,3.985,8.559,6.696,11.382,15.065c1.827-4.764,1.507-9.336,0.686-13.564c1.638-1.34,3.231-2.641,4.054-4.661
            c-1.54-2.12-3.046-2.715-4.668-4.682c-0.127-2.397,1.276-9.538-0.607-11.894c0,0-3.442,10.374-10.858,13.492
            c-0.225-10.953,0.031-38.492,0.031-38.492s7.621,5.261,11.508,7.397c1.826,0.976,3.1,1.587,3.123,2.281
            c0.013,0.353-0.721,0.803-1.043,1.3c-0.2,0.309-1.044,3.271-0.716,5.589c0.149,1.708,0.954,2.788,1.725,3.606
            C61.797,238.123,66.276,236.9,68.048,234.897z M82.8,215.512l29.315-41.007c3.487,15.09,9.376,28.909,17.057,41.438L82.8,215.512z
            M97.296,172.409c0,0,2.046-4.055,2.984-6.206H96.69l2.147-2.409h5.346l-2.859,6.095h2.269l3.138-6.095h8.33l-2.914,6.095h1.919
            l3.116-6.095h7.745l-2.724,6.095h1.814l1.591-3.075l0.389,5.596h-7.693l3.041-6.206h-2.479l-3.437,6.206h-7.207l3.125-6.206h-2.739
            l-3.434,6.206H97.296z M121.034,150.573l3.108-6.565h-2.459l-3.438,6.429h-7.683l3.023-6.355l-1.914,0.007
            c-1.298,2.003-3.368,6.074-3.368,6.074h-8.146c0,0,2.304-4.317,3.213-6.429h-2.01l-1.637,2.608
            c-0.576-0.974-0.196-3.561-0.293-4.658h7.68l-3.085,6.301h2.45l3.363-6.301h8.109l-3.304,6.301h1.921l3.273-5.955h8.25l-2.891,5.955
            h2.547l-1.123,2.589H121.034z M113.445,139.132l-1.555,0.292c-1.991-17.015-11.406-34.36-15.392-41.522l46.849,0.658
            L113.445,139.132z M168.453,40.893c0,0-4.469,5.744-4.767,15.383l4.255-3.398C167.672,43.097,168.453,40.893,168.453,40.893z
            M163.735,56.999c-0.071,7.171,1.809,11.743,4.187,15.322c0.04-4.619,0.505-9.296,0.779-10.521L163.735,56.999z M47.748,194.205
            l-15.149-10.435v2.287l18.005,12.23L47.748,194.205z M45.019,188.606c-4.058-2.037-12.42-8.345-12.42-8.345v2.087l13.312,9.352
            c0.261,0.258,0.612,0.192,0.735-0.096C46.122,190.72,45.491,189.517,45.019,188.606L45.019,188.606z M41.301,179.546l-8.702-6.072
            v1.89c2.231,1.999,9.574,6.755,9.574,6.755L41.301,179.546z M32.599,172.093l8.187,5.291l-0.509-2.343l-5.815-3.948L32.599,172.093z
            M179.721,98.738l0.438-37.708c-8.53,4.034-10.222,15.798-9.937,16.164c-8.492-8.751-11.692-27.619,0.218-40.308
            c0.896,4.069,1.196,9.973,9.621,15.367l0.217-7.987l11.805-7.54l-0.098-9.075l-28.313-0.221c-4.393,5.563-8.782,11.896-13.127,17.8
            c-1.631,2.213-2.038,3.254-1.726,4.411c2.856,10.266,2.284,22.905,8.28,28.882c8.044-7.563,15.579,3.822,9.326,10.844
            L179.721,98.738z M57.384,261.794c1.088,3.434,0.34,10.36,0.27,10.36c1.299-0.706,4.831-10.736,3.947-14.506 M102.579,73.494
            c-2.003-0.568-3.511-1.429-5.625-1.228c-1.665,0.173-2.23-0.378-1.216-1.284c1.328-1.125,2.615-1.589,5.075-0.302
            c7.403,3.873,7.631-1.782,4.298-2.183c-0.946-0.113-0.902-0.718,0.041-0.564C110.325,68.14,108.749,74.991,102.579,73.494z
            M93.923,67.847c-0.979-0.357-2.161-0.955-2.597-0.839c-1.1,0.296-1.137-0.309-1.006-1.024c0.315-1.727,2.082-1.414,4.416,0.072
            c3.345,2.129,4.626-0.932,1.583-2.583c-1.024-0.556-0.708-0.71-0.109-0.734c1.585-0.065,3.077,2.092,2.657,3.857
            C97.801,69.426,95.213,68.318,93.923,67.847z M103.722,62.619c-2.164-0.376-5.298-3.284-6.752-3.483
            c-0.817-0.094-1.778,0.006-2.04-0.322c-0.799-1.005,1.465-1.005,1.619-1.369c0.006-0.848,0.059-1.378,0.024-1.667
            c-0.399-0.542-1.974-2.706-1.919-3.755c0.037-0.064,0.825,0.58,1.23,0.583c3.864-2.037,6.505-1.133,9.765,0.306
            c1.348,0.595,4.825,3.291,4.869,3.718c0.074,0.724-1.475-0.633-2.686-1.445c-2.982-2.073-5.665-3.547-9.409-2.317
            c-0.583,0.2-0.481,0.308,1.436,0.19c1.875-0.113,3.409,0.461,5.804,2.022c0.595,0.389,1.312,1.051,1.741,1.255
            c3.013,1.436,3.668,2.846,1.751,2.464c-0.41-0.082-1.205-0.509-1.986-0.785c-1.377-0.487-0.89-0.34-2.215,0.277
            c-0.465,0.217-1.584,0.673-2.503,0.782c-0.705,0.117-2.989,0.099-1.979,1.063c1.072,1.073,2.851,1.865,4.073,2.355
            C105.427,62.883,104.749,62.798,103.722,62.619z M103.979,57.944c1.411-0.522,0.308-1.705-1.49-1.966
            c-0.411-0.061-1.291,1.882-1.31,2.291C101.164,58.573,103.206,58.23,103.979,57.944z M100.086,58.153
            c0.323-0.205,1.407-1.771,1.408-2.021c0.006-1.005-1.281-0.726-1.578,0.321C99.554,57.726,99.524,58.51,100.086,58.153z
            M95.579,50.051c-1.159-0.513-2.735-2.756-0.933-2.377c0.389,0.089,2.411,0.194,3.718,0.2c4.445,0.02,8.876,2.033,11.693,4.963
            c1.568,1.63,1.67,2.836,0.079,1.713C104.5,49.49,101.041,50.432,95.579,50.051z M139.487,224.468l-1.573,0.837
            c0.004,0.872,0.318,0.736,1.016,1.354c0,0-0.966,0.157-1.672,0.11c-1.149-0.076-1.413-0.058-0.904,0.752
            c0.234,0.373,0.557,0.926,0.557,0.926s-0.624,0.135-1.562-0.123c-1.422-0.39-2.15-0.194-1.612,0.597
            c0.148,0.218,0.433,0.628,0.433,0.628c-1.037-0.235-2.942-1.162-2.942-1.162l-1.345,0.408
            C132.563,234.031,142.101,230.728,139.487,224.468L139.487,224.468z M186.005,216.993c1.474-1.236,0.758-2.754-1.396-3.865
            c-0.896-0.463-0.808-0.47-2.261,0.384c-1.791,1.052-1.918,1.106-0.642,2.459C183.246,217.604,184.921,217.904,186.005,216.993z
            M180.532,213.497c1.356-0.602,0.853-0.5,0.761-1.917c-0.396-1.633,0.529-1.747,0.986-3.271c0.189-0.833-0.516-0.525-1.886,0.749
            c-1.13,0.948-1.465,1.181-1.462,0.719c0.127-0.386-0.775-1.376-1.586-1.511c-0.684-0.113-0.619-0.271,0.05-1.136
            c1.16-1.501,1.638-3.395,0.859-5.063c-0.984-2.109-1.31-2.419-3.484-0.577c-1.114,1.025-2.688,1.812-3.448,3.081
            c-0.544,0.934-0.229,1.837,0.632,3.671C174.103,212.82,177.423,214.876,180.532,213.497L180.532,213.497z M188.152,213.536
            c2.392-0.937,1.427-3.517-2.31-6.118c-2.252-1.567-2.891-1.552-0.979,0.147c1.224,1.087,1.415,1.471,0.891,2.253
            c-0.438,0.651-0.896,1.418-0.462,2.015C185.976,212.773,187.144,213.931,188.152,213.536z M53.553,209.245l-2.605-1.646v2.25
            l2.605,1.557V209.245z M183.784,211.279c0.518-0.363,0.962-1.385,0.964-1.836c0.117-1.047-1.587-0.796-2.4,0.361
            C181.432,211.106,182.515,212.172,183.784,211.279z M189.619,207.736c1.188-1.244,0.61-2.568-1.828-4.147
            c-0.941-0.616-1.421-1.02-1.305,0.203c0.035,0.373-0.374,0.866-0.637,1.161c-0.846,0.945-0.47,1.114,1.938,2.641
            C189.014,208.37,188.95,208.438,189.619,207.736z M53.553,205.344l-2.605-1.573v2.042l2.605,1.759V205.344z M47.856,207.382
            l0.034-2.048l-3.376-2.244l-0.048,2.283L47.856,207.382z M180.62,206.555c-0.435,1.172,1.314,0.641,1.416,0.521
            c0.303-0.593,0.035-0.648-0.114-0.712C181.615,206.236,180.424,206.441,180.62,206.555z M181.384,205.073
            c0.6-0.192,0.67-0.117,0.587-1.199c-0.126-1.633,0.119-1.764,1.204-2.481c0.867-0.574,0.873-0.488,0.859-1.489
            c-0.018-1.209,0.065-1.729,1.656-1.976c0.65-0.101,1.022-0.26,1.076-0.773c0.091-0.863-1.296-2.32-3.021-3.162
            c-0.255-0.001-4.111,3.354-5.188,4.514l-0.658,0.708l0.787,1.475c1.227,2.298,1.025,3.145,0.304,6.193
            c-0.147,0.816,0.482,0.697,0.647-0.284C179.854,205.68,179.98,205.347,181.384,205.073z M187.261,196.941
            c-0.297,1.852,0.662,2.99,1.568,2.07c0.493-0.5,0.907-4.589,0.564-5.238C187.532,191.781,187.334,196.495,187.261,196.941z
            M157.298,227.606c6.916-4.049,15.804-0.739,20.812-4.061c2.335-2.573,4.683-4.214,3.359-5.989
            c-1.031-1.382-1.701-1.594-1.701-1.594c0.073,0.098-3.649,3.233-9.049,2.508C161.717,218.16,157.462,220.987,157.298,227.606z
            M169.116,217.965c4.404,0.153,7.984-0.612,9.622-1.89c1.017-0.793,1.17-0.933-0.424-1.061c-3.42-0.275-6.884-4.241-7.969-8.088
            c-0.221-0.791-0.481-1.65-0.481-1.65c-9.113,7.273-29.172,18.729-29.172,18.729c1.331,6.191-3.154,9.885-9.23,7.686
            c-1.057-0.096-0.919,1.265-0.72,1.823c0.331,0.916,1.065,1.684,1.209,1.807c0.904,0.774,1.073,1.286,0.937,2.028
            c-0.135,0.733-0.121,0.709,0.393,0.983c0.913,0.489,0.865,1.186,0.367,2.622c-0.536,2.021-0.573,2.529,0.879,3.491
            c1.869,1.201,5.539,2.515,4.997,4.321c-1.228,4.094-3.243,7.618-5.016,11.448c-0.658,1.061-0.517,2.812,0.002,3.629
            c0.643,1.252,0.568,2.749,1.401,3.898c4.606,6.838,8.573,12.854,12.771,19.031l43.909,0.415l-1.092-101.269
            c0,0-6.769,6.666-6.748,7.137c0.025,0.562,1.59,1.438,2.262,1.55c0.028-0.304-0.004-1.504,0.083-1.925
            c0.062-0.609,2.016-0.451,2.663,0.079c0.453,0.371,0.313,2.795-0.145,4.768c-0.375,1.613-0.323,1.636,0.369,2.568
            c0.844,1.137,1.136,2.101,1.024,3.385c-0.061,0.703-0.055,1.26,0.145,1.725c0.469,1.095,0.331,2.637-0.185,3.354
            c-0.749,1.041-0.761,1.199-0.599,1.756c0.614,1.928,0.385,3.569-1.765,4.404c-0.275,0.106-0.576,0.583-0.753,0.993
            c-0.937,3.084-2.695,3.08-5.101,2.192c-1.702,6.636-8.627,8.304-13.615,8.106c-5.197-0.204-10.482,0.186-12.834,3.585
            C156.852,221.545,160.455,217.663,169.116,217.965z M184.8,204.595c0.883-0.33,0.993-1.251,0.251-1.842
            c-1.14-0.907-2.448,0.016-1.914,1.328C183.437,204.817,183.942,204.915,184.8,204.595L184.8,204.595z M48.001,201.672l-3.461-2.397
            l0.02,2.147l3.449,2.214L48.001,201.672z M54.53,203.436l-2.448-2.938c-7.22-4.415-13.479-9.354-19.482-13.33l-0.046,2.723
            l1.717,0.865c0,0,0.146-0.599,0.263-0.944c0.221-0.648,2.206,1.178,2.839,2.641c0.157,0.364,0.5,1.178,0.5,1.178l2.313,1.277
            c0,0,0.034-0.656,0.035-0.839c0.009-1.393,2.483,0.524,3.611,2.802c0.273,0.552,0.632,1.138,0.632,1.138l2.178,1.322
            c0.859-1.174,3.048,0.433,3.608,1.858c0.71,1.809,1.961,1.965,2.01,1.971L54.53,203.436z M41.498,203.04l0.005-2.086l-3.608-2.373
            l-0.047,2.115L41.498,203.04z M190.051,203.211c0.095-0.548-0.445-2.678-1.256-2.797c-0.506-0.074-1.299,0.692-1.302,1.228
            C187.49,202.337,189.949,203.804,190.051,203.211z M187.116,200.681c0.788-0.861-0.207-1.983-1.411-1.594
            c-1.432,0.463-0.937,1.76,0.665,1.787C186.729,200.88,186.944,200.869,187.116,200.681L187.116,200.681z M41.312,199.146
            l0.014-1.988l-3.334-2.203l-0.069,1.943L41.312,199.146z M34.756,198.444l0.033-1.914l-2.19-1.526v2.293L34.756,198.444z
            M34.835,192.709l-2.236-1.458v2.075l2.337,1.336L34.835,192.709z M43.921,186.399c-0.232-0.613-1.177-2.554-1.177-2.554
            l-10.146-7.081v2.18l11.35,7.633L43.921,186.399z M39.173,169.571l-0.119-0.887l-0.903,0.481L39.173,169.571z M37.023,169.792
            l-1.418,0.768l4.286,2.787l-0.345-1.981L37.023,169.792z M185.868,146.304l1.105-0.8l-1.952-1.323l-0.146,1.342L185.868,146.304z
            M187.847,145.031l1.452-1.199l-4.857-3.425l0.344,2.131L187.847,145.031z M191.289,143.239v-1.463l-7.877-5.319l0.544,2.674
            c1.389,0.803,3.086,1.975,4.859,3.222C189.941,143.145,189.945,143.45,191.289,143.239z M191.289,140.529v-2.321l-9.112-6.05
            l0.74,2.724L191.289,140.529z M191.289,137.042l0.004-2.434l-11.03-7.288l1.207,3.22L191.289,137.042z M191.289,130.93
            l-13.905-9.306l1.779,3.566l12.126,8.104V130.93z M191.289,127.375l-17.452-11.609l1.96,3.249l15.492,10.476V127.375z
            M191.289,123.601l-0.652-0.003c-0.053,1.664-1.854,0.457-2.533-1.372c-0.512-1.226-0.626-1.534-0.626-1.534l-3.515-2.375
            c0.073,0.483,0.277,1.861,0.277,1.861l-2.368-1.445c0,0-0.684-2.288-0.706-2.304l-4.045-2.748c0.086,0.468,0.154,1.24-0.109,1.293
            c0,0-1.229-0.524-1.792-1.343c-0.585-0.852-0.674-1.709-0.674-1.709l-3.301-2.136l-0.821,0.089c0,0-0.445-0.302-0.863-0.641
            c-0.783-1.399-1.699-1.61-2.795-2.181c0,0,2.323,2.712,3.564,4.313c1.14,1.479,2.522,2.535,2.522,2.535l18.437,12.3V123.601z
            M191.289,119.806l-1.425-0.855l0.104,2.246l1.32,0.897V119.806z M47.56,114.864c0.087-0.141-0.277-0.303-0.678-1.184
            c-0.992-2.182-1.09-2.942-0.56-5.234c0.253-1.094-0.74-1.562-1.197-0.396c-0.355,0.907-0.907,1.418-1.436,1.352
            c-0.499-0.062-0.604,0.146-0.388,0.835c0.265,0.953-0.311,2.194-1.109,2.533c-0.808,0.207-0.955,0.719-0.728,1.459
            c0.376,1.229-0.95,2.27-1.993,2.21c-1.61-0.092-0.979,1.375,0.963,2.771c0.719,0.518,1.04,0.797,1.605,0.536
            C43.509,118.356,46.241,116.369,47.56,114.864z M187.334,119.365l-0.081-2.142l-4.052-2.736l0.499,2.865L187.334,119.365z
            M191.289,118.466v-2.157l-1.668-1.071l0.086,2.293L191.289,118.466z M38.776,115.125c0.388,0.393,0.773,0.429,1.391,0.058
            c0.711-0.371,0.438-0.934-0.305-1.299C39.166,113.519,38.194,114.631,38.776,115.125z M37.566,114.18
            c-0.055-0.452,0.496-1.061,0.877-1.083c0.832-0.05,0.685-0.494-0.268-1.07c-0.446-0.271-1.237-0.901-1.526-1.111
            c-1.423-1.033-2.799,0.562-1.741,1.909C35.792,113.953,37.098,114.623,37.566,114.18z M186.934,115.517l-0.314-2.384l-3.659-2.432
            l0.289,2.624L186.934,115.517z M53.904,109.708c0.199-0.331,0.26-0.646,0.239-1.045c-0.075-1.499-0.848-3.262-1.932-4.736
            c-0.807-1.098-1.785-2.035-2.776-2.586c-2.799-1.439-6.534-0.82-5.99,1.034c0.387,1.252,0.297,2.302-0.778,2.932
            c-0.731,0.429-0.824,1.006-0.052,1.007c0.562,0,2.05-0.514,2.671-1.492c0.876-1.377,1.376-2.179,1.18,0.07
            c-0.082,0.94,0.036,0.871,1.494,0.796c1.979-0.103,1.611,0.269,0.455,1.159c-1.684,1.298-2.018,3.493-1.168,5.359
            c0.526,1.155,0.89,1.77,1.575,1.615C50.303,112.849,52.719,110.894,53.904,109.708z M180.47,112.49l-3.602-2.371l0.142,2.537
            l3.889,2.295L180.47,112.49z M42.238,110.169c-1.32-1.666-2.87,0.462-1.868,1.393C41.096,112.2,42.931,111.546,42.238,110.169z
            M39.116,110.401c-0.165-0.519,0.79-1.353,0.939-1.685c0.438-0.965-3.472-3.65-4.688-2.059c-0.838,1.097-0.257,2.193,2.002,3.694
            C38.734,111.257,39.387,111.256,39.116,110.401z M180.119,108.793l-3.329-2.073l0.058,2.19l3.536,2.132L180.119,108.793z
            M174.25,110.753v-2.237l-3.354-2.338l-0.055,2.315L174.25,110.753z M43.85,108.109c0.608-0.602,0.403-0.797-0.774-0.736
            c-0.743,0.038-0.971-0.086-1.021,0.255C41.944,108.381,43.225,108.727,43.85,108.109z M41.059,107.263
            c0.061-0.155-0.36-0.461-1.047-1.037c-1.311-1.099-1.459-1.782-0.199-2.639c1.797-1.221-0.087-2.956-2.172-2.251
            c-1.685,0.57-1.689,2.267-0.689,3.358C38.323,105.608,40.812,108.243,41.059,107.263z M174.25,105.027l-3.299-2.262v2.203
            l3.299,1.924V105.027z M41.68,105.171c1.469-0.749,1.548-2.627,0.076-1.939c-0.606,0.284-1.401,1.053-1.404,1.4
            C40.348,105.309,40.93,105.553,41.68,105.171z M42.758,100.86c1.904-1.022,1.613-1.974-0.284-3.162
            c-2.315-1.327-3.938,1.219-2.03,2.951C41.443,101.555,41.674,101.443,42.758,100.86z M45.229,99.015
            c3.095-3.326,5.147-3.156,9.234-3.067c10.543,0.095,13.774-4.943,13.44-8.477c-5.123,2.544-9.696,1.178-14.572,1.915
            c-8.414,1.878-9.401,5.835-9.988,8.1L45.229,99.015z M87.493,87.685c2.717,0.024,2.595,0.107,1.478-2.126
            c2.645,0.362,3.712,1.629,2.839-1.003c1.402,0.5,2.243,0.885,3.691,1.362l0.92-0.533c-5.596-5.445-11.802-0.832-10.166,4.661
            l2.078-0.993L87.493,87.685z"/>
        <path d="M101.15,286.737l1.301-6.305l11.614,0.564c0,0,1.349,3.957,1.895,5.74H101.15z M74.329,286.583l6.162-10.176
            l8.75,2.374l-2.014,7.955L74.329,286.583z M91.35,286.737L94,275.873c-5.006-1.102-9.728-1.826-15.252-3.317l-8.968,14.169
            l-5.396-0.144c4.648-6.193,13.139-18.7,13.139-18.7c19.473,6.699,39.105,7.83,58.871,4.291c0,0,7.282,9.606,9.893,14.816
            l-5.136-0.252l-6.381-10.686c-4.443,0.481-8.813,1.073-13.449,1.267l3.175,9.419h-5.101l-2.893-9.392
            c-5.562-0.216-10.234,0.219-16.898-0.824l-2.351,10.211L91.35,286.737z M128.099,286.74l-1.757-6.681l6.268-0.731
            c0,0,2.907,5.094,4.499,7.408L128.099,286.74z M71.853,224.675c7.796-11.849,35.326-50.05,35.326-50.05l4.009,0.383
            c0,0-24.451,34.102-36.327,51.397L71.853,224.675z M32.1,206.243l9.601,6.912l0.069,53.817l-9.756,6.866L32.1,206.243z
            M71.953,118.198l5.812,11.373c-24.69,23.393-19.847,50.844-6.619,70.424c0,0-1.711,4.38-5.438,9.032
            c-17.896-11.802-23.34-42.475-23.203-42.803C62.227,148.633,64.886,143.031,71.953,118.198z M172.849,202.035
            c1.274-17.319,9.746-28.64,19.238-35.557l0.485,17.616C186.359,190.059,179.787,196.217,172.849,202.035z M147.068,184.59
            c21.624-20.194,22.361-48.872,6.608-69.923l6.446-9.002c9.138,9.779,18.099,20.027,21.913,43.844
            c-13.694,10.794-25.795,28.63-29.014,46.634L147.068,184.59z M117.272,161.094l-0.04-8.253l8.088-0.04l-0.23,8.239L117.272,161.094z
            M100.174,161.03l-0.116-8.225l7.996,0.059l-0.125,8.337L100.174,161.03z M114.021,139.009c0,0,26.802-37.516,37.321-51.058
            l2.235,1.645l-35.644,49.622L114.021,139.009z M51.418,112.774c-0.026,14.802-9.515,26.53-19.206,34.183l0.132-16.852
            L51.418,112.774z M192.236,41.347l0.057,65.698l-9.058-5.454l0.768-55.095L192.236,41.347z M149.064,45.238
            c-20.446-5.316-39.074-6.907-58.656-2.71c-2.553-3.044-11.129-15.721-11.129-15.721l4.95,0.072l7.006,11.214l13.348-1.744
            l-3.437-9.122l5.503,0.024l2.741,8.945c-0.028-0.07,10.858,0.107,16.909,0.824c0.962-3.322,2.751-9.922,2.751-9.922l6.062-0.004
            c-0.778,3.172-2.87,10.718-2.87,10.718c4.965,0.69,14.174,3.031,14.259,3.133c3.23-4.566,6.233-9.133,9.155-13.699l5.907-0.028
            C159.823,30.165,149.391,45.384,149.064,45.238z M145.291,37.363l-9.033-2.106l2.358-7.96l12.626-0.008L145.291,37.363z
            M93.42,34.483l-4.2-7.388h8.081l2.676,6.507L93.42,34.483z M111.765,32.978l-1.224-5.883h14.677l-1.5,6.267L111.765,32.978z"/>
        <path fill="#000000" d="M78.209,26.6l13.053,18.837c0.061-0.061,7.313-1.444,14.444-1.794c7.088-0.347,15.541,0.096,15.612,0.311
            c0,0,2.23,6.734,2.987,10.042c0.998,4.418,0.894,9.504-0.16,12.878c-1.544,4.944-2.359,6.428-5.809,9.823
            c-2.558,2.479-6.173,5.178-9.901,6.619c-5.166,2.157-5.692,2.146-8.736,2.288c-2.013,0.094-2.219,0.172-3.32,0.743
            c-0.339,0.118-0.56,0.473-0.862,0.574c-0.255,0.086-0.738-0.012-0.738-0.012c-16.79,7.359-29.932,15.564-39.86,22.892
            c-0.115,0.085-0.189,0.464-0.301,0.556c-0.812,0.664-1.562,1.168-2.354,1.775c-0.108,0.084-0.353-0.065-0.461,0.018
            c-11.681,8.999-18.298,16.296-20.731,18.402l0.238,41.902c0,0,5.319-2.732,8.047-4.397c1.915,16.224,10.007,31.984,22.783,42.931
            l-5.542,7.641l-25.543-17.586l0.354,77.312l13.581-9.431v-8.155c4.047,2.726,7.997,3.788,10.871,16.199
            c2.297-4.359,2.096-10.853,1.066-15.19c0.017,0,3.447-2.836,4.499-5.009l-5.047-4.476c0,0,1.308-10.84-1.072-13.023
            c-1.883,4.921-3.384,10.134-10.419,13.931l-0.088-37.66c3.507,2.221,6.823,4.723,10.289,7.001l0.478-0.096l3.586,2.457
            c0,0-0.38,0.769-0.728,1.295c-4.357,6.609,2.903,14.716,8.811,9.838c2.312-1.909,6.652,6.03,7.472,13.669
            c0.834,4.935,1.282,11.061,2.623,15.346c0.415,1.251,0.253,1.952-0.631,2.711c-4.526,6.368-13.624,19.201-13.624,19.201h6.555
            l0.475-0.752h-4.833c4.162-5.538,8.134-11.991,12.451-17.397c16.089,6.056,42.443,7.454,58.359,3.782
            c3.287,4.609,6.483,9.442,9.644,14.139h-4.576l0.63,0.984h6.191l-13.043-19.201c-8.99,2.675-30.907,1.633-30.508,1.411
            c0,0-0.061-0.149-0.819-2.327c-3.764-12.147-4.111-22.93,5.328-31.643c5.015-4.459,10.615-7.399,16.869-6.842
            c2.796-0.055,2.85-0.206,4.015-0.732c0.643-0.289,1.974-0.591,1.974-0.591l6.336-3.514l0.835-0.167l1.823-0.96l0.377-0.446
            l2.944-1.496l0.33,0.027l3.98-2.291l0.054-0.322l1.566-0.965l0.373,0.393c0.434,0.036,15.604-9.919,21.931-15.468l0.393,0.146
            c7.388-5.979,17.434-15.403,20.413-18.982l-0.16-17.936l-0.252-0.219l-0.102-19.86h-0.577l-0.024-2.45
            c-3.267,1.21-6.861,4.245-7.104,4.118c-2.08-16.814-9.822-32.304-22.474-43.677l5.387-7.438l25.015,16.83l0.068-4.917h0.311
            c0.307-18.854,0.475-67.722,0.475-67.722l-0.247-0.024l-0.005-3.901l-12.786,8.164l-0.18,8.247
            c-5.669-1.852-9.259-8.661-10.448-14.73c-1.652,0.662-2.419,7.054-1.809,15.147c-1.752,1.046-2.874,2.188-3.947,3.573
            c1.388,1.748,2.929,3.182,4.627,4.648c-0.355,0.764-1.104,11.564-0.36,12.904c0.341,0.988,1.521,0.848,1.528-0.192
            c1.725-8.424,9.714-13.952,10.162-13.442l-0.195,38.84l-14.194-9.949c2.98-3.365,3.607-9.04-0.146-11.818
            c-3.765-2.784-7.449-0.422-8.32,1.349c-4.608-3.004-6.159-14.132-6.832-18.488c-0.168-2.119-0.711-4.997-1.339-7.594
            c-0.393-1.627-0.86-3.183-0.921-4.64c-0.026-0.687,0.055-0.983,0.679-1.843l13.8-19.579l-7.045-0.024l-0.068,0.122l5.542,0.014
            l-12.446,17.674c-18.724-5.883-38.138-7.305-58.907-3.573l-10.26-14.43l4.664-0.02L84.067,26.6H78.209z M89.036,26.765l0.198,0.354
            l8.063-0.023l-0.121-0.301C97.177,26.794,89.053,26.765,89.036,26.765z M100.993,26.809l0.154,0.427l5.503,0.019l-0.169-0.417
            L100.993,26.809z M129.086,26.959l-0.056,0.193l6.063,0.01l0.054-0.193L129.086,26.959z M110.506,26.964l0.059,0.247h14.627
            l0.054-0.233L110.506,26.964z M138.672,27.095l-0.058,0.203l12.626-0.01l0.106-0.193H138.672z M191.946,37.864l0.039,2.657
            l-8.48,5.392c-0.213,11.366-0.539,55.086-0.539,55.086l-2.031-1.333l0.397-54.747C181.331,44.918,188.835,40.096,191.946,37.864z
            M169.69,40.001h0.286l0.087,0.616h-0.494L169.69,40.001z M170.291,41.607l0.223,0.834l-1.241-0.005l0.208-0.805L170.291,41.607z
            M191.698,42.038v1.735l-7.317,4.572v-1.721L191.698,42.038z M169.113,43.483l1.915,0.024l0.32,0.96h-2.41L169.113,43.483z
            M122.118,43.997l1.28,0.191c2.932,6.996,3.689,13.005,4.199,19.257c1.169,8.114,3.527,16.248,5.169,19.705l-1.877-0.02
            c-0.217-0.028-4.178-11.775-5.004-18.711c-0.221-1.374-0.133-2.649-0.203-3.923C125.265,55.134,124.531,51.104,122.118,43.997z
            M124.524,44.28l1.634,0.167c1.142,4.969,2.806,9.658,3.481,14.649c1.081,7.983,1.658,16.137,5.509,24.006l-1.527-0.015
            c-2.337-5.319-3.782-10.869-4.713-16.868c-0.729-3.441-0.735-6.024-1.12-9.136C127.319,53.349,125.879,48.6,124.524,44.28z
            M127.006,44.511l1.635,0.242c1.074,4.934,2.92,10.363,3.408,14.823c0.995,9.082,2.42,17.544,5.285,23.55l-1.145-0.034
            c-4.426-8.572-4.496-16.21-5.736-24.243C129.724,54.117,128.176,49.386,127.006,44.511L127.006,44.511z M129.611,44.894l1.444,0.224
            c1.004,4.908,2.806,10.464,3.225,15.442c0.742,8.813,2.305,15.485,5.586,22.601l-1.354,0.024c-3.96-6.931-4.492-15.436-5.726-24.05
            C132.105,54.376,130.57,49.588,129.611,44.894z M191.698,44.904v2.148l-7.317,4.698v-2.119L191.698,44.904z M131.972,45.321
            l1.508,0.233c0.971,4.733,2.778,9.786,3.205,14.396c0.729,7.877,2.178,15.833,5.426,23.162l-1.392,0.087
            c-3.436-7.4-4.931-14.137-5.581-22.643C134.773,55.786,132.938,49.972,131.972,45.321z M171.823,45.345l0.523,1.275l-3.506,0.17
            l0.044-1.431L171.823,45.345z M134.454,45.791l1.794,0.349c1.9,7.552,2.398,14.701,3.692,21.879
            c1.618,8.918,3.322,13.401,4.715,15.063l-1.483,0.049c-3.621-7.722-4.904-15.398-5.746-23.352
            C136.93,55.087,135.391,50.463,134.454,45.791L134.454,45.791z M137.189,46.3l1.367,0.276c1.631,6.172,2.365,11.944,3.083,17.531
            c1.304,10.609,4.839,18.68,5.592,19.053l-1.508-0.068c-3.271-4.52-4.482-12.215-6.091-23.075
            C138.926,55.243,138.222,50.752,137.189,46.3z M139.39,46.741l1.532,0.378c0,0,1.381,5.43,2.425,12.636
            c0.869,6.006,1.326,17.822,7.854,24.617c3.259,3.393,8.999,6.339,12.917,3.137c1.674-1.426,2.752-3.713,1.746-6.157
            c-1.692-4.094-7.42-3.393-5.514,0.901c0.214,1.03-1.132,1.074-2.07,0.068c-0.985-1.074-0.739-2.3-0.041-3.426
            c1.474-2.374,5.417-2.617,7.731-0.497c3.698,3.622,2.098,9.837-2.585,11.807c-5.394,2.292-12.346-2.438-15.099-6.953
            c-4.554-7.863-5.26-15.329-6.327-23.269C141.417,55.696,140.371,51.194,139.39,46.741z M141.698,47.376l1.556,0.379
            c0.006,0.021,1.705,7.653,2.27,12.175c0.697,5.589,1.467,12.173,3.859,17.257c1.488,3.161,3.653,5.82,5.843,7.37
            c1.883,1.332,3.571,2.174,6.075,1.629c2.892-0.63,3.017-5.104,0.258-5.115c-1.41-0.006-0.492-1.363,0.679-1.401
            c4.157-0.138,4.278,6.417,0.363,7.879c-4.482,1.675-9.329-1.481-12.33-5.445c-5.251-8.154-5.044-15.592-6.197-22.168
            C143.766,56.471,141.815,47.539,141.698,47.376z M173.161,47.605l0.95,1.271l-5.28-0.024l0.024-1.208L173.161,47.605z
            M144.016,48.027l1.488,0.519c0.042,0,1.493,5.925,2.396,12.927c1.07,6.751,1.42,12.37,4.917,17.247
            c1.454,2.028,4.2,4.734,5.93,5.057c1.071,0.231,2.181-0.005,2.453-0.819c0.446-1.334,1.59-0.721,1.615,0.49
            c-0.006,0.847-0.627,1.726-1.678,2.031c-5.14,0.89-9.842-5.562-11.269-8.834c-1.933-4.76-2.76-10.078-3.598-16.699
            C145.915,57.142,144.22,48.204,144.016,48.027z M191.698,48.264l-0.024,2.139l-7.293,4.597v-2.08L191.698,48.264z M146.256,48.681
            l1.668,0.456c0,0,1.391,5.21,2.221,11.646c0.842,6.527,2.649,14.11,6.026,18.032c0.308,0.376,0.518,0.643,0.65,0.863
            c0.241,0.533-0.046,1.434-0.296,1.436c-6.018-3.132-7.44-15.714-7.957-19.968C147.807,54.568,146.256,48.681,146.256,48.681z
            M169.656,49.69l5.31,0.15l1.266,1.246l-7.03-0.063C168.458,50.257,168.92,50.345,169.656,49.69z M191.698,51.425v1.774
            l-7.317,4.636v-1.813L191.698,51.425z M169.84,51.988l7.768,0.136l2.725,1.62l-11.869-0.098L169.84,51.988z M191.698,54.238v2.129
            l-7.317,4.587v-1.998L191.698,54.238z M166.965,54.64l13.198,0.141l0.033,1.431l-14.313-0.369L166.965,54.64z M165.243,57.088
            l14.93,0.039l0.038,1.581l-13.576-0.131L165.243,57.088z M191.698,57.331v2.221l-7.317,4.533v-2.104L191.698,57.331z
            M168.051,59.658l11.443,0.054l-1.242,1.323l-8.63-0.087L168.051,59.658z M191.698,60.439v2.095l-7.317,4.602V65.07L191.698,60.439z
            M176.662,62.039l-1.387,1.348l-5.93-0.082l0.203-1.227L176.662,62.039z M191.698,63.508v2.245l-7.317,4.471V68.28L191.698,63.508z
            M169.263,64.327l4.893,0.107l-0.747,1.027l-4.281,0.02L169.263,64.327z M125.266,66.116c0.737,5.647,4.836,17.033,4.834,17.029
            l-1.614,0.015c0.08,0.108-2.931-7.172-4.015-14.032C124.339,68.473,124.786,66.266,125.266,66.116z M168.943,66.442l3.768,0.068
            l-0.819,1.454l-3.069-0.005L168.943,66.442z M191.698,66.786v1.963l-7.317,4.5V71.46L191.698,66.786z M168.822,68.774l2.497,0.078
            l-0.591,1.348l-1.935-0.058L168.822,68.774z M191.698,69.831v2.095l-7.317,4.538v-2.021L191.698,69.831z M123.724,70.277
            c0.735,4.113,3.854,12.375,4.093,12.918l-1.383,0.019c-0.062,0.188-3.243-7.407-3.583-10.657
            C122.688,71.875,123.048,70.529,123.724,70.277z M168.797,71.15l1.479,0.068l-0.252,0.771l-1.198,0.029L168.797,71.15z
            M168.928,73.002l0.771,0.02l-0.185,0.731h-0.479L168.928,73.002z M191.698,73.041v1.691l-7.317,4.631v-1.604L191.698,73.041z
            M121.891,73.225c1.11,3.298,2.22,6.657,3.535,9.872l-1.639-0.039c-1.086-2.318-1.85-4.924-2.696-7.481
            C120.858,74.51,121.355,73.596,121.891,73.225L121.891,73.225z M120.257,75.426l2.725,7.613h-1.547
            c-0.636-1.531-1.353-3.243-1.854-4.819C119.068,76.585,119.115,76.531,120.257,75.426L120.257,75.426z M191.698,75.902v2.008
            l-7.317,4.528v-1.731L191.698,75.902z M119.117,78.847l1.493,4.216l-1.91-0.048c-0.56-1.327-0.902-2.486-1.043-3.778
            c-0.052-0.627-0.166-1.252,0.272-1.516C118.792,77.233,118.695,77.635,119.117,78.847z M117.087,80.573l0.794,2.472L116.097,83
            c-0.524-1.168-0.726-2.009-0.567-3.231C116.603,78.531,116.683,79.178,117.087,80.573z M191.698,79.121v2.1l-7.317,4.397v-1.949
            L191.698,79.121z M114.555,80.629l0.747,2.434l-1.61-0.038c-0.267-0.571-0.097-1.267-0.106-1.91L114.555,80.629z M112.446,81.875
            c0.023,0.001,0.044,0.007,0.054,0.02c0.229,1.077,0.005,1.145,0.02,1.135l-2.25-0.015C110.269,83.015,112.093,81.858,112.446,81.875
            z M191.698,82.505v1.678l-7.317,4.563v-1.702L191.698,82.505z M104.698,85.162l43.968,0.126l1.465,2.07c0,0-4.277,0.117-18.29,0.029
            c-11.795,0.152-35.497-0.252-35.497-0.252l2.308-1.086C101.843,85.975,104.742,85.146,104.698,85.162z M191.698,85.41v1.847
            l-7.317,4.432V89.9L191.698,85.41z M67.974,87.183c-3.536,1.566-6.835,1.952-9.301,1.752c-5.309-0.43-13.432,1.79-15.064,6.891
            c-0.513,1.801-0.519,1.851,0.456,2.769c0.483,0.455,0.952,0.8,1.042,0.766c0.854-0.758,1.986-2.164,3.2-2.574
            c1.596-0.482,2.461-0.549,5.076-0.665c5.637-0.249,6.909-0.486,8.312-0.857c3.085-0.817,6.196-3.852,6.383-7.233
            C68.099,87.643,67.974,87.183,67.974,87.183L67.974,87.183z M67.823,87.646c-0.595,7.054-8.237,7.973-11.593,7.771
            c-6.806-0.407-9.486,1.625-10.563,2.887c-0.355,0.338-0.562,0.258-0.506-0.05c0.79-3.905,7.102-4.053,10.279-4.01
            c7.786,0.354,9.759-3.399,9.538-3.437c-0.591,0.266-1.028,0.498-1.627,0.782c-0.258,0.107-0.203-0.05-0.877-0.439
            c-0.011,0.051-0.779,1.797-1.773,0.141c0.025,0.083-0.708,1.471-2.066,0.174c0.01,0.14-0.819,1.329-2.147,0.112
            c-1.248,1.069-1.843,0.481-2.379-0.271c-0.394,0.236-1.551,1.798-2.515,0.117c-1.028,0.654-1.456,1.362-2.341,0.935
            c-2.063,0.369-3.85,2.486-4.577,4.427c-0.227,0.666-0.686,0.771-0.741,0.038c-0.245-2.023,3.085-5.528,6.429-6.497
            c2.6-0.753,4.372-1.296,10.087-1.078C63.698,89.372,67.823,87.646,67.823,87.646z M151.236,88.179l2.061,1.396l-35.866,49.452
            l-3.166-0.083L151.236,88.179z M93.7,88.212h4.078v6.74h-3.516l-1.256-1.867c0.325,0.191,0.702,0.306,1.105,0.306
            c1.207,0,2.187-0.98,2.187-2.187c0-1.207-0.979-2.182-2.187-2.182c-1.206,0-2.187,0.975-2.187,2.182
            c0,0.107,0.009,0.212,0.024,0.315l-1.314-1.949c0,0,0.559-0.333,1.892-0.927C92.871,88.49,93.7,88.212,93.7,88.212z M106.269,88.212
            h6.909v6.74h-6.909V88.212z M121.406,88.212h7.151v6.784l-7.151-0.044V88.212z M136.849,88.212h7.147v6.74h-7.147V88.212z
            M191.591,88.372l0.107,2.104l-7.317,4.446v-2.08L191.591,88.372z M140.161,89.071c-1.277,0-2.318,1.031-2.318,2.309
            c0,1.276,1.041,2.312,2.318,2.312c1.276,0,2.312-1.036,2.312-2.312C142.474,90.102,141.438,89.071,140.161,89.071z M109.74,89.192
            c-1.277,0-2.313,1.031-2.313,2.309c0,1.276,1.036,2.312,2.313,2.312c1.276,0,2.312-1.036,2.312-2.312
            C112.053,90.223,111.017,89.192,109.74,89.192z M124.81,89.236c-1.276,0-2.312,1.031-2.312,2.308c0,1.277,1.036,2.313,2.312,2.313
            c1.277,0,2.312-1.036,2.312-2.313C127.122,90.267,126.087,89.236,124.81,89.236z M132.597,89.512c1.071,0,1.939,0.868,1.939,1.939
            s-0.868,1.939-1.939,1.939s-1.939-0.868-1.939-1.939S131.526,89.512,132.597,89.512z M101.939,89.541
            c1.071,0,1.939,0.868,1.939,1.939s-0.868,1.939-1.939,1.939s-1.939-0.868-1.939-1.939S100.867,89.541,101.939,89.541z
            M147.895,89.609c0.461,0,0.88,0.176,1.197,0.461l-2.113,2.87c-0.523-0.312-0.873-0.883-0.873-1.537
            C146.106,90.413,146.905,89.609,147.895,89.609z M117.532,89.618c1.071,0,1.939,0.868,1.939,1.939s-0.868,1.939-1.939,1.939
            c-1.072,0-1.94-0.868-1.94-1.939S116.46,89.618,117.532,89.618z M94.113,89.759c0.799,0,1.445,0.646,1.445,1.445
            s-0.646,1.449-1.445,1.449s-1.449-0.65-1.449-1.449S93.314,89.759,94.113,89.759z M89.676,89.837
            c12.322,15.691,18.87,31.601,21.751,48.938l-2.065-0.097c-3.424-18.855-11.133-35.028-21.586-48.08L89.676,89.837z M140.161,89.852
            c0.845,0,1.532,0.682,1.532,1.527c0,0.845-0.688,1.532-1.532,1.532c-0.846,0-1.532-0.688-1.532-1.532
            C138.629,90.533,139.316,89.852,140.161,89.852z M109.74,89.973c0.845,0,1.532,0.682,1.532,1.527c0,0.845-0.688,1.532-1.532,1.532
            c-0.846,0-1.532-0.688-1.532-1.532C108.208,90.655,108.895,89.973,109.74,89.973z M124.81,90.016c0.845,0,1.532,0.683,1.532,1.527
            c0,0.846-0.688,1.532-1.532,1.532s-1.532-0.687-1.532-1.532C123.278,90.698,123.965,90.016,124.81,90.016z M163.154,91.113
            c0.812,6.21-0.791,10.221-5.527,10.87c-6.039,0.829-6.822,1.284-6.856,7.002c-0.04,6.777-1.042,8.734-5.843,9.271
            c-5.4,0.603-6.656,1.242-6.172,7.957c0.354,4.899-1.578,6.984-5.736,7.894c-3.252,0.711-6.067,1.8-7.273,5.076l-2.972,0.039
            c0.771-5.161,5.96-7.626,9.285-7.797c3.585-0.85,4.334-2.052,3.753-8.335c-0.438-4.73,1.299-6.167,6.856-7.248
            c4.442-0.876,5.531-2.151,5.289-5.785c-0.519-7.791-0.006-8.963,4.423-9.91c2.256-0.535,5.931-0.774,7.331-2.498
            c1.593-1.96,1.187-3.628,1.042-6.036L163.154,91.113z M191.698,91.321v2.036l-7.317,4.515v-1.983L191.698,91.321z M84.158,92.528
            c-1.565,6.755,3.814,8.224,7.089,9.363c3.809,1.326,4.733,3.248,4.301,9.959c-0.327,5.077,0.232,6.199,3.52,7.942
            c5.029,2.595,6.38,6.282,4.146,11.681c-1.378,3.328-0.654,4.262,0.218,7.166l-2.438-0.023c-0.179,0.056-2.237-3.624-0.48-7.584
            c2.082-4.692,2.023-7.048-2.618-9.159c-3.591-1.634-4.693-3.174-4.917-6.536c-0.094-1.415-0.084-2.12,0.248-5.197
            c0.417-3.88-0.966-5.549-6.701-7.681c-2.556-0.95-4.292-3.16-4.815-6.667c-0.146-0.981-0.014-2.114-0.014-2.114L84.158,92.528z
            M169.942,93.26l21.814,14.513l-0.15,3.229l-23.143-15.462L169.942,93.26z M155.885,93.58c1.056,0,1.911,0.855,1.911,1.91
            s-0.855,1.91-1.911,1.91c-1.055,0-1.909-0.855-1.91-1.91C153.975,94.436,154.83,93.58,155.885,93.58z M87.256,94.414
            c0.958,0,1.731,0.773,1.731,1.73c0,0.958-0.773,1.736-1.731,1.736s-1.734-0.778-1.735-1.736
            C85.521,95.188,86.298,94.414,87.256,94.414z M191.635,94.617l-0.072,1.944l-7.182,4.441v-1.944L191.635,94.617z M77.797,95.976
            c6.596,8.598,13.08,17.456,18.08,34.149l-2.133,0.819c-4.128-13.436-10.479-24.598-17.965-33.83L77.797,95.976z M95.027,95.893
            h49.697l-1.275,1.717L95.97,97.124L95.027,95.893z M191.698,97.507v2.129l-5.504,3.351l-1.619-1.057L191.698,97.507z M74.878,97.736
            l0.975,1.28c0,0-1.056,0.828-2.25,1.683c-3.254,2.327-3.677,2.592-3.894,4.106c-0.515,3.599,3.185,5.373,6.899,3.292
            c1.332-0.608,4.253-2.458,4.253-2.458l0.838,1.236c0,0-4.186,3.132-6.643,3.845c-5.389,1.566-9.413-5.264-5.431-9.319
            c0.609-0.619,1.896-1.452,2.919-2.113C73.596,98.609,74.878,97.736,74.878,97.736z M97.061,98.584l45.791,0.271l-29.242,39.968
            l-1.3-0.072C110.043,123.801,104.421,110.74,97.061,98.584z M77.094,100.277l2.676,3.738c0,0-1.745,1.668-4.625,3.243
            c-2.311,1.264-4.809-1.033-3.355-3.103C73.281,102.1,77.094,100.277,77.094,100.277z M191.698,100.659v1.949l-3.172,1.944
            l-1.449-0.927L191.698,100.659z M76.759,102.157c-1.27,0.067-3.375,1.507-4.093,2.749c-0.308,0.534-0.197,0.981,0.088,1.349
            c0.433,0.557,0.945,0.525,2.468-0.286c3.109-1.657,3.692-2.642,2.322-3.612c-0.188-0.135-0.415-0.194-0.669-0.199
            C76.836,102.156,76.8,102.156,76.759,102.157z M76.657,102.957c0.201-0.019,0.433,0.042,0.625,0.024
            c0.538,0.221,0.373,0.89-0.188,1.047c-0.124-0.194-1.057-0.221-0.994,0.728c-0.228,0.538-0.218,0.496-0.902,0.572
            c-0.453-0.109-0.755,0.204-0.844,0.402c-0.472,0.253-1.051,0.174-1.158-0.111c-0.104-0.276,0.283-1.073,0.61-1.071
            c0.158,0.013,0.438-0.223,0.728-0.417c-0.01-0.519,0.6-0.594,0.775-0.592c0.174,0.036,0.757,0.044,1.038-0.432
            C76.427,103.008,76.536,102.969,76.657,102.957L76.657,102.957z M191.698,103.423v3.006l-2.299-1.469L191.698,103.423z
            M64.642,103.801c8.34,9.848,14.346,20.328,18.169,34.833l-1.673,1.154c-2.527-10.17-6.417-20.916-17.926-34.887L64.642,103.801z
            M162.213,103.966c3.775,3.207,19.249,17.771,22.197,43.619l-2.07,1.271c-1.663-13.644-7.029-29.285-21.465-43.149L162.213,103.966z
            M154.751,104.863c1.055,0,1.91,0.855,1.91,1.911c0,1.055-0.855,1.91-1.91,1.91c-1.056,0-1.911-0.855-1.911-1.91
            C152.84,105.718,153.696,104.863,154.751,104.863z M62.32,105.61c0,0,1.753,1.802,1.75,2.23c-0.005,0.849-0.68,1.33-4.708,2.798
            c-0.68,0.248-3.655,0.934-3.655,0.934l-0.108-1.443c1.519-0.548,5.594-1.524,5.893-2.39c0.146-0.341-0.58-1.202-0.427-1.202
            L62.32,105.61z M90.105,105.977c0.958,0,1.73,0.778,1.73,1.735c0,0.958-0.772,1.736-1.73,1.736s-1.736-0.778-1.736-1.736
            C88.368,106.755,89.147,105.977,90.105,105.977z M160.298,106.473c12.605,12.313,19.543,27.528,21.164,43.241
            c-14.681,11.939-24.654,26.95-28.617,45.728c-1.958-3.264-3.624-7.018-5.436-10.687c19.59-17.214,23.712-48.216,6.77-69.947
            L160.298,106.473z M83.203,108.82l0.882,1.367c0,0-0.184,0.168-2.929,1.872c-4.014,2.492-4.676,4.116-3.336,6.667
            c1.371,2.607,2.898,2.746,7.211,0.659c1.522-0.737,2.816-1.513,2.816-1.513l0.688,1.431c0,0-1.93,1.57-5.648,2.933
            c-3.497,1.282-6.803-0.901-7.424-4.94c-0.452-2.936,0.829-4.51,5.931-7.404C81.968,109.587,83.203,108.82,83.203,108.82z
            M143.269,109.469c1.056,0,1.91,0.855,1.911,1.911c0,1.055-0.855,1.91-1.911,1.91c-1.055,0-1.91-0.855-1.91-1.91
            C141.359,110.324,142.214,109.469,143.269,109.469z M65.369,109.542l1.154,1.088c0,0-0.498,0.731-3.341,2.442
            c-2.556,1.537-2.818,1.288-1.546,2.363c2.372,2.004,5.662,6.44,5.645,7.587c-0.017,1.104-1.006,2.123-2.902,2.977
            c-1.039,0.467-5.148,1.933-5.753,2.038c-1.199,0.131-1.538,0.612-0.337,1.703c2.039,2.339,3.778,7.344,3.079,8.87
            c-0.788,1.72-1.732,2.01-9.284,2.356c-0.86,0.039-1.271-0.204-0.805,0.896c0.339,0.8,0.693,1.899,1.367,5.295
            c0.6,3.028,0.497,4.39-0.679,5.014c-0.676,0.358-5.928,0.232-8.098-0.194c-2.483-0.487-2.754-0.521-2.352,1.096
            c0.521,2.233,0.846,8.218-0.844,9.373c-0.703,0.457-1.459,0.345-4.543-0.693c-1.967-0.662-3.671-1.421-3.671-1.421l0.034-1.856
            c1.604,0.659,5.999,2.558,7.249,1.958c1.482-2.123-0.576-9.571-1.362-11.166c-0.95-1.904,0.043-2.32,2.23-1.14
            c1.147,0.809,11.036,4.708,10.474,1.22c-0.603-3.31-1.678-7.077-3.764-9.443c-1.929-2.188-0.969-3.083,1.178-2.123
            c3.8,1.697,11.651,1.281,11.26-0.479c-0.517-2.862-3.117-6.741-6.675-9.749c-0.99-0.837-1.027-1.195,0.14-1.4
            c3.324-0.265,12.835-1.242,11.506-3.475c-1.141-1.828-2.665-3.849-3.963-4.937c-2.131-1.786-4.28-2.562-5.232-2.934l0.061-1.369
            C59.928,113.08,62.18,111.776,65.369,109.542z M54.882,110.89c-1.554,16.283-8.365,29.699-22.426,39.057l-0.077-1.823
            c12.361-9.285,18.295-22.481,19.903-35.25L54.882,110.89z M84.837,111.913c0.006,0,0.009,0.002,0.01,0.005
            c0,0,2.262,4.067,2.259,4.437c-1.342,1.244-4.866,3.065-6.308,2.638c-2.224-0.709-2.571-3.081-0.437-4.48
            c1.844-1.343,4.142-2.512,4.451-2.594C84.823,111.915,84.831,111.913,84.837,111.913L84.837,111.913z M66.82,111.659l1.156,1.037
            c0,0-0.298,0.451-1.962,1.781c-1.295,0.997-0.843,0.604,0.039,1.789c0.785,0.941,2.182,2.832,2.182,2.832l-0.417,2.517
            c-1.463-2.084-2.677-3.601-4.849-5.828c-1.103-1.137-1.041-1.168,0.533-1.988C64.683,113.147,65.644,112.354,66.82,111.659z
            M98.384,113.281c0.958,0,1.73,0.773,1.731,1.73c0,0.958-0.773,1.736-1.731,1.736c-0.957,0-1.735-0.778-1.735-1.736
            C96.649,114.055,97.427,113.281,98.384,113.281z M84.362,113.426c-1.651,0.436-3.271,1.91-4.18,2.56
            c-0.331,0.237-0.07,1.425,0.248,1.833c0.408,0.524,1.16,0.438,2.061-0.062c0.377-0.21,1.06-0.552,1.513-0.762
            c1.27-0.586,1.802-1.023,1.755-1.513C85.555,114.824,85.035,113.378,84.362,113.426z M84.454,114.177
            c0.464,0.02,0.798,0.617,0.649,0.971c-0.796,0.43-1.237,0.065-1.135,0.669c0,0,0.079,0.938-1.086,0.96
            c-0.284-0.124-0.778-0.103-1.019,0.141c-0.814,0.337-1.525-0.376-0.64-0.781c0.239-0.109,0.831-0.294,0.994-0.659
            c0.084-0.452,0.458-0.813,0.867-0.562c0.219,0.016,0.706,0.05,0.863-0.296c-0.06-0.388,0.216-0.421,0.412-0.437
            C84.394,114.178,84.423,114.176,84.454,114.177z M51.127,114.057c0.356,1.827-0.746,5.037-1.37,6.846
            c-3.698,4.837-9.061,7.311-14.158,8.999c-1.133,0.376-2.655,0.187-2.655,0.187C39.998,122.83,46.047,117.511,51.127,114.057
            L51.127,114.057z M38.241,115.7c0.05-0.407-1.81-0.9-1.988-0.646c-0.344,0.322-0.89,5.363-0.533,5.727
            c0.495,0.504,1.863,0.643,1.993,0.042C38.141,118.845,38.036,117.368,38.241,115.7z M69.86,115.55l1.207,1.498
            c-2.558,24.295-19.912,45.312-38.44,53.646l-0.054-1.61C53.769,157.951,66.526,139.415,69.86,115.55z M153.718,115.652l2.298,3.161
            l-3.292,0.102L153.718,115.652z M37.628,116.239c-0.02,0.831-0.114,2.557-0.435,3.52c-0.2,0.75-0.78,0.579-0.999-0.111
            c-0.228-0.718-0.037-2.757,0.393-3.593C37.045,115.267,37.409,115.399,37.628,116.239z M55.165,116.68
            c1.137,0,7.174,3.715,6.367,5.565c-0.643,1.473-5.695,1.592-8.012,1.386l0.349-1.419c0,0,0.706,0.246,3.397-0.039
            c2.827-0.188,2.62-1.159-0.62-3.21c-1.395-0.873-1.718-1.088-1.718-1.088L55.165,116.68z M71.896,118.672
            c1.87,3.153,3.641,6.706,5.305,10.687c-22.825,21.538-21.054,50.87-6.662,70.122l-6.202,8.369
            c-12.399-11.831-19.15-26.386-21.431-41.845C61.004,152.984,69.509,133.552,71.896,118.672L71.896,118.672z M156.656,119.627
            l1.362,2.604l-3.272-0.054L156.656,119.627z M142.523,120.932c1.055,0,1.91,0.855,1.91,1.91s-0.855,1.905-1.91,1.905
            c-1.056,0-1.91-0.851-1.911-1.905C140.612,121.787,141.467,120.932,142.523,120.932z M89.414,121.446l0.649,1.479
            c0.03,0.185-4.618,1.652-6.114,3.539c-1.382,1.742-1.252,3.561-0.475,4.814c1.325,1.788,2.265,2.038,4.499,1.354
            c1.823-0.56,3.162-1.313,4.971-2.235l0.286,0.746c0.002-0.039-2.596,1.526-4.578,2.643c-0.743,0.42-1.639,0.596-2.414,0.577
            c-4.509-0.108-6.899-5.927-3.181-9.362c0.544-0.504,2.387-1.513,3.937-2.313C88.027,122.155,89.414,121.446,89.414,121.446z
            M149.107,122.363c14.887,21.472,4.695,45.002-4.916,53.326l-0.258-2.526c16.185-18.436,10.556-39.965,3.812-49.535L149.107,122.363
            z M158.688,123.327l1.169,2.652l-3.457-0.364L158.688,123.327z M98.683,124.196c0.957,0,1.735,0.778,1.735,1.736
            c0,0.957-0.778,1.73-1.735,1.73c-0.958,0-1.73-0.773-1.731-1.73C96.951,124.974,97.725,124.196,98.683,124.196z M147.332,124.534
            c13.048,18.955,5.771,49.181-19.118,58.389l-0.126-2.119c25.377-10.609,27.87-38.854,17.673-54.791L147.332,124.534z
            M90.772,124.651l1.648,4.451c-2.074,1.39-2.888,1.626-5.212,2.191c-1.832,0.419-3.259-2.748-1.853-3.961
            C86.961,125.948,88.691,125.349,90.772,124.651z M48.452,124.665c0.307-0.015-0.018,0.745-0.805,2.652
            c-1.735,4.202-1.852,4.292-6.221,4.984c-2.274,0.36-3.97,0.451-5.586,0.296c-2.438-0.234-3.48-0.924-1.9-1.256
            c4.581-1.007,9.646-3.38,12.94-5.678C47.74,125.048,48.242,124.675,48.452,124.665z M131.387,125.183
            c1.186,0,2.148,0.963,2.148,2.147s-0.963,2.144-2.148,2.144c-1.185,0-2.143-0.959-2.143-2.144S130.202,125.183,131.387,125.183z
            M66.524,125.777l-0.184,1.653c0,0-2.647,1.397-3.9,1.926c-0.958,0.388-1.023,0.474-0.717,1.36c0.62,1.773,1.813,3.972,1.813,3.972
            l-1.105,2.506c-0.676-2.254-1.386-4.635-2.628-6.734c-1.177-1.642-1.396-1.847,0.436-2.189
            C62.605,127.473,64.446,126.897,66.524,125.777z M90.161,126.314c-1.296,0.057-3.999,1.146-4.268,2.187
            c-0.151,0.589,0.017,1.411,0.515,1.596c1.346,0.5,4.048-0.608,4.761-1.619c0.223-0.312-0.115-0.959-0.354-1.363
            C90.634,126.806,90.668,126.291,90.161,126.314z M90.229,127.201c0.023-0.003,0.045-0.002,0.068,0
            c0.219-0.02,1.018,0.991,0.121,0.906c-0.31-0.029-0.591,0.086-0.844,0.35c-0.031,0.485-0.727,0.669-1.062,0.504
            c-0.249-0.123-0.6,0.131-0.635,0.281c-0.504,0.363-1.141,0.346-1.222,0.087c-0.171-0.181,0.338-0.924,0.78-0.896
            c0.096,0.006,0.409-0.206,0.703-0.461c0.141-0.507,0.676-0.419,1.014-0.393C89.535,127.733,89.885,127.236,90.229,127.201z
            M160.326,127.279l0.956,2.657l-3.419-0.306L160.326,127.279z M145.634,130.34c-0.708,0.901-1.359,0.911-2.392,0.863
            c0.846,1.001,1.219,2.384,0.396,3.29c-1.252,1.276-3.666-0.679-3.486-0.858l4.331-5.771
            C145.631,128.19,146.268,129.264,145.634,130.34L145.634,130.34z M51.578,128.835c0,0,5.265,4.535,5.303,6.567
            c0.015,0.774-0.234,1.025-0.854,1.23c-2.068,0.686-7.824-1.077-7.824-1.077l0.74-1.404c0.905,0.25,5.365,1.404,5.749,0.837
            c0.398-0.59-3.726-4.612-3.734-4.617L51.578,128.835z M77.709,130.731l0.631,2.192l-2.153-0.534L77.709,130.731z M161.781,131.123
            l0.562,3.031l-3.447-0.806L161.781,131.123z M96.062,131.172l0.514,1.779c-22.868,10.604-29.545,34.956-17.62,55.053l-1.348,1.853
            C61.645,163.99,77.812,137.739,96.062,131.172z M75.459,133.034l0.311,2.7l-2.657-0.155L75.459,133.034z M43.989,132.963
            c0.452,0.007,0.538,0.25,0.536,0.517c-0.002,0.364-2.309,3.312-3.057,3.975c-1.622,0.654-7.88-1.96-8.813-3.982
            c-0.185-0.593,0.434-0.332,1.819-0.05C37.984,134.423,41.541,133.048,43.989,132.963L43.989,132.963z M104.913,132.998
            c0.958,0,1.735,0.773,1.735,1.73c0,0.958-0.777,1.736-1.735,1.736s-1.731-0.778-1.731-1.736
            C103.182,133.772,103.955,132.998,104.913,132.998z M32.879,135.132c1.74,1.563,4.298,2.858,6.566,3.31
            c1.412,0.311,1.002,0.456-0.308,1.809c-1.225,1.279-1.124,1.441-2.371,0.81c-2.081-1.056-4.344-3.453-4.253-4.758
            C32.552,135.759,32.647,135.129,32.879,135.132z M162.771,135.425l0.432,2.88l-3.259-1.13L162.771,135.425z M72.221,136.462
            l1.062,2.579l-2.89-0.082L72.221,136.462z M145.659,138.925c-0.002,0.361-0.087,0.97-0.087,0.97
            c1.699-1.081,3.955-0.193,3.889,1.555c-0.095,2.464-1.299,2.486-3.269,2.16c1.078,1.787-0.201,3.509-2.228,2.85
            c-1.848-0.601-1.491-2.549-0.628-3.703c-4.358,0.71-5.523,6.909-0.49,8.752c-1.012-1.566-1.263-3.436,0.933-3.75
            c2.038-0.292,2.901,1.254,2.021,3.113c1.915-0.665,3.721,0.432,3.144,2.298c-0.696,2.252-2.698,2.097-3.881,0.725
            c0.849,2.041-1.115,3.513-2.596,2.722c-2.336-1.247-1.182-3.473,0.384-4.065c-6.014-0.619-7.409,7.697-2.977,8.884
            c-1.138-0.714-1.267-3.989,1.331-3.54c2.552,0.513,1.945,2.883,0.309,3.961c1.976-0.422,3.825,1.305,2.623,3.05
            c-1.417,2.058-3.371,0.591-4.098-0.81c0.229,1.878-0.966,3.073-2.503,2.369c-2.638-1.209-0.688-4.235,1.374-4.042
            c-4.185-2.472-9.873,2.713-6.521,7.007c-0.131-1.95,0.841-3.551,2.181-3.33c1.18,0.133,2.211,1.477,1.879,2.533
            c-0.309,0.9-1.336,1.593-2.411,1.81c3.199,0.355,3.472,2.618,2.146,3.734c-2.252,1.894-3.298-0.293-3.819-1.571
            c-0.458,3.178-4.205,2.097-4.335-0.199c-0.128-2.516,2.775-2.464,3.312-2.322c0.067-0.087-2.246-2.377-4.716-2.703l0.016-1.459
            c9.737-6.106,13.085-16.768,9.995-26.875l0.587-0.674c1.587,1.213,3.181,3.814,6.117,2.86c0,0-0.684-0.481-1.021-0.813
            c-1.512-1.49-0.662-3.244,1.44-3.341C145.121,137.015,145.651,138.067,145.659,138.925z M79.606,138.92l1.008,1.479
            c-14.765,17.297-12.073,37.088-3.583,50.188l-1.236,1.494C68.28,182.448,62.145,159.092,79.606,138.92z M92.188,141.311
            c-0.02,0.386,0.008,0.695,0.008,0.695s0.317-0.395,0.575-0.868c1.261-2.107,3.975-0.895,3.528,1.525
            c-0.209,1.136-2.122,1.579-2.643,1.255c0.496,1.353,1.838,1.671,3.473,2.256c0.571,0.109,1.551,0.388,1.551,0.388l0.039,0.917
            c-8.856,5.579-13.87,15.039-10.623,27.977l-0.979,1.324c-1.787-4.298-3.416-4.203-6.354-4.372c0,0,0.73,0.516,1.15,1.012
            c0.891,1.053,0.496,2.888-0.737,3.079c-2.855,0.442-2.884-1.581-2.507-2.953c0,0-0.511,0.429-0.761,0.592
            c-1.133,0.736-2.545-0.028-2.677-1.488c-0.124-1.375,0.346-2.264,1.76-2.435c0.476-0.058,1.208,0.063,1.208,0.063
            s-0.282-0.54-0.437-0.844c-0.677-1.328,0.809-2.465,2.172-2.179c2.153,0.52,1.983,2.376,0.737,3.836
            c3.339,0.25,5.089-1.932,4.843-4.099c-0.301-2.644-1.517-4.073-4.144-4.534c0,0,0.424,0.665,0.605,0.987
            c0.672,1.192-0.294,2.655-1.707,2.647c-1.449-0.009-2.377-1.337-1.818-2.647c0.136-0.319,0.679-0.72,0.597-0.757
            c-0.058-0.025-0.804,0.206-1.009,0.238c-1.741,0.271-2.858-1.26-2.129-2.788c0.518-1.083,2.071-1.375,3.2-0.844
            c0.18,0.065,0.397,0.317,0.432,0.262c0.033-0.054-0.114-0.409-0.16-0.659c-0.357-1.401,0.315-2.148,1.833-2.052
            c2.124,0.137,2.916,1.867,1.488,3.429c-0.368,0.402-0.935,0.998-0.935,0.998c0.07,0.307,3.03,0.53,4.542-1.052
            c1.75-1.831,2.025-5.653,0.267-6.899c-0.29-0.206-0.873-0.615-0.873-0.615c0.838,1.679-0.704,3.612-2.063,3.251
            c-2.72-0.655-2.484-2.882-0.695-3.585c0,0-1.814-0.678-2.337-1.408c-0.738-1.031-0.489-1.982,0.396-2.708
            c1.116-0.896,2.702-0.31,3.468,0.798c0.462-1.408,1.113-2.359,3.04-1.593c1.348,0.643,1.336,2.44-0.147,3.42
            c-0.475,0.313-1.321,0.605-1.321,0.605s1.275,0.727,2.827,0.744c2.993,0.033,5.362-3.495,4.155-6.192
            c-0.245-0.548-0.856-1.254-0.856-1.254s-0.066,0.942-0.253,1.305c-0.691,1.345-2.282,1.369-3.222,0.521
            c-0.854-0.771-0.604-1.802,0.058-2.505c0.503-0.533,0.956-0.638,1.658-0.965c-0.797-0.27-1.685-0.463-2.072-1.288
            c-0.36-0.786-0.107-1.754,0.849-2.354C90.912,138.597,92.265,140.123,92.188,141.311z M32.811,139.135
            c1.22,0.704,2.033,1.767,3.171,2.694c0.879,0.713,0.869,0.84,0.143,1.518c-1.636,1.576-2.554-0.706-3.082-1.64
            C32.395,140.458,32.327,139.182,32.811,139.135z M163.536,139.571l0.204,3.05l-3.399-1.305L163.536,139.571z M69.869,139.749
            l1.222,2.773l-3.156-0.014L69.869,139.749z M135.826,139.754c2.967,10.965-1.205,18.836-9.121,25l-0.877-1.148
            c6.187-5.257,10.817-11.452,8.771-22.489L135.826,139.754z M99.461,139.803l34.799,0.64l-1.042,1.833l-2.711,0.015l-5.377,9.504
            l-25.01-0.005L99.461,139.803z M48.544,147.734c-1.214,1.916-8.442-2.208-8.348-2.425l0.906-0.872
            c1.147,0.466,4.721,2.437,5.512,2.125c0.276-1.793-1.83-4.116-2.624-5.661l0.885-1.109
            C44.875,139.791,49.459,145.726,48.544,147.734L48.544,147.734z M60.405,140.758l-1.203,2.176c-1.127,0.346-4.526,0.406-4.8,0.632
            c0.41,1.115,0.861,4.391,0.861,4.391l-1.34,1.713c-0.357-2.107-0.953-4.771-1.48-6.725c-0.45-1.656-0.324-1.292,3.205-1.565
            C57.23,141.289,58.861,141.089,60.405,140.758z M67.541,143.381l1.431,2.541l-2.899,0.029L67.541,143.381z M32.694,143.551
            c0.158-0.064,1.056,0.94,1.21,1.231c-0.065,0.66-1.09,1.021-1.248,0.785c-0.064-0.095-0.083-1.577,0.02-1.987
            C32.679,143.565,32.684,143.555,32.694,143.551z M163.963,143.585l-0.029,3.181l-3.447-1.527L163.963,143.585z M191.334,144.303
            l-0.049,2.061c-12.501,6.105-31.147,22.498-36.467,51.9l-1.091-1.202C159.043,168.989,177.391,152.39,191.334,144.303z
            M65.582,147.139l1.557,2.342l-2.807,0.306L65.582,147.139z M164.031,148.036l-0.276,2.816l-3.395-1.881L164.031,148.036z
            M98.724,148.622c0.013,0.669,0.07,1.151,0.111,1.818c-7.703,4.987-10.307,12.835-9.023,22.712l-1.066,1.576
            C86.239,165.774,88.769,154.739,98.724,148.622z M188.037,149.204c0.785,0.461,3.33,1.211,3.33,1.211l-0.028,1.873l-5.241-1.881
            L188.037,149.204z M37.439,157.173c-1.127,0.92-3.728-0.61-4.909-1.233l-0.034-1.581c0,0,0.901,0.462,1.809,0.824
            c1.864,0.827,1.869-0.157,0.848-2.918c-0.359-0.971-0.715-2.094-0.715-2.094l1.228-1.162
            C35.664,149.009,38.598,155.616,37.439,157.173z M63.755,151.246l2.007,2.099l-2.798,0.641L63.755,151.246z M186.113,151.498
            c1.776,0.002,5.202,1.444,5.202,1.444l-0.022,2.078c-1.739-0.504-3.76-1.471-5.599-1.741c-1.453-0.201-1.367,0.612-1.375,2.665
            c-0.011,2.78,0.688,5.292,2.017,8.073c1.102,2.303,0.528,2.919-1.271,1.891c-3.236-2.221-10.134-3.897-11.195-2.604
            c-1.092,1.328,1.059,7.947,3.544,11.104c1.011,1.282,1.073,1.488,0.602,1.988c-0.382,0.404-1,0.429-2.09,0.082
            c-3.586-1.142-8.775-1.398-10.271-0.432c-1.483,0.96,2.379,7.587,5.621,9.727c2.103,1.5,1.696,2.246-1.702,2.322
            c-5.55,0.026-9.818,1.264-9.581,2.778c0.402,2.575,3.996,6.106,8.121,7.981c2.525,1.031,1.469,1.441-0.209,2.037
            c-2.807,0.948-5.504,2.465-8.146,3.883l-1.27-1.624c0,0,2.657-1.688,5.547-3.312c0.677-0.381,0.643-0.52-0.306-1.314
            c-3.078-2.58-5.337-5.46-5.809-7.399c-0.459-1.884,0.48-3.072,3.277-4.136c1.728-0.656,2.364-0.851,3.889-1.192
            c2.197-0.493,2.234-0.561,1.295-2.25c-0.422-0.758-1.111-2.008-1.532-2.778c-3.273-5.598-1.548-7.619,6.051-7.733
            c1.866-0.099,2.222-0.104,2.119-0.748c-0.404-2.637-1.57-5.665-1.405-7.9c0.348-3.369,3.814-4.185,9.905-2.664
            c1.41,0.353,1.509,0.281,1.261-0.858C181.602,155.735,182.83,151.106,186.113,151.498z M163.76,151.857l-0.533,3.269l-3.244-2.158
            L163.76,151.857z M42.449,152.628l8.946,0.586l-1.421,1.668l-5.406-0.102l-0.204,4.616l-1.73,1.483L42.449,152.628z
            M100.431,152.982h7.365l-0.059,7.787h-7.341L100.431,152.982z M109.206,152.982h6.856v7.787l-6.798,0.072L109.206,152.982z
            M117.415,152.982h7.351l-0.067,7.787h-7.278L117.415,152.982z M181.613,153.603c-0.173,2.002,0.246,5.622,0.416,7.177
            c-0.119,0.463-0.44,0.396-2.365-0.04c-1.335-0.446-5.035-0.577-5.035-0.577l1.551-1.643c1.268,0.15,2.269,0.139,3.581,0.303
            c-0.019-1.312,0.036-3.814,0.036-3.814L181.613,153.603z M62.586,155.145l2.056,2.07l-2.633,0.674L62.586,155.145z M163.047,155.819
            l-0.819,3.331l-2.978-2.677L163.047,155.819z M191.244,157.588l0.012,1.7l-2.928-1.317c-0.033,1.938,1.683,5.44,1.683,5.44
            l-1.392,0.654c-1.205-1.969-2.044-3.738-2.112-5.957c0.015-0.803-0.095-2.16,0.628-2.198
            C188.624,155.875,189.869,156.38,191.244,157.588L191.244,157.588z M61.582,159.271l2.444,1.454l-2.711,1.096L61.582,159.271z
            M162.112,160.017l-1.198,3.429l-2.613-2.968L162.112,160.017z M32.515,161.109l6.594,2.234l-1.173,1.247l-5.479-1.731
            L32.515,161.109z M125.032,162.015l0.544,12.146l-34.844-0.286l1.213-1.717l2.264-0.02l5.964-10.056L125.032,162.015z
            M61.117,162.96l2.589,1.828l-2.691,1.188L61.117,162.96z M191.403,164.032l0.005,1.987c-8.413,6.215-17.508,16.927-19.056,35.866
            l-2.27,1.939C171.19,185.332,178.891,172.583,191.403,164.032L191.403,164.032z M160.71,164.105l-1.222,3.084l-2.42-2.871
            L160.71,164.105z M184.416,168.298l-0.811,0.907c-0.229,0.076-3.438-1.643-5.959-2.046c0.825,1.633,1.217,2.853,3.045,5.44
            l-1.179,1.163c-0.354-0.078-4.927-6.831-3.717-8.355C177.76,164.085,182.522,166.859,184.416,168.298z M170.735,164.673
            c-0.052,1.833,1.433,7.523,1.433,7.523c-2.294,0.112-4.519-0.15-6.994,0.545l1.166-2.08c0,0,1.078-0.112,2.021-0.3
            c1.95-0.388,1.748-0.153,1.295-1.849c-0.425-1.595-0.449-1.926-0.449-1.926S170.594,164.663,170.735,164.673z M42.144,166.641
            c3.011,18.234,10.204,30.756,21.553,42.023l-1.154,1.508c-13.341-12.208-20.622-27.746-22.526-42.358L42.144,166.641z
            M60.918,167.406l2.453,1.339l-2.521,1.469L60.918,167.406z M191.369,167.46l-0.016,2.675l-1.537-1.55
            C190.232,168.21,190.735,167.835,191.369,167.46z M159.028,168.008l-1.673,3.069l-2.184-2.908L159.028,168.008z M191.19,174.951
            c-0.344-0.541-3.407-2.445-4.797-3.244c-0.089-0.235,2.152-2.237,2.598-2.375C191.215,169.642,191.929,174.086,191.19,174.951z
            M60.952,171.615l2.773,1.353l-2.517,1.774L60.952,171.615z M153.223,171.614l3.56,0.337l-1.891,2.938L153.223,171.614z
            M186.17,172.92c0.463,0.003,0.981,0.196,1.63,0.558c2.507,1.396,3.823,2.927,3.685,4.286c-0.063,0.624-0.413,0.749-0.819,0.296
            c-0.731-0.818-3.198-1.883-5.324-2.299c-1.61-0.315-1.758-0.453-1.274-1.197C184.798,173.434,185.402,172.915,186.17,172.92z
            M143.283,174.209c3.855,14.599,10.634,25.833,19.143,35.081l-1.765,1.503c-6.461-7.413-13.567-16.088-19.37-34.843L143.283,174.209
            z M150.981,174.99l3.562,0.539l-2.085,2.657L150.981,174.99z M100.745,175.146c0.413,0.014-1.226,6.228-6.885,6.657
            c-3.583,0.594-3.985,1.197-4.039,6.773c-0.073,7.559-1.293,9.327-7.472,9.794c-4.092,0.31-4.63,1.143-3.938,7.017
            c0.659,5.591-1.454,8.441-6.667,8.437c-4.515,0.374-6.38,2.479-6.376,6.662c0.002,1.694,0.029,2.104,0.029,2.104l-2.919,0.228
            c0,0,0.008-2.753,0.228-4.092c0.89-5.412,3.209-7.579,8.093-7.555c3.775-0.287,4.363-0.899,4.233-6.623
            c-0.146-5.822-0.226-5.782,1.294-7.308c0.979-0.981,2.095-1.423,4.078-1.609c6.175-0.582,6.663-0.994,6.647-7.326
            c-0.573-5.261,0.882-8.482,4.224-8.747c6.762-0.536,6.602-4.207,6.303-4.359l3.147-0.049
            C100.734,175.147,100.74,175.145,100.745,175.146L100.745,175.146z M114.574,175.146c3.967,21.389,16.514,41.419,23.399,48.812
            l-1.343,0.713c-10.038-12.466-19.16-26.781-23.672-49.491L114.574,175.146z M107.412,175.155l3.138,0.034l-36.138,50.858
            l-1.905-1.436L107.412,175.155z M111.796,175.189c3.395,12.329,6.066,24.384,16.742,40.512l-45.287-0.296L111.796,175.189z
            M124.301,175.238c0.264-0.122,1.327,6.237-0.259,9.174c-1.426,3.975-0.729,6.213,2.373,7.661c5.325,2.486,6.668,4.969,5.992,11.074
            c-0.473,4.275,0.821,6.341,4.835,7.714c4.786,1.639,6.881,4.214,6.855,8.433c-0.004,0.647-0.247,1.387-0.247,1.387l-2.672,1.57
            c0,0,0.034-0.573,0.136-1.261c0.696-4.677-0.189-5.945-5.712-8.15c-5.215-2.083-6.507-4.491-5.619-10.497
            c0.29-1.959-0.11-3.939-0.921-5.431c-1.365-2.431-4.382-2.406-6.551-4.626c-1.792-1.9-1.992-4.556-0.465-9.1
            c0.946-2.817,1.089-3.885,0.353-6.231c-0.484-1.546-0.674-1.683-0.674-1.683L124.301,175.238z M61.404,175.916l3.073,0.849
            l-2.312,2.4L61.404,175.916z M183.414,176.553c1.055-0.028,3.094,0.341,4.764,1.172c3.83,1.908,4.525,3.472,1.168,2.628
            c-1.893-0.476-4.613-0.368-7.238,0.281c-2.775,0.687-2.716,0.717-1.761-0.96C181.557,177.55,181.872,176.595,183.414,176.553z
            M176.462,178.806l-0.697,1.198c-1.521-0.253-3.122-0.999-5.44-0.815c0.95,1.818,2.077,2.76,3.589,4.364l-0.563,1.202
            c-0.135,0.162-4.417-3.408-5.274-5.809c-0.388-1.084-0.036-1.556,1.522-1.595C171.92,177.316,174.261,177.981,176.462,178.806z
            M119.258,177.629c1.147,0,2.075,0.928,2.075,2.075c0,1.146-0.928,2.08-2.075,2.08c-1.146,0-2.075-0.934-2.075-2.08
            C117.183,178.557,118.112,177.629,119.258,177.629z M148.505,178.192l3.506,0.629l-2.337,2.618L148.505,178.192z M82.937,178.217
            c0.83-0.065,2.11,1.542,2.107,1.544l-4.25,5.871c-2.022-0.407-1.59-3.47,0.263-3.563c0.428,0.003,1.209,0.075,1.209,0.075
            s-0.57-0.311-0.898-0.746C80.125,179.899,81.301,178.347,82.937,178.217L82.937,178.217z M162.25,177.692
            c0,0,3.383,6.692,3.168,6.947c-2.097,0.925-4.387,1.401-6.69,2.242l0.442-1.946c0,0,0.767-0.055,3.344-1.035
            c1.233-0.471-1.346-3.899-1.346-3.899L162.25,177.692z M138.847,179.669c4.937,0.041,4.999,6.099,4.054,8.103
            c-0.688,1.374-1.732,2.136-4.893,3.563c-2.738,1.237-3.045,1.154-3.045,1.154l-0.654-1.46c0,0,1.595-0.703,3.312-1.396
            c3.55-1.433,4.413-2.528,4.024-5.096c-0.551-3.635-3.358-4.201-8.791-1.765c-0.63,0.282-1.426,0.567-1.426,0.567l-0.373-0.732
            c0.087-0.072,4.351-2.307,6.74-2.861C138.168,179.693,138.518,179.666,138.847,179.669z M62.499,180.328l2.793,0.922l-2.037,2.002
            L62.499,180.328z M186.912,181.11c2.468-0.007,4.501,0.409,4.495,1.289c-0.003,0.418-0.098,0.454-2.314,0.762
            c-3.368,0.467-8.997,3.342-12.165,6.01c-1.875,1.581-1.391,1.212-0.601-1.079c0.786-2.278,1.96-4.999,2.595-5.414
            C180.509,181.64,184.115,181.117,186.912,181.11L186.912,181.11z M146.557,181.424l2.375,0.52l-1.546,1.498L146.557,181.424z
            M138.595,182.714c0.851-0.013,1.271,0.389,1.604,1.202c0.723,1.76,0.009,2.792-2.744,3.972c-1.248,0.559-2.362,1.345-3.729,1.595
            l-1.731-4.645c0,0,0.547-0.201,2.347-0.945C136.395,183.043,137.744,182.727,138.595,182.714z M130.566,183.277
            c5.495,15.545,12.221,25.643,19.337,34.009l-1.722,1.076c-7.559-8.941-14.514-19.419-19.526-34.843L130.566,183.277z
            M138.188,183.829c-0.666,0.019-1.664,0.422-2.997,0.936c-1.938,0.748-2.104,1.651-1.236,2.769c0.379,0.488,0.771,0.38,2.633-0.358
            c1.901-0.754,2.723-1.088,2.837-1.765C139.59,184.423,139.044,183.805,138.188,183.829L138.188,183.829z M191.613,184.041
            c-0.005,0.652-9.887,10.02-15.538,14.789c-2.575,2.173-2.487,2.155-2.707,1.887c-0.139-1.614,0.956-7.378,1.62-8.384
            c3.774-3.996,9.599-7.248,15.265-8.471C191.143,183.685,191.696,183.703,191.613,184.041L191.613,184.041z M138.363,184.353
            c0.354,0.012,0.662,0.318,0.659,0.713c-0.002,0.302-0.439,0.595-0.893,0.592c-0.16-0.001-0.553,0.09-0.8,0.344
            c-0.244,0.354-0.403,0.695-0.844,0.611c-0.257-0.049-0.731-0.064-0.916,0.097c-0.868,0.756-1.73,0.129-1.329-0.63
            c0.102-0.191,0.452-0.288,0.737-0.286c0.247,0.001,0.811-0.056,0.892-0.359c0.099-0.361,0.652-0.463,1.038-0.45
            c0.42,0.056,0.759-0.154,0.868-0.33c0.156-0.14,0.34-0.282,0.514-0.296C138.314,184.356,138.338,184.352,138.363,184.353z
            M63.629,184.518l3.146,0.427l-1.983,2.541L63.629,184.518z M93.668,184.475c1.147,0,2.08,0.929,2.08,2.075
            c0,1.147-0.933,2.08-2.08,2.08c-1.146,0-2.075-0.933-2.075-2.08C91.593,185.404,92.522,184.475,93.668,184.475z M126.444,186.119
            c1.146,0,2.075,0.929,2.075,2.075c0,1.147-0.929,2.076-2.075,2.076c-1.147,0-2.076-0.929-2.076-2.076
            C124.367,187.048,125.296,186.119,126.444,186.119z M65.034,188.465l3.414,0.218l-1.954,2.613L65.034,188.465z M83.058,188.964
            c1.146,0,2.074,0.929,2.075,2.075c0,1.146-0.929,2.075-2.075,2.075c-1.147,0-2.075-0.929-2.075-2.075S81.91,188.964,83.058,188.964z
            M168.337,190.259c1.423-0.023,3.074,0.121,3.074,0.121l-0.399,1.597c-1.734,0.165-3.965-0.316-5.827,0.462
            c0.691,1.131,4.744,2.731,5.192,3.13c0.042,0.168-0.334,1.691-0.334,1.691c0.109,0.389-6.857-2.828-7.088-5.542
            C162.96,190.798,165.964,190.297,168.337,190.259L168.337,190.259z M144.379,191.917c3.959,0.036,5.912,5.562,4.374,8.01
            c-0.609,1.106-1.983,2.418-3.797,3.573c-0.872,0.556-3.181,1.688-3.181,1.688l-1.038-1.604c0,0,0.922-0.37,1.79-0.844
            c2.181-1.231,6.604-3.855,4.465-7.429c-1.2-1.934-2.998-2.312-6.729-0.417c-2.786,1.415-3.419,1.547-3.419,1.547l-0.707-1.28
            C136.322,195.267,141.699,192.03,144.379,191.917z M67.101,192.494l3.107,0.005l-1.328,2.802L67.101,192.494z M157.131,192.125
            c1.891,3.657,5.124,6.42,6.007,7.083c0,0-3.22,2.068-5.144,3.386l-1.13-1.329l2.763-2.37l-3.111-4.34L157.131,192.125z
            M187.457,193.007c-0.351,1.806-0.406,3.723-0.554,5.833c0.682,0.622,1.294,0.934,1.83,0.897c0.601-1.897,1.033-4.053,0.747-6.271
            C188.911,193.023,188.163,193.073,187.457,193.007z M189.016,194.38c-0.01,1.191,0.155,2.678-0.354,3.827
            c-0.29,0.653-0.951,0.407-0.974-0.481c-0.031-1.201,0.213-2.21,0.282-3.306c0.04-0.624,0.31-0.998,0.683-0.854
            C189.039,193.754,189.007,194.031,189.016,194.38z M144.142,195.199c2.041,0.152,2.828,1.858,2.075,3.084
            c-1.844,2.355-3.729,2.783-6.148,4.146l-2.414-4.514C137.655,197.915,142.353,195.263,144.142,195.199z M144.086,196.207
            c-1.35,0.158-2.202,0.816-3.337,1.372c-1.39,0.681-1.842,1.733-0.898,2.688c1.039,1.158,4.668-1.603,5.268-2.27
            c0.368-0.573,0.308-1.096-0.211-1.508C144.683,196.311,144.406,196.21,144.086,196.207z M69.651,196.398l3.04,0.033l-1.644,2.323
            L69.651,196.398z M144.364,196.872c0.518,0.367,0.473,1.025-0.256,1.212c-0.369,0.095-1.005,0.097-1.02,0.589
            c-0.011,0.367-0.571,0.505-0.891,0.452c-0.326-0.053-0.879-0.081-0.986,0.328c-0.279,0.558-0.489,0.567-0.881,0.178
            c-0.42-0.425-0.224-0.962,0.597-1.052c0.35-0.038,0.655-0.294,0.78-0.562c-0.019-0.349,0.226-0.55,0.611-0.471
            c0.545-0.006,0.901-0.207,1.29-0.716C143.88,196.703,144.178,196.741,144.364,196.872z M126.576,196.933
            c1.146,0,2.075,0.928,2.075,2.075c0,1.146-0.929,2.08-2.075,2.08s-2.075-0.934-2.075-2.08
            C124.501,197.861,125.43,196.933,126.576,196.933z M82.252,200.751c1.147,0,2.081,0.934,2.081,2.08c0,1.147-0.934,2.075-2.081,2.075
            c-1.146,0-2.074-0.928-2.075-2.075C80.177,201.685,81.106,200.751,82.252,200.751z M32.587,202.594l23.773,16.258l-1.624,2.371
            l-22.081-15.017L32.587,202.594z M151.948,203.122c1.547,0.001,2.739,0.892,3.894,2.687c2.291,3.563,1.142,6.374-3.603,9.246
            c-2.204,1.335-2.221,1.349-2.221,1.349l-1.12-1.383c0,0,1.605-0.943,2.269-1.362c3.9-2.463,4.997-4.644,3.283-7.099
            c-1.652-2.365-3.388-2.176-8.204,0.888c-0.975,0.619-2.139,1.105-2.139,1.105l-1.057-1.436c0,0,2.727-1.401,3.656-1.992
            C148.841,203.762,150.583,203.121,151.948,203.122z M169.67,202.51l0.015,1.562c0.053,0.07-3.231,1.518-5.155,2.39
            c-0.623,0.34-0.38,1.003-0.342,1.685l-0.927,0.626c0,0-1.28-0.934-1.448-1.533C161.344,205.347,167.369,203.082,169.67,202.51z
            M135.347,204.19c1.146,0,2.08,0.928,2.08,2.075c0,1.146-0.934,2.08-2.08,2.08s-2.075-0.934-2.075-2.08
            C133.272,205.117,134.2,204.19,135.347,204.19z M70.943,204.772c1.146,0,2.075,0.929,2.075,2.075c0,1.147-0.929,2.075-2.075,2.075
            c-1.147,0-2.075-0.928-2.075-2.075C68.867,205.7,69.795,204.772,70.943,204.772z M151.861,206.429
            c0.788-0.028,1.38,0.486,1.702,1.271c0.825,2.009-0.297,3.494-4.359,5.771c-0.341,0.19-1.062,0.581-1.062,0.581l-2.991-4.131
            c0,0,1.053-0.725,2.046-1.318C149.421,207.146,150.848,206.466,151.861,206.429z M151.463,207.418
            c-0.191,0.005-0.412,0.079-0.669,0.229c-1.043,0.601-2.785,1.253-3.607,2.342c-0.48,0.666-0.262,1.327,0.649,2.182
            c0.772,0.511,4.759-2.425,4.858-3.277C152.358,207.99,152.037,207.403,151.463,207.418z M32.757,207.642l0.664,0.445l-0.664,0.524
            V207.642z M152.097,208.365c0.295,0.359,0.117,0.969-0.508,1.076c-0.314,0.054-0.78,0.14-0.931,0.605
            c-0.126,0.308-0.556,0.568-0.979,0.558c-0.489-0.112-0.747,0.184-0.773,0.398c-0.241,0.412-0.837,0.479-1.2,0.092
            c-0.283-0.302,0.224-1.168,0.558-1.155c0.06,0.027,0.428,0.11,0.872-0.483c0.09-0.433,0.593-0.697,0.957-0.682
            c0.37,0.126,0.588-0.284,0.736-0.511C151.169,208.082,151.859,208.083,152.097,208.365z M34.338,208.679l0.955,0.645l-2.536,1.799
            v-1.449L34.338,208.679z M36.19,209.891l1.3,0.868l-4.732,3.39v-1.838L36.19,209.891z M38.615,211.438l1.372,0.907l-7.229,4.883
            v-1.882L38.615,211.438z M41.218,212.757v1.57l-8.461,5.906v-1.591L41.218,212.757z M42.173,213.887l1.823,1.246l0.456,53.238
            l-11.399,7.831l0.01-2.327l9.571-6.919L42.173,213.887z M179.689,215.325c-2.557,2.919-5.985,3.116-8.976,3.036
            c-8.059,0.113-13.061,0.543-14.097,10.151c3.283-2.454,6.764-2.771,10.794-2.655c5.104-0.007,7.4-0.342,9.475-1.377
            c3.333-1.662,5.44-4.641,5.038-6.729C181.528,217.3,180.491,215.437,179.689,215.325z M41.218,215.792v1.843l-8.461,5.668v-1.872
            L41.218,215.792z M137.83,215.963c1.147,0,2.08,0.928,2.08,2.075c0,1.146-0.933,2.075-2.08,2.075c-1.146,0-2.075-0.929-2.075-2.075
            C135.755,216.891,136.684,215.963,137.83,215.963z M82.597,216.175c14.949,0.465,46.698,0.286,46.698,0.286l1.692,2.439
            l-49.918-0.524L82.597,216.175z M179.606,217.776c-1.789,1.754-3.645,2.611-9.523,2.507c-6.211-0.111-8.633,0.87-10.24,3.636
            c-0.467,0.805-0.458,1.117,0.218,0.51c0.568-0.675,1.858-1.975,2.393-0.744c1.056-0.69,1.968-1.742,2.52-0.413
            c0.306-0.067,2.096-1.86,2.521-0.272c0.854-0.956,1.588-1.256,1.989,0.101c1.216-0.576,1.862-1.668,2.553-0.159
            c0.979-0.701,1.723-1.577,2.294-0.242c0.836-0.246,1.686-1.778,2.169-0.558c0.09,0.03,3.111-1.787,3.966-3.584
            c0.701-1.585,1.346-0.533,0.549,1.086c-2.048,3.966-5.55,5.413-13.587,5.426c-4.879,0.006-6.896,0.483-8.429,1.377
            c-2.461,1.436-1.136-2.177,0.589-4.368c2.173-2.763,4.651-3.579,11.438-3.331c3.71,0.021,6.08-0.49,7.084-1.3
            c0.85-0.687,1.466-1.151,1.924-1.182C180.489,216.233,180.55,216.849,179.606,217.776z M69.765,217.104
            c1.146,0,2.08,0.934,2.08,2.08s-0.934,2.075-2.08,2.075c-1.147,0-2.075-0.929-2.075-2.075S68.617,217.104,69.765,217.104z
            M41.218,218.643v1.872l-8.461,5.774v-1.915L41.218,218.643z M82.126,219.54h6.565v6.929h-6.565V219.54z M96.838,219.54h7.064v6.929
            h-7.064V219.54z M112.562,219.763h6.817v6.706h-6.817V219.763z M127.331,219.899l4.538,0.155c0,0,2.52,3.206,3.584,4.684
            l-3.355,1.722l-4.767,0.01V219.899z M85.283,220.369c-1.277,0-2.313,1.031-2.313,2.308c0,1.277,1.036,2.313,2.313,2.313
            c1.276,0,2.312-1.036,2.312-2.313C87.596,221.401,86.56,220.369,85.283,220.369z M100.379,220.597c-1.277,0-2.313,1.031-2.313,2.309
            c0,1.276,1.036,2.312,2.313,2.312s2.312-1.036,2.312-2.312C102.692,221.628,101.656,220.597,100.379,220.597z M115.818,220.657
            c-1.277,0-2.313,1.031-2.313,2.308c0,1.277,1.036,2.313,2.313,2.313s2.312-1.036,2.312-2.313
            C118.13,221.689,117.095,220.657,115.818,220.657z M78.97,221.126c0.456,0.324,0.757,0.852,0.757,1.454
            c0,0.99-0.805,1.794-1.794,1.794c-0.35,0-0.676-0.099-0.951-0.271L78.97,221.126z M85.283,221.15c0.845,0,1.532,0.683,1.532,1.527
            c0,0.846-0.688,1.532-1.532,1.532c-0.846,0-1.532-0.687-1.532-1.532C83.751,221.832,84.438,221.15,85.283,221.15z M131.186,221.213
            c-1.276,0-2.312,1.031-2.312,2.308c0,1.277,1.036,2.313,2.312,2.313c1.277,0,2.313-1.036,2.313-2.313
            C133.499,222.244,132.463,221.213,131.186,221.213z M92.775,221.281c1.025,0,1.856,0.832,1.856,1.857s-0.831,1.857-1.856,1.857
            c-1.026,0-1.853-0.832-1.853-1.857S91.748,221.281,92.775,221.281z M123.365,221.208c1.024,0,1.856,0.832,1.856,1.857
            c0,1.024-0.832,1.856-1.856,1.856c-1.025,0-1.853-0.832-1.853-1.856C121.513,222.04,122.34,221.208,123.365,221.208z
            M41.218,221.407v1.861l-8.461,5.911v-1.833L41.218,221.407z M100.379,221.378c0.846,0,1.532,0.682,1.532,1.527
            c0,0.845-0.687,1.532-1.532,1.532s-1.532-0.688-1.532-1.532C98.847,222.06,99.533,221.378,100.379,221.378z M115.818,221.438
            c0.845,0,1.532,0.683,1.532,1.527c0,0.846-0.688,1.532-1.532,1.532c-0.846,0-1.532-0.687-1.532-1.532
            C114.285,222.12,114.972,221.438,115.818,221.438z M108.077,221.63c1.025,0,1.856,0.832,1.856,1.857
            c0,1.024-0.831,1.856-1.856,1.856c-1.026,0-1.857-0.832-1.857-1.856C106.22,222.462,107.051,221.63,108.077,221.63z
            M131.186,221.993c0.846,0,1.532,0.683,1.532,1.527c0,0.846-0.687,1.532-1.532,1.532c-0.845,0-1.532-0.687-1.532-1.532
            C129.654,222.676,130.341,221.993,131.186,221.993z M65.379,223.599c3.94-0.047,8.204,1.955,10.609,5.275
            c3.639,4.865,6.071,11.071,7.176,19.215c0.547,4.034,2.428,16.146,3.496,19.008l-1.47-0.281c-0.198,0.094-2.084-7.618-3.272-17.805
            c-0.44-3.773-1.242-8.643-3.433-13.087c-2.501-5.075-6.748-10.453-12.413-10.881c-3.304-0.249-6.406,1.821-6.74,4.737
            c-0.476,2.304,0.876,4.45,2.647,5.169c1.741,0.706,3.821,0.18,4.054-2.191c0.041-0.39,0-0.782-0.146-1.145
            c0.806-0.131,1.419,0.232,1.746,0.911c0.17,0.021,0.007,3.439-2.682,4.112c-3.244,1.062-6.986-2.149-7.278-5.421
            c-0.222-2.756,1.876-6.161,4.52-7.084C63.198,223.781,64.276,223.612,65.379,223.599L65.379,223.599z M41.218,224.66v1.9
            l-8.461,5.838v-1.915L41.218,224.66z M65.564,225.867c4.732-0.134,9.341,5.142,11.292,8.616c2.037,3.628,3.648,9.388,4.204,14.809
            c0.944,9.219,2.711,16.759,3.084,17.102l-1.29-0.281c-0.27,0.181-2.049-8.142-3.132-17.407c-0.607-5.196-2.536-10.349-4.829-14.318
            c-2.117-3.664-4.972-6.4-8.35-6.798c-2.118-0.213-4.296,0.398-4.723,2.628c-0.227,1.31,0.458,2.594,2.012,2.706
            c0.366,0.026,0.716,0.056,0.781,0.067c0.822,0.146-0.47,1.48-1.319,1.362c-3.034-0.423-4.433-4.477-2.041-6.633
            C62.652,226.458,64.115,225.909,65.564,225.867z M75.698,227.221l53.146,0.538c0,0,0.044,0.951-3.263,0.795
            c-2.813-0.133-4.628,0.26-6.493,0.858l-41.757-0.093L75.698,227.221z M41.218,227.836v1.765l-8.461,5.921v-1.949L41.218,227.836z
            M65.917,228.583c1.021-0.014,2.062,0.249,2.847,0.703c6.583,3.812,9.097,13.277,9.964,19.234
            c1.183,8.824,2.548,17.021,2.929,17.223l-1.436-0.324c-0.191,0.007-1.762-7.644-2.739-16.215c-0.791-6.929-3.16-13.887-7.86-16.815
            c-3.016-2.052-3.607-2.26-5.004-1.062c-1.204,1.034-2.429-0.522-1.42-1.789C63.893,228.888,64.897,228.597,65.917,228.583z
            M41.218,230.974v1.449l-8.461,5.892v-1.717L41.218,230.974z M79.901,231.012c0.109-0.1,4.573,7.479,5.983,19.425
            c0.743,6.289,2.869,17.014,3.21,17.101l-1.547-0.164c-1.581-6.325-2.456-12.312-3.302-17.708
            c-0.956-6.104-1.724-11.527-5.527-18.604l1.178-0.039C79.896,231.017,79.9,231.014,79.901,231.012L79.901,231.012z M80.914,231.075
            l1.382,0.02c2.364,4.5,4.878,11.49,5.746,18.498c0.75,6.052,1.509,12.209,3.675,18.619l-1.483-0.408
            c-1.86-5.203-2.52-11.491-3.521-18.008C85.608,242.592,83.872,236.32,80.914,231.075L80.914,231.075z M89.444,231.085
            c2.418,6.262,3.991,9.249,5.096,16.956c0.857,5.981,2.068,13.463,4.824,21.387l-1.399-0.061c-2.042-5.47-3.605-12.796-4.321-19.833
            c-0.974-9.558-5.265-18.481-5.305-18.425L89.444,231.085z M87.063,231.11c0.131-0.195,4.611,8.768,5.648,18.619
            c0.69,6.554,2.225,13.04,4.33,19.303l-1.431-0.032c-1.651-1.91-2.889-10.962-4.252-19.411c-1.392-8.625-3.352-13.931-5.527-18.464
            h1.227C87.058,231.116,87.061,231.113,87.063,231.11L87.063,231.11z M83.45,231.119l1.271,0.005
            c3.322,7.262,4.702,11.582,5.727,18.604c1.294,8.88,2.537,16.891,3.912,18.978l-1.551-0.102c-2.141-6.4-3.105-12.796-3.865-19.196
            C88.121,242.477,86.129,236.539,83.45,231.119z M90.461,231.177l1.509,0.024c2.6,5.266,4.761,11.671,5.522,18.992
            c0.418,3.971,1.148,10.065,4.131,19.467l-1.207-0.076c-2.443-6.306-3.91-13.728-4.786-20.2
            C94.747,242.856,93.189,237.469,90.461,231.177z M99.752,231.221c1.425,3.651,2.599,7.278,3.369,11.012l-0.854,1.663
            c-1.337-4.928-2.842-8.764-4.339-12.65L99.752,231.221z M92.871,231.226l1.838,0.043c3.156,7.327,4.778,15.074,5.222,17.674
            c0,0,0.438,2.3,0.466,3.055c-0.106,6.402,1.001,10.969,3.385,17.854l-1.092-0.078c-2.766-8-3.511-13.684-4.218-19.113
            C97.886,243.833,95.666,236.8,92.871,231.226z M97.114,231.283c1.882,4.696,3.316,9.225,4.621,13.756
            c-0.059,1.029-0.158,2.155-0.829,2.987c-1.534-5.543-2.828-11.302-5.197-16.733L97.114,231.283z M100.586,231.323l1.454,0.024
            l2.899,8.306l-1.135,1.256C102.953,238.158,102.081,235.136,100.586,231.323z M109.075,231.381l1.062,2.497l-1.145,0.97
            c0,0-1.168-2.337-1.474-3.438L109.075,231.381z M111.234,231.381l0.533,1.439l-0.96,0.732l-0.747-2.144L111.234,231.381z
            M102.904,231.409l1.498,0.01c0.604,1.745,2.216,6.018,2.216,6.018l-1.076,1.13C105.541,238.567,103.512,233.165,102.904,231.409z
            M105.226,231.409l1.329,0.015c0.399,1.134,1.644,4.272,1.644,4.272l-0.917,0.872L105.226,231.409z M112.174,231.468l1.314,0.063
            l-0.155,0.324l-0.819,0.407L112.174,231.468z M69.078,233.316c5.504,2.901,7.021,11.591,7.617,16.369
            c1.042,8.337,2.211,15.12,2.459,15.303l-1.222-0.194c0,0-0.903-4.283-1.527-8.359c-0.521-3.391-0.922-6.23-1.062-7.53
            c-0.088-0.812-0.224-1.757-0.301-2.099c-0.769-3.425-1.016-4.209-2.007-6.294c-0.952-2.001-1.288-2.502-2.87-4.286
            c-0.608-0.685-1.199-1.186-1.406-1.624C68.463,233.973,69.078,233.316,69.078,233.316z M41.218,233.762v1.639l-8.461,5.974v-1.872
            L41.218,233.762z M41.218,236.637v1.886l-8.461,5.581v-1.673L41.218,236.637z M41.218,239.852v1.75l-8.461,5.896v-1.809
            L41.218,239.852z M55.347,241.621h0.747l0.053,1.227l-1.153-0.072L55.347,241.621z M41.218,243.134v1.872l-8.461,5.585v-1.745
            L41.218,243.134z M54.475,243.847l1.789,0.02l-0.02,1.285l-2.299-0.078L54.475,243.847z M53.437,245.907l2.938,0.054v1.222
            l-3.642-0.059L53.437,245.907z M41.218,246.174v1.964l-8.461,5.625v-1.974L41.218,246.174z M51.939,248.216l4.301,0.048
            l-0.024,1.023l-5.135-0.034L51.939,248.216z M41.218,249.355v1.92l-8.461,5.416v-1.726L41.218,249.355z M50.145,250.267l5.905,0.082
            l-0.146,0.989l-6.734-0.029L50.145,250.267z M41.218,252.357v1.847l-8.461,5.509v-1.775L41.218,252.357z M47.929,252.357
            l7.772,0.179l1.639,1.489l-12.098,0.072L47.929,252.357z M45.577,255.081l13.362,0.165l0.932,0.863l-14.338,0.053L45.577,255.081z
            M41.218,255.503v1.959l-8.461,5.542v-1.789L41.218,255.503z M45.592,257.225l14.808,0.067l-1.071,1.188l-13.756,0.038
            L45.592,257.225z M41.218,258.708v1.794l-8.461,5.741v-2.061L41.218,258.708z M45.223,259.644l12.801,0.044l-1.503,1.178
            l-8.845,0.204L45.223,259.644z M41.218,261.86v1.712l-8.461,6.061v-1.92L41.218,261.86z M48.966,262.078l7.516,0.033l0.141,1.009
            l-6.463-0.015L48.966,262.078z M51.046,264.158l5.771,0.058l0.271,1.305l-5.135-0.068L51.046,264.158z M41.218,265.07v1.591
            l-8.461,5.905v-1.76L41.218,265.07z M57.214,266.374l0.067,1.241l-3.442,0.131l-0.97-1.3L57.214,266.374z M57.185,268.575
            l-0.029,1.305l-2.4,0.038l-0.538-1.256L57.185,268.575z M55.051,270.898l1.892,0.015l-0.16,1.004l-1.465,0.02L55.051,270.898z
            M55.618,273.308h0.922l-0.155,0.785h-0.471L55.618,273.308z M74.334,286.583l-0.44,0.567H87.12l0.146-0.567H74.334z
            M91.388,286.583l-0.233,0.767h5.969l0.165-0.767H91.388z M101.139,286.734l-0.185,0.723h15.259l-0.252-0.723H101.139z
            M119.394,286.734l0.311,0.878h5.135l-0.34-0.878H119.394z M137.108,286.734l-9.011,0.005l0.325,0.979h9.319L137.108,286.734z"/>

    </g>
</svg>
