<?xml version="1.0" encoding="utf-8"?>
<svg version="1.2" baseProfile="tiny"
    xmlns="http://www.w3.org/2000/svg"
    xmlns:svg="http://www.w3.org/2000/svg"
    xmlns:xlink="http://www.w3.org/1999/xlink"
    viewBox="0 0 225 314" width="225px" height="314px">
    <defs>
        <style>
            .maxi-card { display: none; }
            @media (min-width: 75px) {
                .maxi-card { display: block; }
                .mini-card { display: none; }
            }
        </style>

        <path id="suit" d="M20.976,57.141c2.879-5.775,4.976-11.7,5.348-18.037c0.342-2.331-1.074-2.37-1.288-0.729
            c-4.076,15.593-25.763,11.37-25.017-3.296c0.604-11.896,12.42-14.454,18.582-10.565c2.434,1.434,2.295,0.575,0.967-0.911
            C10.416,13.391,15.958,0.241,28.331,0c13.38,0.793,16.853,14.87,8.646,23.147c-1.021,0.994-3.283,4.191,0.123,1.956
            c8.287-5.888,19.787,0.443,19.553,9.521c-0.434,16.738-20.84,17.986-25.203,4.006c-0.42-1.55-1.629-2.328-1.295,0.305
            c0.604,4.767,1.855,11.953,5.438,18.205L20.976,57.141L20.976,57.141z"/>
        <polygon id="numeral" points="0,0 0,2.871 2.937,2.871 2.937,27.849 0,27.849 0,30.942 8.532,30.942 8.532,27.849 6.271,27.849 6.271,20.764
            9.698,16.015 14.838,27.849 11.557,27.849 11.557,30.942 20.863,30.942 20.863,27.849 18.637,27.849 11.823,12.635 18.297,2.824
            20.697,2.871 20.697,0 11.456,0 11.456,2.871 14.12,2.871 6.271,14.916 6.271,2.871 8.6,2.871 8.6,0 "/>

    </defs>

    <rect width="100%" height="100%" x="0" y="0" fill="#fefefe"/>

    <!-- Little Card -->
    <g class="mini-card">
        <use xlink:href="#numeral" transform="matrix(3.5,0,0,3.5,78.4,33.95)"/>
        <use xlink:href="#suit" transform="matrix(2,0,0,2,55.5,170)"/>
    </g>

    <!-- Big Card -->
    <g class="maxi-card">

        <!-- Top Numeral and Suit -->
        <use xlink:href="#numeral" transform="matrix(1,0,0,1,7,12)"/>
        <use xlink:href="#suit" transform="matrix(0.4,0,0,0.4,6,51)"/>

        <!-- Bottom Numeral and Suit -->
        <use xlink:href="#numeral" transform="matrix(-1,0,0,-1,218,302)"/>
        <use xlink:href="#suit" transform="matrix(-0.4,0,0,-0.4,218,263)"/>

        <!-- Card Face -->
        <use xlink:href="#suit" transform="matrix(0.8,0,0,0.8,38,40)"/><!-- top left -->
        <use xlink:href="#suit" transform="matrix(-0.8,0,0,-0.8,186,274)"/><!-- bottom right -->

        <path fill="#E2CF00" d="M161.2,29.84l-80.525,0.393l10.228,19.372c20.928-1.883,39.269-0.209,58.375,0.415L161.2,29.84z M106.204,97.952
            c-0.084,0.113-3.351,0.957-3.019,1.697c8.527,18.254,12.335,33.108,15.898,51.869c1.799-1.461,4.711-1.402,4.711-1.402
            c-1.436-6.967,7.348-7.834,7.406-0.547c1.686,0.393,3.42,0.397,4.94,2.102c0.687-20.504,8.043-41.717,17.545-56.414
            c-10.827,4.285-26.717,14.966-26.717,14.966S113.751,104.763,106.204,97.952L106.204,97.952z M172.024,100.135
            c-14.411,13.679-20.053,51.646-19.018,52.171c-18.578-0.619-24.209,19.854-8.105,30.896c-0.637,2.141-2.209,3.883-3.428,5.775
            c1.662,0.948,3.476,1.151,5.285,1.352c1.375,1.629,2.727,3.51,4.221,3.664c1.619-1.021,2.771-2.514,4.119-3.805
            c1.685-0.429,3.354-0.902,4.951-1.631c-1.416-1.976-3.092-3.97-3.135-5.818c14-9.867,12.078-23.285-0.543-30.154
            c3.76-22.598,9.244-37.03,15.608-47.297L172.024,100.135z M72.769,117.592c-1.83,0.894-2.83,2.779-4.157,4.259
            c-1.824,0.082-3.58,0.704-5.318,1.479c0,0,4.176,5.766,3.918,6.076c-13.541,8.867-13.432,21.826-0.43,30.363
            c2.203,18.442-13.476,47.631-14.267,46.78l-0.028,6.035c10.909-12.065,17.084-33.983,18.166-51.988
            c22.28-1.481,23.071-23.002,7.731-31.096c-1.18-1.082,3.855-6.082,3.855-6.082c-1.277-1.26-3.416-1.401-5.289-1.557
            C75.769,120.452,74.74,119.045,72.769,117.592z M167.009,132.488c3.15,7.004,14.66-1.531,16.656,2.195
            c1.621,2.114,5.149,2.332,4.959-1.23c-0.662-3.525-2.984-4.309-12.201-2.771c-3.496,0.581-4.928,0.928-4.908-0.664
            C169.097,127.099,167.022,131.068,167.009,132.488z M177.698,142.71c-2.584-0.004-3.023,10.096-2.986,13.127
            c-7.479,11.812,15.346,10.467,5.475-2.396c0.345-1.683-1.26-4.422-1.215-5.636C178.163,147.702,177.807,143.144,177.698,142.71z
            M46.104,148.781c-4.048,0.102-8.498,3.815-2.009,9.16c0.435,0.147-0.219,1.274,0.005,3.008c1.829,3.945,1.336,9.789,2.696,8.893
            c1.574-1.039,2.891-5.397,2.551-11.485c-0.022-0.398-0.553-0.822-0.453-1.255C52.536,151.092,49.456,148.697,46.104,148.781
            L46.104,148.781z M87.526,160.094c-1.039,19.726-5.873,39.078-16.828,55.861c9.43-4.395,18.582-10.062,27.438-14.914l20.693,12.806
            c1.197-0.521,2.026-0.775,2.822-1.562c-9.537-13.943-12.488-34.012-16.643-52.168c-1.582,1.121-4.555,1.684-4.555,1.684
            c-0.213,6.298-6.818,8.339-8.168,0.125L87.526,160.094z M37.579,175.484c-2.207,0.141-3.867,5.604,2.385,6.412
            c4.414,0.623,10.064-1.55,12.867-0.543c3.258,5.196,6.184-2.453,1.828-3.701c-4.679-1.34-14.207,2.158-15.26-0.814
            C38.858,175.822,38.198,175.445,37.579,175.484z M75.114,260.92l-12.484,22.045l79.818-0.479l-10.435-21.027
            C132.19,261.226,97.153,265.624,75.114,260.92z"/>
        <path fill="#D40000" d="M91.794,51.648l1.297,3.094c17.146-2.073,35.083-4.22,53.042,0.347c0,0,1.316-2.858,1.297-3.065
            C130.696,47.765,93.279,48.869,91.794,51.648z M109.144,95.083l16.315,10.553c0,0,7.812-5.521,11.145-7.854l-2.022-2.969
            c-6.898,15.209-19.027,3.18-23.576-3.978C111.004,90.835,109.769,93.607,109.144,95.083z M152.965,100.189
            c1.131-0.025,1.756,0.412,2.324,1.562c0.643,1.299,0.887,0.979,0.475-0.643c-0.649-2.556,2.062-4.218,4.619-2.513
            c1.848,1.232,1.766,4.214-0.252,4.767c-1.629,0.444-1.67,0.873-0.24,0.803c2.568-0.125,3.252,3.301,1.424,4.976
            c-2.1,1.926-4.778,0.561-5.022-1.854c-0.111-0.684-0.256-0.674-0.482-0.287c-0.647,1.115-0.707,2.564-0.582,3.875l-3.793-2.354
            c1.353-0.668,2.175-1.072,3.15-2.086c0.127-0.134,0.223-0.229,0.223-0.287c-0.002-0.104-0.422,0.035-1.194,0.114
            c-2.293,0.24-4.058-1.245-3.586-3.403C150.426,101.025,151.375,100.224,152.965,100.189z M136.237,159.715
            c4.125-4.721,9.25-7.75,16.373-7.328c0.903-19.776,7.766-37.364,18.75-53.209l-12.086-7.266l-4.849,2.926
            C142.764,111.376,135.601,132.359,136.237,159.715z M45.653,113.499c0,0-8.182,6.127-11.982,9.086l0.186,54.537l1.057,0.361
            c0.075,0.115-0.093-0.81,0.393-1.232c0.396-0.346,1.024-0.737,1.396-0.873c1.052-0.383,1.099-1.084,0.117-1.688
            c-0.762-0.472-1.052-1.197-0.964-2.406c0.062-0.852,0.024-1.037-0.33-1.617c-0.441-0.719-0.479-1.629-0.104-2.572
            c0.175-0.438,0.158-0.557-0.152-1.147c-0.396-0.754-0.443-1.564-0.148-2.439c0.112-0.334,0.194-1.065,0.184-1.629
            c-0.04-2.174,1.755-3.613,5.066-4.067c1.295-0.179,1.335-0.23,0.74-1.316c-3.354-6.127,4.182-9.318,4.745-8.338L45.653,113.499z
            M148.865,116.54c3.062-0.045,5.58,2.398,5.625,5.459c0.045,3.062-2.402,5.58-5.463,5.625c-3.062,0.043-5.58-2.402-5.625-5.465
            C143.358,119.099,145.805,116.585,148.865,116.54z M148.918,117.531c-2.451,0.035-4.406,2.049-4.371,4.5s2.049,4.412,4.5,4.377
            c2.451-0.037,4.412-2.055,4.377-4.506C153.387,119.45,151.369,117.495,148.918,117.531z M149.033,118.939
            c1.662-0.025,3.031,1.301,3.055,2.963c0.025,1.662-1.305,3.033-2.967,3.057c-1.664,0.023-3.027-1.307-3.053-2.969
            C146.045,120.327,147.371,118.962,149.033,118.939z M38.993,121.215c0.225-0.004,0.465,0.029,0.708,0.107
            c1.382,0.438,1.864,1.654,1.116,2.809c-0.588,0.904-0.521,0.982,0.509,0.601c0.809-0.301,1.221-0.205,1.859,0.426
            c1.911,1.893-0.936,5.076-2.809,3.148c-0.927-0.955-1.016-0.675-0.372,0.967c0.208,0.53,0.553,1.356,0.553,1.356l-2.745-0.041
            c0,0,0.427-1.094,0.623-1.608c0.476-1.244,0.49-1.427-0.499-0.644c-2.233,1.765-4.768-1.256-2.711-3.229
            c0.418-0.402,1.089-0.42,2.021-0.054c0.68,0.267,0.762,0.08,0.252-0.561C36.387,123.101,37.414,121.243,38.993,121.215z
            M95.885,126.103c-1.116,7.309-0.143,17.563-0.166,23.045c2.978,0.567,3.01,2.596,3.467,5.114c1.446-0.504,4.609,1.634,5.043,1.445
            C104.558,148.292,100.702,126.767,95.885,126.103z M145.269,133.426c4.228,0.341,3.416,3.603,2.158,4.943
            c-0.598,0.688-0.485,0.996,0.168,0.602c1.785-1.077,3.201-0.301,3.775,1.558c0.983,3.172-3.188,5.906-5.047,3.059
            c-0.632-0.965-1.017-0.748-0.861,0.263c0.094,0.975,1.045,2.989,1.045,2.989l-4.145-0.373c0,0,1.266-2.104,1.487-2.674
            c0.461-1.178,0.218-1.49-0.668-0.541c-2.592,2.371-6.186-0.666-4.512-3.811c0.826-1.551,2.348-2.054,3.992-0.818
            c1.106,0.725,1.346,0.41,0.354-0.467C141.17,136.517,142.781,133.228,145.269,133.426L145.269,133.426z M39.194,136.019
            c0.048-0.004,0.094-0.004,0.142-0.004c0.355,0.008,0.729,0.104,1.1,0.313c1.029,0.58,1.312,1.723,0.666,2.717
            c-0.371,0.572-0.264,0.933,0.169,0.56c0.577-0.5,1.854-0.168,2.353,0.61c1.278,2.002-1.22,4.621-2.813,2.955
            c-0.704-0.735-0.975-0.766-0.894-0.283c0.229,0.908,0.827,2.455,0.827,2.455l-2.872,0.05c0,0,0.62-1.627,0.758-2.451
            c0.105-0.654-0.155-0.56-0.839,0.213c-0.665,0.75-1.27,0.828-2.117,0.266c-2.093-1.387-0.417-4.944,1.766-3.75
            c0.752,0.412,0.856,0.174,0.27-0.604C36.656,137.678,37.727,136.088,39.194,136.019L39.194,136.019z M188.256,134.745
            c-4.646,4.803-3.189,1.965-1.035,5.625c0.008,2.414,1.416,4.303,0.301,8.111c-0.356,0.744-0.391,1.098-0.192,1.848
            c-0.342,4.207-3.711,4.154-6.99,4.807c0.545-0.034,5.193,8.556-3.479,9.228l0.098,34.922l13.602-10.029l-0.059-54.51
            L188.256,134.745L188.256,134.745z M86.184,153.183c-3.855,2.485-9.273,8.694-16.088,7.348
            c-0.824,21.787-7.975,38.654-18.174,53.15c3.521,2.082,7.397,4.582,10.999,6.184c3.045-1.572,4.755-2.227,7.743-4.686
            C82.926,196.238,86.815,175.532,86.184,153.183z M118.203,157.169c0.688,11.189,2.51,21.785,8.33,30.287l0.395-23.781
            c-2.074-0.496-3.772-1.838-4.379-5.639L118.203,157.169z M76.135,163.769l3.891,0.092c0,0-0.884,1.76-1.266,2.742
            c-0.464,1.2-0.243,1.444,0.645,0.61c1.153-1.088,2.993-1.188,3.962-0.219c2.569,2.576-0.118,6.771-3.158,4.932
            c-1.302-0.788-1.521-0.522-0.486,0.593c2.009,1.862-0.089,4.549-2.438,4.561c-1.697-0.008-2.798-1.365-2.932-2.859
            c-0.064-0.94,0.407-1.885,1.225-2.344c0.852-0.479,0.241-0.789-0.685-0.293c-3.02,1.625-5.039-2.547-2.761-4.92
            c1.313-1.369,2.703-1.242,4.039,0.064c0.933,0.912,1.267,0.832,1.003-0.248C76.91,165.265,76.135,163.769,76.135,163.769
            L76.135,163.769z M181.129,167.044l2.787,0.004c-0.273,0.689-0.629,1.394-0.853,2.074c-0.237,0.742-0.062,0.836,0.677,0.119
            c1.92-1.291,3.969,0,3.553,2.043c-0.287,1.41-1.469,2.102-2.832,1.488c-1.201-0.539-0.816-0.31-0.133,0.514
            c0.813,0.979,0.606,2.121-0.469,2.877c-1.9,1.336-4.412-0.885-3.154-2.824c0.742-1.151,0.402-1.026-0.273-0.471
            c-1.014,0.742-2.547-0.307-2.576-1.764c-0.116-2.094,1.996-3.271,3.486-1.789c0.709,0.598,0.887,0.522,0.566-0.346
            C181.614,168.338,181.519,167.663,181.129,167.044z M181.28,182.273l2.92-0.033c0,0-0.041,0.223-0.49,1.068
            c-0.529,0.991-0.449,2.02,0.104,1.321c0.933-1.176,2.91-0.848,3.56,0.59c0.756,1.677-0.717,3.527-2.246,2.824
            c-0.992-0.457-1.062-0.358-0.4,0.597c0.644,0.928,0.357,2.067-0.688,2.733c-2.051,1.312-4.51-1.305-2.801-2.977
            c0.457-0.447,0.313-0.666-0.24-0.365c-2.267,1.231-3.937-1.828-1.978-3.619c0.834-0.764,1.472-0.711,2.843,0.236
            c0.426,0.295,0.508-0.011,0.2-0.758C181.539,182.616,181.28,182.273,181.28,182.273z M72.854,184.105
            c3.251-0.049,5.923,2.547,5.97,5.797c0.048,3.25-2.547,5.926-5.798,5.973c-3.25,0.049-5.927-2.551-5.974-5.801
            C67.004,186.822,69.604,184.152,72.854,184.105z M72.921,185.154c-2.67,0.039-4.805,2.231-4.767,4.902
            c0.039,2.672,2.235,4.807,4.906,4.768c2.67-0.039,4.806-2.236,4.768-4.908C77.789,187.245,75.592,185.116,72.921,185.154z
            M72.977,187.01c1.645-0.022,2.993,1.287,3.019,2.933c0.022,1.645-1.287,2.998-2.933,3.022c-1.644,0.023-2.998-1.293-3.021-2.938
            C70.017,188.385,71.332,187.034,72.977,187.01z M65.577,201.273l3.397,1.66c0,0-1.606,1.309-2.247,1.981
            c-0.815,0.867-0.76,1.273,0.345,0.857c2.104-0.791,4.212,0.395,4.251,2.577c0.053,2.916-3.396,4.318-5.052,2.111
            c-0.491-0.656-1.079-0.93-0.85-0.393c0.561,1.305,0.218,2.947-0.759,3.623c-0.781,0.541-2.211,0.698-2.934,0.323
            c-2.479-1.284-2.608-4.143-0.235-5.271c1.191-0.568,1.23-1.1,0.059-0.809c-2.441,0.608-3.867-2.347-2.104-4.378
            c1.87-2.155,4.918-1.709,5.256,1.48c0.06,0.565,0.446,0.156,0.619-0.713C65.531,203.681,65.577,201.273,65.577,201.273z
            M97.251,206.068c0,0-12.443,7.08-12.064,7.379c0.074,0.043,2.759,3.82,2.759,3.82c6.174-13.988,20.958-2.404,23.325,4.737
            c0.515,0.316,0.602,0.226,1.159,0.478c0.053-0.504,1.078-5.465,1.078-5.465L97.251,206.068z M77.297,257.493
            c-0.623,0.781-2.709,2.994-2.446,3.078c18.286,3.93,37.146,3.617,56.343,1.533l-1.466-4.611
            C110.771,262.325,77.297,257.493,77.297,257.493L77.297,257.493z"/>
        <path fill="#131F67" d="M31.314,28.02l1.121,257.077l160.477-0.566L191.95,27.71L31.314,28.02z M80.118,29.851l80.039-0.326
            c-3.754,9.745-14.564,25.144-14.054,25.181c-16.647-2.751-33.811-4.14-53.004-0.04L80.118,29.851z M33.167,30.478l44.914-0.059
            l14.813,26.553c0,0,0.869,1.656,0.351,3.391c-0.566,1.892-1.056,2.73-1.564,3.697c0.052-0.552-4.27-1.098-3.905,2.602
            c0.243,2.503,3.411,3.919,5.771,1.971c0.377-0.03,0.373,0.318,0.291,0.931c-0.217,1.435-1.74,5.984-2.785,6.288
            c-5.317-4.361-7.215,3.602-3.629,5.189c2.074,0.92,5.269,0.16,6.76-2.336c1.142-1.909,1.017-1.593,1.375,0.723
            c0.134,0.861,0.322,1.861,0.42,2.312c0.306,1.401,0,1.676-2.362,2.312c-1.902,0.74-3.83,1.15-5.791,1.574
            c-3.584,0.588-5.416,3.291-5.506,6.582c-0.021,0.711,0.006,1.041-0.146,1.252c-15.166,5.756-31.281,13.81-48.184,27.562
            L33.167,30.478z M134.999,93.525c-0.574-0.928-2.41-5.806-2.914-7.84c-1.316-9.867-1.566-21.579-2.973-30.763l1.852,0.207
            c0,0,0.697,2.659,1.447,9.845c0.371,3.561,0.76,10.964,1.067,14.367c0.47,5.058,2.754,13.146,4.17,15.187
            c2.31,3.328,6.949,1.176,5.396-2.777c-0.805-2.051-3.924-1.719-3.492,0.41c0.008,0.379,0.297-0.271,0.754-0.672
            c1.349-0.512,2.863,0.891,2.072,2.58c-0.982,2.156-3.889,1.172-4.854-1.545c-1.152-3.246,2.729-5.681,5.633-3.701
            c3.233,2.207,3.239,7.797,0.635,9.562C139.411,99.982,136.431,96.787,134.999,93.525L134.999,93.525z M145.837,97.638
            c-0.176-0.104,0.006-0.443,0.223-1.25c0.812-3.019,0.302-5.373-1.651-7.593c-1.088-1.235-1.496-1.453-0.926-1.678
            c1.206-0.475,3.875,1.463,4.606,3.367c0.725,1.869,0.904,3.805-0.113,5.918C147.266,96.858,146.165,97.767,145.837,97.638z
            M149.141,95.627c-0.004-0.352,0.234-1.465,0.289-2.01c0.211-2.105-0.772-4.244-2.516-5.914c-1.463-1.402-1.596-1.547-0.213-1.57
            c3.567-0.061,5.844,5.709,4.197,8.552C150.475,95.133,149.182,96.056,149.141,95.627z M152.161,93.676
            c1.051-4.918-3.705-8.196-3.801-8.043c0.235-1.102,2.127-0.469,2.77-0.039c2.404,1.613,3.787,5.835,2.312,8.232
            c-0.161,0.295-0.358,0.463-0.616,0.621c-0.496,0.312-0.789,0.562-0.892,0.344c-0.076-0.164,0.199-0.881,0.229-1.115H152.161z
            M110.313,77.719c0.496-0.486,0.646-0.502,1.601-0.141c2.994,1.13,5.383-1.018,4.678-3.274c-0.256-0.816-1.377-1.703-2.067-1.774
            c-1.128-0.117-1.15,0.478,0.065,0.932c1.492,0.56,1.646,2.144,0.328,2.857c-1.543,1.043-4.072-1.604-5.928-1.38
            c-0.888,0.265-1.453,1.094-0.947,2.106C108.436,77.755,109.772,78.187,110.313,77.719z M106.993,77.397
            c-1.039-0.481-1.435-0.474-1.234-1.604c0.131-0.746,1.193-5.762,1.697-7.701c1.514-5.807,0.092-9.024-4.193-10.322
            c-2.903-0.881-5.403-0.436-8.362,1.14l-0.533-1.642c12.405-3.246,33.576-2.525,33.502-2.4c0.418,1.67,0.576,3.34,0.74,5.01
            c0,0-3.968-1.945-6.037-2.594c-3.188-0.979-8.228,0.095-9.119,1.924c-0.506,1.038-0.242,1.729,1.899,0.576
            c3.507-1.888,10.664-0.449,13.188,1.553c0.582,0.461,0.553,0.562,0.563,1.103c0.017,0.825,0.064,0.873-1.084,0.26
            c-6.016-3.076-11.157-2.72-12.932,1.318c-0.408-0.123-1.969-0.393-1.969-0.393l1.676,2.479l0.318,2.593
            c0,0,2.735,1.519,4.245,2.161c1.484,0.63,0.632-0.04-1.192-1.31c-1.338-0.932-0.273-1.229,0.608-0.873
            c1.816,0.416,4.474,0.945,7.546-1.006c0.954-0.605,3.139-0.08,3.174,0.194c0,0,0.291,2.267,0.58,6.998
            c0.137,2.238,0.412,5.162,0.567,6.363c0.474,3.625,0.607,3.831-1.299,2.092c-0.641-0.582-1.707-1.551-1.721-1.492
            c-0.242,1.125,2.574,3.1,3.229,3.777c0.994,1.026,1.793,3.661,1.396,3.815c-0.252,0.101-2.926-2.168-5.031-4.207
            c-0.787-0.764-1.963-1.789-1.996-1.754c-0.436,0.291,1.332,2.285,2.988,3.775c1.932,1.74,2.154,1.896,1.506,2.158
            c-1.199,0.483-2.279-0.117-5.189-2.523c-0.282-0.234-1.385-1.016-1.438-0.961c-0.266,0.354,2.42,2.896,3.029,3.115
            c1.133,0.405,1.459,1.502,0.565,1.93c-0.596,0.287-2.817-0.93-4.6-2.475c-0.32-0.275-1.207-0.746-1.267-0.685
            c-0.354,0.228,1.64,1.949,3.539,3.094c1.861,1.121,2.158,1.396,1.685,2.328c-0.441,0.959-4.523-1.262-6.566-3.549
            c-0.436-0.486-0.778-0.697-0.69-0.533c0.889,2.468,3.815,4.232,5.993,4.937c0.39,0.129,0.951,0.285,1.205,0.485
            c0.621,0.494,0.484,1.007-0.188,1.296c-2.322,0.649-5.984-2.162-8.605-5.107c-0.303-0.125-0.121,0.26-0.043,0.387
            c2.187,3.488,6.371,6.142,8.892,5.646c1.473-0.291,2.655,0.151,2.668,0.646c0.01,0.406-0.804,1.052-2.388,1.164
            c-3.586,0.256-9.186-3.666-12.461-8.66c-0.102-0.153-0.223-0.213-0.229-0.116c-0.09,1.059,1.947,3.653,3.51,5.139
            c4.641,4.412,9.029,5.904,12.453,3.418c1.93-1.496,3.795-4.766,0.92-5.857c-1.522-0.58-2.486,1.517-1.184,0.918
            c1.711-0.205,2.1,0.701,1.877,1.556c-0.437,1.465-1.888,1.696-3.066,1.082c-2.055-1.113-1.619-4.925,1.039-5.591
            c2.396-0.579,4.486,1.451,4.762,3.38c0.427,2.991-2.948,6.229-5.655,7.034c-9.236,2.748-16.449-10.084-16.49-10.373
            c-0.463-0.893-1.021-1.364-1.371-0.323c-0.379,1.504-2.463,5.918-3.578,5.891c0.348-1.557,1.809-4.174,1.453-6.467
            c-0.615,1.883-1.916,5.899-4.402,8.039c-0.643,0.588-2.535,1.278-1.231-0.23c1.569-2.211,3.627-5.229,3.201-8.067
            c-0.416,0.639-0.646,2.252-1.121,3.317c-1.193,2.668-3.802,5.834-5.523,6.347c-1.271,0.379-1.152-0.052,0.148-1.422
            c1.396-1.47,3.866-5.785,3.705-7.646c-0.07-0.822-2.564,7.104-7.25,9.275c-1.267,0.463-1.984-0.119-1.984-0.119
            c1.842-1.062,6.93-6.076,6.449-11.773c0,0-0.271,0.844-0.672,2.109c-1.726,5.438-5.433,9.014-8.32,9.309
            c-2.305,0.236-3.916-0.692-3.344-1.104c2.989,0.021,5.446-1.013,7.366-3.927c1.951-2.961,2.679-7.721,1.496-12.758
            c-1.065-4.542-1.301-8.626-1.674-12.992c3.275,1.117,6.572,1.862,9.762,0.615c-0.319,1.303-0.852,1.463-1.692,2.445
            c-0.611,0.718-0.402,0.889,1.979-0.794c0.693-0.49,0.943-0.883,1.068-0.751c0.205,0.212-0.111,1.552-0.805,4.222
            c-1.037,3.993-0.769,4.279,3.067,5.784c0.715,0.281,0.982,0.555,1.232,0.854c0.117,0.142,0.748,1.273,0.807,1.314
            c0.142,0.094,0.104-1.156,0.027-1.473c-0.207-0.838-0.66-1.467-1.058-1.717C108.777,77.777,107.688,77.715,106.993,77.397
            L106.993,77.397z M179.411,129.478l0.039-4.146l4.026,2.857l-0.049,1.369L179.411,129.478z M172.529,130.377l-0.148-76.68
            c0,0,3.092-2.055,4.637-3.071c0.968,3.04,0.959,9.56,0.599,12.462c-0.605,1.892-0.875,10.306-0.189,14.586
            c0.547,3.413,0.447,9.058-0.068,11.759c-0.202,1.055-0.047,6.002,0.332,10.577c0.291,3.498,0.207,6.679-0.215,8.498
            c-0.334,1.435-0.219,6.572,0.162,8.545c0.56,2.9,0.652,12.218,0.402,12.724C177.374,130.528,172.181,130.633,172.529,130.377z
            M178.654,50.131c0,0,3.112,2.057,4.614,3.084l0.021,3.305l-4.498-2.938L178.654,50.131z M132.179,55.469l1.926,0.119
            c0.769,3.993,1.101,8.532,1.404,13.083c0.098,7.018,0.965,14.417,2.611,19.269l-1.414,1.483c-2.412-5.559-2.603-14.328-3.14-20.262
            C133.331,62.489,132.233,55.513,132.179,55.469L132.179,55.469z M179.026,54.77l4.188,2.834l0.043,3.594l-4.219-2.799
            L179.026,54.77z M134.958,55.734l1.69,0.184c0.515,4.741,1.304,7.958,1.603,13.182c0.389,6.754,1.561,12.301,2.287,17.576
            l-1.267,0.422c-0.848,0.39-2.254-5.846-2.879-18.483C136.204,64.787,135.556,60.485,134.958,55.734L134.958,55.734z
            M137.514,55.911l2.021,0.362c0.895,12,2.305,23.27,3.782,29.729l-1.756,0.115c-2.178-9.229-2.319-19.909-4.045-30.207
            L137.514,55.911L137.514,55.911z M140.432,56.337l1.855,0.321c2.231,27.444,3.611,27.09,4.041,28.168l-2.008,0.813
            C142.149,77.755,141.712,66.638,140.432,56.337L140.432,56.337z M148.858,83.293c-0.315,0.924-1.069,0.838-1.891,0.933
            c-0.92-2.521-1.457-5.527-1.842-8.472c-0.848-6.466-1.152-12.527-2.035-18.907l2.215,0.227
            C145.233,57.121,146.876,79.574,148.858,83.293L148.858,83.293z M101.225,59.17c2.918,0.142,5.34,1.45,5.572,3.367
            c0.053,0.432-0.289,0.222-0.684-0.081c-2.511-1.924-5.367-2.521-8.814-1.282c-0.752,0.271-1.367,0.696-1.703,0.639
            c-0.301-0.192-0.395-0.66-0.164-1.046C96.238,59.422,99.782,59.101,101.225,59.17z M94.46,63.02
            c0.062,3.022-0.674,4.688-2.26,5.388c-1.914,0.843-4.369-0.962-3.177-2.981c0.902-1.526,2.451-1.065,2.748,0.537l2.433-5.415
            C94.204,60.547,94.452,62.263,94.46,63.02L94.46,63.02z M183.294,62.535l-0.027,3.115l-4.487-2.999l0.301-2.995L183.294,62.535z
            M103.679,62.128c2.211,0.876,3.023,1.945,3.104,2.421c-0.127,0.354-0.349,0.112-1.963-0.759c-2.486-1.523-5.728-1.772-8.574,0.162
            c-0.709,0.141-0.781-0.262-0.07-1.026C98.343,61.228,101.341,61.203,103.679,62.128z M120.47,61.545
            c1.945-0.062,4.271,0.434,6.234,1.418c0.869,0.437,1.647,0.708,2.215,1.209c0.453,0.235,0.488,1.264,0.156,1.341
            c-0.295,0.041-0.779-0.188-1.504-0.694c-4.668-3.03-8.025-2.657-10.726-0.792c-0.147,0.104-0.613,0.21-0.797,0.195
            c-0.514-0.038-0.541-0.25-0.326-0.527C116.973,62.282,118.841,61.602,120.47,61.545L120.47,61.545z M178.792,63.728l4.498,3.143
            l-0.002,3.091l-4.781-3.325L178.792,63.728z M97.606,64.984l0.658,0.019c1.529,3.709,3.451,1.797,4.248,0.312l0.799,0.13
            C102.059,70.412,96.966,67.813,97.606,64.984L97.606,64.984z M96.49,65.478c0.743,0.09,0.717,0.931,0.948,1.542
            c0.521,1.368-1.45,0.211-1.789-0.122C95.077,66.295,95.889,65.539,96.49,65.478z M118.751,65.333
            c1.938,2.95,3.057,1.203,4.162-0.081l0.526,0.168c-0.139,2.118-3.704,4.376-5.396-0.035L118.751,65.333z M124.714,65.666
            c0.207,0.004,0.623,0.152,1.006,0.309c1.062,0.429,1.006,0.741-0.17,1.265c-1.877,0.836-2.531,0.943-1.969-0.236
            C123.906,66.462,124.12,65.747,124.714,65.666L124.714,65.666z M117.345,66.116c0.474,0.348,0.783,0.73,0.838,1.355
            c0.039,0.441-1.428-0.065-1.424-0.769C116.804,66.257,117.046,65.897,117.345,66.116z M104.35,66.284
            c0.963,0.357,0.849,0.816,0.179,1.232c-1.207,0.672-1.724,0.539-0.943-0.518C103.945,66.513,104.022,66.294,104.35,66.284z
            M178.491,67.838l4.871,3.425l-0.043,3.144l-4.867-3.317C178.225,69.742,178.438,68.837,178.491,67.838L178.491,67.838z
            M94.318,72.704c0.229,0.006,0.321,0.77,0.375,1.886c0.09,1.855-1.8,4.44-3.707,5.331c-2.302,1.072-4.765-0.432-4.353-2.66
            c0.381-2.054,3.297-2.139,3.408-0.24c-0.283,0.499,0.113,0.917,0.277,0.873c0.75-0.201,2.52-1.793,3.237-3.574
            c0.281-0.694,0.451-1.408,0.652-1.57C94.249,72.716,94.284,72.703,94.318,72.704z M178.361,72.125l4.866,3.551l0.021,3.124
            l-4.826-3.32C178.231,74.087,178.315,73.094,178.361,72.125L178.361,72.125z M119.302,77.071c-0.367,0.618-0.065,1.725,0.688,0.782
            c1.938-2.258,4.748,0.566,3.246,2.362c-1.363,1.629-3.041,1.104-6.586-0.248c-2.582-0.985-2.988-0.649-3.625,0.062
            c-0.523,0.588-0.259,1.768,0.422,1.754c2.092,0.475,3.903,0.938,6.067,1.387c4.578,0.939,7.371-4.957,3.189-7.124
            C121.702,75.528,119.632,76.2,119.302,77.071z M99.098,77.75c-1.783,1.601-0.319,5.806,2.31,6.183
            c0.549,0.077,1.371,0.055,2.303-0.214c1.84-0.53,3.865-1.618,3.949-2.252c0.377-2.879-3.91-0.299-4.478,0.043
            c-1.352,0.82-2.782,0.716-3.504-0.26c-1.623-2.197,1.287-4.716,3.056-2.028c0.446,0.678,0.288-0.472-0.197-1.252
            C101.85,76.867,100.075,76.939,99.098,77.75z M178.682,76.842l4.574,3.234l-0.025,3.006l-4.436-3.197L178.682,76.842z
            M179.024,81.244l4.334,3.117l0.074,3.125l-4.549-2.992C178.973,83.369,178.995,82.312,179.024,81.244L179.024,81.244z
            M154.736,83.039c3.809,0.064,5.956,5.691,3.948,8.033c-0.598,0.697-1.073,0.883-1.346,0.623c-0.059-0.056,0.037-0.687,0.076-1.396
            c0.125-2.268-0.357-3.821-2.019-5.545C154.151,83.461,153.682,83.064,154.736,83.039z M107.829,83.939
            c-0.722,0.256-1.48,0.774-2.07,0.646c-0.582-0.125-0.861,0.162-1.088,0.619c-0.873,1.746-0.604,2.312,1.125,1.318
            c0.82-0.472,1.107-0.302,3.303,0.112c1.568,0.295,2.636,0.267,4.017-0.092c1.717-0.445,2.737-0.479,3.606-0.006
            c0.867,0.475,1.461,1.129,1.484,0.598c-0.099-0.625-0.642-2.219-0.767-2.748c-0.061-0.254-0.487-0.03-0.893-0.002
            c-1.422,0.104-3.119-1.176-4.217-0.498c-0.879,0.541-0.996,0.683-2.203-0.024C109.229,83.334,108.606,83.66,107.829,83.939z
            M153.71,84.328c2.58,2.154,3.24,4.064,2.99,5.633c-0.127,1.142-0.213,2.4-1.33,3.088c-0.207,0.099-0.515,0.158-0.799,0.201
            c0.866-3.24-0.154-6.143-3.802-9.235C151.831,83.489,152.913,83.662,153.71,84.328z M95.532,84.323c0.114,0,0.239,0.02,0.369,0.061
            c0.446,0.148,0.518,1.32,0.165,1.687c-0.354,0.367-0.637,0.063-1.045-0.865C94.718,84.696,95.036,84.324,95.532,84.323z
            M93.152,85.235c0.94-0.021,1.297,0.844,1.459,1.53c0.139,0.585-0.035,2.332-0.535,1.724c-0.121-0.369-0.633-1.564-1.041-1.875
            C92.122,85.922,92.212,85.254,93.152,85.235z M90.499,86.105c0.137-0.004,0.313,0.012,0.529,0.049
            c1.469,0.246,2.596,2.586,2.254,3.914c-0.779,1.428-1.066,0.465-1.322-0.83c-0.201-0.537-0.805-1.379-1.174-1.812
            C90.02,86.523,89.904,86.119,90.499,86.105z M178.899,85.424l4.478,3.207l0.008,3.435l-4.686-3.148
            C178.802,87.715,178.856,86.566,178.899,85.424L178.899,85.424z M87.591,86.816c2.193,0.004,4.064,2.553,3.373,5.01
            c-0.857,2.564-5.125,2.018-4.416-0.539c0.203-0.734,0.988-1.271,1.736-0.812c1.082,0.664,0.965-0.415,0.276-0.801
            c-1.061-0.592-2.52-0.233-2.844,0.965c-1.133,4.183,4.242,5.607,7.166,1.287c1.07-1.578,2.232-3.268,2.875-3.987
            c0.578-0.646,0.701-0.578,0.607,0.256c-0.373,3.885-3.08,8.739-8.16,8.475c-4.938-0.471-6.48-5.707-2.752-8.977
            c0.625-0.549,1.285-0.82,1.924-0.867C87.45,86.817,87.52,86.816,87.591,86.816z M113.751,87.028
            c-1.807,0.875-3.443,1.205-5.223,0.432c-1.314-0.571-1.293,0.049-0.724,0.56c1.652,1.405,4.656,0.77,5.943-0.021
            C114.165,87.739,114.304,86.994,113.751,87.028L113.751,87.028z M183.389,93.237l0.017,3.123l-4.998-3.349
            c-0.08-0.748,0.004-1.883,0.168-3.057L183.389,93.237z M178.573,94.28l4.758,3.133l0.127,3.096l-4.625-2.866L178.573,94.28z
            M178.906,98.621l4.545,3.144l0.065,3.379l-4.504-2.963L178.906,98.621z M68.048,102.172l-2.781,8.406l1.82,0.109l1.23,2.217
            l1.264-2.271l1.916-0.146L68.048,102.172z M179.095,103.295l4.381,3.011l0.066,3.12l-4.553-3.146L179.095,103.295z
            M178.917,107.115l4.49,3.244l0.09,3.313l-5.09-3.391L178.917,107.115z M78.421,108.99l-2.754,9l1.553-0.211l1.453,2.406
            l1.469-2.162l1.394,0.078L78.421,108.99z M57.684,109.66l-2.623,8.945l1.759-0.009l1.483,2.257l1.303-2.179l1.994-0.053
            L57.684,109.66z M178.331,111.308l5.271,3.696l0.043,3.521l-5.108-3.422L178.331,111.308z M183.542,119.668l0.059,3.084
            l-4.436-3.155l-0.48-3.425L183.542,119.668z M89.443,120.199l-3.222,9.09l2.16,0.021l1.312,2.182l1.047-2.193l1.735,0.019
            L89.443,120.199z M179.458,121.107l4.113,2.819l-0.031,3.166l-4.051-2.715L179.458,121.107z M101.47,157.89l-2.344-2.253
            c-0.029-0.184,1.916-1.127,3.115-0.526c1.582,0.793,2.395,3.641,0.623,5.139c-1.41,1.193-3.562,0.201-3.604,0.062L101.47,157.89z
            M99.384,154.174c0.041-3.479-1.791-4.373-3.307-5.077c0,0-0.254-22.056-0.222-22.716c0,0.099-0.389-2.387-0.434-2.534l0,0
            c0,0.002-0.363-0.097-0.363-0.093c0.062,2.236,0.209,25.152,0.174,25.302c-2.836,0.327-3.629,2.247-3.887,4.825
            c-2.213-0.166-3.651,1.166-3.697,1.388c-0.815-1.123-0.206-2.775-0.854-3.947c-1.961,6.857,1.854,10.961,5.182,10.579
            c0.535,6.586,7.787,7.774,7.541-0.211C108.292,161.172,105.32,153.108,99.384,154.174L99.384,154.174z M58.159,126.487
            l-3.177,8.906l2.228-0.255l0.812,1.644c3.566-3.144,5.367,1.709,3.554-2.451L58.159,126.487z M178.911,142.332
            c0.41-0.029,0.949,0.34,1.057,0.844c0.078,1.502-1.942,1.164-2.008,0.216C177.915,142.717,178.526,142.362,178.911,142.332z
            M180.231,152.11c0.871-0.715,2.259-0.312,2.281,0.768c0.021,0.955-1.076,1.271-1.934,0.732
            C179.915,153.205,179.874,152.449,180.231,152.11L180.231,152.11z M180.354,154.76c4.777,0.363,8.33-2.881,6.81-5.209
            c1.281-1.612,0.235-2.538,0.586-3.465c1.016-1.039,0.166-3.272-0.088-3.283c-0.207-3-1.078-3.383-2.377-4.981
            c-0.39-0.463,0.909-0.916,1.407-1.713c-1.319,0.508-2.616-0.472-2.608-0.695l-0.562-0.697c-8.846,0.412-16.789,1.029-16.487,13.023
            c-1.273,5.09,0.883,9.625,7.057,8.223c1.352-1.207,0.461-2.957,0.297-3.797c-0.527-2.313,0.08-3.815,0.25-4.9
            c0.525-3.354,2.982-6.465,3.25-1.211c0.43-0.657,0.228-0.756,0.938-1.028c1.694-0.611,1.692,1.102,1.346,1.793
            c-0.223,0.354-0.56,0.324-0.904,0.285c-0.492-0.06-1.137-0.242-1.146-0.423c-0.133,0.546,0.896,1.56,0.789,2.07
            c-0.138,0.486-0.226,0.447,0.227,0.125c2.127-1.521,3.459,1.879,0.381,1.49C181.031,151.176,178.786,153.547,180.354,154.76z
            M177.204,136.457c1.678-0.086,2.08-0.102,2.002,0.779c0.317,1.623,0.725,2.377,2.844,2.207c2.133-0.277,2.812-0.412,0.662,0.879
            c-1.084,0.477-1.438,0.57-2.723,0.455c-1.298-0.117-1.197-0.248-1.938,0.194c-0.412,0.246-0.865,0.548-1.201,0.607
            c-0.498,0.092-1.377,0.283-1.377,0.283c-0.498,2.521-1.258,3.791-2.303,4.99c-1.479,1.68-2.229,1.975-0.416,1.848
            c0.67,0.043,0.324-0.293,0.617,2.426c0.102,0.951,0.281,2.058,0.422,2.426c0.471,1.24,0.533,1.855-1.258,1.943
            c-4.474,0.338-5.519-4.014-4.922-6.238c0.051-0.35,0.256-1.508,0.299-2.426c0.024-0.502-0.076-0.928-0.064-1.44
            c0.103-4.146,1.086-5.24,4.769-7.938C173.727,136.642,175.722,136.476,177.204,136.457z M181.134,136.681
            c2.064-0.044,4.06,0.948,3.064,1.594c-0.644,0.416-2.968,0.242-3.611-0.217C179.755,137.465,180.067,136.701,181.134,136.681z
            M89.059,140.201l-0.817,1.449l-0.855,6.752l0.152,1.369l1.688,2.215l1.336-2.297l2.104,0.037L89.059,140.201z M185.6,139.53
            c1.338,0.268,1.392,1.488,1.051,2.238c-0.747,1.651-5.75,2.45-5.75,2.452c-0.04-0.711,0.06-1.395-0.461-2.19
            c0,0,3.33-0.873,4.035-1.517C184.947,140.086,185.231,139.543,185.6,139.53L185.6,139.53z M186.591,143.287
            c0.484,0.006,0.742,0.357,0.873,1.072c0.062,0.383-0.082,0.709-0.393,1.127c-1.271,1.381-4.843,2.336-6.132,1.983
            c-0.09-0.118,0.129-1.571,0.224-2.219C182.88,145.306,185.77,143.781,186.591,143.287z M135.704,151.785
            c-1.707-2.461-5.49-2.1-5.084-1.928c0.026-2.107-0.334-5.002-3.531-5.31c-3.227-0.244-4.885,4.011-3.66,5.812
            c-1.99-0.826-4.977,1.246-4.977,1.438c-0.254,0.011-2.535,6.038,4.369,6.349c0.627,2.848,1.704,4.223,3.909,5.395l0.056,23.23
            l0.778,1.055l0.07-24.346c3.533-0.156,3.969-4.199,3.707-5.131c1.568,0.067,2.994-0.248,4.195-1.162l0.412,3.967
            c0,0,0.828-1.398,0.646-2.144c-1.537-22.814,6.715-47.494,17.551-63.492c0.58-0.672,0.757-1.476,1.043-1.48
            c2.644-1.424,4.312-2.381,4.312-2.381c4.356,2.094,12.137,7.148,12.137,7.148l0.127,32.51c-0.121-0.32,14.498-1.631,14.277-1.236
            c0,0-1.279-0.502-1.299-1.354l-0.381-76.078l-6.396-4.178c0,0-5.258,3.437-6.729,4.609l0.159,44.79l-11.328-6.635
            c0,0,0.183-1.586,0.199-2.101c-0.182-6.11-3.184-8.161-8.896-6.35c-0.767,0.244-1.297,0.457-1.672,0.145
            c-2.406-7.032-3.488-25.51-3.484-25.51l16.121-27.311l27.352-0.15l0.474,104.351l0.988,54.695l-13.96,10.166l-0.202-35.037
            c0,0-2-0.957-2.523-1.021c-0.197-0.017-0.451,0.426-0.096,0.651c0.514,0.326,1.774,0.785,1.774,0.785l0.297,34.728
            c0,0-5.428,3.651-7.854,5.174c-1.812,1.125-7.531,4.006-10.92,5.664c-1.314,0.645-2.644,1.16-2.767,1.262
            c-4.614,1.982-8.776,3.371-12.625,5.418c-2.655,1.086-2.534,0.021-3.102-0.846c-5.539-5.479-12.693-5.803-18.488-3.271
            c-0.897,0.332-2.01,0.621-2.76,1.144c-0.217,0.16-0.596,0.34-0.844,0.397c-0.508,0.121-1.064,0.347-1.531,0.716
            c-0.832,0.659-1.387,1.733-1.863,2.801c-0.295,0.66-1.182,3.74-1.299,4.651c-0.02,0.152,0.297,0.119,0.307,0.136
            c0.041,0.055,0.892-3.73,1.229-4.447c0.721-1.529,1.629-2.445,2.109-2.59c0.219-0.037,0.409,0.305,0.112,0.844
            c-0.592,1.07-1.071,3.348-1.217,4.373c-0.127,0.947-0.154,1.709,0.023,1.742c0.03,0.028,0.869-2.869,1.246-3.894
            c0.981-2.666,1.602-3.771,2.547-4.34c0.971-0.584,1.201-0.502,1.01,0.117c-1.443,2.815-2.039,4.945-2.322,7.945
            c-0.043,0.598,0.26,0.614,0.498-0.377c0.791-3.146,1.877-7.406,4.441-8.679c1.096-0.494,1.582-0.471,1.465-0.117
            c-3.055,3.857-3.818,8.144-3.783,9.525c0.012,0.461,0.199,0.369,0.592-0.631c1.033-3.801,2.566-7.035,4.388-8.621
            c0.705-0.613,1.557-0.783,2.271-0.871c2.156-0.268,2.23,0.531,0.354,1.625c-2.14,1.244-4.611,5.775-4.888,9.176
            c-0.096,1.179,0.322,1.306,0.615-0.264c1.271-6.762,7.066-11.229,11.713-9.16c2.09,0.933,2.469,2.226,0.648,1.65
            c-3.685-1.166-7.773,1.443-9.459,5.086c-1.525,3.293-1.494,5.021-0.422,9.432c0.731,4.072,2.155,9.277,1.688,13.267
            c-0.508,0.774-2.106-0.318-3.996-0.551c-1.139-0.214-2.53-0.269-3.721,0.188c-1.037,0.398-1.625,0.496-1.818-0.061
            c-0.061-0.181,0.802-1.06,1.187-1.545c0.613-0.775,0.262-0.898-0.604-0.058c-0.424,0.412-1.334,1.379-1.582,1.428
            c-0.547,0.111-0.567-0.504-0.129-2.071c1.547-6.084,1.133-6.188-1.52-7.42c-2.629-1-1.797-1.507-2.963-2.502
            c-0.82,0.641,1.071,3.581,3.213,4.225c1.752,0.525,1.539,1.422,0.771,3.83c-0.776,3.371-2.104,7.832-1.338,10.826
            c1.613,6.291,8,6.162,12.894,3.619l0.596,1.604c-4.135,1.676-25.934,3.105-33.279,2.262c-0.567-1.983-0.625-2.495-0.854-4.832
            c0,0,4.539,2.05,6.805,2.404c2.828,0.443,7.184,0.465,8.299-2.141c0.342-0.763-0.01-1.408-0.985-0.967
            c-1.793,0.813-4.859,1.416-7.337,1.262c-2.079-0.127-5.045-0.963-6.325-1.734c-0.607-0.364-1.121-1.084-0.646-1.983
            c0.422-0.095,0.979,0.373,1.308,0.543c3.752,1.893,5.811,2.26,8.258,1.535c1.854-0.552,4.356-2.556,3.737-3.121
            c-0.627,0.217-2.706,1.963-4.141,2.344c-2.951,0.785-6.1-0.416-9.166-2.402c-0.945-0.819-0.514-1.42,0.646-0.762
            c4.594,2.311,6.51,3.846,10.903,0.6c0.982-0.727,1.529-0.635,2.107-0.192c2.281,2.043,2.272,0.896,0.602-1.228
            c-0.379-0.481-0.723-1.158-0.951-1.877c-0.168-0.531-0.204-1.063-0.51-1.414c-0.518-0.596-1.451-0.885-2.52-1.354
            c-1.539-0.678-2.051-0.353-0.914,0.203c1.99,0.969,2.959,2.01,0.485,1.448c-2.243-1.004-5.991-0.44-8.11,1.029
            c-1.664,0.812-2.398,1.68-2.791-0.156c-0.822-3.83-0.021-9.028-1.123-15.717c-0.211-1.272-0.469-2.082-0.201-2.258
            c0.342-0.223,1.197,0.602,2.256,2.09c0.482,0.678,1.441,1.982,1.438,1.711c0.035-1.416-2.166-4.074-3.984-5.121
            c-0.998-0.573-1.678-3.231-0.535-2.647c0.883,0.43,5.472,4.465,6.347,5.901c0.405,0.668,0.748,0.242,0.317-0.545
            c-0.258-0.471-1.336-1.854-2.385-2.877c-1.857-1.815-2.074-1.729-1.717-2.104c0.707-0.736,2.219,0.213,4.914,2.651
            c0.69,0.871,1.604,1.66,1.492,1.228c0.274-0.681-2.423-3.58-4.023-4.357c-0.299-0.188-0.34-0.385-0.312-0.746
            c0.152-1.368,3.25,0.644,5.82,2.992c0.963,0.879,0.166-0.774-0.949-1.899c-0.877-0.886-2.291-1.984-3.248-2.361
            c-0.95-0.394-1.012-1.221-0.266-1.57c2.578-0.108,5.236,2.523,6.822,4.594c0.438,0.568,0.84,1.009,0.385-0.067
            c-1.469-3.242-4.523-5.068-6.639-5.438c-1.72-0.301-1.683-1.852-0.066-1.676c1.777,0.193,4.688,1.797,7.152,4.277
            c0.719,0.723,1.926,2.36,1.678,1.399c-0.006-0.262-0.764-1.289-1.639-2.276c-2.019-2.004-4.363-3.775-6.851-4.304
            c-1.164-0.327-4.612,0.339-4.635-0.262c-0.01-0.44,0.361-0.707,1.459-1.072c4.266-1.418,10.51,2.246,13.926,7.88
            c0.244,0.401,0.707,0.573,0.734,0.483c-1.648-4.604-6.771-8.776-10.846-9.492c-2.771-0.444-5.566,0.263-6.896,2.129
            c-1.494,2.103-0.91,4.912,1.336,4.688c1.178-0.109,1.084-0.777,1.062-0.799c-0.08-0.078-0.767,0.242-1.189,0.16
            c-1.535-0.304-1.373-3.078,0.873-2.806c2.584,0.316,2.949,4.392,0.062,5.248c-2.664,0.789-3.642-0.428-4.369-1.871
            c-1.068-2.114,0.078-5.522,1.961-6.832c5.27-3.657,11.934-0.592,15.699,3.037c1.862,1.795,3.225,3.931,4.079,6.23
            c0.22,0.535,0.615,0.504,0.476-0.07c-5.297-13.51-21.103-14.971-23.449-4.604c0,0-0.082,0.315-1.602-1.845
            c-2.466-3.502-6.146-4.282-10.677-1.895c-4.58,1.719-6.123,2.813-9.299,4.457c-0.463,0.164-3.397,2.188-3.869,1.768
            c-4.496-2.979-8.418-3.998-10.553-6.184c0.074-0.4-0.305-6.459-0.305-6.459l0.104-26.125c0.033-0.256-2.379,0.174-6.396,0.803
            c-10.678,2.131-9.744-3.484-11.156-3.879c-0.748-0.15-0.69,0.17-0.895-19.971c-0.062-5.851-0.176-16.136-0.262-22.856
            c-0.087-6.721-0.109-12.318-0.05-12.438c0.061-0.12,0.66-0.634,1.353-1.123c2.602-1.845,4.062-2.959,9.758-7.306
            c1.289-0.981,1.613-1.147,1.613-1.147c0.653,12.1,0.067,24.809,0.389,35.211l0.481,0.002l-0.188-34.933
            c-0.981-0.258,22.453-13.971,35.297-18.42c0.24-0.082,0.842,0.185,0.842,0.185c7.371,9.035,26.767,6.299,28.33-4.697
            c3.213,6.703,17.33,19.73,23.781,4.027c0,0,2.338,4.512,4.344,4.809c4.508,0.598,5.008-0.113,14.932-4.926
            C142.761,111.49,136.505,129.713,135.704,151.785L135.704,151.785z M129.673,147.492c0.248,0.76,0.332,1.744,0.119,2.521
            c-0.289,0.604-0.721,0.598-0.721,0.598l-2.197-1.879l-2.15,1.994c0,0-1.313-1.326-0.592-3.162
            C125.507,144.996,128.654,145.459,129.673,147.492z M186.447,147.191c1.405-0.088,0.68,1.528-1.402,2.627
            c-1.305,0.688-2.389,0.881-2.857,0.633c-0.256-0.76-0.038-1.453,0.121-1.762C183.197,148.233,185.636,147.433,186.447,147.191
            L186.447,147.191z M95.636,150.239c1.562-0.037,2.916,1.074,2.967,3.045c0.021,0.803-0.393,1.6-0.393,1.6l-2.609-1.924
            l-1.993,2.125c-0.341,0.119-1.562-1.404-0.722-3.061C93.495,150.819,94.568,150.265,95.636,150.239z M133.368,151.144
            c2.194,0.996,2.576,4.063,0.44,5.248c-1.016,0.561-2.61,0.875-3.358-0.263l2.157-2.354l-2.477-2.084
            C130.034,151.597,132.029,150.535,133.368,151.144L133.368,151.144z M186.059,150.336c0.379,0,0.476,0.146,0.584,0.498
            c0.31,1.002-0.475,2.013-1.825,2.33c-1.248,0.295-1.13,0.441-1.722-0.676c-0.465-0.873-0.588-0.836,0.137-1.113
            C184.111,151.09,185.048,150.758,186.059,150.336z M123.626,151.842c0,0-1.559,1.582-2.24,2.244l2.344,2.445
            c0.113,0.299-2.702,1.573-4.186-0.35c-0.961-1.25-0.42-3.625,0.945-4.439C121.886,150.91,123.884,151.603,123.626,151.842z
            M126.983,151.567c1.384-0.021,2.521,1.082,2.539,2.467c0.021,1.383-1.084,2.522-2.467,2.543c-1.385,0.021-2.524-1.088-2.545-2.471
            C124.491,152.722,125.598,151.586,126.983,151.567z M92.731,155.781l-2.247,2.354l2.432,2.646c0,0-1.924,0.314-2.607,0.188
            c-3.309-0.618-2.983-4.5-0.426-5.525C90.962,155.064,91.764,155.191,92.731,155.781L92.731,155.781z M48.616,156.58
            c0,0,0.44,4.985,0.846,6.688c-0.266,1.942-1.521,3.266-2.088,5.26c-0.301,0.887-1.434,2.08-1.652,0.83
            c-0.815-1.545-0.034-3.455-0.711-4.556c-0.342-1.024-0.239-1.618-0.469-2.694c-0.498-0.873-0.899-1.287-0.832-2.08
            c-0.135-3.524-1.014-2.826-2.578-2.537c-1.289,0.424-3.028,0.596-4.049,1.35c-2.217,1.562-1.01,2.455-1.846,4.81
            c0.133,1.03,0.385,1.403,0.203,2.293c-0.854,4.207,0.723,3.856,0.676,3.924c-0.658,0.965,0.152,3.141,0.467,3.029
            c1.926,0.471,1.229,1.877,1.854,2.623c0.629,0.721,0.596,1.084,3.231,1.149c4.764,0.371,12.334-0.336,13.971-6.145
            C56.659,162.335,58.152,155.119,48.616,156.58z M95.975,155.78c1.336-0.021,2.435,1.047,2.453,2.383
            c0.021,1.336-1.047,2.435-2.383,2.453s-2.434-1.047-2.453-2.383C93.573,156.898,94.639,155.799,95.975,155.78z M50.702,157.049
            c0.899-0.01,1.961,0.179,2.834,1.017c1.869,1.791,1.951,3.416,1.121,10.313c-0.234,1.943-0.918,3.566-1.824,4.273
            c-1.82,1.422-4.049,2.436-5.885,2.887c-0.969,0.238-1.812,0.244-2.467,0.238c-0.709-0.004-1.121-0.332-1.175-0.926
            c0.156-1.605-1.483-1.763-2.434-1.673c-1.693,0.068-1.867,0.246-0.811-0.571c1.205-0.935,3.983-0.947,4.512-0.4
            c1.084-1.084,2.213-1.211,3.596-1.371c-0.205-0.303-0.699-1.506-0.371-2.276c0.715-1.261,1.92-3.48,3.187-4.314
            c1.25-1.635,0.188-0.896-0.589-0.867c-0.442,0.017-0.405-0.131-0.479-0.428c-0.309-1.275-0.754-3.658-0.758-5.076
            C49.161,157.191,49.802,157.062,50.702,157.049z M42.73,158.816c0.489,0.436,0.483,1.041-0.029,1.494
            c-0.588,0.516-1.756,0.229-1.783-0.74C40.995,158.587,42.138,158.31,42.73,158.816z M127.147,162.269
            c-2.028,0.102-3.7-2.07-2.936-4.234c0.418-0.586,0.6-0.502,0.6-0.502l2.312,2.064l2.217-2.318
            C131.167,159.482,129.598,162.105,127.147,162.269z M40.257,158.907c-0.166,0.633,0.054,1.264,0.08,1.572
            c-0.401,0.287-2.115,0.787-3.035,1.239c-0.639,0.22-1.1-0.381-1.012-0.93c0.242-1.02,1.742-1.686,2.832-2.002
            C39.46,158.706,40.014,158.674,40.257,158.907z M40.634,161.827c0.617-0.076,0.437,1.271,0.203,1.959
            c-0.229,0.492-0.91,0.471-1.521,0.508c-1.082,0.062-2.443,1.31-3.029,1.107c-0.193-0.088-0.332-0.603-0.354-0.928
            C36.06,162.676,39.046,162.019,40.634,161.827L40.634,161.827z M43.9,163.698c-0.205,0.301-0.869,0.447-1.424,0.295
            c-0.908-0.25-1.048-1.553-0.25-2.002C43.632,161.527,44.478,162.847,43.9,163.698z M133.613,160.732l-1.23,1.875l-1.873-0.035
            l3.025,9.283l1.399-3.627c0.188-1.668,0.408-3.332,0.582-5.002L133.613,160.732z M93.788,161.512l2.395,1.953l2.054-2.1
            c1.526,3.406-0.232,4.965-2.105,4.924C94.065,166.243,91.863,164.286,93.788,161.512z M41.238,165.034
            c0.758-0.145,0.434,1.904,0.328,1.963c-0.484,0.18-2.572,0.453-3.451,1.193c-1.873,1.467-2.672,0.572-1.805-1.187
            C37.132,165.984,40.15,165.053,41.238,165.034z M43.618,165.129c0.836-0.078,1.42,0.847,0.91,1.726
            c-0.691,0.645-1.904,0.172-1.898-0.738C42.624,165.544,43.097,165.161,43.618,165.129z M42.388,170.331
            c0.115,0.479-0.053,0.33-0.93,0.588c-0.481,0.144-1.242,0.465-2.033,0.865c-1.159,0.584-1.483,0.9-1.896,0.834
            c-0.328-0.072-0.705-0.213-0.808-0.545c-0.403-1.324,0.677-2.676,3.188-3.602c0.523-0.193,1.457-0.351,1.777-0.386
            C42.54,168.088,41.628,169.4,42.388,170.331z M43.874,168.338c1.213-0.018,1.441,1.595,0.533,1.877
            C42.279,170.767,42.458,168.337,43.874,168.338z M42.376,174.277c0.342,0.328,0.39,0.867,0.006,1.146
            c-0.7,0.347-3.396,0.052-3.414-0.705c-0.01-0.498,0.892-0.668,1.729-0.684C41.532,174.019,42.103,174.015,42.376,174.277z
            M164.032,175.105l-2.222,2.969l2.98,7.459l2.721-9.031l-2.139,0.846L164.032,175.105z M38.411,182.767
            c0.514,22.971,0.426,75.606,0.426,75.606l6.537,4.443l6.883-4.947c-0.07-16.566-0.137-27.996-0.201-43.334l10.086,5.539
            c0,0,0.31,0.447,0.263,2.52c-0.697,5.724,4.84,9.439,8.512,7.181c1.418-0.597,1.533-0.701,1.832-0.254
            c0.826,1.231,1.758,6.504,1.912,9.869c0.233,5.067,1.567,15.401,1.891,15.473l-16.416,27.813l-25.59,0.125l-0.293-103.442
            C35.581,180.924,36.187,181.952,38.411,182.767L38.411,182.767z M133.665,180.551l-1.23,1.882l-1.485-0.003l2.604,9.613
            l3.154-9.399l-1.738-0.216L133.665,180.551z M51.468,257.215c0,0-3.195,2.293-4.215,2.951c-0.537,0.201-0.797,0.238-0.924-0.272
            c-0.156-0.632,0.096-1.824,0.317-3.798c0.205-1.821,0.203-1.926-0.1-4.522c-0.316-2.715-0.354-2.828-0.098-6.412
            c0.287-3.996,0.342-7.877,0.024-10.279c-0.301-2.283-0.297-7.492-0.065-10.399c0.28-3.562,0.188-6.685-0.275-9.267
            c-0.832-4.604-0.969-6.19-0.104-9.653c0.323-1.298,0.485-1.986,0.418-4.158c-0.074-2.414-0.119-3.201-0.984-8.547
            c-0.496-3.076-0.535-3.498-0.067-8.367c0.094-0.982,0.125-1.642,0.5-1.951c0.438-0.365,4.991-0.631,4.991-0.631L51.468,257.215z
            M39.488,182.855l4.963-0.056c-0.385,1.554-0.471,2.736-0.51,3.859l-4.408-2.896L39.488,182.855z M39.56,184.838l4.362,2.851
            c0.006,1.201-0.084,2.348,0.09,3.549l-4.424-2.937L39.56,184.838z M39.568,189.361l4.67,3.19c0.184,1.244,0.562,2.502,0.709,3.619
            l-5.295-3.584L39.568,189.361z M190.593,190.618l0.246,91.719l-46.49,0.207l-14.733-28.309c0,0,0.149-2.605,0.514-3.935
            c0.441-1.604,0.559-1.957,1.176-2.03c1.654,0.854,3.498-0.283,4.062-1.537c0.694-1.543-0.713-3.881-2.871-4.388
            c-0.953-0.227-1.994,0.201-3.045,1.005c-0.611,0.51-0.748,0.567-0.869,0.125c-0.273-1,0.613-3.718,2.199-6.048
            c0.883-1.297,1.121-1.67,1.405-1.176c1.154,1.994,3.632,1.58,4.57,0.453c1.137-1.363,0.9-4.473-1.676-5.297
            c-5.039-1.613-7.353,3.442-7.289,3.432l-1.078-6.062c6.066-1.486,9.566-2.013,11.494-3.851c1.516-1.446,2.238-3.95,2.051-6.176
            c0,0,16.851-6.844,24.736-11.094C178.572,200.34,190.593,190.618,190.593,190.618L190.593,190.618z M164.936,191.282l-1.246,2.191
            l-1.768,0.002l3.576,9.256l2.729-9.662l-1.704,0.149L164.936,191.282z M39.786,193.939l5.352,3.688
            c0.117,1.199,0.271,2.267,0.109,3.623l-5.633-3.727L39.786,193.939z M144.188,192.806l-1.332,1.768l-1.534-0.162l3.01,9.166
            c0.914-2.65,1.748-6.246,2.651-8.898l-1.424,0.068L144.188,192.806z M39.693,198.652l5.537,3.666c0.021,1.133,0.073,2.199-0.32,3
            l-5.225-3.353L39.693,198.652z M154.563,199.181l-1.344,2.584l-1.789-0.242l3.201,8.783l3.5-8.703l-2.168,0.116L154.563,199.181z
            M39.702,202.922l4.801,3.525c0.07,0.051-0.268,1.606-0.19,2.49l-4.566-2.814L39.702,202.922z M39.833,207.282l4.478,3.074
            c0.01,1.166,0.09,2.264,0.272,3.256l-4.861-3.156L39.833,207.282z M39.755,211.726l5.176,3.684l0.273,2.961l-5.482-3.447
            L39.755,211.726z M82.361,212.96c4.967,1.853,9.622,11.295,9.479,23.523c-0.1,8.487,2.465,20.604,2.418,20.465
            c0,0-1.44,0.193-1.85-0.127c-1.869-6.232-2.494-12.82-2.789-18.252c-0.242-4.529-0.502-8.976-0.789-10.014
            c-0.816-3.652-1.701-7.914-4.035-10.691c-1.82-2.094-3.895-2.459-5.135-0.107c-1.015,1.927,1.123,5.113,2.897,4.054
            c0.431-0.24,0.687-0.648,0.123-0.638c-1.842,0.273-3.08-2.274-1.914-3.489c2.054-2.14,5.646,2.627,3.979,5.25
            c-0.734,1.135-2.652,1.334-4.189,0.916c-3.416-1.652-4.272-5.695-3.131-8.359C78.3,213.456,80.214,212.243,82.361,212.96
            L82.361,212.96z M76.35,214.172c0.404,0.021,0.129,0.765-0.244,1.925c-0.879,2.782,0.771,7.104,3.054,7.967
            c0.686,0.465,0.647,0.643,0.19,0.897c-1.489,0.838-4.194-1.674-4.91-4.471c-0.516-2.023-0.389-4.412,0.585-5.426
            c0.532-0.556,0.954-0.847,1.241-0.888C76.296,214.174,76.325,214.172,76.35,214.172L76.35,214.172z M39.702,215.814l5.525,3.61
            c0.258,1.127,0.145,2.328-0.027,3.541l-5.533-3.854L39.702,215.814z M73.05,215.769c0.41-0.015,0.258,0.674,0.144,1.926
            c-0.265,2.902,0.637,5.014,2.688,6.766c0.863,0.74,1.102,0.972,0.729,1.359c-0.527,0.551-2.043-0.188-3.23-1.426
            c-2.176-2.269-2.896-6.55-1.201-8.101C72.548,215.954,72.835,215.775,73.05,215.769z M134.52,216.271
            c2.361-0.093,4.355,0.823,4.574,3.711c0.32,4.225-3.615,6.535-6.363,4.108c-2.461-2.436,0.033-6.248,2.888-4.461
            c1.436,0.904-0.277,2.967-1.438,1.9c-0.522-0.48-0.754-0.183-0.381,0.373c1.123,1.678,3.334,0.283,3.176-1.193
            c-0.311-2.903-3.879-2.865-5.223-1.729c-1.838,1.555-3.457,3.846-4.664,5.516c-0.99,1.447-1.203,1.41-1.057-0.379
            C126.419,219.387,130.837,216.415,134.52,216.271L134.52,216.271z M70.208,217.195c0.377-0.012,0.229,0.526,0.256,1.916
            c0.152,3.57,1.656,5.793,3.566,7.035c0.639,0.707-0.181,1.207-1.384,0.864c-2.741-0.844-5.541-6.733-3.219-9.268
            C69.755,217.387,70.013,217.202,70.208,217.195z M67.544,218.366c0.379-0.025,0.164,0.764,0.201,2.254
            c0.074,3.133,1.045,4.639,3.375,6.551c0.76,0.623,0.854,0.554,0.553,0.898c-0.797,0.92-3.502-0.383-4.654-2.26
            c-1.371-2.232-1.573-5.603-0.297-6.875C67.079,218.577,67.345,218.378,67.544,218.366L67.544,218.366z M64.891,219.876
            c0.314,0,0.14,0.566,0.188,1.92c0.117,3.281,0.867,4.906,2.949,6.424c1.309,0.953,1.627,0.668,1.227,1.045
            c-0.701,0.662-2.617,0.095-4.057-1.12c-2.154-1.818-2.761-6.308-1.009-7.845C64.503,220.027,64.727,219.874,64.891,219.876z
            M39.796,220.338l5.312,3.681l-0.15,3.108l-5.283-3.576L39.796,220.338z M132.649,226.167c-2.161-0.442-2.979-2.004-2.717-3.771
            c0.088-0.591,0.433-0.929,0.804-0.156c0.317,1.225,1.135,2.924,2.254,3.254C133.438,225.626,133.063,226.251,132.649,226.167
            L132.649,226.167z M86.156,222.497c2.438,6.137,2.395,12.844,2.799,19.18c0.537,8.423,2.026,14.097,2.516,15.052
            c0,0-2.381,0.026-2.502-0.316c0,0-2.246-11.17-1.908-16.692c0.023-6.183-1.18-11.613-1.914-14.056
            C84.368,223.499,84.335,224.928,86.156,222.497L86.156,222.497z M39.767,224.894l5.108,3.34c-0.072,1.143-0.084,2.285-0.067,3.43
            l-5.009-3.545L39.767,224.894z M108.466,224.609c0.006,0.186,0.74,0.342,1.891,0.063c1.279-0.311,2.556-0.256,3.537,0.017
            c1.045,0.285,1.16-0.052,0.216-0.463c-0.462-0.201-1.193-0.658-2.294-0.64C110.718,223.607,108.458,224.204,108.466,224.609z
            M129.161,224.48c0.125,0.229,0.514,0.744,0.86,1.146c0.658,0.765,0.843,0.769,0.543,1.08c-0.688,0.717-2.135-0.322-2.291-1.647
            C128.139,224.088,128.624,223.476,129.161,224.48z M83.415,224.74c2.385,3.4,2.738,11.377,2.787,17.045
            c0.043,5.105,1.771,14.459,1.91,14.418c-0.492,0.289-1.152,0.188-1.773-0.051c-0.613-0.799-0.99-3.041-1.701-9.107
            c-0.186-1.563-0.545-6.543-0.627-10.553c-0.07-3.537-2.047-11.191-2.047-11.191S82.731,224.754,83.415,224.74L83.415,224.74z
            M80.759,225.59c2.176,4.853,2.529,9.67,2.627,15.519c0.092,5.528,1.32,12.008,1.785,14.867c-0.734,0.075-1.51,0.137-1.816-0.193
            c-0.194-0.268-0.352-0.688-0.446-1.23c-0.99-4.782-1.228-9.981-1.511-14.383c-0.426-6.815-0.534-8.504-1.502-11.901
            c-0.547-1.929-0.739-1.888-0.325-2.259C79.884,225.726,80.486,225.585,80.759,225.59L80.759,225.59z M105.208,226.706
            c0.061,2.258,0.352,1.338,1.147,0.979c0.601-0.052,1.093,0.276,2.207,0.688c1.423,0.521,1.293,0.697,2.293,0.207
            c0.615-0.303,1.107-0.408,1.402-0.168c1.168,0.949,2.676,0.414,3.523-0.354c0.662-0.346,1.385-0.157,1.944-0.104
            c0.81,0.074,0.599-0.441,0.697-1.463c0.09-0.906-0.258-0.986-1.195-0.68c-0.959,0.312-1.911,0.356-2.745,0.102
            c-2.132-0.648-3.689-0.227-4.746-0.061c-2.494,0.393-2.627,0.141-3.191-0.218c-0.422-0.268-1.117-0.758-1.359-0.744
            C104.947,224.906,105.027,225.724,105.208,226.706L105.208,226.706z M127.337,225.669c0.236-0.121,0.346,0.201,0.676,0.631
            c0.554,0.722,0.715,1.06,0.252,1.127c-1.227,0.177-1.53,0.05-1.487-0.713C126.811,226.107,126.945,225.868,127.337,225.669
            L127.337,225.669z M78.197,226.741c1.797,1.811,2.254,11.973,2.459,14.16c0.647,11.854,1.772,13.557,1.194,14.447
            c-0.682-0.013-0.918,0.239-1.362-0.355c-1.539-4.342-1.449-8.805-1.699-13.334c-0.353-6-0.947-9.25-1.791-12.223
            c-0.562-1.978-0.555-2.011,0.459-2.554C77.636,226.786,78.034,226.736,78.197,226.741L78.197,226.741z M75.774,228.169
            c0.634,1.439,1.904,7.984,2.078,13.635c0.138,4.486,1.207,13.259,1.406,13.306c-0.654,0.061-1.438-0.072-1.758-0.568
            c-1.961-8.646-1.336-17.031-3.604-25.727C74.032,228.392,74.751,227.697,75.774,228.169L75.774,228.169z M39.839,229.236
            l5.299,3.799l0.113,3.242l-5.408-3.836L39.839,229.236z M118.591,228.827c-2.99,1.16-3.766,2.113-3.295,2.949
            c0.396,0.705,1.586,0.459,4.773-0.871c2.381-0.994,3.129-0.562,3.61,0.938c-0.022,2.216-2.172,2.474-3.385,2.171
            c-0.521-0.021-0.443,0.026,0.113,0.721c2.465,1.936,5.489-1.849,3.981-4.246C123.212,228.297,121.171,227.672,118.591,228.827z
            M99.813,229.726c-2.469,1.938-1.586,5.426,0.47,5.948c0.569,0.291,1.422,0.154,1.758-0.065c0.307-0.205,0.305-0.537-0.326-0.644
            c-1.906-0.315-2.99-1.715-2.068-3.133c0.896-1.377,2.552-1.113,5.738,0.26c2.754,1.188,3.961,0.82,4.285-0.604
            c0.145-0.629-0.031-1.219-1.352-1.269C104.641,230.085,102.204,227.849,99.813,229.726z M132.848,235.068
            c-0.164-1.004-1.797,0.024-2.879,1.805c-1.063,1.752-1.176,2.002-1.393,0.184c-0.322-2.711,2.492-4.829,4.246-4.897
            c2.112-0.244,3.502,0.938,3.557,2.301C136.488,237.14,133.286,237.167,132.848,235.068L132.848,235.068z M39.722,233.465
            l5.611,3.854c0,0,0.189,2.063,0.068,3.176l-5.635-3.604L39.722,233.465z M107.095,234.76c-2.438,1.654-1.006,4.677,0.701,5.017
            c1.801,0.356,1.926-0.898,0.137-1.271c-0.955-0.375-1.201-1.284-0.828-1.987c0.854-1.396,2.433-0.492,3.351-0.058
            c2.035,0.97,3.092,1.322,3.733,0.652c1.144-1.191,0.123-3.312-1.387-2.564c-0.406,0.203-0.713,0.396-1.578,0.181
            C109.907,234.454,108.329,234.161,107.095,234.76L107.095,234.76z M39.771,238.047l5.52,3.777l-0.17,3.342l-5.182-3.803
            L39.771,238.047z M39.884,242.64l5.191,3.698c-0.076,1.412-0.041,1.976,0.016,2.873l-5.25-3.389L39.884,242.64z M131.688,243.353
            c4.162,0.405,2.783,5.188-0.125,3.896c-0.774-0.582-1.008-0.535-1.868,1.562c-1.103,2.682-1.371,2.465-1.22-0.636
            C128.587,245.142,129.981,243.376,131.688,243.353z M98.888,244.079c0.101,0.002,0.179,0.021,0.229,0.059
            c0.278,0.314-0.564,1.562-1.279,2.296c-0.527,0.348-1.811-0.589-1.498-1.044C96.702,244.947,98.218,244.148,98.888,244.079
            L98.888,244.079z M104.443,246.542l-0.744,0.107c-1.123-2.504-3.457-1.931-4.179,0.395l-1.026-0.117
            C99.531,244.077,103.227,242.329,104.443,246.542z M125.404,247.115l-1.259,0.074c-1.131-2.715-2.729-3.121-4.086-0.438
            l-0.977-0.283C120.763,243.04,123.57,242.765,125.404,247.115z M119.108,244.017c0.646-0.039,0.562,0.258-0.108,1.174
            c-0.584,0.797-0.726,0.922-1.312,0.487C116.727,244.963,118.325,244.07,119.108,244.017z M125.075,244.097
            c0.123,0.008,0.266,0.02,0.43,0.059c1.297,0.322,1.893,0.936,1.256,1.725c-0.396,0.492-0.783,0.687-1.043,0.355
            C124.841,244.792,124.356,244.053,125.075,244.097L125.075,244.097z M105.468,244.95c0.137,0.539-0.289,0.92-0.764,0.473
            c-0.193-0.182-0.361-0.491-0.338-0.721C104.665,244.422,105.374,244.656,105.468,244.95L105.468,244.95z M39.831,246.797
            l5.338,3.832c0.174,1.353,0.211,2.377,0.203,3.299l-5.496-3.641L39.831,246.797z M117.634,247.958
            c3.074,2.107,6.68,2.08,8.937,0.229c0.504-0.412,0.942-0.433,0.95-0.033c-0.319,1.477-4.241,3.371-7.305,2.297
            c-1.682-0.59-3.063-1.174-4.168-2.746C115.391,246.683,116.743,247.342,117.634,247.958z M116.333,248.986
            c4.494,3.877,8.065,2.799,10.772,0.846c0.4-0.1,0.406,0.26,0.496,0.928c0.113,0.857-0.598,1.281-2.545,1.865
            c-3.764,1.127-8.18-0.106-8.975-2.633C115.99,249.495,115.798,248.851,116.333,248.986L116.333,248.986z M39.812,251.308
            l5.411,3.711l-0.174,2.838l-5.271-3.564L39.812,251.308z M39.898,255.654l5.108,3.463l-0.018,2.348l-4.969-3.539L39.898,255.654z
            M77.003,256.754c21.793,4.933,37.24,2.59,52.396-0.082l13.431,26.338l-80.926,0.107C67.188,274.56,71.585,265.2,77.003,256.754z"
            />
        <path d="M78.997,29.067l4.033,7.538l0.008,0.354l2.229,4.354l0.336,0.216l0.502,0.948l0.058,0.461l1.244,1.989l-0.009,0.429
            l5.279,9.819c4.355-1.626,40.125-4.553,53.369,0.235l1.93-3.271l0.461-0.002l3.402-5.968l-0.055-0.502l1.145-1.306l0.166-0.595
            l3.754-5.874l0.015-0.946l4.694-7.826L78.997,29.067z M159.99,30.194c0,0-2.449,4.707-3.711,6.608
            c-1.021-0.806-3.98-0.259-3.806,2.862c-4.826-1.828-5.987,3.928-2.258,5.224c-1.914,1.672-3.744-0.22-5.195-1.5
            c-1.42,0.352-4.368,1.395-6.037-1.677c0,0,0.697,0.377,1.394,0.786c3.947,1.2,4.266-4.126,1.33-4.997
            c-0.369-0.098-1.066-0.137-1.066-0.137c0.988-4.096-5.348-5.525-5.469-0.604c0,0-0.752-0.123-1.324-0.02
            c-3.358,0.612-2.59,5.564,0.845,5.328c0.473-0.033,0.896,0.052,0.896,0.052c-0.057,0.793-4.211,2.31-7.205-0.42
            c-1.418,1.081-3.666,2.437-6.596-0.259c1.928-0.079,3.774-0.627,3.754-2.812c-0.014-1.421-1.293-2.689-3.135-2.758
            c-0.105-1.588-1.287-3.104-2.824-3.22c-1.877,0.108-2.836,1.622-2.849,3.22c-1.596,0.165-3.088,1.57-2.743,3.183
            c0.467,2.199,2.162,2.471,4.098,2.052c-2.354,3.782-6.186,1.81-7.365,0.604c-1.405,1.312-3.856,3.088-6.879,0.66
            c1.609-0.274,3.4-1.22,3.099-3.466c-0.238-1.771-2.226-2.295-3.089-2.201c-0.002-1.17-0.885-3.099-2.971-2.898
            c-2.272,0.217-2.139,3.094-2.111,3.115c-1.879-0.154-3.241,2.056-2.707,3.465c0.652,1.718,2.019,2.25,4.527,1.787
            c-2.928,2.746-4.787,1.682-6.385,1.104c-1.414,1.48-3.301,1.959-5.238,0.646c4.33,0.206,3.644-7.446-1.494-4.672
            c-0.442-1.437-1.104-3.204-3.795-2.791l-3.063-5.917L159.99,30.194z M119.638,37.737c0.209-0.009,0.433,0.035,0.65,0.146
            c0.678,0.346,0.805,0.945,0.391,1.834c-0.145,0.312-0.354,0.67-0.319,0.999c4.768,8.793,15.28,4.863,16.27,0.778
            c0.062-0.26-0.057-0.543-0.193-0.82c-0.403-0.672-0.35-1.223,0.177-1.684c1.116-0.981,2.723,0.177,2.073,1.499
            c-0.172,0.35-0.352,0.73-0.223,1.198c2.699,6.127,8.074,6.588,12.584,4.163c-2.078,3.719-10.131,5.999-13.512-2.956
            c-5.398,7.296-13.963,7.157-17.851-1.08c-3.496,8.426-14.043,8.626-17.883,1.627c-3.494,8.007-11.598,6.189-13.895,1.179
            c7.528,5.447,12.487-0.239,13.381-2.664c0,0-0.176-0.283-0.416-0.519c-0.963-0.945-0.937-2.059,0.062-2.499
            c1.277-0.565,2.478,0.662,1.82,1.866c-0.186,0.339-0.348,0.411-0.227,0.702c2.342,5.46,13.881,7.048,16.217-0.611
            c0.08-0.438,0.035-0.844-0.164-1.175C118.032,38.806,118.729,37.775,119.638,37.737z M85.956,40.829
            c1.82,0.104,1.312,1.668,0.947,1.787L85.956,40.829z M153.534,41.804c0.014,0.03-1.121,2.027-1.121,2.027
            C151.811,42.873,151.968,41.678,153.534,41.804z M147.382,51.9c0,0-1.162,2.569-1.545,2.786
            c-21.557-5.522-51.635-0.722-52.375-0.188l-1.324-2.494C111.038,48.227,129.884,49.033,147.382,51.9z M110.968,90.097
            c-2.082,8.027-7.121,8.845-13.207,9.82c-7.537,1.209-12.449-1.537-14.746-5.731c0,0-10.78,4.071-14.715,6.438
            c8.18,3.746,18.986,12.045,25.129,21.465c2.188,2.873,2.078,2.224,2.074,8.525c-0.008,13.664,0.023,18.744,0.023,18.744
            c3.375,0.506,3.561,2.826,3.375,5.434c2.709-1.197,5.315,0.269,5.305,2.822c-0.021,4.699-4.639,3.422-5.596,2.904
            c1.5,4.141-0.263,5.854-2.062,6.059c-2.219,0.252-4.762-0.814-4.02-5.555c-2.418,0.938-5.48-0.769-5.904-3.621l-0.119-4.832
            c5.98-11.252-1.527-20.4-8.576-23.408c0,0,1.996-4.123,4.574-5.279c0.262-0.079-1.563-2.758-4.635-2.174
            c-1.412,0.029-1.084,0.021-2.414-1.707c-2.627-3.412-3.865-3.646-6.426,0.004c-1.127,1.607-1.396,1.652-2.73,1.681
            c-1.469,0.028-3.723,1.084-4.205,2.026c-0.108,0.216,0.467,0.437,1.23,1.328c1.102,1.287,2.801,3.054,2.533,4.853
            c-5.808,2.36-15.437,12.725-5.31,25.991l-7.322,0.095l-0.35-47.23l-5.092,2.834l0.227,36.994l-1.451-0.479
            c0.111-11.802-0.065-23.593-0.438-35.388l-13.426,9.781l0.598,55.472l1.429,0.304c1.061,7.557,16.032,2.271,16.907,2.928
            l0.178,30.822l-0.653,1.528l11.914,6.511l10.928-5.666c0,0,1.475-0.267,2.027-0.558c4.53-2.389,7.907-1.852,10.37,1.65
            c1.521,2.16,1.777,2.479,1.777,2.479c0.922-6.231,6.449-8.53,11.812-6.901c3.942,1.198,9.332,5.129,10.979,9.926
            c0,0,0.297,0.721,0.59,1.047l0.228,0.099c-0.015-0.125-0.263-0.724-0.354-1.015c-5.531-12.699-21.113-14.646-23.518-4.271
            l-2.205-3.092l11.602-7.115l15.855,10.434c0,0-0.746,3.668-0.83,5.252l0.272,0.127c0.078-0.198,0.189-0.961,0.261-1.438
            c0.252-1.732,0.711-3.188,1.334-4.299c0.375-0.67,0.811-1.218,1.297-1.623c0.947-0.549,1.824-0.492,2.785-1.396l-2.314-1.729
            l-0.051-5.556l4.652,6.517c1.463-0.338,7.162-2.039,10.543-0.154c0.381,0.117,5.338-1.295,8.424,5.619l14.861-6.172
            c0,0,0.946-0.533,0.957-0.674c-14.818-5.468-29.779-24.826-28.341-25.14c0,0-0.045-1.985,0.07-6.858
            c0.121-5.433,0.055-10.978,0.146-16.429c-5.043-1.608-3.788-5.674-3.788-5.674c-3.031,0.664-3.517,0.076-4.283-0.457l-0.523-5.144
            c1.818-1.547,2.91-1.689,5.158-1.197c0,0-1.09-2.234-0.098-4.074c0.834-1.453,3.057-2.371,4.832-1.348
            c2.293,1.562,1.562,4.838,1.233,5.295c2.385-1.068,5.299,0.121,6.017,2.48c0.356-6.974,0.963-14.777,2.362-20.857
            c2.578-10.977,6.804-22.469,12.093-31.508c0.864-1.51,1.971-3.023,2.86-4.438c0.828-1.258,1.224-2.073,1.224-2.073
            s-1.134,0.623-2.33,0.957c-1.724,0.467-3.019,0.911-3.216,1.106c-1.26,1.062-2.911,1.848-4.262,2.435
            c-4.76,1.852-7.959-0.91-9.936-5.13c-1.101,5.357-6.01,9.892-13.25,7.074c-4.092-2.172-5.379-3.561-9.205-9.225
            c-0.32-0.578-1.15-1.244-1.15-1.244L110.968,90.097L110.968,90.097z M111.124,90.972c2.709,5.354,6.762,9.146,10.701,10.662
            c7.035,2.306,11.674-2.198,12.981-6.336l1.357,2.299l-10.65,7.562l-16.071-10.217C109.712,94.695,111.149,91.095,111.124,90.972
            L111.124,90.972z M159.49,91.341l-4.771,2.812c0,0-3.168,5.112-4.231,7.039c-5.566,9.83-9.746,20.522-11.925,31.135
            c-0.881,3.885-1.813,10.979-2.127,14.393c-0.496,5.443-0.473,7.679-0.33,12.667l0.373,0.406c0,0-0.584,1.025-1.004,1.892
            c-1.141,2.35-1.418,3.678-1.348,6.401c0.158,6.269,3.969,12.271,9.354,14.715c0.304,0.138,0.707,0.314,0.707,0.314
            s-0.924,2.496-2.598,4.254c-1.117,1.172-1.356,1.229-0.963,1.805c0.549,0.804,2.324,1.5,4.527,1.468
            c0.778-0.013,0.772-0.015,2.215,1.557c2.812,3.062,3.657,3,6.219-0.473c0.762-1.031,1.193-1.279,2.305-1.308
            c1.636-0.037,4.619-1.356,4.607-1.975c-2.015-0.892-4.346-5.486-3.976-5.535c11.009-5.824,13.341-17.896,5.302-26.773l7.678-0.123
            l0.283,48.16c1.504-0.998,4.901-3.145,4.901-3.145l-0.11-37.478c0.526,0.101,1.065,0.479,2.092,0.646l0.303,35.434
            c0,0,0.998-0.403,1.867-0.971c4.291-2.826,12.691-9.363,12.691-9.363l-0.287-54.608h-1.123l0.18,54.582l-13.037,9.518
            l-0.084-33.922c0,0,1.029-0.152,1.414-0.207c3.816-0.533,5.582-5.398,3.051-8.576c-0.897-1.127-0.262-1.047,1.65-1.414
            c3.389-0.299,5.266-2.858,4.281-4.686c-0.424-0.783,0.127-0.699,0.483-1.443c0.234-0.586,0.191-1.311,0.09-1.885
            c-0.133-0.756,0.177-1.09,0.367-1.57c0.302-0.754,0.011-1.606-0.489-2.315c-0.527-0.746-0.382-1.55-0.388-2.045
            c-0.021-1.109-0.424-1.269-1.598-2.339c-0.889-0.811-0.176-0.987,1.131-1.659c2.057-1.06,2.199-4.804-0.537-6.398
            c-1.461-0.852-4.121-0.783-9.887,0.127c-2.186,0.346-4.752,0.576-4.752,0.576s-0.021-21.353-0.17-32.355L159.49,91.341z
            M159.49,92.095c0,0,11.705,6.849,11.61,7.039c-3.93,5.386-18.592,26.836-18.696,52.775c-10.753-1.35-15.154,7.056-15.677,7.025
            c-1.412-31.751,11.474-54.469,18.076-64.109L159.49,92.095z M152.106,96.274l-0.036,0.776l-2.32,3.465l-0.062-3.465L152.106,96.274
            z M148.522,97.481l0.086,5.582l-4.752,3.631l-0.278-5.824L148.522,97.481z M104.475,98.757l2.441,1.688l-0.084,5.539l-3.678-6.689
            L104.475,98.757z M171.327,100.624l0.02,4.008c-9.369,13.215-14.287,28.312-15.789,47.429l-2.28-0.074
            C153.88,132.977,160.281,115.63,171.327,100.624z M107.87,101.034l5.778,3.775l-0.25,6.317l-5.247-3.364l-0.49-1.294
            L107.87,101.034z M142.861,101.304l-0.023,5.873l-4.465,3.314l-0.207-5.832L142.861,101.304z M88.747,102.839
            c0.662,0.011,1.19,0.49,1.313,1.406c0.49,3.904,3.463,2.777,4.168,3.951c0.269,0.4-0.364,0.748-2.397,0.584
            c-3.729-0.279-6.447-3.295-4.541-5.281C87.781,103.05,88.294,102.835,88.747,102.839z M114.513,105.358l4.937,3.145l-0.015,6.488
            l-4.838-2.951L114.513,105.358z M137.034,105.376l0.381,5.738l-5.402,3.592l-0.192-5.699L137.034,105.376z M147.315,105.4
            l-3.102,6.604l-18.1,13.021l-15.021-9.728l-2.787-6.373l17.525,11.433L147.315,105.4z M98.507,108.022
            c4.81-0.06,8.5,5.047,9.764,9.52c0.918,2.957,1.06,4.021,1.154,8.717c0.101,4.783,0.25,5.609,1.146,6.285
            c0.553,0.416,0.713,0.304,0.782-0.543c0.154-1.879,2.402-0.721,2.441,1.26c0.043,2.199-2.377,2.906-4.168,1.216
            c-0.953-0.898-0.965-0.892-1.264,0.877c-0.199,1.186-1.578,8.6,1.946,10.442c0.664,0.062,0.822-0.469,0.33-1.088
            c-0.989-1.244,0.986-2.678,2.599-1.887c1.946,0.957,1.75,4.094-0.33,5.209c-2.379,1.276-5.455-0.174-6.894-3.248
            c-1.055-2.256-1.051-5.385,0.021-10.031c0.492-2.143,0.709-3.506,0.819-5.147c0.035-0.541,0.101-1.127,0.142-1.308
            c0.115-0.5-0.133-0.524-0.984-0.094c-2.328,1.172-4.867,0.338-5.494-1.807c-0.748-2.564,2.111-5.216,3.877-3.593
            c0.67,0.615,0.588,1.228-0.213,1.621c-1.389,0.685-0.914,2.482,0.562,2.127c4.862-1.455,0.418-15.1-5.06-16.045
            c-3.619-0.623-6.461,3.5-3.842,5.705c1.025,0.865,2.068,0.4,1.844-0.82c-0.312-1.702,1.949-1.52,2.785,0.228
            c1.361,2.84-2.151,5.15-5.436,3.578C89.145,115.697,93.173,108.128,98.507,108.022z M120.311,109.106l4.853,3.258l0.041,6.332
            l-4.818-2.857L120.311,109.106z M130.999,109.652l0.022,5.813l-4.682,3.404v-6.186L130.999,109.652z M143.611,113.462l-2.396,6.672
            l-15.109,10.334l-12.467-7.815l-2.145-6.172l14.686,9.514L143.611,113.462z M45.542,113.948l-0.004,33.77
            c-4.896,0.209-7.707,5.052-4.041,9.626c0,0-0.639,0.087-1.385,0.189c-3.312,0.453-5.531,2.209-5.092,4.338
            c0.135,0.65-0.002,1.31-0.189,1.635c-0.295,0.875-0.217,1.543,0.18,2.298c0.312,0.592,0.261,0.829,0.084,1.268
            c-0.375,0.943-0.284,1.672,0.156,2.391c0.545,0.533,0.396,0.965,0.32,1.82c-0.088,1.207,0.129,1.693,0.891,2.164
            c0.982,0.604,1.349,1.6,0.232,1.518c-0.555-0.041-2.504,1.838-2.504,1.838l-0.185-54.192L45.542,113.948z M72.091,118.281
            c0.875-0.002,1.777,1.098,3.074,2.955c0.783,1.332,0.797,1.149,2.588,1.08c1.83,0.133,2.943,0.617,3.422,1.17
            c0.183,0.209-0.299,0.264-1.457,1.438c-1.199,1.218-1.365,1.701-2.164,3.064c-0.287,0.492-0.912,0.537-1.205,0.09
            c-0.237-0.363,0.369-1.543,1.509-2.934c1.604-1.55,1.27-1.705-1.066-1.461c-1.639,0.172-1.814,0.09-2.438-0.904
            c-1.854-3.691-2.842-3.566-4.618,0.113c-0.484,1.028-0.293,0.963-2.396,0.801c-1.656-0.127-2.065,0.291-1.133,1.16
            c1.459,1.196,2.027,4.022,1.947,3.987l-1.127,0.104c0,0-0.345-0.637-0.494-1.037c-0.308-0.812-1.127-2.031-2.019-2.994
            c-1.264-1.363-0.569-2.109,2.248-2.414c1.57-0.17,1.605-0.19,2.33-1.248C70.365,119.386,71.214,118.282,72.091,118.281z
            M140.632,121.643l-1.627,5.762l-12.891,9.037l-10.484-6.996l-1.391-5.418l12.045,7.629L140.632,121.643z M96.19,126.206
            c0,0,3.728,7.258,5.078,11.961c1.177,4.09,2.812,15.937,2.381,16.666c-0.915-1.258-3.94-0.975-3.981-0.963
            c0.256-1.387-0.865-4.184-3.447-4.738L96.19,126.206z M138.598,128.861l-1.287,5.67l-10.975,7.936l-9.057-6.186l-1.189-5.482
            l10.023,6.693L138.598,128.861z M74.792,129.175l1.424,0.496l0.271,10.244l10.979,1.824l0.25,1.754L75,141.443
            C74.866,137.073,74.792,129.175,74.792,129.175z M69.22,129.483l0.308,11.914c-0.119-0.039-9.154,1.248-12.611,2.153l0.201-1.631
            c0,0,6.28-1.365,10.83-1.891c0-3.332-0.025-6.836-0.033-10.23L69.22,129.483z M171.374,131.675c0,0,1.494,0.14,4.69-0.426
            c8.242-1.44,10.476-0.856,11.527,1.685c1.152,3.938-3.168,4.034-3.938,1.534c-0.49-1.621-2.261-1.268-8.17,0.136
            c-5.054,1.196-8.257,0.237-8.193-2.625C167.354,129.034,170.708,128.775,171.374,131.675z M103.645,129.522
            c1.021-0.017,1.861,0.799,1.877,1.817c0.015,1.021-0.801,1.857-1.819,1.873c-1.021,0.015-1.857-0.797-1.873-1.815
            C101.815,130.376,102.626,129.534,103.645,129.522z M76.87,129.845l1.303,0.392c0,0,0.191,7.771,0.23,7.785
            c2.801,0.616,8.68,1.721,8.68,1.721l0.311,1.537c-2.461-0.578-10.307-1.863-10.307-1.863
            C76.843,136.046,76.87,129.845,76.87,129.845z M67.37,129.991c0,0,0.006,6.201-0.099,9.533c0.043-0.029-6.657,1.065-10.061,1.771
            l0.264-1.244c2.691-0.606,5.621-1.217,8.584-1.838c-0.059-2.438-0.057-7.789-0.057-7.789L67.37,129.991z M72.157,131.325
            c0.817-0.012,1.496,0.648,1.508,1.467c0.012,0.819-0.648,1.486-1.467,1.498c-0.819,0.012-1.486-0.639-1.498-1.457
            C70.688,132.018,71.339,131.337,72.157,131.325z M183.665,135.197c0.912,1.35,1.678,1.311,2.574,1.178
            c-0.226,0.066-1.285,0.693-1.226,0.9c0.029,0.104-0.447,1.812,0.277,1.881c2.734,0.266,1.352,3.104,1.68,3.541
            c0.738,0.844,1.279,1.377,0.771,2.428c-0.449,0.935-1.097,0.904-0.594,1.703c1.09,1.639-0.416,1.977-0.283,3.092
            c0.092,0.674,0.33,1.594,0.08,2.117c-0.748,1.58-3.394,2.48-6.33,2.604c-0.42,0.019-0.103-0.666-0.297-1.1
            c-0.728-0.459-0.33-1.231-0.086-1.74c0.241-0.672,0.243-0.672-0.207-1.014c-1.255-0.779-1.189-1.139-1.091-1.701
            c0.275-1.664,0.019-1.828-0.483-2.074c-0.646-0.315-0.556-1.018-0.271-1.918c0.197-0.623,0.06-0.778-0.244-1.344
            c-0.18-0.332-0.231-0.514-0.235-0.727c0.09-0.859-0.68-0.857-1.758-0.015c-0.916,1.574-1.229,3.644-1.804,4.949
            c-0.44,1.004-0.512,2.053,0.017,4.365c1.012,3.537,0.26,4.127-3.722,3.371c-2.991-0.736-3.877-3.931-3.045-7.84
            c0.136-0.634,0.099-1.244,0.037-1.74c-0.326-2.691,0.371-5.275,2.25-7.043c3.135-2.949,4.687-3.398,11.168-2.984
            c2.537,0.181,2.73,0.34,2.73,0.34S183.587,135.206,183.665,135.197z M136.977,136.007l-0.754,5.482l-6.088,4.295
            c-2.865-2.262-5.078-1.508-7.096,0.916c-1.596-0.811-4.789-3.018-4.789-3.018l-0.816-6.22l8.851,6.14L136.977,136.007z
            M72.288,137.309c0.817-0.013,1.488,0.645,1.5,1.463c0.012,0.815-0.64,1.489-1.457,1.504c-0.818,0.012-1.496-0.64-1.51-1.457
            C70.809,137.999,71.47,137.32,72.288,137.309z M135.96,142.923l-0.336,5.281l-2.164,1.625l-2.178-0.221l-0.515-3.271
            L135.96,142.923z M72.251,142.966c0.818-0.012,1.496,0.648,1.508,1.468c0.012,0.818-0.646,1.485-1.465,1.497
            c-0.819,0.013-1.488-0.639-1.5-1.456C70.782,143.656,71.432,142.979,72.251,142.966z M78.22,143.13
            c0.818-0.012,1.486,0.64,1.498,1.457c0.014,0.818-0.639,1.492-1.455,1.504c-0.817,0.013-1.492-0.643-1.504-1.461
            C76.745,143.813,77.402,143.143,78.22,143.13z M66.352,143.413c0.818-0.012,1.492,0.646,1.504,1.461
            c0.013,0.818-0.639,1.492-1.457,1.506c-0.817,0.013-1.495-0.645-1.508-1.463C64.879,144.099,65.534,143.425,66.352,143.413z
            M176.575,143.654c0.418-0.033,1.035,0.586,0.735,1.514c-0.401,1.06-0.121,1.42,0.552,2.277c0.567,0.727,0.467,0.826,0.381,1.291
            c-0.129,3.049,1.834,1.731,0.981,3.947c-0.186,0.481,0.06,1.17,0.146,1.739c-0.191-0.521-3.804-0.475-4.109,0.058
            c-0.516-0.078-1.166-3.472-0.646-3.918c0.065-0.002,0.442,0.582,0.637,0.909c0.484,0.822,0.59,0.791,0.438-0.161
            C175.089,147.527,175.448,143.677,176.575,143.654z M84.202,143.917c0.817-0.012,1.492,0.646,1.504,1.463
            c0.012,0.818-0.644,1.486-1.461,1.498c-0.818,0.012-1.488-0.639-1.5-1.455C82.733,144.606,83.384,143.931,84.202,143.917z
            M60.197,144.192c0.817-0.013,1.485,0.645,1.498,1.463c0.012,0.817-0.64,1.486-1.457,1.498c-0.818,0.012-1.496-0.64-1.509-1.455
            C58.718,144.878,59.378,144.204,60.197,144.192z M118.318,144.62l4.44,2.881c0.072,0.908-0.045,2.209,0.254,2.65
            c-2.897-0.271-4.365,1.381-4.365,1.381L118.318,144.62z M72.736,147.001c4.862,0.035,9.571,0.812,13.946,2.228l-0.344,1.563
            c-8.752-2.252-18.533-2.371-27.879,0.104l-0.725-1.646c4.709-1.467,9.436-2.186,14.028-2.244
            C72.091,147.001,72.413,146.999,72.736,147.001L72.736,147.001z M45.251,149.128c1.272-0.022,2.576,0.453,3.492,1.48
            c1.723,1.93,0.895,5.51-1.541,6.646c-3.645,1.703-7.441-1.937-5.893-5.688C41.952,150.007,43.613,149.156,45.251,149.128z
            M135.445,149.585l-0.058,1.57l-1.106-0.924L135.445,149.585z M112.255,149.656c1.605-0.023,2.928,1.266,2.951,2.871
            c0.022,1.606-1.26,2.928-2.867,2.951c-1.607,0.022-2.928-1.261-2.951-2.865C109.365,151.005,110.647,149.679,112.255,149.656z
            M45.331,149.749c-0.393,0.006-1.043,0.166-1.34,0.439c-0.775,0.715,0.004,0.735,1.027,0.924c1.819,0.334,2.319,1.9,2.153,3.592
            c-0.15,1.539,0.367,1.516,0.783,0.943C49.652,153.323,48.204,149.94,45.331,149.749z M129.755,150.524
            c-0.037,0.02-0.08,0.047-0.08,0.047C129.695,150.587,129.722,150.567,129.755,150.524z M72.264,151.44
            c2.179-0.045,2.406,3.532,0.48,7.532c-0.578,1.203-0.873,1.054-1.508-0.764C69.673,153.731,70.013,151.484,72.264,151.44z
            M77.3,151.542c0.42-0.021,0.826,0.139,1.16,0.519c1.17,1.334,0.27,3.493-2.848,6.817c-0.759,0.808-1.15,1.115-1.429,1.121
            c-0.78,0.016-0.776-0.113,0.107-2.998c0.391-1.271,0.777-2.669,0.856-3.101C75.409,152.513,76.376,151.589,77.3,151.542z
            M69.423,154.743c0.211,0.99,0.584,2.369,0.824,3.064c0.238,0.694,0.397,1.354,0.356,1.465c-0.19,0.535-1.582-0.191-2.573-1.342
            c-1.998-2.32-2.793-4.338-2.382-5.422c0.605-0.866,2.156-1.252,2.871-0.493C69.257,152.798,69.366,154.477,69.423,154.743z
            M83.193,152.434c2.106,1.241-0.32,4.077-5.039,6.429c-2.021,1.008-1.875,0.555-0.345-1.432c0.586-0.762,1.371-1.998,1.754-2.754
            C80.411,153.005,81.259,151.335,83.193,152.434z M62.167,152.443c0.668-0.006,1.352,0.709,2.621,2.545
            c0.563,0.817,1.481,1.981,2.041,2.587c0.559,0.606,0.998,1.211,0.977,1.34c-0.219,1.287-6.789-2.791-7.262-4.507
            C60.382,153.361,61.206,152.425,62.167,152.443z M156.204,156.177c1.184,2.436,1.287,3.951,0.307,4.501
            c-1.395,0.783-3.186-0.411-3.221-2.146c-0.012-0.582-0.611-2.615-1.16-3.936c-0.451-1.088-0.514-1.758-0.143-1.812
            C153.44,153.018,155.591,155.031,156.204,156.177z M148.339,154.327c-0.457,1.393-0.943,3.568-0.938,4.201
            c0.002,0.25-0.148,0.758-0.33,1.131c-1.203,2.479-4.052,0.457-3.004-2.131c0.944-2.332,3.348-4.761,4.295-4.841
            C149.009,152.632,148.406,154.124,148.339,154.327z M150.257,152.991c0.476-0.047,0.873,0.99,1.486,2.736
            c0.828,2.358,0.795,4.2-0.101,4.983c-1.914,1.679-3.922-0.76-3.147-3.823C149.115,154.44,149.72,153.044,150.257,152.991z
            M86.032,153.423c2.383,35.07-15.597,62.051-16.877,62.787l-6.117,3.346l-10.73-5.846c11.119-15.248,17.767-32.723,18.271-53.018
            C80.865,161.691,86.156,153.46,86.032,153.423z M144.983,153.534c0.75-0.205,0.228,0.449-0.518,1.523
            c-0.795,1.145-1.826,4.257-2.643,4.757c-1.834,0.881-3.91-0.799-2.797-2.261C140.05,156.212,143.061,154.063,144.983,153.534z
            M155.897,153.772c0.287,0,0.826,0.188,1.607,0.571c3.82,1.865,5.703,4.324,4.068,5.501c-1.148,0.826-2.375,0.187-3.521-1.989
            c-0.389-0.738-1.102-1.835-1.574-2.441C155.618,154.315,155.417,153.774,155.897,153.772z M177.372,155.022
            c2.455-0.035,4.471,1.919,4.508,4.375c0.035,2.455-1.926,4.477-4.381,4.512c-2.455,0.037-4.471-1.93-4.508-4.385
            C172.956,157.07,174.917,155.056,177.372,155.022z M176.018,156.175c-2.887,1.279-2.018,5.814,0.474,6.469
            c1.051,0.295,2.33-0.144,1.803-0.648c-3.289-1.031-3.312-3.455-1.986-5.229C176.52,156.481,176.236,156.079,176.018,156.175z
            M55.702,162.413c-0.113,2.562,0.44,5.535-0.783,8.316c-1.854,4.276-7.814,6.229-10.998,5.852c-0.664-0.273-1.436-0.531-2.09-0.254
            c-0.395,0.168-0.883,0.146-1.305-0.049c-0.408-0.189-0.799,0.059-1.193-0.084c-0.461-0.312-1.215-1.021-1.127-1.547
            c0.146-0.742,0.088-1.293-0.781-1.537c-1.205-0.338-1.448-0.988-1.094-2.896c0.076-0.412,0.168-0.598-0.1-0.776
            c-0.888-0.597-1.226-1.695-0.642-2.854c0.379-0.666,0.675-1.139-0.01-1.668c-0.27-0.611-0.223-0.842,0.357-1.623
            c0.618-0.738,0.729-0.824,0.33-1.455c-0.892-1.422,0.118-2.471,1.319-3.057c1.609-0.66,3.017-1,4.715-1.197
            c0.634,0.037,0.605,0.592,0.986,1.127c0.559,0.871-0.229,2.129,0.225,2.574c0.658,0.305,0.959,0.91,0.906,1.43
            c-0.022,1.207,0.051,1.619,0.377,2.125c0.363,0.562,0.498,1.588,0.16,2.287c-0.301,0.623-0.268,0.58,0.127,0.947
            c0.394,0.362,0.584,2.184,0.445,2.147l1.651-0.149c-0.172,0.184,0.621-3.404,2.504-6.179c-0.104-2.174-0.932-4.172-0.856-7.041
            C52.909,155.393,55.856,158.863,55.702,162.413L55.702,162.413z M119.091,157.529c0.588,0.463,3.514,1.277,3.621,1.184
            c-0.092,1.4,0.76,4.121,3.809,5.031c0.037,3.902,0.005,21.928,0.005,21.928C122.279,178.556,119.647,169.37,119.091,157.529
            L119.091,157.529z M48.059,158.165c0,0,0.162,0.521,0.312,1.523c0.26,2.051-0.021,2.33-0.566,0.928
            c-0.639-1.641-0.672-0.361,0.047,3.395c0.175,0.91,0.168,1.121-0.057,1.736c-0.141,0.385-0.389,1.279-0.584,1.98
            c-0.574,2.062-0.91,2.653-1.5,1.014c-0.301-0.838-0.551-0.969-0.338-1.623c0.271-0.82,0.205-1.436-0.336-2.234
            c-0.088-0.131-0.281-0.43-0.316-1.276c0.166-1.904-0.682-1.924-0.848-2.416c0.027-0.744-0.32-2.552,0.193-2.502
            c0.422,0.041,1.948,0.082,2.672-0.185C47.059,158.387,48.059,158.165,48.059,158.165L48.059,158.165z M111.358,158.402
            c1.576-0.023,2.871,1.238,2.896,2.813c0.024,1.576-1.238,2.871-2.814,2.896c-1.575,0.023-2.877-1.232-2.899-2.812
            C108.516,159.724,109.781,158.424,111.358,158.402z M67.266,160.142l2.164,0.409c0.482,0.16,0.131,29.996-17.188,51.529
            l-0.15-4.988C60.333,195.165,66.266,180.538,67.266,160.142z M103.962,160.769l0.395,7.127c-1.219-1.035-4.312-2.976-4.288-3.017
            l0.014-2.637C100.083,162.249,102.741,162.448,103.962,160.769L103.962,160.769z M87.281,160.866
            c0.521,0.221,0.977,0.725,1.424,1.09l-1.414,0.953L87.281,160.866z M136.861,161.226c9.342,2.771,18.543,2.69,27.641,0.664
            l0.623,1.743c-9.871,2.677-19.683,2.521-29.43-0.588L136.861,161.226z M91.608,162.56l0.5,3.073l-5.272,3.412l0.258-4.666
            l2.748-1.783L91.608,162.56z M138.288,165.12c0.852-0.014,1.553,0.67,1.563,1.521c0.015,0.854-0.67,1.553-1.521,1.565
            c-0.854,0.012-1.549-0.672-1.562-1.522C136.757,165.833,137.436,165.131,138.288,165.12z M162.294,165.247
            c0.854-0.012,1.553,0.67,1.566,1.523c0.012,0.852-0.673,1.553-1.523,1.563c-0.851,0.012-1.549-0.67-1.562-1.522
            C160.764,165.96,161.442,165.258,162.294,165.247z M117.331,170.042c0.69,2.437,0.541,7.939-0.348,11.672
            c-0.269,1.121-0.431,5.103-0.431,5.103c-0.164,0.207,5.293-4.519,7.047,1.68c0.604,2.129-1.848,4.148-3.489,3.56
            c-0.318-0.115-0.224-1.171,0.082-1.791c0.911-1.854-1.685-2.816-3.162-1.175c-3.416,3.793,0.098,13.398,5.455,14.332
            c4.444,0.775,8.012-3.651,5.043-6.289c-1.298-1.153-3.373,0.437-2.423,1.904c1.015,1.568-0.854,2.195-2.268,0.74
            c-2.467-2.535,0.303-6.353,4.025-5.47c5.953,1.354,4.729,10.658-1.515,11.185c-4.771,0.4-7.985-1.68-10.004-5.365
            c-1.896-3.543-2.037-6.367-1.17-12.58c0.517-3.688,0.092-6.795-0.934-6.772c-0.562,0.012-1,0.28-1.088,0.94
            c-0.183,1.353-0.339,1.604-1.185,1.113c-1.074-0.623-1.672-2.631,0.084-3.988c1.803-1.393,4.137,0.781,4.041,1.154
            c0.043-0.068,0.226-0.422,0.467-2.002c0.787-5.146-0.961-10.584-3.121-9.713c-0.475,0.19-0.415,0.405,0.203,0.754
            c1.439,0.809,0.17,2.883-1.637,2.674c-2.559-0.297-3.141-3.867-0.887-5.445C113.673,164.347,116.565,167.342,117.331,170.042
            L117.331,170.042z M99.865,165.756c0,0,4.539,2.769,4.78,3.479c0.154,0.455,0.339,4.428,0.339,4.428l-7.878-4.932l-11.295,6.981
            c0.187-1.533,0.998-5.479,0.998-5.479l6.006-3.802C92.845,166.663,96.97,169.385,99.865,165.756z M156.264,166.021
            c0.853-0.015,1.553,0.67,1.564,1.521c0.014,0.854-0.666,1.553-1.519,1.566c-0.852,0.012-1.553-0.666-1.563-1.519
            C154.733,166.738,155.413,166.032,156.264,166.021z M144.243,166.044c0.852-0.014,1.557,0.666,1.567,1.519
            c0.015,0.852-0.676,1.559-1.526,1.569c-0.852,0.012-1.547-0.672-1.562-1.522C142.712,166.756,143.389,166.056,144.243,166.044z
            M150.286,166.392c0.854-0.013,1.559,0.672,1.569,1.522c0.012,0.852-0.67,1.553-1.522,1.564c-0.853,0.014-1.553-0.67-1.564-1.521
            C148.758,167.107,149.434,166.406,150.286,166.392z M135.154,168.579c4.09,0.852,8.188,1.727,12.11,2.156l0.16,12.035l-1.146-0.066
            l-0.164-10.754c-3.787-0.271-7.361-1.084-10.718-1.951L135.154,168.579z M165.567,168.972l-0.213,1.413
            c0,0-7.075,1.226-10.772,1.701c-0.06,2.424-0.051,10.521-0.051,10.521l-1.414,0.258l-0.007-12.252
            C157.307,170.156,161.499,169.685,165.567,168.972z M97.093,169.65l8.33,5.508l0.98,5.836l-9.714-6.453
            c0,0-8.803,5.926-12.098,8.123l1.006-5.502L97.093,169.65z M135.548,170.74c3.355,0.709,6.709,1.447,10.062,1.734l0.141,9.684
            l-1.541-0.41l-0.123-7.858c-2.619-0.228-5.309-0.732-8.016-1.306L135.548,170.74z M165.218,171.027l-0.283,1.315
            c0,0-5.366,0.81-8.137,1.306c-0.246,0.057-0.156,8.524-0.156,8.524l-1.323,0.201l-0.156-9.885L165.218,171.027z M150.182,172.111
            c0.853-0.012,1.549,0.672,1.562,1.522c0.012,0.852-0.666,1.554-1.519,1.566c-0.852,0.012-1.553-0.666-1.565-1.521
            C148.647,172.829,149.331,172.124,150.182,172.111z M96.964,175.605l9.85,6.647c0,0,1.144,3.461,1.388,5.379l-11.334-7.315
            l-14.183,9.399l1.642-5.809L96.964,175.605z M37.269,175.808c0.584,0.008,1.168,0.397,1.471,1.297
            c0.428,1.264,1.225,1.637,3.324,1.598c4.118-0.221,8.438-2.156,12.327-0.703c1.892,0.697,2.564,3.484,0.98,4.211
            c-1.717,0.787-2.449,0.293-3.045-1.057c-0.551-0.572-1.234-0.482-4.929,0.15c-1.628,0.266-3.542,0.502-5.151,0.633
            c-4.117,0.332-6.389-0.965-6.902-3.414C35.019,176.958,36.296,175.794,37.269,175.808z M150.098,178.056
            c0.853-0.013,1.554,0.666,1.564,1.52c0.012,0.852-0.67,1.557-1.523,1.568c-0.852,0.014-1.553-0.67-1.563-1.521
            C148.563,178.769,149.245,178.07,150.098,178.056z M119.925,179.937c1.107-0.017,2.021,0.873,2.037,1.979
            c0.016,1.109-0.873,2.021-1.98,2.037c-1.108,0.016-2.016-0.871-2.03-1.979C117.932,180.866,118.815,179.954,119.925,179.937z
            M96.979,181.342c0,0,8.104,5.414,11.855,7.916l2.076,5.959l-13.806-8.977l-16.893,10.988l2.027-6.127L96.979,181.342z
            M155.497,183.204c0.733,1.98,2.067,3.49,3.479,5.021c0,0-0.784,1.487-3.588,1.399c-1.53-0.049-1.612,0.191-2.135,1.23
            c-0.859,1.315-1.559,2.176-2.113,2.602c-0.979,0.756-2.819-0.373-4.338-2.668c-0.553-0.836-0.781-1.033-2.445-1
            c-2.559,0.053-3.483-0.656-2.155-1.805c1.158-1.412,1.992-2.963,3.026-4.445l1.15,0.131c0.049,0.172-0.896,3.021-2.221,4.178
            c-0.673,0.761,0.27,1.035,1.914,0.688c1.043-0.312,1.311-0.189,2.084,1.406c1.61,3.043,2.446,2.896,4.356-0.189
            c0.666-1.377,0.641-1.514,2.476-1.117c1.969,0.199,2.562-0.049,1.754-0.735c-1.636-1.388-2.537-4.656-2.537-4.656L155.497,183.204z
            M97.05,187.282c0,0,14.658,9.602,14.619,9.393l2.938,6.92l-17.202-11.44l-21.019,13.668l3.146-6.853L97.05,187.282z
            M97.615,193.587l5.11,3.361l-0.014,6.049l-5.219-3.508L97.615,193.587z M96.304,193.76l0.097,5.97l-4.584,2.729l-0.255-5.602
            L96.304,193.76z M90.491,197.609l-0.043,0.229l0.108,0.058l0.037,0.004l0.166,5.381l-5.271,3.652l0.02-6.076L90.491,197.609z
            M103.99,197.672l4.805,3.207l0.197,6.402l-5.215-3.414L103.99,197.672z M109.921,201.583l4.818,3.346l0.17,6.396l-4.924-3.314
            L109.921,201.583z M84.419,201.607l-0.023,5.905l-4.795,3.349l-0.227-6.035L84.419,201.607z M135.13,209.23
            c-0.953,0.992-1.303,0.869-2.117-0.771c-0.846-1.697-2.112-2.492-3.951-2.461c-2.317,0.041-0.803-1.479,1.654-1.658
            C134.966,204.154,137.122,207.003,135.13,209.23z M78.294,205.765l0.129,5.926l-4.771,2.479l-0.146-2.811l2.457-4.295
            L78.294,205.765z M72.141,213.685l0.166,1.08l-0.883,0.34L72.141,213.685z M129.561,256.4c-20.078,4.295-39.328,2.776-53.143,0.221
            l-6.312,10.787l-0.436-0.021l-1.625,2.791l0.174,0.322c0,0-5.244,10.064-7.453,13.238c25.806-0.25,82.443-0.373,82.443-0.373
            l-3.451-6.939l0.189-0.188l-3.41-7.246l-1.107-1.254c0,0-0.676-1.312-1.184-2.715c-0.465-1.295-2.465-4.838-2.465-4.838
            l-0.283,0.022L129.561,256.4z M77.143,257.917c0.269,0.211,25.72,5.008,52.103,0.08l1.442,2.414
            c-23.09,5.312-56.498,0.238-55.18-0.256L77.143,257.917z M77.583,262.665c2.328-0.084,4.686,1.166,6.274,3.252
            c0.507,0.664,1.335,2.621,1.335,2.621s1.112-1.844,2.206-2.768c1.652-1.396,3.796-2.562,6.896-2.451
            c2.855,0.102,5.998,1.647,8.836,6.115c0.715-2.578,10.098-11.336,17.826-0.414c0.883-2.902,5.02-8.699,11.715-4.648
            c0.457,0.979,0.93,2.055,0.93,2.055c-3.953-2.768-10.469-0.912-12.01,3.408c-0.137,0.527,0.037,0.801,0.242,1.312
            c2.035,2.911-3.264,2.842-1.693,0.485c0.293-0.535,0.318-0.977-0.149-1.678c-1.244-1.863-4.982-4.182-7.729-4.121
            c-3.168,0.068-6.68,2.172-7.854,4.082c-0.435,0.705-0.531,1.412-0.15,2.027c0.275,0.621,0.182,1.143-0.283,1.522
            c-1.092,0.896-2.463-0.137-1.938-1.461c0.346-0.584,0.291-1.299-0.416-2.293c-1.42-1.992-4.734-4.094-7.619-4.035
            c-4.127,0.097-8.297,3.068-8.033,5.517c0.117,1.076-0.178,1.479-1.055,1.354c-1.068-0.149-1.189-1.158-0.437-1.979
            c0.113-0.263,0.293-0.9-0.051-1.367c-4.358-5.896-10.885-4.176-12.381-2.857C73.501,263.851,75.529,262.738,77.583,262.665z
            M73.702,266.756c1.637,0.015,3.397,1.25,3.957,2.216c0.403-0.419,4.104-2.183,5.901,0.34c-4.711-0.354-4.768,4.645-1.287,5.125
            c-1.588,4.821,5.527,5.112,5.076,0.584c5.318,0.787,4.662-5.953-0.344-5.242c2.623-1.908,4.406-1.293,7.559,0.896
            c1.06-1.379,5.38-2.668,6.439-0.26c-4.951-0.305-4.107,5.428-0.41,5.479c-1.098,3.975,6.176,5.436,5.055-0.5
            c4.617,0.323,3.947-5.914-0.477-5.398c0.328-1.135,4.818-1.625,6.803,0.543c1.824-1.664,3.836-2.805,7.474-0.424
            c-4.957-0.826-5.021,5.609-0.414,5.223c-0.431,4.263,6.08,4.334,4.992-0.59c4.956-1.336,2.229-6.641-1.41-5.18
            c1.621-1.928,4.373-1.021,5.465-0.627c3.373-3.861,6.312-0.633,6.312-0.633c-5.871-0.613-4.594,7.754,1.127,4.719
            c-0.006,1.723,0.734,3.213,3.068,3.457l2.777,5.746l-78.689,0.52l4.342-7.637c0.439,0.139,2.947,0.367,3.488-2.576
            c5.17,1.641,5.519-4.379,1.654-5.332C72.63,266.881,73.157,266.753,73.702,266.756L73.702,266.756z M70.634,268.935
            c0.514,0.825,0.084,1.364-0.801,1.387C69.833,270.322,70.407,269.486,70.634,268.935z M135.37,270.001l0.508,1.07
            C135.327,270.847,135.261,270.611,135.37,270.001z"/>
    </g>
</svg>
