<?xml version="1.0" encoding="utf-8"?>
<svg version="1.2" baseProfile="tiny"
    xmlns="http://www.w3.org/2000/svg"
    xmlns:svg="http://www.w3.org/2000/svg"
    xmlns:xlink="http://www.w3.org/1999/xlink"
    viewBox="0 0 225 314" width="225px" height="314px"
    fill="#d40000">
    <defs>
        <style>
            .maxi-card { display: none; }
            @media (min-width: 75px) {
                .maxi-card { display: block; }
                .mini-card { display: none; }
            }
        </style>

        <polygon id="suit" points="28.5,0 48.612,29 28.5,58 8.388,29"/>
        <polygon id="numeral" points="0,0 0,2.871 2.937,2.871 2.937,27.849 0,27.849 0,30.942 8.532,30.942 8.532,27.849 6.271,27.849 6.271,20.764 9.698,16.015 14.838,27.849 11.557,27.849 11.557,30.942 20.863,30.942 20.863,27.849 18.637,27.849 11.823,12.635 18.297,2.824 20.697,2.871 20.697,0 11.456,0 11.456,2.871 14.12,2.871 6.271,14.916 6.271,2.871 8.6,2.871 8.6,0 "/>
    </defs>

    <rect width="100%" height="100%" fill="#fefefe"/>

    <!-- Little Card -->
    <g class="mini-card">
        <use xlink:href="#numeral" transform="matrix(3.5,0,0,3.5,78.4,33.95)"/>
        <use xlink:href="#suit" transform="matrix(2,0,0,2,55.5,170)"/>
    </g>

    <!-- Big Card -->
    <g class="maxi-card">

        <!-- Top Numeral and Suit -->
        <use xlink:href="#numeral" transform="matrix(1,0,0,1,7,12)"/>
        <use xlink:href="#suit" transform="matrix(0.4,0,0,0.4,6,51)"/>

        <!-- Bottom Numeral and Suit -->
        <use xlink:href="#numeral" transform="matrix(-1,0,0,-1,218,302)"/>
        <use xlink:href="#suit" transform="matrix(-0.4,0,0,-0.4,218,263)"/>

        <!-- Card Face -->
        <use xlink:href="#suit" transform="matrix(0.8,0,0,0.8,38,40)"/><!-- top left -->
        <use xlink:href="#suit" transform="matrix(-0.8,0,0,-0.8,186,274)"/><!-- bottom right -->

        <path fill="#131F67" d="M30.534,26.113c0.085,79.125,0.927,176.365,0.984,262.545l163.717-0.039l-1.091-262.125L30.534,26.113z M78.928,27.791
            c28.246,0.767,56.666-0.062,85.121,0.16c0,0-10.338,18.008-13.472,23.675c-0.686,1.247-0.756,2.129-0.386,2.646
            c0.571,0.8,0.524,2.152-0.116,2.935c-0.274,0.335-0.399,0.553-0.42,0.753s0.159,0.42,0.304,0.782c0.506,1.727-0.8,2.921-2.167,3.476
            c-0.917,0.371-2.958,0.616-4.465,0.545c-9.442-0.448-27.962-8.428-35.593-9.05c-5.295-1.479-12.137-0.962-17.777-0.643
            c-1.064,0.064-0.878-2.418-0.878-2.418C88.19,42.453,82.384,35.316,78.928,27.791z M165.584,28.54l26.692,0.028l0.12,4.311
            l-11.231,11.512c-1.058,1.077-1.893,1.97-1.893,1.97l-0.067,10.387c-7.656-4.113-9.182-9.029-10.58-14.437
            c-12.799,9.442-13.398,30.105,0.574,40.743c0.114-4.621,3.636-13.7,9.876-14.374l0.087,35.993l-7.675-7.496l-16.687,0.218
            c2.751-4.464,2.812-8.009,1.033-12.192c-3-6.836-7.629-22.439-7.274-22.388c0,0,0.133-0.335,0.512-0.42
            c1.383-0.308,2.263-1.643,1.868-3.248c-0.075-0.517-0.072-0.396,0.279-1.066c1.358-2.317-0.26-4.832-0.26-4.832L165.584,28.54z
            M77.055,28.757l10.016,18.105c0,0-0.13,0.83-0.077,1.317c0.079,0.701,0.313,1.325,0.715,1.979c0.266,0.433,0.461,1.023,0.521,1.568
            c0.099,0.898,0.099,0.899,1.414,2.085c0.276,0.249,0.329,0.403,0.227,0.661c-0.436,1.101-0.18,3.349,0.681,6.034
            c1.087,3.391,1.368,3.347-0.656,7.882c-0.423,0.947-0.933,2.212-1.482,3.374c-2.499,5.134-2.885,6.526,1.405,9.263
            c1.208,0.771,1.562,1.438,1.26,2.974c-0.237,1.207-0.286,1.979,0.294,2.659c0.377,0.441,0.718,0.514,0.623,0.854
            c-0.064,0.231-0.345,1.236-0.251,2.08c0.252,2.275-2.376,5.627-4.773,6.802c-0.48,0.34-0.617-0.075-0.889-0.551
            c-2.484-4.351-8.669-2.588-9.079,2.602c-0.108,1.372-0.066,1.968-0.42,2.259c-0.12,0.1-0.482,0.305-0.482,0.305
            s-9.255,6.019-15.142,9.112c-0.384,0.202-0.729,0.535-1,0.59c-0.312,0.062-0.545,0.006-0.738-0.188
            c-2.173-4.133-0.968-9.015-0.782-10.745c-0.046-0.612-0.57-0.724-1.36-0.733c-1.339-0.016-3.265,1.342-3.684,2.606
            c-0.355,1.075-0.584,1.771-0.907,1.767c-0.324-0.005-0.482-0.438-1.289-1.988c-1.677-3.226-1.936-3.634-3.504-5.508
            c-1.25-1.494-2.316-1.692-3.543-0.579c-0.852,0.774-0.823,0.102-1.549-0.289c-1.252-0.853-3.135-0.09-3.181,1.109
            c-0.039,1.007-0.048,1.764-1.067,1.83c-1.135,0.073-1.627,1.539-1.308,3.629c0.168,1.101,0.201,1.277-0.136,1.681
            c-1.098,1.314-1.24,2.223-0.637,4.059c1.722,5.233,4.216,8.757,6.56,13.516c0,0-5.955,3.379-9.489,5.343l-0.092-97.371
            L77.055,28.757z M192.779,33.932l0.14,84.585l-12.781-12.564c0,0-0.249-16.209-0.236-22.836s0.108-13.253,0.082-14.485
            c-0.027-1.232,0.066-6.476,0.106-11.859c0.083-11.277-0.948-9.884,1.148-12.048L192.779,33.932z M167.799,44.073l0.705,2.042
            c-5.356,3.07-11.909,20.171,0.121,32.726l-0.241,2.587C155.775,69.99,158.109,53.589,167.799,44.073z M168.717,46.486
            c1.838,3.794,3.93,7.153,6.781,9.21c-1.535,3.666-2.196,7.709,0.405,13.163c-1.824,1.001-4.36,3.658-6.984,9.104
            C159.427,68.372,161.539,54.469,168.717,46.486z M98.095,53.654c5.265,0.009,10.756,0.868,15.789,2.385
            c3.175,16.048,8.75,26.838,8.727,33.121c0,0-0.439-0.073-1.375-0.748c-2.294-1.655-5.305-0.731-6.917,1.376
            c-1.528,1.998,0.011,4.776-0.772,5.942c-1.482,2.172-5.298,6.19-5.938,6.058c-0.465-0.097-0.39-0.301,1.246-2.81
            c1.703-2.613,3.009-4.981,2.447-5.561c-0.239-0.246-0.365,0.273-1.637,2.48c-2.983,5.182-5.607,8.386-6.646,7.97
            c-0.486-0.195-0.235-0.624,1.975-3.543c2.494-3.296,3.187-5.358,2.939-6.271c-0.19-0.7-0.577,0.433-1.612,2.457
            c-1.104,2.144-3.099,4.532-4.711,6.825c-0.512,0.83-1.168,1.311-2.008,1.689c-0.623,0.27-1.616,0.711-2.191,0.638
            c-0.296-0.038-0.092-0.213,0.313-0.608c3.183-3.278,5.919-6.933,7.472-10.44c0.24-0.46-0.104-1.115-0.497-0.633
            c-2.381,4.19-5.696,9.418-9.297,11.725c-0.772,0.494-1.935,0.913-2.982,0.825c-1.772-0.051-1.146-0.445,0.468-1.481
            c3.454-2.219,8.302-8.599,9.084-10.855c0.186-0.533-0.021-0.838-0.361-0.802c-2.842,4.547-6.597,9.55-10.962,11.643
            c-2.353,1.128-5.318,1.351-6.777,0.637c-1.068-0.522-0.801-0.702,1.096-0.825c4.564-0.45,9.912-4.734,12.56-9.268
            c1.551-2.51,0.463-1.934-1.308,0.488c-3.022,4.132-9.022,8.094-12.743,7.78c-3.763-0.223-5.928-3.139-5.444-5.638
            c0.292-1.512,1.366-3.053,3.471-3.494c3.604-0.757,5.962,4.951,2.664,6.028c-1.123,0.366-1.551,0.089-1.144-0.362
            c2.446-1.07,1.358-4.01-0.705-4.311c-1.299-0.188-2.804,0.686-2.867,2.698c0.038,1.501,1.272,2.968,3.75,3.003
            c2.938,0.041,7.445-2.073,10.18-5.966c1.941-2.976,0.154-1.972-1.293,0.014c-1.277,1.752-5.4,4.202-5.715,4.113l0.14-2.019
            c0.062,0.35,6.349-3.955,5.98-7.157c-0.235-2.325,0.104-3.036,2.524-3.008c1.81,0.021,4.11,0.656,4.778,1.487
            c0.689,0.821,1.462,1.08,1.12-0.305c-0.555-2.247,0.109-2.617-1.192-2.191c-0.898,0.295-1.695-0.427-2.597-1.066
            c-0.991-0.704-2.245-1.005-3.741-0.951c-1.117,0.04-1.621-0.027-1.442-1.081c0.125-0.743,0.268-1.419,0.053-1.906
            c-0.351-0.793-1.75-1.611-3.33-2.775c-1.867-1.375-1.521-1.456,2.456-10.624c1.671-3.85,1.678-4.64,0.676-7.481
            c-1.582-4.491-1.831-6.29,1.135-6.917C94.61,53.746,96.34,53.651,98.095,53.654z M114.936,56.255l1.54,0.439
            c0.012,0.002,4.808,16.415,7.554,24.429c0.838,2.445,1.477,5.749,1.637,8.853c-0.075,4.272-2.481,7.339-5.416,7.675
            c-2.077,0.237-4.331-0.841-5.362-3.152c-0.87-2.198-0.214-4.791,2.293-5.686c4.34-1.549,7.519,3.99,3.263,5.695
            c-2.201,0.882-4.293-0.708-3.302-2.559c0.695-1.297,2.651-1.156,3.113,0.184c0.377,1.427,1.001,0.754,0.734-0.212
            c-0.808-3.077-4.761-2.353-5.078,0.482c0,3.513,3.846,4.338,6.14,2.365c1.777-1.576,1.964-4.426,1.521-6.897
            c-0.61-5.135-3.517-11.794-5.58-19.395C116.961,64.682,115.469,60.157,114.936,56.255z M176.203,56.439l2.891,1.145l-0.067,9.527
            l-2.452,0.845C173.366,63.053,176.034,56.444,176.203,56.439z M117.601,57.057l2.119,0.815c1.16,6.726,6.632,19.583,8.562,29.179
            c0.538,5.767,0.624,7.459-3.282,10.532v-0.044h-2.114c0,0-0.008-0.129,0.917-0.82c5.116-3.826,2.062-12.258,0.131-18.738
            C120.567,67.632,117.559,57.044,117.601,57.057L117.601,57.057z M97.796,57.728c-0.269,0.003-0.541,0.014-0.815,0.029
            c-3.196,0.171-3.721,0.376-3.731,1.071c-0.02,1.309,0.518,1.89,3.49,1.568c2.572-0.278,6.299,0.121,8.866,1.227
            c2.93,1.26,3.625,1.558,4.678,2.1c2.643,1.36,2.181,0.007-0.208-1.564C105.196,58.949,101.823,57.679,97.796,57.728z
            M120.854,58.191l1.989,0.758c0,0,0.525,1.551,0.714,2.438c1.936,8.586,7.199,18.242,7.814,28.285
            c0.14,3.292-0.425,6.36-2.838,7.844h-1.819c1.945-1.935,3.241-2.493,2.698-9.219C128.551,79.658,122.854,68.865,120.854,58.191z
            M124.382,59.586l1.834,0.676c2.112,11.595,12.584,28.918,5.918,37.277h-1.665c1.487-2.319,2.101-4.356,1.878-7.486
            C131.698,79.518,126.324,69.292,124.382,59.586z M127.457,60.653l1.974,0.604c2.681,11.747,12.98,30.998,5.638,36.322l-1.447-0.039
            C139.153,87.198,130.767,76.497,127.457,60.653z M130.899,61.748c0.606,0.337,1.473,0.499,2.133,0.69
            c2.078,8.883,5.875,17.618,7.603,25.891c0.582,4.529-0.412,7.922-3.258,9.21h-0.608c2.554-3.855,2.072-8.719,0.71-13.974
            C135.645,76.498,132.085,68.723,130.899,61.748z M99.794,61.903c-0.917-0.009-1.876,0.131-2.891,0.454
            c-1.04,0.393-0.912,1.212,0.053,1.043c0.327-0.058,0.905-0.16,1.289-0.228c2.368-0.413,5.286,0.44,8.823,2.583
            c0.854,0.517,1.782,1.016,2.013,1.187c0.649,0.485,1.343,0.483,1.105-0.135c-0.096-0.247-1.459-1.304-2.665-1.979
            C104.944,63.269,102.546,61.929,99.794,61.903z M134.253,62.675l1.988,0.305c3.741,17.19,11.952,27.872,4.929,34.251h-1.757
            c1.921-1.963,2.789-5.036,2.152-8.669c-0.65-3.709-2.566-9.595-4.155-14.771C135.568,67.791,134.084,62.717,134.253,62.675
            L134.253,62.675z M137.106,63.157l1.685,0.314c1.974,6.987,5.324,15.649,7.342,22.864c1.24,4.438,0.742,9.901-2.027,10.909
            l-1.424,0.023c2.351-3.141,2.686-6.412,1.612-10.643C142.089,77.942,138.753,70.364,137.106,63.157z M147.503,63.167
            c1.702,7.244,5.786,18.296,7.254,22.112c1.953,3.896,1.367,9.667-1.568,11.951l-1.39,0.028c1.679-1.57,2.256-4.214,1.988-6.955
            c-0.756-7.746-6.239-18.489-8.225-26.74L147.503,63.167z M140.113,63.51l1.738,0.159c1.74,7.577,5.125,14.943,7.322,22.522
            c0.409,1.71,0.766,3.8,0.622,5.338c-0.3,3.226-1.636,5.769-2.809,5.769h-1.197c2.445-2.913,2.325-6.886,1.279-11.155
            C145.339,79.087,141.156,70.579,140.113,63.51z M94.871,63.549c-0.725,0.004-0.737,0.666,0.42,1.68
            c0.707,0.619,0.653,0.413,0.612,0.806c-0.172,1.679,0.093,3.215,0.782,1.487c0.185-0.462,0.454-0.982,0.725-0.918
            c0.51,0.158,0.251,1.095,0.497,1.569c0.416,0.836-0.026,1.04-1.038,0.781c-0.729-0.186-0.77,0.209-1.221,0.71
            c-0.792,0.878-0.663,1.402,0.555,1.13c0.201-0.045,0.37,0.012,0.526,0.048c0.379,0.087,0.727,0.328,1.631,1.019
            c1.162,0.887,2.809,2.068,3.876,2.249c1.71,0.289,1.329-0.529-0.072-1.066c-1.2-0.46-2.688-1.736-2.684-2.09
            c0.003-0.271,0.381-0.11,2.544-0.705c0.938-0.258,2.258-0.835,2.813-1.091c0.918-0.423,0.962-0.419,2.399-0.376
            c2.448,0.072,2.821-0.011,1.105-1.284c-3.469-2.573-8.098-4.249-10.552-3.181c-0.744,0.323-0.727,0.125-1.265-0.184
            C95.823,63.73,95.25,63.547,94.871,63.549z M144.52,63.781c2.404,9.262,7.055,17.56,8.187,26.345
            c0.256,2.513-0.166,4.968-2.254,7.091l-1.41,0.024c-0.206,0.003,1.968-3.359,1.781-6.236c0.057-1.535-0.112-3.183-0.55-4.808
            c-2.732-7.811-5.422-14.89-7.511-22.334L144.52,63.781z M101.103,66.822c0.014-0.002,0.025-0.002,0.038,0
            c0.656,0.103,0.679,0.363,0.487,0.705c-0.282,0.505-0.781,1.477-0.781,1.477s-0.665,0.131-0.802-0.039
            C99.806,68.616,100.683,66.872,101.103,66.822z M102.768,67.12c0.072-0.001,0.163,0.036,0.304,0.092
            c0.63,0.249,1.723,0.76,1.25,1.154c-0.559,0.467-2.726,0.677-2.62,0.482l0.724-1.337C102.578,67.228,102.647,67.122,102.768,67.12z
            M96.131,75.215c-0.057,0.003-0.104,0.017-0.141,0.039c-0.125,0.075,0.159,0.578,0.575,1.148c1.917,2.587-0.737,3.354-2.616,1.97
            c-1.784-1.388-4.539-1.257-4.142,0.197c0.14,0.513,0.003,0.763,0.999,0.777c0.885,0.013,1.113,0.062,1.911,0.608
            c3.052,2.087,6.994-0.707,5.068-3.702C97.423,75.688,96.524,75.193,96.131,75.215z M103.66,79.255c-1.107,0-1.808,0.826-0.42,1.074
            c4.957,0.89,1.633,6.029-1.863,3.381c-3.149-2.843-7.363-2.823-7.414-0.806c-0.007,0.508,0.017,0.524,0.763,0.666
            c1.756,0.332,4.378,1.13,5.383,1.636c0.59,0.298,1.211,0.576,1.38,0.618c2.1,0.763,4.792-0.229,5.325-1.996
            C107.301,82.21,106.907,79.255,103.66,79.255L103.66,79.255z M41.487,95.792c0.664,0.008,1.369,0.588,1.873,1.438
            c1.163,1.964,2.578,5.266,3.48,7.085c0.227,0.459,0.235,0.869,0.222,1.087c0.07,1.066,0.429,1.47,1.062,0.989
            c0.623-0.473,1.486-1.264,0.473-1.391c-1.019-0.768-1.586-1.896-0.955-2.582c0.464-0.506,0.282-0.834-0.092-0.854
            c-1.428-0.021-3.557-4.269-2.554-5.184c1.354-1.235,2.852,0.294,6.038,6.617c1.405,2.792,1.47,5.849,0.266,4.335
            c-0.409-0.382-0.326-0.185-0.806,1.019c-0.36,0.903-0.657,1.332-2.032,2.654c-1.675,1.61-2.689,2.883-2.727,3.161
            c-0.072,0.534,0.904,0.036,1.616-0.893c1.592-1.555,1.651-1.969,1.637,0.092c-0.013,1.863-0.109,2.204,0.227,2.191
            c0.523-0.02,0.803-1.494,1.048-3.272c0.291-1.603,1.124-2.41,2.51-3.302c0.38-0.244,0.387-0.413,0.313-1.12
            c-0.256-2.263,1.031-6.483,1.617-5.439c0.083,0.235,0.337,0.784,0.473,1.168c0.109,0.596,0.484,1.268,1.058,1.313
            c0.711,0.532,0.709,0.82,0.955,2.771c0.081,0.636,0.362,1.592,0.561,2.1c0.368,0.945,0.696,1.499,0.492,1.78
            c-0.13,0.14-0.405,0.401-0.405,0.401l-11.604,6.878c0,0-0.911,0.504-1.241,0.642c-0.919,0.416-1.479,0.108-1.931-0.579
            c-2.458-3.661-4.146-7.775-5.874-11.569c-1.037-2.253-0.021-3.742,1.318-1.926c0.521,0.705,0.254,1.155-0.005,2.52
            c-0.047,0.246,0.182,0.152,0.612,0.222c0.678-0.072,1.005,0.532,0.98,1.559c-0.429,1.472,0.163,0.678,0.443,0.604
            c0.537,0.008,0.655,0.33,0.956,0.941c0.188,0.861,0.566,0.612,1.12,0.044c0.457-0.47,0.458-0.459-0.464-1.56
            c-1.593-1.726-3.801-5.621-4.373-7.993c-0.157-0.654-0.101-1.177,0.02-1.525c0.72-1.62,1.722-1.626,2.814,0.638
            c0.186,0.385,0.551,1.006,0.811,1.38c0.42,0.607,0.681,1.129,0.666,2.095c-0.323,0.81-0.376,0.826-0.097,0.937
            c0.692,0.274,1.924,1.525,1.979,2.646c0.056,1.138,0.248,1.741,1.144,1.066c1.021-0.77,0.586-1.079-0.42-2.065
            c-1.055-1.255-1.118-2.343-0.492-3.249c0.103-0.304,0.059-0.39-0.328-0.352c-1.225,0.118-2.415-1.433-1.564-2.611
            c0.393-0.691,0.346-0.869-0.207-0.889c-0.288-0.01-0.765,0.045-0.999-0.087c-0.362-0.679-1.118-1.627-1.11-2.403
            C40.348,96.226,40.902,95.785,41.487,95.792L41.487,95.792z M114.212,95.85c2.012,1.233,4.004,2.518,6.266,3.104
            c-5.238,9.435-13.663,14.49-20.712,16.465c0.239,1.207,0.41,2.41,1.578,3.151c-0.04-0.183-0.558-2.325-0.444-2.766
            c9.712-2.479,18.261-11.993,20.446-16.898l42.679-0.464c-31.639,30.351-32.899,73.066-7.085,108.869l-2.969,1.733
            c-19.892-29.796-19.689-58.503-13.723-77.727c4.23-13.631,11.82-24.043,17.589-29.994c0,0-23.14-0.318-34.657,0.106
            c-1.673,2.56-3.229,4.649-5.478,7.066c0,0,5.852-5.651,5.7-6.632c10.674-0.006,21.681-0.623,32.34,0.12
            c-12.474,14.928-18.622,30.339-19.688,44.837c-0.04,1.886-0.154,0.832-0.777,1.525l-1.97,3.055l-1.578-3.176
            c-1.073-0.347-3.183,0.213-4.079-0.111c-4.388,19.578,0.047,43.207,5.821,58.627c0,0-1.449,0.812-3.233,0.676
            c-1.953-0.434-2.431,0.105-4.122,0.449c-1.945,0.369-2.625,0.367-3.056,0.858c-0.239,0.273-0.673,0.655-1.163,0.922
            c-4.739,1.722-10.301,8.177-10.301,8.085l-5.218-2.341c4.808-9.441,10.45-12.839,20.369-17.029l-0.922-4.218
            c-10.564,3.935-17.287,8.646-22.59,17.801c-6.433-0.091-32.491-0.274-32.518-0.193c10.629-12.087,19.009-30.318,19.925-44.532
            c0.225-2.769-0.162-1.438,1.062-2.264l1.927-2.293l1.511,2.26c0,0,1.094,1.393,1.785,0.231c1.938-19.821-0.111-42.424-9.663-58.178
            c1.694-0.112,3.383-0.159,5.006,0.801c3.735,8.46,5.937,18.911,6.893,26.746c1.209,9.915,1.038,21.1-0.193,30.597l0.637,0.087
            c1.862-12.343,1.231-25.47-0.478-36.944c-0.877-5.985-3.701-15.348-5.643-19.669c-0.536-1.194-0.952-1.503-0.444-1.68
            C104.681,105.934,110.031,102.05,114.212,95.85z M81.94,96.893c0.891,0,1.612,0.722,1.612,1.612c0,0.89-0.722,1.611-1.612,1.611
            c-0.89,0-1.611-0.722-1.611-1.611C80.328,97.615,81.05,96.893,81.94,96.893z M169.421,97.713c-3.407,3.084-6.146,6.28-9.021,9.688
            c8.512,11.705,17.972,24.394,25.925,34.531c0,0,2.753-1.632,2.742-1.835c-0.006-0.106-0.22-0.646-0.271-0.525
            c-0.118,0.281-2.229,1.462-2.229,1.462l-25.172-33.034c0,0,1.364-1.634,1.785-2.148c1.956-0.643,7.398-7.384,7.665-7.245
            c4.265,3.267,17.125,17.114,22.078,21.359l0.062,38.436c-0.513,1.538-14.223,7.464-23.907,29.574
            c-4.869,2.729-10.265,4.196-15.281,6.569c0,0,1.277,2.008,1.901,2.558c-0.767-1.656-0.901-1.972,0.835-2.679l36.235-14.77
            l-0.067,2.982l-0.589,5.15c-9.861,6.081-18.184,8.629-31.756,17.802c-0.97,0.226-1.75,1.156-2.771,1.206
            c-34.671-51.06-12.508-89.531,7.698-108.859L169.421,97.713z M56.517,100.324c0.946,0.016,0.707,2.21,0.357,2.969
            c-0.698,0.549-1.396,0.062-1.38-0.966c0.004-0.335-0.062-0.65-0.146-0.705C54.824,101.288,55.702,100.313,56.517,100.324z
            M77.693,101.696c0.796,0.604,1.091,1.409,1.385,2.215c-1.074-0.169-3.951-0.993-2.602-1.636L77.693,101.696z M72.455,104.548
            c25.006,37.817,23.887,77.983-4.021,108.43l35.308-0.054c4.495-8.868,11.981-14.273,21.562-17.603l0.835,2.784
            c-11.01,3.535-16.58,9.395-21.011,17.512H63.019c16.179-17.407,23.591-32.111,24.757-52.004
            c1.111-18.944-3.709-36.245-18.347-57.062L72.455,104.548z M79.502,104.983l5.898,2.784l-0.873,6.054l-6.179-2.849L79.502,104.983z
            M68.869,106.681c31.537,47.707,18.011,81.265-7.168,109.192l-4.639,0.077l-10.812-10.044l0.197,61.035
            c0,0-10.542,10.327-11.753,11.564c-1.197,1.152-2.095-0.617-2.095-0.617l0.028-80.912l0.469-3.171l0.145-17.435l6.719-3.543
            l25.196,33.024c0,0-1.013,1.492-1.482,1.758c-0.306,0.172-0.081,0.468,0.174,0.434c0.708-0.093,2.727-2.35,2.303-2.712
            c-9.14-11.323-26.133-33.494-26.133-33.494l-7.075,3.693c0,0,0.204-14.476,0.077-20.031c0.271-1.312,1.254-0.96,1.916-1.545
            c8.148-5.237,13.89-11.63,17.435-17.83c0.26-0.464,1.828-3.247,1.983-3.5c0.553-0.9,1.924-3.718,2.723-5.517
            c0.446-1.006,0.921-2.225,1.101-2.37c4.902-1.597,10.049-3.862,14.973-5.898l-7.091-10.644L68.869,106.681z M49.542,107.289
            c-0.266-0.004-0.942,0.304-1.858,1.135c-1.689,1.533-3.917,4.053-3.924,4.532c0.453,0.163,0.854-0.098,1.217-0.464
            c1.413-2.086,3.599-2.902,4.879-4.729C50.055,107.424,49.845,107.285,49.542,107.289z M65.428,109.505c0,0,4.893,7.128,6.145,9.021
            c-12.894,5.104-26.385,11.848-38.335,16.208v-2.857l1.888-5.131L65.428,109.505z M84.61,114.216l4.821,2.49l-1.36,5.44l-4.866-2.723
            L84.61,114.216z M88.586,123.266l3.963,2.887l-1.81,4.614l-3.992-2.746L88.586,123.266z M56.252,126.65c0,0-0.611,2.14-1.637,4.055
            c-4.904,8.521-9.702,16.092-19.616,22.667c-0.377-0.336-1.458-2.226-1.458-2.226l-0.096-2.524
            c5.256-4.222,9.792-7.321,16.753-19.713l2.018-0.82l1.719,0.743l1.163-2.075L56.252,126.65z M76.877,126.669
            c-4.569,9.692-9.064,19.689-16.344,27.242l19.92,27.808C87.008,162.085,84.574,143.685,76.877,126.669z M51.811,128.783
            l-0.955,1.655l1.655,0.956l0.956-1.655L51.811,128.783z M49.108,128.962c-3.608,8.069-9.025,14.277-16.136,18.742l-0.275-11.84
            L49.108,128.962z M50.377,131.37l-0.955,1.656l1.655,0.955l0.956-1.655L50.377,131.37z M91.092,131.718l3.591,3.408l-2.134,3.76
            l-3.683-3.046L91.092,131.718z M146.108,133.393c-0.004,0.002-0.007,0.006-0.01,0.01c-6.311,19.616-4.416,38.354,4.243,54.664
            c4.248-10.572,7.735-17.647,16.03-28.903C161.264,152.476,146.621,133.181,146.108,133.393z M48.968,133.706l-1.004,1.627
            l1.627,1.004l1.004-1.627L48.968,133.706z M76.505,135.994c5.689,13.601,5.188,25.863,2.162,36.491l-14.21-17.951
            C69.663,148.073,73.12,141.953,76.505,135.994z M47.5,136.043l-1.076,1.578l1.578,1.081l1.077-1.583L47.5,136.043z M45.913,138.302
            l-1.178,1.511l1.506,1.178l1.177-1.511L45.913,138.302z M92.728,139.909l3.22,3.055l-2.032,3.963l-3.268-2.987L92.728,139.909z
            M44.055,140.653l-1.236,1.453l1.453,1.235l1.235-1.453L44.055,140.653z M147.85,141.082l14.336,18.496
            c-4.795,5.707-8.779,12.431-12.342,19.679C145.85,166.741,144.047,154.445,147.85,141.082z M42.041,142.955l-1.322,1.38l1.381,1.322
            l1.322-1.38L42.041,142.955z M75.53,144.804l-6.56,9.484l7.521,9.601C77.3,158.692,77.482,152.659,75.53,144.804L75.53,144.804z
            M39.904,145.113l-1.409,1.294l1.293,1.409l1.41-1.294L39.904,145.113z M37.832,146.961l-1.486,1.207l1.207,1.486l1.481-1.207
            L37.832,146.961z M93.858,147.941l2.693,3.147l-2.732,3.239l-2.558-2.877L93.858,147.941z M128.099,148.506l1.829,0.067
            c-3,29.594,2.897,44.566,8.114,57.589c0,0-0.013,0.521-0.188,0.676c-0.85,0.292-2.569,0.608-3.948-0.604
            C126.887,188.194,125.356,165.97,128.099,148.506z M35.424,148.887l-1.55,1.12l1.12,1.549l1.55-1.119L35.424,148.887z
            M150.08,149.94c-0.466,0-0.87,12.175,0.883,18.119l6.599-8.938L150.08,149.94z M133.023,151.948l2.205,2.964l-2.341,3.19
            l-2.394-3.021L133.023,151.948z M33.633,152.753c0.111-0.018,0.293,0.291,0.647,0.536c0.329,0.345,0.282,0.318-0.087,0.613
            c-0.577,0.46-0.749,0.386-0.739-0.333C33.504,152.978,33.547,152.767,33.633,152.753z M93.988,154.979l2.438,3.489l-2.698,3.471
            l-2.307-3.654L93.988,154.979z M132.829,159.4l2.567,3.128l-2.205,3.432l-2.805-3.277L132.829,159.4z M192.286,160.061l0.227,3.606
            l-0.888-1.318l-1.632,1.25l1.139,1.511l1.425-1.109l0.086,1.452c-9.043,6.536-12.944,14.043-16.613,19.675l-1.632,0.689
            l-1.858-0.589l-0.907,1.607l-1.578,0.372c-0.048-0.01,3.169-6.901,8.674-13.916C183.629,167.045,192.26,160.003,192.286,160.061
            L192.286,160.061z M193.333,165.703l0.077,12.82l-16.185,6.252C181.427,177.618,186.379,170.977,193.333,165.703L193.333,165.703z
            M189.313,164.145l-1.477,1.211l1.273,1.463l1.473-1.212L189.313,164.145z M187.039,166.075l-1.424,1.27l1.327,1.414l1.424-1.279
            L187.039,166.075z M132.993,166.784l3.051,3.249l-2.235,3.837l-3.176-3.045L132.993,166.784z M184.741,168.151l-1.337,1.366
            l1.463,1.404l1.337-1.365L184.741,168.151z M182.637,170.309l-1.283,1.419l1.554,1.347l1.284-1.419L182.637,170.309z
            M180.523,172.727l-1.191,1.496l1.616,1.25l1.192-1.501L180.523,172.727z M134.041,175.025l3.812,2.476l-1.863,4.537l-3.808-2.9
            L134.041,175.025z M178.679,175.043l-1.119,1.555l1.723,1.178l1.135-1.607L178.679,175.043z M176.956,177.495l-1.038,1.607
            l1.742,1.12l1.033-1.66L176.956,177.495z M175.416,179.923l-0.956,1.656l1.806,1.028l0.956-1.676L175.416,179.923z M174.027,182.434
            l-0.956,1.655l1.998,0.864l0.792-1.579L174.027,182.434z M136.107,183.456l3.905,2.646l-1.729,4.755l-4.122-2.916L136.107,183.456z
            M192.73,188.134l0.193,97.83l-42.992,0.149c0,0-2.011-3.537-6.217-11.71c-1.781-3.46-3.287-4.93-3.442-7.67
            c0.161-1.608-0.582-3.435-1.901-4.17c-0.442-0.247-1.184,0.051-0.937-0.638c0.272-0.758-0.563-1.924-0.791-2.172
            c-0.261-0.438-0.099-0.545-0.126-2.177c-0.026-1.577-0.11-2.236-0.449-3.427c-0.854-3.009-1.044-4.512-0.555-6.072
            c1.27-3.957,2.594-6.992,4.306-10.682c0.995-2.159,0.844-3.003-2.211-4.571c-2.287-1.174-2.591-1.162-2.303-2.877
            c0.136-0.804,0.261-1.311,0.092-1.699c-0.103-0.236-0.482-0.567-0.704-0.758c-0.299-0.255-0.209-0.781,0.097-1.173
            c0.299-0.384,0.302-0.933,0.005-1.849c-0.625-1.926,0.789-4.478,3.46-6.241c1.182-0.779,1.148-0.617,2.38,0.676
            c3.6,3.781,8.948,1.406,8.959-3.924c0.003-1.661-0.563-1.562,1.009-2.346c5.325-3.389,16.256-9.552,16.184-9.384
            c0.712,1.451,0.95,2.69,1.4,4.253c0.389,1.34,0.338,1.442,0.193,4.05c-0.132,2.356-0.202,2.904,0.352,3.055
            c3.155,0.348,3.875-0.768,4.479-2.804c0.262-0.899,0.765-0.717,1.076-0.338c1.201,2.185,2.72,4.456,3.717,6.009
            c1.247,1.983,3.347,2.97,4.446,2.032c0.23-0.771,0.421-0.794,1.814-0.478c1.689,0.384,2.651-0.562,2.814-1.806
            c0.064-0.495-0.297-0.476,0.607-0.965c2.244-1.661,1.389-3.93,1.053-5.295c0.029,0.072,0.959-0.565,0.979-1.844
            c0.107-6.64-5.646-16.2-5.517-15.953L192.73,188.134z M138.448,191.956l4.566,2.206l-1.076,5.455l-4.692-2.109L138.448,191.956z
            M182.878,193.984c2.63,3.05,4.532,8.133,5.513,11.445c0.484,1.649,0.543,3.531,0.111,3.793c-0.427,0.259-0.626-0.018-0.546-1.004
            c0.067-0.82,0.091-1.457-0.261-1.447c-1.021,0.263-1.06-1.283-0.955-1.646c0.069-0.242,0.195-0.413,0.251-0.545
            c0.251-0.6-0.406-0.519-1.087-0.526c-0.602,0.015-0.757-0.352-0.729-0.922c-0.018-0.633-0.855-0.51-1.332-0.029
            c-0.436,0.439-0.345,0.956,0.246,1.317c0.848,0.52,1.649,1.796,3.625,6.198c1.146,2.556,0.807,4.369-0.56,4.349
            c-0.948-0.028-2.053-2.624-2.944-4.537c-0.23-0.494,0.347-1.047,0.55-1.312c0.524-0.688,0.445-0.906-0.333-0.917
            c-0.729-0.011-1.038,0.054-1.477-0.845c-0.166-0.339-0.285-0.854-0.228-1.183c0.376-0.991-0.396-1.23-1.144-0.85
            c-0.943,0.393-0.937,1.234,0.502,2.611c0.926,1.52,0.685,1.414-0.193,2.438c-0.184,0.361-0.073,0.583,0.313,0.589
            c1.113-0.34,2.325,1.664,1.994,2.351c-0.341,0.295-1.273,1.364-0.372,1.158c1.832-0.498,2.947,2.185,1.868,3.094
            c-1.609,0.808-1.991,0.556-4.47-4.396c-0.77-1.538-1.696-3.19-1.81-3.36c-0.114-0.169-0.165-0.623-0.159-0.989
            c0.107-0.896-0.274-1.099-1.053-0.743c-0.584,0.14-1.112,0.62-0.372,1.076c0.864,1.491,1.17,1.731,0.695,2.109
            c-1.081,0.861-0.612,0.826,0.599,1.067c0.593,0.178,0.894,0.483,1.057,0.849c0.626,1.405,1.734,3.386,1.845,3.789
            c0.366,1.03-0.296,1.493-1.202,1.448c-0.948,0.023-1.383-0.727-1.844-1.366c-1.725-2.396-2.967-4.77-4.726-7.491l0.236-2.543
            c0,0,0.461,0.1,0.72-0.024c0.506-0.243,0.807-1.038,1.096-2.095c0.462-0.919,3.192-3.009,4.237-4.132
            c0.193-0.127,0.355-0.337,0.357-0.464c-0.007-0.411-1.185-0.136-1.96,0.753c-1.139,1.012-1.624,0.665-1.588-0.627
            c-0.112-1.596-1.085-0.796-1.135,0.763c-0.125,1.23-0.553,1.98-1.414,2.669c-1.625,1.3-1.354,0.971-1.279,2.775
            c0.132,3.147-1.082,5.736-1.877,4.021c-0.282-0.609-0.613-1.302-1.322-1.333c-0.503-0.021-0.752-0.515-1.028-1.732
            c-0.411-1.971-0.986-3.239-1.511-5.054L182.878,193.984z M142.406,200.766l5.262,2.095l-0.985,5.503l-5.213-1.994L142.406,200.766z
            M182.522,201.273c-0.035,0.002-0.077,0.011-0.121,0.029c-1.482,1.119-2.85,2.376-4.465,3.34c-0.605,0.357-1.313,1.283-1.317,1.53
            c-0.005,0.241,0.719,0.235,1.424-0.072c0.669-0.292,4.484-3.875,4.489-4.204C182.794,201.606,182.769,201.257,182.522,201.273
            L182.522,201.273z M134.209,207.952c1.244-0.002,0.519,0.367-2.195,2.25c-2.65,1.838-7.019,7.651-7.525,9.808
            c-0.23,0.979,0.391,1.056,1.091-0.289c3.218-6.185,9.304-11.836,14.876-11.585c2.73,0.123,4.205,0.859,1.945,1.183
            c-6.194,0.761-10.824,4.293-14.876,11.334c-0.003,0.157,0.367,0.149,0.792-0.121c3.709-4.534,7.888-10.54,15.229-10.054
            c5.295,0.318,6.799,6.615,2.403,8.765c-3.832,1.874-7.366-2.689-4.189-5.396c1.031-0.879,1.676-0.494,0.686,0.405
            c-2.126,1.929,0.479,5.363,3.069,4.06c1.576-0.661,2.215-2.917,0.825-4.62c-3.09-3.788-9.745-0.907-14.384,5.213
            c-0.486,0.645-0.907,2.043-0.497,1.893c0.72-0.297,1.155-0.861,1.578-1.496c1.656-2.296,2.928-3.448,5.17-4.683
            c1.731-0.953,1.839-0.774,1.192,0.879c-0.272,0.696-0.491,0.928-1.163,1.361c-2.824,1.929-4.578,4.513-4.648,6.159
            c-0.051,1.201,0.828,2.771-0.126,3.094c-1.617,0.764-6.029,0.141-7.221-1.381c-0.856-1.094-1.188-0.46-0.545,1.318
            c0.425,1.174,0.406,1.838,1.047,1.718c0.811-0.429,1.367-0.328,2.939,0.531c0.758,0.414,2.102,0.801,2.921,0.989
            c1.492,0.345,1.804,0.199,1.771,0.845c-0.011,0.198,0.058,0.755,0.014,1.105c-0.242,1.945,1.382,2.607,3.597,3.886
            c1.294,0.747,0.783,1.516-0.715,5.218c-0.778,1.675-1.443,3.928-2.403,5.628c-0.897,1.91-0.975,4.002-0.396,6.386
            c1.074,4.425,1.848,6.673-0.067,7.071c-4.927,0.745-15.809,0.715-21.749-1.568c-1.521-11.403-9.572-28.322-8.539-32.697
            c2.061,3.107,10.702,2.285,8.1-6.4c0,0,0.708-1.06,2.114-2.485c3.627-3.68,4.521-4.288,2.799-1.048
            c-1.323,2.491-3.013,5.741-3.05,6.371c-0.03,0.502,0.36,0.619,0.666,0.218c0.226-0.298,0.494-1.02,0.729-1.569
            c2.161-5.06,5.856-9.622,8.403-10.72c0.656-0.283,0.623,0.019,0.169,0.574c-2.996,3.729-5.284,7.176-6.912,11.676
            c-0.072,0.465,0.587,0.658,0.797,0.218c2.811-5.891,3.651-7.228,7.105-11.377c1.357-1.632,2.62-2.454,3.629-2.365
            c0.873,0.077,0.615,0.221-0.192,1.081c-0.617,0.657-1.528,1.572-3.003,3.427c-2.6,3.272-5.215,8.596-4.252,8.317
            c0.166,0.443,0.986-0.972,1.68-2.322c1.9-3.19,3.918-7.406,8.431-10.178C132.27,208.187,133.299,207.963,134.209,207.952
            L134.209,207.952z M46.931,208.981l8.037,8.032l16.165-0.208c-2.666,4.143-1.242,10.564,0.227,14.316
            c2.88,7.356,7.102,19.502,6.791,19.68c0,0-2.351,0.604-2.562,2.095c-0.315,2.209,0.643,2.045-0.738,4.04
            c-0.312,0.448-0.111,1.296,0.222,1.969c0.219,0.494,0.429,1.237,0.02,1.815l-14.259,25.438l-27.059,0.13v-5.088l13.549-13.718
            l-0.164-10.093c7.39,2.197,9.927,9.821,10.561,15.471c13.349-12.183,13.019-30.522,0.405-42.027
            c-2.459,12.16-11.265,14.688-11.072,14.446L46.931,208.981z M147.459,210.424c0.865,0.062,2.032,0.201,2.824,0.628
            c-0.537,0.32-0.918,0.703-1.274,1.096C148.575,211.379,147.992,210.959,147.459,210.424L147.459,210.424z M169.865,210.511
            c0.72-0.002,1.604,2.104,1.096,2.597c-0.286,0.278-1.214,0.383-1.545,0.174C168.992,212.967,169.208,210.513,169.865,210.511z
            M144.37,214.165c0.928,0,1.68,0.752,1.68,1.68s-0.752,1.68-1.68,1.68s-1.68-0.752-1.68-1.68S143.443,214.165,144.37,214.165z
            M73.276,216.559l1.212,0.029c-2.202,2.944-2.499,5.479-1.719,9.151c0.878,4.133,7.575,19.668,8.008,23.946
            c0.02,0.193,0.039,0.738,0.039,0.738l-1.646,0.111c0,0-0.123-0.442-0.174-0.613c-2.303-7.745-4.596-13.652-6.197-18.168
            C71.201,226.885,68.758,219.665,73.276,216.559z M82.128,216.588c0.012-0.002,0.021,0.002,0.029,0.005l1.163,0.01
            c-0.043,0.025-1.736,3.656-1.858,5.859c-0.138,2.497,0.466,5.217,1.294,7.901c1.954,5.808,4.815,12.276,6.405,19.606
            c0.019,0.086,0.192,0.797,0.192,0.797l-1.723-0.231c0,0-0.169-0.751-0.188-0.854c-1.189-6.448-4.508-13.145-6.487-19.491
            c-1.014-2.885-1.719-6.431-1.356-9.142C79.855,219.136,81.774,216.625,82.128,216.588L82.128,216.588z M96.198,216.603
            c-1.232,1.907-2.354,4.299-2.433,6.174c-0.071,3.487,0.945,6.432,1.96,9.513c3.124,9.488,4.64,14.493,6.202,22.103l-1.66-0.71
            c0,0-0.065-0.427-0.102-0.55c-0.887-4.765-0.943-4.35-6.154-20.374c-1.222-3.847-2.385-7.219-2.157-10.421
            c0.051-1.824,1.643-5.437,3.32-5.725L96.198,216.603z M98.192,216.603h1.55c0,0-0.854,0.903-1.101,1.24
            c-2.707,3.754-1.923,7.782-0.579,12.584c1.85,6.606,5.269,13.995,7.057,24.066c0.033,0.187,0,1.158,0,1.158l-1.844-0.743
            c-1.675-9.233-5.809-18.808-7.8-27.112c-1.172-4.877-0.838-7.959,1.867-10.614C98.021,216.658,98.192,216.603,98.192,216.603z
            M79.285,216.656h1.158c0,0-1.937,3.182-1.936,5.054c-0.323,3.353,0.89,7.057,2.283,10.938c2.142,5.966,4.972,13.179,5.841,16.977
            c0.034,0.148,0.149,0.83,0.149,0.83l-2.022-0.106c0,0-0.106-0.919-0.227-1.342c-2.335-8.165-4.608-13.446-7.289-20.9
            c-0.405-1.128-1.054-5.59-0.289-8.48C77.554,217.355,79.285,216.656,79.285,216.656z M76.182,216.66l1.25,0.034
            c0,0-0.188,0.339-0.666,1.158c-2.281,4.13-1.259,7.9,0.154,12.101c1.886,5.605,4.847,12.449,6.694,18.926
            c0.104,0.365,0.247,1.468,0.247,1.468l-1.806-0.024c0,0-0.367-1.319-0.391-1.462c-1.016-6.004-6.503-16.012-7.931-23.628
            C72.951,221.148,73.624,218.617,76.182,216.66z M92.926,216.66c0,0-1.973,3.42-2.153,5.324c-0.353,3.734,0.832,6.826,2.187,11.039
            c2.339,7.268,5.639,15.795,5.933,19.693c0.01,0.128,0.058,0.604,0.058,0.604l-2.032-0.725c0,0-0.091-0.406-0.13-0.55
            c-1.771-7.054-3.865-14.078-6.681-21.996c-0.694-2.671-1.605-5.359-1.525-7.655c0.413-3.066,0.935-3.894,2.762-5.71L92.926,216.66z
            M101.865,216.665l1.636,0.034c0,0-0.488,0.262-1.655,1.506c-6.455,5.898,4.019,22.553,6.434,37.717
            c0.027,0.162,0.102,0.733,0.102,0.733l-1.8-0.646c-0.171-0.756-0.299-1.675-0.507-2.501c-1.957-7.751-4.568-15.722-6.966-22.951
            c-1.344-5.268-1.836-9.907,0.58-12.502C100.445,217.159,101.865,216.665,101.865,216.665L101.865,216.665z M85.034,216.675
            l1.742,0.048c-1.26,1.579-1.998,4.039-2.066,6.227c-0.066,2.588,0.625,5.104,1.478,7.767c1.747,5.46,4.243,11.395,5.956,18.762
            c0.097,0.488,0.178,0.801,0.222,1.014c0.071,0.338,0.266,0.874,0.266,0.874l-1.839-0.367c0,0-0.189-0.478-0.313-0.729
            c-0.186-0.378-0.355-0.858-0.507-1.434c-0.891-3.844-4.168-12.564-6.164-18.68C82.226,226.302,81.794,219.567,85.034,216.675z
            M106.788,216.742c2.229-0.082,4.244,1.81,4.721,3.586c0.463,1.888-0.129,4.017-2.206,5.068c-3.366,1.705-6.991-2.831-4.334-5.329
            c2.014-1.893,4.992-0.491,4.344,1.932c-0.418,1.576-2.811,1.679-3.205,0.086c-0.108-0.529-0.374-1.059-0.564-0.767
            c-1.238,2.907,2.925,4.27,4.653,1.563c1.024-2.169-0.927-4.962-3.799-4.431c-3.938,0.728-4.392,5.726-2.756,11.555
            c2.28,9.215,7.723,21.607,7.713,27.296c0,0.075,0.02,0.309,0.02,0.309l-1.729-0.516c0,0-0.012-0.096-0.023-0.179
            c-1.036-7.945-6.938-21.099-8.631-31.21c-0.733-4.611,1.062-7.957,5.102-8.872C106.327,216.781,106.558,216.751,106.788,216.742z
            M89.701,216.815c-1.212,1.62-2.004,4.055-2.042,5.792c-0.036,2.546,0.877,5.024,1.632,7.675c1.909,6.546,6.37,18.632,6.207,20.896
            c0.047,0.243,0.169,0.994,0.169,0.994l-1.723-0.512c0,0-0.068-0.108-0.198-0.42c-0.574-2.246-3.306-11.873-6.366-20.195
            c-1.178-3.346-1.751-5.953-1.67-8.172c0.248-3.061,1.125-4.339,2.466-6.043L89.701,216.815z M122.514,227.665
            c-4.466,0.255-4.036,5.7-1.27,6.623c0.99,0.272,1.571,0.036,1.729-0.179c0.179-0.245-0.021-0.62-0.671-0.715
            c-1.878-0.616-2.549-2.827-0.854-3.754c0.927-0.485,2.405-0.173,4.188,1.147c3.188,2.36,7.094,2.509,6.584,0.121
            c-0.123-0.58-0.373-0.657-2.708-0.976c-1.896-0.258-2.75-0.857-3.576-1.303C124.634,227.928,123.487,227.637,122.514,227.665
            L122.514,227.665z M58.569,232.729c11.539,11.27,9.829,28.932-0.029,37.774c-0.202-0.714-0.633-2.463-0.681-2.413
            c7.414-7.714,10.905-20.358,0.174-33.319C58.088,234.821,58.272,233.835,58.569,232.729z M130.889,233.029
            c-0.109,0.002-0.205,0.014-0.29,0.043c-2.988,0.817-3.607,3.771-1.67,4.986c1.188,0.745,2.101,0.288,0.623-0.613
            c-1.267-0.772-0.643-2.803,0.893-2.78c0.671,0.011,1.128,0.302,2.834,1.56c1.403,1.035,2.726,1.117,3.026-0.285
            c0.179-0.837-0.102-1.208-0.995-0.989c-0.395,0.097-0.627-0.135-1.163-0.507C132.954,233.615,131.652,233.011,130.889,233.029z
            M57.376,235.239c10.401,12.073,7.062,24.664,0.049,32.041c-1.926-5.684-6.647-9.229-6.647-9.229
            c1.779-3.946,2.84-8.068-0.487-13.273C53.386,241.98,55.95,238.906,57.376,235.239z M124.956,239.646
            c-0.487-0.009-0.329,0.462,0.821,1.265c2.741,1.864,2.976,2.201,0.318,2.157c-0.674-0.039-1.729,0.438-2.326,0.638
            c-3.469,1.157-3.637,1.064-5.296,0.676c-0.553-0.129-1.113-0.361-1.356-0.141c-0.374,0.342-0.795,0.567-0.323,1.077
            c0.344,0.371,0.984,0.654,1.762,1.101c4.027,2.307,4.394,2.859,9.128,2.982c0.542,0.015,0.82-0.267,1.139-0.271
            c0.773-0.009,1.179,0.18,1.96,0.894c1.431,1.306,1.498,0.356,0.647-1.356c-0.447-0.898-0.837-1.112-0.618-1.796
            c0.499-1.558-0.212-1.867-1.145-0.487c-0.698,1.08-0.777,1.056-1.438-0.333c-0.877-1.734-0.465-2.534,0.863-1.404
            c1.007,0.855,1.264,0.219,1.656-0.459c0.515-0.892,0.437-1.691-0.483-1.622c-0.528,0.04-1.022-0.203-1.438-0.656
            C128.014,241.022,126.452,239.906,124.956,239.646z M126.096,244.337c0.109,0.006,0.186,0.051,0.222,0.164
            c0.01,0.571-0.383,1.738-0.704,2.351c-0.104,0.273-0.279,0.308-0.526,0.357c-0.83,0.153-0.888-0.104-0.738-0.617
            c0.304-0.794,0.556-1.924,1.626-2.25C126.02,244.337,126.06,244.335,126.096,244.337L126.096,244.337z M123.987,244.734
            c0.336-0.025,0.347,0.114,0.212,0.42c-0.239,0.514-0.661,1.001-0.975,1.404c-0.665,0.43-1.748-0.886-1.27-1.227
            c0.669-0.264,1.171-0.536,1.868-0.579C123.884,244.742,123.939,244.737,123.987,244.734L123.987,244.734z M49.475,245.592
            c0.179,0,0.361,0.036,0.55,0.116c2.518,3.397,2.346,8.569,0.392,11.43c-0.146,0.214-0.295,0.252-0.541,0.169
            c-0.841-0.498-1.909-0.683-2.708-0.97v-9.948C47.99,246.215,48.698,245.59,49.475,245.592z M115.805,246.404
            c-0.192,0.009-0.272,0.14-0.029,0.391c3.671,2.656,8.722,5.734,13.381,4.542c0.427-0.093,0.771-0.326,0.689-0.768
            c-0.051-0.274-0.524-0.512-1.037-0.376c-1.068,0.281-3.117,0.318-3.958,0.184c-3.204-0.526-6.034-2.575-8.495-3.775
            C116.173,246.462,115.954,246.397,115.805,246.404z M114.734,248.938c-0.164-0.008-0.151,0.156-0.049,0.463
            c0.517,1.538,5.711,5.124,9.813,6.309c3.522,1.018,8.582,0.018,8.287-1.655c-0.153-0.872-0.794-1.081-3.04-0.797
            c-4.949,0.962-9.713-1.062-13.327-3.311C115.444,249.332,114.945,248.948,114.734,248.938z M82.326,251.042
            c2.161-0.026,4.304,0.149,6.622,0.535c4.51,0.77,9.735,2.166,14.157,4.214c7.514,2.82,16.962,4.996,24.979,4.701
            c1.957,0.055,5.494-0.112,6.179-0.338c1.787-0.4,2.281-0.021,2.708,2.196c0.075,0.482,0.224,0.623,0.845,1.043
            c0.949,0.643,0.791,1.278,0.676,2.698c-0.098,1.194,0.624,1.865,3.519,7.206c3.294,6.079,6.507,13.144,6.507,13.144
            c-28.873-0.02-56.419-1.091-85.961-0.174c2.656-6.299,9.9-17.659,14.44-26.777c-1.098-2.806,0.258-3.283-0.311-3.948
            c-0.92-1.56-0.256-3.747,1.688-4.239C79.727,251.147,81.03,251.058,82.326,251.042z"/>
        <path fill="#E2CF00" d="M62.893,286.464c0,0,9.461-19.128,13.448-24.858c5.735-7.271,31.624,3.16,44.499,5.767c5.232,1.009,17.363,0.536,17.363,0.536
            l10.139,18.274L62.893,286.464z M43.245,264.731l-0.4-59.547l2.962,1.849l0.68,59.813l-12.805,12.26l-0.07-3.592L43.245,264.731z
            M50.995,257.936c3.05-6.138-0.355-13.634-0.354-13.631c1.769,0.437,6.698-8.918,7.137-8.647c7.544,9.252,8.852,23.037-0.366,31.581
            C55.085,261.3,51.026,257.936,50.995,257.936z M56.626,215.822c5.732-5.858,10.278-10.421,14.821-16.977
            c0.372-0.533-24.185-31.725-23.803-32.271c3.788-4.187,8.866-7.263,12.817-12.318c0,0,20.139,26.362,20.602,26.13
            c2.041-8.25,3.535-15.719,3.146-24.342c-1.243-22.063-10.671-35.569-10.744-35.304c-3.188,20.271-34.521,50.974-40.69,48.786
            l-0.035-14.166c0.373,0.709,19.851-12.531,24.986-30.03c0.369-1.257,15.482-6.094,15.377-6.278
            c-0.64-1.643-7.251-10.996-7.251-10.996s2.67-1.243,2.967-1.239c8.57,10.656,15.038,24.695,17.238,38.063
            c2.67,14.398,4.396,41.466-24.477,71.027L56.626,215.822z M143.182,178.572c-4.518-14.022-4.395-28.54-2.317-38.677
            c3.17-18.367,14.778-31.52,24.089-41.548l4.039,0.002c0,0-4.829,4.997-6.586,6.815c-3.016,3.459-7.384,10.676-7.384,10.676
            l24.095,31.494l13.734-2.968c0,0-0.414,14.089,0.012,14.089c-10.674,8.835-18.345,16.831-23.852,29.703
            c-3.375,1.248-14.564,6.072-14.564,6.072c-5.318-1.301,15.828-34.454,11.807-35.016c-1.657-1.367-19.999-26.11-20.357-26.06
            c-8.455,25.888-0.207,53.073,14.669,72.061c-1.688,1.094-3.217,1.945-3.076,1.689C151.117,198.066,145.534,187.511,143.182,178.572
            L143.182,178.572z M99.164,165.593c0.953,1.476,5.24-31.594-6.027-58.063c1.072-0.812,10.367-2.591,10.367-2.591l2.502,7.926
            l-6.341,2.685l1.171,3.715c4.922-2.387,15.581-5.912,22.139-16.804c0,0,31.859-0.273,32.538-0.217
            c0.661,0.056-6.498,6.916-13.288,20.805c-3.101,6.344-5.568,14.552-6.082,24.182c-0.102,1.903-7.29-8.946-7.29-8.946
            c1.792-9.167,6.583-18.191,11.358-27.217c0,0-7.326-0.416-12.445-0.267c-7.96,8.698-12.95,13.283-24.951,17.437
            c4.376,14.021,31.147,20.759,25.194,19.478c-1.217-0.287-2.758,12.889-1.47,27.733c0.249,11.87,6.636,31.658,6.86,31.499
            c0,0-4.258,0.959-4.599,0.275c0.718-0.172-6.334,1.613-6.334,1.613l-2.522-7.375l6.825-3.14l-1.104-4.163
            c-0.026,0.003-15.059,4.549-22.422,17.662l-32.928,0.038c12.699-13.779,17.878-27.408,20.637-45.426
            C93.647,166.915,99.164,165.593,99.164,165.593L99.164,165.593z M180.145,46.631c4.141-3.464,12.45-12.486,12.45-12.486l0.108,4.622
            l-9.431,9.808l0.096,60.552l-3.19-3.058L180.145,46.631z M175.786,68.794c-1.698,0.809-5.083,4.788-6.697,9.261
            c-10.926-9.762-6.426-27.7-0.445-31.435c1.735,3.917,6.762,9.109,6.646,9.001C174.134,59.722,173.248,63.883,175.786,68.794z
            M79.051,28.144l84.264,0.148c-4.807,9.464-9.216,17.113-14.325,26.431c-2.658,3.206-60.201-10.355-60.471-9.004L79.051,28.144z"/>
        <path d="M33.503,274.41l-0.562-79.507l9.578,9.304l0.569,61.058L33.503,274.41z M77.452,259.004
            c-1.982,0.302-0.86-1.533-0.498-3.277c0.202-0.972-0.738-1.887-0.734-2.184c0.025-1.726,1.318-2.454,7.178-2.386
            c13.813,0.958,20.954,5.38,28.878,7.436c7.588,1.969,15.109,1.929,23.482,1.736c0.613,0.354,2.857,6.134,2.44,6.713
            C119.257,270.775,95.087,256.868,77.452,259.004L77.452,259.004z M111.591,217.833c-1.996-1.445-3.869-1.713-5.72-2.027
            c3.248-5.714,7.182-10.921,13.752-14.179l3.058,7.563C118.817,211.177,115.024,213.542,111.591,217.833z M71.688,198.191
            c0,0-2.835,4.635-5.511,6.889c-7.955-10.666-25.742-33.375-25.742-33.375l-7.548,3.822c0,0-0.029-4.396,0.142-4.704
            c20.386-10.505,34.374-30.359,40.534-48.952c0,0,3.282,3.35,2.851,4.767c-5.513,14.665-14.938,29.373-28.8,40.403L71.688,198.191z
            M97.114,176.554l25.736,0.037l1.14,8.946c-9.854,3.302-17.988,10.048-25.593,17.851l-12.207-0.212
            C90.192,194.406,95.752,185.512,97.114,176.554L97.114,176.554z M192.399,138.861c0.833,2.522-0.006,5.244,0.314,5.13
            c-30.828,15.246-39.638,48.708-39.638,48.708s-2.927-4.634-2.793-5.351c15.956-35.464,26.632-36.521,28.683-40.371l-24.269-31.407
            l5.489-7.466l26.03,33.872C188.803,140.783,190.278,139.785,192.399,138.861L192.399,138.861z M177.198,184.741
            c5.228-9.401,10.621-14.866,15.993-18.626l-0.261,12.407L177.198,184.741z M33.073,147.842l0.134-12.037l15.879-6.834
            C44.696,138.542,38.737,143.671,33.073,147.842z M103.817,137.02l-0.938-8.467c9.64-4.204,18.156-9.828,25.031-17.524
            c7.386-0.355,12.431,0.146,12.391,0.045c0.013-0.015-7.026,10.309-11.687,26.562L103.817,137.02z M183.684,48.086l8.773-8.866
            l0.277,79.12l-8.813-8.387L183.684,48.086z M106.569,112.51l-2.783-7.844c4.379-1.642,7.694-5.216,10.782-8.756
            c2.094,1.874,4.796,2.533,5.734,2.894C121.586,99.105,111.424,111.305,106.569,112.51L106.569,112.51z M90.118,53.104
            c0,0-1.095-0.634-0.975-1.527c0.362-1.156-1.17-3.774-1.17-3.774c18.686-5.669,45.895,10.283,62.044,6.928
            c-0.135,1.128,0.051,2.473-0.406,3.536c0.509,2.26,0.867,2.332-1.339,3.712c-11.346,3.21-23.303-3.635-34.385-6.907
            C104.847,52.223,97.503,52.948,90.118,53.104L90.118,53.104z"/>
        <path fill="#000000" d="M78.088,27.029l3.413,6.428l-0.59,0.4c0.929,1.548,1.719,3.29,2.669,4.825l0.686-0.079c1.121,2.148,1.575,2.943,3.042,5.488
            l-0.662-0.003c0.341,1.131,1.216,1.883,1.233,2.694c0.009,1.011-0.251,2.036,0.369,2.72c0.735,0.81,0.823,1.034,0.673,1.509
            c-0.401,1.261,0.741,2.656,1.899,2.531c8.169-1.092,16.493-0.165,24.814,2.349c5.984,1.888,11.296,4.001,16.325,5.487
            c1.586,0.474,4.791,1.22,7.549,1.422c7.652,0.561,11.946-0.998,10.657-4.181c-0.102-0.255-0.332-0.441-0.352-0.573
            c-0.037-0.242,0-0.504,0.435-0.859c1.255-1.282,0.554-2.216-0.211-3.635c0,0,9.827-17.555,14.734-26.301L78.088,27.029z
            M163.169,28.606l-7.171,12.382c-3.834-0.694-4.735,2.529-4.793,2.983c-4.979-1.276-4.215,5.18-1.717,5.615
            c0.161,0.937-4.093,2.101-6.335-0.094c3.445,0.462,4.665-4.097,0.457-5.109c5.548-4.124-4.86-10.299-4.984-1.768
            c-4.895-0.862-4.259,5.605-1.153,6.108c-1.589,1.751-6.258,1.8-8.698-1.891c4.151,2.156,6.397-3.409,2.085-4.967
            c5.323-4.668-5.1-8.971-4.855-1.429c-3.929-2.328-6.63,3.606-1.386,4.518c-0.299,1.068-7.167,1.076-8.91-1.685
            c4.87,1.111,5.094-4.817,0.797-5.3c4.313-5.475-6.637-8.243-4.798-0.772c-4.23-1.673-5.829,3.602-1.709,5.295
            c0.229,0.84-6.672,1.554-9.087-1.475c5.304-0.796,3.447-5.936,0.013-5.524c0,0,0.049-0.147,0.243-0.647
            c1.621-5.159-7.099-5.591-5.891-0.119c0.193,0.503,0.407,1.174,0.407,1.174c-2.404-0.489-3.873,0.489-3.699,2.745
            c0.599,2.994,2.181,2.773,4.204,2.177c0.849,0.887-4.883,3.852-8.48,1.205c4.406-1.267,2.174-6.431-1.513-5.733
            c-0.152-1.648-1.944-3.96-4.28-2.833l-2.471-4.86L163.169,28.606z M170.377,97.394l-5.178,0.076
            c-3.636,3.712-29.967,27.967-25.532,64.604c1.896,15.67,6.272,29.227,17.972,45.242l3.127-1.835l0.478,0.32l32.421-18.65
            l0.018-5.663l-37.634,15.787c-0.747-0.794-1.186-1.681-1.814-2.658l15.081-6.41c0,0,0.361-0.916,0.479-1.338
            c4.958-12.544,15.03-21.625,23.799-28.641c-0.047-12.351-0.104-38.207-0.104-38.207l-22.675-22.582
            c-2.907,2.659-5.485,5.394-8.064,8.36l26.033,34.267l-2.309,1.502l-25.759-34.089C163.765,103.81,167.076,100.612,170.377,97.394z
            M193.505,119.673c0,0-0.125-58.833-0.296-87.242l0,0l-13.511,13.862l0.053,59.633L193.505,119.673z M192.357,38.032l-9.546,9.85
            l0.107,60.615l-2.453-2.418V47.095l11.926-12.494L192.357,38.032z M99.459,36.573c0.285,0.503,0.161,1.2-0.297,1.77
            c-1.953,2.421,4.18,6.629,8.592,5.898c3.357-0.557,6.221-2.574,4.985-4.108c-1.005-1.249-0.349-2.514,0.859-2.505
            c1.242,0.009,2.24,0.997,1.163,2.351c-2.396,3.012,1.258,6.545,6.845,6.618c3.95,0.051,5.267-0.922,5.054-3.736
            c-0.1-1.318,0.159-1.683,1.076-1.883c1.466-0.319,2.204,1.359,0.99,2.641c-2.624,2.766,0.357,6.833,5.318,7.096
            c1.815,0.096,2.174-0.001,4.199-1.145c1.584-0.894,2.143-2.243,1.366-3.292c-0.998-1.35,0.348-2.962,1.902-2.297
            c1.11,0.475,1.657,1.326,0.429,2.771c-1.614,1.896-0.85,3.462,2.26,4.518c2.421,0.822,4.099,0.721,5.232-0.313
            c0.353-0.322,1.137-0.994,1.126-0.789c-0.763,1.316-1.438,2.538-1.438,2.538c-5.072,2.263-9.031-1.973-8.901-2.131
            c-5.226,3.016-9.859,2.38-13.774-2.686c-1.018,0.564-8.307,1.893-13.568-3.883c-5.31,2.664-10.245,1.547-14.631-1.432
            c-3.241,3.059-6.657,3.543-10.207,2.074l-1.052-2.115c0.266-0.1,1.41,2.121,6.965,1.086c1.865-0.348,5.075-3.482,3.278-5.011
            c-0.823-1.163-0.848-1.688-0.121-2.394C97.825,35.519,99.046,35.876,99.459,36.573L99.459,36.573z M85.85,39.347
            c0.31,0.6,0.352,1.598,0.01,0.999c-0.181-0.316-1.121-1.729-1.077-1.771C85.221,38.537,85.655,38.99,85.85,39.347z M192.361,39.828
            l0.062,78.224l-8.129-8.064l-0.391-61.28L192.361,39.828z M98.22,43.616l2.56,1.609l-4.583-0.027L98.22,43.616z M112.61,44.963
            l2.149,2.087l-4.519-0.947L112.61,44.963z M152.875,46.046l-0.961,1.97C151.361,47.396,151.199,46.081,152.875,46.046z
            M169.118,78.566c1.632-3.663,3.814-8.327,7.348-9.811c-2.63-5.227-2.288-10.451-0.423-13.315c-2.668-2.484-5.407-5.46-7.107-9.739
            C160.504,53.145,159.149,68.437,169.118,78.566z M168.865,47.13l0.581,1.431c-7.51,9.189-5.191,21.254,0.248,27.691l-0.781,1.621
            C162.266,70.864,159.356,56.044,168.865,47.13z M123.975,52.329c8.701,2.553,15.67,6.532,25.73,2.987l0.047,1.958
            c-6.403,4.11-19.159-0.232-27.776-3.413c-13.852-5.112-24.631-4.814-32.332-4.229c-0.678-0.133-1.217-1.903-0.131-1.916
            C103.914,47.558,101.587,45.761,123.975,52.329z M125.942,48.865l2.857,3.031c-2.146-0.674-4.232-1.422-6.174-2.351L125.942,48.865z
            M169.555,49.613l0.56,0.772c0.242,0.335-1.58,0.508-1.274,0.116L169.555,49.613z M120.458,55.16
            c10.387,3.9,21.823,7.793,29.328,4.302c0,0,0.048,1.486-0.811,1.907c0,0-0.791,0.64-3.44,1.005
            c-12.144,0.996-20.026-4.031-29.829-7.003c-3.718-1.127-9.691-2.492-15.825-2.746c-3.643-0.166-9.214,0.357-9.214,0.357
            c-1.214-0.102-1.196-0.818-1.207-1.521C100.019,50.054,109.728,51.105,120.458,55.16z M170.684,51.421
            c0.134-0.006,0.271,0.004,0.405,0.024l1.062,1.356l-1.26,2.003c0,0-1.111-1.022-1.675-2.027
            C168.906,52.127,169.746,51.465,170.684,51.421z M140.082,51.803l3.289,2.482c-2.473,0.122-5.256,0.214-8.011-0.88L140.082,51.803z
            M167.941,53.068c0.259-0.007,0.531,0.268,0.85,0.811c0.612,1.045,0.531,1.245-0.656,1.627c-1.561,0.501-1.683,0.391-1.178-1.009
            C167.3,53.542,167.608,53.075,167.941,53.068z M172.937,53.708l2.224,1.865c-1.229,3.195-2.032,7.251,0.435,13.072
            c-0.273,0.018-1.872,1.595-2.374,1.864C171.813,69.919,168.712,58.385,172.937,53.708z M170.407,56.152l-0.565,3.533
            c-0.046,0.29-2.46-1.673-2.234-2.654C168.037,55.865,169.507,56.113,170.407,56.152z M166.417,57.392
            c0.292,0.002,0.75,0.708,1.312,1.632c0.439,0.72,0.35,0.992-0.622,1.868c-1.432,1.446-1.713,0.974-1.396-1.487
            C165.869,58.189,166.086,57.39,166.417,57.392z M169.376,60.594c0.193,0.004,0.363,0.051,0.487,0.149l0.164,3.441
            c0.015,0.311-2.687-0.122-3.041-1.434C166.538,61.912,168.327,60.573,169.376,60.594z M165.811,63.503
            c0.193-0.028,0.799,0.375,1.371,0.714c0.994,0.59,1.016,0.85,0.159,1.95c-1.007,1.293-1.507,1.085-1.661-1.163
            C165.623,64.178,165.562,63.538,165.811,63.503z M169.775,64.819c0.087,0,0.165,0.025,0.231,0.082
            c0.479,0.409,1.211,3.859,0.903,4.219c-0.438,0.513-2.744-0.169-3.259-0.979C167.161,67.368,168.934,64.82,169.775,64.819z
            M166.953,68.88c0.265-0.019,0.741,0.164,1.462,0.512c0.434,0.209,1.157,0.602,1.317,0.938c0.281,0.59-0.187,1.464-0.791,2.19
            c-0.4,0.479-0.774,0.123-1.55-1.487C166.769,69.739,166.511,68.91,166.953,68.88z M171.608,70.423
            c0.053-0.002,0.101,0.01,0.145,0.033c0.785,0.436,0.653,1.728-0.275,2.684c-1.114,1.148-2.083,0.283-1.312-1.173
            C170.652,71.045,171.236,70.432,171.608,70.423z M106.832,102.515c-0.68,0.031-1.739,0.646-2.201,1.241
            c-0.585,0.752-1.095,0.653-1.743,0.599c-0.771-0.012-1.944,0.158-3.533,0.883c-0.9,0.41-1.311,0.503-2.63,0.569
            c-0.861,0.044-1.725,0.16-1.917,0.261c-0.191,0.101-0.812,0.317-1.375,0.482c-1.153,0.338-0.743,0.665-0.081,2.151
            c3.364,8.626,5.775,18.678,6.653,26.864c0.987,9.393,0.688,20.782-0.625,29.479c-3.221,0.022-5.244-0.143-8.636-0.086
            c-2.313,18.81-8.592,33.746-21.139,47.179l33.918,0.086c3.886-10.364,21.619-18.269,22.202-17.686l0.935,3.782
            c0,0-12.757,1.823-21.349,18.011c0.879-0.531,4.079-0.163,6.191,2.029c4.219-5.349,11.14-8.845,11.185-8.763l0.231-0.645
            c0,0,1.27-0.432,2.385-0.644c0.358-0.068,1.092-0.206,1.578-0.377c0.753-0.264,1.126-0.544,2.288-0.443
            c2.418,0.23,4.846-0.471,4.794-0.484c-7.2-19.856-8.901-37.78-6.089-58.603c2.652,0.021,8.469,0.12,8.469,0.12
            c0.586-5.85,1.326-11.704,3.123-17.228c2.308-7.092,5.09-13.685,9.57-19.712c2.529-3.786,4.738-6.48,7.354-10.028l-33.202,0.077
            c-4.394,7.385-12.859,13.552-19.663,16.121c-2.316,0.87-2.643,0.742-3.026-0.348c-0.686-1.945-0.653-1.862,1.158-2.379
            c0.604-0.173,2.54-1.191,5.561-2.606c6.409-3.254,10.816-9.21,13.409-13.23c1.031-1.588,0.339-1.229-1.424-1.245
            c-1.615-0.127-2.353-0.626-3.804-1.979c-0.535-0.499-0.765-0.854-1.009-0.825C112.495,97.862,109.314,101.451,106.832,102.515
            L106.832,102.515z M114.624,96.229c1.492,1.598,3.263,2.532,5.594,2.836c-3.726,5.845-8.274,10.415-13.504,13.194l-2.658-7.478
            C110.573,101.747,112.315,98.707,114.624,96.229z M168.741,98.607c-35.114,32.464-33.048,73.391-8.459,106.634l-2.576,1.55
            c-23.095-30.948-27.272-76.729,8.014-108.321L168.741,98.607z M146.605,102.567l8.608-0.018l-5.86,7.596l-7.863-0.029
            L146.605,102.567z M145.256,102.629l-4.787,7.548l-12.913,0.166c-7.728,9.526-16.027,14.174-24.477,17.345l-1.648-8.135
            c-0.001,0.001,13.377-3.226,22.041-17.026L145.256,102.629z M132.134,103.254l-2.992,3.311l3.108,3.162l2.838-3.21L132.134,103.254z
            M138.91,103.177l-3.031,3.151l2.365,3.171l3.143-3.079L138.91,103.177z M123.962,103.751l-0.517,4.957l3.9,1.279l0.569-4.238
            L123.962,103.751z M147.688,103.936l-2.83,4.425l4.262,0.067l2.98-4.405L147.688,103.936z M103.131,105.067l2.763,7.656l-2.426,1.17
            l-2.46-7.996L103.131,105.067z M99.862,106.294l2.848,7.921l-2.384,0.787l-2.616-8.244L99.862,106.294z M103.275,137.568
            c0.317,11.016,0.476,17.656-1.366,27.339c-0.097,0.507-2.074,0.058-2.074,0.058c0.25,0.084,1.114-10.941,1.046-17.867
            c-0.131-13.188-2.367-26.235-7.543-39.306c0.986-0.604,3.42-0.911,3.42-0.911C100.024,116.791,102.919,127.453,103.275,137.568
            L103.275,137.568z M68.799,107.025c11.336,15.04,19.438,35.444,18.083,55.576c-1.299,23.41-10.174,36.901-25.762,53.112
            l-4.021,0.094c18.452-17.692,26.615-32.833,27.259-52.809c0.74-22.974-6.275-38.254-18.094-54.538L68.799,107.025z M32.54,127.699
            l0.04,5.479l38.62-16.563l-5.57-8.206L32.54,127.699z M123.055,109.755l-4.204,0.213l0.14,4.242l4.383-0.105L123.055,109.755z
            M160.531,108.949l25.026,32.817l-6.192,4.6l-23.859-30.838L160.531,108.949z M140.914,111.191l7.491,0.116l-2.896,4.806
            l-7.24-0.059L140.914,111.191z M139.531,111.309c-3.444,6.406-8.195,13.71-10.863,25.514l-24.66,0.021
            c-0.046-2.695-0.396-5.391-0.797-8.085c10.627-3.89,18.857-9.702,24.911-17.387L139.531,111.309z M144.091,111.648l-3.214,1.854
            l1.964,2.259l3.543-1.356L144.091,111.648z M114.739,114.008l-1.062,4.18l3.997,1.54l0.738-4.967L114.739,114.008z M137.733,117.131
            l7.188,0.043l-3.026,6.043l-7.119-0.105L137.733,117.131z M154.845,116.34l23.683,30.698l-2.22,1.757l-23.146-30.008L154.845,116.34
            z M140.46,117.618l-3.238,2.698l2.438,2.813l2.987-2.384C142.71,120.696,140.46,117.618,140.46,117.618z M109.028,117.84
            l-0.994,4.064l4.156,1.105l0.743-4.358L109.028,117.84z M103.28,120.543l-0.845,4.002l3.914,1.057l0.826-3.856L103.28,120.543z
            M70.959,120.142c0.2-0.04-0.654,4.763-1.913,5.628c-0.602,0.414-0.913,0.323-1.436-0.24c-0.359-0.389-1.987-3.044-1.987-3.044
            l1.391-0.699c1.688,2.699,1.687,1.394,2.325-0.907L70.959,120.142z M64.468,122.908c0.552-0.004,1.22,0.681,1.975,2.008
            c1.092,1.919,1.055,2.044-0.739,2.597c-3.229,0.854-4.43,1.06-3.437-1.071C63.337,124.148,63.759,122.913,64.468,122.908z
            M74.081,122.528l2.21,3.782c-8.861,22.562-23.154,38.747-42.827,48.541l-0.045-3.749C56.614,157.9,66.124,142.304,74.081,122.528
            L74.081,122.528z M134.33,124.158l6.975,0.126l-1.863,5.333l-7.414-0.053L134.33,124.158z M62.372,123.926
            c-5.677,13.528-13.434,25.332-28.943,35.297l-0.062-3.594c17.417-10.496,24.946-30.158,24.945-30.164L62.372,123.926z
            M150.53,123.903c4.129,0.113,8.472,4.615,8.031,8.326c-0.311,2.615,0.19,4.556,0.902,3.485c1.573-2.366,6.209-0.793,6.167,2.048
            c-0.022,1.512-1.032,1.761-1.612,0.396c-0.856-2.017-3.263-2.066-3.618,0.047c-0.333,1.981,1.347,3.437,5.836,5.059
            c5.26,1.234,8.427,5.949,6.556,8.659c-0.649,0.717-1.041,0.893-1.163,0.521c-0.035-0.106-0.164-0.666-0.285-1.24
            c-0.597-2.841-1.958-4.034-3.611-3.059c-0.829,0.489-0.724,1.136-0.24,1.99c0.644,1.137,0.24,1.578-0.912,0.999
            c-1.82-0.915-2.423-3.082-0.657-4.082c2.099-0.839,1.388-1.02-1.294-1.926c-5.708-1.95-8.157-5.527-8.456-12.342
            c0.109-3.106-0.315-4.215-1.776-4.639c-1.338-0.389-2.853,1.311-1.893,2.206c0.521,0.486,0.947,0.928,0.671,1.196
            c-0.887,0.861-3.106-0.536-3.084-2.036c0.014-0.981,0.386-1.184,1.854-2.337c0.407-0.319,0.06-0.923-0.536-0.932
            C149.164,126.967,149.323,123.999,150.53,123.903L150.53,123.903z M137.6,124.69l-3.487,2.004l1.816,2.537l3.86-1.813L137.6,124.69z
            M69.758,126.658c0.401,0,0.729,0.323,0.729,0.725c0,0.4-0.328,0.729-0.729,0.729c-0.4,0-0.724-0.328-0.724-0.729
            C69.034,126.982,69.358,126.658,69.758,126.658L69.758,126.658z M76.906,126.973c7.359,16.061,9.109,34.427,3.988,52.779
            l-19.873-25.855C68.645,145.313,73.771,135.485,76.906,126.973L76.906,126.973z M50.029,128.153l-17.732,7.45l-0.099,13.296
            C42.106,142.138,46.308,135.216,50.029,128.153L50.029,128.153z M67.073,128.041c1.748-0.055,0.886,4.663-1.384,6.272
            c-0.832,0.639-1.393,0.561-1.667-0.718c-0.143-0.663-0.84-2.064-1.719-3.193c-1.022-1.313-1.011-1.346,0.482-1.438
            C64.436,128.989,65.787,128.198,67.073,128.041z M65.347,130.046c-1.289-0.02-1.676,0.584-0.907,1.409
            c0.646,0.694,1.159,0.546,1.593-0.459C66.296,130.384,66.06,130.056,65.347,130.046z M33.363,147.293l0.044-11.284l15.165-6.386
            C45.53,136.217,39.898,142.754,33.363,147.293z M168.081,156.41l-2.021,2.031l-19.577-25.521l1.227-3.221L168.081,156.41z
            M60.79,130.596c0.656,0.01,2.146,2.285,2.562,3.919c0.311,1.213-0.019,1.469-2.316,1.811c-0.952,0.261-3.525,0.009-3.316-0.676
            C58.094,134.661,60.559,130.593,60.79,130.596z M131.714,130.857l7.144,0.077l-1.637,5.859l-7.481-0.11L131.714,130.857z
            M134.87,131.214l-3.325,2.302l2.63,2.592l3.524-2.177L134.87,131.214z M146.077,133.735l19.805,25.703
            c-5.909,7.516-11.803,16.148-15.677,27.561C143.155,170.506,140.573,154.452,146.077,133.735z M65.643,135.921
            c0.4,0,0.729,0.324,0.729,0.725s-0.328,0.729-0.729,0.729s-0.725-0.328-0.725-0.729S65.242,135.921,65.643,135.921z M63.365,136.902
            c1.236,0.087,0.069,4.024-1.792,5.461c-1.467,1.132-2.098,0.607-2.437-1.465c-0.122-0.748-0.909-2.021-1.602-3.024
            c-0.774-1.122-0.455-1.301,1.506-0.85C60.409,137.289,62.099,136.964,63.365,136.902z M129.552,137.864l7.49,0.045l-1.153,8.898
            L129.552,137.864z M56.573,138.276c1.181,1.101,2.671,4.961,1.906,5.238c-0.89,0.323-4.917-0.144-5.367-0.608
            c-0.311-0.319-0.312-0.321,0.348-1.201c0.362-0.484,1.052-1.45,1.534-2.148C55.43,139.046,55.912,137.665,56.573,138.276
            L56.573,138.276z M60.743,138.407c-1.141,0.038-1.217,0.194-0.676,1.424c0.441,1.003,0.748,1.092,1.506,0.435
            C62.629,139.351,62.186,138.359,60.743,138.407z M192.213,139.18l0.271,4.388c-28.792,14.281-39.574,47.998-39.729,47.998
            l-2.09-3.891C163.875,155.118,181.448,145.692,192.213,139.18z M56.541,144.368c1.715-0.035,2.215-0.152,2.206,0.482
            c0.02,1.709-1.577,4.135-3.528,5.049c-1.314,0.616-1.344,0.631-1.492-0.917c-0.114-1.19-0.502-2.723-1.119-3.943
            c-0.194-0.452-0.938-1.49-0.003-1.194C53.54,144.14,55.472,144.391,56.541,144.368L56.541,144.368z M60.387,143.972
            c0.4,0,0.724,0.323,0.724,0.724c0.001,0.401-0.323,0.725-0.724,0.725s-0.724-0.323-0.724-0.725
            C59.663,144.295,59.987,143.972,60.387,143.972z M51.212,144.972c0.312-0.009,0.607,0.63,0.961,1.568
            c0.769,2.043,1.004,3.149,0.776,3.63c-0.35,0.74-5.075,0.263-5.879-0.564C46.918,149.72,50.547,145.382,51.212,144.972z
            M54.615,145.479c-0.678,0.046-0.319,0.454,0.184,1.637c0.348,0.818,0.817,0.95,1.355,0.376c0.721-0.768,0.817-1.377,0.363-1.704
            C55.851,145.519,55.358,145.483,54.615,145.479z M192.415,149.917l0.025,1.47c-1.122-0.335-1.816-0.81-3.095-1.235
            c-0.784-0.263-1.247-0.45-0.555-1.275c1.084-1.293,2.248-2.101,3.569-2.902l0.007,1.665
            C190.255,148.575,190.46,149.44,192.415,149.917z M109.188,148.423h7.954v5.252h6.222l-0.482,5.985h-5.739v5.251h-7.954v-5.251
            h-5.682l0.459-5.985h5.223V148.423z M127.153,148.442c-4.028,19.959-0.333,41.148,5.882,58.412l-3.136,0.345
            c-4.845-13.806-8.695-33.461-4.778-58.746C125.12,148.452,126.524,148.427,127.153,148.442z M186.195,148.828
            c0.4,0,0.724,0.323,0.724,0.725c0,0.4-0.323,0.724-0.724,0.724s-0.724-0.323-0.724-0.724
            C185.471,149.152,185.794,148.828,186.195,148.828z M46.26,150.503c0.264-0.008,1.072,0.342,1.791,0.541
            c1.079,0.3,1.931,0.43,2.915,0.449c1.978,0.038,2.236,0.02,1.386,1.646c-0.613,1.171-1.993,2.719-2.959,3.19
            c-1.367,0.73-1.892,0.631-1.811-0.714c0.01-0.913-0.386-2.499-0.902-3.63C46.279,151.106,45.821,150.517,46.26,150.503z
            M54.625,151.145c0.4,0,0.729,0.323,0.729,0.724s-0.329,0.729-0.729,0.729s-0.724-0.328-0.724-0.729S54.225,151.145,54.625,151.145z
            M188.468,151.049c0.561-0.013,1.521,0.331,2.398,0.758c2.325,1.13,2.263,1.389-0.888,3.625c-2.288,1.735-2.829,1.931-2.91-0.807
            C186.986,152.32,187.235,151.075,188.468,151.049z M45.068,151.71c0.923,0.014,1.945,4.818,1.115,5.247
            c-1.291,0.667-5.292-0.633-5.275-1.729C40.912,154.872,44.66,151.704,45.068,151.71z M185.688,151.512
            c0.552-0.023,0.625,0.408,0.574,1.94c-0.026,0.812,0.112,2.135,0.169,2.752c0.117,1.28,0.007,1.368-1.004,0.796
            c-0.647-0.367-1.964-0.968-3.389-1.091c-1.167-0.101-1.252-0.581-0.891-1.351C182.179,152.854,184.045,151.657,185.688,151.512
            L185.688,151.512z M48.494,152.237c-0.805-0.006-0.605,0.422-0.105,1.626c0.354,0.854,0.967,0.936,1.598,0.208
            c0.883-1.019,0.709-1.557-0.574-1.752C49.141,152.278,48.681,152.238,48.494,152.237z M184.621,153.38
            c-0.335,0.031-0.794,0.296-1.014,0.439c-0.757,0.475-1.064,0.816,0.033,1.192c0.978,0.335,1.497,0.48,1.419-0.362
            C185.014,154.142,185.053,153.406,184.621,153.38z M109.959,154.003v5.232h6.333v-5.232H109.959z M178.964,154.456
            c0.4,0,0.724,0.324,0.724,0.725s-0.323,0.724-0.724,0.724s-0.725-0.323-0.725-0.724S178.564,154.456,178.964,154.456z
            M60.417,155.273l19.978,25.642l-1.327,3.343l-20.576-27.068L60.417,155.273z M192.542,155.152l0.043,3.351
            c-2.257,1.651-16.59,12.038-24.005,29.521l-3.882,1.652C170.163,174.629,181.851,161.742,192.542,155.152z M40.565,156.571
            c1.301,0.396,2.542,1.3,3.77,1.463c1.411,0.172,1.898,0.082,1.516,0.811c-0.855,1.633-2.471,3.342-4.175,3.9
            c-1.219,0.399-1.794,0.25-1.603-0.507c0.358-1.417,0.42-2.58,0.371-3.871C40.637,157.662,40.035,156.677,40.565,156.571
            L40.565,156.571z M39.039,156.87c0.829,0.709,0.665,5.189-0.261,6.154c-0.483,0.504-1.887,0.043-3.991-1.149
            c-1.376-0.779-1.633-1.255-0.946-1.732C35.004,159.436,38.413,156.702,39.039,156.87z M181.769,156.967
            c0.431-0.01,0.964,0.065,1.606,0.212c2.49,0.56,3.045,1.128,0.922,2.814c-0.784,0.623-1.616,1.397-1.857,1.693
            c-1.143,1.4-1.938,0.386-2.187-2.157C180.077,157.75,180.346,156.737,181.769,156.967L181.769,156.967z M178.651,157.208
            c0.404,0,0.663,0.211,0.656,0.714c-0.01,0.644,0.451,3.424,0.709,4.189c0.449,1.303,0.124,1.597-0.955,1.028
            c-0.786-0.424-2.867-0.745-3.992-0.656c-1.28,0.101-1.244-0.242-0.869-1.317C174.865,159.26,177.437,157.209,178.651,157.208
            L178.651,157.208z M41.781,158.135c-0.487-0.002-0.507,0.654-0.174,2.157c0.105,0.479,0.517,0.449,1.293-0.097
            c0.919-0.645,0.881-1.05-0.154-1.67C42.32,158.27,42.002,158.135,41.781,158.135z M47.443,158.299c0.4,0,0.724,0.323,0.724,0.724
            s-0.323,0.725-0.724,0.725s-0.724-0.324-0.724-0.725S47.042,158.299,47.443,158.299z M176.285,161.113
            c0.348,0.339,1.632,0.325,1.854,0.121c0.339-0.313,0.182-1.766-0.102-1.94C177.314,159.047,175.852,160.576,176.285,161.113z
            M56.377,163.878c0.437,2.072,3.351,1.958,3.021-0.202c-0.191-1.262-0.236-1.235,0.396-1.207c3.009,0.147,2.487,4.89-0.979,4.522
            c-0.724,0.087-0.819,0.383-0.208,0.638c0.608,0.253,2.938,0.851,3.297,0.85c3.772-0.013,9.214,5.786,9.079,10.933
            c-0.087,3.365,1.054,5.788,2.221,6.062c0.928,0.218,2.274-0.625,2.157-1.655c-0.16-1.422,0.995-0.979,1.661,0.043
            c1.015,1.411-0.295,3.446-2.713,3.287c-1.029,0.2,0.756,0.854,2.079,1.236c1.199,0.068,0.186,1.546-0.037,1.81
            c-0.679,0.787-2.9,0.186-4.644-1.222c-2.14-1.728-3.059-4.043-3.312-8.592c-0.162-2.924-0.38-3.518-1.23-2.312
            c-1.529,2.689-5.19,1.373-5.647-1.468c-0.256-1.504,1.068-2.589,1.496-1.226c1.135,2.834,3.913,2.152,3.461-0.661
            c-0.298-1.857-2.155-2.881-5.826-3.915c-4.412-1.242-5.724-2.753-6.584-6.371c-0.38-1.602-0.32-2.44,0.526-3.277
            c0.418-0.414,0.951-0.835,0.951-0.835S56.131,162.751,56.377,163.878L56.377,163.878z M171.788,161.582
            c0.401,0,0.725,0.323,0.725,0.724s-0.323,0.725-0.725,0.725c-0.4,0-0.724-0.324-0.724-0.725S171.388,161.582,171.788,161.582
            L171.788,161.582z M33.305,162.27c1.314,0.476,2.443,1.181,3.798,1.642c0.879,0.299,0.639,1.002-0.272,2.001
            c-1.015,1.198-2.012,1.788-3.419,2.456l0.015-2.025c1.71-0.598,2.798-2.022-0.074-2.479L33.305,162.27z M175.207,163.401
            c0.497,0.005,1.202,0.022,2.028,0.193c2.094,0.433,2.339,0.618,1.081,2.09c-0.466,0.545-1.159,1.368-1.539,1.829
            c-1.238,1.725-1.905,1.133-2.481-1.096C173.581,164.091,173.418,163.198,175.207,163.401z M39.869,164.231
            c0.401,0,0.725,0.323,0.725,0.724c0,0.401-0.323,0.725-0.725,0.725c-0.4,0-0.724-0.323-0.724-0.725
            C39.146,164.554,39.469,164.231,39.869,164.231z M173.097,165.807c0.199,0.735,0.503,1.672,0.733,2.335
            c1.137,2.506,0.418,1.537-1.618,1.315c-1.368-0.148-3.547,0.08-4.085-0.298c-0.235-0.306-0.019-1.11,0.42-2.018
            c0.618-1.278,1.741-2.367,2.579-2.861C173.248,163.3,172.754,164.546,173.097,165.807z M50.781,164.916l22.82,30.171l-1.789,2.551
            l-23.473-31.021L50.781,164.916z M193.793,165.029c-11.862,8.572-16.418,18.977-17.343,20.336l17.391-6.71L193.793,165.029z
            M171.145,166.012c-0.65,0.179-1.584,1.385-1.183,1.858c0.24,0.247,1.196,0.279,1.655,0.111
            C172.323,167.722,171.841,166.008,171.145,166.012z M71.142,198.642l-4.86,6.125l-25.326-32.76l6.391-4.614L71.142,198.642z
            M192.529,166.801l0.179,11.26l-14.875,6.202C182.814,175.848,187.693,170.647,192.529,166.801L192.529,166.801z M90.818,167.756
            l5.958,7.757l-7.28-0.166L90.818,167.756z M166.151,168.391c0.4,0,0.725,0.323,0.725,0.724c0,0.401-0.324,0.725-0.725,0.725
            s-0.724-0.323-0.724-0.725C165.427,168.714,165.75,168.391,166.151,168.391z M170.517,170.226c2.725,0.037,3.634,0.185,2.842,1.524
            c-1.058,1.307-1.682,2.549-2.835,3.758c-0.665,0.677-1.498-0.72-2.193-2.956c-0.562-1.805-0.277-2.26,0.79-2.274
            C170.187,170.262,170.368,170.224,170.517,170.226z M167.369,172.668c0.224,0.713,0.744,1.886,1.159,2.602
            c0.414,0.716,0.879,1.512,0.85,1.65c-0.069,0.335-0.388,0.361-1.105,0.091c-1.553-0.699-5.202,0.04-5.298-0.305
            c-0.542-0.772,0.271-2.879,1.803-4.337c0.749-0.713,1.434-1.177,1.83-1.184S167.075,171.728,167.369,172.668L167.369,172.668z
            M40.081,172.114l25.771,33.467l-1.784,2.171l-26.059-34.113c0,0-4.115,2.016-5.326,2.688l0.164,17.31l-0.705-0.034l0.105,87.673
            l14.38-14.339l-0.188-59.488c3.052,2.87,5.662,5.932,9.154,8.745l5.98-0.047c15.612-15.879,24.162-29.469,26.039-53.803
            c1.256-16.28-4.153-36.753-18.499-56.593l-3.504,2.128l6.922,10.431l-14.662,6.497c-5.839,12.312-12.762,23.674-25.424,30.18
            l-0.07,15.935l-0.222,0.329l0.168,5.003L40.081,172.114z M166.078,173.257c-0.685,0.051-1.755,1.527-1.265,2.031
            c0.577,0.274,1.468,0.255,1.841-0.239C166.909,174.565,166.845,173.54,166.078,173.257z M89.202,176.703l7.568,0.044l-1.979,6.492
            l-7.371-0.14L89.202,176.703z M161.096,176.675c0.4,0,0.724,0.323,0.724,0.724s-0.323,0.724-0.724,0.724s-0.725-0.323-0.725-0.724
            S160.696,176.675,161.096,176.675z M122.538,176.872l0.979,8.432c-8.255,3.001-17.155,8.093-24.94,17.455
            c-1.33-0.087-11.944,0.092-11.944,0.092c0.266,0.038,9.835-18.02,10.938-25.857L122.538,176.872z M92.564,177.657l-3.471,2.385
            l2.713,2.892l3.591-2.433L92.564,177.657z M164.792,177.693c0.738-0.003,1.728,0.087,2.521,0.227
            c1.279,0.248,1.468,0.272,1.036,1.328c-0.575,1.401-1.873,3.927-2.201,4.128c-1.172,0.727-3.776-4.483-2.889-5.385
            C163.494,177.806,163.992,177.697,164.792,177.693L164.792,177.693z M161.474,179.295c0.335-0.029,0.782,0.622,0.915,1.185
            c0.16,0.682,1.342,2.401,2.086,3.227c0.937,1.036,0.888,1.182-0.453,1.288c-1.598,0.128-3.157,0.441-4.057,0.769
            c-1.394,0.506-1.583,0.395-1.404-1.235C158.829,182.075,160.468,179.382,161.474,179.295z M160.25,184.368
            c0.174,0.475,2.336-0.397,2.456-0.967c-0.021-0.256-0.868-1.735-1.379-1.803C160.463,181.735,160.1,183.697,160.25,184.368z
            M87.221,184.035l7.153,0.067l-2.347,5.894l-7.071-0.02L87.221,184.035z M90.423,184.825l-3.428,2.167l2.67,2.583l3.282-2.265
            L90.423,184.825z M163.166,185.894c0.606-0.006,1.25,0.053,1.385,0.275c0.38,0.625-1.168,4.123-1.168,4.123l-2.521,0.999
            c-0.542-1.115-1.469-2.275-1.693-3.484c-0.09-0.528,0.178-0.721,0.761-1.049C160.799,186.27,162.154,185.904,163.166,185.894z
            M156.412,186.18c0.4-0.001,0.724,0.323,0.724,0.724s-0.323,0.724-0.724,0.724s-0.725-0.323-0.725-0.724
            S156.012,186.18,156.412,186.18z M123.791,186.281c0,0,1.546,8.733,1.63,7.771c-11.93,4.493-18.907,11.123-22.214,17.591
            l-22.382-0.017l4.995-7.752l13.251-0.066C105.476,196.035,113.377,189.836,123.791,186.281L123.791,186.281z M120.926,188.336
            l-1.105,3.528l3.346,2.134l1.26-3.789L120.926,188.336z M157.59,188.405c0.284-0.026,0.564,0.451,1.14,1.472
            c0.425,0.755,0.984,1.852,0.984,1.852l-1.001,0.372c-0.807-2.759-1.548-1.732-1.634,0.702l-1.372,0.546c0,0,0.149-2.347,0.933-3.718
            C157.09,188.842,157.34,188.428,157.59,188.405L157.59,188.405z M84.633,190.818l6.937,0.086l-2.901,6.01l-7.052-0.193
            L84.633,190.818z M114.888,191.3l-0.551,4.46l3.736,0.791l0.512-4.237L114.888,191.3z M87.582,191.353l-3.427,2.216l2.249,2.959
            l3.297-2.216L87.582,191.353z M109.531,195.258l-0.71,4.107l3.504,0.796l0.797-4.131L109.531,195.258z M33.372,195.499l8.771,8.692
            l0.482,60.649l-8.721,8.747L33.372,195.499z M81.088,197.719c-0.031,0.049,6.996,0.201,6.996,0.201l-2.812,5.076l-2.402-0.107
            l3.162-2.157l-2.027-2.592l-3.249,2.118l1.811,2.621l-4.745-0.102L81.088,197.719z M126.329,199.221l2.382,7.869l-2.863,0.497
            l-2.151-7.403C124.574,199.73,125.452,199.505,126.329,199.221z M103.829,199.713l0.049,4.721l3.822,0.323l0.149-4.426
            L103.829,199.713z M122.833,200.466l2.179,7.477l-1.817,0.518l-2.603-7.098C121.304,200.942,122.048,200.633,122.833,200.466
            L122.833,200.466z M119.516,202.009l2.8,7.32c-3.867,1.568-7.878,4.925-10.897,8.275c-2.238-1.645-3.555-1.816-4.936-2.188
            C110.29,208.323,114.787,204.599,119.516,202.009z M77.259,203.845l7.356,0.222l-5.117,7.641l-8.321-0.01L77.259,203.845z
            M99.157,204.129l-0.479,4.47l3.939,2.327l0.599-4.591L99.157,204.129z M94.412,204.757l-2.8,2.959l2.974,3.393l2.728-3.543
            L94.412,204.757z M88.152,204.911l-3.325,3.051l2.646,3.451l3.04-3.471L88.152,204.911z M45.781,207.757l0.325,59.25l-12.219,11.842
            l-0.092-3.187l9.715-10.145c0.011-20.041-0.053-40.082-0.12-60.123L45.781,207.757z M78.291,205.843l-3.374,4.6l4.001,0.01
            l2.901-4.455L78.291,205.843z M57.483,234.514c-1.331,4.788-7.465,9.98-7.574,9.893c3.037,4.352,2.935,10.558,0.257,13.614
            c0.012-0.068,4.882,3.974,5.565,6.072c0.385,0.836,0.54,1.854,1.027,2.684c0.13,0.22,0.541,0.766,0.541,0.766
            C69.194,255.482,63.53,241.347,57.483,234.514L57.483,234.514z M57.66,235.766c11.549,14.328,3.936,27.442-0.094,31.101l-0.77-1.271
            c8.581-9.973,4.944-22.225-0.056-28.025L57.66,235.766z M56.41,238.554c0.077,0.233,0.527,0.908,0.193,0.864l-0.579-0.115
            L56.41,238.554z M56.324,240.152c0.25,0,0.46,0.078,0.574,0.252c0.235,0.391-0.959,3.686-1.696,2.917
            c-0.222-0.435-0.483-0.812-0.688-1.263c-0.24-0.537-0.082-0.797,0.468-1.331C55.362,240.358,55.906,240.153,56.324,240.152
            L56.324,240.152z M57.985,241.045c0.584,0.045,1.414,1.883,1.491,3.195c0.036,0.136-1.972-0.309-2.505-0.922
            C57.035,242.781,57.539,241.413,57.985,241.045L57.985,241.045z M53.467,242.544c3.478,6.991,3.26,12.452,0.198,17.473l-2.398-2.051
            c1.612-3.818,2.41-7.894-0.305-13.082L53.467,242.544z M55.813,244.293c0.24-0.021,0.983,0.089,1.641,0.3
            c2.327,0.743,2.414,2.267,0.174,3.384c-0.928,0.462-1.217,0.258-1.752-2.071C55.611,244.754,55.411,244.328,55.813,244.293
            L55.813,244.293z M60.306,246.972c0.449-0.002,0.655,0.846,0.71,2.308c0.052,1.389-0.243,1.497-1.361,0.507
            c-1.209-1.07-1.417-1.325-0.309-2.206C59.67,247.323,60.102,246.973,60.306,246.972z M57.135,249.265
            c0.221-0.019,0.863,0.391,1.491,0.869c1.591,1.212,1.238,2.044-0.569,2.631c-1.253,0.406-1.19,0.457-1.158-1.709
            C56.914,249.985,56.851,249.29,57.135,249.265z M78.199,251.238c-1.942,0.492-2.758,2.225-2.113,3.784
            c0.293,0.709,0.738,0.715,0.216,1.148c-0.583,0.673-0.893,2.23-0.252,2.798c0.757,0.434,0.952-0.314,0.154,1.149L61.575,286.99
            l87.814-0.163l-10.555-19.768c0.024-0.028,0.845-3.262-0.844-3.651c-0.543-0.125-0.853-0.629-0.963-1.111
            c0.138-1.375-0.487-1.96-1.013-2.67c-8.348,1.179-15.599,0.592-21.589-0.756c-8.629-1.94-14.796-5.301-18.806-6.356
            C90.092,251.06,83.418,250.427,78.199,251.238L78.199,251.238z M82.93,251.423c6.804-0.041,14.42,2.041,19.751,4.349
            c5.53,2.284,11.39,3.986,17.309,4.86c4.886,0.615,9.759,0.306,14.431-0.064c0.511-0.077,1.04-0.007,1.421,0.397
            c0.968,1.076,0.309,1.75-2.114,1.975c-3.89,0.321-8.715,0.184-12.994-0.459c-6.775-0.778-13.959-2.827-20.156-5.396
            c-7.745-2.906-14.859-3.879-20.48-3.021c-3.087,0.471-3.541,0.545-3.528-0.284C76.591,252.16,77.93,251.421,82.93,251.423
            L82.93,251.423z M60.634,256.114c-0.299,0.686-2.415-1.558-2.394-2.19c0.045-0.279,1.758-1.397,2.438-1.852
            c0.329-0.252,0.308-0.121,0.312,0.175C61.002,253.092,60.935,255.276,60.634,256.114L60.634,256.114z M57.376,254.459
            c0.977,0.131,2.582,2.768,1.168,3.176c-1.252,0.361-2.391,0.594-2.543-0.246c0.645-2.062,0.887-2.878,1.259-2.925
            C57.298,254.458,57.338,254.458,57.376,254.459L57.376,254.459z M114.162,263.462c6.233,1.078,14.415,1.723,19.763,1.305
            c3.065-0.309,3.711-0.209,3.692,1.068c-0.012,0.801,0.075,0.781-3.881,0.777c-3.288,0.22-6.248-0.133-9.432-0.298
            c-6.586-0.327-12.57-1.455-18.101-3.375c-6.135-1.592-11.45-4.649-17.454-5.28c-5.506-0.54-10.458,0.435-11.497,1.012
            c-0.347-0.005-0.527-0.519-0.507-0.993c0.02-0.463,0.192-0.835,0.579-1.131C93.107,252.567,101.556,261.093,114.162,263.462
            L114.162,263.462z M59.438,258.19c0.525,0.006,0.358,0.784-0.503,2.433c-0.731,1.402-1.02,1.395-1.433-0.043
            c-0.442-1.536-0.4-1.706,0.478-1.931C58.496,258.525,58.933,258.254,59.438,258.19z M55.754,258.972
            c0.617,0.009,1.492,2.801,1.043,3.325c-0.355,0.415-1.639,0.134-2.013-0.356C54.183,261.152,54.952,258.96,55.754,258.972z
            M83.343,259.726c2.448-0.024,4.888,0.237,7.131,0.623c-1.292,0.478-2.577,0.918-3.918,1.692
            C85.63,261.245,84.577,260.471,83.343,259.726z M86.524,263.115c8.651-4.824,12.304,1.835,13.554,2.909
            c7.563-1.674,9.044-0.85,13.264,3.709c7.573-3.703,11.244-0.555,14.405,1.437c3.709-3.466,8.41-3.562,10.861-1.822
            c0.459,0.767,1.096,1.74,1.147,2.03c0.041,0.226-0.306-0.037-1.158-0.647c-4.447-3.182-11.828,0.781-9.856,4.977
            c0.531,1.131,0.446,1.617-0.348,2.071c-1.128,0.763-2.514-0.504-1.728-1.796c1.312-2.158,0.324-3.965-2.867-5.633
            c-4.498-2.352-11.847,0.282-10.334,3.75c0.968,1.107,0.07,1.889-1.207,1.849c-1.446-0.045-1.937-1.012-1.009-2.046
            c1.157-1.321,0.854-2.659-0.494-4.185c-4.039-5.753-12.211-3.472-11.129,1.569c0.475,1.252-0.876,1.758-2.278,1.2
            c-0.892-0.354-0.759-1.733,0.218-2.22c1.123-0.114,1.282-1.741,1.148-2.785c-0.195-1.52-2.437-3.018-4.653-3.812
            c-1.604-0.575-3.095-0.698-4.271-0.591c-2.483,0.228-3.87,1.914-3.461,4.44c0.241,1.491-0.176,3.037-1.926,2.217
            c-0.958-0.448-0.717-1.531,0.261-2.53c3.438-3.357-3.485-7.443-7.665-4.629c-0.708,0.583-1.226,0.684-1.226,0.684
            C78.393,256.736,86.601,262.847,86.524,263.115L86.524,263.115z M97.917,262.236l5.224,1.967c-1.204,0.237-2.053,0.577-2.906,0.916
            L97.917,262.236z M84.275,264.357c-4.821-0.913-5.083,4.474-1.941,5.353c-4.322,5.938,6.996,8.242,4.919,0.915
            c5.735,1.033,4.698-5.492,0.434-5.433c0.997-2.432,8.869-0.589,8.53,1.218c-5.322,0.564-3.195,5.413-0.893,5.418
            c-5.565,5.269,5.571,10.126,5.275,2.184c4.468,0.939,4.993-4.991,0.698-5.382c1.573-2.213,7.19-0.817,8.749,1.713
            c-4.435,0.589-4.157,4.482-0.688,5.111c-4.397,5.6,6.426,7.669,5.301,1.16c3.878,1.333,6.006-3.841,0.981-5.32
            c5.147-3.065,10.735,1.505,10.131,1.598c-5.874-0.348-4.704,5.538-0.454,5.219c-2.704,6.11,8.012,6.451,5.294,0.113
            c4.819,0.088,4.396-5.497-0.221-5.87c2.907-2.119,6.187-2.306,8.296-0.322c-4.395,1.156-2.569,6.264,1.852,4.85
            c0.409,4.274,3.885,3.367,3.962,3.238l3.109,5.802l-84.258,0.135l7.191-13.272c4.251,0.218,4.099-3.873,3.912-3.974
            c2.826,2.018,5.866-2.998,1.73-4.436C79.565,260.838,84.574,264.103,84.275,264.357L84.275,264.357z M56.845,263.987
            c-0.176,0.181-0.222,0.288-0.512,0.02C55.599,263.165,57.597,263.095,56.845,263.987z M74.268,266.21
            c0.371,0.304,0.116,1.136-0.186,1.42c-0.759,0.813-1.016,0.749-0.347-0.655C73.932,266.55,74.119,266.205,74.268,266.21z
            M111.183,266.586l4.381,1.06l-2.081,1.173C112.715,267.984,111.975,267.263,111.183,266.586z M124.874,268.351l4.765,0.304
            c-0.63,0.429-1.248,0.827-2.018,1.607C127.021,269.624,125.885,268.988,124.874,268.351z M140.746,273.209
            c0.266,0.552,1.317,2.474,1.218,2.524C140.424,276.002,140.011,273.709,140.746,273.209z"/>
    </g>
</svg>
