<?xml version="1.0" encoding="utf-8"?>
<svg version="1.2" baseProfile="tiny"
    xmlns="http://www.w3.org/2000/svg"
    xmlns:svg="http://www.w3.org/2000/svg"
    xmlns:xlink="http://www.w3.org/1999/xlink"
    viewBox="0 0 225 314" width="225px" height="314px">
    <defs>
        <style>
            .maxi-card { display: none; }
            @media (min-width: 75px) {
                .maxi-card { display: block; }
                .mini-card { display: none; }
            }
        </style>

        <path id="suit" d="M26.406,40.187c0.015-1.979-1.561-2.017-1.542-0.573c-0.133,7.257-6.311,10.83-10.799,9.982
            c-6.92-1.307-9.129-8.129-9.062-12.148C5.205,25.046,17.775,15.9,29.116,0c8.311,14.351,22.028,25.623,22.839,36.717
            c1.08,14.749-17.711,20.25-20.394,3.06c-0.173-1.214-1.613-1.759-1.501-0.063c0.408,4.711-0.171,6.674,5.179,18.287H21.252
            C24.351,52.574,26.195,45.911,26.406,40.187L26.406,40.187z"/>
        <polygon id="numeral" points="0,0 0,2.871 2.937,2.871 2.937,27.849 0,27.849 0,30.942 8.532,30.942 8.532,27.849 6.271,27.849 6.271,20.764
            9.698,16.015 14.838,27.849 11.557,27.849 11.557,30.942 20.863,30.942 20.863,27.849 18.637,27.849 11.823,12.635 18.297,2.824
            20.697,2.871 20.697,0 11.456,0 11.456,2.871 14.12,2.871 6.271,14.916 6.271,2.871 8.6,2.871 8.6,0 "/>

    </defs>

    <rect width="100%" height="100%" fill="#fefefe"/>

    <!-- Little Card -->
    <g class="mini-card">
        <use xlink:href="#numeral" transform="matrix(3.5,0,0,3.5,78.4,33.95)"/>
        <use xlink:href="#suit" transform="matrix(2,0,0,2,55.5,170)"/>
    </g>

    <!-- Big Card -->
    <g class="maxi-card">

        <!-- Top Numeral and Suit -->
        <use xlink:href="#numeral" transform="matrix(1,0,0,1,7,12)"/>
        <use xlink:href="#suit" transform="matrix(0.4,0,0,0.4,6,51)"/>

        <!-- Bottom Numeral and Suit -->
        <use xlink:href="#numeral" transform="matrix(-1,0,0,-1,218,302)"/>
        <use xlink:href="#suit" transform="matrix(-0.4,0,0,-0.4,218,263)"/>

        <!-- Card Face -->
        <use xlink:href="#suit" transform="matrix(0.8,0,0,0.8,36,40)"/><!-- top left -->
        <use xlink:href="#suit" transform="matrix(-0.8,0,0,-0.8,188,274)"/><!-- bottom right -->

        <path fill="#131F67" d="M30.264,25.721h163.532l0.299,261.366L30.13,286.651C30.13,286.651,30.123,116.096,30.264,25.721z M146.421,285.205
            c-6.089-10.986-15.715-28.883-15.999-29.025c-3.56,1.887-39.847,6.721-57.301,2.039c-5.97,8.924-11.831,17.763-17.028,26.607
            L146.421,285.205z M90.69,252.345c-0.912,0.021-1.931,0.574-1.743,0.092c0.109-0.278,0.367-3.096,0.479-4.104
            c0.273-0.448,0.657,0.727,0.613,1.818c-0.024,0.626,0.277,0.179,2.344,0.287c2.235,0.116,4.067,0.533,4.825,0.696
            c2.644,0.569,7.758,0.161,9.95-1.425c1.186-0.859,1.635,0.068,0.412,0.989c-5.523,4.161-9.902,2.574-14.701,1.877
            C92.155,252.473,91.431,252.328,90.69,252.345z M93.038,248.397c-0.343-0.222-0.569-0.245-1.008-0.041
            c-1.695,0.786-1.252-0.342-0.031-1.479c0.558-0.519,0.542-0.783,0.118-1.329c-0.214-0.275-0.572-0.31-0.487-0.724
            c0.367-1.783,2.886-4.48,5.7-5.686c1.171-0.502,1.356,0.047-0.124,0.911c-2.277,1.331-3.014,2.466-1.726,2.004
            c2.497-0.896,4.774-0.264,7.97,1.321c0.913,0.452,1.331,0.541,2.107,0.458c0.574-0.473,1.088,0.096,1.443,0.394
            c0.224,0.179,0.271,0.264,0.525,0.205c1.818-0.425,0.729,0.727-1.756,2.529C101.32,250.088,96.465,251.562,93.038,248.397z
            M99.886,249.166c1.819-0.545,4.038-1.683,5.398-2.87c1.653-1.442,0.719-1.223-1.182-0.313c-2.751,1.315-4.677,1.696-7.771,1.625
            c-2.59-0.059-2.509-0.163-2.603,0.158C93.399,248.891,96.962,250.041,99.886,249.166z M94.862,244.77
            c0.147-0.484,0.261-1.131,0.129-1.341c-0.24-0.38-0.755-0.1-1.409,0.723c-0.406,0.509-0.351,0.578,0.046,0.979
            c0.2,0.135,0.353,0.234,0.473,0.304C94.653,245.669,94.741,245.159,94.862,244.77L94.862,244.77z M95.993,245.435
            c0.797-2.693,2.58-2.642,3.852-0.064l0.897,0.006c-1.844-5.015-5.415-2.476-5.535,0.019
            C95.628,245.533,95.993,245.434,95.993,245.435L95.993,245.435z M102.656,244.981c0.842-0.466,0.718-0.783-0.354-1.333
            c-0.762-0.391-1.165-0.469-1.304-0.217c0.011,0.556,0.033,1.35,0.356,1.791C101.69,245.424,102.153,245.225,102.656,244.981z
            M90.854,237.311c-0.154-0.253-0.127-0.716,0.459-0.985c3.611-1.66,0.979-5.165-1.808-2.537c-0.885,0.721-2.199,1.056-3.215,0.627
            c-0.955-0.414-0.973-1.573,0.296-1.82c0.416-0.081,1.484-0.307,1.879-0.578c4.847-2.576,7.421,3.024,3.981,4.888
            C91.74,237.315,90.99,237.543,90.854,237.311z M77.277,232.226c-1.968-0.886-2.237-3.958-0.394-5.155
            c1.174-0.797,2.373-1.014,5.605,0.574c2.283,1.122,3.59-0.086,3.531,1.22c-0.036,0.793-0.084,1.594-1.411,1.785
            c-2.157,0.311-3.63-2.597-6.401-2.322c-1.999,0.197-1.746,2.572-0.302,3.055C79.831,232.026,78.664,232.787,77.277,232.226z
            M113.445,232.672c-0.361,0.168-0.531-0.616-0.375-1.035c0.983-2.314,1.888-4.155,2.778-6.324c0.711-1.728,1.188-2.471,1.508-2.469
            c0.325,0.002,0.477,0.255-0.069,1.319C116.462,226.309,113.448,232.856,113.445,232.672z M97.294,232.072
            c-0.87-0.615-0.724-1.527,0.267-0.836c1.272,0.888,3.358-0.738,2.934-2.271c-0.515-1.854-2.995-2.303-5.071-0.643
            c-3.276,2.619-6.871,2.752-6.871,0.705c0.006-0.586-0.076-0.719,1.286-0.81c1.586-0.106,3.374-0.827,4.263-1.365
            c3.985-2.412,8.226-0.747,7.348,3.277C101.052,232.028,98.709,232.947,97.294,232.072L97.294,232.072z M82.68,226.132
            c-0.323-0.01-0.914,0.314-1.084,0.188c-0.332-0.246-0.283-0.96-0.557-1.725c-0.484-1.356-0.012-0.933,0.84-0.566
            c1.158,0.444,2.255,0.358,3.23,0.022c1.007-0.347,2.328-0.268,4.442,0.006c1.701,0.221,2.657,0.156,4.201-0.281
            c1.675-0.521,1.231-0.334,0.952,0.692c-0.182,0.673-0.411,1.576-0.624,1.793c-1.158-0.645-2.038-0.395-2.799,0.044
            c-1.251,0.547-2.138,0.642-3.162,0.337c-0.964-0.545-1.536-0.5-2.311-0.03C84.477,227.254,83.885,226.194,82.68,226.132z
            M107.667,223.312c0.234-0.409,0.575-0.973,0.896-1.605c2.589-5.106,2.766-6.526,0.938-8.247c-2.455-2.312-4.548-1.31-6.9,3.308
            c-0.571,1.12-0.913,1.963-1.144,2.309c-0.267,0.398-0.577,0.091-0.73-0.064c-0.29-0.293,2.321-5.194,3.345-6.264
            c2.678-2.8,7.654-0.561,7.338,3.248c-0.159,1.918-0.526,2.969-2.293,6.485c-0.437,0.87-0.816,1.608-1.048,1.963
            C107.24,224.995,107.43,223.731,107.667,223.312z M83.266,223.109c0.409-1.818,6.279-2.66,7.826-0.275
            c0.151,0.233,0.062,0.224-0.602,0.043c-2.984-0.98-3.577-0.927-6.437,0.196C83.624,223.237,83.319,223.305,83.266,223.109z
            M105.663,222.763c0.002-0.17,0.219-0.843,0.55-1.493c1.958-3.843,2.497-4.77,1.9-5.488c-1.163-1.399-2.726-0.183-4.161,3.829
            c-0.537,1.5-0.902,1.18-1.164,0.943c-0.502-0.453,1.718-5.122,2.788-5.817c2.427-1.533,4.337,0.241,3.265,3.376
            c-0.837,1.416-1.528,3.594-2.31,4.739C106.161,223.366,105.66,223.214,105.663,222.763L105.663,222.763z M96.886,216.523
            c-0.118-0.194,0.111-0.454,0.952-2.244c1.155-2.459,1.514-3.371,1.044-4.776c-0.837-2.502-3.991-3.116-5.908-1.474
            c-0.627,0.53-1.053,1.264-1.349,1.923c-0.692,1.525-1.27,3.498-1.68,3.912c-0.358,0.359-0.859,0.433-0.826-0.194
            c0.455-1.328,0.67-2.358,1.747-4.305c2.686-5.797,10.427-3.112,8.615,2.989c-0.674,2.215-1.449,3.893-1.907,4.438
            C97.32,217.095,96.897,216.831,96.886,216.523z M95.09,215.457c0.001-0.19,0.291-0.734,0.6-1.491
            c1.309-3.217,1.317-4.203-0.591-4.244c-1.142,0.146-1.311,0.61-2.312,3.148c-0.326,0.824-0.505,1.411-0.698,1.663
            c-0.208,0.27-0.598,0.109-0.757-0.052c-0.409-0.415,1.377-4.576,2.321-5.361c2.172-1.878,4.985,0.789,3.668,3.183
            c-0.618,1.673-1.15,2.809-1.513,3.326C95.488,216.086,95.086,216.022,95.09,215.457z M48.861,177.954l-6.596-0.45
            c1.169,7.014,1.228,14.734,0.047,20.209c-1.009,4.682-1.021,8.13-0.72,12.188c0.351,4.722,2.362,8.726,2.868,13.738
            c0.366,3.632-0.441,7.422-1.164,11.032c-1.206,6.034-0.957,6.665-0.779,13.745c0.164,6.565-0.451,6.33-0.83,5.946
            c-0.058-0.058-0.11-1.219-0.102-2.6c0.008-1.381-0.077-4.758-0.156-7.102c-0.158-4.683,0.365-8.821,0.744-10.524
            c0.772-3.466,1.64-7.017,1.105-10.853c-1.086-4.842-2.616-9.678-3.153-14.344c-0.661-5.755,0.966-11.528,1.504-15.708
            c0.52-4.035-0.031-11.016-1.094-13.922c-0.184-0.966-1.052-2.227-1.052-2.227c-0.995-0.141-1.993-0.281-3.388-0.272
            c-0.078,27.712-0.001,55.435,0.021,83.15l6.151,5.679l6.319-5.979L48.861,177.954z M49.305,209.743c0,0,9.385,5.377,19.733,10.66
            c-0.985-6.045,2.14-6.957,5.074-7.658c-0.703-11.679,10.05-9.283,11.697,0.864l1.06,0.004c1.863-5.059,3.706-8.551,7.948-9.384
            c3.287-0.646,6.53,1.426,7.353,6.306c-0.146-0.343,10.9-6.451,11.205,6.454c5.017-3.099,8.596-0.422,10.043,3.513
            c2.117-3.211,7.419-3.353,9.113-3.586c0.591-0.678,1.632-1.064,3.524-1.052c1.622-0.083,3.802-1.291,4.923,0.182
            c1.706,0.268,3.006-0.039,4.463,1.081c1.16,0.878,2.454,2.834,4.386,1.485c3.682-1.765,7.819-2.561,11.112-4.688
            c0,0-0.873-1.119-0.619-0.958c0.094,0.06,0.504,0.588,1.121,0.834c0.222,0.088,2.244-1.118,2.244-1.118
            c-13.714-15.723-24.995-46.417-17.546-74.815c0.206-0.483-0.621-0.67-1.028-0.841c0.125-0.218,2.138,0.074,1.283,1.88
            c-0.86,5.441-1.836,11.337-2.053,15.849c-0.004,0.55,0.046,1.041,0.046,1.041c30.75,14.114,26.979,44.686,19.08,55.327l1.245,1.65
            c0.551,0.367,24.189-13.351,23.41-13.914l4.473-2.216l-0.725-59.947l-17.69-1.347c0,0,0.188-0.503,0.412-0.634
            c0.162-3.659-0.167-9.072,0.01-13.604c0.068-12.947,0.199-17.35,0.03-17.708c-5.456-3.575-13.592-8.804-20.439-11.339
            c0.281,0.079-0.111,5.364-0.319,5.666c-6.406,2.034-3.433,4.635-5.8,7.428c-1.591,1.739-5.313,2.07-7.111-0.017
            c-2.147-2.068-3.154-6.813-3.154-6.813c-3.389,3.606-2.693,7.964-7.231,9.604c-7.294,3.602-9.61-7.164-9.187-6.915
            c-2.795,2.682-10.639,4.863-11.486-6.461c-3.526,3.231-7.479,1.627-9.156-2.349c-2.152,0.075-4.566,1.754-6.746,2.661
            c-2.021,0.891-4.608,1.414-6.528,1.374c-2.401,0.289-4.379,0.278-6.543-0.363c-1.017,0.329-3.31-0.654-4.017-2.062
            c-1.082-1.265-2.025-1.339-3.055-1.11c-3.504,1.837-7.262,2.28-11.398,4.203c-0.258,0.179,0.363,0.516,0.154,0.449
            c-0.088-0.027-2.173,1.019-2.173,1.019c20.954,27.416,22.095,55.097,17.702,74.716c-0.172,0.68-0.267,1.174,0.186,1.709
            c-0.664-0.114-0.675,0.079-0.799-0.345l2.179-16.467c0.063-1.989,0.313-1.843-1.442-2.584c-1.624-0.687-3.16-1.348-4.5-2.168
            c-5.109-3.768-10.884-8.405-13.698-14.191c-8.029-12.438-5.381-27.278,0.634-39.037l-1.496-1.547
            c-17.562,8.758-27.933,18.2-27.933,18.2l0.076,58.824l18.048,2.071L49.305,209.743z M40.598,170.462
            c-0.579-0.637-2.053-0.748-2.667-0.264c-0.142,0.119-0.444,0.742-0.534,0.72c-0.817-0.209-1.384-0.378-1.492-1.064l0.868-1.306
            c0.687-1.033,1.677-1.399,3.346-1.788c0.592-0.138,1.485-0.264,1.801-0.397c1.254-0.539,1.69-1.706,0.421-1.183
            c-0.928,0.253-2.223,0.169-2.396-0.675c-0.141-0.693-0.734-0.965-1.396-0.884c-1.223,0.293-2.339,0.929-3.422,1.567
            c-0.48,0.288-1.391,0.94-1.391,0.94c-0.144,0.225-0.673-1.41-0.18-1.888c0.613,0.074,1.142,0.08,1.739-0.157
            c1.492-0.592,2.929-1.306,4.435-1.879c0.959-0.375,1.047-0.343,0.795-1.021c-0.125-0.25-0.235-1.08-0.07-1.514
            c0.176-0.462,0.156-0.694-0.142-0.892c-0.678-0.449-2.303-0.031-4.589,1.062c-0.695,0.333-1.154,0.467-1.595,0.82
            c0.284-0.72,0.118-0.853,0.111-1.606c0.933,0.116,1.772-0.252,2.518-0.643c0.614-0.32,1.304-0.636,2.992-0.851
            c0.461-0.059,0.251-1.738-0.274-2.226c-0.496-0.46-1.541-0.47-2.804-0.099c-1.128,0.258-2.53,0.52-3.307,1.726
            c-0.979,0.922,0.024-1.529,1.809-2.507c0.783-0.018,2.509-0.386,2.915-0.475c0.688-0.152,0.799-1.761-0.202-2.45
            c-0.627-0.544,2.277-0.559,2.222-0.393c-0.037,0.095-0.063,0.782,0.158,0.958c1.251,0.375,1.239,1.393,1.35,1.821
            c1.436,2.347,2.143,0.874,3.132,0.066c-0.209,5.109,1.587,5.691,1.824,6.015c-2.466,4.578-0.606,4.691,1.706,5.744
            c0,0-0.879,0.355-1.464,0.319c-0.92-0.057-2.682,1.029-3.451,1.669c-0.425,0.353-0.438,0.059-2.137,0.01
            c-1.601-0.047-1.718,0.072-2.447,0.394c-1.44,0.635-1.433,1.234-0.025,0.999c1.498-0.253,2.966,0.653,3.138,1.886
            c0.119,0.233,0.013,0.646-0.011,0.632c-0.312-0.059-1.018,0.059-1.007-0.09S40.874,170.855,40.598,170.462L40.598,170.462z
            M42.784,164.27c0.406-0.258,0.476-0.993,0.122-1.291c-0.321-0.271-1.688-0.126-2.075,0.22
            C39.957,163.883,41.554,165.028,42.784,164.27z M43.66,161.194c0.502-0.391,0.563-1.328,0.128-1.873
            c-0.738-0.924-2.669-0.371-2.773,0.794C40.904,161.356,42.609,162.01,43.66,161.194z M43.031,156.973
            c0.091-1.019-0.923-1.664-1.854-1.181c-1.161,0.602-0.456,1.87,0.998,1.796C42.981,157.546,42.981,157.546,43.031,156.973z
            M39.633,152.838c-0.543,0.265-0.57,0.899-0.057,1.309C41.614,155.267,40.993,152.268,39.633,152.838z M181.912,158.929
            c-0.895-3.28-3.359-0.027-3.363,0.018c-0.087-3.362,0.552-4.858-1.98-6.007c2.541-3.832,2.012-4.36-0.683-5.831
            c0.248,0.021,3.576-0.722,4.146-2.614c0.126,0.089,5.224,1.339,5.859-1.431c-1.538,0.697-4.563,0.802-4.598-2.177
            c0.286-0.086,1.003,0.062,0.943,0.156c-0.402,1.91,3.093,2.383,3.665,0.874c0,0,1.174,0.783,1.689,0.904
            c0.058,0.038-1.589,2.312-3.092,2.655c-2.707,0.893-3.642,1.134-3.645,1.669c-0.001,0.208,0.441,0.241,1.246,0.405
            c1.682,0.115,1.646,0.476,1.867,1.03c0.195,0.49,0.385,0.589,0.945,0.539c1.921-0.636,2.882-0.97,4.221-2.303
            c0.163-0.031,0.353,1.401,0.456,1.45c0.016-0.229-1.359,0.171-3.471,1.4c-1.724,1.004-2.398,1.15-2.617,1.421
            c-0.163,0.201,0.256,0.835,0.3,1.522c0.037,0.578-0.354,0.858-0.066,1.039c0.332,0.209,0.846,0.171,1.521-0.004
            c1.49-0.357,2.586-0.941,3.926-1.765c-0.285,0.536,0.191,1.896,0.191,1.896s-0.66-0.463-1.204-0.223
            c-1.049,0.458-2.743,1.082-3.2,1.189c-0.443,0.104-0.636,0.161-0.809,0.308c-0.213,0.18-0.178,0.612-0.182,1.248
            c-0.003,0.446-0.131,0.857,0.15,0.992c0.626,0.201,1.889,0.138,3.175-0.31c0.548-0.238,1.711-0.868,1.711-0.868l-0.364,1.881
            c-0.488-0.547-1.888-0.144-2.825,0.224c-0.474,0.148-0.614,0.444-0.734,0.855c-0.21,0.702,0.238,1.186,0.755,1.416
            c0.344,0.153,0.873,0.091,0.873,0.091c-2.428,0.92-1.944,1.26-3.362,0.562C182.746,160.483,182.146,159.786,181.912,158.929z
            M184.454,158.93c-0.403-0.464-1.104-0.729-1.514-0.546c-0.363,0.192-0.232,0.595-0.116,0.902
            C183.131,160.138,185.265,159.864,184.454,158.93z M183.037,156.585c0.569-0.743-0.058-1.743-1.109-1.75
            c-0.731-0.004-1.121,0.449-1.113,1.019C180.83,156.933,182.562,157.205,183.037,156.585z M181.868,153.753
            c1.055-0.286,1.378-1.304,0.649-2.042c-0.519-0.524-2.146-0.59-2.581-0.115C178.826,152.808,180.072,154.24,181.868,153.753z
            M182.745,150.029c0.619-0.315,0.738-0.841,0.191-1.438c-0.993-0.841-2.727-0.185-2.167,1.042
            C181.044,150.234,181.99,150.413,182.745,150.029z M55.805,121.759c0.931-0.338,1.604-1.058,2.584-1.609
            c0.661-0.36,0.462-0.303-0.385-0.795c-0.665-0.305-1.999-1.649-2.123-1.329C55.578,118.599,55.621,121.733,55.805,121.759z
            M79.354,154.58c0.039-0.64,0.116-1.603,0.098-2.31c0.127-1.346-0.116-0.953-0.849-0.513c-0.541,0.348-1.41,0.876-1.75,1.045
            c-1.343,0.667-1.183,0.702,0.708,1.608C79.148,155.118,79.326,155.049,79.354,154.58z M77.512,151.429
            c1.283-0.805,1.709-1.22,1.771-2.124c0.007-1.04-0.114-1.418-1.03-0.698c-3.123,2.456-6.338-2.362-3.479-5.039
            c0.583-0.546,1.323-1.399,1.33-1.616c0.046-1.553-1.709-0.046-3.143,2.086c-1.588,1.938-2.577,4.364-1.185,6.693
            C72.892,152.435,75.372,152.772,77.512,151.429z M70.415,148.293c-0.057-0.76,0.158-1.608,0.258-1.861
            c0.35-0.89,0.335-1-1.256-0.26c-0.635,0.209-1.393,0.378-1.685,0.376c-1.299-0.008-0.975,0.399,0.888,1.945
            C70.493,150.047,70.555,150.188,70.415,148.293z M74.842,140.851c0.198-0.468-0.215-0.647-0.609-0.56
            c-0.031,0.007-0.713,0.513-1.514,1.141c-2.427,1.902-4.207,2.125-5.411,0.676c-1.222-1.47-0.711-3.213,2.018-5.209
            c1.204-0.881,1.493-0.94,0.914-1.325c-0.44-0.292-0.467-0.248-2.197,0.919c-3.488,2.351-4.532,3.956-4.183,6.296
            c0.071,0.96,0.577,1.464,1.066,1.838C68.251,147.56,72.865,143.515,74.842,140.851L74.842,140.851z M78.363,142.239l-0.21-3.236
            c-3.547-3.044-6.91-8.242-8.072-12.548c-1.186-3.829-0.241-11.816-0.062-11.223l-1.916-3.613
            c-1.668,3.834-2.396,9.681-0.582,15.638C69.06,132.314,72.143,138.438,78.363,142.239L78.363,142.239z M63.426,140.353
            c1.127-2.153,1.161-1.921-1.016-1.939c-2.484-0.021-2.206-0.322-0.807,1.79C62.729,141.9,62.539,142.047,63.426,140.353z
            M64.918,137.402c1.431-0.457,1.104-0.353,3.004-1.582c2.18-1.411,2.271-2.183,0.082-1.096c-2.81,1.396-5.277,1.04-6.193-0.783
            c-0.815-1.624,0.888-3.649,3.693-4.441c0.958-0.271,1.464-0.499,1.466-0.917c0.008-1.274-4.768,0.425-6.734,2.349
            C56.437,134.644,59.761,139.049,64.918,137.402z M58.778,131.62c0.128-0.193,0.469-0.657,0.784-1.139
            c1.345-1.557,0.214-1.091-0.98-1.517c-0.631-0.231-1.277-0.462-1.647-0.406c-0.715,0.107,0.24,1.481,0.471,2.368
            C58.047,132.901,57.973,132.84,58.778,131.62z M63.862,128.063c2.408-0.234,2.653-0.466,2.657-0.963
            c0.003-0.492-0.295-0.398-1.504-0.231c-3.2,0.442-5.32-0.368-5.777-2.066c-0.473-1.754,1.695-3.413,4.585-3.315
            c1.564,0.053,2.606-0.485,1.653-1.003c-0.496-0.27-4.806-0.212-5.78,0.071c-2.863,0.83-4.03,2.415-3.77,4.61
            c0.396,2.71,1.883,3.487,5.508,3.295C62.128,128.423,63.013,128.145,63.862,128.063z M65.725,119.234
            c0.003-0.423-0.685-0.484-2.957-0.819c-3.026-0.447-4.378-3.235-2.554-4.912c0.691-0.636,2.339-0.909,3.257-0.742
            c1.995,0.361,3.215,0.771,3.234,0.097c0.004-0.602-0.575-0.645-4.32-1.432c-5.658-1.191-8.765,4.337-4.241,7.041
            C59.863,119.493,65.72,120.077,65.725,119.234z M67.128,111.323c0.001-0.212-0.183-0.375-0.611-0.542
            c-0.623-0.242-1.041-0.287-2.445-1.229c-1.868-1.253-2.435-3.696-1.188-5.059c1.21-1.271-0.967-2.771-2.701-1.337
            c-1.803,1.49-1.651,3.83,0.424,5.682C62.517,110.545,67.121,112.319,67.128,111.323z M57.959,110.993
            c1.967-0.919,3.38-0.391,1.875-1.658c-0.845-0.779-1.566-2.994-2.153-1.115c-0.449,1.12-0.78,3.096-0.792,3.29
            C57.021,111.643,56.991,111.414,57.959,110.993z M127.524,106.226c-2.24-0.556-3.771-3.145-3.2-5.634
            c0.322-1.405,1.651-4.719,1.913-4.925c0.988-0.78,0.853,0.258-0.054,2.061c-0.827,1.841-1.473,3.321-1.216,4.416
            c0.364,1.56,0.997,2.749,2.626,3.145c1.145,0.278,2.224-0.196,2.955-0.71c0.966-0.68,1.88-2.423,2.972-4.835
            c0.35-0.679,0.818-2.764,1.399-1.492c0.281,0.659-2.05,5.037-2.921,6.147C130.903,105.794,129.05,106.614,127.524,106.226
            L127.524,106.226z M141.029,104.76c1.091,1.041,2.935,1.564,4.139,1.191c2.955-1.036,4.297-3.814,3.179-8.281
            c-0.566-2.503-1.051-4.061-1.54-4.37c-0.238-0.15-0.499,0.13-0.73,0.479c-0.206,0.311,0.109,0.748,0.444,1.927
            c1.412,4.963,1.043,7.207-0.68,8.155c-2.5,1.377-4.643-0.208-5.368-3.749c-0.116-0.548-0.458-1.663-0.458-1.663
            c-0.191-0.492-1.74-0.384-1.178,1.265C139.006,100.989,140.187,104.031,141.029,104.76z M153.702,91.761
            c-0.039-1.746-3.729-9.323-3.98-8.519c0,0-0.017,1.771,0.129,2.468c0.055,0.263,0.246,0.507,0.403,0.786
            c3.207,5.691,2.712,9.702-0.068,10.581c-0.947,0.428-1.153,0.849-0.73,1.29c0.857,0.927,3.007-0.906,3.425-1.572
            C153.932,95.302,153.785,92.577,153.702,91.761L153.702,91.761z M100.004,90.473c1.208-1.343,3.858-5.979,4.676-8.411
            c2.514-7.238,5.156-15.564,5.887-23.26c0.081-0.971,0.132-2.449,0.18-2.575c-0.197-0.213-1.443-0.102-1.862,0.111
            c-0.2,0.26-0.066,0.836-0.138,1.587c-1.125,8.652-3.201,16.534-6.281,24.558c-1.348,3.485-2.598,5.78-4.221,8.204
            c-0.283,0.424-0.644,0.859-0.785,1.105c-0.41,0.59-0.108,0.975,0.366,0.726C98.669,92.042,99.398,91.129,100.004,90.473z
            M95.883,92.578c3.855-5.281,6.596-11.622,8.726-19.105c1.347-4.843,2.531-9.744,3.241-14.738c0.146-1.066,0.264-1.78,0.055-2.099
            c-0.521-0.14-1.492-0.054-1.829,0.206c-0.206,0.311-0.068,0.932-0.259,2.369c-0.494,3.717-1.232,7.449-2.479,12.334
            c-3.29,10.813-6.314,16.868-10.286,22.165c-0.32,0.445-0.606,0.735-0.578,0.924c0.042,0.277,0.428,0.255,1.06-0.138
            C94.358,93.851,95.301,93.287,95.883,92.578z M90.01,95.385c1.886-1.066,5.207-5.703,7.553-10.698
            c2.633-5.896,4.836-12.556,6.278-18.323c0.626-2.528,1.516-8.841,1.389-9.256c-0.151-0.493-1.994-0.083-1.738,0.258
            c0,0-1.831,10.147-3.802,15.74c-3.658,10.384-6.821,17.428-10.227,20.815c-0.445,0.443-1.324,1.312-1.324,1.312
            s0.018,0.387,0.302,0.446C89.12,95.805,89.573,95.609,90.01,95.385z M87.123,94.971c4.256-2.372,9.24-13.449,13.309-27.357
            c0.696-2.38,1.969-10.347,1.969-10.347s-1.696,0.063-2.023,0.418c-0.329,0.481-0.275,1.707-0.751,4.619
            c-1.829,8.797-4.589,16.822-8.737,24.753c-1.794,3.515-4.774,6.824-6.656,7.767c-1.052,0.527-1.359,1.107-0.59,1.149
            c1.298,0.047,1.413,0.317,2.355-0.188L87.123,94.971z M145.438,218.852c-3.19-0.011-5.901,3.041-8.316,6.878
            c-5.138,7.86-8.591,20.997-9.431,27.978l1.938-0.364c-0.291,0.133,3.623-18.582,9.586-26.596c3.224-5.056,3.088-5.132,4.897-5.596
            c2.288-0.586,4.123,1.882,2.988,3.369c-0.411,0.503-0.861,0.134-0.734-0.584c0.406-2.288-2.943-2.729-3.879-0.479
            c-1.076,2.586,1.785,4.894,4.581,3.876c2.499-0.88,3.545-4.362,1.791-6.936C147.957,219.528,146.653,218.755,145.438,218.852z
            M128.638,218.531c-3.821,4.785-5.714,9.702-8.061,16.415c-2.345,6.708-4.029,13.269-4.759,20.797l2.062-0.265
            c-0.075-4.841,5.244-27.884,12.719-36.517c0.417-0.546,0.752-1,0.721-1.127C130.905,216.67,129.133,218.073,128.638,218.531z
            M137.081,216.744c-4.953,4.047-8.909,12.887-11.519,21.059c-2.82,8.833-4.086,16.927-3.874,16.927l1.968-0.288
            c-0.146-0.513,5.529-31.637,16.06-37.304c0.913-0.454,1.105-0.912,0.335-1.11C138.865,215.862,137.912,216.25,137.081,216.744
            L137.081,216.744z M142.626,216.765c-10.814,1.42-17.882,34.506-18.118,37.253c-0.003,0.042-0.039,0.256-0.039,0.256l2.153-0.442
            c0,0,0.018-0.106,0.027-0.158c1.482-8.454,2.928-14.381,6.298-22.021c2.628-5.662,6.252-12.902,11.668-13.604
            c0.44-0.057,0.857,0.119,0.703-0.392C144.989,216.844,143.37,216.74,142.626,216.765z M78.173,206.347
            c-3.908,1.002-4.036,5.675-1.433,11.646c0.197,0.45,0.161,0.697,0.36,0.871c0.445,0.389,0.795-0.153,0.844-0.511
            c0.075-0.543-0.157-1.273-0.57-2.334c-1.61-4.134-1.225-6.515,0.371-7.568c4.088-2.101,5.188,2.214,5.807,4.199
            c0.151,0.483,0.203,1.148,0.47,1.185c0.816,0.111,1.205-0.177,1.192-0.177c0,0-1.083-3.717-1.743-5.112
            C82.403,206.287,79.862,205.815,78.173,206.347L78.173,206.347z M49.816,210.758l-0.041,49.255l-7.481,7.013
            c-3.211-2.747-7.43-7.048-7.43-7.048l0.133-83.268l-2.407-0.192c-0.589,35.775-0.17,72.084-0.197,107.929l22.124,0.163
            l18.311-28.54c0,0,0.231-0.341,0.305-0.52c0.225-0.552,0.198-1.373,0.088-4.408c-0.045-1.233,0.094-2.181-0.088-2.47
            c-0.185-0.293-0.575-0.083-0.94,0.08c-0.371,0.166-0.592,0.107-0.392-0.33c0.113-0.247,0.479-0.791,0.796-1.31
            c1.028-1.685,1.279-2.224,0.933-4.092c-0.086-0.459-0.508-0.848-0.875-1.389c-3.082-4.54-4.337-11.271-2.807-16.2
            c0.487-2.179,0.312-2.62-0.741-4.318L49.816,210.758z M146.664,157.797c-2.012-1.031-1.973-1.008-1.984,0.943
            c0.011,1.46,0.038,1.812,0.587,1.616c0.793-0.403,1.763-0.772,2.495-1.082C149.159,158.795,147.384,158.181,146.664,157.797z
            M154.628,162.87c-1.562-1.244-0.985-1.102-1.427,1.704c-0.268,1.694-0.611,1.738,1.145,1.178c0.996-0.344,3.046-0.127,2.127-1.295
            C156.479,164.478,154.934,163.13,154.628,162.87z M91.901,205.934c-2.395,1.447-4.841,8.458-4.841,8.458
            c-8.368,0.996-11.872,9.215-12.246,16.068c-0.295,5.41-0.662,11.727-0.116,12.28c5.487-2.464,7.602,0.38,8.121-0.387
            c0.238-0.335-1.217-1.444-3.043-2.44c-0.425-0.23-1.082-0.646-1.331-0.853c-0.666-0.552,1.33-0.077,2.592,0.78
            c1.609,1.094,1.88,0.866,1.182-2.331c-0.76-3.475-0.884-3.9,1.791-5.278c1.069-0.551,1.678-1.019,2.444-1.877
            c0.613-0.686,0.77-0.854,0.544,0.155c-0.392,1.747-1.947,2.509-3.348,3.219c-0.697,0.356-0.985,1.074-0.989,1.69
            c-0.004,0.629,0.719,4.025,1.054,5.11c0.311,1.031,0.425,2.064,0.664,3.115c0.629,2.728,0.669,3.263,0.352,5.242
            c-0.187,1.161-0.281,1.823-0.217,2.524c0.06,0.638,0.147,1.505,0.147,1.505c0.004-0.03-1.494-1.533-4.771-0.244
            c-2.362,0.929-4.229-0.04-5.553-0.728c-0.305,1.074-0.236,2.241-0.199,3.474c13.624,2.489,25.26,2.155,35.057,1.131
            c0.254-2.894,1.489-12.094,4.083-20.391c1.08-3.452,2.301-7.091,3.678-9.52c0.938-1.656,1.896-2.772,2.234-2.965
            c0.105-0.063,0.115-0.098,0.113-0.142c-0.002-0.093,0.002-0.171-0.003-0.26c-0.034-0.537-0.165-1.37-0.628-1.739
            c-1.131-0.901-2.935,0.259-3.527,2.269c-0.52,1.203-2.892,6.41-3.061,6.322c-0.14-0.087-0.469-0.094-0.35-0.496
            c0.908-2.11,2.155-4.342,2.857-6.236c0.97-2.728,3.08-4.168,4.656-2.447c0.541,0.589,0.758,1.133,1.006,1.32
            c0.187,0.142,0.438,0.045,0.594-0.188c0.594-0.896-0.784-2.927-2.263-3.334c-2.134-0.59-3.725,0.966-6.145,6.009
            c-1.397,2.911-1.647,3.643-1.868,3.419c-0.049,0.02-0.42,0.019-0.286-0.545c0.288-1.213,2.143-4.735,3.485-6.97
            c1.988-3.308,5.68-3.576,7.231-0.705c0.237,0.392,0.25,0.903,0.514,1.252c0.476,0.615,1.26,0.493,1.454-0.518
            c-0.212-0.669-1.51-3.085-2.41-3.506c-2.076-1.426-4.596-1.146-6.716,0.745c-0.481,0.43-0.982,1.302-2.39,4.153
            c-2.071,4.573-2.126,4.591-2.692,3.854c0.833-2.225,3.024-5.839,3.909-8.058c0.168-0.331,0.202-0.687,0.189-1.027
            c-0.051-1.613,0.212-4.464-3.201-6.489c-2.911-1.567-6.755,0.082-8.063,3.167c-1.002,2.363-1.734,3.986-2.239,4.321
            c-0.71,0.471-0.578-0.185-0.508-0.423c1.009-2.139,2.428-4.3,2.652-6.451C101.65,205.148,95.742,202.995,91.901,205.934
            L91.901,205.934z M61.404,96.815c4.61-2.142,7.767-3.219,12.464-4.604c0.635-0.277,0.735-0.342,0.062-1.674
            c-2.976-5.889,5.19-10.582,7.966-4.803c0.369,0.771,0.455,1.197,0.82,0.828c0.682-0.895,1.493-2.164,2.336-3.613
            c3.124-4.838,4.537-10.356,6.203-15.227c0.691-2.861,1.655-5.853,1.929-8.922C86.986,48.019,82.669,37.644,76.09,28.044
            l-43.382-0.031l-0.163,86.677C44.675,104.574,52.933,100.915,61.404,96.815z M110.238,93.63c0.526-0.556,0.981-1.477,2.868-5.346
            c0.336-0.69,0.874-1.762,1.093-2.26c0.283-0.91,1.343-1.479,0.827,0.15c-0.117,0.353-0.319,0.827-0.64,1.458
            c-0.628,1.128-1.224,2.509-1.671,3.411c-2.412,4.832-2.297,7.647,0.398,9.744c2.013,1.925,6.241,2.142,8.491-0.965
            c0.337-0.5,0.638-1.145,0.735-1.38c0.978-2.373,1.699-3.559,1.884-3.794c1.001-1.27,1.162,0.304-0.334,2.727
            c-1.714,2.775-1.743,5.783-0.262,7.9c2.195,3.137,6.366,3.227,8.983,0.709l0,0c1.361-1.594,2.442-3.622,3.313-6.214
            c0.192-0.575,0.393-1.002,0.534-1.339c0.218-0.519,0.531-0.712,1.344-0.867c5.572-1.067,10.248-6.783,10.912-13.024
            c0.088-0.845,0.328-2.338,0.415-3.225c0.175-1.769,0.179-10.931,0.005-11.477c-0.094-0.295-0.261-0.451-0.623-0.447
            c-0.278,0.004-0.673,0.102-1.238,0.303c-1.837,0.655-2.692,0.821-4.457,0.191c-0.583-0.209-0.986-0.28-1.226-0.259
            c-0.778,0.066,0.256,1.184,2.525,2.416c0.973,0.528,1.741,1.24,0.953,1.188c-0.229-0.016-2.969-1.431-3.347-1.662
            c-1.248-0.765-0.923,0.198-0.279,2.731c0.863,3.402,0.366,4.357-2.322,5.69c-0.501,0.249-1.166,0.767-1.505,1.102
            c-1.424,2.104-1.057,0.554-0.339-0.567c1.227-1.282,0.475-1.72-2.039-0.831c-2.867,1.015-4.162,0.273-4.965-1.319
            c-0.906-1.801,0.8-4.117,2.223-4.072c0.46,0.015,0.377,0.181-0.302,0.644c-0.819,0.56-1.208,1.099-1.293,2.055
            c-0.174,1.948,1.22,2.775,3.169,1.469c0.92-0.617,1.644-1.043,2.341-1.201c0.69-0.157,1.728,0.1,1.724,0.651
            c-0.001,0.228-0.032,0.786,0.017,0.909c0.183,0.617,1.17-0.256,1.599-0.566c1.468-1.096,1.42-1.312,1.02-3.091
            c-0.655-2.488-0.986-4.764-1.61-7.287c-0.334-1.321-0.391-2.815-0.188-4.162c0.102-0.675,0.364-2.062,0.418-3.013
            s-0.006-2.308,0.029-2.308c1.457,1.114,2.05,1.309,3.472,0.77c2.2-0.901,3.59-0.808,5.443,0.079
            c0.687,0.327,1.311,0.559,1.311,0.559l0.085-2.856c0,0-1.716-0.354-4.888-0.771c-9.547-1.253-29.138-1.518-29.867-0.366
            c-0.186,0.293-0.37,2.334-0.891,5.172c-1.155,5.896-2.45,11.772-4.183,17.526c-0.355,1.172-0.695,1.645-0.514,1.68
            c0.074,0.014,0.429-0.44,0.594-0.63c0.929-1.071,0.217,1.473-1.185,4.537c-0.127,0.276-0.231,0.579-0.231,0.673
            c-0.001,0.185-0.882,2.32-1.489,3.611c-0.378,0.803-0.69,1.044-0.688,0.531c0.426-1.766,1.553-4.049,1.715-5.622
            c-0.987,1.425-2.424,3.776-3.512,5.18c-0.2,0.378,0.013,0.494,0.188,0.962c0.653,1.744,2.236,1.9,3.151,0.32
            c0.51-0.88,2.095-4.198,2.646-5.65c0.567-1.493,0.966-2.281,1.154-2.379c0.379-0.196,0.452,0.653-0.221,2.066
            c-2.04,4.287-2.914,6.69-3.913,7.577c-0.775,0.688-2.116,0.644-2.861-0.58c-1.264-2.076-2.342-1.389-1.183,0.739
            c1.197,2.199,3.934,2.404,5.363,0.425c0.472-0.654,2.691-4.89,3.39-6.611c0.39-0.962,0.806-1.71,0.944-1.764
            c0.745-0.287-0.105,1.908-2.246,6.304c-0.693,1.697-1.808,3.478-3.315,4.029c-3.664,0.802-4.159-1.135-5.434-3.342
            c-0.62-0.549-1.181,0.329-0.944,1.299c0.385,1.574,1.104,2.19,2.215,2.98C105.844,96.327,109.069,95.312,110.238,93.63z
            M126.583,102.826c-0.332-0.735-0.284-1.481-0.114-2.178c0.384-1.569,1.02-3.092,1.763-4.416c1.204-0.569,0.284,1.694,0.134,2.03
            c-1.451,3.023-1.588,4.193-0.234,4.543c1.161,0.299,1.785-0.411,2.882-3.122c0.562-1.392,0.788-2.008,0.987-2.088
            c0.422-0.169,0.626,0.001,0.601,0.426c-0.726,1.78-1.293,3.651-2.484,5.13C128.95,104.127,127.194,104.132,126.583,102.826z
            M115.699,100.503c-0.505-0.099-1.371-0.75-1.973-1.301c-2.051-1.876-1.712-4.47,0.83-9.346c0.198-0.379,0.938-1.854,1.175-2.338
            c0.426-0.867,0.845-0.527,0.841,0.046c-0.001,0.161-0.636,1.508-1.277,2.758c-2.808,5.484-2.711,7.722,0.017,9.026
            c2.663,1.273,3.856,0.541,5.979-3.646c1.229-3.144,1.834-3.195,1.767-2.001c-0.003,0.446-1.489,3.459-2.448,4.859
            C119.219,100.593,118.015,100.954,115.699,100.503L115.699,100.503z M115.901,97.857c-1.045-0.646-1.472-2.255-0.854-3.571
            c0.562-1.085,2.002-5.246,2.679-5.48c1.088-0.037,0.507,0.874-0.841,3.433c-1.595,3.389-1.537,4.295-0.307,4.813
            c1.139,0.48,1.68-0.504,3.359-4.468c0.264-0.622,0.632-1.269,0.848-1.134c0.268-0.02,0.731,0.181-0.152,1.978
            c-0.209,0.43-0.565,1.33-0.958,2.169C118.527,98.049,117.224,98.674,115.901,97.857L115.901,97.857z M134.772,90.661
            c-0.46-0.235-2.616-1.082-2.296-1.783c0.039-0.066,0.164-0.015,0.229,0.028c1.974,1.321,4.429,1.656,6.99-0.178
            c0.431-0.379,0.752-0.122,0.512,0.354C139.431,90.619,135.979,91.276,134.772,90.661z M128.43,88.434
            c0.06-0.147,0.237-0.587,0.395-1.178c0.237-0.887,0.182-1.54,0.392-1.428c0.895,0.483,2.494,0.495,3.277,0.018
            c0.857-0.523,2.599-0.684,3.233-0.271c0.907,0.589,1.368,0.314,2.004-0.18c0.717-0.559,0.73-0.32,2.025,0.129
            c0.957,0.331,1.332,0.559,1.739,0.484c0.155-0.027,0.472-0.383,0.572-0.364c0.312,0.056,0.347,0.938,0.633,1.944
            c0.254,0.891,0.109,1.105-0.689,0.571c-0.595-0.396-2.303-0.583-4.079-0.04c-1.316,0.403-1.619,0.241-2.584,0.078
            c-2.407-0.406-4.144-0.72-5.938,0.317C128.452,89.07,128.105,89.358,128.43,88.434L128.43,88.434z M122.444,84.035
            c-1.166-2.337,1.516-5.431,3.874-4.338c0.782,0.362,1.478,1.734,0.32,1.104c-5.362-1.081-4.022,6.762,1.735,2.619
            c3.827-2.537,6.535-2.93,6.761-0.475c-0.106,0.901-0.909,0.758-1.518,0.84c-1.586,0.221-2.173,0.479-4.01,1.266
            C126.81,85.932,124.076,86.651,122.444,84.035z M143.426,85.115c-1.309-0.336-2.444-0.852-3.809-1.099
            c-1.352-0.234-1.962-0.939-1.717-1.888c0.253-0.984,1.606-1.088,3.64,0.151c2.255,1.374,3.89,1.707,4.714,1.189
            c1.669-1.049,0.769-2.755-0.823-3.191c-1.195-0.332-0.315-0.796,0.969-0.413c2.073,0.784,2.117,4.525-0.015,5.302
            C145.672,85.426,144.415,85.356,143.426,85.115z M125.161,72.732c1.522-0.939,2.993-1.779,3.517-2.341
            c0.275-0.294,1.039-1.282,0.446-0.98c-3.105,1.862-6.71,0.315-9.321-0.959c-1.254-0.586-0.945-0.326-1.909-0.263
            c-0.652,0.044-1.178,0.181-1.294-0.285c-0.052-0.206-0.417-0.12-0.651-0.143c-0.965-0.096-0.354-1.371,1.673-2.777
            c2.391-1.658,4.476-2.74,6.546-3.187c2.15-0.464,4.344-0.202,5.952,1.345c0.618,0.594,0.563,0.99,1.128,0.625
            c1.289-0.833,1.3,0.272,0.213,1.295c-0.746,0.702-0.474,0.894,0.439,1.562c0.436,0.319,0.079,0.623-0.165,1.087
            c-0.092,0.284-0.02,0.596-0.063,0.812c-0.203,0.998-4.756,4.526-6.404,5.13C124.134,73.863,124.728,73.009,125.161,72.732z
            M128.323,66.247l-0.756,0.011c-0.86,2.622-2.448,3.517-3.771,0.372l-0.602,0.061C123.167,69.354,127.756,71.027,128.323,66.247z
            M123.353,68.707c-0.312-0.522-0.663-1.721-0.989-1.738c-0.888-0.037-2.114,0.122-1.823,0.671
            C120.998,68.509,123.714,69.313,123.353,68.707z M129.435,68.24c0.818-0.492,0.992-0.831,0.459-1.371
            c-0.689-0.698-1.05-0.342-1.266,0.772C128.442,68.599,128.576,68.755,129.435,68.24z M118.342,66.395
            c5.48-2.476,7.559-2.796,9.786-2.183c0.516,0.142,0.972,0.43,1.261,0.412c1.065-0.063,0.386-1.256-1.528-1.938
            c-2.186-0.78-3.571-0.426-7.772,1.761C117.628,65.727,115.629,67.621,118.342,66.395z M134.226,63.39
            c-0.078-0.148-0.41-1.133-0.504-1.492c-0.095-0.36-0.18-0.731-0.282-0.732c-2.542,0.405-4.778-0.069-5.379-0.213
            c-3.846-0.916-7.562-0.729-10.335,0.354c-0.678,0.266-1.518,0.694-1.599,0.77c-0.219,0.205-0.543-0.028-0.541-0.283
            c0.001-0.301,1.704-1.646,2.777-2.177c3.264-1.614,6.708-1.89,10.49-0.874c2.464,0.943,4.052,0.791,5.627,0.103
            c0.772-0.338,0.225,0.498-0.021,1.606c-0.169,0.769,0.017,1.426,0.049,1.86C134.606,63.361,134.487,63.886,134.226,63.39
            L134.226,63.39z M191.515,284.826v-86.851c-14.419,10.619-41.688,21.696-41.688,21.696c3.434,6.986-4.131,12.964-8.471,5.87
            c-4.465,5.006-10.616,22.536-10.834,28.357c0,0,11.878,20.706,17.673,30.927H191.515z M112.099,256.229
            c0.396-4.36,1.33-11.753,4.238-20.356c1.221-3.608,2.692-7.75,4.771-11.457c0.829-1.295,0.887-1.797,0.003-1.33
            c-0.557,0.293-3.099,3.154-3.444,3.877c-3.898,8.212-5.702,18.078-7.129,25.61c-0.323,1.693-0.419,3.799-0.419,3.799
            L112.099,256.229z M114.951,255.87c0.927-10.593,4.831-24.895,10.696-34.216c0.552-0.889,1.23-1.659,1.205-1.966
            c-0.077-0.907-2.335,0.659-4.087,3.334c-1.956,3.872-3.916,8.003-5.415,12.576c-2.117,6.456-3.662,12.421-4.265,20.515
            L114.951,255.87z M120.587,254.987c0.589-6.104,2.486-11.704,4.077-17.314c1.945-6.86,4.542-11.909,7.568-16.455
            c0.971-1.458,2.116-2.823,3.205-4.213c0.139-0.167,0.278-0.468,0.247-0.594c-0.699-0.122-1.256,0.095-1.796,0.396
            c-0.755,0.422-1.817,1.487-2.438,2.276c-4.31,5.488-6.629,11.895-8.781,18.368c-2.067,6.217-3.556,12.195-3.848,17.825
            L120.587,254.987z M81.873,250.308c0.867-0.068,1.426,0.095,1.678-0.135c0.249-0.229,0.168-0.844,0.246-1.629
            c0.169-1.68-0.006-1.588-1.058-0.503c-1.74,1.797-4.917,2.49-6.807,1.403c-0.953-0.548-1.615-0.928-1.706-0.472
            c-0.104,0.531,0.041,0.938,0.448,1.223C76.964,251.238,79.137,250.521,81.873,250.308z M79.827,249.021
            c1.206-0.399,2.432-1.042,3.12-2.023c0.658-0.936,0.647-1.069,0.149-0.892c-2.45,1.202-4.061,1.814-6.25,1.481
            c-2.966-0.45-3.089-0.072-1.129,1.153C77.001,249.541,78.065,249.566,79.827,249.021L79.827,249.021z M75.474,245.267
            c0.46-0.338,0.577-1.715,0.207-1.793c-0.375-0.08-0.921,0.604-1.055,1.16C74.477,245.372,75.026,245.562,75.474,245.267z
            M80.065,245.207l0.789-0.071c-0.403-3.453-4.159-3.602-4.853,0.346l0.595,0.089C77.371,242.423,79.643,242.51,80.065,245.207z
            M82.541,244.652c1.149-0.64,0.752-1.432-0.798-1.735c-1.018-0.238-0.961,0.592-0.434,1.718
            C81.572,245.194,81.755,245.089,82.541,244.652L82.541,244.652z M73.696,240.419c-0.01-0.385-0.168-1.006-0.351-1.38
            c-1.324-2.707-2.055-5.905-1.904-9.88c0.107-2.85,0.143-3.73-0.45-3.734c-0.829,0.398-1.318,5.699-0.264,10.113
            C71.471,238.654,73.751,242.519,73.696,240.419z M73.663,236.104c-0.08-1.488,0.248-4.824,0.084-5.553
            c-0.215-0.956-0.782-1.82-1.103-2.051c-0.498-0.356-0.622,0.328-0.45,2.116C72.599,234.813,73.274,237.99,73.663,236.104z
            M74.082,228.466c0.328-0.588,0.2-1.213-0.521-2.616c-2.839-5.527-3.207-9.305-0.241-10.677c0.332-0.154,0.541-0.184,0.763-0.306
            c0.935-0.518,0.579-1.456-0.819-1.068c-3.864,1.071-4.626,4.68-1.369,11.358C73.553,228.49,73.81,228.955,74.082,228.466
            L74.082,228.466z M74.786,225.331c0.05-0.231,0.15-1.135,0.188-1.319c0.039-0.186-0.351-0.717-0.769-1.783
            c-1.092-2.783-1.115-3.938,0.073-4.744c0.386-0.226,0.782-0.237,0.843-0.496c0.093-0.404,0.086-1.068-0.157-1.261
            c-1.704,0.013-2.491,1.004-2.79,1.947c-0.45,1.492,0.02,3.678,1.357,6.386C74.181,224.906,74.52,226.449,74.786,225.331z
            M76.089,221.731c0.911-1.836,0.046-4.214-1.208-3.402c-0.813,0.526-0.854,1.082-0.355,2.61
            C75.134,222.8,75.493,222.93,76.089,221.731z M79.284,216.821c0.365-0.36,0.041-0.878-0.633-2.905
            c-0.578-1.737-0.313-2.924,0.786-3.267c1.578-0.389,2.137,2.186,2.469,3.271c0.171,0.838,0.723,1.068,1.213,0.486
            c0.137-0.163,0.177-0.299-0.057-1.213c-1.019-3.991-2.351-5.261-4.495-4.267c-1.988,0.922-1.728,2.983-0.286,7.317
            c0.193,0.58,0.321,1.011,0.461,1.07C78.856,217.365,79.082,217.02,79.284,216.821z M81.045,215.465
            c0.472-0.466,0.443-0.255-0.096-1.921c-0.614-1.897-0.938-2.294-1.599-1.642c-0.406,0.401-0.201,0.842,0.262,2.396
            C80.152,216.103,80.295,216.206,81.045,215.465z M163.463,208.965c3.137-2.159,1.844-6.033-2.286-7.47
            c-0.487-0.17-1.024-0.374-1.192-0.455c-1.897-0.91-3.374-1.192-3.378-0.48c-0.003,0.418,0.566,0.63,2.386,1.514
            c2.691,1.308,3.299,2.818,1.971,4.723C160.006,208.169,161.799,209.741,163.463,208.965L163.463,208.965z M166.31,204.25
            c0.272-1.108,0.677-2.059,0.871-2.704c0.266-1.01-0.077-0.775-0.748-0.617c-1.729,0.895-2.967,0.408-2.126,1.639
            C165.24,204.204,166.01,205.468,166.31,204.25z M166.095,200.377c2.155-1.287,2.633-4.641,0.628-6.238
            c-0.48-0.383-1.31-0.887-2.315-1.192c-2.041-0.62-4.986-0.902-6.066-0.576c-0.231,0.272-0.241,0.701-0.009,0.826
            c0.301,0.111,0.844,0.186,1.629,0.265c2.999,0.304,4.479,1.194,4.335,3.317c-0.148,2.187-1.901,3.027-5.067,2.336
            c-1.703-0.371-2.496-0.192-1.812,0.205c0.812,0.472,2.56,1.092,4.28,1.43C163.168,201.007,164.847,201.106,166.095,200.377z
            M155.75,199.825c2.427-5.429,3.704-19.669-10.157-29.963l0.458,2.849c8.167,7.136,10.129,16.224,8.437,24.56L155.75,199.825z
            M168.126,190.092c-0.867,0.562-1.593,1.144-2.707,1.64c-0.667,0.298-0.685,0.371,0.222,0.863c0.438,0.239,1.161,0.678,1.438,0.975
            c0.479,0.516,1.045,0.714,1.257,0.526C168.313,193.287,168.59,190.616,168.126,190.092z M164.024,191.121
            c2.808-0.884,4.311-2.231,3.99-4.484c-0.47-3.306-3.242-4.005-8.436-2.713c-2.498,0.622-2.722,1.791-0.351,1.188
            c2.994-0.762,5.345,0.39,5.026,2.574c-0.186,1.886-1.705,2.983-4.375,2.983c-1.41,0-1.846,0.126-1.654,0.633
            C158.354,191.646,162.867,191.486,164.024,191.121z M159.389,183.269c4.589-1.568,6.723-4.006,5.675-6.737
            c-1.234-3.216-5.24-3.248-9.265-0.255c-1.881,1.372-1.593,1.881,0.229,1.182c2.361-1.081,3.881-1.248,4.848-0.389
            c1.747,1.554,0.568,4.262-2.08,5.233c-1.282,0.531-1.694,0.825-1.697,1.209C157.095,184.118,157.329,183.973,159.389,183.269
            L159.389,183.269z M167.131,183.219c0.118-0.952-0.961-4.253-1.427-3.493c-0.124,0.201-0.552,1.134-1.094,1.617
            c-1.579,1.41-1.28,0.876,0.287,1.308C165.77,182.891,167,183.502,167.131,183.219z M154.991,176.165
            c4.641-2.682,6.411-6.508,4.007-9.051c-2.162-2.286-5.745-0.955-9.073,3.201c-1.526,1.906-0.38,1.667,1.678-0.146
            c2.396-2.111,5.444-1.093,5.428,1.543c-0.007,1.126-1.604,3.02-3.116,3.899c-0.469,0.272-0.537,0.691-0.371,0.964
            C153.722,176.87,154.098,176.681,154.991,176.165z M163.125,173.368c-0.242-0.721-1.988-3.813-2.363-3.707
            c-0.396,0.793-0.425,1.836-0.899,2.677c-0.646,1.265-0.564,1.066,1.496,1.06C162.892,173.393,163.077,173.607,163.125,173.368z
            M149.488,169.872c3.898-4.033,4.242-8.755,0.59-9.842c-2.022-0.602-5.258,0.855-5.267,2.361c-0.006,0.938,0.17,1.107,0.989,0.771
            c3.445-1.277,6.176,2.024,3.011,5.819c-0.77,1.099-0.873,1.374-0.648,1.602C148.425,170.85,148.638,170.75,149.488,169.872z
            M191.476,135.388V28.501h-22.813l-18.121,28.218l-0.027,6.984c-0.001,0.241,0.412,0.391,0.679,0.088
            c1.029-0.794,0.632,0.039-0.552,1.837c-1.197,1.816-0.831,3.313,0.478,5.254c2.775,4.111,4.223,11.66,3.041,15.65
            c-0.445,1.507-0.545,2.115-0.254,2.958c0.333,0.964,0.537,1.479,1.501,2.1c0.837,0.582,7.729,3.261,18.831,10.377l-0.055-50.217
            l6.995-6.684l7.39,7.048l0.259,82.905C188.829,135.897,190.547,136.296,191.476,135.388z M187.474,52.352l-6.188-5.744
            l-6.116,5.659c-0.032,27.004,0.155,82.428,0.155,82.428l6.078,0.436c0,0,0.446-1.264-0.122-4.532
            c-0.854-4.905-0.801-10.896,0.571-20.006c0.854-5.59,0.006-10.437-1.291-15.54c-1.126-3.4-1.166-6.548-0.962-9.591
            c0.433-4.851,1.772-8.514,1.937-15.492c0.093-3.979-0.098-7.874,0.048-12.782c0.061-0.657,0.339-0.576,0.389,0.103
            c0.186,4.441,0.359,8.661,0.399,12.998c-0.134,5.641-1.518,11.445-1.669,16.608c-0.114,3.576-0.172,4.813,1.343,9.168
            c2.381,6.845,0.813,17.358,0.786,17.545c-1.009,6.736-1.744,15.354,1.662,21.8l3.302,0.294L187.474,52.352z M144.906,103.294
            c1.825-0.836,2.187-2.312,1.204-5.868c-0.176-0.635-0.376-1.39-0.444-1.677c-0.211-0.877-0.606-0.974-1.135-0.275
            c-0.315,0.417-0.024,0.514,0.46,2.469c0.732,2.955,0.308,3.933-0.795,3.926c-0.977-0.006-1.737-0.809-2.017-2.727
            c-0.096-0.654-0.234-1.101-0.393-1.363c-0.266-0.438-0.586-0.359-0.844,0.126c-0.334,0.628,0.293,3.214,1.126,4.467
            C142.974,103.635,143.596,103.895,144.906,103.294z M144.409,100.641c0.389-0.728-0.093-2.519-0.345-3.692
            c-0.231-0.654-0.495-0.814-0.93-0.708c-0.646,0.158-0.615,0.864-0.381,2.025C143.231,100.632,143.489,100.931,144.409,100.641z
            M149.958,96.372c2.089-1.187,2.288-3.234,0.885-6.958c-0.575-1.526-1.291-2.602-1.687-2.612c-0.155,0.971-0.298,1.488-0.125,1.869
            c0.163,0.354,0.438,0.896,0.634,1.349c1.188,2.747,0.868,4.33-0.28,5.188C148.314,96.009,148.991,96.683,149.958,96.372z
            M81.6,94.941c4.898-1.044,9.317-8.893,12.1-15.893c2.535-7.051,5.229-14.799,5.656-21.26c0,0-1.853,0.085-2.08,0.467
            c-0.21,0.376-0.302,1.187-0.498,2.341c-1.277,5.944-2.293,10.458-4.521,16.045c-1.547,3.878-3.234,8.268-7.424,14.164
            c-1.376,1.647-2.95,2.669-4.929,2.944c-0.503,0.069-1.351-0.024-1.564,0.126c-0.375,0.264-0.037,0.863,0.932,1.104
            C80.139,95.197,81.02,95.055,81.6,94.941z M149.098,94.024c0.748-0.793,0.821-1.733-0.017-3.724
            c-0.235-0.558-0.343-0.874-0.622-0.797c-0.591,0.165-1.28,1.713-0.872,3.023C148.118,94.234,148.429,94.733,149.098,94.024
            L149.098,94.024z M79.89,92.777c1.436-0.19,3.253-1.328,4.566-3.111c2.699-3.52,4.562-7.523,5.943-10.638
            c1.105-2.508,3.103-7.923,3.646-9.885c1.152-4.165,1.783-6.854,2.309-9.835c0.048-0.274,0.094-0.712,0.012-0.854
            c-0.568-0.155-1.814-0.062-2.196,0.319c-0.688,4.782-2.287,9.581-3.456,13.568c-1.971,6.784-7.59,17.637-10.652,18.148
            c-1.647,0.275-3.535-1.151-3.231-2.616c0.187-0.899,0.311-1.242,0.753-1.467c1.067-0.375,1.688,0.35,0.518,0.822
            c-1.357,1.176,1.086,2.975,2.586,1.718c2.543-2.13-1.193-6.209-4.252-4.334c-3.389,2.077-2.518,5.675-0.387,7.384
            C77.121,92.86,78.365,92.981,79.89,92.777z M103.884,87.906c2.093-2.142,3.665-4.914,4.81-8.38
            c2.478-7.784,4.533-16.707,5.277-23.697c0,0-1.788-0.184-2.186,0.193c-0.281,0.266-0.013,0.519-0.773,5.627
            c-1.276,7.447-3.139,14.843-5.832,21.245c-1.104,2.588-1.417,2.905-2.196,4.25C101.896,89.044,102.299,89.528,103.884,87.906z
            M150.328,71.679c-0.194-0.1-0.178-0.034-0.26,0.022c-0.286,0.197-0.1,1.191,0.549,2.727c1.706,2.745,1.905,8.073,1.794,10.076
            c-0.034,0.602-0.096,0.946,0.087,1.481c0.182,0.523,0.499,1.133,1.011,0.111c0.562-3.944,0.12-8.075-1.396-11.419
            C151.576,73.489,151.054,72.326,150.328,71.679z M151.642,83.313c0.299-1.062-0.253-5.271-0.938-6.75
            c-0.276-0.596-0.775-0.643-0.715,0.035c0.005,1.459-0.153,4.232,0.005,5.054C150.739,83.366,151.32,84.458,151.642,83.313z
            M147.778,66.308l-0.805,0.001c0.027,2.753-2.422,3.518-3.325,0.212l-0.726,0.167C143.886,71.354,148.242,69.214,147.778,66.308z
            M142.881,68.383c-0.418-1.222-0.245-1.668-1.307-1.119c-0.812,0.42-1.298,0.866-0.155,1.415
            C142.435,69.108,143.146,69.156,142.881,68.383z M149.017,67.68c0.336-0.678,0.296-1.289-0.211-1.293
            c-0.391-0.002-0.499,0.309-0.61,0.966C147.997,68.528,148.489,68.743,149.017,67.68z M149.443,63.106
            c0.311-0.099,0.223-0.535,0.139-1.089c-1.327-1.84-4.611-1.276-5.791-0.911c-1.362,0.44-1.703,0.276-2.631-0.146
            c-0.766-0.142-0.873,0.044-1.06,0.408c-0.164,0.321-0.193,0.932-0.246,1.995c-0.045,0.898-0.014,1.316,0.301,1.035
            c1.216-1.088,2.623-2.447,4.676-2.532C147.32,61.763,149.445,63.146,149.443,63.106L149.443,63.106z M140.402,65.595
            c-0.002,0.371,0.315,0.14,1.125-0.367c2.947-1.745,4.654-1.498,7.178-0.666c0.562,0.186,0.909-0.4,0.301-0.899
            C146.008,61.207,142.317,62.773,140.402,65.595z M151.081,54.289l15.987-26.357l-89.071-0.065L93.121,55.85
            C105.454,53.005,125.755,49.371,151.081,54.289z"/>

        <path fill="#E2CF00" d="M72.087,260.474c1.887-2.807,11.229,2.193,11.724,4.174c5.529-4.34,12.243-4.656,17.646,0.776
            c5.556-6.056,11.503-5.642,17.69-2.134c-0.691-1.368,7.91-7.41,13.139-3.57l14.139,25.106l-90.579,0.291
            C61.197,277.11,65.937,267.545,72.087,260.474L72.087,260.474z M32.523,129.522c-0.492-1.358-2.479-15.306,2.562-15.654
            c8.151,3.603,18.555,16.49,23.375,24.365c5.974,9.759,12.01,32.198,8.677,31.218c-0.481-0.142,10.288,10.609,11.03,11.659
            c1.22,1.727-18.154,33.897-21.354,32.743c-0.968-0.349-7.419-4.188-7.419-4.188l0.185-10.734c0,0,10.139-19.959,10.7-26.628
            c0.213-2.521-6.976-6.834-7.305-7.705c-0.819-2.169-0.723-10.23-4.911-13.75c-2.309-1.4-4.488-0.954-6.831-0.656
            C31.724,148.609,36.65,132.633,32.523,129.522z M191.514,136.687l0.057,3.96c-6.259,1.36-17.321-3.926-20.67,4.59
            c0.415,9.198,2.482,13.323,3.925,16.101c1.085,2.495,8.696-0.352,11.377,2.165c7.69,9.44,5.876,22.01,5.943,33.336l-3.337,1.681
            c-23.06-13.562-40.767-55.689-43.22-67.684c-0.156-7.7,21.155-32.445,21.155-32.445c0.049-0.054,7.765,4.684,7.765,4.684
            c0.187,0.075-0.163,32.477-0.162,32.326C180.441,135.712,186.348,136.306,191.514,136.687z M144.666,107.072
            c-11.83,16.917-15.832,42.2-15.072,59.836c1.534,26.331,20.35,49.806,19.091,52.024c-0.213-0.154-0.71,0.107-0.899-0.061
            c-4.333-3.844-7.36-3.17-9.576-3.205c-4.236-0.067-5.407,1.192-7.838,1.433c-6.206,0.614-5.702,0.771-10.967-1.207
            c-6.643-5.401-15.541-9.544-22.621-11.723c-5.677,0.51-14.332,3.185-17.605,1.019c22.77-41.906,19.359-68.732-4.213-112.656
            c1.954,0.575,2.258,2.395,3.722,2.844c4.845,1.866,11.521,1.158,15.523-0.583c4.344-1.951,8.445,0.906,8.39,0.812
            c8.555,6.022,18.906,9.909,24.294,12.595c1.592,0.819,3.604-0.475,5.362-0.829c3.603-0.728,6.689-2.265,9.377-1.364
            C142.495,106.294,143.781,106.647,144.666,107.072L144.666,107.072z M91.51,52.233c-1.158-2.151-13.015-24.646-13.015-24.646
            l88.19,0.53l-13.231,21.701c-1.249,1.178-7.464,4.462-13.803-2.973c-0.119,1.068-9.407,7.675-17.392-0.281
            c-4.805,4.354-9.706,6.877-17.79,1.976C104.29,49.906,97.986,56.038,91.51,52.233z"/>

        <path fill="#D40000" d="M101.159,264.921c-8.545-7.99-17.439-0.777-17.236-0.321c-3.382-3.43-6.689-6.237-11.147-4.858c0,0,0.001-1.203,0.034-1.23
            c13.291,2.428,33.647,3.058,57.443-1.912l1.222,2.549c-6.382-2.264-9.671,0.79-12.499,4.355
            C108.734,257.125,106.235,262.721,101.159,264.921z M121.089,171.995l6.045-0.117c1.139,17.558,15.826,44.426,16.18,44.426
            c-1.023-1.419-10.72-0.301-10.648-0.121C127.333,201.976,121.479,187.783,121.089,171.995L121.089,171.995z M85.832,213.649
            c0,0-1.945-5.033-3.109-7.187c6.347-10.824,11.553-22.027,14.224-34.485l4.322,0.038C99.989,189.214,86.205,215.335,85.832,213.649
            L85.832,213.649z M163.599,211.346c9.521-17.158,7.878-41.89-19.134-55.557c0,0,0.704-18.128,2.713-18.17
            c0.453,0.141,12.226-0.15,12.226-0.15c3.085-7.561,8.048-16.703,14.983-22.876l0.174,20.263c-5.133,0.506-8.263,2.142-9.818,6.15
            l-7.111,1.582c0.522,20.355,8.191,39.163,30.937,56.056c-5.435,4.665-24.014,14.137-23.942,13.971L163.599,211.346z
            M49.629,198.557l0.202-21.101c3.449-0.745,6.168,0.254,9.016-5.92c0,0,4.779,2.266,6.367,3.101
            C60.747,182.62,56.891,191.152,49.629,198.557L49.629,198.557z M94.912,161.198l0.234-10.712l10.184,0.293
            c-0.864,3.632-1.135,7.265,0.021,10.897L94.912,161.198z M118.145,161.069c0.695-3.506,1.192-7.03-0.25-10.75l11.026,0.188
            l-0.26,10.669L118.145,161.069z M97.175,140.121c-1.834-21.011-16.249-44.792-16.451-44.286c1.698,0.271,4.689,1.112,6.336,0.333
            c1.992,0.331,3.719,0.105,3.812-0.079c0.133-0.734,13.399,30.507,11.629,43.983C102.29,140.529,97.608,140.559,97.175,140.121z
            M122.661,140.305c1.556-9.706,5.573-27.461,15.06-41.859c1.078,2.557,1.983,5.186,3.463,7.575
            c-7.153,10.394-11.561,22.273-14.234,34.4L122.661,140.305z M56.727,135.073c-4.341-8.845-22.396-22.768-21.473-21.36
            c7.475-6.692,15.811-10.942,24.131-15.236c0,0,1.479,1.402,1.256,1.755c-5.116,8.054-7.597,25.116-2.644,34.896
            c4.76,10.445,13.204,16.62,21.812,21.468c-0.666,6.53-0.991,11.251-2.6,17.744c0,0-5.409-2.842-9.842-4.671
            C66.662,157.336,64.107,146.305,56.727,135.073z M104.549,48.409c6.364,3.876,12.064,3.468,17.59-1.792
            c6.938,6.288,14.438,3.359,17.609,0.524c2.934,3.302,6.755,5.133,12.344,4.042l-1.384,2.903c0.331-1.543-38.548-4.061-57.358,1.2
            c0,0-1.1-2.189-0.978-2.209C94.01,52.98,99.458,54.995,104.549,48.409z"/>

        <path fill="#000000" d="M77.2,26.891l15.715,29.244c0,0,0.461-0.085,0.691-0.13c21.781-4.253,39.033-4.835,57.562-1.579L167.641,27.2
            C137.662,26.86,77.2,26.891,77.2,26.891z M78.952,28.136l87.39,0.096l-4.916,8.055c-2.943-0.907-4.584,0.441-4.996,3.26
            c0,0-0.364-0.157-1.047-0.23c-4.307-0.466-4.851,5.205-0.83,5.89c1.026,0.175,1.2-0.029,1.2-0.029
            c-3.587,3.01-5.623,0.979-7.311-0.015c-0.046,0.352-3.214,2.73-6.202-0.115c4.279,0.428,4.945-3.856,2.899-5.486
            c-0.428-0.42-0.864-0.748-0.864-0.748c1.007-0.877,1.227-2.041,0.581-3.375c-1.298-2.682-5.364-2.524-5.985,0.403
            c-0.242,1.14-0.25,1.339-0.25,1.339c-3.284,0.215-3.951,3.312-2.822,5.031c0.642,0.977,2.053,1.188,3.355,1.123
            c-1.756,2.485-5.775,1.639-7.565-0.408c-2.844,3.34-6.086,2.934-7.704,1.143c1.1-0.012,1.857-0.028,2.866-0.96
            c1.726-1.595,0.878-4.422-1.561-5.213c-0.473-0.153-0.813-0.186-0.84-0.188c0.018-0.024,0.063-0.181,0.168-1.032
            c0.606-4.931-6.786-4.443-6.072,0.408c0.083,0.562,0.235,0.864,0.235,0.864s-0.784-0.044-1.233,0.163
            c-4.105,1.892-1.276,7.1,1.896,5.76c0.301-0.127,1.119-0.528,1.238-0.523c-3.93,4.869-7.229,1.418-8.098,0.889
            c-2.654,3.934-7.264,1.25-7.358,0.975c0.287,0.079,1.151-0.099,1.973-0.519c2.597-1.353,1.862-4.834-0.163-5.592
            c-0.621-0.217-1.37-0.239-2.213-0.173c0,0,0.063-0.877-0.02-1.186c-1.276-4.741-7.178-2.374-5.727,1.632
            c0.128,0.351,0.471,0.705,0.471,0.705s-0.8,0.485-1.157,0.807c-2.816,2.532,0.05,6.71,3.341,4.973
            c0.425-0.224,0.837-0.695,0.955-0.667c-1.548,2.827-3.897,3.814-7.248,1.474c-2.066,3.273-5.438,1.914-6.389,0.273
            c3.15,0.288,5.196-5.746-0.859-5.942c-0.471-1.639-0.447-4.136-4.286-3.705L78.952,28.136z M121.629,38.49
            c0.693,0,1.253,0.564,1.253,1.258s-0.56,1.258-1.253,1.258s-1.258-0.564-1.258-1.258S120.936,38.49,121.629,38.49z M141.156,38.639
            c0.735,0,1.33,0.6,1.33,1.334c0,0.735-0.595,1.33-1.33,1.33c-0.734,0-1.329-0.595-1.329-1.33
            C139.826,39.239,140.421,38.639,141.156,38.639z M102.88,40.093c0.709,0,1.282,0.573,1.282,1.281c0,0.709-0.573,1.287-1.282,1.287
            c-0.708,0-1.286-0.578-1.286-1.287C101.594,40.666,102.172,40.093,102.88,40.093z M157.711,41.672l-1.113,1.978
            C155.369,42.573,156.216,41.161,157.711,41.672z M87.592,44.399l-1.106-2.045C88.467,42.488,87.883,43.906,87.592,44.399z
            M121.466,43.285c7.5,8.545,14.226,6.017,18.624,0.336c1.887,4.842,6.091,8.19,13.325,4.935c-0.438,0.773-1.536,2.141-1.536,2.141
            c-6.394,1.722-9.566-1.287-12.033-4.152c-6.505,5.399-12.63,4.091-17.684-0.672c-4.313,5.431-11.299,6.598-17.765,2.165
            c-2.956,4.362-7.196,6.124-12.528,3.94c0,0-1.132-1.778-1.229-1.891c0.772,0.647,10.592,4.724,12.989-5.079
            C107.047,50.809,118.255,51.117,121.466,43.285z M122.22,46.799c8.437,7.888,17.289,1.066,17.515,0.585
            c0.133,0.438,4.948,6.188,11.891,4.027l-1.129,1.935c-13.062-2.21-25.079-3.63-52.599,0.418c0,0,4.393-1.301,6.614-4.806
            C105.749,49.762,115.296,55.091,122.22,46.799z M92.652,53.336c0,0,3.672,0.431,3.96,0.504c0.322,0.25-3.092,1.188-3.105,1.118
            L92.652,53.336z M100.096,90.974c-0.222,0.007-0.499,0.257-0.96,0.71c-0.995,0.98-1.222,1.109-2.188,1.248
            c-0.729,0.104-2.268,0.99-3.201,1.843c-0.253,0.23-0.734,0.424-1.311,0.523c-0.501,0.087-1.189,0.206-1.531,0.264
            c-0.342,0.059-0.713,0.167-0.826,0.235c-0.49,0.299-1.288,0.345-2.184,0.13c-0.863-0.207-1.002-0.202-1.954,0.091
            c-1.386,0.427-2.293,0.428-2.976,0c-0.682-0.427-1.766-0.587-2.453-0.364c-1.017,0.328-3.648-1.248-3.643-2.18
            c0.001-0.211-1.496-1.332-1.872-1.334c-1.335-0.198-13.059,4.431-12.999,4.699c14.396,17.78,26.515,44.87,17.386,78.02
            l-1.612-0.772c1.354-6.025,1.892-12.09,2.309-18.25c-27.021-11.666-29.348-38.794-18.859-55.92L59.44,98.02
            c-6.354,3.392-12.812,5.316-28.521,18.495l0.044,21.331C31,157.13,30.99,175.919,30.99,175.919
            c5.685,0.63,11.945,1.145,18.12,1.676c0,0-0.079,19.071-0.221,26.529c-0.12,6.31,0.115,5.914,0.115,5.914l20.448,10.781
            c-1.438-5.679,2.109-7.935,5.078-7.698c-1.312-5.475,1.945-7.981,5.664-7.278c2.512,0.475,3.392,1.86,4.829,6.437
            c0.233,0.744,0.555,1.739,0.555,1.739l1.434-0.053c1.793-3.853,2.991-8.754,7.213-9.39c5.523-0.832,7.581,2.964,7.578,6.758
            c5.353-4.716,11.764-1.065,11.348,5.98c2.692-1.731,7.256-3.296,10.131,3.379c1.081-0.228,1.632-1.432,3.151-1.809
            c0.569-0.119,1.858-0.812,1.858-0.812l0.016-0.231c0,0,1.194-0.413,2.797-0.676c1.375,0.513,0.974,0.495,1.714-0.418
            c0.825-0.423,2.164-0.702,3.196-0.609c1.083,0.097,1.564,0.176,2.198-0.101c0.988-0.432,1.911-0.541,2.496,0.11
            c0.421,0.468,1.028,0.242,1.681,0.216c1.305-0.052,3.043,0.483,3.585,1.656c0.8,0.815,2.549,1.642,2.549,1.642l1.416-0.326
            l0.164-0.523l11.582-4.421c-23.618-25.86-23.002-60.169-17.438-77.535l2.136,1.027c-1.133,5.146-2.418,10.433-2.251,18.105
            c21.269,9.483,31.85,33.993,18.955,55.388l1.363,1.762c5.364-2.251,18.857-9.827,23.521-13.944l0.993,0.082
            c0,0,2.828-1.831,4.075-2.808l0.168-56.775l-0.988,0.26l-0.178-3.317l-17.535-1.392c0.224-0.167,0.392-0.234,0.442-0.566
            l-0.101-31.431c-0.651-0.996-15.338-9.599-20.799-11.611c-0.219-0.002-0.068,0.368,0.01,1.267c0.268,3.083-1.813,5.827-4.225,5.832
            c-0.867,0.002-1.018,0.371-0.975,2.142c0.062,2.517-0.848,4.208-3.499,5.164c-3.143,1.134-5.269-0.51-7.018-6.974
            c-0.459-1.698-1.357-1.273-2.218,1.046c-0.427,1.151-1.81,3.946-2.635,5.419c-0.637,1.133-1.643,1.635-3.01,2.237
            c-1.066,0.527-3.374,0.436-4.704-0.24c-2.411-1.225-3.347-2.696-4.042-6.341c-0.091-0.477-0.403-0.436-1.186,0.153
            c-4.257,3.208-10.244-0.108-10.209-5.654c0.01-1.628-0.057-1.692-1.014-0.912c-2.887,2.357-6.81,1.162-8.381-2.554
            C100.578,91.352,100.382,90.964,100.096,90.974L100.096,90.974z M75.626,92.942c0.301-0.014,1.238,1.233,1.238,1.233
            c0.864,0.956,2.026,1.44,3.235,2.15c0.112-0.169,14.096,18.598,16.474,44.473l6.504,0.033
            c-1.213-25.142-8.147-37.226-11.328-44.981l2.333-0.739c5.23,10.023,11.606,30.365,11.395,48.174H94.735
            c-1.517-17.838-8.453-35.229-18.153-48.423c-0.676-1.014-1.204-1.721-1.008-1.901C75.587,92.948,75.606,92.943,75.626,92.942z
            M71.512,95.596l1.09,3.417c0,0,0.131-0.797,0.466-1.099c2.122-1.913,4.153,0.605,3.196,4.022
            c-0.218,1.052-0.643,3.125-0.643,3.125s-2.133-1.094-3.207-1.445c-2.96-1.257-3.946-3.736-1.685-4.018
            c0.379-0.047,1.157-0.081,1.157-0.081c-0.94-0.739-3.015-2.429-3.015-2.429L71.512,95.596z M81.448,95.98
            c0.894,0.508,3.201,1.055,4.526,0.557c1.071-0.402,1.886-0.182,3-0.086c0.639,0.055,1.91-0.226,1.91-0.226
            c6.36,13.379,10.734,29.254,11.463,43.771l-5.002,0.028c-1.888-15.422-7.857-31.09-15.432-42.71
            C81.578,96.808,81.133,95.998,81.448,95.98L81.448,95.98z M102.343,96.21c1.937,0.023,3.963,1.953,5.063,5.112
            c0.613,1.759,0.854,1.652,1.676,1.368c2.112-0.725,4.362,1.596,1.531,1.982c-2.779,0.459-1.193,5.896-1.431,6.374
            c-1.126,0.197-3.242-4.424-3.188-5.799c0.136-3.369-3.029-6.187-4.996-4.771c-0.933,0.671-0.831,1.144-1.119,0.902
            c-0.885-0.744-1.064-2.794-0.028-3.955C100.6,96.585,101.462,96.199,102.343,96.21z M159.876,97.372c0,0,0.109,4.431-0.058,5.409
            c-0.33,2.954-4.188,3.265-4.34,0.902c-0.63,0.944-1.063,2.118-1.314,3.173l-2.736-1.882c1.039-0.745,2.03-1.4,2.799-2.323
            c-2.029,0.154-3.162-1.602-1.805-3.096C153.929,97.844,158.098,97.659,159.876,97.372z M59.277,98.774l1.21,1.363
            c-10.781,19.109-6.979,43.537,19.042,56.371c-0.173,5.863-0.924,11.793-2.323,17.295l-9.601-4.656
            c0.064-21.605-12.169-42.203-31.699-55.743C42.992,107.71,50.832,102.708,59.277,98.774z M137.882,98.937
            c0.458,2.522,2.847,7.092,3.02,6.83c-0.025-0.149-9.941,12.702-14.251,34.195l-3.682,0.015
            C125.382,125.655,130.198,112.141,137.882,98.937z M168.445,99.536l1.958,1.186c-10.275,8.604-17.043,19.511-22.013,31.272
            l-2.597-1.229C153.499,113.703,161.113,106.126,168.445,99.536z M171.185,101.443c0.538,0.034,1.176,0.715,2.165,1.257
            c0.967,0.531,0.727,0.812-1.095,2.208c-2.153,1.651-2.355,1.578-2.337-0.777c0.012-1.562,0.406-2.604,1.161-2.683
            C171.115,101.444,171.149,101.44,171.185,101.443z M168.819,103.871c0.113-0.006,0.205,0.031,0.264,0.125
            c0.158,0.623,0.142,2.051-0.11,3.46c-0.203,0.929-2.965,3.26-3.95,4.182c-0.395,0.259-0.575,0.164-0.648-0.298
            c0.031-0.731,0.103-1.706,0.115-2.698c0.004-0.305-0.06-0.625,0.217-0.858C166.059,106.186,168.029,103.913,168.819,103.871z
            M173.949,104.629c0.017,0.001,0.027,0.003,0.039,0.01c0.255,0.153,0.213,3.355,0.033,3.566c-0.801,0.207-2.956-0.132-3.509-0.427
            C170.392,107.406,173.434,104.609,173.949,104.629z M77.695,105.666l0.749,3.14c0,0,0.215-0.422,0.269-0.504
            c1.488-2.276,3.299-0.942,3.269,2.217c-0.01,0.998-0.916,4.987-0.916,4.987s-5.586-2.682-6.024-3.859
            c-0.432-1.157,0.182-2.177,1.21-2.27c0.384-0.044,0.787-0.076,1.229,0l-2.4-2.453L77.695,105.666z M141.641,106.084l2.534,0.936
            c-5.285,8.598-10.739,17.09-14.712,36.456h-10.622c1.485-11.836,4.496-23.471,9.868-34.795c0,0,2.086-0.641,3.265-1.022
            c0,0-8.78,20.089-9.802,33.005l5.131,0.11C130.041,128.188,135.166,115.143,141.641,106.084z M121.529,106.396
            c1.428-0.053,2.48,0.951,2.4,2.731c-0.019,1.628-0.167,1.865-1.32,1.214c-1.514-0.854-2.71-0.872-4.065,0.097
            c-0.746,0.533-1.479,0.975-1.479,0.975s0.654-2.829,1.656-3.721C119.68,106.838,120.672,106.428,121.529,106.396z M116.08,110.581
            c-0.103,0.957-0.385,1.396-0.638,2.213c0,0,0.831-0.323,1.229-0.509c1.888-0.88,3.854,0.75,3.825,2.659
            c0.085,1.273-1.299,2.8-2.947,2.813c-0.574,0.004-1.184-0.177-1.771-0.615c0.426,2.334,0.511,3.413-1.195,4.584
            c-1.428,0.95-4.437-0.136-4.268-2.745l0.105-1.608l-1.444,0.188c-4.036,0.165-4.106-4.802-0.85-5.582
            c1.3-0.308,2.712,0.758,2.712,0.758c-0.619-1.218-0.631-3.313,0.201-4.281C113.09,106.073,116.333,108.239,116.08,110.581
            L116.08,110.581z M151.318,107.481c0.221,1.859,0.959,3.886,0.749,5.621c-0.314,2.217-2.2,3.53-3.682,2.093
            c-0.183-0.178-0.514-0.548-0.514-0.548c-0.668,0.847-1.085,3.24-1.085,3.24l-2.616-1.612c0,0,1.816-1.275,2.318-2.002
            c0.141-0.202,0.207-0.586,0.207-0.586c-1.456,0.455-2.691-1.033-2.295-2.347C145.189,109.189,149.104,108.391,151.318,107.481z
            M169.601,108.824c0.979-0.03,2.495,0.247,3.691,0.375c0.921,0.16,0.41,0.68-1.651,2.688c-1.893,1.845-1.834,1.671-3.293,1.646
            c-3.407-0.058-4.004,0.02-2.021-2.121c1.039-1.122,1.947-2.136,2.692-2.511C169.178,108.856,169.375,108.831,169.601,108.824z
            M163.457,109.213c0.043,0.002,0.078,0.019,0.11,0.049c0.226,0.21,0.149,1.171,0.124,2.592c-0.025,1.512-0.009,1.513-0.643,2.304
            c-0.807,1.011-1.477,2.042-2.318,3.015c-0.729,0.791-0.706,0.706-1.143-1.195c-0.423-1.845-0.188-2.419,2.188-5.093
            C162.581,109.852,163.155,109.2,163.457,109.213z M174.099,110.265l0.028,3.739c-7.031,6.875-11.809,14.608-15.058,23.131
            l-2.448-0.974C160.863,125.272,167.211,116.78,174.099,110.265L174.099,110.265z M113.148,112.526c-1.162,0-2.103,0.94-2.103,2.103
            s0.94,2.107,2.103,2.107s2.107-0.945,2.107-2.107S114.31,112.526,113.148,112.526z M113.133,113.188
            c0.803,0,1.455,0.652,1.455,1.455c0,0.802-0.652,1.454-1.455,1.454c-0.802,0-1.449-0.652-1.449-1.454
            C111.684,113.84,112.331,113.188,113.133,113.188z M35.018,114.076C56.95,128.148,66.784,149.961,66.74,168.7l-1.238-0.557
            c-1.283-26.479-15.677-42.76-31.233-53.295L35.018,114.076z M164.868,114.278c0.496,0.002,1.172,0.079,2.15,0.192
            c1.815,0.097,2.038,0.211,0.787,1.646c-0.343,0.393-1,1.215-1.464,1.833c-0.464,0.619-1.028,1.265-1.287,1.354
            c-0.381,0.132-3.568-0.019-4.479-0.144c-0.298-0.041,0.094-0.346,1.646-2.563c1.19-1.7,1.317-2.263,2.443-2.313
            C164.731,114.28,164.797,114.278,164.868,114.278L164.868,114.278z M174.002,114.997c0,0,0.436,12.069,0.12,19.767
            c-5.003-0.185-7.941,1.714-9.163,5.309l-5.256-2.602C163.56,127.567,168.717,120.674,174.002,114.997z M158.518,115.276
            c0.284,0.005,0.446,0.593,0.527,1.752c0.331,2.075,0.295,2.316-0.57,3.648c-0.432,0.663-1.022,1.6-1.311,2.083
            c-0.502,0.845-0.859,1.096-0.984,0.687c-0.685-2.238-0.9-3.624-0.657-4.075c0.399-0.742,2.266-3.395,2.529-3.739
            C158.235,115.392,158.388,115.274,158.518,115.276z M33.405,115.501c17.631,10.916,30.528,29.559,31.062,52.081
            c0,0-3.758-1.764-6.077-3.053l-0.12-2.189l1.224-0.038l0.395,2.467l2.692-0.086l-0.715-6.158l-4.215,0.398l-0.85-3.49l1.276-0.273
            l0.706,2.251l2.741-0.725l-1.46-5.486l-4.233,1.157l-1.354-3.706l1.406-0.504l1.138,2.218l2.578-0.897l-2.434-5.501l-3.894,1.838
            l-1.978-3.59l1.521-0.812l1.225,2.136l2.409-1.248l-2.98-5.059l-3.696,2.063l-1.857-2.784l1.147-0.801l1.267,1.464l2.117-1.498
            l-3.245-4.363l-3.537,2.77l-2.616-3.028l1.205-1.022l1.8,1.612l2.011-1.757l-3.854-4.204l-3.37,3.071l-2.511-2.179l1.229-1.358
            l1.564,1.195l1.666-1.973l-4.195-3.456l-3.145,3.11l-3.014-1.992v-1.483c0.979,0.378,2.015,0.817,2.942,1.311l1.56-2.361
            l-4.502-3.039L33.405,115.501z M82.504,116.433l0.667,3.85c0.633-1.047,1.137-1.768,2.506-1.363
            c1.645,0.67,1.667,3.146,0.273,6.937c-0.258,0.702-0.576,1.31-0.576,1.31s-0.721-0.299-1.199-0.629
            c-1.007-0.688-2.701-1.466-3.566-2.832c-0.907-1.43-0.927-3.43,0.739-3.259c0.331,0.002,0.983,0.158,0.983,0.158l-2.501-3.187
            L82.504,116.433z M32.436,117.58l3.053,1.968l-0.634,1.152l-2.419-1.09V117.58z M108.972,118.488
            c0.884,1.236-2.229,4.88,1.843,6.336c0,0,0.101,0.839-0.749,1.349c-1.991,1.448-4.853-1.196-3.965-3.917
            C106.669,120.515,108.309,118.497,108.972,118.488z M117.42,118.603c0,0,1.228,0.896,1.474,1.133
            c2.267,2.173,2.288,5.289,0.234,6.379c-1.365,0.725-2.91,0.141-3.446-0.912c-0.248-0.487,0.16-0.997,0.682-0.993
            c0.979,0.006,1.725-1.868,1.436-3.841C117.684,119.587,117.42,118.603,117.42,118.603z M144.165,119.327
            c0,0,0.271,2.664,0.658,3.845c1.19,3.312-0.331,5.328-2.554,4.219c-0.317-0.158-0.879-0.878-0.879-0.878l-0.221,3.807l-3.163-0.922
            c0.685-1.1,1.669-1.882,2.405-3.12c0,0-0.474-0.017-0.889-0.02c-1.89,0.065-2.586-2.029-0.604-3.753
            C140.395,121.232,144.165,119.327,144.165,119.327z M160.701,120.21c0.383-0.003,0.86,0.028,1.518,0.029
            c2.006,0.002,2.521-0.271,1.637,0.979c-0.346,0.487-1.187,1.843-1.436,2.305c-0.506,0.937-0.607,1.231-1.449,1.416
            c-1.221,0.241-2.604,0.074-3.999,0.139c-0.303-0.015,0.32-1.054,0.667-1.699c0.852-1.582,1.371-2.667,2.103-3
            C160.03,120.247,160.319,120.213,160.701,120.21z M154.5,121.435c0.242-0.014,0.422,0.421,0.652,1.319
            c0.539,2.097,0.678,2.148-0.191,3.869c-0.439,0.868-1.186,2.339-1.493,2.947c-0.788,1.561-0.833,1.546-1.329,0.148
            c-0.953-2.68-1.036-2.403,0.537-5.414C153.658,122.425,154.146,121.453,154.5,121.435z M38.81,122.169l2.837,2.274l-0.807,0.783
            l-1.569-1.157l-2.318,2.481l3.811,3.476l3.227-3.178l2.764,2.89l-0.844,0.715l-1.623-1.564l-2.429,2.073l3.624,4.282l3.652-2.784
            l2.29,3l-0.936,0.586l-1.493-1.45l-2.376,1.646l2.957,4.167l3.725-2.137l2.116,3.48l-1.176,0.566l-1.2-1.91l-2.673,1.54
            l2.524,4.872l4.022-1.68l1.617,3.72l-1.229,0.499l-1.032-2.236l-2.707,1.07l1.814,5.117l4.08-1.172l0.989,3.802l-1.258,0.351
            l-0.619-2.107l-2.597,0.624l1.084,5.137l4.152-0.265l0.494,4.152l-1.291,0.058l-0.321-2.477l-2.645,0.033
            c0.014,0.873,0.115,2.654,0.115,2.654l-1.599-0.739c-2.375-15.788-10.845-28.946-23.463-38.107l-0.066-1.887l3.071,1.949
            C35.507,125.318,38.324,122.808,38.81,122.169z M160.006,125.851c0.88-0.007,0.49,0.676-0.581,2.717
            c-1.196,2.276-1.408,2.324-3.648,2.87c-2.724,0.664-2.644,0.812-1.171-2.328c0.568-1.211,0.982-2.271,1.502-2.674
            c0.684-0.528,2.006-0.325,3.442-0.542C159.729,125.866,159.88,125.852,160.006,125.851z M32.584,126.523
            c13.104,8.454,21.388,25.94,22.416,36.542c0,0-0.354-0.237-1.07-0.566c-0.993-0.456-1.237-0.754-1.526-2.198
            c-2.596-12.964-9.914-23.966-19.762-31.732L32.584,126.523z M150.756,128.688c0.555-0.116,1.564,3.864,1.263,4.699
            c-0.218,0.6-2.167-0.817-2.876-1.119C148.788,132.117,150.381,128.765,150.756,128.688z M87.564,128.869l-0.062,4.128
            c0,0,0.497-0.59,0.754-0.777c0.975-0.711,2.464,0.274,2.52,1.493c0.078,1.689-0.177,2.376-1.531,4.723
            c-0.419,0.727-1.051,1.651-1.051,1.651s-1.599-1.14-3.346-2.88c-1.889-1.881-1.528-4.394,0.125-4.401
            c0.494-0.004,0.935,0.164,1.367,0.302c-0.356-1.216-1.685-3.575-1.685-3.575L87.564,128.869z M138.784,131.961
            c0,0,0.855,1.126,1.839,4.089c0.938,2.83-0.507,4.96-2.468,3.894c-0.351-0.191-0.72-0.605-0.72-0.605
            c-0.138,1.372,0.106,3.84,0.14,3.859l-3.163-0.552c0,0,1.737-2.759,1.862-3.441c0,0-0.196,0.154-1.066,0.153
            c-3.178-0.002-2.519-3.782,1.152-5.88C136.912,133.162,138.784,131.961,138.784,131.961z M157.006,132.009
            c0.688-0.031,0.362,0.635-0.398,2.188c-0.842,1.719-0.631,1.569-2.41,0.663c-2.487-1.216-2.341-1.405,0.812-2.257
            C156.005,132.236,156.646,132.025,157.006,132.009L157.006,132.009z M111.895,132.513c2.491,0.015,4.329,2.473,3.96,5.967
            c-0.633,5.997-0.269,5.627,0.384,6.226c1.19,1.09-0.421,1.744-1.838,0.705c-0.987-0.724-1.309-1.438-1.263-4.747
            c0.053-3.804-0.152-4.772-1.512-4.44c-0.849,0.208-1.116,0.93-1.022,3.495c0.132,3.6-0.106,4.507-1.474,5.659
            c-1.475,1.141-3.064,0.123-1.719-0.629c0.616-0.692,0.731-1.573,0.495-3.749C107.647,139.146,106.566,132.481,111.895,132.513z
            M173.485,135.537c0.312-0.007,0.628-0.003,0.945,0.009c4.793,0.181,16.915,1.167,16.915,1.167l0.105,3.581
            c-0.541,0.333-9.588-1.047-16.243-0.922c-1.556,0.029-2.657,0.716-3.782,0.139c1.08,0.448,0.981,5.85-3.777,4.541
            c-4.036-1.451-2.069-6.907,3.091-8.285C171.626,135.647,172.545,135.555,173.485,135.537z M146.811,137.937l10.358,5.107
            c1.45,19.446,8.163,39.991,31.027,55.565c-3.704,2.65-12.996,9.159-23.616,13.617l-0.869-0.931
            c12.609-21.443,3.083-45.047-18.998-55.729C144.773,149.615,145.52,143.744,146.811,137.937L146.811,137.937z M183.247,141.197
            c1.986-0.078,2.503,0.15,2.674,1.051c0.161,0.851,0.792,1.051,1.541,0.777c1.823-0.664,2.936,2.569,1.425,4.004
            c-0.938,0.891-0.773,1.233-0.004,1.238c1.903,0.012,1.848,2.504-0.087,3.917c-0.803,0.586-0.792,0.853,0.048,1.267
            c1.407,0.694,1.124,2.067-0.662,3.197c-0.972,0.614-1.004,0.766-0.201,0.983c2.02,0.551-0.042,3.43-2.252,2.919
            c-0.906-0.21-1.77-0.014-2.635,0.552c-2.367,0.986-2.764,1.182-5.318,0.864c-2.244-0.412-3.247-1.15-3.826-3.12
            c-1.315-4.006-2.735-8.442-2.75-12.816c-0.198-2.685,4.302-5.112,6.434-5.217C179.369,140.551,181.361,141.179,183.247,141.197
            L183.247,141.197z M41.565,141.263c2.381,0,4.311,1.931,4.311,4.311c0,2.381-1.93,4.311-4.311,4.311
            c-2.38,0-4.311-1.93-4.311-4.311C37.254,143.194,39.185,141.263,41.565,141.263z M89.469,142.531l-0.389,3.769
            c0,0,0.634-0.495,0.782-0.62c1.121-0.937,2.894,0.111,2.491,1.57c-0.131,1.285-2.351,5.107-3.235,5.908c0,0-3.56-3.878-3.94-4.637
            c-0.847-1.686,0.31-3.442,1.848-2.697c0.22,0.106,0.854,0.576,0.854,0.576l-1.128-3.576L89.469,142.531z M41.853,142.833
            c-1.523,0.052-2.97,0.986-2.774,2.231c0.13,0.532,0.942-0.235,1.742-0.739c0.613-0.385,1.352-0.446,2.05-0.144
            c0.62,0.221,0.885,0.791,1.243,1.233c0.305,0.373,0.638,0.678,0.826,0.494c0.16-0.197,0.095-0.444,0.053-0.667
            C44.664,143.545,43.26,142.79,41.853,142.833z M157.932,143.418l1.541,0.788c2.074,27.481,15.971,43.638,30.571,53.261
            l-1.161,0.701C170.964,186.689,158.524,166.121,157.932,143.418z M160.265,144.546c0,0,3.869,1.98,5.895,2.895l0.077,2.486
            l-1.354,0.049l-0.46-2.338l-2.813,0.201l0.879,5.751l4.536-0.557l0.633,3.475l-1.535,0.322l-0.787-2.137l-2.603,0.634l1.686,5.587
            l4.089-1.319l1.282,3.652l-1.373,0.499l-0.878-2.141l-2.693,0.941l2.083,5.452l4.258-1.367l1.719,3.412l-1.291,0.571l-1.234-2.116
            l-2.554,1.305l2.996,5.094l3.845-2.017l1.795,2.722l-1.411,0.945l-1.281-1.665l-2.069,1.363l3.312,4.521l3.312-2.481l2.477,2.855
            l-1.094,0.97l-1.689-1.714l-2.002,1.786l3.945,4.329l3.428-2.976l2.434,2.266l-0.721,0.759l-1.637-1.022l-2.169,2.304l4.142,3.604
            l3.288-3.604l2.789,2.055v1.517l-2.491-1.263l-1.67,2.516l4.161,3.148l-0.028,1.238
            C167.727,182.881,161.476,160.898,160.265,144.546L160.265,144.546z M111.626,144.821c1.027-0.031,2.111,0.935,3.902,3.009
            c5.006,5.8,3.67,14.771-2.875,19.45c-0.954,0.682-1.337,0.621-2.501-0.379c-6.714-5.769-7.101-13.481-1.123-20.257
            C110.063,145.474,110.827,144.845,111.626,144.821z M135.621,145.617c1.234,1.892,2.793,3.839,2.972,6.139
            c-0.089,2.272-1.621,2.691-3.207,1.368c-0.2,1.193,0.48,3.519,0.48,3.519l-2.87-0.308c0,0,1.125-1.967,1.171-3.196
            c-1.993,1.388-3.516-0.422-3.245-1.882C131.492,148.775,133.532,147.1,135.621,145.617z M111.712,147.1
            c-0.235,0.02-0.479,0.18-0.854,0.48c-1.748,1.402-3.122,3.146-3.835,4.958c-1.505,3.823-0.522,8.134,2.87,11.478
            c1.725,1.698,2.331,1.582,4.974-1.93c2.213-2.941,2.673-6.741,1.31-10.042c-0.665-1.61-1.87-3.181-3.316-4.32
            C112.304,147.286,112.015,147.076,111.712,147.1z M166.932,147.806l2.228,1.095c2.841,18.741,12.052,30.175,22.373,38.06
            l-0.02,1.737l-2.77-2.146l-3.316,3.47l-2.688-2.203l1.008-0.979l1.531,0.974l1.959-2.193l-3.854-3.437l-3.36,2.913l-2.799-2.88
            l0.85-0.71l1.935,1.689l2.165-1.92l-3.744-4.2l-3.351,2.539l-2.337-3.101l1.018-0.604l1.224,1.68l2.583-1.608l-2.731-4.199
            l-3.894,1.996l-1.991-3.59l1.133-0.543l1.291,2.017l2.424-1.167l-2.438-4.953l-3.979,1.314l-1.464-3.897l1.138-0.417l1.003,2.304
            l2.693-0.864l-1.829-5.333l-4.113,1.162l-1.018-3.922l1.271-0.273l0.667,2.117l2.828-0.566l-1.037-5.079l-4.21,0.533
            c-0.14-0.863-0.761-3.188-0.749-4.065l1.297-0.105l0.407,2.236l2.832-0.096L166.932,147.806z M111.862,148.214
            c1.543,0.211,3.428,3.183,3.854,4.262c0.812,2.135,0.881,4.607,0.139,6.523c-0.607,1.567-2.423,4.348-3.576,5.132
            c-0.931,0.504-1.709,0.13-3.038-1.676c-2.626-3.568-3.134-7.859-1.061-10.8C109.763,149.41,110.937,148.212,111.862,148.214
            L111.862,148.214z M169.918,149.14l1.118,0.528c1.373,10.86,7.81,25.765,20.477,34.681v1.363
            C181.661,178.641,172.617,166.447,169.918,149.14z M111.664,149.88c-4.411,3.324-3.705,8.53-0.364,12.037
            C114.901,159.535,116.173,153.101,111.664,149.88z M44.344,150.1c2.488-0.058,4.066,0.81,4.824,2.535
            c1.177,2.679,1.337,3.188,1.579,4.594c0.138,0.803,0.352,2.016,0.471,2.692c1.292,7.281,0.341,10.024-4.08,11.16
            c-1.319,0.339-3.159,0.448-4.445,0.139c-0.337-0.081-1.572-0.088-2.544-0.119c-1.928-0.062-2.517-0.267-3.484-1.052
            c-0.349-0.283-0.685-0.509-1.104-0.576c-2.205-0.349-2.864-2.37-1.19-3.863c0.954-0.852,1.049-0.964,0.96-1.109
            c-0.05-0.082-0.456-0.15-0.907-0.153c-2.224-0.014-2.2-2.302,0.039-3.937c1.064-0.776,1.544-1.509,0.84-1.329
            c-2.027,0.479-2.743-2.485-0.624-3.404c1.129-0.632,1.938-1.159,0.85-1.219c-0.914,0.079-1.658-0.595-1.379-1.391
            c0.339-0.964,2.195-1.841,3.266-1.513c0.836,0.256,1.651,0.49,2.174,0.115c1.269-0.912,1.836-1.323,2.929-1.469
            C43.149,150.116,43.812,150.098,44.344,150.1L44.344,150.1z M118.298,150.657l10.225,0.196l-0.303,10.027l-9.629-0.183
            C118.591,160.698,120.701,156.219,118.298,150.657L118.298,150.657z M95.388,150.888l9.792,0.119
            c-1.613,3.779-1.012,7.662-0.418,9.85l-9.586-0.148L95.388,150.888z M111.741,150.902c2.631,1.533,3.354,7.115-0.3,9.985
            C107.963,157.312,108.659,152.96,111.741,150.902z M87.582,155.26l2.626,0.245l-0.936,3.759c0,0,0.423-0.446,0.562-0.49
            c3.372-1.584,3.614,2.006,0.182,5.247c-0.759,0.714-1.978,1.694-1.978,1.694s-0.955-1.445-1.713-2.751
            c-0.862-1.312-1.448-2.719-1.301-3.466c0.214-1.083,1.517-1.799,2.347-1.137c0.409,0.325,0.884,0.82,0.884,0.82L87.582,155.26z
            M134.46,158.016c0,0,1.101,1.129,1.771,1.862c2.318,2.536,2.717,4.909,1.541,5.63c-1.009,0.462-1.636,0.146-2.448-0.514
            c0.169,1.572,1.418,3.894,1.388,3.898l-3.461,0.557c0,0,0.854-3.149,0.782-4.34c0,0-0.711,0.547-1.027,0.682
            c-2.259,0.825-3.379-1.741-1.521-4.301C133.042,159.344,134.46,158.016,134.46,158.016L134.46,158.016z M181.736,162.768
            c2.322,0,4.205,1.882,4.205,4.204s-1.883,4.205-4.205,4.205s-4.205-1.883-4.205-4.205S179.413,162.768,181.736,162.768z
            M183.809,164.693c-0.181,0.041-0.329,0.458-0.351,1.377c-0.209,1.887-1.778,2.646-3.494,1.771
            c-0.693-0.354-1.284-0.877-1.286-0.475c-0.002,0.215,0.555,1.339,0.95,1.723c1.454,1.308,4.996,0.998,4.915-2.05
            C184.505,165.605,184.112,164.624,183.809,164.693z M107.464,166.272c0.457-0.031,1.036,0.158,1.407,0.542
            c1.149,0.785,1.367,1.788,1.439,5.573c0.064,3.339-0.004,3.42,0.547,3.825c1.349,0.992,2.162-0.52,1.776-3.902
            c-0.371-3.257,0.802-5.623,2.77-5.611c0.969,0.006,1.148,0.575,0.413,1.301c-0.776,0.767-0.964,1.702-0.72,3.586
            c0.623,4.826,0.084,7.195-1.944,8.175c-2.116,1.021-4.837-0.152-5.313-2.823c-0.306-1.781-0.304-3.894-0.092-5.885
            c0.038-2.093-0.01-2.332-0.739-3.532C106.492,166.714,106.877,166.312,107.464,166.272z M54.261,167.836
            c1.17-0.002,2.384,0.676,3.11,2.175c1.752,3.617-2.043,6.592-5.525,6.825c-6.043,0.09-13.225-0.781-19.291-1.589l0.097-3.417
            c5.566,0.321,11.843,0.773,18.604,1.089C50.486,169.741,52.312,167.841,54.261,167.836L54.261,167.836z M86.047,168.537
            l3.364,0.744l-2.141,3.499c0.635-0.275,1.074-0.467,1.709-0.235c1.37,0.494,1.389,2.231,0.384,3.854
            c-0.795,1.179-3.03,2.587-4.556,3.451c-0.856-1.84-2.75-5.061-1.996-6.82c0.399-0.935,1.507-1.39,2.539-0.879
            c0.341,0.204,0.993,0.537,0.993,0.537L86.047,168.537z M94,168.633l10.253,0.12c-1.49,10.366-4.406,24.208-10.152,35.491
            l-2.414,0.624c5.067-11.211,8.438-21.726,10.013-33.48h-5.126c-2.949,12.616-7.312,24.308-14.021,34.465l-2.98-0.97
            C86.74,193.518,92.42,180.834,94,168.633z M117.386,168.816h11.429c2.103,21.106,9.234,35.513,19.849,49.762
            c0,0-0.67,0.15-1.065-0.02c-1.101-1.373-2.109-2.213-3.759-2.635c-8.921-12.844-14.906-30.799-16.349-44.535h-6.797
            c0.773,17.252,5.553,31.397,11.913,45.097l-3.451,0.634C124.048,204.859,118.448,194.189,117.386,168.816z M135.17,171.422
            c0.94,0.728,1.957,1.442,2.914,2.136c2.573,1.806,2.539,5.219,0.038,5.203c-0.266-0.001-0.883-0.038-0.883-0.038
            s1.021,2.237,1.665,3.369c-1.042,0.278-3.221,0.687-3.221,0.687s0.312-2.197,0.25-4.018c0,0-0.418,0.467-0.764,0.629
            c-1.66,0.693-3.063-0.755-2.855-2.467C132.594,174.613,135.17,171.422,135.17,171.422z M58.816,171.835l5.626,2.793
            c-3.834,8.727-8.224,16.896-14.573,23.107l0.163-20.165C53.498,177.47,57.053,177.439,58.816,171.835z M97.283,172.152h3.461
            c-1.536,16.099-12.173,37.877-14.17,40.503l-0.657,0.494c0.039-0.021-1.362-4.937-2.957-6.706
            C88.961,198.349,95.249,182.794,97.283,172.152z M121.619,172.152h5.228c1.629,12.828,5.594,26.686,15.644,43.518
            c0,0-1.008,0.101-1.786-0.365c-1.712-1.062-2.902,0.344-3.926,0.289c-1.6-0.086-1.863-0.182-3.514,0.21
            C124.972,198.312,122.618,184.544,121.619,172.152z M65.156,175.031l1.867,0.879c-4.015,9.286-7.61,16.665-17.121,25.723
            l-0.034-2.697C56.55,192.465,61.052,183.936,65.156,175.031L65.156,175.031z M67.873,176.327c0.885,0.333,1.888,0.88,2.722,1.33
            c0.279,0.111,0.204,0.361,0.207,0.624c-0.354,0.882-1.911,1.269-2.501,1.439c-0.712,0.203-1.414,0.345-1.541,0.375
            c-0.813,0.19-0.556-0.625,0.326-2.41C67.484,176.882,67.641,176.346,67.873,176.327z M71.604,178.296
            c0.559-0.035,2.815,1.212,3.297,1.66c0.172,0.529-0.314,1.363-1.027,2.904c-1.095,2.37-1.313,2.423-1.641,0.475
            c-0.058-0.335-0.384-1.443-0.581-2.179C71.194,179.449,71.151,178.468,71.604,178.296z M75.688,180.211
            c0,0,1.312,0.637,1.738,0.917c-5.856,17.54-21.453,32.038-21.37,31.704l-2.434-1.431C64.002,202.024,71.609,190.948,75.688,180.211
            L75.688,180.211z M69.496,180.46c0.566,0.012,0.073,0.709-0.691,2.396c-0.726,1.651-0.963,2.238-1.642,2.501
            c-0.973,0.352-2.37,0.363-3.609,0.581c-0.531,0.092-0.309-0.313,0.509-1.974c0.958-1.946,1.012-2.351,2.515-2.755
            C67.447,181.073,68.615,180.453,69.496,180.46z M71.551,183.946c0.604,2.172,0.591,2.601,0.187,3.354
            c-0.758,1.415-1.748,3.066-2.021,3.514c-0.683,1.118-0.877,0.886-1.281-1.833c-0.252-1.687-0.472-2.445-0.286-3.179
            c0.341-0.831,1.356-2.79,1.931-3.936C70.903,179.422,71.343,183.729,71.551,183.946L71.551,183.946z M82.331,182.049l3.072,1.008
            l-2.41,2.909c0,0,1.012-0.182,1.129-0.135c2.417,0.161,2.016,2.563,0.144,4.018c-0.775,0.711-4.599,2.448-4.599,2.448
            c-0.409-2.15-1.253-3.523-1.051-5.731c0.142-1.188,0.247-2.261,1.704-2.294c0.766-0.041,1.076,0.742,1.574,1.373L82.331,182.049z
            M138.022,184.656c0,0,1.851,0.955,3.566,2.275c2.237,1.722,2.62,3.746,0.384,4.526c-0.259,0.091-0.993,0.053-0.993,0.053
            c0.615,1.072,2.078,2.669,2.078,2.669c-0.733,0.513-1.768,0.914-2.914,1.272c0,0-0.284-2.671-0.557-3.701
            c0,0-0.296,0.583-0.662,0.812c-2.155,1.34-3.846-1.187-2.688-4.383C136.939,186.239,138.022,184.656,138.022,184.656z
            M114.333,185.102c5.381-0.131,2.229,8.681-0.461,8.112c-0.046-0.08,2.221-5.212-0.83-6.028
            C111.642,186.811,112.849,185.084,114.333,185.102z M105.511,185.726c1.672-0.01,2.888,1.169,1.291,1.911
            c-2.514,1.167-1.017,3.964-0.96,5.549c0.035,0.969-2.238-0.846-2.722-2.813C102.496,187.828,102.785,185.944,105.511,185.726z
            M65.714,186.653c0.37-0.002,0.649,0.028,0.743,0.101c0.157,0.416-0.594,1.715-1.689,3.379c-0.583,0.887-0.833,1.135-1.19,1.345
            c-0.847,0.477-2.037,0.353-3.028,0.422c-1.479,0.019-1.219-0.011,0.417-2.558c0.731-1.139,1.193-2.069,1.628-2.367
            C62.681,186.918,64.602,186.656,65.714,186.653L65.714,186.653z M67.653,188.491c0,3.187,1.083,4.23,0.288,5.236
            c-0.972,1.565-2.213,3.279-2.664,3.821c-0.759,0.912-0.675,0.739-0.873-1.646c-0.145-1.73-0.302-2.888-0.077-3.428
            c0.65-1.562,1.423-2.309,2.228-3.97C67.184,187.167,67.653,187.391,67.653,188.491L67.653,188.491z M110.123,190.089
            c1.563,0.021,2.528,1.683,2.458,3.207l-0.067,1.459c2.02-0.774,4.526-0.021,4.637,1.958c0.188,3.358-2.285,2.969-4.377,2.827
            c0.211,0.08,0.52,3.036-0.726,4.167c-1.953,2.186-5.595-0.048-4.68-3.255c0.19-0.666,0.23-1.085,0.23-1.085
            s-1.307,0.472-1.767,0.451c-3.962-0.169-3.658-5.771,0.321-5.111c0.813,0.135,1.363,0.331,1.363,0.331s-0.086-0.354-0.221-0.854
            C106.718,192.028,107.934,190.06,110.123,190.089z M189.377,191.088l2.136,1.229v2.381l-3.038-2.246L189.377,191.088z
            M61.336,192.681c0.842-0.008,1.503,0.059,1.373,0.26c-0.003,0.425-1.844,2.986-2.934,4.156c-0.928,0.998-1.06,0.855-3.331,0.744
            c-0.891-0.044-1.474-0.05-1.449-0.288c1.047-1.371,2.488-3.138,3.484-4.612C58.871,192.822,60.254,192.692,61.336,192.681
            L61.336,192.681z M63.414,193.8c0.157-0.003,0.205,0.338,0.202,1.08c-0.003,0.56,0.077,2.291,0.158,3.043
            c0.147,1.366,0.148,1.364-0.437,2.179c-0.714,0.767-1.442,1.896-2.362,2.774c-1.382,1.531-1.239,1.619-1.219-1.655
            c0.016-2.559-0.177-2.558,0.341-3.159c0.284-0.33,1.163-1.404,1.742-2.246C62.719,194.538,63.185,193.803,63.414,193.8
            L63.414,193.8z M76.586,194.251l2.841,1.517l-2.846,2.885c0,0,0.712-0.003,0.95,0.043c1.828,0.355,1.691,2.293-0.148,3.739
            c-1.131,0.714-5.012,2.127-5.012,2.127c-0.133-1.63-0.478-3.129-0.413-4.877c0.028-0.807,0.102-1.684,0.721-2.381
            c0.428-0.474,1.143-0.749,2.146-0.101c0.526,0.468,0.802,0.998,0.802,0.998L76.586,194.251z M110.118,195.235
            c-1.113,0-2.016,0.903-2.016,2.017s0.902,2.016,2.016,2.016c1.114,0,2.017-0.902,2.017-2.016S111.233,195.235,110.118,195.235z
            M141.885,195.71c0,0,3.721,1.397,5.396,2.933c1.565,1.306,0.829,3.455-0.725,3.499c-0.113,0-0.772-0.096-0.772-0.096
            c0.526,0.801,2.289,2.765,2.289,2.765l-2.875,1.167c0,0-0.46-2.214-0.816-3.456c-1.002,2.313-3.475,0.809-3.638-0.634
            C140.344,199.775,141.242,197.71,141.885,195.71z M110.119,195.888c0.773,0,1.401,0.627,1.401,1.401s-0.628,1.401-1.401,1.401
            c-0.774,0-1.402-0.627-1.402-1.401S109.345,195.888,110.119,195.888z M55.226,198.753c1.002-0.009,2.253,0.037,2.812,0.072
            c0.427,0.327-0.465,1.345-2.188,3.153c-1.382,1.451-1.586,1.249-3.26,1.263c-2.808,0.022-2.878,0.041-1.589-1.426
            c1.413-1.606,2.237-2.642,2.89-2.976C54.111,198.782,54.624,198.759,55.226,198.753z M58.648,200.164
            c0.298-0.059,0.217,0.699,0.168,2.415l-0.081,2.908l-2.185,2.103c-2.527,2.263-2.226,2.404-2.208,0.288
            c0.015-1.682-0.003-2.863,0.36-3.609c1.104-1.33,2.254-2.508,3.509-3.777C58.409,200.295,58.549,200.185,58.648,200.164z
            M114.17,200.89c0.608-0.051,2.16,2.604,2.549,4.828c0.888,5.08,3.931,7.488,6.072,5.448c0.871-1.199,0.969,0.109,0.926,0.734
            c-0.449,6.436-7.742,3.757-8.572-2.635c-2.56,1.661-4.948-1.694-3.423-1.642C115.33,206.477,114.344,203.164,114.17,200.89
            L114.17,200.89z M105.722,200.938c0.357,2.226-3.656,6.039-5.913,3.364c-1.149-1.36-0.103-4.166,1.358-2.438
            C102.781,203.059,104.346,201.672,105.722,200.938z M50.579,203.99c0.825-0.018,2.019,0.139,2.539,0.067
            c0.736,0.074,0.21,0.429-1.383,1.881c-1.371,1.251-1.763,1.809-1.92,1.263c-0.076-0.846-0.043-1.851-0.038-3.043
            C49.904,204.041,50.204,203.998,50.579,203.99z M69.289,205.469l2.448,1.785l-2.429,2.237c2.178-0.108,2.372,1.934,1.546,3.071
            c-0.535,0.798-2.601,1.639-4.666,1.974c-1.243,0.201-2.256,0.35-2.256,0.35s-0.047-0.957-0.081-2.549
            c-0.071-3.254,0.15-4.535,1.401-5.169c0.896-0.454,2.411,0.259,2.784,1.089c0.123,0.275,0.446,0.754,0.446,0.754L69.289,205.469z
            M53.536,205.647c0.01-0.003,0.016,0,0.019,0.004c0.139,0.187-0.359,5.482-0.359,5.482l-3.548-1.997
            C49.648,209.136,53.239,205.709,53.536,205.647L53.536,205.647z M147.415,206.271c2.526,1.189,4.42,0.958,6.12,2.434
            c1.479,0.774,1.041,2.907-0.039,3.384c-0.488,0.148-1.296,0.067-1.296,0.067c0.894,1.103,2.852,2.496,2.852,2.496l-3.11,1.301
            c0,0-0.426-2.098-0.82-3.24c-0.566,1.7-2.484,1.658-3.576,0.859c-0.774-0.593-1.094-2.579-0.726-4.301
            C146.917,208.816,147.415,206.271,147.415,206.271L147.415,206.271z M130.802,255.562c-30.671,7.269-55.585,2.773-58.057,1.915
            l-1.953,2.914c-0.238,0.495-0.385,1.975-1.709,2.376l-1.987,2.967l0.389,0.412l-1.762,1.536l0.428,0.514l-1.281,1.862l-0.505-0.053
            l-2.966,4.507l0.451,0.505l-6.812,10.66l92.146,0.029C141.828,275.603,136.099,265.697,130.802,255.562z M130.245,256.872
            l0.547,1.521c-1.523-0.188-3.303-0.279-5.111-0.36C127.271,257.705,128.863,257.304,130.245,256.872L130.245,256.872z
            M124.894,258.198c-2.932,1.345-4.688,2.96-6.034,4.665c-1.677-1.302-3.81-2.225-6.355-2.803L124.894,258.198z M73.111,258.937
            l1.306,0.148c0,0-0.438,0.34-0.749,0.269C73.429,259.3,73.111,258.937,73.111,258.937z M131.81,259.695l0.831,1.642
            c-1.996-1.058-10.533-3.479-12.955,5.007c-2.549-3.446-13.06-8.441-18.39,2.179c-1.516-2.877-10.34-11.155-18.389-0.604
            c-3.172-6.558-5.822-7.106-11.645-6.211c4.138-3.977,9.96,0.162,12.427,3.547c6.944-5.759,12.751-4.028,17.822,0.657
            c6.546-7.126,13.073-5.409,17.665-1.833C122.403,259.331,125.553,257.9,131.81,259.695L131.81,259.695z M78.198,259.738
            c4.127,0.558,8.253,0.811,12.38,1.014c-2.389,0.876-4.838,1.631-6.783,3.394C82.323,262.087,80.274,260.892,78.198,259.738z
            M107.968,260.396c-2.252,1.061-4.679,2.654-6.624,4.329c-2.1-1.71-4.26-3.188-6.614-3.931
            C99.048,261.006,103.833,260.816,107.968,260.396L107.968,260.396z M134.388,263.765c0,0-0.832,0.141-1.1,0.211
            c-3.644,0.969-2.85,6.102,0.897,6.102c0.356,0,1.244-0.14,1.244-0.14c-0.071,3.476,0.984,4.324,4.535,4.128l6.02,10.762
            l-89.041-0.384l5.655-9.043c2.843,0.333,4.632-1.249,3.998-3.663c0,0,1.751,0.535,2.241,0.538c3.22,0.021,4.052-4.919,0.965-5.774
            c-0.343-0.096-1.205-0.19-1.31-0.221c1.411-3.525,5.288-1.444,6.398,0.019c2.499-2.055,5.262-1.135,6.446,1.526
            c0,0-0.467-0.26-0.609-0.364c-2.928-2.142-5.65,2.294-2.784,4.339c0.281,0.201,0.878,0.375,0.878,0.375s-0.349,0.284-0.667,0.82
            c-1.488,2.503,0.908,5.551,3.802,4.767c2.221-0.87,2.253-2.54,2.251-4.378c0,0,0.768,0.06,1.454,0.067
            c2.666,0.032,3.43-3.382,1.799-4.97c-0.882-0.857-2.034-0.79-2.604-0.9c3.072-3.018,5.156-0.936,7.324,0.456
            c0.328-0.008,3.764-4.134,7.849-0.082c-1.982-0.519-4.013,0.767-4.04,2.83c0.039,1.328,0.989,2.502,3.042,2.596
            c-0.221,0.666-0.368,1.165-0.38,1.812c-0.04,2.167,1.644,3.516,3.782,3.183c1.787-0.229,3.108-2.271,2.473-3.97
            c-0.287-0.767-0.682-1.046-0.682-1.046c4.812,0.602,4.729-5.494,0.986-5.864c-0.887-0.087-1.57,0.298-2.465,1.117
            c2.2-4.5,6.226-3.598,7.732-1.757c2.067-1.503,4.918-3.554,8.328,0.101c-0.562-0.119-1.354-0.146-2.04,0.036
            c-2.699,0.716-2.711,4.148-0.571,5.193c0.603,0.293,1.341,0.464,2.137,0.435c-0.713,2.884,2.49,4.944,4.757,3.563
            c1.625-0.99,2.05-3.327,0.292-5.46c2.959-0.132,3.25-3.819,1.541-5.112c-1.34-1.014-2.917-0.531-4.061,0.807
            c-0.368-1.059,2.557-4.738,6.687-2.088C129.736,262.497,131.906,261.933,134.388,263.765L134.388,263.765z M135.679,266.645
            l1.157,2.103C136.066,268.823,134.963,267.999,135.679,266.645z M120.751,268.781c0.724,0,1.311,0.586,1.311,1.31
            c0,0.725-0.587,1.311-1.311,1.311s-1.311-0.586-1.311-1.311C119.441,269.367,120.028,268.781,120.751,268.781z M66.707,268.858
            c0.175,0.704,0.251,1.405-1.027,1.541L66.707,268.858z M81.76,270.125c0.663,0,1.2,0.537,1.2,1.2c0,0.662-0.537,1.199-1.2,1.199
            c-0.662,0-1.2-0.537-1.2-1.199C80.56,270.662,81.098,270.125,81.76,270.125z M101.734,270.499c0.702,0,1.271,0.569,1.271,1.272
            c0,0.702-0.569,1.271-1.271,1.271c-0.703,0-1.272-0.569-1.272-1.271C100.461,271.069,101.031,270.499,101.734,270.499z"/>
    </g>
</svg>
