<svg width="324" height="516" xmlns="http://www.w3.org/2000/svg" xmlns:svg="http://www.w3.org/2000/svg">
 <title>card-back</title>
 <g>
  <title>background</title>
  <rect x="-1" y="-1" width="326" height="518" id="canvas_background" fill="none"/>
 </g>
 <g>
  <title>Layer 1</title>
  <path d="m286.854,506l-249.708,0c-14.44,0 -26.146,-11.706 -26.146,-26.146l0,-443.708c0,-14.44 11.706,-26.146 26.146,-26.146l249.707,0c14.441,0 26.147,11.706 26.147,26.146l0,443.707c0,14.441 -11.706,26.147 -26.146,26.147z" fill="#D7DEED" id="svg_1"/>
  <g id="svg_2">
   <path d="m282,2l-240,0c-43.056,-2 -41,-0.056 -40,40l0,432c0,38.056 -1.056,41 40,40l240,0c41.056,-1 41,0.056 40,-40l0,-432c-1,-43.056 1.056,-40 -40,-40zm24,472c0,13.233 -10.766,24 -24,24l-240,0c-13.234,0 -24,-10.767 -24,-24l0,-432c0,-13.233 10.766,-24 24,-24l240,0c13.234,0 24,10.767 24,24l0,432z" fill="#2D2B29" id="svg_3"/>
   <path d="m282,89.998l0,-39.998c0,-4.418 -3.582,-8 -8,-8l-39.998,0c-0.001,0 -0.003,0 -0.005,0l-39.995,0c-0.001,0 -0.003,0 -0.005,0l-39.995,0c-0.001,0 -0.003,0 -0.005,0l-103.997,0c-4.418,0 -8,3.582 -8,8l0,15.998c0,0.001 0,0.003 0,0.005l0,39.995c0,0.001 0,0.003 0,0.005l0,39.995c0,0.001 0,0.003 0,0.005l0,39.995c0,0.001 0,0.003 0,0.005l0,39.995c0,0.001 0,0.003 0,0.005l0,39.995c0,0.001 0,0.003 0,0.005l0,39.995c0,0.001 0,0.003 0,0.005l0,39.995c0,0.001 0,0.003 0,0.005l0,39.995c0,0.001 0,0.003 0,0.005l0,39.995c0,0.001 0,0.003 0,0.005l0,39.997c0,4.418 3.582,8 8,8l224,0c4.418,0 8,-3.582 8,-8l0,-15.998c0,-0.001 0,-0.003 0,-0.005l0,-39.995c0,-0.001 0,-0.003 0,-0.005l0,-39.995c0,-0.001 0,-0.003 0,-0.005l0,-39.995c0,-0.001 0,-0.003 0,-0.005l0,-39.995c0,-0.001 0,-0.003 0,-0.005l0,-39.995c0,-0.001 0,-0.003 0,-0.005l0,-39.995c0,-0.001 0,-0.003 0,-0.005l0,-39.995c0,-0.001 0,-0.003 0,-0.005l0,-39.995c0,-0.001 0,-0.003 0,-0.005l0,-39.995c0,-0.001 0,-0.003 0,-0.004zm-68.687,368.002l-155.313,-155.313l0,-17.373l172.687,172.686l-17.374,0zm-40,0l-115.313,-115.313l0,-17.373l132.687,132.686l-17.374,0zm-40,0l-75.313,-75.313l0,-17.373l92.687,92.686l-17.374,0zm-40,0l-35.313,-35.313l0,-17.373l52.687,52.686l-17.374,0zm-35.313,-252.687l208,208l0,17.373l-208,-208l0,-17.373zm0,-22.626l0,-17.373l208,208l0,17.373l-208,-208zm0,-40l0,-17.373l208,208l0,17.373l-208,-208zm0,-40l0,-17.374l208,208l0,17.373l-208,-207.999zm52.687,-44.687l155.313,155.313l0,17.373l-172.687,-172.686l17.374,0zm22.626,0l17.373,0l115.314,115.313l0,17.373l-132.687,-132.686zm40,0l17.373,0l75.314,75.313l0,17.373l-92.687,-92.686zm40,0l17.373,0l35.314,35.313l0,17.373l-52.687,-52.686zm52.687,12.687l-12.687,-12.687l12.687,0l0,12.687zm-195.313,-12.687l195.313,195.313l0,17.373l-208,-208l0,-4.686l12.687,0zm-12.687,387.313l12.687,12.687l-12.687,0l0,-12.687zm195.313,12.687l-195.313,-195.313l0,-17.373l208,208l0,4.686l-12.687,0z" fill="#2D2B29" id="svg_4"/>
  </g>
  <g id="svg_5"/>
  <g id="svg_6"/>
  <g id="svg_7"/>
  <g id="svg_8"/>
  <g id="svg_9"/>
  <g id="svg_10"/>
  <g id="svg_11"/>
  <g id="svg_12"/>
  <g id="svg_13"/>
  <g id="svg_14"/>
  <g id="svg_15"/>
  <g id="svg_16"/>
  <g id="svg_17"/>
  <g id="svg_18"/>
  <g id="svg_19"/>
 </g>
</svg>
