<?xml version="1.0" encoding="utf-8"?>
<svg version="1.2" baseProfile="tiny"
    xmlns="http://www.w3.org/2000/svg"
    xmlns:svg="http://www.w3.org/2000/svg"
    xmlns:xlink="http://www.w3.org/1999/xlink"
    viewBox="0 0 225 314" width="225px" height="314px">
    <defs>
        <style>
            .maxi-card { display: none; }
            @media (min-width: 75px) {
                .maxi-card { display: block; }
                .mini-card { display: none; }
            }
        </style>

        <path id="suit" d="M20.976,57.141c2.879-5.775,4.976-11.7,5.348-18.037c0.342-2.331-1.074-2.37-1.288-0.729
            c-4.076,15.593-25.763,11.37-25.017-3.296c0.604-11.896,12.42-14.454,18.582-10.565c2.434,1.434,2.295,0.575,0.967-0.911
            C10.416,13.391,15.958,0.241,28.331,0c13.38,0.793,16.853,14.87,8.646,23.147c-1.021,0.994-3.283,4.191,0.123,1.956
            c8.287-5.888,19.787,0.443,19.553,9.521c-0.434,16.738-20.84,17.986-25.203,4.006c-0.42-1.55-1.629-2.328-1.295,0.305
            c0.604,4.767,1.855,11.953,5.438,18.205L20.976,57.141L20.976,57.141z"/>
        <path id="numeral" d="M9.842,0C5.149,0.091,2.822,4.021,2.797,7.953l0.004,10.317H0v3.426h2.801c0,0,0.049,1.564,0.041,2.503
            c-0.039,4.637,1.6,7.447,4.797,8.226c3.066,0.559,4.666-0.102,7-1.311c0.849,0.353,1.441,1.08,2.349,1.172
            c1.004,0.102,3.096,0.054,3.096,0.054l-0.058-3.515l-1.045-0.152c-2-0.034-2.866-0.733-2.649-1.982
            c0.424-0.813,0.485-1.405,0.524-2.389V6.849C16.796,2.572,13.299,0.038,9.842,0z M9.697,3.403c2.239-0.035,4.104,2.573,4.053,5.246
            l0.035,13.481c0.073,0.848-0.062,1.677-0.437,2.259c-0.295-0.86-4.93-5.597-7.248-5.378c0,0-0.094,0.239-0.16-5.686
            c-0.028-2.91-0.793-7.253,1.822-9.214C8.415,3.63,9.07,3.412,9.697,3.403z M12.038,28.031c0.205,0.416-0.556,0.826-1.367,1.053
            c-2.295,0.64-4.545-0.791-4.617-4.08c-0.021-1.003-0.088-2.075,0.265-2.233C7.372,22.296,11.417,26.779,12.038,28.031z"/>
    </defs>

    <rect width="100%" height="100%" x="0" y="0" fill="#fefefe"/>

    <!-- Little Card -->
    <g class="mini-card">
        <use xlink:href="#numeral" transform="matrix(3.5,0,0,3.5,78.4,33.95)"/>
        <use xlink:href="#suit" transform="matrix(2,0,0,2,55.5,170)"/>
    </g>

    <!-- Big Card -->
    <g class="maxi-card">

        <!-- Top Numeral and Suit -->
        <use xlink:href="#numeral" transform="matrix(1,0,0,1,7,12)"/>
        <use xlink:href="#suit" transform="matrix(0.4,0,0,0.4,6,51)"/>

        <!-- Bottom Numeral and Suit -->
        <use xlink:href="#numeral" transform="matrix(-1,0,0,-1,218,302)"/>
        <use xlink:href="#suit" transform="matrix(-0.4,0,0,-0.4,218,263)"/>

        <!-- Card Face -->
        <use xlink:href="#suit" transform="matrix(0.8,0,0,0.8,38,40)"/><!-- top left -->
        <use xlink:href="#suit" transform="matrix(-0.8,0,0,-0.8,186,274)"/><!-- bottom right -->

        <path fill="#D40000" d="M120.683,283.85c0.538-7.929,0.077-16.44,0.438-22.893c-0.246-0.456,0.638-1.707,0.685-1.707c-0.525-0.959-0.702-3.415-0.038-5.594
            c5.189-19.773,14.587-35.16,24.268-49.51c7.871,23.714-16.847,40.352-22.044,61.073c-1.734,7.175-1.475,12.186-2.14,18.667
            L120.683,283.85z M79.587,284.152l-29.405-45.424l6.386-3.108l30.226,48.374L79.587,284.152z M117.622,200.002
            c0.26,1.305,1.285,2.005,2.374,1.408c1.066-0.585,1.19-0.624,0.526,0.404c-1.466,2.271,1.503,4.468,3.407,2.52
            c0.678-0.692,0.791-1.819,0.176-2.392c-0.694-0.646-0.846-0.98,0.179-0.488c2.573,1.042,3.99-2.68,1.497-3.932
            c-0.643-0.322-1.895-0.036-2.365,0.455c-0.569,0.593-0.649,0.385-0.498-0.076c0.09-0.271,0.153-0.714,0.368-1.24
            c0.168-0.414,0.289-0.977,0.289-0.977l-2.629,0.027c0,0,0.212,0.603,0.428,1.109c0.202,0.477,0.278,0.834,0.377,1.032
            c0.354,0.714-0.071,0.449-0.781-0.079c-1.004-0.746-2.262-0.537-2.978,0.445C117.729,198.797,117.507,199.399,117.622,200.002z
            M121.418,163.047l5.652-0.168l6.216,17.153c-4.975,8.26-6.316,17.575-0.527,27.018l-17.926,0.028
            C119.038,192.851,119.688,177.76,121.418,163.047z M127.328,185.366c0.759-0.679,0.856-1.908,0.165-2.729
            c-0.87-1.031-0.67-1.084,0.495-0.411c1.683,0.973,3.292-1.13,2.3-2.989c-0.631-1.181-2.67-1.441-3.449-0.393
            c-0.65,0.876-0.578,0.074-0.078-1.089c0.184-0.428,0.447-1.23,0.447-1.23l-2.739,0.057c0,0,0.354,0.775,0.543,1.273
            c0.5,1.321,0.52,1.739-0.251,0.89c-1.672-1.404-3.633-0.387-3.65,1.631c0.017,1.551,1.423,2.547,2.653,1.822
            c0.748-0.44,1.084-0.546,0.241,0.465c-0.581,0.965-0.372,2.193,0.395,2.771C125.45,186.069,126.575,186.032,127.328,185.366z
            M89.462,190.711c0.22-0.161,0.301-0.056,0.166,0.163c-0.115,0.187-0.41,0.451-0.662,0.732c-1.278,1.422,0.376,3.229,2.437,2.949
            c1.402-0.19,2.226-2.396,1.189-3.268c-0.336-0.225-0.599-0.268-0.854-0.574c-0.021-0.122,0.037-0.205,0.161-0.157
            c0.183,0.077,0.557,0.379,0.745,0.43c1.304,0.354,2.287-0.185,2.618-1.105c0.21-1.063,0.008-2.207-0.861-2.805
            c-0.809-0.542-2.004-0.387-2.7,0.539c-0.714,0.946-0.812,0.046-0.229-1.262c0.219-0.489,0.369-1.187,0.369-1.187l-2.519,0.134
            c0,0,0.134,0.542,0.355,1.165c0.56,1.422,0.96,1.83,0.246,1.096c-3.076-1.812-4.098,0.651-4.148,1.631
            C85.681,191.037,88.366,192.084,89.462,190.711L89.462,190.711z M101.777,162.891l4.544,0.016
            c-3.427,18.218-10.447,33.478-22.261,43.979l-22.231-0.068l-10.712-7.49l4.137-5.373C83.477,196.863,95.495,182.869,101.777,162.891
            z M81.323,205.122c1.33-0.586,1.884-2.093,1.003-3.104c-0.795-0.914-0.876-1.199,0.346-0.487c1.636,0.952,3.216-0.949,2.414-2.81
            c-0.499-1.158-2.071-1.516-3.203-0.729c-0.995,0.742-0.977,0.41-0.456-0.762c0.257-0.58,0.455-1.51,0.455-1.51l-2.785,0.039
            c0,0,0.201,0.662,0.403,1.116c0.465,1.043,0.633,1.521,0.417,1.523c-0.104,0.001-0.448-0.316-0.649-0.502
            c-0.555-0.509-2.071-0.605-2.634-0.067c-1.667,1.59-0.729,4.372,1.393,3.858c1.369-0.331,1.683-0.852,0.548,0.437
            C77.176,203.713,79.343,205.996,81.323,205.122z M63.753,204.571c1.151-0.543,1.537-1.872,0.893-2.729
            c-0.649-0.863-0.971-1.419,0.185-0.642c1.534,0.772,2.875-0.253,2.855-1.999c-0.02-1.827-2.072-2.681-3.583-1.579
            c-0.255,0.186-0.568,0.354-0.625,0.354c-0.185,0.002,0.15-0.986,0.518-1.634c0.16-0.281,0.44-0.854,0.44-0.854l-2.786-0.106
            c0,0,0.156,0.759,0.374,1.343c0.444,1.186,0.553,1.581-0.225,0.908c-2.095-1.958-4.329,0.535-3.447,2.688
            c0.466,1.212,1.896,1.212,2.739,0.605c0.766-0.593,0.374,0.194-0.15,0.82C59.509,203.452,61.608,205.573,63.753,204.571z
            M190.96,158.895l0.146,3.37l-35.996,29.997l-1.51-2.312L190.96,158.895z M57.078,165.203c5.183-3.688,10.946-10.309,16.637-13.76
            C77.872,160.998,68.121,170.365,57.078,165.203z M152.195,162.786c-5.213-17.896,19.409-16.705,16.317-12.904L152.195,162.786z
            M35.183,151.095l35.634-29.05l1.619,2.442l-37.592,30.796L35.183,151.095z M132.796,121.791c0.101,0.304,1.178,1.461,1.181,1.566
            c-0.309-0.229-2.139-1.255-3.032-0.259c-0.312,0.365-0.709,1.238-0.666,2.142c0.374,1.618,2.216,2.189,3.524,1.081
            c0.377-0.319,0.7-0.706,0.776-0.569c0.066,0.118-0.139,0.674-0.307,1.114c-0.193,0.453-0.911,1.403-0.391,1.402l2.53-0.005
            c0,0-0.093-0.593-0.396-1.248c-0.566-1.226-0.543-1.892,0.141-1.009c1.329,1.72,3.905,0.286,3.637-1.775
            c-0.194-1.488-1.701-2.34-2.81-1.63c-0.121,0.077-0.477,0.43-0.527,0.433c-0.136,0.006,0.235-0.562,0.481-1.033
            c0.816-1.564-0.402-3.014-2.268-2.858c-0.603,0.051-1.262,0.431-1.266,0.484C132.705,120.192,132.59,121.168,132.796,121.791z
            M163.561,107.218c3.565,3.279,7.131,5.683,10.696,7.782l-3.364,5.312c-22.802-2.11-39.383,6.904-46.302,31.343l-3.759,0.724
            c1.414-15.245,6.523-30.363,21.627-45.137L163.561,107.218z M141.709,110.865c0.006,0.723,1.334,1.583,1.038,1.781
            c-0.136,0.072-0.926-0.615-1.289-0.654c-2.633-0.279-3.178,3.813-0.569,4.273c0.513,0.09,1.572-0.229,1.887-0.487
            c0.418-0.343,0.707-0.625,0.793-0.594c0.16,0.059-0.204,0.788-0.49,1.329c-0.267,0.502-0.638,1.486-0.638,1.486
            c1.044,0.188,2.051,0.231,2.993,0.014c0,0-0.271-0.855-0.541-1.507c-0.344-0.833-0.417-1.361-0.186-1.306
            c0.1,0.024,0.213,0.284,0.422,0.465c1.297,1.113,3.199,0.638,3.699-1.102c0.47-1.634-1.487-3.316-2.85-2.402
            c-0.476,0.319-0.477,0.079-0.001-0.638c0.434-0.654,0.327-1.646-0.066-2.235C144.481,107.772,141.645,108.857,141.709,110.865z
            M163.199,115.713c-0.072-0.364,0.021-0.261,0.404,0.139c1.2,1.249,3.267,1.056,3.793-0.601c0.524-1.652-1.079-3.543-2.478-2.894
            c-0.728,0.338-0.739,0.218-0.324-0.323c1.072-1.395-0.109-3.232-1.949-3.212c-1.68,0.019-2.671,1.637-1.853,3.026
            c0.335,0.568,0.226,0.69-0.363,0.404c-1.72-0.834-3.323,1.887-2.063,3.501c0.74,0.948,2.454,1.048,3.434,0.106
            c0.521-0.501,0.518-0.262,0.139,0.775c-0.33,0.903-0.696,1.634-0.696,1.634l2.976,0.026
            C164.218,118.296,163.423,116.786,163.199,115.713z M99.492,152.27c0,0-4.416-12.292-5.929-18.185
            c3.272-7.838,7.752-15.434,0.222-26.72l18.3-0.051c-5.653,12.818-5.774,45.169-7.103,45.247L99.492,152.27z M101.097,137.883
            c0,0-0.903-1.242-0.958-2.249c-0.109-0.646,0.058-0.686,0.394-0.027c1.63,1.802,3.836,0.062,3.847-1.533
            c0.187-1.46-1.521-2.711-2.617-1.982c-0.769,0.511-0.978,0.364-0.292-0.587c0.965-1.339-0.087-3.082-1.813-3.062
            c-2.245,0.025-3.105,2.124-1.496,3.621c1.189,1.106,0.081,0.452-0.863,0.057c-1.839-0.771-3.045,1.103-2.22,2.992
            c0.569,1.305,2.241,1.645,3.222,0.589c0.537-0.579,1.033-0.918,0.742-0.043c-0.152,0.707-0.975,2.206-0.975,2.206L101.097,137.883z
            M103.93,118.183c0,0-1.083-1.358-1.27-2.381c-0.064-0.376,0.202-0.28,0.817,0.248c1.97,1.689,4.674-1.341,2.84-3.191
            c-0.631-0.637-1.271-0.821-2.009-0.437c-0.919,0.48-0.845,0.247-0.387-0.249c0.673-0.728,0.623-2.056-0.102-2.701
            c-2.001-1.784-5.169,0.874-3.309,2.781c0.81,0.829,0.426,0.722-0.466,0.188c-1.686-1.009-3.552,1.755-2.285,3.378
            c1.501,1.269,2.626,0.645,3.663-0.153c0.226-0.119,0.421-0.173,0.422-0.075c0.002,0.184-1.037,2.629-1.037,2.629L103.93,118.183z
            M79.929,110.525c-1.116-0.074-1.914-10.507-0.55-13.811C82.289,82.78,91.17,72.63,96.698,64.096
            c8.867-12.711,7.765-33.823,8.142-32.981l1.258,0.146c0,0-0.974,12.376-0.423,17.968c0.572,4.917,0.446,5.223,0.095,5.71
            c-0.094,0.459,0.044,1.799-0.056,2.259c-3.946,18.205-13.364,36.924-23.09,51.056L79.929,110.525z M171.105,78.722l-29.946-47.218
            l7.196-0.647c2.671,4.23,28.685,44.576,28.685,44.576L171.105,78.722z"/>
        <path fill="#E2CF00" d="M47.801,284.994c3.405-12.483-5.82-41.518-11.586-45.312c6.762-0.285,14.895-0.163,14.638-0.796c0,0,28.753,45.225,28.519,45.464
            C79.151,284.577,47.801,284.994,47.801,284.994z M164.339,214.168c-6.968-0.99-4.22-6.774,0.261-7.374
            c-0.584,0.097,0.479-2.876,4.093-4.078c0.821-1.488,1.465-4.029,2.216-5.21c-2.166,0.704-4.798,2.534-14.639,1.092
            c0.857-4.663,10.27-5.458,13.664-4.737c1.96,0.455,3.895,3.376,4.491,3.438c6.041-1.007,13.728,4.459,11.402,10.007
            c-0.36,0.791-1.279-0.939-3.313-1.677c-6.573-2.384-7.034-5.94-8.545-7.534c-0.55-0.103-3.457,5.649-3.457,5.649l0.908,3.907
            c1.576-0.144,8.583,4.186-0.14,7.119C168.868,223.082,164.325,217.216,164.339,214.168z M180.852,177.048
            c-0.373-0.379,0.293-2.967,1.178-4.455c0.479-0.805,1.582-1.344,2.229-1.23c1.153,0.202,0.974,1.879-0.555,6.789
            C183.641,178.861,182.08,178.935,180.852,177.048z M42.085,142.667c-1.912-0.007-0.197-5.207,0.979-6.857
            c0.386-0.513,1.912,0.579,1.991,1.333C45.196,138.491,43.122,143.202,42.085,142.667z M40.728,107.311
            c2.334,0.562,6.019,2.912,7.778,4.201c2.189,1.634,1.592,4.841,3.343,5.126c1.183-0.585,3.353-5.838,3.353-5.838
            s0.544-2.698-0.999-3.529c-3.839-2.067-3.771-4.301-3.526-4.5c1.139-2.95,3.405-2.426,4.63-2.59
            c0.026-1.615-0.027-5.025,3.316-4.674c2.925,0.276,3.213,4.454,1.982,4.493c-0.023-0.071,5.53-0.797,5.477,2.866
            c-0.029,1.986-3.324,4.527-4.35,3.604c0,0,0.55,3.96-4.427,5.316c-1.162,1.184-2.112,6.217-2.112,5.77
            c3.001-2.708,7.701-3.344,15.115-2.371c-4.594,8.516-17.294,4.53-18.287,2.883C45.631,116.141,39.637,113.63,40.728,107.311z
            M95.437,86.901c6.759,0.613,14.153-1.508,19.774-0.385c0.641,0.088,1.336,1.035,1.722,1.245c2.905,1.585,5.946,1.093,10.623-0.678
            c1.155-0.437,22.586-0.27,22.586-0.27c4.882,7.211,13.562,20.776,13.75,20.316c0,0-11.88-0.135-17.354,0.189
            c-3.849,0.229-1.586,0.753-4.258,0.868c-18.729,14.065-22.294,44.46-22.294,44.46s5.952-1.566,7.508,0.076
            c7.362-21.536,21.34-31.37,40.832-29.444c9.007,0.89,19.755,9.747,19.755,9.747l-19.276,15.687
            c-14.933-7.533-21.33,14.669-16.8,14.725l38.816-31.729c0,0,0.664,2.59,0.598,2.678c-2.767,3.627-49.043,41.19-49.043,41.19
            l-2.031-2.245c0,0-1.276,1.133-1.948,1.888c-0.066,1.23,0.367,2.273,1.3,3.236c-9.167,7.356-9.47,20.854-2.712,28.223
            c0,0-2.997,0.212-3.312,0.267c-3.808,0.651-7.747-18.127-0.197-26.865c-3.809-7.469-6.155-17.63-6.633-18.101
            c0.102,1.196-6.012,0.799-6.012,0.799c-0.467,15.177-2.051,30.061-5.697,44.4l28.085,0.604l-11.956,20.748
            c0,0-13.415-0.336-19.195-0.74c-6.034-3.511-9.514-0.842-15.177,0.458c-8.06,0.237-19.923-0.138-19.923-0.028
            c-4.023-7.991-8.348-13.867-14.225-20.717c-0.747-1.244,23.855-0.476,23.855-0.476s12.298-18.604,14.538-23.857
            c1.748-4.101,5.67-19.029,5.67-19.029c0.182,0.777-2.233-3.883-7.857-3.777c-4.65,30.914-41.386,41.328-63.49,21.432l-0.206-3.596
            l48.712-39.512l2.165,2.502c-0.466-0.372-29.905,24.125-29.416,23.971c8.726,4.566,18.821,0.87,17.646-14.121
            c6.913-4.997,13.034-10.819,19.053-16.762c0.13-0.232,6.716,14.776,6.554,17.665c3.788-1.272,6.031,1.396,5.96,0.939
            c-1.362-8.68,6.238-41.589,6.384-45.373c-4.223-0.34-9.82-0.185-18.6-0.532c7.052,13.648,4.603,22.896-5.255,31.304l-2.062-2.591
            c0.837,0.467,14.398-11.269,3.479-28.802c-0.5,0.041-5.756-0.476-5.756-0.476S94.892,89.32,95.437,86.901z M147.777,30.49
            c0,0,30.744-0.738,30.754,0.163c-0.981,16.517,2.869,31.584,12.16,45.519c0,0-13.617-0.482-13.368-0.312L147.777,30.49z"/>
        <path fill="#131F67" d="M192.497,29.417L32.669,29.222l0.991,256.526h159.633L192.497,29.417z M177.878,30.435c-0.013-0.015-2.06,27.137,12.106,44.92
            c-8.653-1.311-13.608,0.016-18.647,3.575l0.689,0.71c6.94-4.264,12.818-3.142,18.844-2.478l-0.164,34.932
            c-0.043,1.696-7.041,0.939-11.466-2.389c-2.101-1.24-4.811-3.845-6.025-5.799c-0.37-0.595-0.759-1.182-0.866-1.306
            c-0.406-0.468-2.931-5.17-7.563-14.072c-2.355-4.525-5.469-10.7-7.998-15.485c-1.637-3.099-4.682-8.951-4.896-9.418
            c-0.448-0.973-3.762-7.438-5.052-9.791c-3.407-6.215-8.909-17.058-10.871-20.944c-0.434-1.008-1.094-1.473,0.088-1.44
            c0.262,0.007,0.524,0.022,0.675,0.059c0.208,0.104,0.461-0.356,0.461-0.356L177.878,30.435z M35.561,177.323l-0.102-2.746
            l46.448-38.309l1.481,1.907L35.561,177.323z M80.439,110.222c-0.187,0.068-0.391,0.139-0.614,0.21
            c-1.193-5.319-0.513-12.427,0.894-17.77c2.049-7.417,5.875-13.366,10.135-19.345c9.736-13.651,14.049-23.942,13.874-42.281
            l1.392,0.148c-0.059,2.896-0.441,5.075-0.554,8.93c-0.174,4.13-0.105,7.27,0.334,11.303c0.216,1.981,0.346,3.266,0.012,3.523
            c-0.158,0.13-0.303,0.815-0.156,1.067c-0.023,0.55-0.099,1.648-0.099,1.648C103.425,68.574,91.466,96.572,80.439,110.222
            L80.439,110.222z M86.247,135.043l-2.461-3.02c0,0-1.894-1.526-0.192-3.252c4.918-4.986,4.95-11.324,0.196-17.024
            c-0.319-0.724,1.478-4.38,1.478-4.38l3.742,0.062C94.848,114.531,96.44,127.079,86.247,135.043L86.247,135.043z M89.687,106.858
            c0.116-0.485-5.547-0.298-5.547-0.298c3.518-5.243,6.509-10.636,9.448-16.044c4.561-8.185,10.884-22.523,12.866-32.917
            c1.476,12.156,3.622,30.199,14.024,30.911c3.411,0.233,7.361-2.104,8.005-1.718l21.612-0.171
            c4.432,8.986,9.193,14.776,14.832,20.923c4.052,2.311,8.993,4.139,13.769,5.326c2.713,0.674,2.974,0.225,8.325,0.988
            c1.412,0.201,3.564-0.396,3.543-0.396c-4.275,3.373-9.208,2.417-14.641,0.973c-0.304-0.08-0.623-0.175-0.94-0.287l-4.102,6.171
            c-9.13-2.163-38.441-0.632-46.169,31.236c0,0,0.795,0.405,0.609,0.186c6.137-27.66,32.06-33.175,44.418-30.42l-1.062,1.622
            c-20.506-2.508-37.202,10.317-41.179,28.505l0.396,0.359c7.695-27.497,40.043-37.672,60.098-18.612l3.679-2.604l-0.119,3.525
            l-49.306,41.311l-1.973-2.039c0,0-0.347,0.263-0.74,0.59c-1.271,1.059-1.774,1.317-1.417,1.909c0.356,0.591,1.739,1.922,1.8,2.071
            c-8.178,6.664-10.772,19.516-3.002,28.516c0.867,0.953,0.709,1.21,0.551,0.136c-6.972-7.586-6.088-21.003,2.604-27.36l1.752,2.295
            c-3.827,8.402-5.868,21.507,4.194,22.642c3.604,9.66-0.543,21.106-5.173,28.779c-4.905,8.839-10.851,16.186-14.563,25.813
            c-1.803,4.018-4.674,15.933-4.522,25.038l-1.081-0.011c-0.002-3.716,0.247-8.122,0.277-10.938
            c0.151-13.731,0.131-12.917,0.44-13.266c0.102-0.115,0.39-0.237,0.417-0.334c0.041-0.145-0.225-0.429-0.329-0.765
            c-0.107-0.344-0.289-0.948-0.271-1.457c0.018-0.509,0.495-1.25,0.404-1.416c-2.165-7.578-2.343-21.196-9.329-27.452
            c-3.426-2.942-7.977-3.061-13.87-0.647c-13.005,0.023-11.077,0.692-21.579,0.093c-4.346-7.955-9.615-15.703-15.316-21.447
            c-2.664-2.972-6.369-4.6-9.854-6.754c1.397-2.65,2.982-4.588,4.715-5.847c0.359-0.512,0.604-1.065,1.069-1.499
            c35.414,3.402,43.094-30.896,41.478-30.023l-0.313,0.272c-9.683,35.337-44.139,34.05-61.459,18.772c0,0-2.446,2.126-2.455-0.207
            c-0.007-2.12,0.767-2.734,0.767-2.734l48.613-39.642c0.889,0.566,1.846,2.45,2.245,2.238c0.896-0.476,2.215-1.432,2.174-2.001
            c-0.031-0.438-1.777-3.188-1.777-3.188C99.727,122.099,93.861,116.084,89.687,106.858L89.687,106.858z M108.115,31.187
            c0.234-0.002,0.456,0.109,0.62,0.369c0.296,0.468-0.884,3.198-1.613,3.68c-0.689,0.455-0.74-0.074-0.241-2.715
            C107.027,31.746,107.6,31.191,108.115,31.187z M179.445,31.234h11.262l0.083,43.245C182.374,62.652,178.113,49.031,179.445,31.234z
            M111.138,31.338c0.28-0.013,0.528,0.065,0.609,0.27c0.289,0.729-1.362,3.878-3.405,6.489c-1.061,1.354-1.595,1.747-1.925,1.424
            c-0.279-0.616-0.271-1.333,0.704-2.459c0.805-0.929,2.175-3.1,2.739-4.315C110.105,32.033,110.347,31.389,111.138,31.338z
            M122.699,31.492c0.328,0.003,0.665-0.002,0.76,0.153c1.965,4.009,5.667,7.626,9.455,9.559c0.553,0.314,0.292,1.101,0.479,1.652
            c-4.256-0.632-9.84-6.66-11.334-11.06C122.051,31.478,122.371,31.49,122.699,31.492z M129.353,31.49
            c0.847,0.859,2.179,1.898,2.479,2.881c0.185,0.602,0.318,1.293,0.189,1.617c-0.739,0.462-4.413-3.8-4.271-4.298
            C128.216,31.382,128.803,31.318,129.353,31.49z M113.422,31.428c0.361,0.014,0.913-0.007,0.993,0.265
            c0.459,1.859-3.786,9.102-6.882,11.153c-1.101,0.729-1.172,0.538-1.083-0.686c0.059-0.822,0.138-0.757,1.268-1.835
            c1.612-1.54,3.373-3.916,4.342-6.021C113.302,31.604,112.998,31.434,113.422,31.428z M116.303,31.456
            c0.403,0.001,0.78,0.138,0.884,0.316c0.142,0.243-0.048,0.639-0.18,1.126c-1.398,3.958-4.875,9.654-8.958,12.89
            c-1.588,1.225-1.857,1.217-1.973-0.047c-0.067-0.735,0.271-0.949,1.017-1.467c3.465-2.402,6.577-6.57,7.895-10.827
            c0.257-0.829,0.159-1.573,0.61-1.826C115.807,31.505,116.061,31.456,116.303,31.456z M137.801,38.315
            c0.165,0.284,1.354,2.143,0.383,1.442c-0.398-0.326-1.122-1.15-2.275-2.459c-2.726-3.096-2.808-2.904-2.754-3.674
            c0.026-1.003-0.691-2.649,0.859-2.223C135.538,33.193,136.496,36.08,137.801,38.315L137.801,38.315z M125.389,31.518
            c0.309-0.006,0.675,0.052,0.979,0.113c1.795,3.375,6.177,6.338,6.16,6.322c0,0,0.11,1.469-0.049,1.729
            c-0.092,0.452-6.96-4.767-7.725-7.89C124.828,31.591,125.08,31.523,125.389,31.518z M120.501,31.579
            c1.612,2.963,4.94,9.686,12.759,12.402c0.562,0.122,1.161,1.723,0.73,2.162c-4.287-1.242-12.063-5.439-14.705-14.523
            C119.543,31.378,120.227,31.416,120.501,31.579z M118.402,32.155c-0.269,0.005,3.691,11.433,14.972,14.84
            c0.976,0.306,1.548,0.729,1.485,1.306c-0.078,0.728-0.055,0.818-1.14,0.274c-3.078-1.607-7.464-2.36-11.128-0.499
            c-0.571,0.291-1.151,1.083-0.69,1.582c0.263,0.254,0.909,0.065,1.733-0.256c4.265-1.659,10.791-0.683,11.943,1.926
            c0.818,1.852,0.958,3.216,0.511,3.443c-0.341,0.174-0.92-0.449-1.939-1.344c-3.244-2.846-7.123-3.638-10.207-0.903
            c-0.667,0.592-1.328,0.489-1.561,0.733c-0.227,0.236,0.042,0.768,0.231,1.286c0.198,0.543,0.207,0.691,0.01,1.149
            c-0.271,0.628-0.281,1.432-0.251,2.029c0.072,1.458,1.037,2.713,3.812,4.636c2.161,1.497,3.852,2.339,1.22,0.208
            c-4.541-3.679-5.365-5.177-2.421-3.902c2.938,1.182,7.014-0.003,9.899-2.204c0.982-0.017,1.567-0.188,2.085,0.189
            c2.152,5.053,3.912,11.776,6.773,18.295c-3.417,3.86-15.314,13.315-23.797,12.979c-7.325-0.291-9.911-12.279-11.531-18.904
            c-0.545-2.804-1.167-5.657-1.092-9.616c0,0,0.133-0.106,0.321-0.071c1.229,0.232,3.341,0.393,4.413,0.142
            c1.949-0.455,2.341-0.803,2.455-0.516c0.134,0.339-0.678,1.102-2.096,2.072c-0.616,0.422-2.412,1.287-2.223,1.414
            c0.429,0.287,2.602-0.869,2.966-1.178c0.567-0.481,0.958-0.512,1.229-0.246c0.318,0.312,0.384-0.021-0.667,2.588
            c-1.158,2.873-1.047,3.134,1.211,4.904c0.785,0.616,1.503,1.231,1.675,1.5c0.216,0.353,0.363,0.77,0.463,0.903
            c0.382,0.511,0.147-0.312-0.08-1.618c-0.264-0.966-1.211-1.926-1.883-2.393c-1.232-0.857-1.041-1.698-0.021-4.617
            c3.01-8.607,2.242-12.447-1.072-14.317c-1.494-0.844-5.678-0.618-6.997,0.483c-0.649,0.543-0.561-0.522-0.457-0.594
            C114.509,42.394,116.373,37.182,118.402,32.155z M133.745,36.372c2.257,2.239,5.065,5.281,6.756,7.443
            c0.929,1.153,1.418,2.336,2.157,3.548c0.141,0.22,0.279,0.47,0.18,0.572c-0.037,0.043-0.36-0.145-0.539-0.279
            c-1.654-1.246-8.481-9.021-8.481-9.021C133.503,37.36,133.284,36.924,133.745,36.372z M135.095,41.65c0,0,5.916,6.458,9.304,9.635
            c0.667,1.399,1.943,3.416,1.911,3.756c-0.014,0.15-0.724-0.397-0.724-0.397c-3.744-3.449-7.204-7.327-10.799-11.002
            c0.034,0.02-0.284-1.521-0.288-2.143C134.581,41.194,134.94,41.53,135.095,41.65z M147.928,58.204
            c0.796,1.296,1.376,2.455,1.76,3.217c0.632,1.206,0.42,1.24-0.138,0.795c-4.232-3.465-7.776-7.682-11.764-11.547
            c-0.518-0.532-1.552-1.717-1.552-1.717c0.037,0.043-1.299-2.785-0.46-2.728c0.656,0.255,1.087,0.968,1.511,1.421
            C139.375,49.884,143.359,53.732,147.928,58.204z M111.005,48.973c1.745-0.052,3.465,0.399,4.333,1.47
            c0.789,0.974,1.107,2.515,0.67,2.963c-0.273,0.279-1.243-0.508-1.243-0.508c-4.11-2.307-5.526-1.195-7.757-0.519
            c-0.318,0.097-0.656-0.762-0.249-1.609C107.577,49.36,109.653,49.014,111.005,48.973L111.005,48.973z M136.873,51.156
            c4.397,4.409,8.865,9.307,13.623,13.098c0.667,0.568,1.124,0.934,1.429,1.239c0.628,1.245,2.073,4.209,2.073,4.209
            c-5.1-3.564-16.587-15.856-16.46-15.774C137.654,53.986,136.577,51.679,136.873,51.156z M128.267,51.887
            c0.803-0.008,1.683,0.244,2.377,0.52c2.216,0.879,3.61,1.815,1.315,1.503c-3.193-0.434-4.284-0.457-5.454-0.27
            c-2.172,0.35-2.341,0.591-2.53,0.246C123.477,52.981,125.858,51.909,128.267,51.887z M110.139,52.146
            c0.801-0.005,1.671,0.172,2.521,0.544c2.709,1.184,3.186,1.955,0.88,1.584c-1.196-0.192-3.391-0.173-4.962,0.232
            c-0.498,0.128-1.049,0.417-1.178,0.458c-0.557,0.179-0.711-0.237-0.473-0.937C107.339,52.822,108.612,52.155,110.139,52.146z
            M129.748,55.601l0.56,0.041c-0.699,3.956-4.649,3.57-5.714,0.173l0.56-0.013C127.235,59.051,128.79,57.14,129.748,55.601
            L129.748,55.601z M131.949,55.807c1.826-0.021,1.708,1.075-0.193,1.812c-1.458,0.563-1.622,0.462-1.088-0.629
            C131.181,55.94,131.128,55.816,131.949,55.807z M113.138,55.948c0.179,3.564-4.788,4.218-5.093,0.331l0.473-0.023
            c1.627,3.057,3.507,1.212,4.094-0.307L113.138,55.948z M115.347,56.436c0.562,0.384,0.213,0.911-1.007,1.655
            c-1.102,0.686-1.385-0.144-0.478-1.292C114.243,56.429,114.869,56.122,115.347,56.436z M123.96,56.431
            c0.218-0.068,0.732,0.896,0.294,1.126c-0.262,0.137-0.647-0.258-0.69-0.549C123.53,56.778,123.675,56.521,123.96,56.431z
            M138.832,56.654c3.313,3.65,6.65,7.316,16.408,15.264c0,0,1.379,2.452,1.68,3.41c-0.237,0.292-0.361,0.259-1.046-0.08
            c-6.363-4.913-12.28-10.889-16.915-16.441C138.74,58.022,138.248,57.265,138.832,56.654z M107.236,57.018
            c0.376-0.013,0.907,0.828,0.614,1.333c-0.242,0.19-0.617-0.104-0.78-0.335c-0.162-0.229-0.157-0.651-0.057-0.838
            C107.072,57.07,107.149,57.021,107.236,57.018z M140.218,62.073c-0.026-0.127,15.412,15.521,17.393,15.222
            c0.922,0.543,3.216,4.99,3.216,4.99c0.066,0.141,0.056,0.401-0.316,0.218c-2.609-1.291-13.521-10.345-19.101-17.085
            C141.002,64.437,140.508,63.189,140.218,62.073z M121.866,64.371c2.692,1.301,1.534,3.968-1.307,2.271
            c-2.239-1.36-4.015-1.484-4.002-0.308c0.006,0.498,0.615,1.138,1.206,1.131c1.107,0.071,2.11,0.477,3.198,0.714
            c1.696,0.364,2.965-0.086,3.39-1.115c0.722-1.748-0.993-3.655-2.122-3.554C121.1,63.613,121.384,64.154,121.866,64.371
            L121.866,64.371z M143.184,68.649c-0.188-0.165,7.677,8.453,18.399,15.571c0.416,0.48,1.452,2.967,1.618,3.302
            c-0.043,0.234-0.279,0.005-0.279,0.005c-5.415-3.131-12.564-9.34-19.337-16.385c0,0-0.651-1.562-0.851-2.578
            C142.881,68.495,143.041,68.584,143.184,68.649z M125.319,71.751c-0.245,0.034-0.571,0.402-0.975,0.625
            c-0.825,0.454-1.086,0.574-3.112-0.033c-1.1-0.33-1.278-0.307-1.935,0.18c-0.574,0.425-0.893,0.495-1.533,0.208
            c-1.151-0.517-1.686-0.141-2.753,0.231c-1.016,0.368-1.364-0.08-2.279-0.288c-0.121,0.001-0.173,3.689-0.052,3.808
            c0.041,0.041,0.95-0.557,1.466-0.818c0.887-0.451,0.759-0.38,2.053-0.326c1.91,0.329,3.801,0.218,5.08-0.284
            c1.592-0.45,2.836-0.366,3.936,0.534c0.668,0.548,1.554,0.458,1.036-0.548c-0.179-0.348-0.583-1.629-0.535-2.105
            c0.073-0.712-0.085-1.168-0.35-1.183C125.35,71.75,125.334,71.749,125.319,71.751z M145.714,74.627
            c3.62,3.472,8.084,8.77,18.585,14.909c0.547,0.959,1.286,2.232,1.754,3.227c0.043,0.275-0.024,0.52-0.293,0.425
            c-6.488-4.112-10.096-6.11-19.09-14.975c-0.56-0.899-1.155-2.429-1.618-3.676C145.15,74.186,145.566,74.538,145.714,74.627z
            M144.187,75.951l4.016,7.54l-13.523-0.028C138.115,81.415,141.396,78.685,144.187,75.951z M121.771,76.122
            c-2.221,0.883-2.556,1.066-4.759,0.529c-1.283-0.312-0.931,0.432-0.274,0.739c1.662,0.778,4.068,0.229,4.961-0.387
            C122.287,76.625,122.69,75.757,121.771,76.122z M119.49,78.449c-2.325,0.032-4.52,0.843-4.683,1.788
            c-0.031,0.183,0.159,0.388,0.521,0.17c1.576-0.948,5.488-1.258,8.448-0.189c0.479,0.174,0.562-0.125,0.065-0.534
            C122.735,78.77,121.082,78.427,119.49,78.449z M149.006,81.67c4.377,4.04,8.602,7.757,18.023,13.165
            c0.678,1.479,1.659,3.249,1.832,3.403c-8.83-4.285-18.452-12.743-18.452-12.743s-1.515-2.697-1.862-3.854
            C148.516,81.252,148.883,81.573,149.006,81.67z M152.021,87.964c0,0,8.06,6.816,17.249,11.444c0.372,0.357,1.297,2.551,1.599,2.786
            c0.305,0.237-0.364,0.236-1.026-0.104c-4.809-2.215-15.122-9.304-15.122-9.304C153.731,91.165,152.315,89.478,152.021,87.964
            L152.021,87.964z M55.562,116.449c0.736-1.576,1.488-3.33,1.977-4.762c2.194,0.023,3.272-0.799,4.052-1.79
            c1.111-0.03,1.962-0.025,3.477-0.069c-0.05-1.497,0.02-3.616,0.02-3.616c1.535-1.581,2.576-3.406,0.196-6.2
            c0,0-0.096-1.302-0.131-3.522c-1.097-0.175-3.556-0.062-3.556-0.062c-1.988-2.798-5.515-2.093-6.584-0.001
            c0,0-1.585,0.087-2.672,0.091c-0.022,0.592-0.21,3.215-0.21,3.215s-4.635,3.161,0.174,6.886l-0.065,3.13
            c0.9,0.072,1.545,0.012,2.719,0.237c0,0-1.839,4.271-3.049,6.298c-0.413,0.108-0.314-0.129-0.815-1.545
            c-0.602-1.67-1.962-3.496-3.116-4.395c-1.564-1.207-3.705-1.581-5.198-2.63c-1.439-1.011-2.456-2.314-2.913-2.071
            c-0.149,0.507-0.314,3.423,0.227,5.297c0.764,3.083,5.198,5.048,8.902,6.523c0.284,0.184,0.538,0.462,0.539,0.562
            c0.005,0.51-0.487,0.353-1.703,0.231c-1.836-0.183-2.596,0.319-3.24,1.888c-0.192,0.387-0.649,1.053-1.021,1.495
            c-0.371,0.441-0.759,0.871-0.813,1.06c-0.054,0.188-0.436,1.139-0.813,1.935c-0.232,0.489-0.62,1.002-0.648,1.726
            c-0.086,2.21-0.119,5.178,0.213,7.048c0.244,1.374,1.98,2.164,2.578,2.275c0.918,0.172,1.085,1.102,0.941,1.863
            c-0.707,3.756-2.869,6.055-3.562,4.82c-0.183-0.324-0.375-1.859-0.426-1.84c-0.033,0.013-0.362,1.305-0.236,1.83
            c0.135,0.566,0.857,0.982,1.57,0.725c1.057-0.384,1.889-1.431,2.545-3.812c0.269-0.975,0.522-1.52,0.979-1.59
            c0.835,0.058,2.138,1.778,2.138,1.778c-4.337,3.614-12.687,10.177-12.687,10.177l-0.312-118.4l68.726,0.134
            c0.383,9.386-0.756,17.283-4.127,25.646C95.64,66.02,89.441,72.714,84.698,81.004c-5.727,10.01-7.561,20.392-5.609,30.835
            c-5.852,7.659-10.78,11.336-15.461,14.894c0,0-3.509-3.688-5.458-5.753c0,0,0.822-0.067,1.784-0.106
            c4.446-0.499,9.258-1.129,11.116-5.757c0.265-0.515,0.153-0.742-0.161-0.813c-3.48,0.482-6.506-0.007-8.479,0.133
            C57.601,114.777,55.562,116.449,55.562,116.449L55.562,116.449z M56.091,119.857c0,0-5.585-2.654-6-2.729
            c-2.435-0.441-8.307-3.502-9.299-5.582c-0.129-0.271-0.454-4.066-0.558-4.843c0.035-0.248,0.135-0.239,0.378-0.062
            c0.627,0.433,3.061,2.019,3.959,2.455c3.71,1.803,5.146,3.087,6.055,5.8c0.228,0.679,0.466,1.387,0.601,1.532
            c0.297,0.321,0.422,0.294,0.795,0.01c1.589-2.058,2.333-3.771,3.069-5.979c0.096-0.246,0.303-0.498,0.181-0.854
            c-0.291-0.976-1.004-2.238-0.274-3.192c-2.324,0.106-4.549-1.592-4.266-3.294c0.619-3.152,1.957-2.584,4.464-3.043
            c-0.29-7.292,6.535-5.521,6.518-0.442c7.498,0.631,3.955,7.564-0.4,6.504c1.728,3.939-3.462,5.417-4.19,4.747
            c-0.293,1.273-2.27,5.373-2.689,6.592c5.555-3.938,14.493-2.19,15.788-2.442C66.993,121.782,56.442,120.139,56.091,119.857z
            M156.125,95.004c1.41,1.087,13.373,8.567,15.58,8.736c0,0,1.058,1.187,1.931,2.267c0.812,1.005,1.112,1.163,1.206,1.366
            c0.093,0.202-0.307,0.192-0.374,0.185c-5.382-2.339-10.856-4.801-15.51-8.688c-0.628-0.533-0.769-0.776-1.078-1.183
            C157.47,97.144,156.252,95.206,156.125,95.004z M160.089,101.039c5.472,3.074,10.122,6.056,15.107,7.659
            c0.711,0.266,1.074,0.284,1.429,0.534c0.354,0.25,1.873,1.189,2.232,1.399c2.274,1.335,2.508,1.271,1.944,1.495
            c-0.625,0.248-4.619-0.919-7.994-2.166c-5.986-2.214-8.104-3.469-10.269-5.421C162.051,104.035,159.777,101.316,160.089,101.039z
            M51.014,118.187c0.461-0.011,1.199,0.276,1.968,0.865c0.822,0.631,2.841,1.95,3.675,2.309c0.427,0.183,0.56,0.229,0.56,0.229
            l5.381,6.107l-13.853,11.262c0,0-1.125-1.151-1.482-1.535c-0.339-0.364-0.241-0.667,0.181-1.079c0.339-0.33,0.364-1.048,0.308-1.4
            c-0.085-0.521-0.071-1.11,0.591-1.599c0.534-0.393,0.617-1.081,0.592-1.272c-0.021-0.152,0.289-0.655,0.752-0.993
            c0.972-0.709,1.265-1.571,0.937-2.587c-0.138-0.426-0.212-0.537,0.345-0.908c0.989-0.66,1.236-1.283,1.311-2.247
            c0.012-0.152-0.029-0.314-0.052-0.435c-0.195-1.025,0.709-0.766,1.452,0.52c0.404,0.701,0.521,1.852,0.724,3.16
            c0.239,1.543,0.403,1.963,0.487,1.745c0.48-1.245-0.087-5.921-1.509-6.556c-2.08-0.928-3.818-2.819-3.297-3.562
            c0.18-0.258,0.212-0.169,1.48,0.416c0.742,0.343,1.43,0.621,1.532,0.624c1.468,0.047,0.577-0.581,0.1-0.647
            c-0.574-0.08-2.291-1.124-2.493-1.49C50.366,118.504,50.552,118.197,51.014,118.187z M47.471,118.99
            c1.354-0.015,1.613,0.348,1.627,1.514c0.009,0.688,0.265,1.217,1.344,2.587c0.439,0.559,0.733,0.987,0.704,1.207
            c-0.047,0.361-0.178-0.014-1.669-0.189c-0.53-0.062-0.799-0.071-0.984,0.203c-0.514,0.762-1.601-0.031-2.271-1.154
            C44.627,120.482,45.19,119.016,47.471,118.99z M73.262,120.604l14.728,18.023l-1.661,1.29l-14.783-17.779L73.262,120.604z
            M70.799,121.71l1.578,2.663c0,0-4.563,3.899-5.764,5c-9.695,7.851-31.581,25.674-31.581,25.674l-0.295-3.585L70.799,121.71z
            M44.217,122.193c0.287,0.008,0.616,0.371,1.083,1.083c0.404,0.617,1.271,1.854,2.194,2.706c1.795,1.653,1.968,1.503,0.511,1.66
            c-0.579,0.062-0.768-0.007-1.12,0.875c-1.069,1.333-4.226-3.442-3.486-5.27C43.688,122.534,43.929,122.186,44.217,122.193z
            M49.354,124.771c0.266-0.013,0.616,0.088,1.026,0.336c0.781,0.32,0.833,0.507,0.704,1.253c-0.123,0.715-0.666,0.899-1.735-0.042
            C48.536,125.552,48.673,124.803,49.354,124.771L49.354,124.771z M72.86,125.212l1.73,2.233l-39.276,31.762l0.009-3.655
            C36.281,155.675,61.466,133.79,72.86,125.212L72.86,125.212z M42.401,125.574c0.104-0.021,0.269,0.338,0.705,0.994
            c0.887,1.334,1.701,2.213,2.63,2.913c0.878,0.662,0.976,1.031,0.373,1.036c-0.257,0.002-0.609,0.273-0.794,0.591
            c-0.372,0.64-0.404,0.488-0.979,0.151c-0.821-0.48-1.645-1.205-1.973-2.156c-0.309-0.896-0.344-2.26-0.09-3.255
            C42.317,125.675,42.353,125.585,42.401,125.574z M48.602,128.111c1.001-0.035,1.721,1.129,1.06,2.071
            c-0.368,0.358-0.7,0.531-1.434,0.1c-0.968-0.57-1.143-1.448-0.35-1.939C48.125,128.189,48.37,128.118,48.602,128.111z
            M42.159,130.631c0.21-0.01,0.589,0.294,1.225,0.946c0.488,0.5,1.336,0.927,1.675,1.116c0.761,0.425,0.797,0.572,0.383,0.913
            c-0.176,0.146-0.755,0.154-0.913,0.614c-0.449,1.317-2.357-0.213-2.54-2.095C41.897,131.17,41.888,130.644,42.159,130.631z
            M46.955,130.787c1.253,0.052,1.845,1.514,0.847,2.232c-0.544,0.392-1.915-0.3-2.053-1.017
            C45.66,131.541,46.48,130.768,46.955,130.787z M76.242,131.873c0.727,0,1.315,0.589,1.315,1.315s-0.589,1.314-1.315,1.314
            s-1.314-0.588-1.314-1.314S75.516,131.873,76.242,131.873z M72.312,132.417c0.727,0,1.315,0.589,1.315,1.315
            s-0.589,1.315-1.315,1.315c-0.726,0-1.314-0.589-1.314-1.315S71.586,132.417,72.312,132.417z M45.972,134.174
            c0.079-0.005,0.164-0.004,0.25,0c1.207,0.059,1.271,1.207,0.554,1.826c-0.429,0.369-0.816,0.485-1.371,0.042
            C44.413,135.249,44.78,134.241,45.972,134.174z M75.24,136.098c0.727,0,1.314,0.588,1.314,1.314s-0.588,1.315-1.314,1.315
            s-1.32-0.589-1.32-1.315S74.514,136.098,75.24,136.098z M190.688,136.175l0.062,3.325l-46.44,38.63l-1.571-2.052L190.688,136.175z
            M72.571,136.458l-3.433,7.71l-1.031-1.987l-2.567-0.001l0.788-2.3l-1.513-1.839L72.571,136.458z M145.653,168.526l6.111-4.899
            c-2.631-13.272,7.87-18.554,17.842-14.698l6.205-5.288C164.297,133.946,137.224,140.521,145.653,168.526z M62.98,142.583
            c0.727,0,1.315,0.589,1.315,1.315s-0.589,1.314-1.315,1.314s-1.314-0.588-1.314-1.314S62.253,142.583,62.98,142.583z
            M58.988,142.905c0.727,0,1.273,0.547,1.273,1.273s-0.547,1.361-1.273,1.361s-1.314-0.593-1.314-1.319
            S58.261,142.905,58.988,142.905z M80.236,145.574l-6.059,4.851c1.565,12.709-4.617,19.181-17.907,14.823l-6.429,5.1
            C67.207,182.292,89.934,166.896,80.236,145.574L80.236,145.574z M61.589,146.722c0.727,0,1.315,0.589,1.315,1.315
            s-0.589,1.314-1.315,1.314s-1.314-0.588-1.314-1.314S60.863,146.722,61.589,146.722z M189.036,147.056
            c0.727,0,1.32,0.588,1.32,1.314s-0.594,1.315-1.32,1.315s-1.314-0.589-1.314-1.315S188.31,147.056,189.036,147.056z M58.868,147.369
            l-3.873,7.663l-0.965-2.308l-2.601,0.036l0.84-2.675l-1.627-1.374L58.868,147.369z M183.834,148.176l1.204,2.027l2.543,0.062
            l-0.956,1.93l1.836,1.893l-8.285,2.035L183.834,148.176z M49.626,153.74c0.727,0,1.319,0.589,1.319,1.315s-0.593,1.314-1.319,1.314
            s-1.314-0.588-1.314-1.314S48.9,153.74,49.626,153.74z M45.842,153.887c0.727,0,1.319,0.589,1.32,1.315
            c0,0.727-0.594,1.314-1.32,1.314s-1.314-0.588-1.314-1.314S45.115,153.887,45.842,153.887z M177.428,154.669
            c0.727,0,1.315,0.588,1.315,1.314s-0.589,1.315-1.315,1.315s-1.314-0.589-1.314-1.315S176.701,154.669,177.428,154.669z
            M190.73,154.872l0.058,2.921c-12.116,10.694-37.597,31.336-37.597,31.336l-1.586-2.036
            C151.605,187.093,177.528,165.909,190.73,154.872z M48.477,157.721c0.727,0,1.315,0.589,1.315,1.315s-0.589,1.319-1.315,1.319
            s-1.314-0.593-1.314-1.319S47.75,157.721,48.477,157.721z M180.119,158.037c0.727,0,1.315,0.588,1.315,1.314
            s-0.589,1.319-1.315,1.319s-1.314-0.593-1.314-1.319S179.393,158.037,180.119,158.037z M176.397,158.274
            c0.727,0,1.315,0.588,1.315,1.314s-0.589,1.32-1.315,1.32s-1.319-0.594-1.319-1.32S175.67,158.274,176.397,158.274z M191.096,158.74
            l-0.11,3.717c-11.741,10.01-35.758,29.894-35.675,29.905l-1.813-2.505C153.497,189.857,179.823,167.18,191.096,158.74z
            M46.064,158.193l-3.622,8.172l-1.563-2.2l-2.287-0.155l0.545-2.211l-2.1-1.427L46.064,158.193z M171.67,161.421l2.312-0.439
            l-0.403,2.367l1.626,1.706l-8.52,1.872l4.117-7.638L171.67,161.421z M184.4,201.234c1.727,2.584,1.617,5.406,0.895,5.839
            c-0.763-0.429-1.424-1.174-2.213-1.515c-3.97-1.712-7.139-3.117-7.706-5.636C173.214,194.226,182.959,199.085,184.4,201.234z
            M163.537,186.103l13.354-10.873c0,0,2.048,1.056,2.435,1.535c0.138,0.527-0.231,0.688-0.775,1.18
            c-0.25,0.32-0.406,0.629-0.421,1.321c-0.015,0.746,0.231,1.081-0.07,1.409c-0.503-0.025-0.905,0.632-0.884,1.164
            c0.017,0.406-0.515,0.855-0.826,1.162c-0.553,0.543-0.715,0.655-1.069,2.496c-0.035,0.184-0.022,0.663-0.282,0.911
            c-0.772,0.068-1.332,1.959-1.685,2.079c-0.563-0.036-1.459-0.726-1.678-1.743c-0.142-0.661-0.104-1.945,0.053-2.772
            c0.187-0.985,0.271-1.878,0.208-2.115c-0.144-0.548-0.506-0.211-0.501,0.559c0.002,0.312-0.118,1.25-0.316,2.133
            c-0.199,0.886-0.739,2.062-0.496,2.76c0.362,1.041,1.695,1.481,2.296,2.032c1.581,1.449,1.926,2.157,2.105,2.479
            c1.264,2.312,1.268,2.705,0.951,4.444c-0.182,1.001-1.158,0.83-1.745,0.424c0,0-3.755-2.732-5.39-4.09
            C166.326,190.54,164.588,188.44,163.537,186.103z M168.605,193.574c1.433,0.579,5.162,3.285,5.162,3.285l-3.396,7.066
            c0.618,1.106,0.867,3.854,0.867,3.854c4.296-0.329,6.623,6.912-0.067,6.243c0.764,4.476-6.447,7.983-6.25-0.037
            c-7.51,0.583-4.988-7.925-0.36-6.328c-0.139-3.605,2.265-4.072,3.96-4.958c1.391-1.572,2.243-5.132,2.243-5.132l-0.339-1.086l0,0
            c-1.425,2.488-7.488,3.202-14.152,1.883C158.076,194.091,163.549,194.212,168.605,193.574L168.605,193.574z M155.354,198.953
            c-0.227,0.852-0.232,0.842,0.795,0.737c0.52-0.053,2.608-0.048,4.066,0.01c2.681,0.209,6.901,0.228,9.018-1.386
            c0.41-0.391,0.636-0.364,0.712-0.15c0.181,1.042-1.875,4.469-1.875,4.469l-3.393,1.876c0,0-1.389,0.064-3.11,0.023l-0.029,3.052
            c-1.349,0.798-3.662,4.214,0.056,6.832l-0.122,3.324l3.277,0.061c2.176,2.082,3.946,2.072,5.943,0.111l3.779,0.003l-0.016-3.59
            c1.863-1.498,2.128-4.039,0.224-6.069l-0.047-3.644l-2.907,0.019c0,0-0.602-0.466-0.619-0.836c-0.002-0.239,2.123-4.334,2.53-4.919
            c0.528-0.76,0.385-0.325,1.23,1.43c1.21,2.511,2.407,3.535,5.474,5.018c2.737,1.323,3.715,1.94,4.509,2.698
            c0.632,0.604,1.005,0.413,1.249-0.487c0.527-2.002,0.365-4.007-0.737-5.839c-2.328-3.869-6.383-4.048-7.027-4.942
            c-0.085-0.214,0.741-0.461,1.628-0.857c1.535-0.933,3.781-3.753,4.07-4.885c-0.053-0.546,0.308-2.265,0.573-2.645
            c0.306-0.676,0.34-0.991,0.326-2.805c-0.274-1.035-0.024-2.384,0.104-2.848c0.139-0.941-0.361-2.051-1.071-3.412
            c-0.267-1.265-0.205-0.936,0.613-3.784c0.133-0.46,1.053-4.428-0.124-4.7c0.015,0.035,0.123,0.157,0.156,0.223
            c0.198,0.397,0.307,2.111,0.128,2.597c-0.071,0.192-0.205,0.689-0.298,1.106c-0.714,3.188-1.135,3.988-1.78,3.291
            c-0.153-0.166-0.742-0.402-1.195-0.703c-0.856-0.568-0.783-0.847-0.572-1.911c0.052-0.161,0.391-1.624,0.354-1.58
            c-0.186,0.503-0.31,1.801-0.894,2.105c-0.313,0.072-0.746-0.206-1.562-0.908c-0.311-0.269-0.978-0.736-0.978-0.736
            s9.651-8.123,13.239-10.816l-0.032,120.31l-68.218,0.029c-0.854-7.452,1.387-17.312,5.098-27.187
            c2.294-6.104,5.588-10.631,9.303-16.095c7.122-10.418,12.51-20.995,10.433-34.405c-0.271-1.99-0.545-2.943-0.451-3.479
            c0.865-1.624,4.299-6.549,6.809-8.599c3.684-3.009,8.809-7.504,9.22-7.237c1.223,2.359,2.672,4.27,4.589,5.71
            c0.337,0.366,0.346,0.688-0.433,0.852C162.285,193.338,157.051,194.455,155.354,198.953L155.354,198.953z M36.893,164.773
            c0.727,0,1.315,0.589,1.315,1.315s-0.589,1.314-1.315,1.314s-1.314-0.588-1.314-1.314S36.166,164.773,36.893,164.773z
            M164.424,165.071c0.727,0,1.314,0.589,1.314,1.315s-0.588,1.314-1.314,1.314s-1.315-0.588-1.315-1.314
            S163.698,165.071,164.424,165.071z M167.288,168.678c0.728,0,1.315,0.589,1.315,1.315s-0.588,1.314-1.315,1.314
            c-0.727,0-1.314-0.588-1.314-1.314S166.562,168.678,167.288,168.678z M163.033,169.238c0.727,0,1.314,0.589,1.314,1.315
            s-0.588,1.314-1.314,1.314s-1.315-0.588-1.315-1.314S162.307,169.238,163.033,169.238z M158.334,172.235l2.378-0.117
            c-0.298,0.854-0.458,1.736-0.627,2.621l1.937,1.422l-8.379,1.426l3.61-7.425L158.334,172.235z M152.618,193.887l-14.109-18.219
            l1.702-1.376l14.223,18.02L152.618,193.887z M150.895,176.187c0.727,0,1.315,0.588,1.315,1.314s-0.589,1.315-1.315,1.315
            s-1.314-0.589-1.314-1.315S150.168,176.187,150.895,176.187z M180.531,178.227c1.144,0.89,0,2.137-1.094,1.645
            c-0.948-0.4-0.877-1.362-0.129-1.747C179.774,177.903,180.129,177.957,180.531,178.227z M182.053,179.075
            c1.173,0.019,2.47,2.8,2.231,3.617c-0.35,0.951-0.671,0.985-2.326-0.415c-1.636-1.384-1.659-1.441-0.998-2.19
            C181.327,179.662,181.503,179.102,182.053,179.075L182.053,179.075z M154.145,179.582c0.727,0,1.314,0.589,1.314,1.315
            s-0.588,1.319-1.314,1.319s-1.315-0.593-1.315-1.319S153.418,179.582,154.145,179.582z M150.068,180.089
            c0.726,0,1.314,0.588,1.314,1.314s-0.588,1.315-1.314,1.315c-0.728,0-1.315-0.589-1.315-1.315S149.34,180.089,150.068,180.089z
            M178.95,181.027c1.298,0.192,1.638,1.173,1.041,1.901c-0.812,0.986-2.631,0.091-2.199-1.083
            C177.988,181.312,178.461,181.036,178.95,181.027L178.95,181.027z M181.279,182.507c0.509-0.043,1.273,0.659,2.111,1.824
            c0.941,1.31,1.018,1.731,0.751,2.53c-0.389,1.164-0.632,1.378-1.477,0.243c-0.319-0.428-1.059-1.431-1.587-1.983
            c-1.127-1.181-1.303-0.881-0.631-1.782C180.758,182.921,180.974,182.533,181.279,182.507z M178.228,183.883
            c1.166,0.603,1.278,1.386,0.589,1.94c-0.811,0.443-2.241-0.083-2.519-0.886C175.892,183.764,177.137,183.169,178.228,183.883z
            M180.203,185.616c0.659-0.041,1.203,0.64,2.009,1.941c1.374,2.218,1.449,2.964,0.278,4.426c-0.843,1.052-0.928,1.108-1.752-0.567
            c-0.674-1.37-1.955-2.974-3.141-3.936c-0.496-0.402-0.67-0.965-0.312-1.003c0.104-0.011,0.543-0.031,0.975-0.048
            c0.634-0.022,0.863-0.108,1.211-0.449C179.7,185.756,179.946,185.633,180.203,185.616z M175.47,187.347
            c0.613-0.029,1.406,0.303,1.996,0.988c0.669,0.703,0.589,1.347-0.724,1.477c-0.592,0.231-2.201-0.824-2.209-1.533
            C174.527,187.685,174.929,187.373,175.47,187.347z M178.565,189.918c0.032-0.001,0.063-0.001,0.095,0
            c0.552,0.026,0.836,0.559,1.456,1.803c0.951,1.909,0.677,2.948-0.968,3.794c-1.116,0.572-1.967,0.744-2.11,0.089
            c-0.042-0.19-0.043-0.74-0.135-1.274c-0.123-0.712-0.286-1.453-0.916-2.402c-1.005-1.515-1.183-2.053-0.08-1.606
            c0.584,0.236,1.219,0.209,1.887-0.142C178.088,190.024,178.338,189.931,178.565,189.918L178.565,189.918z M172.988,192.989
            c-0.383-0.008-0.628,0.227-0.525,0.852c0.348,0.171,0.896,0.012,1.311,0.161c0.559,0.201,0.903,1.108,1.499,0.96
            C175.335,194.197,173.829,193.007,172.988,192.989L172.988,192.989z M59.143,206.3c-3.074-1.465-10.689-4.854-14.357-4.902
            c-6.803-1.909-7.26-1.042-9.646-1.653c12.627-3.274,21.317,3.021,24.499,6.08C61.084,207.264,60.297,206.851,59.143,206.3z
            M67.183,236.066c7.225,12.532,13.959,26.669,25.257,47.602l-1.086,0.339l-43.083,0.077c2.133-23.125-10.363-45.158-11.209-44.294
            c9.76,0.18,17.861-1.703,19.572-5.299l-1.392-0.398c-5.68,4.901-13.907,5.127-19.584,3.611c0.129-12.049-0.549-24.775-0.174-36.821
            c6.71-0.5,11.956,1.961,15.675,6.864C57.412,215.99,61.653,226.471,67.183,236.066z M47.424,202.679
            c1.728-0.132,11.158,3.748,15.377,6.646c1.172,1.212,2.884,3.317,2.886,3.523c0.007,0.561-0.825-0.131-4.9-2.455
            c-3.084-1.734-6.283-3.118-9.397-4.447c-0.143-0.062-0.428-0.184-0.428-0.184s-0.231-0.266-0.627-0.571
            C49.225,204.333,47.07,202.811,47.424,202.679L47.424,202.679z M52.008,207.073c-0.093-0.018,9.354,3.404,16.87,9.39
            c0.999,0.796,2.227,3.765,2.227,3.765c-0.671-1.262-12.543-8.365-16.711-9.992C54.388,210.231,52.008,207.073,52.008,207.073z
            M55.339,211.616c0.515-0.31,14.33,7.845,16.354,9.95c0.918,0.702,3.067,4.11,3.075,4.796c0.007,0.61-0.665,0.084-1.901-1.06
            c-6.362-5.94-15.554-10.418-15.629-10.319L55.339,211.616z M57.903,216.354c6.487,2.745,14.636,9.345,18.748,13.272
            c1.029,1.019,1.763,2.493,1.902,3.179c0.086,0.426-0.129,0.397-0.213,0.625c-5.33-6.118-17.044-13.101-18.598-13.646
            C59.754,220.17,58.454,217.411,57.903,216.354z M79.442,235.416c0.747,0.761,1.93,3.43,1.665,3.756
            c-0.13,0.16-0.117,0.075-0.431-0.143c-1.705-1.696-10.466-9.469-17.774-13.829c-0.688-0.343-2.988-3.973-2.501-4.042
            C64.222,222.405,75.151,231.13,79.442,235.416L79.442,235.416z M63.634,226.741c0.126,0.009,0.355,0.171,0.747,0.388
            c6.723,3.708,16.466,13.044,18.313,15.289c0.42,0.691,1.081,1.96,1.033,2.737c-0.084,0.611-0.329,0.092-3.047-2.583
            c-4.367-4.276-9.391-8.415-14.715-11.892c-1.023-0.703-0.828-0.793-1.57-2.086C63.651,227.298,63.356,226.721,63.634,226.741
            L63.634,226.741z M106.625,226.883c4.8,0.137,6.677,3.771,9.633,10.468c2.419,6.6,3.422,12.646,3.533,17.459
            c0.007,0.322-0.58,0.048-0.847-0.024c-1.285-0.345-2.886-0.667-4.74-0.198c-1.361,0.344-2.656,0.306-1.258-0.61
            c0.451-0.295,1.673-1.426,2.322-1.83c1.316-0.819,0.516-0.81-0.79-0.166c-0.988,0.487-1.649,1.104-2.058,1.201
            c-0.251,0.061-0.095-0.768,0.147-1.362c1.396-3.433,1.818-5.465-0.261-6.102c-0.562-0.172-1.321-0.692-1.679-1.04
            c-0.286-0.278-0.529-1.389-0.62-1.434c-0.096-0.048-0.162,1.012-0.16,1.173c0.006,0.552,0.714,1.669,1.565,2.28
            c1.445,1.037,1.731,1.323,0.945,3.779c-1.101,3.439-1.335,4.282-1.537,5.08c-0.116,0.459-0.341,1.239-0.454,1.745
            c-0.436,1.95-0.383,3.653-0.303,5.274c0.476,3.62,4.379,5.406,9.617,3.396c0.496-0.192,0.702-0.019,0.702-0.019
            c-4.173,4.244-8.856,6.956-11.586,15.531c-3.511-7.074-8.483-12.617-16.749-14.839l-0.122-1.478
            c2.883,1.383,8.473,3.264,12.021,1.149c1.899-1.297,1.321-2.134-0.984-1.239c-2.745,1.065-7.703,0.941-10.179-0.454
            c-0.504-0.284-1.018-0.039-1.163,0.01c-0.129-0.832-1.32-3.966-1.146-5.144c-0.102-0.165,0.754-0.173,0.919,0.047
            c0.685,0.914,4.162,3.637,7.775,3.424c1.797-0.105,3.274-0.651,4.835-2.298c0.13-0.116,0.766-0.199,0.852-0.296
            c0.14-0.156,0.039-0.39,0.033-0.474c-0.038-0.125-0.272-0.469-0.426-0.855c-0.201-0.339-0.242-0.691-0.208-0.963
            c0.004-0.227,0.154-0.346,0.271-0.504c0.135-0.303,0.098-0.688,0.022-0.894c-0.32-0.217-0.281-0.621-0.109-0.809
            c0.488-0.553-4.208-4.84-5.127-4.83c-0.332,0.004-0.137,0.616,0.539,1.064c2.387,1.586,4.127,3.655,3.731,3.926
            c-0.304,0.209-1.373-0.248-2.461-0.505c-2.185-0.512-4.807-0.838-7.651,1.215c-1.064,0.874-3.878,1.005-3.878,1.005
            c-0.035-1.532-6.511-18.643-6.523-17.899c2.355-2.746,9.758-9.249,17.176-12.052C102.53,227.044,104.981,226.662,106.625,226.883
            L106.625,226.883z M78.504,230.713l13.464,0.208c-3.385,1.703-9.536,7.815-9.536,7.815C80.673,235.197,80.135,233.43,78.504,230.713
            z M66.865,232.489c1.004,0.005,11.69,8.714,13.211,10.771c0.184,0.247,1.266,1.391,2.408,2.535c2.764,2.771,3.903,4.372,3.916,5.515
            c0.006,0.54-0.487,0.188-1.225-0.624c-5.536-6.15-9.138-9.489-15.979-14.204c-0.776-0.416-3.188-3.625-2.37-3.983
            C66.838,232.493,66.849,232.489,66.865,232.489L66.865,232.489z M103.421,234.092c-0.301-0.011-0.251,0.278-0.088,0.544
            c1.696,1.499,6.174,1.433,7.718,0.222c1.4-1.099-0.437-0.52-1.008-0.274c-1.338,0.574-2.772,0.51-4.636,0.015
            C104.322,234.31,103.722,234.102,103.421,234.092L103.421,234.092z M107.55,236.532c-1.565,0.015-3.202,0.484-2.838,1.06
            c0.133,0.21,0.562,0.604,1.585,0.047c1.478-0.73,4.513,0.228,4.603,0.251c0.31,0.082-1.01-0.869-1.452-1.064
            C108.959,236.611,108.262,236.526,107.55,236.532z M69.821,238.159c5.743,3.514,12.739,10.545,16.938,15.566
            c0.699,0.865,1.204,1.929,1.211,2.555c0.01,0.901-0.183,0.402-3.997-3.463c-2.991-3.061-7.506-7.226-10.496-9.469
            c-1.796-1.309-2.115-1.479-2.961-3.032C69.723,238.86,69.437,238.137,69.821,238.159z M105.602,239.332
            c-1.08,0.514-2.513,0.404-3.907-0.075c-1.263-0.435-0.967-0.062-0.487,1.314c0.219,0.627,0.354,1.516,0.354,1.646
            c0.004,0.307,0.004,0.328,0.895-0.17c0.776-0.435,0.94-0.584,2.597-0.199c1.684,0.392,1.711,0.247,2.502-0.165
            c0.689-0.359,0.833-0.575,1.304-0.386c0.924,0.372,1.968,0.53,3.151-0.092c0.907-0.478,1.203-0.155,1.623,0.057
            c0.57,0.286,0.791,0.104,0.567-0.464c-0.089-0.227-0.255-1.197-0.26-1.504c-0.009-0.583-0.152-1.107-0.397-0.984
            c-0.905,0.455-1.641,0.939-2.504,0.924C109.456,239.205,108.068,238.254,105.602,239.332L105.602,239.332z M35.614,240.531
            c14.314,17.833,11.785,43.541,11.309,43.333l-11.219,0.049L35.614,240.531z M72.859,244.135c5.718,4.009,12.522,10.998,16.294,15.83
            c0.642,0.835,0.119,1.098,0.439,2.104c0.118,0.374-0.515-0.177-2.331-2.128c-2.264-2.431-5.984-6.085-8.434-8.207
            c-2.685-2.323-3.459-2.908-4.031-3.693C74.346,247.384,72.508,244.227,72.859,244.135L72.859,244.135z M105.038,245.775
            c-0.062-0.001-0.121,0.002-0.18,0.005c-2.035,0.096-3.068,2.376-1.325,3.987c0.656,0.606,1.697,0.965,1.693,0.639
            c-0.001-0.077-0.328-0.405-0.558-0.582c-1.453-1.116-1.304-2.857,0.35-2.875c0.573-0.007,0.609,0.197,1.935,1.148
            c1.56,1.119,3.399,1.121,3.378-0.004c-0.017-0.827-0.325-1.674-1.718-1.537c-0.365,0.035-0.854,0.074-1.281-0.033
            c-0.41-0.104-0.761-0.354-0.923-0.426C105.924,245.881,105.461,245.781,105.038,245.775z M76.575,251.026
            c4.374,2.937,10.386,9.577,13.459,13.494c0.704,0.918,0.751,1.933,0.466,2.479c-0.067,0.108-0.605-0.227-0.605-0.227
            c-3.553-4.184-7.581-7.987-11.536-11.849C78.359,254.923,76.009,251.144,76.575,251.026z M118.982,257.378l-0.945,0.469
            c-1.432-2.146-2.742-2.176-3.839,0.332l-0.703-0.177C112.97,257.424,115.38,251.971,118.982,257.378z M118.769,255.547
            c0.395,0.014,1.084,0.228,1.244,0.629c0.18,0.371-0.021,0.79-0.562,0.771c-0.082-0.003-0.605-0.645-0.865-1.037
            C118.393,255.67,118.476,255.539,118.769,255.547z M102.704,258.173l-1.058,0.049c-2.015-2.646-3.521-0.87-4.424,0.234l-1.132-0.154
            C96.272,255.396,101.41,254.383,102.704,258.173L102.704,258.173z M112.994,255.913c0.159,0.003,0.315,0.032,0.463,0.09
            c-0.416,0.632-0.487,1.159-0.581,1.73c-0.412,0.171-0.998,0.525-1.434,0.071C110.632,257.069,111.879,255.892,112.994,255.913z
            M96.473,256.209c0.499,0.002,0.35-0.03,0.133,0.248c-0.219,0.283-0.519,0.785-0.679,1.235c-0.067,0.312-0.119,0.426-0.412,0.436
            c-0.56,0.018-1.691-0.182-1.685-0.174C93.401,257.548,95.181,256.253,96.473,256.209L96.473,256.209z M102.87,256.579
            c0.334-0.04,0.256,0.437,0.148,0.623c-0.211,0.249-0.295,0.33-0.412,0.021c-0.058-0.149-0.144-0.268-0.216-0.356
            c-0.165-0.212-0.146-0.223,0.058-0.259C102.54,256.592,102.753,256.581,102.87,256.579z M120.156,258.693
            c1.231-0.032,0.408,2.058-1.306,2.563c-1.893,0.959-4.063,0.729-6.272-0.529c-1.26-0.719-1.642-1.476-0.544-1.173
            c4.136,1.139,5.142,0.928,7.637-0.687C119.819,258.741,119.977,258.71,120.156,258.693z M80.36,258.24
            c4.118,3.488,7.218,7.439,10.51,11.081c0.656,0.812,0.964,1.594,0.838,2.123c-0.158,0.66-1.51-0.912-1.51-0.912
            c0.034,0.015-8.037-8.602-8.037-8.602S80.112,258.259,80.36,258.24z M92.665,259.445c0.285,0.01,0.853,0.143,1.769,0.379
            c3.961,1.2,5.16,1.156,7.437,0.111c1.45-0.667,2.05-0.57,1.43,0.431c-1.144,1.844-5.18,2.048-8.209,1.019
            c-0.802-0.272-1.507-0.75-2.279-1.329C92.397,259.624,92.297,259.433,92.665,259.445z M110.932,260.666
            c0.237-0.016,0.68,0.257,1.217,0.562c3.318,1.882,5.768,1.536,7.812,0.274c0.37-0.337,0.57-0.176,0.62,0.151
            c0.174,1.146,0.226,1.97-0.299,2.521c-0.304,0.32-0.822,0.466-1.604,0.729c-3.212,1.08-7.123,0.309-7.871-2.102
            C110.565,261.563,110.41,260.699,110.932,260.666L110.932,260.666z M84.602,265.835c0.012-0.002,0.024-0.002,0.038,0
            c0.232,0.035,0.769,0.503,1.613,1.462c4.416,5.009,6.86,7.888,6.414,9.337c-0.041,0-0.069,0.312-0.256,0.151
            c-2.429-2.098-4.412-4.391-5.889-6.788C84.905,267.37,84.239,265.866,84.602,265.835z M120.207,269.36
            c-3.727,2.85-8.248,9.633-8.653,12.974c-0.078,0.639-0.01,1.117-0.246,1.349c-0.188,0.184-0.608,0.2-1.173,0.09
            c-0.346-0.063-0.263-0.102-0.345-0.492c-0.321-1.529,1.145-5.378,4.176-9.914c1.591-2.38,5.204-5.594,6.214-5.615
            C120.854,268.028,120.199,269.391,120.207,269.36z M92.611,267.813c0.263-0.008,0.67,0.13,1.239,0.373
            c3.346,1.436,4.594,1.957,6.759,3.723c4.035,3.29,8.521,11.104,7.204,11.835c-0.578,0.32-0.988,0.118-1.224-0.607
            c-0.043-0.132-0.466-1.227-0.972-2.155c-2.704-4.971-6.223-8.39-11.182-10.808c-1.831-0.894-2.018-0.795-2.156-1.543
            C92.174,268.07,92.272,267.822,92.611,267.813z M120.154,270.684c0.335-0.028,0.415,0.583,0.302,1.814
            c-0.093,1.003-0.152,0.982-1.271,2.158c-1.788,1.448-3.902,4.848-4.882,8.311c0.002,0.121-0.091,0.385-0.26,0.53
            c-0.46,0.395-1.041,0.202-1.438,0.193c-0.285-0.151-0.207-0.778-0.155-1.13c0.817-3.144,2.831-7.005,5.988-10.396
            C119.324,271.21,119.858,270.708,120.154,270.684L120.154,270.684z M93.306,270.774c1.771-0.041,8.066,4.662,10.614,8.778
            c1.665,2.691,2.114,3.795,1.73,4.187c-0.202,0.207-1.098,0.24-1.565,0.057c-0.426-0.167-0.589-0.815-1.386-2.313
            c-2.08-3.907-5.076-6.739-8.32-8.234c-0.604-0.278-0.927-0.455-1.121-0.671C93.04,272.128,92.762,270.867,93.306,270.774z
            M94.261,274.269c0.55,0.104,2.072,1.091,3.344,2.024c2.25,1.651,5.675,6.698,4.967,7.422c-0.227,0.231-1.013,0.24-1.417,0.082
            c-2.409-4.288-5.536-6.329-6.806-7.521C93.963,275.629,93.064,274.103,94.261,274.269z M89.257,275.026
            c0.104-0.026,0.525,0.389,1.291,1.192c2.261,2.373,3.694,5.004,3.363,6.333c-0.281,1.124-0.61,0.509-3.198-4.427
            C89.625,276.046,89.105,275.065,89.257,275.026z M120.187,275.092c0.052,1.365-0.059,1.702-0.204,2.427
            c-0.098,0.493-0.424,0.723-0.732,1.106c-0.769,0.957-1.643,2.613-2.081,3.949c-0.37,1.079-0.196,1.338-1.523,1.192
            c-0.619-0.081-0.47-0.248-0.228-0.96C116.254,280.468,118.261,276.678,120.187,275.092L120.187,275.092z M94.491,277.665
            c0.027-0.701,6.065,5.376,5.236,6.061c-0.786,0.138-1.254,0.166-1.582-0.114c-0.646-1.445-3.521-4.187-3.521-4.187L94.491,277.665z
            M119.851,279.58c0.014-0.003,0.025-0.002,0.038,0c0.27,0.056,0.12,3.793-0.104,4.102c-0.43,0.217-1.244,0.236-1.679,0
            c-0.267-0.145-0.347-0.411-0.246-0.7C118.11,282.258,119.418,279.67,119.851,279.58z M97.063,283.691
            c-0.19,0.297-1.365,0.35-1.809,0.015c-0.142-0.107-0.28-1.961-0.115-2.297C95.59,281.115,97.212,283.291,97.063,283.691z"/>
        <path d="M140.011,29.779l0.757,0.993l-4.423,0.023c0.724,0.61,17.109,33.586,38.062,71.684c3.469,6.687,10.085,9.097,17.767,9.39
            l-20.349-32.771c2.167-1.181,6.47-4.341,9.073-3.754c0.161,0.8,0.934,0.481,0.944-0.229l0.941,0.019l0.331,0.516h3.955l0.323-0.466
            l3.408,0.49c-9.109-11.229-13.915-28.532-12.354-45.423l-30.211,0.066l-0.402-0.53L140.011,29.779z M136.345,30.795
            c-0.017-0.015-0.028-0.021-0.028,0H136.345z M101.613,52.776c-3.435,11.092-11.929,20.218-16.972,29.406
            c-5.407,10.026-6.678,18.753-5.156,28.296l0.989,0.085c11.525-15.723,20.452-34.507,25.447-52.979
            c0.108-0.402-0.078-1.113,0.015-1.521c-0.214-0.488-0.027-1.017,0.108-1.158c0.29-0.306,0.183-1.505-0.033-3.486
            c-0.544-5.887-0.437-10.507,0.055-15.843c0.379-4.097,0.357-4.741,0.357-4.741l-1.973-0.029
            C104.815,37.778,103.893,46.369,101.613,52.776L101.613,52.776z M149.06,31.278l3.241,0.066c0.5,9.908,8.846,11.197,10.136,11.053
            c-2.131,6.7,1.396,14.054,9.891,15.098c-1.948,6.212,1.501,14.4,8.296,14.178l0.719,0.454c-0.438,0.895-0.532,2.734-0.506,2.763
            c-1.512,0.11-2.33,0.33-3.312,0.524C168.742,62.172,149.06,31.278,149.06,31.278z M177.875,31.278
            c-0.982,11.068,1.238,26.271,6.438,35.253c0,0-0.166,0.603-0.274,0.767c-0.495,0.746-0.74,0.101-1.041-0.502
            c-1.107-2.045-3.198-2.363-4.115-1.225c-2.023,2.758,0.171,3.846,1.874,5.402c-6.96-0.425-9.28-8.084-7.671-11.873
            c-0.036,0.723,0.352,1.813,0.861,2.587c1.956,2.967,4.812,0.464,3.993-1.883c-0.338-0.971-1.586-2.59-1.586-2.59
            s1.694-0.25,2.387-0.669c0.647-0.401,1.056-1.112,0.89-2.086c-0.134-0.78-0.168-1.122-0.587-1.825
            c-0.514-0.642-1.433-1.085-2.169-1.035c-1.438,0.096-1.612,1.084-2.552,1.761c-0.234-1.78-1.374-3.135-3.236-2.798
            c-1.416,0.256-2.437,1.762-1.568,3.647c0.438,0.963,1.054,1.255,1.674,2.09c-10-1.119-8.91-12.993-7.804-12.781
            c0,0,0.301-0.056,0.212,0.398c-0.57,2.905,3.039,4.642,4.621,2.53c1.008-1.713-1.158-4.416-1.158-4.416s1.442-0.31,2.098-0.688
            c2.611-1.506-0.171-5.832-2.602-4.77c-0.853,0.388-1.069,1.178-1.901,1.6c-0.556-0.619-0.59-1.296-1.589-1.853
            c-2.742-1.526-4.457,2.085-2.938,3.675c0.622,0.644,1.721,1.23,1.506,1.31c-8.502-1.074-8.419-9.972-8.225-9.909L177.875,31.278z
            M104.798,31.352h1.171c-0.347,5.278-1.097,12.242-0.605,17.389c0.572,4.917,0.598,5.614,0.245,6.103
            c-0.482,0.542-0.228,0.797-0.132,1.239c0.127,0.808,0.139,0.816,0.023,1.276c-1.03,4.127-2.348,8.404-4.021,12.729
            c-5.471,15.085-14.396,31.532-21.396,40.158c-0.005-0.031-0.319,0.027-0.324-0.004c-1.916-12.036,2.178-22.068,4.314-26.186
            c4.332-8.349,11.137-15.475,15.178-24.221C102.69,52.394,105.226,43.449,104.798,31.352L104.798,31.352z M147.867,31.301
            l28.513,44.34l-5.203,2.55l-29.18-46.729L147.867,31.301z M164.578,39.962c0.738,0,1.334,0.6,1.334,1.338s-0.596,1.339-1.334,1.339
            s-1.338-0.601-1.338-1.339S163.84,39.962,164.578,39.962z M174.034,54.748c0.747,0,1.353,0.605,1.353,1.353
            s-0.605,1.353-1.353,1.353s-1.354-0.605-1.354-1.353S173.287,54.748,174.034,54.748z M106.097,57.389
            c0.487,1.932-9.05,30.932-22.601,49.385l5.917,0.123l0.183,0.653c8.29,12.239,3.105,23.066-3.588,28.096l2.317,3.089l-2.086,1.688
            l-2.086-2.482c-16.964,12.725-50.067,40.891-50.067,40.891l0.185,4.518l2.582-2.034c16.792,16.254,52.398,15.365,61.737-18.187
            l2.502,0.057c-5.648,24.592-28.63,34.218-45.977,30.14l-4.062,5.837l1.088,0.582c-0.201-0.312-0.385-0.42-0.09-0.705l3.452-4.441
            c25.952,3.323,41.621-11.364,46.705-31.261l3.311,0.057c-2.84,16.713-10.675,31.428-21.848,42.944
            c-8.063-0.033-22.241-0.218-22.241-0.218c5.163,5.002,15.022,20.267,15.416,21.814c0,0,10.142,0.323,21.021,0.058
            c3.987-1.795,9.323-2.515,11.815-1.259c4.379,2.207,8.494,10.396,10.345,23.532c0.477,3.385,0.908,4.818,1.04,5.501
            c0.024,0.123,0.321,0.212,0.364,0.189c0.167-0.089-0.266,0.598-0.283,1.106c-0.019,0.509-0.002,1.275,0.241,1.542
            c0.307,0.338,0.269,0.56,0.227,0.705c-0.027,0.095-0.619,0.644-0.619,0.644c-0.089,7.652-0.046,14.601-0.464,24.014l1.504,0.01
            c-0.011-15.146,4.56-29.162,11.604-38.81c4.281-6.332,8.812-13.156,11.318-19.653c2.821-7.314,3.209-15,1.698-21.484l-1.031,0.057
            c-6.194-4.246-8.718-13.31-1.088-19.786l-2.701-3.514c-7.62,5.892-9.37,16.759-1.476,25.755l-3.089-0.01
            c-7.703-9.613-5.996-20.652,2.904-28.531l-1.991-2.53l2.165-1.908l1.953,2.138l49.691-41.519l-0.035-4.543l-3.809,3.088
            c-22.29-20.607-55.345-6.146-60.191,18.675l-3.029,0.032c6.353-26.711,29.76-34.26,46.692-30.708l4.179-6.321
            c-3.074-0.863-6.072-2.904-8.901-5.314c-1.192-1.017-1.946-1.639-2.812-2.655c-8.02-8.475-13.464-20.244-13.719-20.264
            l-21.807-0.054c-3.2,1.582-8.678,3.381-11.685,0.953c-6.455-5.213-8.621-15.729-9.509-22.496c-0.269-2.106-0.497-5.771-0.695-6.986
            C106.55,57.364,106.313,57.35,106.097,57.389L106.097,57.389z M183.409,69.085c0.729,0,1.319,0.595,1.319,1.324
            s-0.59,1.319-1.319,1.319s-1.32-0.59-1.32-1.319S182.68,69.085,183.409,69.085z M186.247,70.641
            c1.075,1.393,2.029,2.829,2.563,4.347c-0.501-0.016-0.972,0.141-1.529-0.295c-0.13-1.533-0.761-2.453-1.555-3.475L186.247,70.641z
            M182.26,72.595c0.44,0.216,0.79,1.881,0.482,2.166c-0.531,0.113-0.893,0.075-1.072-0.11
            C181.404,74.211,181.908,72.68,182.26,72.595z M95.534,87.059l20.244,0.023c3.522,2.7,6.965,2.343,11.963,0.179h22.51l1.272,2.31
            H94.437C94.754,88.712,95.534,87.059,95.534,87.059z M93.865,90.668h58.26l1.472,2.369H92.422L93.865,90.668z M99.489,94.112h6.537
            l-2.422,4.11h-6.745L99.489,94.112z M114,94.112h6.239l-2.777,4.105h-6.182L114,94.112z M134.179,94.112l-2.626,4.105h-6.343
            l2.725-4.067L134.179,94.112z M142.002,94.112h6.248l-2.336,4.105h-6.471L142.002,94.112z M58.073,94.75
            c-4.051-0.047-3.301,5.326-2.918,5.158c-2.544-0.582-4.423,0.626-4.736,2.793c-0.248,1.72,1.432,4.171,4.37,3.828
            c-0.391,0.45,0.008,3.051,0.399,3.287c0,0,0.05,0.377-1.501,3.612c-1.841,3.84-2.217,4.022-3.052,1.5
            c-0.896-2.714-2.284-4.088-5.897-5.842c-0.963-0.468-2.325-1.282-3.027-1.812c-1.613-1.216-1.633-1.196-1.557,1.272
            c0.099,3.205,1.071,4.611,4.494,6.503c1.675,0.927,4.882,2.234,5.463,2.229c0.408-0.005,1.909,0.668,4.134,1.854
            c0.435,0.232,1.922,1.051,3.827,1.235c2.021,0.143,6.574-0.335,9.214-1.859c1.48-0.855,2.053-1.62,3.146-3.808
            c0,0-3.74,0.193-5.449-0.256c-3.551-0.208-5.315-0.002-8.008,1.396c-2.252,1.17-2.379,1.379-1.438-0.553
            c0.43-0.888,0.83-1.932,1.192-2.971c0.393-1.034,0.496-1.12,1.48-1.221c2.16-0.22,3.391-1.466,3.59-3.628
            c0.054-0.579-0.032-1.191-0.032-1.191c1.47,0.218,4.479-0.512,4.386-3.558c-0.084-2.738-2.037-3.368-4.44-3.557
            C62.021,97.76,60.996,94.783,58.073,94.75L58.073,94.75z M58.122,95.6c3.55,0.024,3.467,3.283,1.921,5.132l-1.889-1.554
            l-1.523,1.405C54.974,99.525,54.981,95.578,58.122,95.6z M155.246,95.639l1.745,2.578h-3.604L155.246,95.639z M88.974,99.343h6.684
            l-2.683,3.77h-6.319C86.656,103.113,88.07,100.706,88.974,99.343z M110.041,99.343l-2.526,3.916h-5.841l2.341-3.836L110.041,99.343z
            M117.869,99.343h6.04l-2.389,4.177h-5.969L117.869,99.343z M132.083,99.343h6.116l-2.488,4.177h-6.031L132.083,99.343z
            M145.938,99.343h6.301l-2.602,4.177h-6.074L145.938,99.343z M58.209,100.118l3.004,3.027l-2.928,2.933l-3.019-2.885L58.209,100.118
            z M65.824,103.068c-0.531,3.517-3.92,3.325-4.883,1.605l1.381-1.575l-1.693-1.662C62.273,98.799,66.227,100.411,65.824,103.068z
            M55.74,101.384l-1.623,1.83l1.781,1.712c-1.147,1.595-5.56,1.469-4.675-2.37C51.784,100.118,54.265,99.671,55.74,101.384z
            M158.69,100.937l1.859,2.555l-3.486,0.028L158.69,100.937z M86.197,104.073l74.74,0.241l2.001,2.445
            c-26.096,0.449-51.648-0.42-78.307-0.44L86.197,104.073z M59.92,105.662c2.962,1.816,0.774,5.645-2.404,4.993
            c-2.37-1.04-2.854-3.497-0.723-4.924l1.67,1.377L59.92,105.662z M85.549,107.128l-2.039,0.01l-1.986,2.322
            c7.51,7.911,7.233,14.773,0.236,20.756l2.814,3.15C92.423,126.652,94.163,116.102,85.549,107.128z M93.264,107.431
            c4.209,6.577,7.85,19.036-4.692,30.448l-1.514-1.836c10.92-10.665,8.354-19.634,3.462-28.531L93.264,107.431z M94.432,107.592
            l16.972,0.066c-3.633,13.846-6.183,21.999-6.565,43.658l-4.905,0.028c0.534-0.499-2.54-13.078-6.125-17.439
            C101.327,121.138,97.276,113.937,94.432,107.592z M41.049,107.611c0.293-0.002,0.894,0.378,2.071,1.084
            c1.057,0.633,2.43,1.435,3.051,1.783c2.331,1.307,3.489,2.54,4.153,4.422c0.496,1.41,0.187,1.438-1.239,0.109
            c-1.062-0.988-2.191-1.839-5.019-3.774c-0.996-0.683-1.311-0.57-0.733,0.26c0.417,0.599,1.312,1.278,3.127,2.384
            c1.315,0.802,3.127,2.408,2.984,2.645c-0.13,0.215-0.354,0.196-0.988-0.081c-0.293-0.128-1.24-0.516-2.101-0.865
            c-3.696-1.5-5.274-3.342-5.496-6.404C40.782,108.106,40.717,107.614,41.049,107.611z M118.498,107.677c0,0,0.512,0.675,0.577,0.956
            c0.143,0.607-0.454,1.165-2.332,2.001c-0.645,0.286-1.181,0.441-1.163,0.818c0.086,0.883,1.777,2.23,1.57,3.434
            c-0.389,0.92-2.738,1.824-3.325,2.909c0.004,0.746,1.527,1.889,1.31,2.904c-0.118,0.303-0.61,0.612-1.338,1.244
            c-1.49,1.293-1.583,1.49-1.036,2.497c1.27,2.338,1.317,2.166-0.416,3.826c-1.747,1.674-1.715,1.653-0.88,3.108
            c0.899,1.567,0.857,1.497-0.351,2.502c-1.184,0.984-1.136,1.185-0.501,2.407c0.613,1.183,0.754,1.2-0.279,2.114
            c-1.206,1.069-1.433,1.182-0.582,2.526c0.88,1.391,0.945,1.332-0.047,2.469c-0.939,1.077-1.049,1.127-0.539,1.859
            c0.64,0.92,0.761,1.163,0.09,2.176c-0.725,1.093-0.722,1.016-0.057,2.033c0.56,0.858,0.463,1.812,0.463,1.812l-2.1-0.005
            c0,0-0.016-1.207-0.261-1.651c-0.595-1.076-0.579-1.41,0.128-2.364c0.727-0.98,0.605-1.064-0.07-2.044
            c-0.685-0.991-0.586-0.981,0.303-2.109c0.814-1.035,0.855-1.523,0.393-2.114c-1.099-1.401-1.096-1.992,0.009-2.919
            c0.844-0.706,0.922-1.021,0.194-2.232c-0.713-1.185-0.802-1.293,0.506-2.474c1.337-1.207,1.322-1.182,0.426-2.55
            c-0.87-1.326-0.823-1.415,0.572-2.71c1.412-1.311,1.431-1.313,0.506-2.966c-0.865-1.547-0.872-1.521,0.818-3.027
            c1.684-1.403,2.257-1.581,0.577-3.595c-0.936-1.597-0.27-1.754,1.268-2.55c2.696-1.646,1.469-1.544,0.336-3.987
            c-0.946-1.638-0.405-1.649,1.244-2.469c0.409-0.177,0.863-0.379,1.329-0.639c1.104-0.615,0.506-1.178,0.506-1.178L118.498,107.677z
            M122.023,107.715l8.103,0.104c-9.392,11.992-13.911,27.331-15.534,43.512l-3.06-0.048
            C111.339,138.647,115.315,122.86,122.023,107.715z M163.627,107.996c4.634,3.9,8.068,6.134,10.511,7.015
            c0,0-3.268,5.423-3.519,5.225c-18.798-3.621-41.151,7.339-46.208,30.968l-2.961,0.019c1.094-9.271,3.533-17.016,8.026-25.093
            c4.458-7.843,8.565-12.427,14.76-18.203L163.627,107.996z M131.288,107.795l3.992,0.071c0,0,0.75,0.9,1.088,1.226
            c1.724,1.954,1.872,1.564-1.925,3.708c-2.397,1.354-3.46,1.982-3.6,2.55c-0.107,0.571,1.047,1.705,1.183,2.469
            c0.001,0.086-3.26,2.269-3.851,2.578c-0.822,0.398-0.864,0.742-0.047,2.161c0.938,1.632,0.863,1.575-1.164,2.989
            c-1.977,1.38-2.365,1.243-1.522,2.616c1.169,1.906,0.619,2.336-2.134,3.821c-0.695,0.376-0.713,0.752-0.227,2.054
            c0.675,1.808,0.85,1.627-0.572,2.605c-1.68,1.157-1.976,1.188-1.604,1.897c1.081,2.059,1.51,2.559,0.065,3.23
            c-1.102,0.513-1.124,0.803-0.516,2.161c0.612,1.366,0.771,1.312-0.316,2.082c-1.008,0.713-1.601,0.555-0.62,1.722
            c0.776,0.923,0.707,1.651,0.076,2.218c-0.544,0.23-0.797,1.264-0.639,1.287l-1.4,0.037c-1.096-1.478,0.197-2.324,0.393-2.469
            c0.179-0.34-0.04-0.581-0.482-1.381c-0.608-1.103-0.587-1.233,0.289-1.878c0.885-0.651,0.911-0.482,0.321-1.921
            c-0.687-1.673-0.654-1.863,0.426-2.639c1.063-0.764,1.077-0.934,0.354-2.398c-0.762-1.546-0.762-1.547,1.126-2.8
            c1.328-0.883,1.347-0.83,0.644-2.465c-0.486-1.129-0.143-1.521,1.665-2.758c1.032-0.707,1.11-0.847,0.624-1.688
            c-1.34-2.321-1.325-2.392,0.984-3.888c1.889-1.225,1.873-1.33,1.145-2.961c-0.789-1.768-0.86-1.631,1.73-3.184
            c2.134-1.278,2.25-1.204,1.372-2.743c-1.092-1.915-1.022-1.602,3.245-4.04c1.538-1.054,2.926-0.688,1.396-2.483
            C132.115,108.723,131.288,107.795,131.288,107.795z M55.929,110.946c0.296-0.011,0.526,0.353,0.511,1.026
            c-0.052,0.949-0.501,1.891-0.932,2.834c-0.902,1.921-1.801,3.343-2.274,3.349c-1.116,0.013-1.086-0.237,0.396-3.136
            c0.677-1.323,1.376-2.834,1.485-3.127C55.354,111.258,55.668,110.955,55.929,110.946z M69.647,115.297
            c0.02,4.069-12.741,6.119-13.404,4.065c2.225-1.741,8.803-0.969,10.195-2.526c-1.68-0.097-3.956,0.18-5.516,0.208
            c-1.944,0.034-5.087,0.866-5.119,1.21c-0.203-1.071,3.34-3.081,6.147-3.207C64.575,114.933,67.426,115.243,69.647,115.297z
            M70.74,121.508c0,0-24.883,20.589-37.183,30.552l0.075,4.441l39.363-32.227L70.74,121.508z M70.658,122.525l1.59,1.93
            l-36.951,30.107l-0.133-3.155L70.658,122.525z M187.456,133.089l-1.328,1.418c-36.091-26.854-69.325,13.919-50.999,43.085
            c-0.166,0.376-1.44,1.308-1.44,1.308C113.264,145.039,152.346,105.418,187.456,133.089z M167.596,127.207
            c2.049,0.017,5.82,1.423,7.412,3.34c1.854,2.232,1.315,3.227-1.04,1.121c-2.532-1.84-4.623-2.267-1.106-0.095
            c0.775,0.479,1.473,1.415,1.508,1.519c0.129,0.373-0.52-0.019-3.467-1.093c-1.752-0.639-3.973-2.366-4.55-3.543
            C165.92,127.576,166.524,127.199,167.596,127.207z M160,127.269c0.639-0.005,1.208,0.045,1.612,0.161
            c2.582,0.741,3.395,1.13,4.356,1.878c0.658,0.512,0.447,0.881-0.316,0.554c-0.891-0.382-3.71-1.221-4.215-1.169
            c-0.733,0.075,0.002,0.556,1.055,0.818c2.334,0.584,3.491,1.186,1.826,1.211c-0.868,0.129-4.669,0.142-5.704,0.02
            c-1.729-0.204-4.319-1.781-3.723-2.347C155.535,127.785,158.083,127.284,160,127.269z M152.598,129.696
            c3.061,0.036,4.717,1.18,1.371,1.41c-5.752,0.91-6.856,2.161-0.482,0.671c1.483-0.347,1.456,0.188,0.431,0.691
            c-0.839,0.407-1.886,0.607-2.758,1.03c-1.572,0.654-5.174,0.8-6.579,0.266C142.506,132.975,149.016,129.654,152.598,129.696z
            M177.227,130.216c1.547,0.04,4.846,2.282,6.314,4.385c0.96,1.374,0.482,2.361-0.97,1.258c-0.29-0.221-2.374-1.992-2.487-2.033
            c-0.195-0.072,1.729,1.756,2.01,2.271c0.241,0.436,0.797,1.436-0.241,1.456c-1.622-0.199-5.431-4.455-5.454-6.556
            C176.393,130.435,176.711,130.202,177.227,130.216z M158.037,131.412c0.645-0.021,0.315,0.321-0.908,1.183
            c-2.208,1.555-1.057,1.243,1.522-0.085c0.784-0.403,1.73-0.719,2.062-0.78c0.333-0.062,0.728-0.152,0.88-0.199
            c0.693-0.213,0.158,0.643-0.97,1.547c-2.374,1.903-5.055,3.397-6.905,3.855c-2.359,0.584-2.859,0.658-1.987-0.813
            c1.386-2.34,3.403-4.211,5.331-4.574C157.496,131.463,157.823,131.419,158.037,131.412z M165.974,131.45
            c0.982-0.02,2.197,0.184,4.11,0.596c1.346,0.42,0.993,0.51-0.619,0.687c-3.033,0.331-1.771,0.685,1.178,0.634
            c4.021-0.03-2.016,1.449-3.974,1.745c-1.527,0.068-1.976,0.014-5.307-0.61c-1.27-0.237-0.509-1.168,1.896-2.317
            C164.242,131.714,164.991,131.47,165.974,131.45z M190.83,131.994l0.109,2.592l-48.696,40.717l-1.655-1.831L190.83,131.994z
            M174.261,134.222c1.942-0.025,4.748,1.321,4.446,2.134c-0.112,0.303-0.329,0.29-1.812-0.104c-0.973-0.259-2.715-0.532-2.483-0.316
            c0.08,0.074,1.439,0.594,1.958,0.719c1.716,0.412,3.771,1.382,3.316,1.67c-0.795,0.483-1.523,0.105-2.465,0.005
            c-2.354-0.327-6.222-1.517-6.858-2.11C169.642,135.545,172.172,134.25,174.261,134.222z M151.547,134.373
            c0.351,0.019,0.481,0.345,0.146,0.79c-0.507,0.67-0.74,1.231-1.196,2.053c-1.628,2.515-2.654,3.51-4.22,4.484
            c-1.564,0.975-1.788,0.808-1.65-1.22c0.176-2.105,1.683-4.319,3.812-5.359c0.983-0.14,1.547-0.398,0.516,0.837
            c-1.83,2.192-0.578,1.968,1.131-0.521C150.629,134.647,151.198,134.356,151.547,134.373z M145.223,134.667
            c1.056-0.006,1.41,0.368,0.057,1.003c-1.287,0.604-3.849,2.395-3.911,2.592c-0.106,0.333,0.853-0.19,2.445-1.06
            c2.13-1.163,2.316-1.135,1.286,0.193c-1.164,1.504-3.965,3.386-6.163,4.082c-3.075,0.843-3,0.254-1.281-2.028
            c1.638-2.481,3.029-3.665,5.127-4.343C143.701,134.81,144.59,134.67,145.223,134.667z M93.06,135.045
            c11.159,19.245,4.965,38.798-7.981,48.77c-13.535,10.426-34.593,9.807-47.019-2.705l1.724-1.628
            c-0.009,0.008,19.588,19.966,44.27,2.251c12.525-8.991,17.699-30.222,7.366-45.022L93.06,135.045z M43.073,135.088
            c-0.036,0-0.064,0.006-0.085,0.019c-0.376,0.244-1.792,4.4-2.077,6.126c-0.083,0.505,0.04,0.999,0.454,1.404
            c0.291,0.285,0.763,0.101,0.908,0.043c0.943-0.427,1.465-1.082,2.29-3.155c0.554-1.135,0.63-2.491,0.52-2.966
            c-0.044-0.191-0.35-0.64-0.732-0.894C43.926,135.383,43.327,135.086,43.073,135.088z M43.291,135.953
            c0.446-0.004,1.329,0.723,1.438,1.239c0.008,0.902-0.508,2.404-0.894,2.181c-0.645-0.801-1.387-0.296-1.509-0.586
            c-0.084-0.889,0.487-2.051,0.879-2.824C43.232,135.956,43.261,135.954,43.291,135.953z M163.813,136.672
            c4.962,0.002,9.896,1.455,13.519,4.664l-1.935,1.774c-8.497-6.058-18.389-4.285-24.251-0.199
            c-5.804,4.045-10.94,12.998-5.908,25.608l-1.816,1.646c-5.638-10.144-2.612-23.548,7.364-29.89c3.519-2.235,8.025-3.516,12.545-3.6
            C163.49,136.674,163.653,136.672,163.813,136.672z M90.435,138.154c0.15,0,0.379,0.492,0.355,1.097
            c-0.029,0.726-0.337,1.673-0.828,1.873c-0.554,0.227-0.903-1.424-0.903-1.424C89.399,139.161,89.863,138.614,90.435,138.154z
            M179.275,138.721c0.202-0.011,0.398-0.002,0.567,0.019c0.555,0.068,0.56,0.564,0.038,1.041c-0.562,0.514-0.855,0.541-1.424,0.127
            c-0.507-0.369-0.532-0.641-0.095-0.955C178.591,138.807,178.938,138.738,179.275,138.721z M83.974,138.834l1.646,2.029l-5.705,4.588
            l-0.681,0.052l-43.668,36.162l-0.01-3.212L83.974,138.834z M175.214,143.731l-5.947,4.906c-11.888-6.176-21.419,4.83-18.057,14.826
            l-5.143,4.463C136.867,142.681,163.772,134.042,175.214,143.731z M144.073,139.875c0.019-0.004,0.035-0.004,0.053,0
            c0.039,0.009,0.079,0.038,0.118,0.075c0.208,0.203-0.206,3.551-0.516,4.172c-0.113,0.227-0.2,0.518-0.199,0.648
            c0.004,0.274-1.095,2.571-1.953,4.086c-0.323,0.571-0.67,1.32-0.767,1.67c-0.688,3.314-2.175-2.015-1.65-5.108
            c0.247-1.454,2.311-4.455,2.909-4.233c0.305,0.113,0.283,0.343-0.251,1.504c-1.49,3.242-1.864,4.913-0.298,1.779
            C143.324,140.855,143.794,139.926,144.073,139.875z M43.045,139.941c0.221,0.013,0.396,0.136,0.491,0.393
            c0.066,0.221,0.138,0.676,0.015,0.899c-0.305,0.687-0.937,1.138-1.575,1.097c-0.28-0.018-0.586-0.265-0.624-0.567
            c-0.034-0.273,0.032-0.739,0.378-1.093C42.185,140.204,42.677,139.92,43.045,139.941L43.045,139.941z M88.321,140.149
            c0.704,0.035,1.447,1.93,0.975,2.796c-0.387,0.709-0.458,0.576-1.135-0.795c-0.356-0.721-0.63-1.494-0.63-1.494l0.577-0.454
            c0.047-0.025,0.099-0.041,0.146-0.048C88.278,140.151,88.298,140.148,88.321,140.149z M87.133,140.948c0,0,0.742,1.343,0.923,2.412
            c0.11,0.653,0.093,0.531-0.624,0.261c-0.565-0.354-0.689-0.558-1.041-0.998c-0.231-0.408-0.464-0.71-0.464-0.71L87.133,140.948z
            M91.589,141.238c0.375-0.014,0.776,0.365,1.145,1.291c1.383,3.477,1.256,7.377-0.298,9.219c-0.257,0.305-0.32,0.318-0.629,0.128
            c-0.252-0.156-0.277-1.808-0.033-2.275c0.076-0.146,0.305-1.144,0.321-1.708c0.041-1.335-0.325-1.503-0.501-0.265
            c-0.203,1.431-0.424,2.431-0.813,1.57c-0.196-0.437-0.296-0.873-0.444-1.339C89.559,144.854,90.465,141.276,91.589,141.238z
            M85.568,142.126c0,0,1.331,1.718,1.878,2.332c0.193,0.332,0.186,0.416-0.123,0.534c-0.526,0.202-2.286-0.971-2.984-1.334
            c-0.376-0.3-0.213-0.529-0.213-0.529C84.607,142.767,85.087,142.41,85.568,142.126z M138.033,142.188
            c0.71-0.008,0.71,0.239-0.047,1.329c-4.231,6.087-3.377,5.183-0.687,1.854c1.497-1.852,1.757-2.027,1.921-1.613
            c0.123,0.311-1.657,3.912-2.578,5.218c-0.476,0.674-2.101,1.802-2.923,2.218c-2.013,1.019-1.789,0.609-1.046-1.915
            C133.622,145.361,136.005,142.21,138.033,142.188z M83.084,144.292c11.599,28.842-20.161,41.502-34.491,28.163l1.67-1.329
            c19.934,13.521,39.608-8.139,30.604-25.088C80.866,146.038,81.682,145.36,83.084,144.292z M85.772,144.992
            c1.908,0.196,4.729,3.688,4.871,5.634c0.302,1.382-0.089,1.619-0.766,0.648c-1.144-2.113-1.007-0.773-0.033,1.324
            c0.517,1.06,0.637,2.33,0.1,2.397c-0.735-0.148-2.324-2.683-2.811-3.727c-1.158-2.289-1.242-1.901-1.877-5.293
            C85.137,145.341,85.303,144.998,85.772,144.992z M80,145.939c8.835,16.942-10.17,37.301-29.501,24.143l5.794-4.598
            c10.09,4.839,21.346-1.163,18.121-15.075L80,145.939z M168.136,149.098l-15.938,13.28
            C148.919,151.37,160.961,145.082,168.136,149.098z M138.535,149.07c0.521-0.108,0.963,3.226,1.06,7.904
            c0.094,4.577,0.211,5.029-1.211,3.344c-0.597-0.687-1.33-1.342-1.656-1.958c-0.944-1.786-0.644-3.657-0.383-6.271
            c0.244-2.439,1.116-2.059,0.975,0.496c-0.092,1.645-0.074,3.688,0.185,3.685c0.094-0.001,0.12-0.159,0.062-0.383
            c-0.123-0.468,0.439-5.766,0.671-6.391C138.337,149.226,138.439,149.09,138.535,149.07z M94.612,151.085
            c1.151,0.45,1.479,4.292,0.232,8.008c-0.536,1.597-1.36,2.639-2.588,3.282c-0.876,0.46-1.081,0.314-0.686-0.486
            c0.727-1.306,1.115-2.658,1.409-4.343c0.118-1.644-0.749-0.324-0.677,0.379c-0.679,3.065-1.572,3.527-1.456,0.298
            c0.085-2.381,0.396-3.401,1.518-5.038C92.929,152.366,93.531,151.239,94.612,151.085z M134.585,151.473
            c0.474,0.004,0.59,0.64,0.166,1.878c-0.294,0.858-1.296,3.638-1.178,3.628c0.073-0.006,1.147-2.506,1.366-2.914
            c0.36-0.67,0.493-0.796,0.81-0.766c0.308,1.234-0.01,2.775-0.161,4.054c-0.651,3.33-2.92,6.771-3.789,5.746
            c-1.416-1.668-0.752-8.423,1.126-10.477C133.633,151.849,134.217,151.47,134.585,151.473z M73.885,151.984
            c1.711,11.782-8.01,16.812-16.409,13.259C57.654,165.198,73.885,151.984,73.885,151.984z M113.626,152.201l1.693,2.223l3.104,0.161
            l-1.59,2.342l1.58,2.998l-3.462,0.066l-1.992,2.29l-1.73-2.067l-3.027-0.161l1.764-2.814l-1.424-2.691l3.269-0.155L113.626,152.201z
            M87.587,153.213c0.39,0.014,2.303,2.529,2.493,3.458c0.578,2.249,0.364,6.504-0.444,6.357c-0.878-3.064-0.537-4.646-0.852-4.295
            c-0.546,0.563,0.338,5.261,0.047,6.419c-0.139,0.295-0.607-0.061-1.135-0.818c-1.408-2.024-1.219-9.943-0.142-11.111
            C87.564,153.218,87.575,153.213,87.587,153.213z M191.208,157.988l-38.294,31.723l2.209,2.843l36.155-29.85L191.208,157.988z
            M135.901,158.534c0.167-0.034,0.549,0.234,1.268,1.022c1.253,1.691,2.581,4.016,3.064,5.804c0.184,0.695,0.479,1.617,0.658,2.048
            c0.269,0.647,0.291,0.826,0.132,1.021c-0.663,0.817-3.438-1.24-4.332-3.212c-1.258-2.768-1.289-5.262-0.028-2.833
            c0.458,0.884,1.027,2.172,1.021,1.66c-0.002-0.146-0.559-2.001-0.984-2.828C136.436,160.697,135.473,158.622,135.901,158.534z
            M190.802,159.306l0.081,2.625l-35.665,29.828l-1.4-1.703C153.818,190.056,187.41,162.116,190.802,159.306z M135.12,160.928
            c0.167,0.018,0.253,0.257,0.203,0.79c-0.163,1.734-0.591,5.509-0.502,5.842c0.054,0.2,0.564-2.5,0.682-2.979
            c0.609-2.502,1.54,3.479,0.979,6.158c-0.088,0.421-0.267,1.101-0.359,1.519c-0.092,0.417-0.391,1.131-0.511,1.319
            c-1.01,1.589-3.384-4.737-2.984-7.961C132.876,163.609,134.521,160.868,135.12,160.928z M93.86,162.314
            c0.467-0.024,0.557,0.434,0.478,1.396c-0.27,3.3-2.464,6.765-4.867,7.687c-2.394,0.918-2.616,0.733-1.196-0.979
            c1.076-1.299,1.728-2.662,1.547-2.839c-0.101-0.098-0.34,0.448-1.211,1.566c-1.093,1.401-1.273,0.215-0.279-1.845
            c0.858-1.779,1.66-2.71,3.273-3.799C92.741,162.734,93.448,162.336,93.86,162.314z M115.547,163.317
            c-0.482,14.21-4.025,29.646-10.865,43.067l-6.391,0.015c7.825-11.526,12.819-25.797,14.21-43.021L115.547,163.317z M118.357,163.331
            c0,0,0.958,0.994,1.348,1.665c0.43,0.739,0.55,1.386-0.231,1.939c-0.907,0.767-1.285,0.481,0.194,2.384
            c0.779,1.002,0.525,1.166-0.44,2.01c-0.997,0.872-1.055,0.918-0.128,2.096c0.992,1.26,1.171,1.453-0.123,2.427
            c-1.165,0.876-1.18,1.082-0.27,2.507c0.839,1.312,1.093,1.299-0.516,2.658c-1.373,1.161-1.405,0.839-0.08,2.976
            c0.487,0.785,0.454,0.836-0.439,1.627c-2.195,1.942-2.081,1.82-1.77,2.332c2.406,3.447,1.318,3.349-1.036,4.994
            c-0.475,0.407-0.353,0.865,0.71,2.588c0.902,1.464,0.771,1.781-1.344,3.235c-2.202,1.515-2.273,1.719-1.173,3.264
            c1.085,1.521,1.108,1.418-0.652,2.989c-0.795,0.709-1.447,1.362-1.447,1.362h-3.902c0,0,0.823-0.752,1.386-1.168
            c3.204-2.372,3.191-2.121,1.84-3.832c-1.196-1.513-1.08-1.612,0.133-2.479c0.871-0.622,2.046-1.264,2.928-1.901
            c0.475-0.338,0.123-0.619-0.667-2.114c-0.886-1.676-0.935-1.481,0.714-2.838c1.805-1.484,1.835-1.43,0.856-3.311
            c-0.981-1.887-0.998-1.724,0.241-2.734c1.842-1.504,1.93-1.423,0.96-3.164c-0.773-1.39-0.78-1.35,0.525-2.654
            c1.316-1.314,1.152-1.231,0.373-2.436c-0.792-1.224-0.75-1.389,0.294-2.317c1.124-1.001,0.965-0.94,0.033-2.219
            c-0.919-1.26-0.905-1.166,0.213-2.143c0.587-0.514,1.178-1.036,1.145-1.277c-0.087-0.622-0.682-1.506-1.254-2.355
            c-0.218-0.324,0.219-0.424,0.918-1.149c0.711-0.738,0.679-0.553,0.142-1.532c-0.29-0.53-0.842-1.424-0.842-1.424L118.357,163.331z
            M107.899,163.365l1.111,0.028c0,0,0.191,0.252,0.449,0.516c0.714,0.729,0.745,1.155,0.028,1.547
            c-0.688,0.375-0.424,0.9,0.151,1.745c0.61,0.896,0.605,0.794-0.27,1.674c-0.903,0.734-1.369,0.942-0.374,2.332
            c0.566,0.645,0.496,1.311-0.383,1.888c-0.676,0.444-1.798,0.812-0.615,2.502c0.577,1.204,0.623,1.127-0.581,1.982
            c-1.604,1.138-1.904,0.939-1.169,2.597c0.819,1.844,0.9,1.871-0.78,3.107c-1.952,1.437-2.019,1.553-1.206,3.273
            c0.82,1.734,0.841,1.295-1.225,2.904c-1.514,1.179-1.858,1.243-1.41,2.218c0.84,1.826,1.196,2.316-1.253,3.571
            c-2.829,1.449-2.972,1.558-1.613,3.713c1.104,1.754,0.859,1.505-0.965,2.555c-2.637,1.518-3.802,2.178-3.884,2.648
            c-0.054,0.533,2.058,2.119,2.058,2.119l-3.68,0.1c0,0-1.547-1.256-2.147-1.84c-1.664-1.62-1.683-1.09,3.851-3.774
            c3.053-1.482,2.797-1.146,2.299-2.011c-1.473-2.553-1.523-2.818,1.239-4.21c2.4-1.208,1.988-1.295,1.404-3.121
            c-0.509-1.593-0.428-1.446,0.837-2.384c3.059-2.269,2.976-2.034,2.498-3.146c-0.47-1.094-0.83-1.604-0.478-2.143
            c1.102-1.58,3.445-1.916,2.487-3.798c-0.447-1.214-0.606-1.485,0.743-2.535c1.217-1.013,1.224-0.891,0.444-2.228
            c-0.948-1.229-0.812-1.43,0.577-2.394c0.99-0.905,0.977-0.882,0.421-1.765c-0.766-1.218-0.729-1.255,0.364-2.214
            c0.891-0.78,1.046-0.823,0.478-1.684c-0.753-1.143-0.628-1.394,0.364-1.954c0.609-0.343,0.605-0.483,0.554-1.063
            C108.215,164.009,107.899,163.365,107.899,163.365L107.899,163.365z M121.7,163.431l5.123,0.014
            c1.636,9.498,4.492,13.396,6.145,16.404c-6.478,10.398-5.005,19.034-1.051,26.677l-16.224-0.062
            C119.853,192.235,121.997,177.918,121.7,163.431z M86.537,163.468c0.188-0.014,0.321,0.291,0.639,0.833
            c1.026,1.749,0.301,4.23-1.201,6.83c-1.124,1.944-1.328,0.459-0.813-2.342c0.324-1.766-0.566,0.88-0.989,3.014
            c-0.229,1.156-0.783,2.089-1.386,2.033c-0.566-0.092-0.392-1.712-0.373-2.071c0.128-2.553,1.079-4.361,2.928-6.896
            C86.041,163.908,86.324,163.484,86.537,163.468z M138.833,168.463c0.243-0.011,0.583,0.091,1.003,0.331
            c0.326,0.188,0.913,0.543,1.319,0.767c1.421,0.782,1.536,1.021,0.86,1.807c-0.835,0.973-1.369,0.603-2.814-1.017
            C138.228,169.258,138.211,168.491,138.833,168.463z M138.36,170.601c0.229,0.006,0.703,0.253,1.164,0.781
            c0.936,1.07,0.823,1.976-0.213,1.717c-0.423-0.618-0.642-1.561-1.045-2.257C138.173,170.684,138.222,170.598,138.36,170.601z
            M184.118,170.739c-0.907,0.001-2.426,1.199-2.715,2.417c-0.882,3.716-0.88,3.555-0.09,4.096c0.231,0.159,0.406,0.275,0.521,0.346
            c0.463,0.365,1.095,0.931,1.178,0.818c0.753,0.004,1.896-4.757,1.858-5.737c0.048-1.036,0.084-1.161-0.175-1.632
            C184.578,170.832,184.372,170.738,184.118,170.739z M137.664,170.819c0.061-0.012,0.137,0.021,0.228,0.095
            c0.595,0.592,0.833,1.649,1.135,2.407c0.002,0.165-0.066,0.435-0.151,0.597c-0.514,0.985-1.312,0.029-1.396-1.67
            C137.434,171.292,137.484,170.854,137.664,170.819L137.664,170.819z M183.977,171.552c0.04-0.002,0.078-0.002,0.113,0
            c0.609,0.027,0.515,0.657-0.331,1.57c-0.444,0.48-1.362,0.708-1.665,0.411c-0.44-0.431,0.47-1.615,1.462-1.901
            C183.717,171.586,183.857,171.559,183.977,171.552z M81.084,172.073c0.034,0,0.065-0.002,0.099,0
            c0.318,0.02,0.586,0.163,0.795,0.406c0.405,0.502,0.235,1.277,0.043,1.926c-0.481,1.698-3.664,4.986-4.806,4.999
            c-0.68-0.118,2.162-3.729,2.251-4.337c-0.212-0.207-1.973,1.827-2.8,3.24c-0.375,0.64-0.801,1.429-1.026,1.565
            c-0.594,0.068-1.278,0.446-1.282,0.047c0.098-1.804,3.631-5.735,4.834-6.83C79.93,172.394,80.57,172.081,81.084,172.073z
            M89.603,172.242c2.729-0.03-2.645,5.941-6.121,6.802c-1.083,0.269-3.078,0.339-3.221,0.113c-0.143-0.225,0.018-0.407,0.463-0.524
            c0.718-0.188,4.27-2.449,4.267-2.715c-0.004-0.335-1.471,0.22-2.725,1.03c-0.812,0.525-1.192,0.417-0.752-0.217
            C83.555,173.797,86.285,172.28,89.603,172.242z M136.842,172.252c0.154,0.013,0.31,0.32,0.406,1.008
            c0.496,1.279,0.52,1.629,0.052,2.005c-0.8,0.645-0.997,0.464-0.988-1.017C136.32,173.028,136.583,172.231,136.842,172.252z
            M46.938,173.95c0,0,0.995,0.373,0.582,0.847c-0.288,0.329-1.513,0.049-1.514-0.048L46.938,173.95z M184.038,173.988
            c0.325-0.021,0.333,0.279,0.161,1.036c-0.091,0.397-0.483,2.489-1.178,3.07c-0.085,0.055-1.094-0.546-1.367-0.823
            c-0.126-0.128-0.521-0.422-0.572-0.615c-0.172-0.632,0.012-1.453,0.491-1.863c0.188-0.16,0.564-0.249,0.767-0.251
            c0.159-0.002,0.629-0.155,1.045-0.341C183.677,174.072,183.891,173.997,184.038,173.988z M47.287,175.431
            c0.655-0.005,1.461,0.065,2.143,0.298c2.013,0.585,5.704,2.238,6.272,2.781c0.827,0.79-1.331,1.631-3.926,1.66
            c-1.376,0.016-1.636-0.271-3.538-1.409c-0.244-0.161-1.354-0.889-1.031-1.154c0.353-0.361,1.415,0.104,2.738,0.775
            c0.432,0.22,1.482,0.156,1.48-0.038c-0.002-0.229-2.646-1.211-4.625-1.84c-1.301-0.413-1.271-0.829-0.474-1.007
            C46.556,175.462,46.895,175.434,47.287,175.431L47.287,175.431z M44.686,176.334c0,0,0.549,0.485,1.259,1.017
            c0.771,0.577,1.666,1.29,2.289,2.237c0.901,1.099,2.325,3.833,2.166,4.328c-0.364,1.136-4.169-0.856-7.279-3.969
            c-1.011-1.011-1.604-1.764-1.604-1.764l1.188-1.074c0,0,1.043,0.872,2.247,1.935c2.259,1.993,2.243,1.309-0.028-0.79
            c-0.643-0.593-1.235-1.125-1.235-1.125C43.718,176.748,44.078,176.412,44.686,176.334z M137.617,176.429c0,0,1.214,1.26,1.665,1.84
            c-7.403,7.236-10.229,17.348-3.084,28.115l-3.43-0.014C126.346,193.73,129.392,184.214,137.617,176.429L137.617,176.429z
            M75.006,176.727c0.46-0.021,0.041,0.521-0.776,1.911c-1.525,2.596-1.827,3.251-4.304,3.897c-0.639,0.165-1.547,0.033-1.921,0.08
            c-1.065,0.134-0.591-0.001,1.041-1.06c2.261-1.467,0.341-0.712-1.751,0.364c-1.211,0.624-2.48,0.593-2.592,0.27
            c-0.061-0.178,0.491-0.646,0.847-0.965c3.185-2.847,4.161-2.727,7.124-3.756C73.967,177.021,74.691,176.741,75.006,176.727z
            M61.696,179.323c1.152,0.007,2.228,0.122,3.183,0.336c0.634,0.143,1.664,0.27,0.795,1.055c-0.984,0.926-3.643,2.19-5.609,2.275
            c-0.276,0.01-4.327-0.276-3.463-1.145c0.173-0.097,0.723-0.071,1.197-0.161c2.243-0.425,1.637-0.786-1.126-0.639
            c-3.46,0.185-3.618-0.173-0.998-0.89c1.916-0.523,3.799-0.793,5.524-0.827C61.366,179.324,61.531,179.323,61.696,179.323
            L61.696,179.323z M80.18,179.588c1.54-0.015,2.737,0.26,2.744,0.847c0.011,0.952-2.906,3.04-4.82,3.453
            c-0.45,0.098-1.092,0.237-1.424,0.312c-0.667,0.15-4.365,0.021-4.726-0.109c-1.731-0.628-0.526-0.875,2.649-1.244
            c1.382-0.16,2.041-0.522,2.038-0.785c-0.001-0.127-1.02-0.163-2.535,0.029c-1.692,0.214-1.36-0.284,0.748-1.377
            C76.247,179.992,78.435,179.606,80.18,179.588z M51.682,180.908c0.215,0.005,0.735,0.184,1.599,0.544
            c1.844,0.536,4.377,1.143,6.111,3.036c1.4,1.356,1.741,1.794,1.447,2.271c-0.356,0.578-4.703,0.139-6.532-0.644
            c-1.208-0.516-2.648-1.624-3.307-2.582c-1.593-2.321-0.923-2.933,1.103-1.311c2.44,1.955,2.803,2.156,3.235,2.067
            c0.174-0.036-0.256-0.438-1.074-1.046C52.209,181.718,51.208,180.896,51.682,180.908z M66.719,183.401
            c2.044,0.003,2.485,0.156,4.47,1.064c2.483,0.875,1.881,1.654-2.526,2.753c-2.207,0.518-4.428,0.154-6.04-0.837
            c-3.552-2.187-3.317-2.623,0.648-1.646c1.303,0.321,2.602,0.381,2.682,0.138c0.062-0.188-1.516-0.589-2.796-1.013
            c-1.387-0.459-0.194-0.42,2.578-0.449C66.102,183.406,66.427,183.401,66.719,183.401L66.719,183.401z M168.932,192.844
            c0,0-0.454,0.214-0.654,0.324c-0.158,0.087-1.386,0.241-2.729,0.341c-2.648,0.197-4.43,0.621-6.036,1.268
            c-2.426,0.975-4.048,3.982-4.048,3.982c1.813-0.123,12.077,1.732,14.925-1.965c0.596-0.774-1.531,5.844-2.622,6.137
            c-2.705-0.324-3.844,3.92-3.572,3.741c-2.729,1.057-4.845,1.678-4.151,4.845c0.303,1.381,1.702,3.021,4.668,2.608
            c-0.808,5.491,5.912,6.911,6.652,0.292c0,0,1.311-0.249,1.814-0.309c3.063-0.727,3.806-5.202-0.69-6.622
            c-1.248-0.37-1.318-0.604-1.318-0.604c0.232-1.01,0.178-2.07-0.554-3.248c0.992-2.363,3.461-6.921,3.461-6.921L168.932,192.844z
            M169.406,194.209c0.618,0.826-2.605,2.192-6.039,2.487c-0.77,0.066-2.463,0.222-2.507,0.299c-0.369,0.647,6.639,0.177,8.821-1.046
            c0.748-0.419,0.815-0.05,0.491,0.596c-2.535,3.259-8.653,2.455-13.437,1.883c-0.273-0.274-0.041-0.61,1.031-1.48
            c1.965-1.595,3.381-2.127,6.484-2.445C165.118,194.475,169.017,193.741,169.406,194.209z M173.197,197.581
            c-0.44,1.402-2.743,5.681-2.743,5.681c-0.283,0.283-1.291,0.482-1.216-0.601c0.013-1.162,2.189-5.952,2.776-6.045
            C172.716,196.563,173.233,197.079,173.197,197.581z M174.657,197.907c0.675,4.91,4.401,6.078,7.976,7.625
            c0.941,0.432,1.739,1.198,2.683,1.693c1.767-2.409-0.225-7.089-3.335-8.613c-2.312-1.078-4.417-1.937-5.719-1.84
            C175.509,196.828,174.668,197.313,174.657,197.907L174.657,197.907z M176.57,197.615c0.399-0.004,0.973,0.111,3.061,0.667
            c3.151,0.838,5.374,3.163,5.955,6.225c0.023,0.124,0.185,2.497-0.358,2.412c-0.82-0.235-1.263-1.062-2.579-1.612
            c-1.645-0.688-3.949-1.592-5.364-2.876c-1.143-1.038-1.767-2.155-1.906-3.112c-0.141-0.994,0.191-1.095,1.026-0.293
            c1.87,1.487,3.714,1.996,5.562,3.434c0.514,0.399,2.357,1.421,1.099,0.148c-0.853-0.861-3.364-2.364-4.698-3.006
            C176.513,198.71,175.506,197.626,176.57,197.615L176.57,197.615z M34.62,202.515l21.129,33.03c-5.2,2.743-7.764,3.944-16.398,3.269
            l0.033,0.435l-3.669-0.214c6.338,9.893,14.159,22.799,11.939,45.313l25.738-0.026c0,0,0.401,0.381,0.44,0.407
            c0.377,0.254,0.941-0.446,0.941-0.446l11.61-0.062l0.313,0.375l5.414-0.038c0,0-24.754-46.318-37.186-69.318
            C49.819,206.013,44.5,201.913,34.62,202.515L34.62,202.515z M167.857,203.608c1.388-0.034,2.767,0.919,2.776,2.771
            c0.005,0.965-0.809,2.312-0.809,2.312l-1.886-1.797l-1.802,1.804c-0.888-0.734-1.414-2.131-1.123-2.925
            C165.569,204.414,166.778,203.634,167.857,203.608L167.857,203.608z M146.004,204.265c1.788,6.969,3.72,16.579-11.788,38.787
            c-9.172,13.135-12.173,25.526-12.539,40.649l-0.927,0.005c0.438-8.3,0.496-23.348,0.496-23.348l0.866-0.771
            c0,0-0.395-0.64-0.568-1.391c-0.292-1.266-0.046-0.844,0.71-4.243C125.424,237.538,146.004,204.265,146.004,204.265L146.004,204.265
            z M63.199,207.462l78.59,0.36l-1.045,2.062l-76.05-0.544L63.199,207.462z M167.956,208.059l2.918,2.843l-2.853,3.202l-3.003-3.141
            L167.956,208.059z M165.563,209.267l-1.593,1.693l1.38,1.451c-1.42,2.982-5.201,0.655-5.075-1.576
            C160.423,208.224,163.474,207.154,165.563,209.267z M170.606,212.632l1.269-1.612l-1.434-1.571c2.347-2.317,4.566-0.276,4.78,1.657
            C175.449,213.167,172.236,215.494,170.606,212.632z M77.527,210.66l6.438,0.062l-2.394,4.479l-6.527-0.028L77.527,210.66z
            M91.868,210.694h5.912l-2.497,4.54H89.3L91.868,210.694z M105.831,210.694h6.272l-2.545,4.54h-6.442L105.831,210.694z
            M119.87,210.694h6.419l-2.337,4.54h-6.66L119.87,210.694z M134.169,210.694h6.187l-2.507,4.54h-6.366L134.169,210.694z
            M65.848,210.717h4.158l-1.698,2.989L65.848,210.717z M169.52,213.581c2.38,1.911,0.727,5.049-1.753,5.104
            c-1.707,0.039-4.187-2.85-1.504-5.203l1.786,1.633L169.52,213.581z M82.063,215.995h6.045l-2.275,4.087H79.91L82.063,215.995z
            M95.501,216.029h6.631l-2.336,4.087h-6.311L95.501,216.029z M109.7,216.029h6.599l-2.152,4.087h-6.664L109.7,216.029z
            M123.848,216.029h6.547l-2.039,4.087h-6.92L123.848,216.029z M69.86,216.185h4.172l-1.778,3.273L69.86,216.185z M73.005,220.924
            l61.259,0.544l-1.041,1.987l-58.662,0.009L73.005,220.924z M75.157,224.482l57.403,0.142l-1.319,2.748l-19.833-0.09
            c-3.87-2.889-8.293-1.554-13.339,0.09c0,0-15.183,0.158-21.153,0L75.157,224.482z M56.067,236.126l30.277,47.788l-6.693-0.075
            l-28.749-44.955L56.067,236.126z M49.998,239.24l28.583,44.663c-1.312-0.03-2.529,0.05-3.841,0.03
            c0.531-8.342-6.181-12.252-10.125-12.451c2.365-9.755-4.746-13.859-9.49-14.634c1.924-12.678-8.571-14.476-8.724-14.348
            c0.051-1.041-0.145-1.792-0.285-2.66L49.998,239.24L49.998,239.24z M45.367,239.947c-0.062,0.269,0.538,2.795-0.592,2.329
            l-0.08-2.324L45.367,239.947z M39.35,240.012c0.408,1.679,1.271,2.013,2.443,3.139c0,0-1.499,0.255-1.847,0.015
            c-0.623-0.431-1.925-3.167-1.925-3.167L39.35,240.012z M43.821,242.853c0.725,0,1.311,0.591,1.311,1.315s-0.586,1.31-1.311,1.31
            s-1.311-0.585-1.311-1.31S43.096,242.853,43.821,242.853z M46.418,243.863c3.759-0.246,9.211,3.786,7.773,11.333
            c-0.25-0.527-0.546-1.687-1.156-2.51c-2.592-3.495-5.644,1.295-3.586,3.25c1.008,0.958,1.48,1.336,1.371,1.423
            c-2.317-0.439-4.072,1.612-3.108,3.89c1.607,2.947,3.841,1.386,5.134-0.362c0,0,0.795,2.638,1.587,2.974
            c1.211,0.514,2.883-0.138,3.452-1.602c0.847-2.177-1.213-2.735-1.665-3.947c4.349,0.142,9.89,6.499,7.369,12.011
            c0.33-1.256-1.017-4.07-3.636-3.345c-1.309,0.457-1.764,2.362-0.708,4.323c0.338,0.627,0.521,0.86,0.521,0.86
            s-1.133,0.149-1.431,0.333c-3.397,2.092,0.983,7.8,3.512,4.231c0.258-0.424,0.681-0.909,0.681-0.909
            c0.417,0.795,0.545,1.914,1.307,2.298c3.131,1.575,4.526-1.751,3.211-3.382c-0.741-0.918-1.577-1.978-1.577-1.978
            c-0.131-0.587,9.383,1.907,8.224,11.162l-25.22-0.035c2.338-14.216-3.322-30.48-6.212-35.438l1.252-1.65
            c0.313,0.613,0.834,2.159,1.755,2.455c2.925,0.942,3.816-1.103,3.425-3.204C48.483,244.925,46.915,244.024,46.418,243.863
            L46.418,243.863z M53.096,257.241c0.688,0,1.244,0.562,1.244,1.249s-0.557,1.244-1.244,1.244s-1.249-0.557-1.249-1.244
            S52.408,257.241,53.096,257.241z M62.561,272.052c0.695,0,1.258,0.562,1.258,1.258c0,0.694-0.562,1.258-1.258,1.258
            c-0.694,0-1.258-0.563-1.258-1.258C61.303,272.615,61.866,272.052,62.561,272.052z"/>
    </g>
</svg>
