<?xml version="1.0" encoding="utf-8"?>
<svg version="1.2" baseProfile="tiny"
    xmlns="http://www.w3.org/2000/svg"
    xmlns:svg="http://www.w3.org/2000/svg"
    xmlns:xlink="http://www.w3.org/1999/xlink"
    viewBox="0 0 225 314" width="225px" height="314px"
    fill="#d40000">
    <defs>
        <style>
            .maxi-card { display: none; }
            @media (min-width: 75px) {
                .maxi-card { display: block; }
                .mini-card { display: none; }
            }
        </style>

        <polygon id="suit" points="28.5,0 48.612,29 28.5,58 8.388,29"/>
        <path id="numeral" d="M9.842,0C5.149,0.091,2.822,4.021,2.797,7.953l0.004,10.317H0v3.426h2.801c0,0,0.049,1.564,0.041,2.503c-0.039,4.637,1.6,7.447,4.797,8.226c3.066,0.559,4.666-0.102,7-1.311c0.849,0.353,1.441,1.08,2.349,1.172c1.004,0.102,3.096,0.054,3.096,0.054l-0.058-3.515l-1.045-0.152c-2-0.034-2.866-0.733-2.649-1.982c0.424-0.813,0.485-1.405,0.524-2.389V6.849C16.796,2.572,13.299,0.038,9.842,0z M9.697,3.403c2.239-0.035,4.104,2.573,4.053,5.246l0.035,13.481c0.073,0.848-0.062,1.677-0.437,2.259c-0.295-0.86-4.93-5.597-7.248-5.378c0,0-0.094,0.239-0.16-5.686c-0.028-2.91-0.793-7.253,1.822-9.214C8.415,3.63,9.07,3.412,9.697,3.403z M12.038,28.031c0.205,0.416-0.556,0.826-1.367,1.053c-2.295,0.64-4.545-0.791-4.617-4.08c-0.021-1.003-0.088-2.075,0.265-2.233C7.372,22.296,11.417,26.779,12.038,28.031z"/>
    </defs>

    <rect width="100%" height="100%" fill="#fefefe"/>

    <!-- Little Card -->
    <g class="mini-card">
        <use xlink:href="#numeral" transform="matrix(3.5,0,0,3.5,78.4,33.95)"/>
        <use xlink:href="#suit" transform="matrix(2,0,0,2,55.5,170)"/>
    </g>

    <!-- Big Card -->
    <g class="maxi-card">

        <!-- Top Numeral and Suit -->
        <use xlink:href="#numeral" transform="matrix(1,0,0,1,7,12)"/>
        <use xlink:href="#suit" transform="matrix(0.4,0,0,0.4,6,51)"/>

        <!-- Bottom Numeral and Suit -->
        <use xlink:href="#numeral" transform="matrix(-1,0,0,-1,218,302)"/>
        <use xlink:href="#suit" transform="matrix(-0.4,0,0,-0.4,218,263)"/>

        <!-- Card Face -->
        <use xlink:href="#suit" transform="matrix(0.8,0,0,0.8,38,36)"/><!-- top left -->
        <use xlink:href="#suit" transform="matrix(-0.8,0,0,-0.8,186,278)"/><!-- bottom right -->

        <path fill="#E2CF00" d="M141.693,28.697c0,0,25.294,36.56,33.872,43.049c0.631,0.296,11.207-1.725,11.207-1.725c-5.421-12.977-8.908-26.402-5.39-41.455
            L141.693,28.697z M155.747,86.518c-17.438,4.921-34.842,9.55-53.746,1.527L81.357,107.99c-0.171,0.514,26.753,12.112,27.176,10.843
            l-6.626,21.153l15.278,3.363l7.014-22.502c0,0,21.093-2.023,30.883-5.382c7.443-2.555,15.142-4.406,21.788-9.955
            C163.14,97.26,155.734,86.419,155.747,86.518z M50.866,92.415c-6.609-4.056-11.774,4.291-6.936,8.459
            c-0.568,2.435-0.762,6.059,1.594,7.65c2.165,1.369,6.202-0.051,6.784-0.035c0.042,0.001,0.105,4.383-0.231,4.371
            c-0.626-0.021-2.989-2.034-4.447-2.471c-4.926-1.478-11.854-2.206-11.731-1.952c0.206,0.427-1.227,1.437,4.27,4.889
            c2.042,1.281,8.492-0.162,13.63,1.458c3.13,0.987,6.207,2.629,7.906,1.812c2.149-0.898,4.654-3.733,5.463-6.042
            c0.228-2.522-12.89,2.935-12.092,3.023l-0.042-5.084c5.286,0.582,10.058-3.249,4.862-9.816
            C63.765,94.831,58.353,85.666,50.866,92.415z M72.889,115.665c-13.001,13.105-39.574,37.699-39.574,37.699l0.284,18.355
            l25.961,23.231c2.057-24.661,16.07-47.677,29.415-59.19C90.199,132.259,75.714,116.895,72.889,115.665L72.889,115.665z
            M165.514,120.199c-1.959,15.163-3.739,35.842-29.464,58.827c4.457,7.592,10.132,15.318,18.297,19.006
            c0.58,1.305,23.603-23.822,37.766-35.702l-0.075-16.092L165.514,120.199z M49.573,123.454c-0.054,0.33-1.004,4.313-1.249,4.208
            c0.02,0.217,2.635-0.972,2.93-2.063c0.26-0.958,0.859-2.256,0.898-2.438C51.562,119.06,50.448,121.972,49.573,123.454z
            M39.942,134.055c-0.935,2.257-1.809,6.402-1.486,9.101c4.605,2.306,5.857-7.284,4.619-8.201
            C42.332,134.641,40.573,134.032,39.942,134.055z M182.178,178.024c-0.427,1.912-0.337,2.479,0.515,2.854
            c1.49,0.653,2.161-0.136,3.358-3.251c0.712-1.854,1.347-4.643,0.772-5.752C183.998,169.903,182.505,176.579,182.178,178.024z
            M112.525,173.531c-0.903,0.008-1.773,0.082-2.579,0.266c-7.603,1.739-7.026,15.022-8.316,20.319
            c-23.881,3.408-30.197,5.03-36.741,7.719c-10.175,4.18-13.396,6.729-16.089,8.834c1.691-0.198,19.948,16.824,20.89,19.228
            c-1.161-3.295,35.317-11.314,54.747-3.26c2.383,0.854,20.535-17.616,19.962-19.678c2.356-4.125-22.88-8.759-26.062-11.336
            c-2.611-14.054,17.63-21.752,3.613-21.343C119.397,174.354,115.753,173.504,112.525,173.531L112.525,173.531z M176.038,189.32
            c-0.449,0.531-0.903,0.812-1.487,1.435l-1.334,1.758l0.972,1.57l2.487-2.744L176.038,189.32z M158.232,206.994
            c2.62-1.183,11.92-5.69,12.319-4.648l-0.196,4.514c-1.423-0.466-10.606,1.052-5.295,10.531c-3.345,7.529,4.108,11.413,9.329,6.435
            c10.942,3.754,9.479-7.195,7.221-8.964c1.779-2.764-0.457-8.649-1.57-8.67c0,0,9.549,2.153,8.614,0.453
            c-0.426-0.776-0.959-2.114-3.081-3.531c-2.445-1.633-6.742-1.04-10.22-1.768c-3.718-0.777-6.112-2.107-9.236-2.295
            C161.401,199.481,156.999,203.62,158.232,206.994L158.232,206.994z M51.818,242.531l-13.156,3.517c0,0,4.256,9.876,5.729,18.682
            c1.801,10.771,0.362,22.483,0.362,22.483l38.185,0.193L51.818,242.531z"/>
        <path d="M86.106,287.271c-16.755-23.913-32.279-46.66-52.891-71.73c0,0,0.018-9.689,0.09-19.3l63.32,90.795
            L86.106,287.271z M120.025,248.661c-0.54-4.542-1.465-9.978-2.796-14.655l11.562-10.9
            C127.543,232.846,125.628,240.32,120.025,248.661z M175.28,214.304c2.587,3.437-1.779,5.344-3.428,3.814
            C168.509,215.018,173.406,211.814,175.28,214.304z M60.644,192.661c-1.918,1.229,3.448-29.968,18.177-46.091
            C87.78,172.233,71.973,186.62,60.644,192.661z M133.311,192.546l-9.783-2.641l4.871-13.681c0,0,9.185,2.151,8.401,4.992
            C134.25,190.465,133.311,192.546,133.311,192.546z M88.025,187.287c2.648-4.355,4.66-9.156,6.512-14.069l13.909-1.928l-8.062,15.635
            L88.025,187.287z M146.983,168.088c-7.57-15.074,1.349-38.935,17.822-45.502C164.211,137.873,159.468,153.359,146.983,168.088z
            M96.097,163.805c0.333-5.354-0.28-10.965-1.021-15.938l34.433,4.59l1.203,14.433L96.097,163.805z M121.295,140.876
            c1.167-4.591,2.204-8.412,4.457-12.133c2.507,0.08,12.676-1.593,11.379,0.383c-2.765,3.536-4.087,9.277-5.897,12.888
            C129.334,141.813,120.726,143.295,121.295,140.876z M98.487,138.245c-3.482-1.229-8.243-1.571-10.095-4.265l3.622-11.479
            l10.729,3.291L98.487,138.245z M128.595,28.723l8.407-0.08c0,0,40.398,51.69,55.54,71.807c-0.505,2.047,0.169,19.398,0.169,19.398
            C171.265,89.666,128.595,28.723,128.595,28.723z M51.125,100.846c-2.259-2.425,1.333-4.573,2.827-2.406
            C55.268,100.348,52.317,102.125,51.125,100.846z M96.454,92.371c0.13-11.979,8.625-26.194,8.536-25.831
            c-0.098-0.023,1.211,11.71,2.844,15.402C107.394,82.593,96.856,93.122,96.454,92.371z"/>
        <path fill="#131F67" d="M31.644,26.53l-0.316,262.08l163.067,0.03l-0.056-261.686L31.644,26.53z M180.665,28.58c-1.325,14.501-1.557,25.865,5.968,40.904
            c-1.359,1.426-11.598,1.83-14.824,3.518c-0.06,0.405,0.828,1.105,0.828,1.105c3.376-1.566,16.538-2.995,16.538-2.995
            c-5.513-9.607-10.047-28.088-6.634-42.262l9.501,0.03l-0.061,69.829c0,0,0.747,13.479,1.028,21.073
            c-5.058-6.537-11.766-15.667-16.146-22.444c-5.314-7.476-11.23-16.246-17.306-24.474c-1.791-2.592-4.345-5.955-6.429-8.983
            c-3.271-4.677-5.978-8.306-9.37-13.34c-3.623-5.213-7.097-9.944-11.403-15.997c-3.65-5.151-3.82-5.762-3.82-5.762L180.665,28.58z
            M118.273,28.851c6.158,10.703,17.182,14.327,19.955,15.049l1.612,2.355c-12.996-2.547-19.956-10.891-23.225-16.05
            c-0.254-0.401-0.226-1.324-0.226-1.324L118.273,28.851z M112.177,28.851c-1.703,4.042-4.087,6.364-6.347,8.812l0.078-2.6
            c0.069,0.163,3.383-3.514,4.523-6.212H112.177z M115.158,28.851c0,0,0.05,0.691-0.155,1.259c-1.306,4.213-9.408,12.211-9.175,11.013
            l-0.083-2.063c-0.035,0.089,6.087-5.829,7.69-10.208H115.158z M109.267,28.851c-0.632,1.177-2.987,4.729-3.2,3.745l0.209-3.745
            H109.267z M127.779,28.851c1.021,1.479,1.948,2.56,3.022,4.07c0.2,0.288,0.32,0.629,0.271,0.759
            c-0.163,0.42-0.648,0.107-1.989-1.081c-2.2-1.95-3.697-3.748-3.697-3.748H127.779z M119.584,28.851l1.99,0.006
            c4.121,6.845,11.516,10.486,14.076,11.283c0.683,0.753,1.418,2.129,1.704,2.434C130.453,40.704,122.72,34.868,119.584,28.851z
            M124.423,28.823c2.195,3.167,5.635,5.388,7.572,6.903c1.042,0.817,2.418,2.485,2.289,2.816c-4.314-1.364-9.361-6.146-11.677-9.691
            L124.423,28.823z M115.964,30.782l1.199,1.909c-2.906,4.791-6.55,9.107-11.41,12.51l-0.026-2.503
            C111.242,38.728,113.625,34.737,115.964,30.782z M117.909,33.549c3.464,4.667,10.93,11.89,22.903,14.048
            c0,0,0.681,0.614,1.672,1.965c1.259,1.713,1.278,1.78,1.444,4.588c0.111,5.139,1.781,12.112,3.438,16.499
            c-0.205,1.091-0.396,1.646-2.453,4.425c-8.57,11.575-26.828,22.523-35.824,7.58c-2.999-4.787-3.291-13.966-3.481-19.689
            c0,0,0.057-0.402,0.079-0.511c0.217-1.039,0.514-0.876,2.138-0.431c1.646,0.707,3.36,0.136,5.103-0.338
            c1.983-0.802,2.148-0.184,0.235,1.602c-0.662,0.617-1.472,1.562-1.387,1.516c0.086-0.045,1.198-0.499,1.69-0.874
            c1.528-1.163,1.89-0.718,1.323,0.562c-2.403,5.433-2.83,5.649,0.551,7.158c0.704,0.314,1.186,0.666,1.581,1.011
            c2.311,2.176,1.48,1.004,0.835,0.005c-0.995-1.563-0.096-2.39,1.583-1.421c1.121,0.646,2.595,1.168,3.396,0.921
            c1.556-0.507,2.03-2.21,1.568-4.085c-0.369-1.037-2.494-2.868-2.004-0.951c1.277-0.058,2.38,1.754,1.27,2.979
            c-0.837,1.13-2.331,0.52-4.622-0.995c-1.266-0.951-2.803-0.465-2.743,0.706c0.04,0.785-1.072,0.604-1.796-0.396
            c-0.401-0.556-0.129-2.156,0.625-3.673c4.75-9.549,0.746-18.808-7.479-16.197c-0.904,0.287-1.72,0.52-1.72,0.52l-0.045-3.652
            C110.513,43.128,115.523,37.88,117.909,33.549L117.909,33.549z M122.711,50.692c-1.24,1.497-0.801,2.83,1.922,1.487
            c2.218-1.092,2.525-1.221,4.941-1.309c3.43-0.124,6.508,0.967,10.316,3.304c2.525,1.549,2.893,1.666,2.208,0.695
            C140.059,50.967,128.005,45.042,122.711,50.692z M111.065,51.139c2.38,0.6,4.664,2.172,4.267,2.823
            c-0.144,0.233-0.281,0.278-0.585,0.12c-1.741-0.86-4.517-2.267-8.529-0.551c-0.442,0.189-0.688-0.104-0.686-0.638
            c0.004-1.035,1.747-1.861,3.588-1.929C109.775,50.964,110.489,50.998,111.065,51.139z M124.892,54.165
            c-1.419,0.738-1.906,1.131-2.509,0.801c-1.44-0.787-1.136-0.169-0.242,1.415c0.632,1.118,0.625,1.349,0.531,2.034
            c-0.102,0.744-0.086,0.773,0.638,1.569c1.354,1.779,2.701,3.496,4.729,4.846c0.633,0.421,1.478,0.899,1.541,0.901
            c0.202,0.007,0.125-0.154-0.236-0.507c-2.597-2.497-4.645-4.735-2.001-3.785c3.079,1.004,6.007-0.247,8.408-1.063
            c0.979-0.302,2.007-0.556,2.262-0.556c2.218,0.002,2.742-0.921,1.324-2.328C134.539,52.114,130.559,50.847,124.892,54.165
            L124.892,54.165z M136.274,55.174c0.992,0.916,1.515,1.413,1.415,1.651c-0.106,0.256-0.87-0.178-2.149-0.859
            c-2.573-1.372-5.492-1.695-9.138-0.643c-2.831,0.817-1.995-0.479,1.159-1.7C130.086,52.459,133.571,52.807,136.274,55.174z
            M109.841,53.322c2.162-0.035,4.414,0.675,5.92,1.973c1.051,0.906,0.282,1.117-1.425,0.411c-2.582-1.068-4.759-1.238-6.878-0.246
            c-0.665,0.312-1.433,0.682-1.642,0.661c-0.354-0.239-0.505-0.937-0.198-1.43C106.47,53.855,108.158,53.348,109.841,53.322z
            M145.48,54.063c0.158,0.007,0.397,0.26,0.753,0.759c0.647,0.908,0.672,1.356,0.136,2.946c-0.655,1.941-0.918,1.626-1.082-1.082
            C145.18,54.929,145.176,54.05,145.48,54.063z M147.624,56.99c0.246-0.034,0.534,0.4,0.995,1.3c0.321,0.628,0.245,0.815-0.759,3.753
            c-0.42,1.229-0.815,2.208-0.826,2.217c-0.309,0.243-0.269,0.222-0.4,0.053c-0.716-0.914-0.665-2.697-0.049-4.834
            C147.052,57.858,147.307,57.035,147.624,56.99z M128.14,57.212c0.078-0.007,0.558,0.098,0.558,0.098
            c-0.05,4.352,3.315,3.476,3.761,0.386c0,0,0.83-0.086,0.957,0.12c0.398,0.647-0.527,2.509-1.912,3.117
            c-1.011,0.451-2.385,0.342-3.205-0.414c-0.229-0.426-0.926-2.042-0.796-2.713C127.664,57.414,127.906,57.233,128.14,57.212
            L128.14,57.212z M126.135,57.721c0.034-0.002,0.067-0.002,0.102,0c0.33,0.017,0.57,0.105,0.701,0.506l0.721,2.21
            c-0.53,0.634-2.546-0.65-2.542-1.615C125.118,58.156,125.619,57.746,126.135,57.721z M112.453,57.716
            c0.509-0.049,0.688,0.008,0.747,0.481c0.172,1.437-1.265,2.997-3.128,3.082c-1.803,0.202-2.775-1.196-2.721-2.561
            c0.005-1.036,0.896-1.166,0.995-0.347c0.286,2.366,2.308,2.502,3.231,1.195C111.928,59.056,111.848,57.794,112.453,57.716z
            M134.593,58.198c0.144-0.006,0.335,0.048,0.618,0.145c1.859,0.594,1.909,0.881,0.318,1.454c-1.896,0.684-2.02,0.772-1.574-0.551
            C134.203,58.507,134.278,58.21,134.593,58.198z M114.88,58.406c1.379,0.086,1.494,1.252,0.282,1.642
            c-1.806,0.797-2.414,0.745-1.715-0.431C113.827,58.784,114.166,58.422,114.88,58.406L114.88,58.406z M106.256,58.825
            c0.164-0.002,0.354,0.062,0.555,0.213c0.208,0.625,0.559,1.106,0.836,1.753c-0.283,0.281-0.958,0.276-1.389-0.065
            C105.395,60.041,105.543,58.832,106.256,58.825L106.256,58.825z M149.6,60.173c0.535,0.003,1.079,0.852,1.257,1.483
            c-1.87,2.402-1.576,6.889-2.011,8.243c-0.377,1.103-0.499,0.151-1.54-2.704c-0.42-1.152,1.697-6.881,2.188-7.008
            C149.528,60.178,149.564,60.173,149.6,60.173z M151.512,62.636c0.416,0.238,0.982,0.783,1.082,1.643
            c0.058,0.498-0.189,1.16-0.348,1.815c-0.378,1.559-0.889,4.502-1.072,7.221c-0.078,1.157-0.074,2.198-0.126,2.3
            c-0.562,1.103-1.749-1.865-1.647-4.227C149.77,69.501,149.975,62.896,151.512,62.636z M154.154,66.027
            c0.265,0.367,0.433,0.648,0.514,0.965c0.142,0.551,0.022,1.208-0.301,2.609c-0.858,3.715-0.733,7.719-0.174,11.828
            c0.118,0.865-0.482,0.432-1.391-1.058c-0.504-0.825-0.826-1.957-0.98-3.294c-0.317-2.922,0.293-6.882,0.812-10.007
            C152.864,65.688,153.024,64.469,154.154,66.027z M155.578,68.287l1.503,1.811c0,0-0.642,4.164-0.638,6.386
            c-0.105,0.832,0.746,9.879,1.023,10.611c-0.923-1.034-1.354-1.643-2.366-2.941c-0.115,0.019-0.991-8.914-0.387-12.331
            C155.08,69.756,155.578,68.287,155.578,68.287z M157.936,71.885c0.252-0.009,0.572,0.275,0.976,0.841
            c0.363,0.51,0.541,0.93,0.561,1.564c0.015,0.464-0.216,0.821-0.223,1.647c-0.042,4.922,0.623,9.566,1.46,14.044
            c0.295,1.603-0.279,0.949-1.229-0.064c-0.871-0.929-0.887-1.281-1.352-2.601c-0.093-0.264-1.021-9.339-1.013-10.025
            c0.033-2.82,0.113-4.391,0.438-5.067C157.66,72.002,157.784,71.891,157.936,71.885z M152.477,81.775c0,0-1.749,0.9-2.207,0.584
            c-0.738-2.014-3.402-7.404-3.448-8.359c0.047-0.313,1.092-1.732,1.092-1.732C149.386,75.46,150.71,78.728,152.477,81.775z
            M119.566,75.3c-0.527,0.619-1.156,0.361-2.428-0.197c-0.651-0.2-0.551,0.067-1.628,0.627c-0.836,0.435-1.129,0.445-1.683,0.44
            c-0.729-0.006-0.992-0.262-0.994,0.252c-0.002,0.283-0.044,1.566-0.217,2.229c-0.234,0.903-0.439,1.302-0.311,1.458
            c0.371,0.341,0.684,0.133,1.466-0.623c1.299-1.254,2.174-0.895,3.62-0.429c1.646,0.531,1.985,0.727,3.49,0.2
            c2.131-0.745,3.415-0.745,4.264-0.205c1.463,0.932,1.904,0.877,1.302-1.67c-0.194-0.821-0.208-2.095-0.328-2.314
            c-0.136-0.25-0.508,0.462-0.896,0.725c-0.744,0.5-1.129,0.491-2.807-0.059C121.423,75.409,120.309,74.345,119.566,75.3z
            M146.543,75.632c0.649,1.529,3.232,6.641,3.154,7.212c-0.503,0.452-1.177,0.781-1.576,0.377c-1.292-2.356-1.679-3.627-2.729-6.272
            C145.079,76.316,146.017,74.704,146.543,75.632z M160.419,75.445c0.183-0.025,0.565,0.354,0.85,0.734
            c0.885,1.184,0.938,1.33,0.966,2.599c0.102,4.599,0.68,10.012,1.976,14.186c0.255,0.821,0.738,1.82,0.686,1.956
            c-0.435,0.633-2.449-1.062-3.058-3.642c-0.839-3.275-1.329-6.692-1.596-8.917C159.905,78.448,159.906,75.649,160.419,75.445z
            M144.919,77.981c0.744,1.436,1.682,3.912,2.313,5.397c0.287,0.646-1.185,1.154-1.522,0.935c-0.588-0.438-0.866-1.675-1.252-2.415
            c-1.229-2.686-1.449-2.742-0.769-3.578C144.109,77.738,144.609,77.026,144.919,77.981z M163.335,79.628
            c0.108,0,0.248,0.104,0.426,0.333c0.776,0.918,1.304,1.619,1.507,2.299c0.147,0.493,0.029,0.864,0.082,1.758
            c0.139,2.343,0.754,5.541,2.497,12.085c0.17,0.638,0.4,1.394,0.372,1.599c-0.169,1.201-1.932-0.746-2.444-2.758
            c-0.595-2.284-1.68-5.2-1.999-7.897C163.116,82.766,162.752,79.627,163.335,79.628z M143.367,81.358
            c1.465,3.42,1.581,3.414,0.658,3.685c-0.976,0.286-1.034,0.192-2.18-2.137c-0.836-1.699-1.001-1.912-0.298-2.524
            C142.621,79.116,142.903,80.323,143.367,81.358z M122.957,80.542c-0.166,0.004-0.657,0.376-1.15,0.571
            c-1.211,0.479-3.361,0.512-4.671,0.117c-2.322-0.933-1.668,0.278,0.386,1.015c1.594,0.536,4.751,0.121,5.24-0.873
            C123.063,81.055,123.172,80.538,122.957,80.542z M140.614,82.34c1.308,2.022,1.701,2.83,1.48,2.987
            c-0.209,0.209-1.246,0.6-1.672,0.391c-0.534-0.262-1-1.51-1.234-2.489C139.352,82.751,140.211,81.894,140.614,82.34z
            M107.845,83.193c0.585,0.002,2.105,2.046,1.797,2.414c-0.086,0.19-0.656,0.01-1.988-0.359c-0.444-0.164-1.45-0.295-1.132-0.94
            C106.68,84.014,107.613,83.192,107.845,83.193z M139.21,85.993c-0.131,0.35-1.117,0.432-1.536,0.406
            c-0.36-0.75-0.455-1.107-0.555-1.604c0.136-0.298,0.812-1.069,1.145-0.918C138.463,84.056,139.109,85.624,139.21,85.993z
            M166.427,84.023c0.208,0.008,0.569,0.373,1.105,1.141c1.014,1.449,0.877,1.344,1.604,4.806c0.826,3.926,1.813,6.722,2.812,10.731
            c0.014,0.666-0.256,0.489-0.995,0.039c-1.208-0.735-1.604-1.553-1.985-3.681c-0.648-3.516-2.02-6.768-2.545-10.921
            C166.144,84.765,166.121,84.012,166.427,84.023z M136.002,85.426c0.713-0.024,0.617,1.073,0.413,1.252
            c-0.521,0.453-1.957,0.318-2.204,0.344C133.66,86.156,135.537,85.455,136.002,85.426z M170.049,89.162
            c0.21,0.028,0.772,0.823,1.826,2.304c1.012,1.422,0.79,1.189,1.396,3.53c0.856,3.234,2.274,5.567,3.105,8.544
            c-0.001,0.341-0.413,0.297-0.807,0.136c-0.767-0.321-1.451-0.864-2.101-1.396c-0.444-0.479-0.441-1.089-1.754-5.603
            c-0.473-1.628-0.597-2.052-1.188-4.525C170.032,90.083,169.812,89.129,170.049,89.162z M60.331,98.825
            c3.441,6.332,2.167,9.14-5.233,10.017c-0.535-0.075-0.03,3.244-0.045,4.727c3.708-2.121,8.192-2.616,12.325-3.948
            c-1.126,3.604-3.101,7.687-9.083,7.058c-6.253-4.832-13.612-1.929-18.606-3.891c-2.716-1.012-3.753-4.028-3.785-4.546
            c3.257,0.326,6.935,1.024,10.091,0.796c-3.447-2.655-2.439-6.331-1.953-8.012c-4.034-5.086-0.667-10.808,5.192-9.478
            c0.605,0.138,1.802,0.727,1.802,0.727C56.688,87.214,63.239,91.968,60.331,98.825z M174.691,95.745
            c0.234-0.022,0.751,0.589,1.787,2.038c3.073,4.3,5.734,8.3,5.694,8.524c-0.133,0.741-3.336-0.557-4.144-1.618
            c-0.921-1.208-3.511-7.43-3.507-8.418C174.524,95.942,174.569,95.757,174.691,95.745z M49.519,114.161
            c1.599,0.235,2.046,0.37,2.028,0.995c0.137,0.53-3.879,0.602-4.424,0.208c-0.435-0.314,0.126-1.004,0.556-1.169
            C48.301,114.008,48.917,114.073,49.519,114.161z M160.24,114.732c-22.44,10.599-31.62,38.788-20.294,60.391l-1.559,1.126
            c-11.105-22.84-2.844-47.315,15.199-59.676c0.73-0.52,2.347-0.92,3.098-1.418c0,0-7.36,1.679-9.852,2.653
            c-0.506-0.017-1.99,0.507-3.586,2.236c-1.395,1.292-5.754,7.303-5.615,7.512l-11.585,0.467l0.011,0.428l11.37-0.263
            c-11.709,19.278-8.832,37.621-1.603,50.458l0.179,0.121c0.42,0.282,1.526-0.526,3.82-2.7c0.945-0.896,2.136-2.008,2.646-2.474
            c1.418-1.299,3.438-3.539,4.825-5.158c-7.873-16.047-0.106-37.182,18.317-46.705c0.031-0.507-0.196-2.056-0.196-2.056
            s-0.696-0.625-1.107-0.562c-20.525,9.042-28.749,31.494-20.404,51.91l-1.376,1.498c-10.486-21.143,0.77-47.569,20.396-55.056
            c-0.01-0.478-0.435-1.088-0.962-0.721c-21.188,9.837-30.423,34.958-20.043,56.37l-1.308,1.155
            c-11.809-23.444,0.633-49.716,20.139-58.693C161.327,115.444,160.24,114.732,160.24,114.732L160.24,114.732z M46.03,114.95
            c0,0-0.148,1.248,0.292,1.675c0.203,0.891-0.121,0.794-0.879,0.613c-1.865-0.445-0.41,0.616,1.116,1.473
            c1.503,0.844,1.301,0.815-0.01,1.647c-0.882,0.559-0.79,0.769-0.672,1.192c0.176,0.63,0.297,0.211,0.662-0.125
            c0.767-0.706,1.38-0.882,2.062-0.879c1.023,0.004,1.127,0.823,0.946,1.463c-0.407,1.343-1.789,1.271-2.922,0.938
            c-1.854-0.546-4.881-3.762-4.834-5.653C41.663,115.599,43.983,114.872,46.03,114.95z M54.364,115.365
            c0.719,0.264,1.623,0.617,2.617,1.033c1.374,0.437,2.767,1.147,3.664,1.746c2.734,1.822,2.567,5.468,2.37,5.829L48.89,137.36
            c0,0-0.798-0.39-1.549-0.772c-2.375-1.212-2.946-1.851-1.628-2.521c0.64-0.325,0.846-1.025,0.938-1.71
            c0.122-0.917,0.074-0.761,0.622-1.179c0.955-0.727,1-1.027,1.005-2.236c0.003-0.8,0.086-1.168,0.377-1.671
            c0.23-0.398,0.475-1.231,0.638-2.188c0.026-0.157,0.034-0.55,0.065-0.688c0.166-0.748,0.403-0.969,0.562-1.139
            c0.158-0.169,0.412-0.746,0.589-1.246c0.395-1.114,0.32-0.949,0.956-0.826c0.925,0.18,0.792,0.719,0.691,1.575
            c-0.05,0.415-0.326,0.706-0.232,0.613c0.127-0.125,0.694-0.394,0.812-0.42c0.296-0.068,0.591,0.033,0.667,0.497
            c0.042,0.258-0.07,0.733-0.063,1.102c0.02,0.952,0.058,2.093,0.275,2.845c1.049,3.619,0.84,3.118,0.483,0.106
            c-0.086-0.722-0.187-1.78-0.082-2.662c0.073-0.621,0.251-1.391,0.492-1.811c0.62-1.081,0.654-1.294-0.69-1.826
            c-0.5-0.197-1.351-0.544-1.526-0.889c-0.216-0.422-0.855-0.997-1.69-1.192c-2.029-0.478-3.21-2.438-2.917-2.729
            c0.191-0.19,1.009,0.059,1.526,0.077c1.853,0.066,2.246-0.029,3.066-0.733c0.438-0.376,0.634-0.71,0.981-0.734
            C53.625,114.995,54.093,115.268,54.364,115.365L54.364,115.365z M150.509,117.532c-18.976,15.353-22.302,40.188-12.835,59.351
            l-1.639,1.287c-11.896-22.479-3.905-46.728,10.71-59.988L150.509,117.532z M40.955,119.364c0.335-0.031,0.701,0.46,2.034,1.884
            c0.896,0.959,1.831,1.792,2.323,2.071c1.114,0.534,0.87,0.312-0.059,1.193c-0.949,1.089-0.425,1.985-1.56,1.439
            c-2.953-1.386-5.026-5.47-3.105-6.453C40.734,119.424,40.844,119.374,40.955,119.364z M39.488,123.657
            c0.072-0.006,0.149,0.005,0.227,0.023c0.364,0.089,0.806,0.773,1.28,1.251c1.312,1.321,1.922,1.908,2.971,2.372
            c1.03,0.456,1.059,0.566,0.333,1.371c-0.264,0.293-0.421,0.645-0.483,0.841c-0.062,0.196-0.078,0.445-0.299,0.487
            c-1.149,0.221-4.97-2.096-5.12-3.694C38.519,124.814,38.897,123.702,39.488,123.657z M47.582,124.102
            c0.662-0.018,1.052,0.573,1.048,1.53c-0.003,0.664-0.376,0.934-1.135,1.218c-1.622,0.607-2.622-0.554-1.487-1.836
            C46.485,124.476,47.129,124.114,47.582,124.102z M46.592,127.999c1.224,0.005,1.578,1.037,0.681,1.927
            c-0.843,0.837-2.544,0.841-2.54-0.077C44.736,129.129,45.814,127.996,46.592,127.999z M39.004,129.234
            c0.828,0.245,2.843,1.697,3.729,1.867c0.047,0.49-0.543,0.624,0.294,1.545c0.38,0.418,0.412,0.703,0.082,0.879
            c-1.011,0.539-4.513-1.164-4.747-2.917C38.248,129.751,38.532,129.265,39.004,129.234z M43.573,131.332
            c1.205,0.05,2.568,0.086,2.425,0.661c-0.104,0.418-0.535,1.521-1.087,1.313c-0.268-0.1-0.528-0.366-0.715-0.545
            C43.554,132.145,43.383,131.323,43.573,131.332z M89.141,136.321c3.51,3.178,16.263,36.373-10.312,60.558l-5.64,1.69
            c25.515-20.034,21.27-48.476,14.385-60.745c0.002-0.36-0.1-0.319-0.734,0.256c-0.557,0.503-0.615,0.612-0.392,0.705
            c7.781,11.973,10.688,45.789-19.967,62.107c-0.515,0.534,0.526,0.453,0.526,0.453c0.055-0.439,13.804-3.78,12.834-3.864
            c12.814-11.328,23.972-38.342,10.082-61.889C89.589,135.371,89.141,136.321,89.141,136.321L89.141,136.321z M84.714,140.078
            l-0.179,0.749c11.123,21.836,0.506,48.589-20.169,58.49c0.34,0.25,0.718,0.422,1.098,0.6c23.454-12.629,30.218-39.358,19.986-60.062
            L84.714,140.078z M82.855,141.627l-0.129,0.793c9.207,18.584,1.897,44.373-20.079,54.835c-0.208,1.125,0.004,0.796,1.031,0.743
            c25.428-13.637,27.818-39.568,19.862-56.408L82.855,141.627z M81.276,143.856c-0.718,0.949-2.033,1.44-2.47,2.663
            c7.387,19.523-2.16,38.317-18.323,46.239c-0.013,0.982-0.718,3.413,0.994,3.024c19.968-9.045,28.655-33.088,19.925-52.014
            C81.402,143.769,81.287,143.852,81.276,143.856L81.276,143.856z M181.574,181.604c0.735,0.052,1.395,0.274,2.076,0.363
            c2.48,0.321,4.09,2.13,2.981,3.229c-0.364,0.361-0.873,0.154-2.484-0.635c-0.74-0.361-0.859-0.701-1.013-1.518
            c-0.184-0.979-0.379-1.078-0.628-0.318c-0.251,0.768-0.521,1.243-1.368,1.049C178.76,183.222,179.659,181.585,181.574,181.604z
            M155.042,198.226c-5.956-3.38-13.311-9.475-17.516-16.399c-2.09,3.922-4.546,11.061-4.546,11.061l-9.349-2.611l-0.11,0.194
            l9.24,2.662l-0.9,3.084c-0.098,0.333-1.528,3.842-1.528,3.842l14.432,6.734c-0.895,1.399-1.87,2.305-3.109,3.609
            c-0.7,0.736-0.721,1.689-0.721,1.689l20.01-19.086c0,0,2.581,3.828,3.541,4.696c0.9,0.813,1.181,1.011,0.13,1.254
            c-4.701,0.688-8.35,4.249-7.078,9.023c0.206,0.531,0.62,0.336,1.512-0.225c3.121-2.827,10.751-5.443,11.012-4.779l0.029,3.04
            c-8.214,0.119-7.371,6.158-6.77,9.396c0,0.07-2.376,2.146-2.376,2.146c0.84,0.44,1.663,0.896,2.438,1.439
            c-0.722,4.028,2.711,9.867,9.453,6.878c0.583,0.598,1.133,1.198,1.776,1.949c0.689-0.799,1.485-2.681,1.485-2.681
            c3.349,1.516,10.298-1.877,6.743-9.646l1.96-1.868l-1.883-1.187c-0.049-1.976-0.354-3.74-1.534-5.462c0,0,3.162,0.807,5.501,0.942
            l0,0c1.445,0.13,2.663,0.167,2.542-0.706c-0.036-0.258-0.252-1.515-0.393-1.927c-0.698-2.035-4.317-3.529-7.833-3.727
            c-0.573-0.032-1.191-0.015-1.313-0.163c-0.229-0.279,0.183-0.676,0.561-0.61c1.925,0.335,3.776-1.088,4.109-2.897
            c0.066-0.317,0.46-0.898,1.024-1.517c1.002-1.097,1.08-1.068,1.062-2.652c-0.014-1.1,0.18-1.344,0.687-2.081
            c0.655-1.051,0.959-2.423,0.63-3.842c-0.104-0.449-0.53-1.086-0.167-2.206c0.59-1.822-0.707-3.489-2.407-4.439
            c-0.137-0.038-0.096,0.095-0.208,0.229c-1.543,0.48-3.422-0.625-3.422-0.625c-0.388-0.19,1.313-10.077,4.84-9.194
            c0.586,0.355,0.834,2.074,0.789,2.104c0.162-0.004,0.25-1.012,0.022-1.684c-0.239-0.705-0.786-1.376-1.838-1.178
            c-0.815,0.154-1.757,1.236-2.183,1.779c-1.646,2.099-1.665,3.438-2.216,5.671c-0.265,1.055-0.293,0.994-1.754-0.147
            c-1.048-0.819-1.556-1.081-1.191-1.562c0.164-0.216,0.843-0.897,0.843-0.897l12.763-12.28v122.976h-72.169l0.505-15.804
            c1.354-11.112-1.028-34.447-2.831-36.642c1.391-1.562,5.705-5.328,5.467-5.498l-0.571-0.338l-2.281,2.098l-5.633-1.706
            c-2.402-1.659-4.854-3.193-7.398-3.847c-4.153-1.065-12.153,2.331-12.16,2.366c-12.78,0.946-23.015,6.136-22.872,6.097
            c-0.557-0.511-1.293-2.143-1.312-2.133c-6.588-9.168-13.064-14.304-21.912-20.569l11.207-6.191l-26.558-27.747l-0.233-22.532
            l38.472-36.779c0.227-0.635,12.274,8.509,16.76,15.95c0.859-3.638,2.462-6.94,3.797-10.513c0.139-0.326,7.653,2.778,9.883,2.91
            c0.333,0.02,0.602-0.332,0.602-0.332l-9.917-3.225l2.028-5.809c0,0,0.706-1.579-0.091-1.841c-4.521-1.462-8.764-4.04-13.087-6.235
            c0,0,2.02-2.245,2.05-2.345c0.028-0.094,0.848-1.298,0.652-1.714c-2.199,2.135-20.148,18.78-20.148,18.78
            c-0.511-2.857-1.313-3.855-3.059-5.618c0.951-0.046,2.438-0.985,3.299-1.612c2.63-1.916,4.062-5.336,3.718-7.334
            c-2.525,0.804-4.805,1.746-7.968,2.32c-1.777,0.322-3.464,1.125-4.486,1.985l-0.156-3.188c0.006,0.037,4.255,0.745,6.223-2.106
            c1.696-2.457,1.001-5.271,0.611-6.704c0.044-0.319-0.05-0.283,0.682-0.957c0.54-0.497,1.381-1.14,1.381-1.14
            c0.036-0.181-2.194-1.008-2.571-1.763c0.594-5.908-4.126-8.188-8.122-7.139c-0.746,0.225-1.104,0.365-1.991-0.624
            c-0.132-0.147-1.197-1.273-1.197-1.273s-0.471,1.085-0.712,1.561c-0.783,1.545-0.998,1.08-2.688,1.163
            c-4.279,0.209-6.188,3.664-5.206,7.906c0.23,0.995,0.127,0.842-0.526,2.101c-0.334,0.644-0.88,1.464-0.88,1.464
            s0.785,0.435,1.314,0.671c0.783,0.351,0.824,0.761,0.82,1.541c0.109,1.722,0.487,2.874,1.478,4.353
            c-3.353,0.077-5.925-0.236-8.96-1.244c0.465,4.667,3.905,6.405,8.12,7.09c0,0-0.442,0.413-0.908,0.597
            c-0.985,0.286-1.603,1.151-1.594,1.927c-0.142,0.741-0.621,1.484-1.062,1.881c-0.656,0.567-1.195,1.368-0.937,2.916
            c-0.066,1.121-0.338,1.445-0.667,1.874c-0.661,0.859-0.884,1.714-0.72,2.845c0.077,0.525,0.239,1.651,0.131,2.815
            c-0.182,1.94,0.514,2.667,1.396,4.033c0.571,0.885,0.451,0.908,0.319,1.55c-0.317,1.542-0.647,2.334-0.99,3.507
            c-0.767,2.623-0.796,4.612-0.169,5.125c0.944,0.771,2.014,0.539,2.512,0.386c3.729-1.151,3.083-4.812,3.279-7.27
            c0.106-0.632,0.322-0.935,0.531-0.905c1.055,1.233,2.169,1.947,3.604,2.725c-4.962,5.05-8.202,8.141-14.476,13.649l0.171-123.006
            h71.557c0,0,0.074,0.91-0.096,5.361c-0.31,9.046-0.69,18.521-0.097,27.743c0.1,3.191,0.034,6.343,0.492,9.5
            c0.447,3.076,0.645,6.394,2.082,9.259c0.578,1.554,0.597,1.434-1.604,3.468c-1.08,0.998-1.998,2.061-1.957,2.248
            c0.013,0.062-0.048,0.296,0.117,0.163c0.11-0.088,0.908-0.877,0.996-0.981c0.597-0.703,1.595,0.199,4.998,1.159
            c0.668,0.188,1.608,0.817,2.328,1.338c5.089,4.288,12.248,2.951,17.601,0.612c1.519-0.663,1.892-0.731,4.332-1.021
            c9.04-1.071,18.698-5.021,18.679-5.009l1.18,1.934c0,0,0.443-0.082,0.76,0.404c5.199,9.819,22.174,21.04,21.872,20.52l-11.095,6.143
            c8.077,9.98,26.549,26.912,26.549,26.912l-0.425,24.336c-4.959,3.967-9.321,8.513-13.682,12.953
            c-1.254,1.24-2.139,1.949-1.663,1.973c1.133-0.172,2.109,0.943,3.031,1.718c0.583,0.65,0.442,0.592-0.23,1.48
            c-0.474,0.624-0.646,0.805-0.648,1.256c0.017,0.873,0.011,1.458-0.767,2.113c-0.482,0.605-0.759,0.993-0.846,1.712
            c-0.087,0.717-0.08,1.177-0.573,1.811c-0.836,0.178-0.915,1.395-0.768,1.938c0.875,0.868,0.475,1.808,0.557,1.61
            c-1.672,1.814-3.426,3.386-2.306,0.85c0.505-0.944,0.681-1.727,0.681-1.727s-0.805,0.834-1.226,1.228
            c-0.645,0.597-0.88,0.245-0.899-1.606c-0.083-1.401-0.674-3.356-0.908-3.73c-0.131-0.209-0.153,0.153-0.092,1.502
            c0.081,1.775,0.292,2.29-0.332,4.062c-0.845,2.394-1.445,2.732-0.074,2.649c1.299-0.078,2.397-0.092,2.966,0.684
            c0.191,0.261,0.438,0.709,0.963,0.973c1.068,0.584,1.919,1.231,2.513,1.878c1.921,2.089,1.37,3.956-2.345,2.69
            c-1.956-0.667-0.675-1.507,1.427-1.312c1.292,0.121,1.509-0.356,0.392-0.698c-2.079-0.385-2.414-0.619-3.784,1.012
            c-5.758-0.57-8.99-3.788-10.544-6.41c-0.649-1.097-0.849-1.307-0.396-1.928c0.178-0.244,0.069-0.17-0.237,0.169
            s-1.143,0.623-1.419,0.867C158.745,194.583,156.785,196.656,155.042,198.226L155.042,198.226z M180.1,184.712
            c0.978,0.12,0.958,0.941,0.086,1.729c-0.819,0.621-1.381,0.741-1.844,0.274C177.531,185.9,178.578,184.706,180.1,184.712z
            M182.946,185.281c0.788-0.003,1.793,0.359,2.986,1.351c1.424,1.185,1.75,4.051,0.441,4.547c-0.548,0.208-0.633,0.005-1.801-1.104
            c-0.787-0.749-1.642-1.426-2.482-1.826c-1.717-0.817-1.938-1.126-0.777-1.683c0.245-0.125,0.561-0.421,0.705-0.652
            C182.317,185.436,182.406,185.282,182.946,185.281L182.946,185.281z M181.091,189.097c0.228,0.007,0.532,0.146,1.009,0.401
            c2.895,1.581,4.31,4.059,3.33,5.458c-0.643,0.917-1.688,0.567-2.485-0.734c-0.448-0.732-1.641-1.671-2.994-2.356
            c-1.55-0.786-1.583-0.898-0.464-1.435c0.46-0.221,0.805-0.531,1.029-0.928C180.776,189.044,180.798,189.089,181.091,189.097z
            M182.018,195.003c2.188,2.18,1.938,3.359,0.517,4.247c-0.97,0.606-2.525,0.758-3.035,0.256c-0.824-0.721-0.803-1.546,0.108-1.812
            c0.85-0.182,0.531-0.522-0.263-0.724c-2.836-0.805-4.578-2.31-1.496-1.983c0.884,0.094,1.74-0.594,2.203-1.143
            C180.721,193.033,181.624,194.61,182.018,195.003L182.018,195.003z M32.9,195.843l63.818,91.362l-51.593-0.101
            c0,0-0.194-0.671,0.226-6.147c0.621-7.43-0.332-13.874-2.091-21.126c0.222-0.024-2.471-8.804-4.564-13.094
            c-0.381-0.898-0.318-0.985,0.917-1.145c3.652-0.587,7.586-1.471,11.234-3.014c1.696-0.149,4.187,0.512,4.052,0.305
            c-0.061-0.1-2.206-2.067-2.206-2.067c-5.958,2.381-11.455,3.252-16.629,3.843c6.868,11.69,9.319,27.604,7.26,41.899l-9.885-0.03
            l-0.03-70.353L32.9,195.843z M44.306,209.373c0.901-0.035,3.146,1.551,3.421,2.742c0.057,0.244,0.641,1.71,1.295,3.073
            c0.013,0.252,2.226,4.246,1.253,3.898c-1.935-2.628-5.389-7.104-6.259-9.283C44.018,209.513,44.054,209.384,44.306,209.373
            L44.306,209.373z M51.2,213.369c0.12,0.66,0.789,2.387,1.317,3.524c1.378,2.965,3.511,7.612,3.077,8.936
            c-0.292,0.892,0.008,0.845-0.772-0.257c-0.382-0.538-1.574-2.2-1.859-2.584c-0.698-0.936-0.229-0.077-0.627-1.602
            c-0.95-4.311-2.485-6.576-3.482-9.095C48.498,211.109,50.743,212.893,51.2,213.369L51.2,213.369z M52.427,214.028
            c0.186,0.13,2.714,1.908,2.97,2.163c0.896,3.188,4.481,13.402,3.554,15.228c-0.323-0.253-1.689-1.9-1.879-2.749
            c-0.414-4.884-1.964-8.396-3.626-12.036C52.978,215.535,52.611,214.439,52.427,214.028z M57.184,217.614
            c0.801,0.391,1.63,1.285,2.1,2.084c0.313,0.543,0.475,1.181,0.77,2.523c0.917,4.167,2.665,8.392,1.879,12.838
            c-0.49,0.665-1.558-0.843-1.71-2.328c-0.505-4.924-0.939-7.283-2.671-13.074C57.215,218.532,56.961,217.653,57.184,217.614z
            M61.246,221.434c0.171,0.007,0.521,0.325,1.105,0.874c1.138,1.067,1.298,1.461,1.305,3.231c0.036,2.603,0.903,5.573,1.038,8.201
            c0.077,1.516,0.355,5.438,0.121,5.67c-0.331,0.457-1.8-1.205-1.687-3.753c0.188-3.062,0.035-5.366-1.27-10.664
            c-0.604-2.448-0.909-3.494-0.647-3.555C61.222,221.436,61.235,221.433,61.246,221.434L61.246,221.434z M179.072,205.967
            c4.56,2.927,2.952,8.329,1.976,8.993c6.297,7.956-3.491,12.029-6.598,9.17c-4.598,4.568-12.488,0.739-9.449-6.791
            c-0.004,0-5.775-11.031,5.613-10.294c0,0,0.196-4.457-0.125-4.661c-4.065-0.272-9.592,3.642-11.157,4.725
            c-0.868,0.524-1.059,0.273-1.059,0.273c-0.216-2.313-0.222-3.372,0.718-4.662c1.641-2.251,4.354-3.012,7.916-3.794
            c4.408,1.357,8.606,3.488,12.691,3.156c2.25,0.014,4.55,0.377,6.73,1.547c1.472,0.694,2.237,3.298,2.237,3.298
            C186.257,208.134,179.072,205.967,179.072,205.967L179.072,205.967z M176.903,189.61c0.02-0.79,0.911-1.671,1.79-1.568
            c1.207,0.087,1.364,1.517,0.291,2.043c-0.31,0.251-1.312-0.119-1.366,0.158c0.074,0.487-0.417,0.281-0.512,0.106
            C176.94,190.142,176.903,189.847,176.903,189.61z M176.171,192.724c0.443-0.311,0.813-0.338,1.259-0.396
            c0.686-0.083,1.561,0.021,1.755,0.738c0.191,0.704-1.16,1.119-2.253,1.138c-0.557,0.01-1.2,0.117-1.367-0.272
            C175.407,193.565,175.948,192.89,176.171,192.724z M38.159,142.416c0.88-3.058,0.33-4.77,1.797-8.539l3.569,1.188
            c0,0,0.151,3.696-0.568,5.757C42.237,142.88,39.869,144.522,38.159,142.416z M64.747,225.119c0.422,0.05,1.456,1.522,1.923,2.868
            c0.428,1.248,0.287,2.833,0.599,4.178c0.701,4.609,0.659,9.226,0.474,10.621c-0.093,0.695-0.541,0.412-1.154-0.251
            c-0.893-0.964-0.77-0.984-0.759-3.661c0.009-2.294-0.5-7.962-0.734-9.114c-0.433-2.13-0.613-4.162-0.512-4.511
            C64.612,225.152,64.669,225.11,64.747,225.119L64.747,225.119z M106.494,225.67c4.597,0.732,8.271,3.87,10.378,9.036
            c2.032,5.253,2.533,12.42,2.849,19.01c-0.022,1.576-0.672,1.178-2.375,0.198c-1.859-0.908-2.256-0.646-4.971-0.023
            c-1.694,0.388-1.541-0.765,1.246-2.676c0.949-0.619,2.054-1.446,1.69-1.57c-0.184-0.062-1.033,0.166-1.646,0.662
            c-2.735,2.21-3.477,2.748-2.688,0.599c0.199-0.543,0.833-2.05,1.098-2.771c0.991-2.7-0.15-3.855-3.515-5.564
            c-0.842-0.428-1.396-1.142-0.556,0.353c0.688,1.222-0.733,2.207-2.492,0.777c-1.223-0.993-3.679-0.331-4.472,0.908
            c-0.769,1.2-0.357,3.44,1.156,4.167c1.334,0.574,1.832,0.16,0.542-0.734c-1.66-1.15-1.337-3.092,0.526-3.085
            c0.461,0.002,1.274,0.516,3.329,1.633c1.471,0.795,2.518,0.459,2.52-0.729c0.001-0.795,0.455-0.729,1.423-0.252
            c1.303,0.644,1.16,1.228,0.472,3.027c-0.464,1.257-0.695,2.686-1.12,3.999c-1.098,4.422-1.243,9.43-0.03,10.991
            c3.227,4.151,6.654,3.712,9.589,0.968l-0.126,4.547c-2.992,2.401-6.487,4.038-11.884,12.94c-1.882-2.364-9.957-12.028-22.906-14.211
            l-2.913-3.987c0.049-0.247-2.178-14.827-3.634-19.79c0,0,1.602-2.433,3.057-4.226C86.854,232.702,96.681,224.505,106.494,225.67
            L106.494,225.67z M89.608,229.809c-0.498,0.157-0.66-0.835-0.389-1.024c0.599-0.05,0.811-0.031,1.41,0.013
            C91.082,228.825,91.072,229.345,89.608,229.809L89.608,229.809z M67.757,229.065c0.646,0.461,1.435,1.701,2.207,2.831
            c0.427,0.625,0.185,1.662,0.251,2.685c0.094,1.451,0.255,3.844,0.357,5.313c0.199,2.866-0.069,5.264-0.488,6.129
            c-0.428,1.035-1.296,0.319-1.512-1.097c-0.052-0.34,0.231-3.855,0.232-5.786C68.805,235.82,67.956,231.722,67.757,229.065
            L67.757,229.065z M87.357,229.044c0.229-0.013,0.402-0.005,0.553,0.189c0.697,0.893,0.98,1.434,0.346,1.923
            c-0.842,0.702-1.608,0.525-2.075-0.81C85.879,229.396,86.588,229.096,87.357,229.044L87.357,229.044z M84.76,229.831
            c0.752,0.504,1.498,1.83,1.576,2.787c-0.048,0.263-0.279,0.485-0.784,0.893c-0.5,0.458-0.658,0.429-1.216-0.452
            c-0.876-1.367-1.286-2.269-1.114-2.74C83.659,229.864,84.229,229.682,84.76,229.831z M115.368,230.005
            c1.255,0.106,2.494,0.68,3.715,0.968l-1.863,1.802C116.666,231.851,116.035,230.928,115.368,230.005z M81.976,230.944
            c0.688,0.896,1.888,3.238,1.824,4.109c-0.176,0.296-0.448,0.561-0.736,0.727c-0.229,0.062-0.435-0.339-1.211-1.712
            c-1.351-2.388-1.745-3.062-1.045-3.349C81.176,230.679,81.737,230.697,81.976,230.944z M79.254,231.499
            c0.751,0.668,2.552,4.226,2.604,5.227c-0.021,0.281-0.104,0.525-0.272,0.716c-1.132,1.218-0.846,1.021-2.531-2.449
            c-1.424-2.854-1.8-3.137-0.858-3.458C78.405,231.464,78.926,231.369,79.254,231.499z M76.547,232.427
            c0.494-0.007,0.633,0.82,1.597,2.702c1.613,3.56,2.219,4.054,1.853,4.435c-0.449,0.567-0.713,0.967-1.141,0.276
            c-0.973-1.581-1.938-3.6-2.843-5.371c-0.726-1.322-0.79-1.482-0.324-1.806C75.955,232.478,76.354,232.43,76.547,232.427z
            M105.338,233.439c-0.605,0.17-3.043,0.942-1.551,1.082c0.302,0.027,1.066-0.163,1.604-0.2c1.51-0.104,4.648,0.18,4.536-0.109
            C109.64,233.127,106.16,233.228,105.338,233.439z M74.437,233.772c0,0.06,0.392,0.754,0.781,1.433
            c2.292,4.43,3.567,6.043,3.159,6.743c-0.335,0.422-0.853,0.954-1.159,0.828c-0.493-0.203-1.15-1.653-2.791-4.935
            c-1.695-3.392-1.872-3.646-1-4.086C73.783,233.59,74.217,233.467,74.437,233.772L74.437,233.772z M72.147,235.334
            c1.054,1.712,0.916,1.487,0.903,7.062c-0.008,3.469-0.453,5.681-1.033,6.534c-0.304,0.447-0.841,0.185-1.106-0.69
            c-0.121-0.4,0.225-0.994,0.29-1.628c0.41-4.174,0.124-8.345,0.133-12.295C71.652,234.283,71.977,235.055,72.147,235.334z
            M99.324,236.701c0.491,0.7,0.371,1.265,0.367,2.207c-0.005,1.332,0.092,1.431,1.012,0.758c0.815-0.597,0.881-0.635,2.336,0.353
            c0.863,0.586,1.952,0.652,2.656,0.005c0.496-0.456,0.668-0.251,1.333-0.077c0.724,0.402,0.93,0.464,2.482-0.29
            c1.049-0.464,1.091-0.53,1.715-0.202c1.097,0.967,1.259,0.617,1.11-0.647c0.003-0.441,0.131-1.266,0.262-1.802
            c0.545-2.249-0.339-2.273-1.508-0.84c-0.452,0.555-1.461,0.795-2.414,0.348c-1.366-0.642-3.497-0.382-5.073-0.117
            c-1.864,0.313-2.728-0.2-3.477-0.84c-0.424-0.361-1.394-0.685-1.501-0.407C98.518,235.425,98.738,235.863,99.324,236.701
            L99.324,236.701z M74.325,239.855c0.233-0.05,0.592,0.642,1.115,2.106c0.677,1.89-0.506,8.462-1.217,9.539
            c-0.376,0.564-0.618,0.911-1.391-0.136c-0.308-0.46-0.068-0.606,0.236-1.898c0.464-1.966,0.854-5.146,0.879-6.626
            C73.955,240.919,74.061,239.912,74.325,239.855z M76.701,246.231c0.168,0.012,0.364,0.391,0.633,1.14
            c0.38,1.029,0.195,3.012-0.304,4.53c-0.29,0.885-0.565,1.827-1.059,2.618c-0.168,0.443-1.028,0.288-1.265-0.695
            c-0.15-0.623,0.367-1.396,0.618-2.387c0.251-0.995,0.538-2.261,0.681-2.897C76.269,246.984,76.456,246.213,76.701,246.231z
            M95.094,249.143c-0.021-0.003-0.04,0-0.053,0.005c0.003-0.006-0.01,0.01-0.015,0.015c-0.04,0.039,1.793,2.035,2.284,2.594
            c0.257,0.218,2.464,2.9,1.092,2.284c-3.464-1.436-7.517-0.73-10.013,1.676c-0.312,0.302-0.571-0.007-1.517-0.077
            c-1.938-0.145-2.643,0.624-1.463,1.579c0.18,0.146,0.557,0.213,0.727,0.447c0.156,0.215,0.11,0.601,0.191,0.709
            c3.748,4.976,10.69,5.944,15.049,2.693c0.549-0.408,0.856-0.553,1.367-0.4c1.014,0.302,1.104-0.548,0.208-1.734
            c-0.391-0.518-0.872-1.114-0.592-1.285c0.554-0.477,0.827-1.255-0.135-1.546c-0.664-0.201-1.407-0.939-1.78-1.97
            C100.01,252.929,95.74,249.231,95.094,249.143L95.094,249.143z M78.078,251.322c0.814-0.02,0.852,4.793-0.049,6.254
            c-0.462,0.554-1.521-0.475-1.361-1.53c0.12-0.803,0.985-4.421,1.183-4.608C77.931,251.361,78.009,251.323,78.078,251.322
            L78.078,251.322z M94.688,254.325c0.685-0.007,1.62,0.299,2.364,0.972c0.402,0.363,1.106,1.938,0.814,2.554
            c-0.082,0.314-0.927,0.296-1.004,0.065c-0.464-3.176-3.039-3.637-3.856-0.672c0,0-0.53,0.45-0.598-0.418
            C92.591,255.143,93.383,254.338,94.688,254.325z M115.423,254.601c0.818-0.016,1.599,0.396,1.999,1.271
            c0.28,0.609,0.311,1.122,0.199,1.39c-0.082,0.199-0.358,0.113-0.358,0.113c-1.307-3.585-3.085-1.927-3.729,0.055
            c0,0-0.673,0.207-0.756-0.006c-0.085-0.215-0.032-0.617,0.235-1.176C113.524,255.182,114.495,254.618,115.423,254.601
            L115.423,254.601z M97.939,254.823c0.463-0.025,1.255,0.351,1.848,0.948c0.602,0.606,0.661,0.969,0.175,1.418
            c-0.292,0.271-1.331,0.538-1.532,0.067l-0.874-2.042C97.472,255.021,97.729,254.834,97.939,254.823z M91.641,254.919
            c0.518,0.002,0.627,0.119-0.187,2.012c-0.174,0.405-2.262-0.183-1.863-0.963C90.188,255.346,91.122,254.918,91.641,254.919z
            M112.549,255.07c0.209-0.01,0.378,0.021,0.449,0.115c-0.187,0.067-0.976,2.062-0.976,2.062c-0.745-0.09-1.636,0.016-1.797-0.594
            c-0.152-0.576,0.148-0.926,1.198-1.328C111.741,255.21,112.201,255.085,112.549,255.07z M118.658,255.581
            c0.79,0.29,0.975,0.959,0.874,1.304c-0.077,0.262-0.45,0.265-0.715,0.063c-0.252-0.293-0.623-0.791-0.595-1.126
            C118.306,255.49,118.406,255.486,118.658,255.581z M79.281,257.425c0.243,0.457,0.682,3.048,0.169,2.981
            c-0.497-0.129-0.729-0.91-0.815-1.613C78.615,258.648,79.059,257.442,79.281,257.425L79.281,257.425z M87.98,258.808
            c0.229-0.033,0.81,0.17,1.671,0.656c2.834,1.369,5.739,1.563,8.826,0.874c1.779-0.462,2.233-0.732,2.485-0.427
            c0.427,0.519-0.247,1.038-2.761,1.883c-2.756,0.926-5.616,0.77-9.376-1.884C87.815,259.198,87.684,258.85,87.98,258.808
            L87.98,258.808z M119.431,259.522c0.467,0.871-1.122,1.696-1.927,1.929c-1.71,0.495-4.3,0.264-5.764-0.615
            c-0.122-0.073-0.24-0.152-0.353-0.235c-1.189-0.886-0.697-1.519,0.628-0.836c1.426,0.734,4.325,0.87,5.863,0.128
            C118.651,259.52,119.18,259.053,119.431,259.522z M84.237,261.146c-0.158,0.034,0.109,0.435,0.661,1.033
            c3.878,4.352,13.128,6.712,18.327,2.228c1.628-1.528,1.38-2.216-1.188-0.995c-2.84,0.935-6.876,1.057-10.367,0.54
            c-1.716-0.231-4.512-0.89-5.931-1.927C84.845,261.371,84.375,261.115,84.237,261.146L84.237,261.146z M110.97,261.276
            c0.236,0.02,0.651,0.106,1.552,0.575c1.313,0.683,4.297,0.449,5.273,0.089c2.059-0.76,2.48,0.205,0.53,1.282
            c-2.172,1.315-5.171,0.801-6.921-0.894c-0.542-0.485-0.835-1.09-0.597-1.139C110.83,261.185,110.936,261.273,110.97,261.276
            L110.97,261.276z M85.266,268.973c7.636,0.697,19.158,8.273,23.651,17.375h-2.586c-4.514-7.162-11.459-12.927-19.701-15.078
            C86.304,271.019,85.091,269.29,85.266,268.973L85.266,268.973z M119.156,270.64l-0.353,2.517c-1.279,1.048-5.97,4.934-9.448,11.018
            c-0.725-0.033-1.076-0.907-0.955-1.501C111.186,277.181,114.516,274.15,119.156,270.64L119.156,270.64z M88.299,272.61
            c1.751-0.121,13.148,6,16.986,13.738h-2.102c-4.317-5.622-9.115-9.29-13.374-10.761C88.775,274.494,87.641,272.657,88.299,272.61z
            M118.804,274.36l-0.02,3.4c-2.727,2.654-4.72,5.325-6.28,8.588h-2.117c0,0-0.471-0.933-0.307-1.514
            C112.487,280.503,114.791,277.35,118.804,274.36z M101.49,286.348h-2.049c-1.729-2.444-4.298-4.797-6.656-6.197
            c-0.967-1.197-2.05-2.675-1.613-2.915C91.198,276.351,100.267,282.48,101.49,286.348z M118.848,279.431l-0.044,1.966
            c-1.387,1.773-2.549,3.261-3.659,4.951h-1.746C114.99,282.91,118.99,278.502,118.848,279.431L118.848,279.431z M95.332,283.238
            c0.632,0.167,2.94,2.372,2.867,3.11l-1.04-0.03c-0.583-0.736-1.274-1.502-1.684-2.256C95.219,283.585,95.054,283.144,95.332,283.238
            z M118.447,283.846c0.007-0.003,0.011-0.002,0.015,0c0.003,0.001-0.021,2.502-0.021,2.502h-1.753
            C116.499,286.314,117.537,284.458,118.447,283.846L118.447,283.846z"/>
        <path fill="#000000" d="M154.912,28.247c-8.59-0.001-17.277,0.048-26.941,0.149l65.248,92.577l0.053-20.565l-20.938-27.021
            c4.765-1.47,10.584-2.485,15.165-2.894c-5.885-13.045-8.827-25.296-6.235-42.088C171.995,28.3,163.502,28.248,154.912,28.247z
            M180.178,28.836c-0.512,5.928-1.183,12.539-0.106,19.88c-3.396-1.239-4.192,0.879-4.755,1.102c-0.64-1.425-3.006-3.889-5.686-0.992
            c-1.394,1.506-0.717,4.338,2.518,5.615c-3.703,0.284-5.628-2.881-6.277-6.145c-2.002-1.281-4.105-2.548-4.306-7.039l1.026,0.171
            c-0.342,3.134,2.915,4.73,4.82,3.234c1.232-0.944,1.364-2.4,0.879-4.664c0.989-0.202,3.308-1.173,2.695-4.151
            c-0.847-4.111-5.069-3.629-6.999-0.925c-1.604-1.985-4.544-2.354-5.724,0.729c-0.656,1.717,0.84,3.646,2.541,4.019
            c-3.777,0.724-5.682-4.483-5.893-8.008l-1.565-2.777C163.558,28.825,168.024,28.837,180.178,28.836z M129.033,28.938l7.578,0.005
            l55.308,71.569l0.116,17.817L129.033,28.938z M148.194,28.943l1.208,0.015c0.946,6.299,4.569,10.86,10.766,13.079
            c0.321,5.146,2.804,12.138,12.22,14.5c-0.277,5.811,3.455,11.364,7.452,14.025c0,0-1.079,0.268-1.922,0.348
            c-5.374-4.26-6.698-10.533-7.23-13.122c-0.182-0.374-0.694-0.465-1.102-0.556c-4.599-1.625-8.469-5.402-10.051-10.013l-0.995-4.525
            c0.003-0.581-0.115-0.309-1.482-0.812c-3.547-1.306-6.827-5.144-8.298-9.728C147.986,29.744,148.194,28.943,148.194,28.943z
            M143.321,28.957l4.245,0.005c0,0,0.025,0.749,0.087,1.236c0.571,4.513,4.624,10.177,8.757,12.056
            c0.585,0.266,1.398,0.639,1.589,0.816c1.155,7.397,4.509,11.854,11.587,14.904c0.113,0.117,0.432,0.191,0.526,0.339
            c0.965,4.574,3.074,9.878,7.086,12.794l-1.734,0.179L143.321,28.957z M164.059,36.722c0.96,0,1.739,0.778,1.739,1.738
            s-0.779,1.734-1.739,1.734c-0.959,0-1.738-0.774-1.738-1.734S163.1,36.722,164.059,36.722z M105.464,46.209
            c0.1,0.252-23.746,20.423-21.426,58.375l-0.69,0.772l0.188,0.271c-0.788,0.894-1.546,1.611-2.405,2.482
            c4.944,3.151,13.563,6.592,13.591,6.501l-1.646,3.815l10.302,3.328l-1.382,3.627c0,0-7.167-2.376-10.138-3.366
            c-1.465,3.249-2.353,6.681-3.419,10.061c-0.101,0.272-0.335,0.142-0.701-0.386c-5.352-9.127-16.343-15.713-15.972-15.06
            l-38.978,36.982l-0.266,22.854l26.975,27.801c0,0-7.806,3.842-11.5,6.361c2.873,2.344,6.124,4.149,8.979,6.366
            c5.906,4.165,9.893,10.289,13.722,14.437c18.055-8.952,36.237-8.453,51.94-3.019c-1.83,1.925-3.871,3.592-5.758,5.68
            c4.565,11.977,3.104,35.761,2.874,36.407c9.503-9.707,23.64-30.523,21.754-59.832l3.999-4.009
            c-0.072-0.206-10.004-5.521-14.142-6.68l1.145-3.643l-9.911-3.096l1.106-2.893l9.872,2.858c1.869-4.589,3.85-11.017,3.85-11.017
            c3.942,5.898,8.288,11.263,17.233,16.721l38.755-37.079l-0.251-23.84l-26.386-26.386l10.983-5.724
            c-1.056-0.852-2.586-1.659-3.671-2.512c-0.078-0.061,0.218-0.244,0.14-0.304c-0.275-0.213-0.478-0.385-0.758-0.58
            c-0.063-0.044-0.262,0.242-0.324,0.198c-3.727-2.613-7.455-5.186-10.389-8.312c-0.073-0.079,0.035-0.404-0.039-0.482
            c-1.524-1.629-3.042-3.146-4.593-4.748c-0.72-0.726-1.908-2.449-1.908-2.449l-0.067-0.569l-1.666-2.097
            c-5.366,3.165-28.244,11.109-50.381,2.313l4.207-4.207c-1.12-2.701-1.847-5.717-2.135-8.187
            C105.021,64.044,105.464,46.209,105.464,46.209z M175.246,51.818c1.013,0,1.835,0.822,1.835,1.835s-0.822,1.835-1.835,1.835
            s-1.831-0.822-1.831-1.835S174.234,51.818,175.246,51.818z M180.987,54c0.934,4.562,2.988,11.186,5.035,15.65l-2.438,0.27
            c-1.985-1.289-4.083-3.171-4.303-5.841c-5.368,0.042-6.938-8.378-4.978-7.367c-0.25,2.876,1.813,4.01,3.838,3.728
            c1.743-0.243,3.25-2.649,1.176-5.307C180.239,54.775,180.69,54.503,180.987,54L180.987,54z M104.913,67.49
            c0.355,5.833,1.5,10.088,2.569,14.494L96.876,91.992C97.703,82.858,100.386,74.695,104.913,67.49z M155.781,86.703l1.348,1.933
            c-15.328,9-41.489,9.637-57.428,2.048l2.115-2.015C115.832,94.997,138.65,95.468,155.781,86.703z M56.233,89.708
            c-1.545-0.02-3.327,0.569-5.217,2.009c-7.031-3.203-11.637,4.285-7.288,9.244c-0.644,3.57-1.131,4.235,1.556,7.849
            c-2.854,0.363-6.456-0.383-9.52-0.854c0.518,5.286,8.087,6.517,11.239,5.936c3.401-0.737,6.611,0.946,6.752,0.985
            c2,0.559,3.243,1.521,5.216,1.985c3.254,0.774,8.019-3.039,8.708-6.66c0.065-0.487,0.216-0.928-0.053-1
            c-2.225,0.568-4.668,1.37-6.834,1.845c-2.122,0.521-3.722,1.034-5.337,2.299l-0.136-4.366c11.016,0.524,6.222-9.948,5.598-10.398
            C62.964,94.448,60.502,89.76,56.233,89.708z M156.357,90.036l2.396,5.762l-6.366,2.159l-1.628-5.642L156.357,90.036z M55.774,90.21
            c3.744,0.036,7.093,3.979,3.497,8.395c6.971,6.147-1.963,12.735-6.217,8.162c-5.662,5.186-11.678-0.23-8.515-5.878
            c-6.039-5.404,1.409-12.652,6.496-7.983C52.285,90.985,54.072,90.194,55.774,90.21z M99.242,92.321c0.896,0,1.623,0.727,1.623,1.623
            s-0.727,1.623-1.623,1.623s-1.622-0.727-1.622-1.623S98.346,92.321,99.242,92.321z M57.769,92.442
            c-0.093,0.001-0.204,0.043-0.324,0.149c-0.182,0.017-0.575,0.694-1.564,1.84c-1.72,1.993-1.905,2.012-1.905,2.012
            c-1.831-0.6-3.056-0.275-4.263,0.488c0,0-1.376-0.261-3.274-1.848c-0.866-0.724-1.332-0.881-1.482-0.492
            c-0.161,0.413,0.231,0.82,1.893,1.951c2.299,1.563,2.156,1.444,2.156,1.444c-0.143,1.374,0.081,2.491,0.601,3.532
            c0,0-0.405,0.977-2.037,3.113c-0.462,0.604-0.839,1.261-0.84,1.459c-0.004,0.831,0.722,0.272,2.391-1.836
            c0.653-0.826,1.551-2.009,1.551-2.009c1.96,0.679,2.646,0.266,3.875-0.171c0,0,0.421,0.313,1.489,1.165
            c1.956,1.559,2.379,1.725,2.619,1.527c0.323-0.267,0.28-0.354-0.459-0.89c-2.205-1.596-2.964-2.519-2.964-2.519
            c0.448-1.747-0.042-3.192-0.523-4.104c0,0,0.035-0.222,1.28-1.612c0.914-1.021,2.165-2.633,2.086-2.864
            C58.094,92.635,57.972,92.439,57.769,92.442L57.769,92.442z M102.904,92.794l5.733,1.782l-1.266,5.96l-6.109-1.971L102.904,92.794z
            M144.393,94.257l1.599,5.815l-5.965,1.584l-0.976-6.172L144.393,94.257z M148.58,94.354c0.896,0,1.623,0.727,1.623,1.623
            s-0.727,1.623-1.623,1.623s-1.623-0.727-1.623-1.623S147.684,94.354,148.58,94.354z M162.138,94.562l5.014,4.463l-5.564,2.811
            l-2.681-5.814L162.138,94.562z M114.863,95.852l5.825,0.686l-0.237,6.26l-6.685-0.894L114.863,95.852z M94.655,95.919l6.481,2.845
            l-2.338,6.53l-6.636-2.85L94.655,95.919z M111.361,96.426c2.39,0.374,1.746,3.192,0,3.246c-0.896,0-1.622-0.727-1.622-1.623
            S110.465,96.426,111.361,96.426z M132.318,96.431l0.797,6.265l-6.047,0.367l-0.13-6.366L132.318,96.431z M136.477,97.146
            c0.896,0,1.623,0.727,1.623,1.623s-0.728,1.623-1.623,1.623c-0.896,0-1.623-0.727-1.623-1.623S135.58,97.146,136.477,97.146z
            M52.292,97.734c0.925,0,1.676,0.746,1.676,1.671s-0.751,1.676-1.676,1.676s-1.671-0.751-1.671-1.676S51.367,97.734,52.292,97.734z
            M123.9,97.672c0.896,0,1.623,0.727,1.623,1.623s-0.727,1.623-1.623,1.623s-1.623-0.727-1.623-1.623S123.003,97.672,123.9,97.672z
            M152.381,98.073l2.357,6.438l-6.607,2.131l-1.869-6.612L152.381,98.073z M157.018,98.247c0.896,0,1.623,0.727,1.623,1.623
            c0,0.896-0.727,1.622-1.623,1.622s-1.623-0.727-1.623-1.622C155.395,98.974,156.121,98.247,157.018,98.247z M168.441,100.073
            l4.27,3.019l-2.115,1.179C170.04,102.943,169.062,101.369,168.441,100.073z M107.41,100.657l6.303,1.366l-0.961,6.603l-6.878-1.371
            L107.41,100.657z M88.665,101.02l3.347,1.574l-2.207,5.501l-5.414-2.883L88.665,101.02z M103.628,101.377
            c0.896,0,1.623,0.727,1.623,1.622c0,0.896-0.727,1.623-1.623,1.623s-1.623-0.727-1.623-1.623
            C102.005,102.104,102.732,101.377,103.628,101.377z M140.031,101.74l1.125,6.602l-7.109,1l-0.439-6.732L140.031,101.74z
            M166.649,101.865c0.896,0,1.623,0.727,1.623,1.623s-0.727,1.623-1.623,1.623s-1.623-0.727-1.623-1.623
            S165.752,101.865,166.649,101.865z M161.607,101.913l2.352,5.819l-6.955,2.908l-2.058-5.825L161.607,101.913z M143.871,102.333
            c0.896,0,1.623,0.727,1.623,1.623c0,0.896-0.727,1.622-1.623,1.622s-1.623-0.727-1.623-1.622
            C142.248,103.06,142.975,102.333,143.871,102.333z M120.383,102.994l6.656,0.121l-0.078,6.675l-7.288-0.203L120.383,102.994z
            M173.614,103.458l2.618,1.816c-26.941,17.324-64.788,19.472-94.323,2.42c0,0,1.207-1.203,1.894-1.908
            C110.427,121.721,149.298,119.485,173.614,103.458z M116.776,104.212c0.896,0,1.622,0.727,1.622,1.623
            c0,0.896-0.726,1.622-1.622,1.622s-1.623-0.727-1.623-1.622C115.153,104.939,115.879,104.212,116.776,104.212z M130.439,104.579
            c0.896,0,1.623,0.727,1.623,1.622c0,0.896-0.727,1.623-1.623,1.623c-0.896,0-1.622-0.727-1.622-1.623
            C128.817,105.306,129.543,104.579,130.439,104.579z M98.74,105.473l6.95,2.009l-1.184,5.487l-7.621-2.193L98.74,105.473z
            M94.143,105.511c0.896,0,1.622,0.727,1.622,1.623s-0.726,1.623-1.622,1.623s-1.623-0.727-1.623-1.623
            S93.246,105.511,94.143,105.511z M148.126,106.68l1.661,6.158l-7.684,1.643l-0.928-6.057L148.126,106.68z M152.541,107.573
            c0.896,0,1.622,0.727,1.622,1.623s-0.727,1.623-1.622,1.623c-0.896,0-1.623-0.727-1.623-1.623S151.645,107.573,152.541,107.573z
            M52.152,108.53l-0.015,4.318c-1.274-1.051-2.714-2.169-4.188-3.299C49.452,109.629,50.849,109.214,52.152,108.53L52.152,108.53z
            M36.323,108.636c0.351-0.003,1.172,0.283,2.149,0.28c3.13-0.01,8.975,0.966,10.703,2.386c0.576,0.472,1.438,0.891,1.908,1.652
            c-0.002,0.363-0.516,0.372-1.271-0.097c-1.449-0.9-3.859-1.702-7.085-2.149c-0.583-0.081-0.656-0.058-0.657,0.217
            c-0.002,0.34,0.537,0.538,2.236,0.816c2.198,0.361,2.666,0.577,3.153,0.71c1.306,0.357,0.472,0.836-0.872,0.964
            c-5.486,0.514-9.594-1.847-10.42-4.543C36.103,108.696,36.164,108.638,36.323,108.636L36.323,108.636z M112.747,108.733l6.901,0.894
            l-0.313,5.776l-7.554-0.864L112.747,108.733z M54.054,109.235c1.206,0.947,0.377,3.816-0.28,4.661
            c-0.425,0.475-1.42,0.223-1.415-0.444c0.15-0.599-0.062-3.453,0.067-4.337C52.907,108.841,53.615,108.918,54.054,109.235z
            M134.037,109.491l0.357,5.955l-7.529,0.343l0.058-5.849L134.037,109.491z M108.632,109.892c0.896,0,1.623,0.727,1.623,1.623
            s-0.727,1.623-1.623,1.623s-1.623-0.727-1.623-1.623S107.736,109.892,108.632,109.892z M66.675,109.974
            c0.277,4.37-6.435,7.336-8.945,5.994c-1.112-0.594-0.649-0.96,1.556-1.405c2.853-0.756,4.73-1.491,4.732-2.024
            c0.002-0.326-0.431-0.287-1.594,0.146c-1.79,0.602-3.651,0.859-5.361,1.628c-1.277,0.58-1.774,0.783-2.062,0.435
            c-0.603-0.731,2.237-2.577,5.183-3.067C62.393,111.311,64.62,110.133,66.675,109.974L66.675,109.974z M138.191,110.52
            c0.896,0,1.623,0.727,1.623,1.623s-0.727,1.623-1.623,1.623s-1.622-0.727-1.622-1.623S137.294,110.52,138.191,110.52z
            M123.098,111.708c0.896,0,1.623,0.727,1.623,1.623c0,0.896-0.727,1.622-1.623,1.622s-1.623-0.727-1.623-1.622
            C121.475,112.435,122.201,111.708,123.098,111.708z M159.259,114.466c10.861,10.342,22.767,22.248,32.588,32.041
            c-0.015,5.125-0.044,15.374-0.044,15.374l-37.499,35.64c-6.791-4.146-12.539-9.328-17.832-18.532
            c0.597-0.515,1.122-0.843,1.574-1.405l-1.956,1.169c-6.918-11.063-9.852-33.106,1.898-50.777l-11.872,0.435l1.937-4.042
            l12.925-0.705l5.226-5.608c0,0,1.656-0.306,3.029-0.623c1.361-0.313,4.14-1.108,6.177-1.768
            C157.448,115.005,159.181,114.465,159.259,114.466z M71.592,117.33c0,0,11.161,6.065,17.358,18.213
            c-20.033,17.232-27.585,37.3-29.289,58.187c-10.903-10.198-16.413-15.84-26.265-25.744l0.357-14.779L71.592,117.33z
            M113.728,119.257c-2.888,6.174-5.372,12.938-7.598,20.185l-3.105-0.918c0,0,2.009-0.84,2.902-1.372l-1.613-2.599l3.058-1.255
            l-1.807-2.203l3.102-1.797l-1.551-1.946l2.84-1.42l-1.763-2.028l2.98-1.661l-1.556-1.942L113.728,119.257z M114.679,119.272
            c0,0,0.4,0.076,0.869,0.169c0.113-0.043-0.56,1.618-0.487,1.676c1.085,0.224,1.147,0.163,1.473,0.261l0.826-1.71l1.357,0.257
            c-2.738,6.179-5.666,12.938-7.347,20.256l-1.599-0.333c0,0,0.468-1.543,0.469-1.748c-0.188-0.04-1.088-0.419-1.367-0.531
            c-0.096,0.241-0.666,2.028-0.666,2.028l-1.266-0.034C109.013,131.573,112.623,122.712,114.679,119.272z M119.881,119.508
            l2.835,2.348l-3.217,1.251l1.666,2.217l-3.409,1.231l1.956,2.304l-3.376,1.246l2.014,2.787l-3.512,1.184l2.218,2.448l-3.169,1.483
            l1.898,1.879c0,0-1.978,0.651-2.092,0.681c-0.317,0.081-1.646-0.246-1.646-0.246C114.05,133.19,116.525,125.962,119.881,119.508
            L119.881,119.508z M50.906,120.697c-0.783,0.508-0.337,1.614-1.319,2.56c-0.156,0.17-0.17,0.559-0.231,0.898
            c-0.047,0.258-0.823,3.344-0.823,3.344s0.196-0.236,0.507-1.221c0.266-0.84,0.496-2.434,0.64-2.699
            c0.724-0.222,0.834-2.583,1.567-2.259c0.425,0.187,0.344,0.572,0.104,1.478c-0.523,1.811-0.729,2.572,0.169,1.338
            c1.339-1.612,1.47-3.067-0.039-3.376C51.321,120.729,50.997,120.699,50.906,120.697z M71.161,121.367l-35.04,32.901l-0.106,12.278
            l12.195,12.359l8.655,8.39c3.142-18.789,10.35-36.714,28.096-52.226C82.241,130.698,77.583,125.191,71.161,121.367L71.161,121.367z
            M165.615,121.706c-20.589,9.676-25.324,29.521-18.948,47.487C156.48,156.574,164.18,144.719,165.615,121.706z M92.336,122.71
            l9.351,3.01l-3.521,12.007l-8.418-2.556l-0.86-2.125L92.336,122.71z M164.581,123.025c-0.895,16.057-6.949,31.738-17.483,44.044
            C141.771,153.927,144.975,132.917,164.581,123.025z M114.22,123.112l-0.589,1.492l1.294,0.367l0.551-1.517L114.22,123.112z
            M112.926,126.637l-0.531,1.517l1.328,0.449l0.497-1.541L112.926,126.637z M168.083,126.912
            c-2.882,22.272-14.915,42.54-27.627,52.868c4.051,6.571,8.814,10.798,13.654,14.325l35.809-34.302l-0.14-11.441L168.083,126.912z
            M73.456,132.824c-0.221,0.814-0.298,1.229-0.298,1.229s0.412-0.382,1.501-0.978c7.035-3.509,4.766,1.828,1.45,3.802
            c-0.741,0.395-1.503,0.863-1.503,0.863s0.704,0.159,1.468,0.301c4.27,0.887,3.36,3.385-1.093,2.996
            c-0.658-0.058-1.432-0.183-1.433-0.146c0,0.037,0.268,0.975,0.575,1.751c1.502,3.782-1.299,4.076-3.142,1.672
            c-0.256-0.335-0.838-1.259-0.838-1.259s-0.182,0.699-0.292,1.375c-1.592,5.926-5.518,5.776-4.053-0.237
            c0.184-0.621,0.407-1.733,0.407-1.733s-0.883,0.533-1.844,0.963c-5.085,2.271-5.91-0.066-1.291-3.483
            c1.314-0.972,1.76-1.354,1.76-1.354c-0.818-0.062-1.572-0.188-2.238-0.355c-3.686-0.925-4.668-3.128,1.236-3.024
            c0.872,0.018,1.761,0.076,1.761,0.076s-0.291-1.267-0.599-2.221c-1.425-4.418,1.446-4.943,3.868-0.986
            c0.515,0.842,0.663,0.848,0.663,0.848c-0.075,0.002,0.151-1.508,0.738-2.903C73.194,124.589,74.342,129.545,73.456,132.824
            L73.456,132.824z M136.785,128.429c-2.459,4.346-4.604,8.666-5.627,13.171l-9.567-0.164c0.661-3.994,2.352-8.149,4.371-12.543
            C129.857,128.786,133.369,128.615,136.785,128.429z M111.526,130.357l-0.551,1.599l1.386,0.425l0.503-1.556L111.526,130.357z
            M39.975,133.356c-1.024,2.663-1.367,5.63-1.937,8.008c-0.24,1.378,0.005,1.952,0.831,2.261c1.176,0.438,2.871-0.159,3.82-1.517
            c0.535-0.766,0.923-2.347,1.005-5.14l0.092-2.487C42.332,134.211,41.339,133.822,39.975,133.356z M110.231,133.703l-0.459,1.468
            l1.338,0.498l0.512-1.482L110.231,133.703z M172.198,134.254c1.628,0.04,1.931,0.186,3.405,1.058l2.845,2.927
            c-0.746,0.714-1.212,1.717-1.212,2.83c0,2.166,1.756,3.922,3.922,3.922c1.072,0,2.753-1.13,2.753-1.13l4.508,4.67
            c-2.628,1.15-5.201-1.498-6.169-2.546c-0.228-0.246-0.286-0.415-0.286-0.415s0.04,0.129-0.054,0.647
            c-0.378,2.079-2.429,8.215-4.39,7.888c-2.208-0.368,0.04-9.14,0.064-8.938c-1.519,1.605-8.916,3.314-8.398,1.522
            c1.03-3.561,6.563-4.933,7.291-5.551C173.535,139.369,169.805,134.46,172.198,134.254z M40.332,134.369
            c0.938,0.065,1.58,0.179,2.218,0.444c0.296,0.08,0.31,0.328,0.343,0.561c0.005,1.052,0.269,4.137-0.705,4.168
            c-1.083-0.022-2.099,0.21-2.812,0.754c-0.573,0.438-0.763,0.121-0.608-1c0.149-1.086,0.689-3.369,0.923-4.294
            C39.727,134.621,40.031,134.352,40.332,134.369L40.332,134.369z M69.568,134.408c-2.165,0-3.922,1.757-3.922,3.922
            s1.757,3.922,3.922,3.922s3.922-1.757,3.922-3.922S71.733,134.408,69.568,134.408z M69.568,135.781c1.407,0,2.551,1.143,2.551,2.55
            s-1.144,2.546-2.551,2.546s-2.55-1.139-2.55-2.546S68.16,135.781,69.568,135.781z M89.804,135.827
            c8.989,15.518,7.947,36.815-2.65,52.309l11.394-0.797l-1.497,2.918l-12.147,1.183c-1.855,1.699-3.545,3.642-5.371,5.458
            l-0.019,0.643c-4.165,0.967-8.333,2.08-12.577,3.609c-2.241-2.199-6.455-6.598-6.428-6.709l0.271-1.424
            c28.889-14.738,20.438-44.297,18.403-46.728C82.282,142.569,85.982,139.067,89.804,135.827z M169.982,138.65
            c1.17,0,2.115,0.95,2.115,2.12s-0.945,2.12-2.115,2.12s-2.12-0.95-2.12-2.12S168.812,138.65,169.982,138.65z M179.4,139.219
            l3.55,3.656c-0.461,0.455-1.093,0.739-1.792,0.739c-1.407,0-2.55-1.138-2.55-2.546C178.608,140.343,178.912,139.684,179.4,139.219z
            M57.469,139.673c1.17,0,2.115,0.945,2.115,2.115s-0.945,2.121-2.115,2.121s-2.12-0.951-2.12-2.121S56.299,139.673,57.469,139.673z
            M41.704,140.562c0.992,0.332,0.761,1.259-0.521,2.074c-0.829,0.528-1.589,0.645-2.318,0.254
            C37.482,142.15,40.351,140.078,41.704,140.562z M58.082,145.749l-12.766,12.35c0.804-2.052,0.833-4.099,0.894-6.148
            c3.842,0.396,5.45-1.553,4.888-5.563C53.579,146.534,56.151,146.273,58.082,145.749z M78.537,147.159
            c5.919,16.877,0.777,34.738-17.736,45.082C61.564,176.07,68.352,160.608,78.537,147.159L78.537,147.159z M95.398,148.637
            c10.16,2.66,21.726,3.899,33.732,3.908c0.091,4.568,0.31,9.4,1.246,14.064c-10.229-2.676-21.652-3.92-34.133-3.7
            C96.761,158.081,95.932,152.603,95.398,148.637z M170.735,151.134l-10.818,12.65l0.454-6.907c3.644,0.464,4.941-1.458,4.404-5.255
            C166.763,151.868,168.747,151.52,170.735,151.134z M65.608,151.835l-0.855,5.052c-2.159,0.059-4.278,0.825-4.25,5.646l-6.453-0.078
            L65.608,151.835z M184.674,152.767c1.17,0,2.115,0.95,2.115,2.12c0,1.171-0.945,2.121-2.115,2.121s-2.12-0.95-2.12-2.121
            C182.554,153.717,183.504,152.767,184.674,152.767z M55.793,153.409c1.17,0,2.12,0.95,2.12,2.12s-0.95,2.115-2.12,2.115
            s-2.121-0.945-2.121-2.115S54.623,153.409,55.793,153.409z M179.946,155.583l-1.13,7.65c-2.948-0.26-5.408,0.195-4.651,5.38
            c-2.494-0.243-5.958,0.346-8.278,0.546L179.946,155.583z M169.383,156.969c1.17,0,2.12,0.95,2.12,2.12s-0.95,2.115-2.12,2.115
            c-1.171,0-2.121-0.945-2.121-2.115S168.212,156.969,169.383,156.969z M40.26,158.612c1.17,0,2.12,0.95,2.12,2.12
            s-0.95,2.115-2.12,2.115s-2.115-0.945-2.115-2.115S39.09,158.612,40.26,158.612z M47.287,161.117
            c2.706,0.607,1.454,6.916,0.846,8.632c-0.047,0.046,7.55-3.98,8.003-2.203c0.297,3.563-6.289,6.047-6.289,6.047
            s4.438,3.856,4.564,6.279c0.011,1.568-1.855,1.277-4.279-0.71c-1.036-1.018-1.837-1.78-2.55-2.487
            c0.832-0.72,1.357-1.784,1.357-2.971c0-2.165-1.757-3.922-3.922-3.922c-1.196,0-2.266,0.537-2.985,1.382
            c-0.562-0.542-1.198-1.173-2.053-1.98c-1.399-1.31-2.382-2.35-2.241-2.82c1.848-1.301,5.521,2.193,5.85,2.511
            C43.313,168.194,45.345,161.48,47.287,161.117L47.287,161.117z M43.588,168.874c0.015,0.037,0.034,0.059,0.062,0.059
            C43.651,168.933,43.604,168.89,43.588,168.874z M158.955,166.044c1.287-0.018,1.207,2.912,0.748,4.434
            c-0.313,1.161-0.623,2.111-0.623,2.111s1.085-0.848,1.564-1.072c3.504-1.641,4.81,0.217,3.043,2.371
            c-0.849,1.108-2.006,1.354-2.946,2.285c1.339,0.061,2.877,0.357,4.033,1.038c0.899,0.538,1.605,1.189,1.604,1.594
            c-0.003,0.905-2.228,1.394-4.308,1.159c-0.886,0.02-2.551-0.454-2.551-0.454s0.69,1.161,0.942,1.854
            c0.776,2.156,0.504,4.68-0.618,4.676c-1.879-0.502-2.797-2.591-3.531-4.091c-0.604,1.672-1.188,3.461-2.531,4.704
            c-1.331,1.232-2.015,0.209-1.946-1.879c0.027-0.83,0.638-3.309,0.638-3.309c-7.891,2.664-7.305-0.939-1.146-4.096
            c-3.793-1.81-6.098-3.437,0.354-3.806c-0.171-0.154-1.298-3.61-0.092-4.42c1.12-0.752,3.508,1.831,3.622,1.956
            c-0.048-0.255,0.629-2.278,1.764-3.675C157.844,166.442,158.49,166.051,158.955,166.044z M151.681,173.565
            c0.008,0.007,0.016,0.008,0.02,0C151.7,173.565,151.683,173.565,151.681,173.565z M186.225,171.282
            c-1.374,0.125-2.229,1.344-2.864,2.407c-0.129,0.216-0.367,0.292-0.455,0.577c-0.57,1.833-1.066,4.029-1.371,6.764
            c0.87,0.357,2.834,0.961,3.703,0.637c0.244-0.103,0.168-0.734,0.251-0.942c1.37-3.449,2.047-6.028,2.048-7.613
            C187.536,171.834,187.097,171.202,186.225,171.282z M45.028,171.125c1.407,0,2.55,1.144,2.55,2.551c0,0.809-0.378,1.528-0.966,1.994
            c-1.643-1.638-2.483-2.495-3.584-3.574C43.495,171.505,44.216,171.125,45.028,171.125z M186.711,172.339
            c0.345,0.837-0.763,1.745-2.196,1.74c-0.853-0.004-1.13,0.116-0.75-0.622C184.217,172.558,186.052,170.739,186.711,172.339
            L186.711,172.339z M167.485,171.748c1.17,0,2.12,0.95,2.12,2.12c0,1.171-0.95,2.116-2.12,2.116s-2.12-0.945-2.12-2.116
            C165.365,172.698,166.315,171.748,167.485,171.748L167.485,171.748z M55.716,171.898c1.17,0,2.12,0.946,2.12,2.116
            s-0.95,2.12-2.12,2.12c-1.171,0-2.116-0.95-2.116-2.12S54.545,171.898,55.716,171.898z M155.955,172.758
            c-2.165,0-3.922,1.757-3.922,3.922s1.757,3.922,3.922,3.922s3.922-1.757,3.922-3.922S158.12,172.758,155.955,172.758z
            M103.541,173.284c-1.031,4.519-2.618,8.839-4.622,13.113c-3.781,0.228-7.867,0.404-10.563,0.787
            c4.489-7.862,4.599-9.711,6.26-13.876L103.541,173.284z M110.037,173.922c1.062,0.125,2.226,0.286,3.275,0.487
            c-1.931,6.793-4.482,13.767-7.776,20.479l-1.995-0.31l-0.946-1.169l3.168-1.266l-2.468-2.521l4.091-1.236l-2.517-2.483l4.043-1.009
            l-2.164-2.628l3.627-1.415l-2.304-2.976l3.864-1.062L110.037,173.922z M155.955,174.13c1.407,0,2.551,1.143,2.551,2.55
            s-1.144,2.545-2.551,2.545s-2.55-1.138-2.55-2.545S154.548,174.13,155.955,174.13z M114.036,174.516l1.348,0.218l-0.415,1.443
            l1.536,0.329l0.497-1.561c0,0,1.235,0.114,1.367,0.213c-1.609,6.558-7.298,20.281-7.371,20.208l-1.463-0.217l0.387-1.387
            l-1.362-0.193v-0.014l-0.657,1.507l-1.453-0.121C109.971,186.904,112.369,180.734,114.036,174.516L114.036,174.516z
            M185.625,175.037c1.08-0.005,1.015,0.552,0.232,2.589c-0.736,1.914-1.012,2.681-1.368,2.929c-0.852,0.604-2.686,0.098-2.536-0.783
            c0.481-2.859,0.653-4.079,1.392-4.467C184.114,175.154,184.863,175.041,185.625,175.037z M119.456,175.275l3.516,0.681l-2.941,1.748
            l1.869,2.184l-3.612,1.541l2.192,2.27l-3.487,1.425l2.12,2.497l-3.617,1.526l2.463,2.135l-4.066,1.285l1.541,2.366l-1.531,0.855
            l-1.889-0.295C115.148,188.179,117.162,182.164,119.456,175.275L119.456,175.275z M128.097,177.023l6.887,1.874l1.377,2.458
            l-3.231,10.911l-9.177-2.695L128.097,177.023z M114.408,178.075l-0.656,1.792l1.517,0.314l0.584-1.846L114.408,178.075z
            M113.075,182.191l-0.657,1.792l1.426,0.28l0.671-1.812L113.075,182.191z M111.733,185.808l-0.671,1.783l1.386,0.284l0.662-1.787
            L111.733,185.808z M176.442,189.088c0.002,0-0.702,0.51-0.888,0.735c0.153,0.409,0.598,1.037,0.531,1.449
            c-0.061,0.311-0.406,0.561-0.926,1.114c-1.297,1.509-1.753,1.345-1-0.266c0.248-0.507,0.357-0.976,0.357-0.976
            c-0.3,0.42-0.526,0.917-0.729,1.312c-0.428,0.823-0.826,1.602-0.826,1.602c0.826,0.285,1.375,0.899,1.908,1.297
            c0,0,0.271-0.729,0.459-1.429c0.262-0.974,0.777-1.374,1.41-1.709c0.399-0.212,0.78-0.597,0.78-0.597
            C176.823,190.911,176.742,189.895,176.442,189.088L176.442,189.088z M110.298,189.528l-0.71,1.897l1.382,0.339l0.768-1.938
            L110.298,189.528z M32.373,194.299c-0.126,7.559,0.124,12.535-0.141,20.687l20.464,26.521l-3.192,1.072c0,0-0.034,0.367-0.207,0.415
            c-4.373,1.203-11.467,2.4-11.467,2.4c5.276,12.046,8.697,27.109,6.337,42.155l52.965-0.14L32.373,194.299z M144.388,207.109
            l-1.826,1.83c-26.936-14.578-64.034-14.521-91.106,3.13l-2.207-1.618C78.796,191.521,115.148,191.639,144.388,207.109z
            M33.364,196.95l62.339,89.552l-7.322,0.106l-54.964-71.903L33.364,196.95z M167.147,198.569c0,0-1.801,0.468-3.313,0.952
            c-4.332,1.387-6.358,3.892-5.96,7.37c0.117,1.027,0.384,1.013,2.148-0.102c4.132-2.607,4.39-2.723,9.535-4.23
            c0.397-0.117,0.976-0.029,0.976-0.029l-0.228,4.062c-8.576-0.032-8.108,6.78-5.641,10.322c-0.864,1.637-2.754,7.354,3.467,9.529
            c3.104,0.618,6.391-1.903,6.289-2.033c5.724,2.707,12.366-1.832,7.187-9.694c1.948-3.429,0.575-5.974-1.284-8.162
            c0,0,0.314,0.027,3.023,0.526c4.109,0.758,5.68,0.623,5.68,0.623c0.006-3.699-3.058-5.352-9.447-5.854
            C175.053,202.487,167.147,198.537,167.147,198.569z M98.137,198.999c0.31-0.002,0.615-0.002,0.922,0.004l-0.299,6.318l-6.96,0.318
            l-0.454-6.293C93.742,199.181,95.971,199.006,98.137,198.999L98.137,198.999z M106.478,199.154l7.467,0.908l-1.13,5.906
            l-6.878-0.738L106.478,199.154z M166.885,199.221c0.768-0.017,0.601,0.78-0.299,0.956c-1.343,0.263-4.785,2.267-4.786,2.787
            c-0.002,0.336,0.169,0.287,1.429-0.387c0.631-0.336,1.945-0.91,2.918-1.279c0.973-0.37,2.085-0.815,2.473-0.99
            c1.157-0.522,1.73-0.161,1.313,0.826c-0.275,0.652-0.385,0.703-3.066,1.555c-2.428,0.77-2.873,0.97-4.415,1.956
            c-0.575,0.368-1.594,0.957-2.265,1.305c-1.586,0.82-1.907,0.824-1.903-0.28c-0.087-3.272,3.533-5.728,8.438-6.434
            C166.781,199.227,166.834,199.223,166.885,199.221L166.885,199.221z M102.416,199.989c0.934,0,1.69,0.758,1.69,1.69
            c0,0.935-0.757,1.691-1.69,1.691s-1.69-0.757-1.69-1.691C100.726,200.746,101.483,199.989,102.416,199.989z M83.942,200.438
            l0.556,5.733l-6.845,1.758l-1.564-5.921C78.706,201.366,81.323,200.915,83.942,200.438L83.942,200.438z M172.107,200.872
            c1.876,0.286,1.728,4.583,0.768,5.328c-1.477,1.063-2.383-1.161-1.724-4.11C171.336,201.202,171.678,200.893,172.107,200.872z
            M87.824,201.105c0.934,0,1.69,0.757,1.69,1.69s-0.757,1.69-1.69,1.69c-0.933,0-1.69-0.757-1.69-1.69S86.892,201.105,87.824,201.105
            z M121.257,201.597l7.738,2.111l-1.894,5.988l-7.26-2.043L121.257,201.597z M117.046,201.713c0.934,0,1.69,0.757,1.69,1.69
            s-0.757,1.69-1.69,1.69s-1.69-0.757-1.69-1.69S116.113,201.713,117.046,201.713z M180.342,202.215
            c3.333,0.035,7.729,1.707,7.737,4.284c-0.068,0.732-6.983-0.239-10.177-1.525c-1.133-0.457-2.514-1.846-2.512-2.425
            c0.002-0.345,0.676-0.32,0.951,0.015c0.45,0.546,2.042,1.116,5.7,2.038c2.81,0.707,3.089,0.735,3.091,0.309
            c0.002-0.388-1.659-0.923-3.458-1.222c-0.905-0.148-1.749-0.421-3.14-0.541c-0.648-0.002-0.807-0.409-0.266-0.686
            C178.859,202.286,179.573,202.207,180.342,202.215L180.342,202.215z M174.454,203.548c0.841,0.395,1.145,1.181,1.608,1.595
            c-0.577,0.272-0.835,0.549-1.769,0.618C174.312,205.144,174.143,204.407,174.454,203.548z M73.127,204.012
            c0.934,0,1.69,0.757,1.69,1.69s-0.757,1.69-1.69,1.69s-1.69-0.757-1.69-1.69S72.194,204.012,73.127,204.012z M68.577,204.49
            l1.826,5.854l-6.54,2.845l-2.318-5.801C63.806,206.199,66.279,205.336,68.577,204.49z M98.818,205.447c0,0,5.21,0.008,7.009,0.029
            l-0.421,6.607l-6.501,0.048L98.818,205.447z M91.858,205.809l0.362,6.598l-6.26,0.841l-1.236-6.637L91.858,205.809z
            M131.434,205.866c0.934,0,1.69,0.758,1.69,1.691s-0.757,1.69-1.69,1.69s-1.69-0.757-1.69-1.69S130.5,205.866,131.434,205.866z
            M176.724,206.022c3.812,0.017,7.446,4.4,3.681,8.993c6.177,4.752-0.539,12.74-5.999,8.085c-7.808,7.669-12.171-2.744-8.94-5.506
            c-4.771-7.841,1.092-12.795,7.139-9.336C173.718,206.678,175.233,206.015,176.724,206.022z M112.926,206.21l6.868,1.526
            l-1.382,6.524l-6.708-1.361L112.926,206.21z M135.656,206.369l6.278,3.12l-4.868,4.685l-3.617-1.802L135.656,206.369z
            M95.398,207.109c0.935,0,1.69,0.757,1.69,1.69s-0.756,1.69-1.69,1.69c-0.934,0-1.69-0.757-1.69-1.69S94.464,207.109,95.398,207.109
            z M108.965,207.321c0.934,0,1.69,0.757,1.69,1.69s-0.757,1.69-1.69,1.69C106.478,210.312,107.147,207.376,108.965,207.321z
            M77.692,208.273l1.531,6.524l-6.361,2.149l-2.274-6.355L77.692,208.273z M82.063,208.736c0.934,0,1.69,0.757,1.69,1.69
            s-0.757,1.69-1.69,1.69s-1.69-0.757-1.69-1.69S81.129,208.736,82.063,208.736z M176.222,211.745
            c-0.479,0.594-1.107,1.295-1.107,1.295c-1.583-0.652-3.116-0.393-4.143,0.312c0,0-1.091-0.869-2.087-1.675
            c-1.727-1.395-2.302-1.713-2.304-1.13c0,0.121,0.586,0.718,1.299,1.328c1.946,1.665,2.345,2.266,2.345,2.266
            c-0.468,1.512-0.463,2.695,0.431,3.966c0,0,0.037,0.166-0.646,0.887c-1.24,1.309-2.519,3.328-2.225,3.625
            c0.366,0.368,1.402-0.516,2.703-2.272c0.927-1.253,1.205-1.279,1.205-1.279c1.581,0.427,2.457,0.812,4.037-0.492
            c0,0,0.597,0.181,1.788,1.164c1.855,1.532,2.522,1.861,2.724,1.343c0.164-0.424-0.08-0.707-1.651-1.903
            c-1.024-0.778-2.162-1.691-2.162-1.691c0.334-0.549,0.571-2.499-0.573-3.834c0,0,0.045,0.088,1.737-2.105
            c1.126-1.459,1.321-1.644,0.948-1.956C178.043,208.94,176.389,211.537,176.222,211.745L176.222,211.745z M127.164,209.876
            l6.197,2.603l-2.217,6.478l-5.984-2.444L127.164,209.876z M58.981,210.311c0.934,0,1.69,0.757,1.69,1.69s-0.757,1.69-1.69,1.69
            s-1.69-0.757-1.69-1.69S58.047,210.311,58.981,210.311z M122.373,210.485c0.934,0,1.69,0.757,1.69,1.69s-0.757,1.69-1.69,1.69
            s-1.69-0.757-1.69-1.69S121.44,210.485,122.373,210.485z M54.654,210.948l2.028,5.022l-4.613-3.438L54.654,210.948z
            M105.507,212.242l6.173,0.729l-0.976,5.883l-5.323-0.483L105.507,212.242z M98.77,212.257l-0.063,6.047l-5.863,0.251l-0.497-6.037
            L98.77,212.257z M68.602,213.359c0.934,0,1.69,0.757,1.69,1.69s-0.757,1.69-1.69,1.69s-1.69-0.757-1.69-1.69
            S67.668,213.359,68.602,213.359z M63.926,213.479l2.387,6.076l-3.7,1.787l-4.96-4.694L63.926,213.479z M85.994,213.556l0.956,5.781
            l-6.114,1.512l-1.483-5.883L85.994,213.556z M173.392,213.615c1.33,0,2.41,1.079,2.41,2.41c0,1.33-1.08,2.41-2.41,2.41
            c-1.331,0-2.41-1.08-2.41-2.41C170.982,214.694,172.061,213.615,173.392,213.615z M101.846,213.798c0.934,0,1.69,0.757,1.69,1.69
            s-0.757,1.69-1.69,1.69s-1.69-0.757-1.69-1.69S100.912,213.798,101.846,213.798z M118.499,214.421l6.521,2.11l-2.192,5.221
            l-5.632-1.526L118.499,214.421z M89.602,214.638c0.934,0,1.691,0.757,1.691,1.69s-0.758,1.69-1.691,1.69s-1.69-0.757-1.69-1.69
            S88.668,214.638,89.602,214.638z M114.394,215.261c0.934,0,1.69,0.757,1.69,1.69s-0.757,1.69-1.69,1.69s-1.69-0.757-1.69-1.69
            S113.46,215.261,114.394,215.261z M72.992,217.241l2.246,5.168l-6.135,2.651l-2.671-5.27L72.992,217.241z M77.339,217.55
            c0.934,0,1.69,0.758,1.69,1.691s-0.757,1.69-1.69,1.69s-1.69-0.757-1.69-1.69S76.406,217.55,77.339,217.55z M99.939,219.111
            c10.069-0.021,19.16,2.084,26.458,5.105l-2.174,2.038c-23.67-8.134-39.148-4.47-55.022,2.492l-1.604-1.98
            C78.818,221.278,89.868,219.131,99.939,219.111z M126.715,219.173c0.934,0,1.69,0.757,1.69,1.69s-0.757,1.69-1.69,1.69
            s-1.69-0.757-1.69-1.69S125.781,219.173,126.715,219.173z M65.032,222.883c1.358,0.08,1.488,2.614,0.854,1.884l-1.512-1.749
            C64.621,222.912,64.838,222.871,65.032,222.883z M128.309,223.931c-0.05,1.922-1.87,14.802-8.013,23.656
            c-0.373-4.479-1.453-9.833-2.661-13.407C117.635,234.18,124.244,228.073,128.309,223.931z M49.732,243.448l31.964,43.102
            l-3.356-0.023c-0.701-3.165-1.717-6.403-3.71-8.824c-1.618-1.966-3.067-3.447-5.97-4.768c-1.746-0.794-1.971-0.625-2.081-1.966
            c-0.527-7.538-6.632-12.279-11.307-14.084c-0.451-4.557-2.509-9.039-7.665-12.813L49.732,243.448z M46.619,244.481
            c2.92,2.007,6.121,3.748,7.846,11.661c0.13,1.654,0.23,1.479,1.53,1.965c5.095,1.494,9.526,7.616,9.921,12.969
            c-0.004,1.614,0.522,1.758,2.512,2.594c2.442,1.025,4.979,3.196,6.414,5.332c2.135,3.071,2.889,7.722,2.705,7.501l-1.759,0.01
            c-1.254-7.885-6.215-11.03-11.462-12.504c0.408-11.132-8.247-14.605-11.27-15.128c0.178-8.019-5.011-11.326-8.358-14.017
            C45.323,244.618,46.619,244.481,46.619,244.481z M41.448,245.586c2.614,0.854,4.597,4.498,4.396,6.175
            c3.448,0.435,7.071,3.768,6.276,7.24c-0.256,0.147-0.658,0.177-1.057-0.222c0.924-6.736-9.133-3.401-5.114,1.472l-1.796,1.174
            c-1.445-6.741-3.225-10.561-5.155-15.431C39.702,245.809,41.448,245.586,41.448,245.586L41.448,245.586z M49.775,259.71
            c0.894,0,1.613,0.726,1.613,1.618c0,0.894-0.72,1.618-1.613,1.618c-0.893,0-1.618-0.725-1.618-1.618
            C48.156,260.436,48.882,259.71,49.775,259.71z M58.408,266.982c3.84,1.087,5.083,4.974,4.956,6.388l-0.839-0.019
            c-1.351-6.159-8.37-2.809-5.439,2.103c-3.753,1.388-3.456,4.851-2.352,6.22c1.525,1.891,5.413,1.831,6.599-1.078
            c3.647,4.72,8.681-0.576,4.24-4.975c3.637,1.34,4.221,6.212,3.674,7.734c1.688,0.575,3.633,3.255,3.373,3.239l-27.25,0.005
            c0,0,1.319-10.996-0.082-19.296c1.812,0.437,3.028,0.875,5.114-1.574c3.376,2.795,5.803,0.686,5.627-1.729
            c-0.26-1.688-1.132-2.527-2.579-3.419C56.406,259.854,58.639,264.964,58.408,266.982L58.408,266.982z M61.448,274.729
            c0.921,0,1.667,0.746,1.667,1.666c0,0.921-0.746,1.667-1.667,1.667c-0.92,0-1.666-0.746-1.666-1.667
            C59.782,275.475,60.529,274.729,61.448,274.729z"/>
    </g>
</svg>
