<?xml version="1.0" encoding="utf-8"?>
<svg version="1.2" baseProfile="tiny"
    xmlns="http://www.w3.org/2000/svg"
    xmlns:svg="http://www.w3.org/2000/svg"
    xmlns:xlink="http://www.w3.org/1999/xlink"
    viewBox="0 0 225 314" width="225px" height="314px"
    fill="#d40000">
    <defs>
        <style>
            .maxi-card { display: none; }
            @media (min-width: 75px) {
                .maxi-card { display: block; }
                .mini-card { display: none; }
            }
        </style>

        <path id="suit" d="M16.491,0.199
            c7.12-0.475,10.831,5.639,11.556,10.456c0.432,0.766,0.668,0.55,0.834-0.042c0.348-6.186,5.855-11.24,10.955-10.55
            c8.3,0.108,13.344,9.393,11.926,17.251c-1.733,9.6-6.877,15.38-10.771,21.332C36.585,44.811,30.654,53.715,28.742,58
            c0,0-6.027-9.222-13.87-20.067c-5.243-7.252-9.44-15.11-9.831-21.875C4.595,8.327,7.751,1.399,16.491,0.199L16.491,0.199z"/>
        <path id="numeral" d="M9.842,0C5.149,0.091,2.822,4.021,2.797,7.953l0.004,10.317H0v3.426h2.801c0,0,0.049,1.564,0.041,2.503
            c-0.039,4.637,1.6,7.447,4.797,8.226c3.066,0.559,4.666-0.102,7-1.311c0.849,0.353,1.441,1.08,2.349,1.172
            c1.004,0.102,3.096,0.054,3.096,0.054l-0.058-3.515l-1.045-0.152c-2-0.034-2.866-0.733-2.649-1.982
            c0.424-0.813,0.485-1.405,0.524-2.389V6.849C16.796,2.572,13.299,0.038,9.842,0z M9.697,3.403c2.239-0.035,4.104,2.573,4.053,5.246
            l0.035,13.481c0.073,0.848-0.062,1.677-0.437,2.259c-0.295-0.86-4.93-5.597-7.248-5.378c0,0-0.094,0.239-0.16-5.686
            c-0.028-2.91-0.793-7.253,1.822-9.214C8.415,3.63,9.07,3.412,9.697,3.403z M12.038,28.031c0.205,0.416-0.556,0.826-1.367,1.053
            c-2.295,0.64-4.545-0.791-4.617-4.08c-0.021-1.003-0.088-2.075,0.265-2.233C7.372,22.296,11.417,26.779,12.038,28.031z"/>
    </defs>

    <rect width="100%" height="100%" fill="#fefefe"/>

    <!-- Little Card -->
    <g class="mini-card">
        <use xlink:href="#numeral" transform="matrix(3.5,0,0,3.5,78.4,33.95)"/>
        <use xlink:href="#suit" transform="matrix(2,0,0,2,55.5,170)"/>
    </g>

    <!-- Big Card -->
    <g class="maxi-card">

        <!-- Top Numeral and Suit -->
        <use xlink:href="#numeral" transform="matrix(1,0,0,1,7,12)"/>
        <use xlink:href="#suit" transform="matrix(0.4,0,0,0.4,6,51)"/>

        <!-- Bottom Numeral and Suit -->
        <use xlink:href="#numeral" transform="matrix(-1,0,0,-1,218,302)"/>
        <use xlink:href="#suit" transform="matrix(-0.4,0,0,-0.4,218,263)"/>

        <!-- Card Face -->
        <use xlink:href="#suit" transform="matrix(0.8,0,0,0.8,38,40)"/><!-- top left -->
        <use xlink:href="#suit" transform="matrix(-0.8,0,0,-0.8,186,274)"/><!-- bottom right -->

        <path fill="#131F67" d="M195.726,25.714L29.945,25.795l0.982,262.016l163.778-0.342C193.438,200.11,195.904,112.916,195.726,25.714z M173.887,27.919
            l19.798,0.087l-1.012,100.966c0,0-2.646-0.175-2.548-0.881c0.134-0.944-0.012-2.713-0.674-3.457
            c-0.279-0.313-0.735-0.807-0.915-1.166c-0.452-0.9-1.196-1.833-1.791-2.085c-0.296-0.125-0.64-0.194-0.685-0.399
            c-0.041-0.19-0.138-0.819-0.265-1.396c-0.316-1.447-0.598-1.401,0.323-2.842c3.189-4.988,4.418-9.578,4.015-14.128
            c-0.126-1.421-0.482-3.263-0.65-3.515c-3.084,3.089-5.315,6.907-7.413,9.729c-0.468-4.03-0.4-7.072-0.469-10.304
            c1.646-0.47,2.643-1.346,3.352-3.588c0,0,1.766,1.382,2.847,1.185l-0.712-2.604c4.721-1.449,5.366-7.609-0.209-8.912l0.502-3.244
            c0,0-1.683,0.563-2.423,0.925c-0.368,0.155-0.459,0.032-0.718-0.501c-2.6-4.045-6.638-3.185-8.418,0.804l-2.177-0.925
            c0.236,1.104,0.518,2.224,0.318,3.328c-4.568,2.034-3.44,7.602,0.207,8.331l-0.317,2.601l2.744-0.886
            c0.4,1.222,0.195,1.928,2.389,3.304c-0.054,5.45-0.142,8.858,0.029,13.7c-2.859-2.928-5.619-4.961-10.455-6.453
            c0,0-0.045,1.174,0.236,2.957c0.093,0.589,0.074,0.502-0.203,0.501c-0.628-0.015-3.462-4.57-3.462-4.57s-0.329,0.004-0.616,0.289
            c-0.338,0.335,0.434,0.953,1.517,2.562c1.269,1.883,1.146,1.803,0.149,2.648c-5.663,4.805-13.843,23.095-12.468,24.873
            c-3.58,0.214-17.534,7.056-20.067,21.16c-0.15,0.636-0.448,1.459-0.448,1.459l-4.035-1.001c2.434-11.553,7.927-35.044,7.927-35.044
            s3.861-1.098,6.121-1.339l-0.024-0.91l-5.316,1.237l0.255-2.013l5.018-0.987l-0.014-0.477l-5.312,0.712l0.867-3.352
            c0,0-11.924,1.752-16.195,1.623c0.271,13.033-0.758,23.861-0.205,37.907l-5.829-3.532c-0.519-9.779-0.674-34.48-0.674-34.48
            l-16.097-2.528l0.534,3.88c-13.344-5.289-26.73-10.155-36.588-20.495c6.068-4.656,16.195-9.274,16.195-9.274l-0.332-0.742
            c-24.9,12.837-34.148,21.755-46.659,32.819l-0.337-91.47l67.959-0.034l-0.227,16.682c0,0-0.088,0.433-0.216,0.583
            c-0.831,4.041,1.554,11.215,1.073,14.707c0.223,1.078,0.145,3.082,0.145,3.082c-4.058,5.558-6.207,10.834-8.014,17.294
            c-0.698,0.277-1.729,0.849-2.456,1.045l-0.207,0.881c1.593-0.874,6.106-2.302,6.106-2.302c20.111,9.804,34.889,7.404,50.705,0.12
            c-2.521,8.853,2.961,20.108,11.981,22.476c1.031,0.271,2.799,0.501,3.81,0.235c1.01-0.291-2.273-7.804-3.728-8.085
            c-4.357-1.888-6.152-6.322-5.688-11.409l-0.722-1.213c-1.486,6.179,2.089,12.452,6.997,13.984l1.319,2.88
            c-8.896-2.668-12.685-10.998-9.723-19.233c0.052-5.14-3.278-7.412-4.807-9.627c-7.736-2.951-9.174-10.116-7.82-15.906
            c3.602,1.531-2.428-5.086-2.428-5.086c-2.652,5.746-3.761,13.01,2.307,20.371c-3.925,5.2-8.986,9.314-14.645,12.829
            c-8.27,4.314-14.473,1.407-18.468-8.148c-2.399-5.737-3.258-11.457-3.246-17.447c0.014-3.709,0.056-3.821,1.444-3.193
            c1.306,0.591,4.137,0.675,5.827-0.197c2.304-1.188,2.195-0.465-0.312,2.114c-0.683,0.701-1.411,1.334-1.411,1.469
            c-0.003,0.762,1.07,0.12,2.601-1.396c0.559-0.554,0.972-1.087,1.146-1.079c0.2,0.01,0.183,0.723-0.048,1.493
            c-0.088,0.296-0.369,1.546-0.626,2.773c-0.257,1.229-0.608,2.671-0.78,3.208c-0.68,2.13-0.496,3.117,1.547,4.101
            c1.077,0.519,2.92,2.285,2.903,2.285c0,0-0.439-1.937-0.276-2.56c0.195-0.749,1.086-0.219,1.992,0.214
            c2.004,0.957,3.171,0.984,4.246,0.087c1.484-1.239,1.059-4.022-0.775-4.748c-1.346-0.533-1.582-0.04-0.238,0.896
            c2.016,1.405-0.257,3.578-1.969,2.231c-1.339-1.054-3.664-1.172-3.924-0.294c-0.245,0.829-0.498,0.679-1.426,0.137
            c-1.44-0.842-1.452-0.989-0.245-5.634c2.286-8.796,2.062-12.025-0.968-14.698c-2.243-1.978-5.947-2.896-9.791-0.698v-2.995
            c5.642-2.255,9.746-5.984,13.056-12.228h0.646c3.295,7.135,8.621,12.259,18.642,16.018c3.915,3.865-4.962-11.103-2.128-4.975
            c-5.317-2.06-10.058-6.051-12.666-11.043h1.449c1.528,2.207,4.623,6.233,10.133,9.016c0.5,0.418,0.982-0.015,0.982-0.015
            s-4.623-7.243-5.379-8.967l46.187-0.327c-1.466,11.249-3.529,23.473,4.593,45.381c-3.81-2-19.084,2.262-16.396,3.104
            c1.35-1.558,11.083-3.857,18.286-2.157C178.232,73.491,167.845,49.389,173.887,27.919L173.887,27.919z M178.828,74.006
            c0.013,0.011,0.025,0.017,0.028,0.005C178.848,74.008,178.837,74.008,178.828,74.006z M143.143,117.415l0.044,1.763l0.366-0.087
            l-0.212-1.715L143.143,117.415z M101.444,27.972h2.027c-0.445,0.916-1.095,1.603-2.085,2.167L101.444,27.972z M104.93,27.972h2.182
            c-1.699,2.705-3.506,4.344-5.688,5.625l0.039-2.119C102.724,30.373,103.927,29.232,104.93,27.972z M108.537,27.972h2.013
            c-2.731,4.197-5.536,7.015-9.126,8.799v-1.715C103.642,33.331,106.786,30.797,108.537,27.972z M111.61,27.972h1.628
            c-2.799,5.332-6.702,9.015-11.813,11.062v-1.281C107.023,34.77,109.472,31.44,111.61,27.972z M116.06,27.972h1.955
            c2.683,5.331,8.255,10.373,14.375,12.584l0.935,2.162C125.257,39.822,119.914,35.597,116.06,27.972z M121.718,27.972h1.396
            c1.468,2.047,3.247,3.709,5.326,5.091l1.267,2.451C126.902,33.626,123.769,31.334,121.718,27.972z M124.266,27.972l1.56,0.082
            l2.066,3.443C126.515,30.724,125.473,29.152,124.266,27.972z M122.474,41.813c-2.14-0.01-4.085,0.58-5.494,1.729
            c-1.489,1.214-0.394,2.536,1.748,1.541c3.647-1.693,7.838-0.93,12.361,1.546c3.81,2.085,2.475-0.088-1.078-2.408
            C127.574,42.609,124.899,41.823,122.474,41.813z M105.272,44.543c3.069,0.024,6.585,1.383,6.67,3.183
            c-2.035-1.702-6.125-2.528-10.05-0.779c-0.301-0.064-0.343-1.132-0.164-1.522C102.573,44.801,103.877,44.532,105.272,44.543z
            M123.856,45.703c-1.94,0-3.716,0.508-4.536,1.6c-0.419,0.517-0.529,0.572-0.992,0.495c-0.902-0.149-0.852,0.372,0.179,1.802
            c0.5,0.693,0.418,1.482-0.251,2.422c-0.767,1.079-0.617,1.121,1.667,2.216c1.745,0.85,3.147,2.056,4.733,3.048
            c1.133,0.64,1.359,0.077,0.313-0.766c-0.359-0.289-1.424-1.049-2.379-1.671c-1.621-1.055-2.811-2.12-1.522-1.647
            c0.591,0.187,0.743,0.265,1.392,0.376c1.67,0.36,3.319,0.562,4.72,0.279c1.005-0.201,2.314-0.865,3.391-1.796
            c0.274-0.127,0.546,0.008,1.213,0.033c2.552,0.1,1.989-0.649-1.676-2.648c-3.625-1.978-6.469-2.338-8.788-1.252
            c-0.982,0.46-1.544,0.574-1.401,0.284c0.148-0.303,0.421-0.655,0.861-0.91c3.749-2.243,6.761-0.384,10.065,1.3
            c1.418,0.845,1.801,1.065,1.97,0.795c0.216-0.346-1.581-1.623-3.992-2.832C127.407,46.098,125.569,45.704,123.856,45.703z
            M111.872,48.301c0.635,0.248,0.351,0.974-0.229,0.745c-3.461-1.555-4.156-2.312-8.282-0.873c-1.362,0.475-1.902,0.055-0.229-0.662
            C106.776,45.986,109.42,47.014,111.872,48.301L111.872,48.301z M109.5,50.129c-0.938,4.763-5.678,3.294-5.143,0.024l0.871,0.005
            c0.068,2.876,2.95,2.856,3.443,0.028L109.5,50.129z M137.071,50.139l1.276,2.73c-2.792,6.876,0.998,16.135,9.241,18.353
            c0,0,1.33,2.044,1.069,2.303C133.182,70.1,134.372,55.347,137.071,50.139z M122.411,50.318l0.434,0.023
            c1.337,3.319,3.277,1.412,3.655,0.01l0.987,0.024C127.186,53.813,121.971,54.396,122.411,50.318z M110.483,50.413
            c0.627-0.073,0.84,0.867,0.665,1.04c-0.049,0.048-1.194,1.161-1.334,0.506C109.609,51.001,110.223,50.46,110.483,50.413z
            M103.264,50.51c0.053,0,0.106,0.003,0.164,0.01c0.389,0.296,0.535,1.181,0.332,1.637c-0.229,0.239-1.159-0.087-1.339-0.442
            C102.145,51.194,102.47,50.504,103.264,50.51z M128.364,50.827c0.306,0.013,1.146,0.376,1.064,0.78
            c-0.021,0.103-1.19,0.964-1.454,0.823c-0.508-0.27,0.194-1.507,0.294-1.584C128.284,50.833,128.321,50.825,128.364,50.827z
            M121.526,50.977c0.008-0.002,0.017-0.002,0.019,0c0.091,0.067,0.838,0.532,0.203,1.392c-0.044,0.06-0.893-0.242-0.905-0.342
            C120.773,51.527,121.408,51.012,121.526,50.977z M140.278,57.006c-0.188,3.952,0.842,7.789,5.158,10.253l-0.93-1.695
            c-1.106-0.881-3.425-3.396-3.135-6.391L140.278,57.006z M101.521,64.071l0.486,2.601c-2.375,3.946-4.178,7.824-5.673,12.357
            l-2.244,0.818C95.872,74.13,97.52,69.601,101.521,64.071z M102.465,68.121l0.635,2.234c-1.166,2.148-2.412,4.576-3.163,7.401
            l-2.48,0.915C98.573,74.929,100.204,71.292,102.465,68.121z M110.328,69.046c-0.036,0-0.073,0.004-0.11,0.014
            c-0.026,0.441-0.021,1.658,0.072,3.665c0.018,0.381,0.392,0.221,1.444-0.317c0.919-0.47,0.824-0.544,1.715-0.246
            c2.466,0.845,3.588,0.478,4.551,0.229c1.469-0.378,2.069-0.225,2.923,0.286c0.47,0.28,1.111,0.488,1.238,0.534
            c0.676,0.246,0.418-0.052-0.044-1.878c-0.52-2.055-0.297-2.279-1.12-1.744c-0.181,0.117-0.703,0.406-0.988,0.439
            c-0.718,0.084-1.916-0.796-2.63-0.517c-1.73,0.678-1.715,0.499-3.321,0.105c-0.804-0.197-1.572,0.292-2.27,0.43
            C111.389,70.097,110.884,69.041,110.328,69.046z M139.763,70.11c2.923,2.682,5.928,3.599,9.188,4.614
            c-0.394,1.333-1.18,2.832-1.546,4.574c-16.967,8.968-34.016,8.687-50.099,0.545l8.346-3.188c4.56,7.896,10.404,10.005,16.976,7.421
            C129.971,80.659,135.407,75.907,139.763,70.11z M103.51,71.69l0.722,1.936l-1.073,2.919l-2.047,0.828
            C101.503,75.384,102.26,73.75,103.51,71.69z M118.843,73.934c-0.508,0.024-1.275,0.365-3.024,0.375
            c-0.947,0.006-1.688-0.079-2.057-0.005c-0.762,0.155,0.129,0.495,1.835,0.982c1.706,0.486,3.791-0.246,4.05-0.986
            C119.71,74.118,119.486,73.903,118.843,73.934z M104.709,74.887l0.447,0.982l-0.766,0.274L104.709,74.887z M149.818,75.441
            l1.267,2.885c-2.194,4.749-3.651,17.766,10.999,21.815l0.641,1.864C152.752,102.199,142.76,89.526,149.818,75.441z M116.272,76.423
            c-1.432-0.014-2.932,0.342-3.896,1.107c-0.872,0.69,0.194,1.126,1.329,0.573c1.47-0.715,3.925-0.656,5.365,0.246
            c1.102,0.751,1.676,0.618,0.938-0.525C119.43,76.927,117.894,76.44,116.272,76.423z M180.239,79.664
            c3.83-0.063,4.228,5.419,3.482,5.89c0.216-0.072,0.87-0.265,1.801-0.24c2.807,0.073,4.27,1.624,4.431,3.881
            c0.163,2.273-1.565,3.541-4.084,3.414c-0.935-0.046-1.579-0.141-1.536,0.024c0.468,1.817-0.097,4.556-2.504,5.239
            c-0.276,0.079-0.671,0.465-0.68,0.603c-0.18,2.882,0.641,12.781,0.641,12.781s4.513-7.585,5.529-8.736
            c1.986-2.712,2.345-2.469,2.35,2.037c-0.329,6.251-1.332,7.685-5.014,12.931c-1.576,2.259-5.308,1.072-4.97,2.601
            c0.075,0.337,0.681,0.942,1.286,1.517c0.388,0.367,0.789,0.599,1.695,0.568c1.592-0.053,2.212-0.376,1.261,1.008
            c-0.752,1.095-3.397,1.321-3.695,1.892c-0.693,1.324-0.219,1.031-1.403,2.195c-0.907,0.994-0.592,0.487-0.179,1.306
            c0.648,1.055,0.379,3.16-0.265,4.579c-0.524,1.156-0.466,1.98-0.466,1.98c0.01,0.097,1.474-1.511,1.915-3.367
            c0.367-1.545,0.798-2.319,0.795-1.454c-0.005,1.091,0.186,2.574,1.17,3.14c0.778,0.447,0.891,0.895,0.761,1.444
            c-0.134,0.569,0.475,1.07,1.074,1.546c0.141,0.141,0.614,0.326,0.563,0.626c-0.16,0.95,0.226,2.066,0.917,2.248
            c0.309,0.153,2.274-0.015,2.599-1.121c-0.031-0.353-0.003-1.804-0.785-1.888c-0.553-0.254-0.495-0.406,0.342-0.905
            c1.252-0.746,2.16-1.282,2.779-1.396c0.827-0.112,1.622-1.011,1.622-1.011l0.159,59.667c-7.426,7.601-15.565,15.165-26.299,22.6
            c-6.237-5.197-13.053-10.459-20.289-14.398l-2.499-1.479l0.896-1.146l-4.339-5.721l4.884-3.93l1.237,1.564l-2.312,2.244l3.467,3.834
            l7.792-7.6l-5.133-4.912l2.672-5.003l1.71,0.838l-1.291,3.173l3.906,2.471l4.888-9.708l-6.198-2.822l1.57-6.521l1.912,0.202
            l-0.636,4.695l4.83,0.958l1.965-11.071l-7.089-1.267l0.602-6.313l1.979,0.024l-0.289,3.491l5.009,0.713l0.943-9.65l-6.948-1.151
            l0.896-7.45l1.589,0.227l-0.308,4.595l5.1,0.871c0.561-3.115,1.017-7.028,1.849-10.084l-6.568-2.446l2.326-6.256l1.479,0.516
            l-1.291,3.39l4.85,2.062l4.089-8.066l-5.712-4.04c1.28-2.123,2.558-4.142,4.388-5.861l1.122,0.978c0,0-0.412,0.371-1.045,1.247
            c-0.77,1.064-1.011,1.602-0.905,1.879c0.104,0.273,3.632,2.878,3.9,2.879c0.312,0.002,1.481-1.065,2.085-1.781
            c0.646-0.767,0.984-0.841,1.652-0.361c0.133,0.096,0.324,0.285,0.462,0.448c0.16,0.192,0.225,0.354,0.241,0.477
            c0.016,0.12-0.019,0.201-0.049,0.25c0.057-0.054,0.18-0.146,0.443-0.294c0.479-0.267-0.929-1.505-2.08-2.147
            c-3.444-1.933-7.496-5.575-8.433-10.132c-0.344-2.047,4.947,0.414,8.591,4.045c0.553,0.549,2.605,2.538,2.605,2.538
            c-0.3-5.268-0.729-10.618-0.496-15.95l-0.804-0.559c-1.126-0.784-1.56-2.071-1.662-3.361c-0.07-0.89,0.693-1.344-1.05-1.286
            c-3.626,0.032-5.725-3.381-3.524-6.299c0.786-1.092,4.131-1.625,4.127-1.599C175.782,81.713,178.349,79.841,180.239,79.664z
            M178.919,120.246C178.851,120.312,178.88,120.312,178.919,120.246z M183.721,85.554c-0.048,0.016-0.102,0.034-0.102,0.034
            C183.655,85.586,183.69,85.573,183.721,85.554z M62.981,96.952c10.127,8.526,16.589,14.263,37.201,20.685l0.511,3.053
            c-11.853-2.736-24.782-8.275-40.154-22.047L62.981,96.952z M59.932,98.922c6.412,5.986,12.986,10.546,19.639,14.37l2.336,1.406
            l-1.204,1.233l3.915,5.644l-5.037,4.108l-1.199-1.194l2.629-2.576l-3.741-3.68l-7.623,7.715l5.225,4.633l-3.029,4.657l-1.098-0.496
            l1.608-3.246l-4.854-2.648l-5.427,9.973l6.91,3.146l-1.561,6.12l-1.613-0.081l0.545-4.797l-5.196-0.92l-1.748,11.206l6.684,1.05
            l-0.159,6.453l-1.781-0.028l0.125-3.646l-5.278-0.246l-0.472,9.405l6.496,0.843l-0.645,7.633l-1.6-0.409l0.179-4.955l-4.95-0.486
            l-1.705,10.536l6.68,1.907l-2.36,6.568l-1.449-0.794l0.948-3.391c-1.218-0.531-4.642-1.955-4.642-1.955l-4.363,8.182l5.658,3.853
            l-3.481,6.116l-1.344-0.9l2.403-3.568l-4.7-2.952l-2.678,3.655c-1.137-0.987-3.18-2.357-3.958-3.274
            c-0.833-0.759-1.467-0.874-2.538-0.622c-0.846,0.2-1.66,0.353-1.474,0.054c0.092-0.147,1.697-1.229,4.151-2.784
            c0.686-0.435,1.227-0.814,1.218-1.203c-0.006-0.291,0.372-0.751,0.867-1.051c0.548-0.331,0.425-0.639,0.337-0.982
            c-0.475-1.84-0.175-4.709,0.751-6.641c0.62-1.293,0.814-1.524,0.409-1.526c-1.193,0.153-2.649,4.479-2.928,5.697
            c-0.094-0.097-0.224-1.237-0.308-1.676c-0.153-0.793-0.265-1.284-0.901-1.436c-0.761-0.181-0.52-0.545-0.597-1.117
            c-0.126-0.928-0.564-1.516-1.358-1.845c-0.764-0.315-0.847-0.443-0.813-1.203c-0.003-0.598-0.625-1.609-1.089-1.932l-2.648,0.935
            c-0.208,0.699,0.069,1.605,0.506,1.936c1.331,1.253-0.616,1.27-1.95,2.085c-0.36,0.233-0.792,0.741-1.084,0.573
            c-0.847-0.277-0.78,2.253-1.613,1.937l0.202-60.693C39.252,114.246,59.932,98.922,59.932,98.922z M167.198,109.656l1.021,1.132
            c-3.167,3.563-5.463,7.232-7.994,11.712c-2.159,3.822-4.025,9.174-5.004,15.011c-0.755,3.573-0.871,7.209-1.339,10.864
            c-0.476,3.934-0.566,9.229-1.319,13.383c-1.39,11.392-4.589,17.452-11.543,23.915c-3.057,2.841-12.565,8.205-12.824,8.153
            l-2.254-0.559c19.497-9.98,24.372-16.864,26.481-40.491C152.836,123.135,166.319,111.654,167.198,109.656z M169.115,111.641
            l1.045,1.007l-5.692,8.037l5.61,3.954l-2.225,5.196l-1.7-0.631l1.209-3.545l-4.72-1.988l-3.813,10.324l6.723,2.119l-1.107,6.728
            l-1.358-0.366l0.005-4.584l-4.989-1.017l-1.449,11.534L164,149.43l-0.539,5.952l-1.739-0.12l-0.067-3.544l-5.1-0.271l-1.165,9.998
            l7.238,1.228l-1.311,7.104l-1.541-0.366l0.347-4.686l-4.854-0.641l-2.809,9.593l6.098,3.073l-3.001,6.149l-1.285-0.896l1.661-3.636
            l-4.743-2.341l-4.58,7.937l4.97,4.888l-4.854,5.085l-1.083-1.387l2.504-2.696l-3.742-3.703l-7.782,6.188l3.974,5.235l-0.468,0.659
            l-4.103-1.646l-1.965-2.596l-2.351,1.03l-1.854-0.708c11.494-6.026,18.973-13.015,22.061-23.554c1.696-5.827,2.2-12.186,2.75-18.594
            c0.286-3.328,0.582-6.671,1.064-9.959c0.566-5.37,1.389-9.878,3.568-15.059C161.944,120.865,165.156,116.436,169.115,111.641
            L169.115,111.641z M107.261,115.614l7.894,4.161l-0.116,2.765l-7.296-3.655L107.261,115.614z M109.481,115.691l5.625,0.771
            l0.024,2.269L109.481,115.691z M84.126,115.763l3.284,1.479l2.784,3.212l2.085-1.367l2.264,0.848
            c-7.152,3.675-13.498,8.073-18.439,15.66c-5.508,8.456-6.12,19.525-6.824,30.21c-1.175,14.738-3.702,25.09-13.499,37.037
            l-1.444-0.91l5.287-8.398l-5.961-3.853l2.716-4.965l1.372,0.472l-1.064,2.962l4.932,2.601l3.78-10.585l-6.954-2.167l1.166-6.622
            l1.748,0.154l-0.463,4.743l4.971,0.785l1.425-11.191l-6.698-1.026l0.149-5.913l1.642,0.158l-0.01,3.598l5.283,0.284l0.409-10.209
            l-6.568-0.728l0.809-7.209l1.84,0.188l-0.424,4.325l5.057,0.722l2.398-9.333l-6.569-2.966l3.545-6.304l1.594,0.731l-1.628,3.491
            l4.556,2.221l4.777-7.301l-5.075-4.874l4.984-5.215l1.223,1.199l-2.706,3.11l3.751,3.468l7.426-6.231l-3.626-5.452L84.126,115.763z
            M131.364,116.11l-0.23,2.615l-7.912,4.493l-0.005-2.562L131.364,116.11z M173.829,116.201l1.748,1.084l-1.267,1.502l-1.526-0.963
            L173.829,116.201z M128.036,116.573l-4.739,2.735v-2.721L128.036,116.573z M183.918,119.124c0.247,0.006,0.475,0.06,0.65,0.174
            c0.477,0.311,0.408,1.077-0.13,1.454c-0.701,0.491-2.622,0.458-2.812-0.048C181.352,119.975,182.846,119.1,183.918,119.124z
            M108.287,120.203l6.8,3.67l-0.024,2.586l-6.545-3.598L108.287,120.203z M130.44,120.285l-0.4,3.371l-7.002,3.713l-0.058-2.924
            L130.44,120.285z M96.546,120.348l2.788,0.708c-10.322,4.604-20.523,11.284-24.492,22.938c-1.239,3.487-2.075,7.368-2.619,12.338
            c-0.256,5.24-0.932,10.398-1.18,14.769c-0.505,8.899-3.434,20.951-13.553,33.755l-0.968-0.761
            c6.207-7.649,9.435-14.585,11.428-21.912c3.158-11.659,1.593-24.526,4.96-36.263c2.055-7.14,6.319-13.523,12.709-19.046
            C90.065,123.419,96.546,120.348,96.546,120.348L96.546,120.348z M101.232,121.325c0.03-0.002,0.045-0.001,0.048,0.01
            c2.507,8.437,5.602,23.813,5.602,23.813c-6.629-3.206-17.664-2.619-17.664-2.619s-6.209-8.01-7.412-8.669
            C86.771,127.163,100.284,121.372,101.232,121.325z M186.586,122.655c1.526-0.049,1.417,2.271-0.516,3.848
            c-0.986,0.806-1.443,0.692-2.172,0.048c-0.214-0.287-0.835-0.492-1.29-0.438c-1.083-0.005,1.057-2.244,2.961-3.169
            C185.964,122.752,186.303,122.663,186.586,122.655z M109.086,124.542l6.063,3.111l0.058,2.562l-5.61-3.043L109.086,124.542z
            M129.64,124.889l-0.327,2.817l-6.313,3.284l0.033-2.596L129.64,124.889z M188.719,125.939c0.21-0.02,0.373,0.062,0.525,0.231
            c0.86,0.958-0.775,3.862-2.629,4.733c-0.713,0.335-1.151,0.28-1.744-0.23c-0.287-0.248-0.714-0.574-0.958-0.549
            c-1.062,0.108-0.476-1.082,0.381-1.151c0.236-0.02,1.722-1.131,2.846-2.066C187.893,126.281,188.37,125.971,188.719,125.939z
            M182.305,127.071c1.34-0.032,1.828,1.083,0.241,1.57c-1.131,0.347-1.761,0.1-1.758-0.66
            C181.026,127.2,181.709,127.11,182.305,127.071z M109.919,128.578l5.38,2.696l0.023,2.765l-4.94-2.577L109.919,128.578z
            M129.168,128.958l-0.376,2.615l-5.793,2.976l0.015-2.162L129.168,128.958z M189.89,130.056c0.366,0.023,0.475,0.432,0.472,1.156
            c-0.005,1.2-0.8,2.309-1.994,2.851c-0.874,0.397-1.49,0.366-1.926-0.101c-0.198-0.213-0.475-0.385-0.616-0.391
            c-1.871-0.074-1.57-0.557,0.222-1.305c0.631-0.264,1.869-1.122,2.456-1.541C189.163,130.254,189.605,130.038,189.89,130.056z
            M183.023,130.908c0.918,0.004,1.726,0.651,1.218,1.069c-0.395,0.325-1.875,0.481-2.167,0.188
            C181.52,131.607,182.013,130.905,183.023,130.908z M110.811,132.768l4.584,2.471l-0.023,2.629l-4.378-2.476L110.811,132.768z
            M128.398,132.97l-0.106,2.691l-5.264,2.596l-0.033-2.566L128.398,132.97z M185.031,134.086c0.89,0.064,0.778,0.927,0.058,1.345
            c-0.537,0.373-1.232,0.177-1.517-0.26C182.932,133.954,184.386,134.101,185.031,134.086z M186.817,136.849
            c0.148,0.298,0.066,0.83-0.226,0.998c-0.391,0.165-1.404-0.007-1.561-0.302c-0.129-0.243-0.099-0.37,0.149-0.617
            C185.594,136.599,186.526,136.354,186.817,136.849L186.817,136.849z M111.475,136.9l3.915,2.138l-0.023,2.582l-3.598-2.091
            L111.475,136.9z M127.757,136.967l-0.192,2.484l-4.556,2.259l0.062-2.422L127.757,136.967z M80.062,138.532
            c0.977,0.011,1.73,0.662,1.156,1.771c-0.359,0.693-0.63,0.95-2.191,2.052c-0.638,0.45-1.19,0.861-1.233,0.915
            c-0.042,0.054-0.449,0.335-0.717,0.521c-1.4,0.969-0.914-1.055,0.833-4.036C78.41,138.901,79.302,138.524,80.062,138.532z
            M127.41,140.747l-0.361,2.735l-4.074,2.08v-2.634L127.41,140.747z M112.091,141.002l3.294,1.633l0.049,2.663l-2.991-1.57
            L112.091,141.002z M151.662,141.209c0.105-0.004,0.198,0.032,0.265,0.126c0.271,0.377,0.313,2.009,0.048,2.933
            c-0.461,1.086-1.357-1.654-1.257-2.351C150.91,141.603,151.345,141.223,151.662,141.209z M82.416,141.705
            c1.333-0.024,2.296,0.886,1.845,2.234c-0.52,1.303-3.526,2.122-4.883,3.02c-0.888,0.44-1.103-0.037-0.828-0.804
            c0.126-0.354,0.224-0.633-0.453-0.732c-1.643-0.242-0.642-1.04,2.369-3.058C81.126,141.923,81.811,141.717,82.416,141.705z
            M148.479,142.558c0.473-0.005,1.056,0.271,1.657,0.925c1.034,1.123,1.782,3.488,1.218,4.103c-0.432-0.048-0.646,0.59-0.669,0.848
            c-0.065,0.745-1.425-0.614-2.711-2.759C146.938,143.947,147.44,142.57,148.479,142.558z M92.997,142.957
            c4.061-0.027,11.814,0.812,22.547,7.527c1.369,0.857,2.738,1.804,4.286,2.567c4.071,2.195,7.432,3.684,12.68,4.661l-0.149,2.716
            c-0.047,0.857,1.366,5.82,0.718,8.611c-0.963-0.019,0.93,0.823,0.93,0.823l1.232,2.523c0,0-6.442-0.055-9.371-0.631
            c-4.718-0.768-13.329-4.767-17.491-7.912c-4.323-3.172-10.853-5.808-16.45-6.829l-0.077-2.336c0,0-0.556-7.997-1.002-9.092
            l-1.03-2.528C90.072,143.16,91.151,142.97,92.997,142.957z M126.875,144.71l-0.312,2.683l-3.573,1.676v-2.297L126.875,144.71z
            M144.684,144.831c1,0.002,2.515,1.172,4.243,3.511c0.39,0.526,0.689,0.983,0.746,1.3c0.053,0.292-0.127,0.46-0.414,0.424
            c-0.681-0.123-0.931-0.369-1.122,0.477c-0.047,0.21,0.074,0.589-0.158,0.521c-1.214-0.356-4.683-3.855-4.47-4.975
            C143.669,145.247,144.084,144.829,144.684,144.831z M112.862,145.009l2.605,1.387l0.115,2.645l-2.316-0.997L112.862,145.009z
            M84.864,145.814c0.8-0.026,1.296,0.289,1.55,0.91c0.613,1.496-0.472,2.396-3.693,3.072c-2.799,0.665-2.741,0.707-2.35-0.332
            c0.259-0.689-0.605-0.767-1.089-0.949c-0.816-0.309-0.148-0.404,2.201-1.574C82.958,146.205,84.063,145.839,84.864,145.814z
            M75.549,146.522c0.08-0.007,0.175,0.068,0.313,0.24c4.069,4.93,3.022,12.114-2.129,15.661c-0.585,0.387-0.605,0.028-0.539-0.742
            l0.101-1.464c0.027-0.29,5.918-3.907,1.561-11.952l0.366-1.137C75.338,146.766,75.417,146.532,75.549,146.522z M142.031,148.053
            c1.606,0.006,6.115,4.097,4.194,4.242c-0.226,0.018-0.148,0.311-0.148,0.496c0,0.187-0.011,0.541-0.062,0.675
            c-0.139,0.356-0.665,0.286-1.474-0.193c-2.052-1.214-2.518-1.602-3.227-2.272C139.917,149.679,140.314,148.046,142.031,148.053z
            M126.154,148.756l-0.029,2.205l-3.212,1.556l0.02-1.993L126.154,148.756z M85.446,150.34c2.162-0.074,3.378,2.08,1.219,3.212
            c-0.863,0.453-3.706,0.136-5.027,0.02c-1.493-0.131-0.611-0.574-0.53-0.708c0.205-0.337,0.364-0.389-0.414-0.853
            c-0.618-0.65-0.973-0.81,0.573-1.011c0.75-0.098,2.571-0.275,3.202-0.481C84.809,150.407,85.137,150.351,85.446,150.34z
            M151.253,150.865c0.159-0.008,0.142,0.257,0.077,0.943l-0.106,1.474c-0.984,0.157-5.876,6.238-1.902,13.311l-0.332,1.258
            c-0.152,0.621-0.202,0.712-0.718,0.327c-2.978-2.059-3.944-12.536,2.226-16.87C150.899,151.042,151.129,150.87,151.253,150.865z
            M139.637,152.093c0.575,0.011,1.279,0.173,2.086,0.539c1.879,0.855,3.128,1.547,3.419,2.004c0.18,0.282-0.103,0.517-0.481,0.626
            c-0.459,0.132-0.515,0.324-0.391,0.862c-0.001,0.312,0.079,0.658-0.312,0.679c-0.725,0.039-2.345-0.472-3.982-1.354
            C137.208,153.961,137.584,152.057,139.637,152.093z M125.585,152.127v2.682l-2.64-1.218L125.585,152.127z M81.348,154.434
            c0.279,0.007,0.649,0.058,1.137,0.135c0.594,0.095,1.518,0.187,1.993,0.178c3.008-0.052,4.253,2.042,1.772,3.106
            c-0.679,0.291-0.961,0.26-2.817-0.279c-0.889-0.258-1.978-0.529-2.423-0.655c-0.894-0.253-1.203-0.535-0.611-0.736
            c0.551-0.188,0.599-0.569,0.256-1.074C80.571,154.602,80.733,154.417,81.348,154.434z M151.239,154.434
            c-0.426,4.153-0.774,7.391-1.401,11.456C149.379,165.71,146.134,158.049,151.239,154.434z M138.582,156.422
            c0.979,0.019,2.631,0.396,4.238,1.026c1.404,0.517,1.582,0.655,0.611,1.069c-0.586,0.25-0.515,0.474-0.342,0.856
            c0.268,0.288,0.773,0.862-0.023,0.747c-0.945,0.07-3.428-0.069-4.186-0.202c-2.267-0.398-2.884-2.441-1.025-3.391
            C138.005,156.452,138.256,156.416,138.582,156.422z M80.346,157.472c0.21,0,0.594,0.113,1.291,0.333
            c4.07,1.284,5.72,2.84,3.727,4.349c-0.578,0.438-1.475,0.252-3.168-0.693c-1.731-0.967-2.601-1.497-2.924-1.84
            c-0.32-0.341-0.146-0.731,0.347-0.698c0.676,0.045,0.574-0.294,0.521-0.862C80.101,157.662,80.076,157.473,80.346,157.472z
            M91.325,157.848l3.121,0.708l-7.792,34.076c-2.66,0.768-4.193,1.098-6.062,2.104l5.389-0.93l-0.468,2.438l-4.893,0.919l-0.11,0.728
            l5.605-1.011c0,0-0.2,2.325-0.396,3.227c5.35-0.432,10.633-1.919,16.013-1.961c0,0,0.131-26.893,0.11-29.823
            c-0.021-3.168,0.005-6.954,0.005-6.954l5.394,3.044l0.892,33.893l16.894,2.745c-0.118-0.571-0.578-3.191-0.578-3.191
            c12.525,3.692,25.225,9.152,36.465,20.435c-5.23,2.83-10.175,5.637-15.256,8.357l-0.737,1.06
            c12.887-6.02,32.476-18.534,46.621-32.367l0.313,89.621l-67.705,0.271c0,0-0.003-4.316-0.005-8.385l0.039-7.493
            c-0.275-4.806,0.562-10.098-0.91-14.129l-0.289-4.224c4.173-4.854,6.428-10.973,8.418-17.227c0,0,2.008-0.777,2.985-1.122
            l0.337-1.228c-1.94,0.991-6.395,2.653-6.395,2.653c0.479-0.375-9.472-4.563-15.618-5.548c-10.141-1.623-23.783,0.049-34.658,5.442
            c-0.533,0.375-0.761,0.366-0.626-0.121c2.524-9.184-2.795-18.402-12.131-21.073c-1.981-0.567-3.603-0.563-3.603-0.563l0.169,0.804
            c15.257,1.72,18.836,17.842,12.962,25.331c-1.539,2.471-1.774,3.192,1.458,3.11c13.064-0.107,17.604,14.489,11.651,22.566
            c0.016-0.062,0.482,0.94,0.482,0.94c3.713-4.901,4.701-14.213-1.878-20.756c4.863-5.424,14.201-14.104,22.277-13.596
            c2.939,0.186,5.841,3.743,7.772,6.584c4.091,6.014,5.143,14.411,5.433,19.2c0.071,1.255,0.238,2.166,0.24,2.826
            c0.007,1.918-0.359,1.688-1.599,1.368c-1.555-0.401-3.688-0.418-5.264,0.062c-2.532,0.771-2.124,0.332,0.13-2.461
            c1.33-1.647,1.509-2.155,0.959-2.264c-0.168-0.032-0.731,0.532-1.469,1.667c-2.224,3.42-2.051,2.016-0.443-3.318
            c1.045-3.468,0.938-3.71-1.907-5.865c-0.941-0.714-2.099-1.406-2.201-1.623c-0.536-1.138-0.76,0.289-0.279,1.228
            c0.47,0.917-0.524,1.336-2.272,0.391c-4.114-2.279-6.793,2.334-3.121,4.334c0.866,0.471,1.349,0.084,0.68-0.535
            c-2.26-2.089-0.688-3.849,2.369-1.998c1.767,1.069,2.438,0.727,3.029-0.611c0.327-0.546,3.07,1.419,3.067,2.182
            c-0.002,0.5-0.319,2.101-0.631,3.173c-0.879,3.026-1.117,3.967-1.498,5.929c-0.689,3.558-0.671,5.381,0.067,6.944
            c1.656,3.504,5.824,5.156,9.439,3.746c0.525-0.205,1.531-0.375,1.531-0.375l0.043,2.571c-7.128,2.699-12.278,11.126-12.044,11.413
            l-2.543,0.005c-3.375-6.7-9.313-11.745-16.859-14.534c0,0-0.908-1.511-0.097,1.248c0.05,1.106,1.216,2.667,2.157,3.212
            c3.585,1.822,8.329,5.054,10.946,10.069l-1.801,0.029c-2.196-3.348-5.041-5.608-7.739-7.58c-0.634-0.134,0.463,6.07,3.054,7.984
            l-46.473,0.809c3.172-12.407,3.781-26.175-3.65-44.223c6.161,0.378,11.626-0.943,16.634-3.13l-0.452-1.286
            c-5.706,2.724-11.967,3.26-18.232,2.62c4.754,8.801,8.913,27.242,4.863,44.979L33.6,285.48l-0.236-96.69
            c0,0,0.667,0.608,0.877,0.818c0.535,0.537,0.897,1.341,1.05,1.922c0.194,0.743,0.4,0.788,1.464,1.584
            c0.51,0.382,0.805,0.718,0.804,0.915c-0.029,0.22-0.036,0.897,0.309,1.314c0.937,1.133,0.771,1.859,0.067,2.591
            c-3.271,3.402-5.318,10.552-3.665,18.093c3.879-2.61,7.873-9.437,7.999-9.448l0.376,9.323c-0.345-0.076-2.712,1.326-2.74,3.159
            c-1.072,0.319-2.381-0.214-3.468-0.534l0.784,2.746c-3.98,1.588-4.195,7.032,0.418,8.587c0,0-0.421,2.129-0.783,3.273l2.996-0.457
            c1.739,5.196,8.42,3.532,8.388-0.093c0,0,2.032,0.764,2.804,1.104l-0.751-3.542c7.596-3.79,1.913-8.752,0.179-8.681
            c0.023-0.99,0.478-1.303,0.895-2.456l-3.067,0.192c-0.562-1.829-2.624-3.326-2.701-3.125l-0.424-13.345
            c2.319,2.022,4.601,4.097,7.676,5.707c2.838,1.485,3.127,1.153,2.707-1.411c-0.19-1.157-0.174-1.917-0.174-1.917
            c1.064,0.25,3.751,3.74,3.621,5.461c0.981,1.28,1.871-2.163-0.659-5.095c6.735-7.054,11.868-18.745,12.964-26.713l8.957-3.563
            l0.102-1.166C86.468,169.95,89.651,164.272,91.325,157.848L91.325,157.848z M98.781,159.933l2.062,0.92l-2.341,1.161L98.781,159.933
            z M78.92,160.496c0.397,0.184,0.999,0.579,1.825,1.185c1.752,1.285,2.773,2.169,2.808,2.947c0.017,0.385-0.266,0.883-0.708,1.117
            c-1.058,0.562-2.07,0.103-4.358-2.239c-0.739-0.756-1.233-1.161-1.459-1.497c-0.263-0.393-0.068-0.762,0.366-0.603
            C79.25,162.245,77.643,159.917,78.92,160.496z M142.04,160.978c0.382,0.002,0.683,0.011,0.872,0.049
            c0.496,0.1,0.64,0.381,0.332,0.654c-0.476,0.425-0.341,0.854,0.14,1.084c0.33,0.157,0.196,0.489-0.202,0.718
            c-0.232,0.133-0.588,0.276-1.074,0.429c-2.812,0.879-4.885,0.616-5.427-0.693c-0.624-1.506,0.569-2.237,4.007-2.235
            C141.198,160.984,141.658,160.977,142.04,160.978z M101.092,161.874l-0.023,2.018l-2.919,1.401l0.318-2.047L101.092,161.874z
            M76.286,162.505c0.256,0.015,0.676,0.408,1.286,1.155c2.814,3.448,3.194,4.113,2.272,5.028c-1.093,1.084-2.625,0.035-4.276-2.986
            c-0.222-0.406-0.493-0.928-0.655-1.117c-0.605-0.709-0.338-0.931,0.429-0.871c0.421,0.032,0.62-0.116,0.631-0.55
            C75.985,162.707,76.087,162.493,76.286,162.505z M143.745,164.248c0.513,0,0.474,0.175,0.245,0.771
            c-0.176,0.527-0.464,0.698,0.279,1.03c0.123,0.061,0.397,0.398,0.149,0.544c-0.587,0.397-3.211,1.592-4.16,1.907
            c-1.846,0.612-2.981-0.891-1.897-2.384c0.454-0.625,3.574-1.758,5.129-1.858C143.587,164.251,143.672,164.248,143.745,164.248z
            M74.813,166.246c1.87,2.79,2.104,4.094,0.871,4.907c-0.779,0.594-2.441-0.259-2.821-2.061c-0.291-1.38-0.424-2.822,0.025-3.968
            C73.568,163.39,74.619,165.958,74.813,166.246z M101.077,165.091l0.015,2.182l-3.549,1.781l0.327-2.402L101.077,165.091z
            M108.311,165.178l3.338,2.162l0.192,1.858l-3.448-1.897L108.311,165.178z M145.541,167.325c0.088,0.001,0.136,0.041,0.135,0.145
            c-0.001,0.257-0.065,1.169,0.434,1.252c0.981,0.163,0.758,0.469-0.101,1.209c-0.932,0.824-1.782,1.802-2.904,2.403
            c-2.894,1.069-3.803-1.989-1.064-3.578c0.945-0.549,1.803-0.928,2.441-1.108C144.963,167.513,145.348,167.323,145.541,167.325z
            M108.403,168.448l3.867,2.278l0.135,2.292l-3.843-1.955L108.403,168.448z M100.943,168.659l0.015,1.994l-3.775,2.162l0.312-2.23
            L100.943,168.659z M116.57,170.287c1.069,0.498,14.792,4.311,19.336,3.01c0,0,3.889,5.605,6.766,7.613
            c-4.454,6.536-19.537,12.945-19.537,12.945L116.57,170.287z M147.458,170.427c0.25-0.009,0.31,0.239,0.308,0.708
            c-0.061,1.355-2.289,6.349-4.064,3.79c-0.487-0.953,0.009-1.939,1.565-3.116C146.501,170.876,147.137,170.438,147.458,170.427z
            M72.743,171.214c0.339,0.369,0.186,1.506-0.545,1.431c-0.211-0.022-0.239-1.176-0.101-1.802
            C72.308,170.74,72.625,171.092,72.743,171.214z M100.991,171.847l-0.024,2.533l-4.479,2.438L96.97,174L100.991,171.847z
            M108.398,172.203l4.436,2.365l0.52,2.798l-4.917-2.548L108.398,172.203z M100.982,175.647v2.553l-5.032,2.581l0.342-2.519
            L100.982,175.647z M108.485,175.868l4.96,2.822l0.65,2.658l-5.538-2.86L108.485,175.868z M38.175,175.95
            c0.812-0.011,1.104,0.854,0.491,1.406c-0.406,0.377-1.556,0.301-1.657,0C36.49,176.856,37.202,175.963,38.175,175.95z
            M39.692,178.652c0.12-0.008,0.233-0.001,0.332,0.024c0.586,0.149,0.951,0.996,0.593,1.479c-0.662,0.891-2.408,0.273-2.153-0.853
            C38.531,179.004,39.171,178.688,39.692,178.652z M100.895,179.504v2.283l-5.476,2.89l0.347-2.553L100.895,179.504z M108.639,179.823
            l5.648,3.034l0.434,2.557l-6.073-3.159L108.639,179.823z M37.009,179.89c0.272-0.016,0.49,0.061,0.607,0.265
            c0.104,0.183,0.229,0.648,0.621,0.876c0.731,0.426,0.808,0.514-0.583,1.123c-0.586,0.256-1.736,1.039-2.139,1.31
            c-1.229,0.827-1.729,0.55-1.82-0.429C33.582,181.801,35.827,179.955,37.009,179.89z M41.247,181.758
            c0.284-0.017,0.562,0.037,0.761,0.169c0.47,0.311,0.495,0.934,0.043,1.247c-1.034,0.661-2.652-0.245-1.791-1.035
            C40.502,181.916,40.881,181.78,41.247,181.758z M100.885,182.995l0.029,2.962l-6.106,3.222l0.404-3.005L100.885,182.995z
            M38.228,183.343c0.4-0.023,0.783,0.07,1.117,0.317c0.362,0.461,0.797,0.597,1.05,0.606c1.048,0.041,0.714,0.424-0.386,0.925
            c-1.515,0.691-2.579,1.569-3.669,2.581c-1.135,1.053-1.217,1.279-1.59,0.848C33.365,187.016,36.067,183.465,38.228,183.343z
            M108.73,183.376l6.4,3.501l0.549,2.957l-6.949-3.867V183.376z M42.432,185.461c0.259-0.006,0.502,0.057,0.693,0.212
            c0.455,0.371,0.192,1.089-0.438,1.411c-0.536,0.274-1.418,0.158-1.671-0.096C40.411,186.378,41.507,185.484,42.432,185.461z
            M39.34,186.949c0.39-0.037,0.743,0.46,1.06,0.997c0.11,0.134,0.548,0.074,0.862,0.077c1.197,0.01,1.364,0.516,0.202,1.16
            c-0.34,0.188-1.455,1.042-2.201,1.676c-2.01,1.919-3.099,1.469-2.841-0.496C36.667,188.486,38.299,187.05,39.34,186.949z
            M108.73,187.133l7.061,3.871l0.688,3.184l-7.749-4.176V187.133z M100.938,187.191l-0.028,2.933l-6.646,3.516l0.515-2.977
            L100.938,187.191z M108.836,190.923l7.907,4.786l0.289,3.116l-8.196-4.72V190.923z M100.933,191.443l0.015,2.875l-7.349,3.728
            l0.371-2.716L100.933,191.443z M41.276,193.345c0.188-0.005,0.364,0.024,0.511,0.092c0.86,0.396,0.635,1.081-0.66,1.786
            c-1.32,0.72-1.772,0.596-2.056-0.212C38.832,194.331,40.262,193.369,41.276,193.345z M123.842,193.735
            c13.749,3.147,27.21,9.953,40.278,21.835l-2.73,1.931c0,0-11.452-13.061-36.903-20.717L123.842,193.735z M108.918,195.103
            l3.813,2.249l0.01,0.573l-3.824-0.313L108.918,195.103z M43.939,195.127c0.289,0.015,0.544,0.184,1.907,0.833
            c5.474,3.951,7.665,6.334,9.024,10.667c0.814,2.596,0.799,2.489-1.878,1.078c-2.518-1.337-5.969-3.556-8.196-6.424
            c-0.369,6.749,0.419,15.141,0.419,15.141c3.419,1.685,2.312,6.071,2.303,6.045c8.799-2.401,6.871,9.21,0.314,6.706
            c1.563,8.711-8.411,8.002-7.39,0.535c-7.938-0.307-6.535-8.96,0.056-7.764c-0.686-2.669,0.26-4.478,2.689-5.624l-0.371-11.403
            c0,0-6.47,9.286-7.551,9.141c-0.635-0.086-1.59-1.152,0.02-9.295c0.838-4.239,5.333-9.402,7.85-9.568
            C43.58,195.164,43.766,195.117,43.939,195.127z M50.267,195.213l1.16,0.795l-1.093,1.95l-1.209-0.876L50.267,195.213z
            M100.895,195.772l-0.039,1.71l-3.563,0.212L100.895,195.772z M61.82,215.073c-0.534,0.014,0.902,0.351,1.811,1.165
            c8.387,1.299,13.517,11.557,9.637,18.984c-0.47,0.334,0.255,1.95,0.728,1.344c4.09-5.799,1.045-20.049-10.889-21.406
            C62.398,215.1,61.998,215.069,61.82,215.073z M64.989,218.97c-0.674,1.848-0.852,2.29,0.877,1.536
            c3.053,1.13,6.346,6.099,5.292,11.09c-0.339,0.583,0.253-0.38,0.655,1.262C73.32,229.204,71.816,221.324,64.989,218.97z
            M103.75,228.269c8.584-0.025,17.08,1.851,23.838,5.735c-2.297,1.277-9.626,3.058-9.626,3.058c-4.12-4.622-6.22-9.244-13.668-6.881
            c-7.8,2.014-14.824,8.765-18.778,13.244c-3.964-2.359-6.11-2.937-9.625-3.132c-0.203-0.005-0.505,0.889-0.255-0.554
            c1.005-1.549,1.698-3.304,2.369-5.075C85.372,230.476,94.613,228.295,103.75,228.269z M130.435,234.201
            c-1.71,5.531-3.917,10.979-7.662,15.776l-0.462-2.398c3.521-5.406,5.189-10.322,5.942-12.478L130.435,234.201z M127.112,235.637
            c0.22,0.352-3.413,9.01-5.206,10.585l-0.703-2.234c1.462-2.209,3.627-7.535,3.563-7.585L127.112,235.637z M104.949,235.647
            c-0.113,0.01-0.153,0.109-0.154,0.327c-0.003,0.795,0.826,1.42,2.336,1.763c2.04,0.462,4.898-0.243,4.902-1.209
            c0.002-0.558-0.396-0.599-1.565-0.058c-1.465,0.678-2.759,0.545-4.671-0.467C105.359,235.771,105.095,235.633,104.949,235.647z
            M123.119,237.029c-0.567,2.098-1.41,3.642-2.485,5.244l-0.347-1.103c0.744-1.202,1.235-2.575,1.864-3.91L123.119,237.029z
            M120.986,237.707c-0.274,0.729-0.578,1.574-1.208,2.226l-0.819-1.734L120.986,237.707z M108.072,239.315
            c-1.382,0.026-2.751,0.472-2.87,1.206c-0.057,0.352,0.474,0.216,3.045-0.098c1.357-0.165,2.004,0.639,3.248,0.555
            c0.633-0.075,0.041-0.66-0.156-0.83C110.647,239.56,109.291,239.291,108.072,239.315z M102.171,240.915
            c-0.139,0.027,0.017,0.381,0.534,1.28c0.28,0.487,0.351,1.48,0.404,2.095c-0.066,1.531-0.062,1.482,0.693,0.598
            c0.477-0.473,1.4-0.368,2.866,0.028c0.944,0.256,1.171,0.348,1.826-0.063c0.76-0.477,0.938-0.236,1.593-0.104
            c0.632,0.127,1.205-0.127,1.897-0.318c0.845-0.233,1.007-0.179,1.743,0c1.124,0.532,0.961,0.485,1.055-1.42
            c0.094-1.877-0.008-2.01-1.094-1.378c-1.051,0.612-1.775,0.89-3.39,0.328c-1.759-0.613-2.008-0.458-3.256-0.082
            c-1.508,0.454-2.193,0.608-3.395-0.125C102.859,241.27,102.328,240.883,102.171,240.915L102.171,240.915z M77.596,243.746
            l0.675,1.098c6.079,2.176,10.198,7.146,7.768,15.521l0.578,0.925C89.659,252.85,86.186,245.872,77.596,243.746z M79.479,247.32
            l0.829,1.7c4.575,2.21,4.301,8.296,4.045,8.057l0.718,1.585C86.215,254.723,84.129,248.907,79.479,247.32L79.479,247.32z
            M98.588,256.398c-0.18,0.001-0.299,0.062-0.347,0.188c-0.118,0.303,0.236,0.484,2.326,1.932c1.795,1.241,3.183,2.163,3.077,2.34
            c-0.071,0.119-1.188-0.153-1.984-0.39c-2.089-0.621-5.169,0.127-6.896,1.343c-0.438,0.295-1.168-0.026-1.801-0.192
            c-0.253-0.071-0.812-0.14-1.088-0.067c-1.307,0.342-0.042,1.59,3.154,3.207c3.922,1.986,6.045,2.167,8.427,0.964
            c1.582-0.818,2.149-0.212,0.419,0.722c-3.021,1.631-5.916,1.127-10.69-2.157c-2.212-1.521-3.096-1.267-1.194,0.184
            c3.336,2.608,9.759,5.789,13.701,1.901c0.153-0.056,0.512-0.029,0.684-0.028c0.819,0.003,0.854-0.255,0-1.608
            c-0.516-0.815-1.558-1.674-0.289-2.673c0.961-0.757,0.892-1.117-0.27-1.464c-0.307-0.085-0.276,0.116-0.737-0.256
            C102.289,258.092,99.56,256.393,98.588,256.398z M99.797,260.842c1.171,0.033,2.352,0.935,2.721,2.558
            c0.033,0.145,0.062,0.293,0.082,0.447l-0.998,0.038c-0.828-3.307-3.32-2.21-3.569-0.274l-0.898-0.119
            C97.465,261.648,98.625,260.81,99.797,260.842L99.797,260.842z M120.471,263.664l-0.665,0.099c-0.435-1.218-2.403-2.854-3.342,0.113
            l-0.838-0.033C116.209,259.823,119.859,260.448,120.471,263.664z M115.375,261.994c0.271,0.386-0.205,1.036-0.482,1.333
            c-0.266,0.284-0.854,0.044-1.102-0.236c-0.216-0.276-0.056-0.828,0.304-1.011C114.468,261.89,115.102,261.718,115.375,261.994z
            M103.693,262.114c0.278,0.624-0.502,1.09-0.6,0.879c-0.167-0.059-0.374-1.087-0.278-1.155
            C103.073,261.829,103.586,261.913,103.693,262.114z M121.256,262.013c0.421,0.033,0.879,0.232,0.963,0.707
            c0.004,0.314-0.359,0.656-0.775,0.675c-0.183,0.008-0.884-0.507-0.753-1.24C120.84,261.894,121.011,261.992,121.256,262.013z
            M96.84,262.21c0.147,0.226-0.129,0.9-0.192,0.992c-0.033,0.047-0.93,0.009-0.91-0.058c0.019-0.067-0.084-0.575,0.135-0.944
            C96.12,262.042,96.66,261.958,96.84,262.21L96.84,262.21z M113.127,264.387c0.115,0.003,0.264,0.05,0.438,0.159
            c2.508,1.632,5.733,2.359,8.057,1.193c0.52-0.26,0.858-0.246,0.857,0.005c-0.001,0.275-0.575,0.84-1.646,1.161
            c-2.394,0.718-6.345-0.23-7.71-1.695C112.72,264.78,112.779,264.378,113.127,264.387L113.127,264.387z M91.133,266.096
            c-0.239-0.006-0.316,0.135-0.27,0.424c0.158,0.974,6.866,4.822,9.67,5.341c2.303,0.427,4.092,0.235,5.5-0.582
            c3.42-1.987,2.543-4.674-0.805-2.649c-2.248,1.36-7.947,0.734-11.336-1.223C92.386,266.536,91.532,266.108,91.133,266.096z
            M121.351,267.504c0.848-0.356,1.212-0.48,1.397-0.324c0.862,0.721-0.551,1.846-3.126,2.284c-2.061,0.339-3.3,0.405-5.651-1.335
            c-1.821-1.347-0.963-1.999,0.082-1.389C116.835,268.367,118.903,268.418,121.351,267.504z M91.731,271.711
            c5.934,2.125,12.683,7.25,15.68,13.475l-1.83-0.015c-2.037-3.554-6.068-8.067-12.714-11.239
            C92.278,273.448,91.972,272.583,91.731,271.711z M122.893,274.625v1.945c-3.667,1.848-6.74,4.692-9.059,8.615l-2.075-0.028
            C114.137,280.948,117.699,277.007,122.893,274.625z M122.893,277.591v2.389c-2.318,1.359-4.253,3.151-5.61,5.206h-2.456
            C116.795,281.859,119.495,279.206,122.893,277.591z M95.728,279.426c1.767,1.016,4.691,3.724,5.755,5.808l-0.944,0.044
            c-0.962-1.225-2.499-2.633-3.751-3.742C95.987,280.595,95.728,279.426,95.728,279.426z M122.893,280.958c0.029,0,0.03,0.018,0,0.058
            v1.897c0,0.05-1.761,1.199-2.509,2.272h-1.993C119.759,282.709,122.608,280.952,122.893,280.958z M122.898,284.113l-0.005,1.073
            l-1.252,0.005C121.724,285.07,122.421,284.303,122.898,284.113L122.898,284.113z M98.463,284.382
            c0.375,0.197,0.663,0.901,0.663,0.901l-0.336,0.036L98.463,284.382z"/>
        <path fill="#E2CF00" d="M47.74,242.361c4.127,0.112,12.837-1.43,12.697-1.272c0,0,27.021,44.896,25.923,44.451c-0.352,0.557-34.616,0.537-34.616,0.537
            C51.001,286.084,59.013,269.441,47.74,242.361z M59.992,210.731c13.167-10.909,26.96-10.99,41.77-12.491l0.34-37.077l5.36,3.208
            l0.113,33.972c19.55,1.466,36.417,8.625,50.908,21.157c0.181,0.272-20.965,11.579-30.226,14.57
            c-7.19-5.277-26.16-8.604-38.739-4.547c-3.456,1.114-7.698,2.898-11.825,4.216c2.989-17.898-10.987-20.541-15.903-21.367
            C61.174,212.268,60.439,210.943,59.992,210.731L59.992,210.731z M43.092,216.518c0.23-3.813-0.019-7.631-0.304-11.53
            c-0.075-0.891-7.699,11.602-8.126,8.572c-1.066-7.586,2.701-17.23,8.618-18.413c0.59-0.798,12.313,6.458,11.778,12.729
            c-0.175,2.042-10.459-6.899-10.501-6.365c-0.241,1.045,0.303,15.039,0.621,15.011c2.961,1.666,2.316,3.807,2.64,5.58
            c7.936-1.17,7.502,7.631,0.013,7.356c0.463,10.398-9.194,5.7-7.292,0.161c-9.726-0.458-4.936-9.542-0.093-7.546
            C40.155,219.78,40.721,217.389,43.092,216.518L43.092,216.518z M54.25,172.4c-0.561-0.221-20.748-1.255-20.748-1.255l1.056-49.156
            c10.307-23.662,49.095-12.597,42.924-7.562C58.947,126.568,56.125,148.708,54.25,172.4L54.25,172.4z M91.484,152.207l-0.616-5.458
            c-1.584-3.392,41.273,16.398,41.757,16.821l1.247,5.824C134.119,171.953,106.612,159.027,91.484,152.207L91.484,152.207z
            M169.444,142.567c-0.631,22.059-4.032,36.995-16.85,55.021c-0.356,0.592-3.979,2.093-4.261,2.602
            c1.832,2.896,12.29,7.145,17.12,9.429l25.129-14.962c0.291,0.021-0.859-52.419-0.859-52.419L169.444,142.567z M178.954,118.613
            c-3.376-0.515-11.232-8.659-9.604-11.122c0.051-1.849,9.774,5.227,10.785,7.134c-0.498-0.566-0.568-17.284-0.726-16.619
            c-0.37,0.195-2.97-1.666-2.293-5.149c-7.455,1.646-7.046-8.036-0.53-7.641c-0.842-8.811,9.923-5.574,7.059,0.325
            c9.212-1.696,7.621,8.643,0.66,6.96c0.591,3.921-1.026,5.005-3.289,5.788c0.145,1.644,0.762,12.606,0.762,12.606
            s6.811-10.434,7.3-9.534C190.441,104.525,187.957,121.258,178.954,118.613z M147.392,80.136
            c-3.073,10.59,5.348,22.689,13.304,22.656c1.6-0.252,4.664,0.611,3.606,1.468c-12.551,10.165-41.839,12.276-41.847,11.835
            c0.308,12.479-0.252,25.083-0.551,37.559l-5.367-3.231c-0.172-11.38-0.453-23.021-0.714-34.398
            c-18.766-2.447-35.631-8.499-48.959-21.37c8.85-6.556,19.423-10.651,29.578-14.79C109.229,86.503,127.031,90.339,147.392,80.136z
            M138.131,29.82c-0.589-0.26,2.022-2.198,2.022-2.198s21.804,0.286,32.618,0.141c-3.94,16.169-1.153,30.656,3.936,44.567
            c-1.35-0.315-10.305,0.411-12.491,1.389C163.865,74.071,138.407,30.214,138.131,29.82L138.131,29.82z"/>
        <path d="M87.069,285.477L60.707,240.98l3.956-1.718l27.176,46.279L87.069,285.477z M40.162,225.987l3.809-3.918
            l3.818,3.868l-3.993,3.708L40.162,225.987z M124.738,201.032l-0.536-3.181c15.188,3.718,27.619,11.522,36.559,20.022l-2.129,1.557
            C159.295,219.25,137.055,202.575,124.738,201.032L124.738,201.032z M80.627,197.899l4.814-0.698l-0.137,2.675l-4.576,1.04
            L80.627,197.899z M169.527,195.785l-2.624-2.114l1.889-2.238l2.55,2.009L169.527,195.785z M80.323,174.225
            c6.521-3.085,11.609-15.533,10.971-16.363l3.553,0.842L86.64,192.81l-6.179,1.117C80.433,187.402,80.322,180.748,80.323,174.225
            L80.323,174.225z M123.231,193.523c-2.21-7.18-6.562-23.42-6.562-23.42c0.159,0.53,14.143,4.505,19.13,3.058
            c2.13,2.914,4.472,5.476,6.941,7.823C137.561,186.046,131.133,190.276,123.231,193.523L123.231,193.523z M181.842,167.386
            l-2.463-2.134l2.21-2.705l2.705,2.06L181.842,167.386z M149.662,165.959c-2.007-3.605-2.146-7.681,1.577-11.7L149.662,165.959z
            M73.149,158.972c-0.159-0.372,0.844-8.916,1.08-9.294c0.414-0.665,1.226,1.731,1.608,3.562
            C76.318,155.536,73.731,160.334,73.149,158.972z M129.419,156.319c0,0,5.416-25.087,7.761-34.918l6.606-1.666l-0.892,20.598
            c-5.429,4.854-9.944,16.418-9.944,16.418L129.419,156.319z M42.392,152.147l-2.614-2.441l2.212-2.42l2.307,2.359L42.392,152.147z
            M89.226,142.366l-7.183-8.4c4.449-6.188,11.835-9.77,19.661-12.58l5.3,23.574C101.014,143.156,94.555,141.2,89.226,142.366
            L89.226,142.366z M52.519,121.356l1.842-2.29l2.412,1.898l-1.833,2.533L52.519,121.356z M138.987,114.274l4.622-0.66l-0.349,3.171
            l-4.893,0.778L138.987,114.274z M63.703,96.449l2.846-1.771c9.99,8.967,21.022,15.152,33.056,18.671l0.809,3.873
            C86.846,113.04,74.026,106.702,63.703,96.449L63.703,96.449z M180.435,92.871l-3.7-3.647l3.331-3.703l3.956,3.418
            C182.716,90.908,180.435,92.871,180.435,92.871z M159.936,75.121l-27.693-47.234l4.001-0.033l27.251,45.498L159.936,75.121z"/>
        <path fill="#000000" d="M131.99,27.091l-6.617,0.024l37.558,75.529c0,0-1.018,0.171-3.01-0.352c-9.021-2.366-14.579-11.895-12.54-21.242
            c0.207-0.727,0.26-1.349,0.26-1.349c-23.253,10.524-37.65,6.648-51.075-0.053l-5.727,2.196c0.38-3.458,4.659-16.443,11.058-22.557
            l-0.01-6.55l-0.154-3.092l-0.506-5.61C91.707,53,80.6,67.108,79.209,87.143c0,0-8.668,4.452-16.065,9.377
            c0.411-0.055,11.524,13.59,38.223,21.252l-1.175-4.354c3.971,1.114,9.614,1.995,15.228,2.706l0.751,34.196l6.376,3.776l0.217-37.861
            c0.196,0.155,10.169-0.353,15.541-1.633l-0.757,3.65l5.308-1.045v2.663l-5.817,1.372l-8.283,35.391l4.825,1.074
            c1.412-7.129,4.979-12.895,10.146-16.432l-0.053-1.357c3.314-2.378,10.203-4.268,10.248-4.224
            c2.35-11.478,7.819-19.432,13.633-26.997l-2.769-3.761l10.618-3.896l-14.74-25.075c5.671-3.914,16.917-2.456,16.917-2.456
            c-4.82-13.012-9.057-26.434-4.295-46.13l-41.002,0.033L131.99,27.091z M145.442,27.906c-0.01,3.291-4.309,2.952-4.834-0.017
            L145.442,27.906z M171.782,27.804c-2.608,15.081-1.744,29.772,4.306,43.731c0,0-0.882,0.051-0.992,0.029
            c-0.084-0.017,0.103-0.753,0.058-0.949c-0.12-0.524-0.99-0.278-1.72,0.212c-0.317,0.214-0.684,0.458-0.914,0.573
            c-0.75,0.374-4.55,0.346-4.55,0.346c1.24-0.84,2.983-3.202,1.972-4.58c-0.229-0.294-0.368-0.164-0.591,0.232
            c-1.08,1.918-1.616,2.219-3.059,2.201c-2.263-0.028-3.882-1.431-3.698-3.545c0.177-2.055,3.201-3.14,2.755-1.146
            c-0.122,1.775,1.639,2.12,1.965,0.352c0.122-0.663,0.024-0.355,0.168-1.132c3.523-1.869,1.578-5.676-1.709-4.879
            c-0.773,0.204-0.87,0.276-1.416-0.005c-1.014-0.521-1.856-0.357-2.239,0.376c-0.338,0.646,0.176,1.162,0.93,1.165
            c0.78,0.003,0.931,0.38,0.929,0.848c-0.004,1.089-1.884,1.613-3.13,0.978c-3.289-1.678-2.07-6.039,1.748-6.024
            c1.161,0.005,1.646,0.077,1.695-0.173c0.139-0.705-1.634-1.923-2.635-1.743c-0.848,0.165-1.363,0.387-0.915-0.742
            c0.276-1.164,0.269-1.691,0.034-2.566c-0.61-1.25-0.596-0.609-0.973,0.404c-1.258,2.086-3.153,2.547-4.787,1.406
            c-1.515-1.059-1.47-3.069-0.028-4.503c1.001-0.996,2.074-0.318,1.474,0.795c-0.249,0.46-0.053,1.032,0.395,1.146
            c0.903,0.23,1.464-0.301,1.469-1.396c-0.019-0.603-0.186-0.737,0.9-1.357c2.813-1.606,0.709-5.995-2.466-4.585
            c-0.696,0.31-0.859,0.612-1.175,0.467c-1.327-1.253-3.23,0.332-2.104,1.171c0.486,0.236,1.081,0.327,1.237,0.342
            c0.274,0.156,0.183,0.546-0.217,1.035c-1.313,1.55-4.299,0.785-5.003-1.401c-0.816-2.531,1.772-5.193,3.756-3.718
            c0.587,0.437,1.096,0.482,1.099-0.164c0.003-1.006-1.264-2.16-2.88-2.046c-1.642,0.115-1.462,0.327-0.568-1.156
            c0.659-1.32,0.569-2.609-0.005-3.386c-0.443-0.598-0.898-0.724-0.853-0.091c0.359,1.962-1.934,3.828-3.819,3.005
            c-1.812-0.811-2.71-2.839-1.82-4.6c0.821-1.624,2.812-1.792,2.48-0.058c-0.156,1.106,0.686,1.688,1.498,1.035
            c0.295-0.237,0.364-0.446,0.385-1.16c0.023-0.795-0.3-1.027,0.212-1.493c1.344-0.178,1.427-3.031,1.224-3.149L171.782,27.804z
            M147.728,27.9c0.853,0,1.561,0.289,1.561,1.142s-0.689,1.541-1.541,1.541c-0.853,0-1.546-0.688-1.546-1.541
            S146.875,27.9,147.728,27.9z M132.606,28.011h3.43l27.09,45.146l-3.207,1.561L132.606,28.011z M138.239,29.588
            c1.642,0.938,3.157,1.709,5.216,1.91c-0.603,1.224-1.152,2.56-1.252,4.846L138.239,29.588z M143.756,38.68
            c1.672,0.599,3.123,1.506,5.877,0.59c-1.469,1.299-2.3,2.853-2.922,4.491L143.756,38.68z M157.851,44.134
            c0.789,0,1.43,0.641,1.43,1.43c0,0.79-0.641,1.426-1.43,1.426c-0.79,0-1.431-0.636-1.431-1.426
            C156.42,44.775,157.061,44.134,157.851,44.134z M149.074,47.698c1.208,0.444,2.474,0.739,3.879,0.675
            c-0.695,0.956-0.932,2.41-0.977,4.072L149.074,47.698z M153.222,54.814c1.118,0.546,2.441,1.34,4.79,1.085
            c-1.556,2.639-1.223,3.366-1.382,4.521L153.222,54.814z M166.798,60.055c0.827,0,1.498,0.671,1.498,1.497
            c0,0.827-0.671,1.498-1.498,1.498s-1.497-0.671-1.497-1.498C165.301,60.726,165.971,60.055,166.798,60.055z M158.384,63.418
            c1.024,0.578,3.046,0.908,3.068,0.752c-0.13-0.098-0.582,1.95-0.661,3.236L158.384,63.418z M163.099,71.109
            c1.455,0.857,3.065,0.776,4.013,0.877c-1.013,0.203-1.967,0.456-3.054,0.883L163.099,71.109z M180.265,79.551
            c-3.507,0.226-4.319,2.915-3.904,5.64c-2.673-0.428-5.666,2.106-4.829,5.206c0.793,2.938,3.526,3.042,5.412,2.846
            c-0.145,0.714-0.542,3.115,2.359,5.146l0.387,15.259c0,0-1.279-1.174-2.113-2.006c-3.646-3.63-9.128-6.26-8.784-4.214
            c0.051,0.301,0.167,1.064,0.255,1.695c0.58,3.455,5.221,7.188,8.385,9.068c1.13,0.63,1.829,1.305,1.829,1.305
            c-5.918,6.327-9.099,13.078-9.892,19.778c-0.735,6.226-1.331,11.833-1.916,17.549c-2.415,28.673-14.72,35.885-15.305,37.288
            l-0.231,3.823l-3.434-0.255l-3.958,3.424c12.966,6.7,20.529,14.785,20.424,14.938c10.353-6.779,19.289-14.31,27.724-22.104
            l-0.163-63.842c0,0-0.7,0.256-0.882,0.255c-0.641-0.002-0.722,0.286-0.943,1.508c-0.119,0.653-0.509,1.256-0.814,1.686
            c-0.579,0.815-0.373,0.403,0.356,0.698c1.661,0.672-0.495,3.717-2.855,4.088c-1.7,0.268-2.649,0.581-2.938,0.974
            c-3.578,3.13-7.143,3.625-9.839,2.475c-1.326-0.565-2.768-1.394-3.256-2.773c-1.106-3.134,1.2-7.649,2.553-10.258
            c2.481-4.782,6.603-8.374,6.603-8.374l-0.674-0.732c0,0,0.81,0.013,0.963-0.043c3.557-1.294,3.776-1.312,4.431-2.254
            c0.653-0.943,2.303-3.632,2.644-4.518c1.828-4.754,2.074-5.062,2.07-8.182c-0.003-2.527-0.171-4.215-0.659-4.349
            c-2.803,2.148-5.632,7.166-7.286,10.122c-0.572-4.381-0.742-12.028-0.742-12.028c0.593-0.655,3.958-0.289,3.212-5.775
            c2.963,1.336,6.083-0.708,5.953-3.56c-0.203-4.441-3.626-4.311-6.411-3.75C185.322,82.621,182.799,79.388,180.265,79.551z
            M180.211,79.924c3.659,0.113,4.386,4.158,2.143,6.447c0,0-1.453-1.118-2.224-1.755c-0.732,0.575-0.943,1.073-1.749,1.665
            c-0.953-0.705-1.528-1.951-1.537-3.151C176.889,81.254,178.781,79.88,180.211,79.924L180.211,79.924z M96.599,80.05
            c14.81,8.275,33.38,8.867,50.378,0.433l-0.207,1.401l-1.864,1.05l1.055,1.932l0.583-0.279l0.015,1.276
            c-14.012,7.568-37.483,9.135-55.858-3.434l1.6-0.742c0,0,0.36,0.252,0.707,0.468c0.67,0.414,1.775,1.079,2.505,1.405l1.112-1.604
            c0,0-1.698-1.035-1.531-1.103L96.599,80.05z M97.905,82.587l-0.848,1.927l2.123,1.132l0.81-1.941L97.905,82.587z M89.848,82.804
            c22.806,14.315,44.033,10.054,56.782,4.199l0.163,1.527c-16.454,7-38.09,8.878-58.685-4.966L89.848,82.804z M143.529,83.724
            l-2.027,0.81l0.804,1.858l2.086-0.891L143.529,83.724z M87.121,84.071c18.533,11.95,38.409,14.289,59.831,5.533l0.818,2.288
            c-20.862,8.378-42.88,7.412-62.994-6.829L87.121,84.071z M101.362,84.138l-0.828,2.004l2.297,0.871l0.67-1.965L101.362,84.138z
            M140.336,84.966l-2.009,0.65l0.626,1.917l2.081-0.708L140.336,84.966z M104.872,85.516l-0.496,2.013l2.346,0.66l0.409-2.023
            L104.872,85.516z M189.747,88.829c0.315,3.424-4.761,5.075-6.66,1.881l1.674-2.033l-1.497-1.396
            C185.295,84.069,189.45,85.615,189.747,88.829z M84.266,85.626l5.528,3.8l-4.017,6.241l-5.952-3.997L84.266,85.626z M180.085,85.8
            l3.511,3.043l-3.223,3.771l-3.293-3.322L180.085,85.8z M177.903,86.832l-1.975,2.294l2.137,2.272
            c-2.533,2.692-6.314,1.03-6.276-2.267C171.817,86.616,175.668,84.167,177.903,86.832z M136.974,85.948l-2.108,0.631l0.481,1.85
            l2.182-0.568L136.974,85.948z M108.523,86.531l-0.39,1.989l2.422,0.52l0.409-1.979L108.523,86.531z M133.492,86.868l-2.244,0.486
            l0.386,1.979l2.249-0.472L133.492,86.868z M180.321,87.336l-1.849,1.815l1.849,1.916l1.864-1.916L180.321,87.336z M112.409,87.394
            l-0.284,2.003l2.538,0.342l0.197-2.027L112.409,87.394z M129.5,87.668l-2.282,0.26l0.23,1.965l2.37-0.299L129.5,87.668z
            M116.026,87.9l-0.028,2.056l2.225,0.179l0.005-2.037L116.026,87.9z M125.84,88.092l-2.234,0.082l0.015,1.988l2.282-0.145
            L125.84,88.092L125.84,88.092z M85.071,88.112c-1.315,0-2.38,1.063-2.379,2.379c0,1.314,1.063,2.379,2.379,2.379
            c1.314,0,2.379-1.064,2.379-2.379C87.449,89.175,86.385,88.112,85.071,88.112z M122.094,88.179l-2.196,0.019l0.01,2.014l2.263,0.009
            L122.094,88.179L122.094,88.179z M180.321,88.189l0.964,0.963l-0.964,0.948l-0.987-0.948L180.321,88.189z M85.066,88.949
            c0.862,0,1.56,0.697,1.56,1.56c0,0.863-0.697,1.565-1.56,1.565c-0.863,0-1.565-0.702-1.565-1.565
            C83.5,89.647,84.202,88.949,85.066,88.949z M76.604,89.065l3.164,2.576c-1.007,1.927-4.194,5.996-4.194,5.996l-5.847-4.686
            l3.059-1.729c-0.167,0.321-0.26,0.683-0.26,1.069c-0.001,1.292,1.048,2.336,2.34,2.336s2.341-1.044,2.341-2.336
            c0-1.239-0.968-2.25-2.187-2.331L76.604,89.065z M74.837,90.721c0.866,0,1.569,0.704,1.569,1.57s-0.703,1.565-1.569,1.565
            c-0.867,0-1.57-0.699-1.57-1.565S73.97,90.721,74.837,90.721z M182.373,91.462c0,0,0.862,0.327,1.073,0.651
            c1.697,2.604-0.071,5.701-2.915,5.641c-3.323-0.07-4.197-4.235-1.912-5.935l1.857,1.754L182.373,91.462z M95.992,92.523l6.549,2.514
            l-2.484,7.117l-7.161-2.938L95.992,92.523z M69.073,93.264c26.72,24.074,64.679,25.806,92.27,9.824l1.681-0.034l0.891,0.915
            c-31.432,18.588-70.505,14.544-96.883-9.381L69.073,93.264z M142.648,94.699l2.108,7.035l-7.242,1.907l-1.618-7.127L142.648,94.699z
            M66.332,94.954c8.109,7.814,19.575,14.662,33.041,18.546l0.332,2.884c-14.294-4.292-25.091-10.024-35.607-19.976L66.332,94.954z
            M97.726,95.065c-1.292,0-2.341,1.049-2.341,2.341s1.049,2.336,2.341,2.336s2.341-1.044,2.341-2.336S99.018,95.065,97.726,95.065z
            M86.076,95.59l6.757,3.573l-3.366,6.737l-7.176-3.848L86.076,95.59z M97.698,95.835c0.866,0,1.569,0.704,1.569,1.57
            s-0.703,1.565-1.569,1.565c-0.867,0-1.57-0.699-1.57-1.565S96.83,95.835,97.698,95.835z M108.884,96.794l6.491,0.943l-0.298,7.195
            l-7.575-0.91C107.792,101.49,108.884,96.794,108.884,96.794z M140.24,96.972c-1.292,0-2.341,1.049-2.341,2.341
            s1.049,2.336,2.341,2.336s2.341-1.044,2.341-2.336S141.531,96.972,140.24,96.972z M140.21,97.742c0.866,0,1.57,0.704,1.57,1.57
            s-0.704,1.565-1.57,1.565s-1.569-0.699-1.569-1.565S139.344,97.742,140.21,97.742z M87.43,97.844c-1.292,0-2.34,1.049-2.341,2.34
            c0,1.292,1.049,2.336,2.341,2.336s2.34-1.044,2.341-2.336C89.771,98.893,88.722,97.844,87.43,97.844z M128.932,97.854l0.93,7.229
            l-7.089,0.352l-0.419-7.21L128.932,97.854z M179.739,98.499h1.006c0.093,6.221,0.585,13.422,1.306,18.747
            c0.108,0.793,0.157,1.027,0.077,1.17c-0.696,1.233-1.506-0.318-1.82-3.857c-0.088-0.975-0.198-2.395-0.318-3.327
            C179.624,108.41,179.739,98.499,179.739,98.499z M59.927,98.61c-10.659,6.649-28.389,22.533-28.282,22.903l0.072,61.035l1.387,0.067
            l1.146-2.244c-1.773-0.444-1.277-3.776,2.118-4.445c0.58-0.114,2.35-0.709,2.784-1.04c2.577-1.965,6.765-3.125,9.703-2.35
            c4.284,1.096,5.163,4.245,3.102,9.723c-1.626,4.317-4.846,9.839-7.869,11.413c-0.246,0.129-0.78,0.391-0.78,0.391
            s0.703,0.639,0.959,0.804c8.329-4.812,12.534-22.077,12.309-32.819c0.336-11.002,2.233-22.044,6.675-30.074
            c7.34-13.271,17.049-18.607,16.999-18.656C80.249,113.317,67.161,105.371,59.927,98.61z M87.401,98.615
            c0.867,0,1.57,0.703,1.57,1.569s-0.703,1.565-1.57,1.565c-0.866,0-1.569-0.699-1.569-1.565S86.534,98.615,87.401,98.615z
            M152.149,98.865l2.528,6.718l-7.026,2.875l-2.533-7.06L152.149,98.865z M111.735,98.899c-1.291,0-2.34,1.049-2.34,2.34
            c0,1.292,1.049,2.336,2.34,2.336c1.293,0,2.341-1.044,2.341-2.336C114.075,99.948,113.028,98.899,111.735,98.899z M126.019,99.481
            c-1.292,0-2.34,1.049-2.341,2.341c0,1.292,1.049,2.336,2.341,2.336s2.34-1.044,2.34-2.336S127.311,99.481,126.019,99.481z
            M111.706,99.669c0.866,0,1.57,0.703,1.569,1.569c0,0.866-0.703,1.565-1.569,1.565s-1.57-0.699-1.57-1.565
            S110.84,99.669,111.706,99.669z M125.99,100.251c0.867,0,1.57,0.704,1.57,1.57s-0.703,1.565-1.57,1.565
            c-0.866,0-1.57-0.699-1.57-1.565S125.123,100.251,125.99,100.251z M149.885,101.051c-1.292,0-2.34,1.049-2.34,2.341
            c0,1.291,1.048,2.335,2.34,2.335c1.293,0,2.341-1.044,2.341-2.335C152.226,102.1,151.178,101.051,149.885,101.051z M149.857,101.822
            c0.866,0,1.57,0.704,1.569,1.57c0,0.866-0.703,1.564-1.569,1.564s-1.57-0.698-1.57-1.564S148.99,101.822,149.857,101.822z
            M100.23,101.942l7.021,1.797l-1.632,7.363l-7.922-2.104L100.23,101.942z M189.053,101.752c1.148,3.597-0.959,8.21-1.065,8.512
            c-1.276,3.618-2.812,6.575-3.371,6.746c-0.476,0.181-0.686,0.065-0.684-0.38c0.003-0.684,1.569-5.316,2.803-8.298
            c0.302-0.729,1.001-2.937,1.003-3.308c0.001-0.558-0.54,0.352-1.123,1.743c-1.13,2.782-2.778,5.763-3.136,8.461
            c-0.256,2.205-0.675,1.894-0.982-0.732c-0.426-3.645,0.371-5.519,4.47-10.595C187.947,102.688,188.953,101.441,189.053,101.752z
            M137.47,103.622l2.032,7.21l-8.287,1.415l-1.291-7.31L137.47,103.622z M102.768,104.35c-1.292,0-2.34,1.049-2.34,2.341
            c0,1.291,1.048,2.335,2.34,2.335s2.341-1.044,2.341-2.335C105.109,105.399,104.06,104.35,102.768,104.35z M115.158,104.817
            l7.508,0.429l0.068,7.493l-8.148-0.352L115.158,104.817z M102.74,105.12c0.866,0,1.569,0.704,1.569,1.57s-0.703,1.564-1.569,1.564
            s-1.57-0.698-1.57-1.564S101.873,105.12,102.74,105.12z M134.248,105.785c-1.292,0-2.34,1.048-2.34,2.34s1.048,2.336,2.34,2.336
            s2.341-1.044,2.341-2.336S135.54,105.785,134.248,105.785z M118.684,106.387c-1.292,0-2.34,1.049-2.34,2.341
            c0,1.291,1.048,2.335,2.34,2.335s2.341-1.044,2.341-2.335C121.025,107.436,119.976,106.387,118.684,106.387z M134.22,106.556
            c0.866,0,1.569,0.703,1.569,1.569s-0.703,1.565-1.569,1.565s-1.57-0.699-1.57-1.565S133.354,106.556,134.22,106.556z
            M118.656,107.157c0.866,0,1.569,0.703,1.569,1.57c0,0.866-0.703,1.564-1.569,1.564s-1.57-0.698-1.57-1.564
            C117.085,107.861,117.789,107.157,118.656,107.157z M169.852,107.606c0.123-0.003,0.286,0.021,0.395,0.019
            c1.676-0.019,7.331,4.042,8.779,6.502c1.201,2.171,0.579,3.033-0.805,1.093c-1.909-2.126-5.436-5.281-5.885-5.283
            c-0.481-0.001,0.182,0.687,2.428,2.875c2.227,2.171,4.576,5.001,4.574,5.505c0,0.332-0.442,0.291-1.078-0.102
            c-1.39-0.855-2.596-1.721-3.213-2.302c-0.371-0.35-1.081-0.994-1.584-1.435c-2.076-1.82-4.443-6.019-3.775-6.824
            C169.717,107.617,169.778,107.607,169.852,107.606z M65.099,108.202c1.447-0.042,3.079,0.878,3.146,2.562
            c0.047,1.189,0.127,1.28,1.203,1.3c1.026,0.019,3.992,0.371,3.992,0.371l0.02,3.332c0,0-1.432-0.009-3.082-0.087
            c-2.81-0.133-2.797-0.137-3.154,1.099c-0.145,0.499-0.345,0.744-0.905,1.112c-2.523,1.657-4.956-1.35-3.391-4.189
            c0.538-0.976,0.569-1.309,0.198-1.893C62.37,110.115,63.374,108.287,65.099,108.202z M65.716,109.907
            c-0.312,0-0.651,0.134-0.964,0.442c-0.416,0.413-0.419,1.589-0.005,2.273c0.396,0.654,0.386,0.83-0.076,1.262
            c-0.815,0.76-0.839,2.268-0.044,2.834c0.725,0.518,1.494-0.166,1.498-1.211c0.005-1.146,0.806-1.125,0.806-1.125l5.279,0.092
            l0.018-0.86l-3.83-0.191c-0.533-0.002-1.09-0.053-1.501-0.331c-0.437-0.302-0.933-0.824-0.459-1.461
            C67.102,110.74,66.511,109.902,65.716,109.907z M54.274,111.877l2.504,4.257l2.918,0.105l0.256,2.592l3.547,2.284l-3.634,2.126
            l-0.18,2.606l-2.753,0.347l-2.558,3.202l-2.451-3.198l-2.701,0.015l-0.039-2.673l-3.717-2.394l4.068-2.287l-0.043-3.053l2.885-0.193
            L54.274,111.877z M142.729,113.813l0.121,2.571l-4.099,0.728l0.534-2.62L142.729,113.813z M116.464,116.404l5.523,0.169
            l-0.317,36.094c0,0-1.089-0.008-1.296-0.01l-0.024-1.406l-1.767,0.058l-1.797-1.088L116.464,116.404z M54.274,117.319l-3.241,4.104
            l3.925,3.429l3.458-4.012L54.274,117.319z M118.12,117.867v1.662h2.316v-1.662H118.12z M54.346,119.288l2.282,1.671l-1.738,2.297
            l-2.201-1.906L54.346,119.288z M142.845,120.233l-0.072,19.754c-7.59,5.956-9.955,16.441-9.954,16.44l-3.087-0.183l7.845-34.799
            L142.845,120.233z M101.703,120.67c-6.829,3.25-13.712,5.71-20.485,13.46c2.622,2.361,5.395,4.768,7.858,8.789
            c5.64-0.84,11.914,0.169,18.758,2.86L101.703,120.67z M118.12,121.114v1.719h2.316v-1.719H118.12z M41.353,123.594
            c0.169,0.525,0.222,1.088,0.222,1.088c5.008-0.42,3.73,5.392,0.539,5.591c-0.374,0.049,0.31,1.031,1.055,1.344
            c1.897,0.797,3.26,0.285,4.503-1.372c0.953-1.271,1.011-1.454,1.011-1.454l3.092,1.637c0,0,0.089-0.045-0.457,1.373
            c-0.994,2.579,0.456,5.744,1.574,3.438c0.597-1.229,2.35-1.93,3.564-1.421c1.419,0.594,1.91,3.128,0.915,4.724
            c-0.302,0.483-0.311,0.584-0.126,1.031c0.278,0.673,0.451,2.403,0.159,2.962c-0.378,0.724-0.814,0.889-1.666,0.298
            c-1.167-0.809-1.819-1.145-3.848-1.709c-3.563-0.671-4.261-1.925-5.678-4.854c-4.221,1.264-10.536-1.383-9.694-7.647
            c0.383-1.383,0.488-4.037-0.217-4.58c-1.381-1.063,0.135-2.6,2.211-2.846C40.218,121.026,41.038,122.642,41.353,123.594z
            M101.059,121.779l5.489,22.99c-6.025-2.207-11.939-3.93-17.173-2.649c-2.396-3.824-4.439-5.706-7.099-8.191
            C87.457,127.684,94.042,124.19,101.059,121.779z M38.946,122.905c-0.355-0.003-0.757,0.15-1.176,0.521c0,0,0.371,0.311,0.573,0.732
            c0.323,0.673,0.326,0.673-0.038,2.167c-1.674,5.988,2.297,9.951,7.945,8.22c1.388-0.429,1.334-0.382,1.734,1.248
            c0.658,2.681,2.554,4.066,6.322,4.574c0.232,0.031,0.618,0.107,0.925,0.294c1.658,1.058,0.978-0.349,0.525-0.896
            c-0.324-0.428-0.915-0.853-0.915-0.853s0.505-0.327,0.741-0.452c1.063-0.564,1.46-2.772,0.583-3.246
            c-0.801-0.433-2.164,0.221-2.167,1.04c-0.007,1.498-1.896,1.657-3.551,0.412c-2.123-1.599-0.242-5.626-0.229-5.62l-1.197-0.526
            c0.159,0.141-2.521,3.948-5.817,2.62c-2.303-0.927-3.926-3.594-2.857-4.354c0.777-0.209,1.711,0.219,2.302-0.236
            c1.177-0.924,0.228-2.544-1.455-2.485c-0.353,0.013-1.155,0.169-1.155,0.169c0.088-0.755,0.282-1.285,0.188-2.013
            C40.127,123.491,39.623,122.912,38.946,122.905L38.946,122.905z M118.145,124.654v1.415l2.292,0.015v-1.416L118.145,124.654z
            M118.12,127.572v1.459h2.316v-1.459H118.12z M118.12,130.716v1.493h2.316v-1.493H118.12z M118.12,133.649v1.58h2.316v-1.58H118.12z
            M118.12,136.591v1.474h2.316v-1.474H118.12z M118.12,139.591v1.488h2.316v-1.488H118.12z M42.812,141.046l1.951,3.294l2.315,0.101
            l0.092,2.264l3.939,3.01l-3.443,2.461l-0.25,2.441l-2.73,0.087l-2.211,3.728l-2.721-3.271l-2.187-0.352l-0.25-2.976l-3.366-2.519
            l3.164-2.528l0.255-2.644l2.576,0.226L42.812,141.046z M170.992,142.62c0.211,0.005,0.44,0.062,0.689,0.188
            c0.818,0.412,1.076,0.461,3.202,0.567c2.466,0.125,3.338,0.345,4.561,1.161c0.737,0.492,0.78,0.489,1.569-0.034
            c3.463-2.294,7.418-0.208,7.705,4.064c0.076,1.124,0.188,1.576,0.631,2.52c0.303,0.652,0.615,1.168,0.434,1.584
            c-0.555,1.272-3.223,1.354-4.676-0.534c-0.26-0.285-0.524-0.408-0.886-0.41c-0.722,0.269-2.568-1.185-2.548-1.247
            c-0.172,1.012-0.258,1.815-0.438,3.284l-3.231-0.048c0,0-0.072-0.592-0.222-2.658c-0.172-2.375-0.762-3.07-1.521-1.787
            c-1.307,2.21-4.778,1.238-4.979-1.392c-0.068-0.892-0.118-1.007-0.606-1.382C169.04,145.24,169.516,142.591,170.992,142.62z
            M118.12,142.75v1.32h2.316v-1.32H118.12z M171.364,144.161c-0.642,0.046-0.276,1.185,0.785,1.787
            c0.602,0.342,0.604,0.339,0.524,1.387c-0.143,1.897,1.687,2.828,2.5,1.271c0.141-0.27,0.201-0.612,0.145-0.843
            c-0.341-1.38,2.644-1.003,3.361,0.424c0.165,0.328,0.349,1.2,0.438,2.08c0.085,0.835,0.106,1.802,0.106,1.802h0.953
            c0,0-0.011-0.576,0.044-1.127c0.236-2.358,1.279-3.849,2.687-3.844c0.602,0.003,0.623,0.109,0.203,0.887
            c-0.712,1.314-0.026,2.267,1.632,2.277c1.052,0.008,1.049,0.009,1.44,0.756c0.43,0.821,0.755,1.082,1.155,0.93
            c0.283-0.107,0.288,0.052-0.082-2.75c-0.551-4.173-2.979-5.298-6.332-2.933c-0.949,0.67-1.157,0.649-1.999-0.163
            c-1.262-1.219-2.061-1.498-4.526-1.59c-1.176-0.044-2.334-0.158-2.572-0.255C171.636,144.181,171.483,144.154,171.364,144.161z
            M91.783,145.356c-0.549,0.01-1.185,0.125-1.737,0.172c0.613,3.226,0.898,6.451,1.179,9.677c2.824-0.49,6.482-0.033,11.308,2.215
            c2.961,1.38,6.577,3.739,10.368,6.4c4.104,2.881,8.913,4.583,13.011,5.472c4.989,1.083,8.996,0.99,8.887,0.755
            c-0.221,0.037-1.799-7.912-1.592-9.611c-6.901-0.634-13.565-3.189-18.659-6.651C107.805,149.2,100.01,145.216,91.783,145.356
            L91.783,145.356z M118.12,145.625v1.339h2.316v-1.339H118.12z M42.109,145.891l-3.664,3.818l3.987,3.775l3.386-3.848L42.109,145.891
            z M42.008,147.624l2.075,1.989l-1.676,2.123l-2.335-2.013L42.008,147.624z M93.681,147.937c0.488,0.005,0.966,0.348,2.581,1.253
            c1.354,0.935,2.437,1.518,2.042,0.053c0.309-0.422,1.81,0.95,3.578,1.815c2.132,1.708,2.141,1.297,2.417,0.448
            c0.286-0.621,0.681-0.201,2.384,1.377c2.238,2.073,2.038,2.076,2.485,1.561c0.51-0.969,0.68-0.959,2.504,1.136
            c1.896,2.115,2.297,2.567,2.702,1.662c0.624-0.469,0.946-0.014,3.521,2.402c1.266,1.263,1.562,1.066,1.801,0.217
            c0.244-0.875,0.314-0.678,2.451,1.017c2.475,1.98,2.719,2.126,2.822,1.439c0.163-1.089,0.93-0.702,3.477,1.127
            c1.544,1.104,2.127,1.41,2.456,1.137c0.336-0.594-0.837-1.736,1.651-0.659l0.685,3.611l-0.862-0.246
            c-0.529-0.15-1.689-0.543-1.252,0.583c0.252,0.65-0.374,0.573-2.307-0.578c-2.77-1.648-3.28-2.027-3.486-1.689
            c-0.366,1.234-0.319,1.313-2.187-0.149c-2.173-1.648-2.61-2.104-2.914-1.541c-0.039,1.244-0.646,0.991-2.673-0.757
            c-1.713-1.498-2.078-2.28-2.845-1.135c-0.211,0.398-0.423,0.298-0.706,0.091c-0.996-0.736-3-2.851-3.566-3.458
            c-0.445-0.485-0.699-0.329-1.064,0.072c-0.342,0.374-0.368,0.258-1.474-0.757c-2.642-2.422-3.132-3.027-3.501-2.696
            c-0.301,0.568-0.014,1.34-2.042-0.26c-2.544-1.833-3.649-2.646-3.477-1.445c-0.437,0.538-0.131,0.644-2.678-0.766
            c-2.421-1.339-2.728-1.741-3.077-1.281c-0.238,0.728-1.05,0.467-1.05,0.424l-0.491-3.674l0.871,0.01
            C92.457,148.28,93.296,147.938,93.681,147.937z M74.259,148.245c-0.194,0.568-1.529,3.846-1.546,12.188
            c0.16,0.197,3.309-3.013,3.462-6.005C76.321,151.594,74.265,148.238,74.259,148.245z M118.115,148.477v1.521h2.316v-1.521H118.115z
            M74.424,149.683c2.944,4.668-0.301,9.069-1.108,9.38C73.316,155.555,73.831,152.257,74.424,149.683z M151.696,153.604
            c-4.84,3.051-4.054,11.305-1.679,13.42C150.192,167.024,151.716,158.107,151.696,153.604z M151.033,154.619l-1.303,10.624
            C148.038,163.369,147.739,157.781,151.033,154.619z M181.559,156.413l2.557,3.217l2.273,0.168l0.506,2.321l3.317,2.702l-3.322,2.254
            l-0.294,2.571l-2.471,0.25l-2.446,3.848l-2.394-3.771l-2.292-0.245l-0.072-2.476l-3.603-2.658l3.438-2.066l0.067-2.798l2.692,0.01
            L181.559,156.413z M90.998,157.419c-1.625,7.726-5.505,13.012-10.979,16.566l0.028,0.78l-9.222,3.698
            c-2.021,9.425-5.653,18.618-13.268,27.243l2.124,4.314l-10.301,3.54l14.745,25.287c1.016,0-7.145,3.862-16.994,2.855
            c6.233,15.263,7.519,31.064,4.069,44.902l48.268-0.202L62.58,214.019l-0.602-1.18c-0.513-0.945,19.61,2.829,15.338,21.492
            c-0.06,0.433,0.09,0.487,0.332,0.309c3.912-3.36,29.892-12.678,50.638-0.376l6.164-2.552c-2.933,10.27-6.268,17.334-11.89,23.524
            l0.953,14.616c9.948-8.146,20.742-23.102,22.191-42.976c4.479-2.184,8.376-4.662,12.55-6.997l0.554,0.178l2.701-1.623
            c-8.664-9.479-26.355-18.538-37.692-20.92l0.669,3.213c-6.255-1.68-10.934-2.045-15.8-2.567l-0.747-34.009l-6.299-3.713
            l-0.197,37.515c-4.71,0.059-15.54,1.917-15.54,1.917l0.486-3.207l-4.96,1.021l-0.087-3.125l5.605-1.608l8.129-34.462L90.998,157.419
            z M91.677,158.185l2.591,0.525l-8.047,33.787c0,0-4.514,1.247-4.791,1.074c-0.359-6.336-0.496-19.249-0.496-19.249
            C88.875,167.702,90.119,163.015,91.677,158.185z M36.446,160.665c1.213-0.016,2.518,0.867,2.601,1.661
            c0.208,0.49,0.381,0.701,0.708,0.747c2.03,0.28,2.095,0.817,2.152,1.988c-0.286,2.244,1.217,0.36,1.643-1.868
            c0.044-0.232,0.02-1.937,0.02-1.937l2.484-0.023c0,0,0.084,1.778,0.12,2.061c0.22,1.724,0.954,3.122,1.464,2.206
            c1.748-3.14,5.753-1.539,5.119,1.488c-0.155,0.716-0.146,0.761,0.343,1.305c0.795,0.888,1.091,1.826,0.828,2.644
            c-0.256,0.799-0.815,0.921-2.019,0.438c-0.564-0.227-1.25-0.307-3.082-0.361c-2.591-0.076-2.752-0.125-3.761-1.103l-0.636-0.616
            l-1.098,0.646c-1.828,1.074-3.49,1.115-5.423,0.125c-1.258-0.645-1.99-2.189-2.186-4.6c-0.038-1.279-0.397-2.207-1.189-2.514
            c-0.429-0.402,0.048-1.204,0.779-1.936C35.65,160.776,36.041,160.67,36.446,160.665z M181.347,161.031l-3.415,4.257l4.06,3.631
            l3.781-4.444L181.347,161.031z M102.258,161.643l4.729,2.706l0.606,33.527l-5.345-0.149L102.258,161.643L102.258,161.643z
            M36.575,162.11c-0.359,0.035-0.133,0.612,0.131,1.493c0.236,0.788,0.296,1.278,0.221,1.825c-0.502,3.674,3.711,5.542,6.752,2.995
            c0.809-0.926,0.941-0.866,1.618,0.126c0.834,1.045,2.048,1.385,4.594,1.232c1.162-0.069,1.933,0.551,2.438,0.14
            c0.364-0.265,0.011-0.965-0.694-1.372c-0.431-0.25-0.446-0.289-0.36-1.151c0.216-2.175-1.578-2.75-2.852-0.915
            c-1.052,1.517-2.638,0.515-3.149-1.989c-0.304-1.926-0.546-1.896-0.775-0.217c-0.248,2.042-2.938,4.256-4.011,3.251
            c-0.294-0.296-0.291-0.222,0.009-1.247c0.389-1.315,0.078-1.807-1.357-2.148c-0.235-0.056-0.506-0.252-0.598-0.433
            C37.781,162.523,37.814,162.11,36.575,162.11L36.575,162.11z M181.689,162.89l2.167,1.869l-1.888,2.229l-2.307-1.772L181.689,162.89
            z M103.74,164.084v1.546v0.039h2.023v-1.585H103.74z M103.74,167.278v1.521v0.145h2.023v-1.666H103.74z M115.925,169.194
            c2.267,8.418,4.552,16.829,6.828,25.244c2.157-0.861,14.612-6.39,20.486-13.465c-0.224,0.019-5.34-4.984-7.132-8.229
            C130.233,173.711,123.485,172.48,115.925,169.194z M103.74,170.196v1.508v0.048h2.023v-1.556H103.74z M117.2,170.619
            c5.354,1.597,12.212,3.799,18.526,2.678c1.629,2.926,3.985,5.334,6.646,7.556c-4.778,5.198-11.689,9.164-18.839,12.218
            L117.2,170.619z M168.017,171.226c0.269,0.002,0.542,0.104,0.804,0.338c0.848,0.753,1.5,1.013,3.231,1.295
            c2.789,0.454,4.915,2.195,5.519,4.518c0.254,0.975,0.394,1.028,1.782,0.679c5.262-1.324,9.318,3.038,8.066,8.861
            c-0.438,2.032-0.571,2.276,0.038,3.082c1.338,1.441,1.629,1.46,0.164,2.73c-1.333,1.197-3.979,0.618-4.541-1.324
            c-0.537-1.065-0.529-1.146-1.411-1.286c-3.434-0.548-3.292-5.297-0.058-5.847c0.271-0.046,0.47,0.009,0.606-0.053
            c0.919-0.415-1-2.587-2.586-2.254c-1.945,0.409-2.913,1.656-3.679,3.612l-3.063-1.748c0.769-1.589,1.333-3.637,0.665-4.902
            c-0.54-1.068-1.222-1.109-1.431-0.087c-0.49,2.404-3.479,3.123-5.441,1.165c-1.097-1.094-1.225-2.268-0.419-3.853
            c0.521-1.025,0.534-1.099,0.312-1.531C165.806,173.115,166.85,171.219,168.017,171.226z M103.74,173.181v1.623l2.027-0.01
            l-0.004-1.613H103.74z M168.392,173.317c-0.622,0.004-0.618,0.611-0.043,1.348c0.511,0.52,0.611,0.757-0.097,1.204
            c-0.886,0.821-1.079,2.059-0.467,3c0.919,1.415,3.041,0.627,2.798-1.04c-0.171-1.169,0.748-1.692,2.211-1.252
            c2.125,0.64,3.138,3.015,2.302,5.408c-0.158,0.451-0.472,1.503-0.472,1.503l0.629,0.381c0,0,0.744-1.189,1.035-1.55
            c2.414-2.968,8.121-1.465,7.485,2.247c-0.098,1.166-0.093,1.324-1.363,0.958c-0.843-0.435-1.657,0.468-1.632,1.595
            c0.041,1.015,0.923,1.829,2.143,1.666c0.968-0.182,1.211-0.148,1.142,1.155c0.099,0.907,0.438,1.508,1.03,1.816
            c1.441,0.595,2.183-0.226,1.03-1.431c-0.697-0.73-0.655-1.859-0.216-2.918c0.524-1.267,0.25-4.05-0.555-5.62
            c-1.159-2.263-4.402-3.211-7.117-2.081c-1.241,0.664-1.377,0.817-1.498-0.347c-0.68-2.885-2.852-5.065-5.557-5.259
            C170.14,174.027,169.057,173.459,168.392,173.317L168.392,173.317z M103.74,176.263v1.498h2.027v-1.498H103.74z M103.74,179.192
            v1.651h2.023v-1.651H103.74z M103.74,182.413v1.651c0,0,1.106-0.03,2.023,0v-1.651H103.74z M169.793,185.062l2.216,3.274
            l2.451,0.164l0.289,2.644l3.718,2.316l-3.222,2.018l-0.024,2.558l-3.072,0.26l-2.716,3.603l-2.312-3.179l-2.312,0.01l-0.544-2.836
            l-4.093-2.076l4.199-2.394l-0.116-2.98l2.856-0.02L169.793,185.062L169.793,185.062z M103.74,185.452v1.694h2.023v-1.694H103.74z
            M103.74,188.558v1.676h2.023v-1.676H103.74z M168.551,189.805l-3.174,4.224l4.276,3.535l3.4-4.271L168.551,189.805z
            M103.74,191.495v1.835h2.023v-1.835H103.74z M168.878,191.717l2.206,1.705l-1.575,1.998l-2.19-1.671L168.878,191.717z
            M103.74,194.886v1.536h2.023v-1.536H103.74z M43.544,195.083c-3.899,0.018-7.587,6.333-8.471,9.323
            c-1.045,3.831-1.2,10.761-0.207,10.956c3.495-2.515,5.151-6.777,7.777-9.969c0.407,3.69,0.343,10.809,0.343,10.809
            s-1.554,0.817-2.392,2.108c-0.604,1.074-0.798,2.357-0.282,3.553c-1.943-0.631-5.463,0.082-5.663,3.67
            c0.126,5.052,5.643,4.34,5.663,4.271c-0.117-0.031-1.086,5.374,3.81,5.947c1.757,0.206,4.847-1.075,3.93-5.99
            c3.09,0.51,5.755-1.192,5.788-4.166c0.039-2.037-1.509-3.789-4.175-3.8c-0.557-0.002-1.729,0.251-1.729,0.251
            c0.038-0.294,1.068-3.456-2.519-5.75l-0.563-14.626c0,0,1.238,1.35,1.792,1.859c2.383,2.193,3.938,3.299,6.688,4.748
            c2.677,1.411,2.347,1.063,1.883-1.618c-1.265-4.026-3.908-7.069-9.501-10.874C44.996,195.297,44.267,195.08,43.544,195.083z
            M43.93,195.397l0.784,20.685l-1.16-0.001l-0.997-20.665L43.93,195.397z M158.679,196.08c0.103-0.004,0.208,0,0.317,0.01
            c2.523,0.212,3.172,3.033,2.037,4.286c-0.448,0.495-0.603,0.602-0.37,0.905c1.083,1.371,0.479,3.539-0.593,3.872
            c-3.404,1.059-3.921-0.804-3.91-2.996l-5.259-0.197l0.033-3.062l5.799,0.115C156.296,197.622,157.133,196.139,158.679,196.08
            L158.679,196.08z M41.492,196.114c0.022-0.001,0.044-0.001,0.062,0c0.545,0.047-0.016,1.503-1.536,3.723
            c-1.027,1.501-2.457,4.147-2.885,5.216c-0.936,2.338-1.566,6.529-0.938,5.76c0.565-1.752,0.621-2.482,1.107-3.742
            c0.641-1.643,3.631-7.043,4.224-7.575c0.507-0.455,0.638-0.175,0.626,1.344c-0.026,3.421-1.647,7.021-5.515,11.235
            c-0.645,0.702-1.503,1.469-1.564,1.469c-0.373-0.002-0.363-0.776-0.356-2.403c0.025-6.463,2.424-12.234,6.116-14.717
            C41.121,196.228,41.34,196.127,41.492,196.114z M45.407,196.412c1.696,0.497,4.741,3.22,5.996,4.618
            c1.453,1.568,3.4,5.911,3.058,6.578c-0.113,0.294-0.359,0.247-1.209-0.23c-5.397-3.038-9.262-6.783-8.249-7.994
            c0.283-0.339,1.442,0.359,2.995,1.801c1.056,0.937,2.137,1.886,3.102,2.837c1.517,1.493,1.858,1.713,0.944,0.053
            c-0.821-1.491-3.148-3.992-5.962-6.116C44.938,197.095,44.678,196.399,45.407,196.412L45.407,196.412z M159.011,197.284
            c-0.072,0.001-0.138,0.012-0.188,0.033c-1.062,0.447-0.63,1.824-0.732,2.88l-5.837-0.202l-0.033,0.81l5.476,0.298
            c0.096,0.826-0.334,2.608,0.371,2.909c1.532,0.638,2.369-1.338,1.068-2.523c-0.463-0.412-0.965-0.594,0.323-1.175
            c0.848-0.726,0.98-2.141,0.255-2.77C159.514,197.37,159.227,197.281,159.011,197.284L159.011,197.284z M85.166,197.525l-0.294,2.162
            l-3.385,0.853l-0.087-2.312L85.166,197.525z M125.094,198.29c12.498,3.367,26.393,11.011,35.415,19.644l-1.806,1.185
            c-9.375-8.658-21.742-15.232-33.104-18.497L125.094,198.29z M103.558,198.623c20.581-0.057,39.345,7.944,54.485,20.866l-2.476,1.561
            c-13.811-11.416-29.111-19.029-49.698-19.938c-13.456-0.593-28.811,2.857-43.943,11.183l-1.127-2.047
            C75.496,202.234,89.926,198.66,103.558,198.623L103.558,198.623z M101.94,201.724l8.096,0.236l-0.501,7.518l-7.358-0.241
            L101.94,201.724z M93.233,202.259l1.142,7.252l-7.046,1.315l-1.998-7.272L93.233,202.259z M118.858,203.217l8.042,2.144
            l-2.653,7.392l-7.06-2.013L118.858,203.217z M105.975,203.323c-1.276,0-2.311,1.034-2.312,2.312c0,1.276,1.035,2.312,2.312,2.312
            c1.277,0,2.312-1.035,2.312-2.312C108.287,204.358,107.252,203.323,105.975,203.323z M105.975,204.122
            c0.852,0,1.542,0.676,1.541,1.513c0,0.837-0.689,1.517-1.541,1.517s-1.541-0.68-1.541-1.517
            C104.435,204.798,105.124,204.122,105.975,204.122z M90.006,204.137c-1.276,0-2.312,1.035-2.312,2.312s1.035,2.312,2.312,2.312
            c1.277,0,2.312-1.035,2.312-2.312S91.283,204.137,90.006,204.137z M90.006,204.937c0.852,0,1.541,0.675,1.541,1.512
            s-0.689,1.518-1.541,1.517c-0.851,0-1.541-0.68-1.541-1.517S89.156,204.937,90.006,204.937z M121.843,205.865
            c-1.276,0-2.311,1.035-2.312,2.312c0,1.277,1.035,2.312,2.312,2.312c1.277,0.001,2.312-1.034,2.312-2.312
            C124.155,206.901,123.12,205.865,121.843,205.865z M77.028,206.136l2.384,7.074l-6.823,2.764l-2.558-6.987L77.028,206.136z
            M121.843,206.665c0.852,0,1.542,0.675,1.541,1.512c0,0.838-0.689,1.518-1.541,1.518c-0.851,0-1.541-0.68-1.541-1.518
            C120.302,207.34,120.992,206.665,121.843,206.665z M135.212,208.361l7.237,3.823l-3.741,6.762l-6.747-3.516L135.212,208.361z
            M74.611,208.972c-1.277,0-2.312,1.035-2.312,2.312s1.034,2.312,2.312,2.312c1.276,0,2.312-1.035,2.312-2.312
            S75.887,208.972,74.611,208.972z M101.954,209.194l0.337,7.142l-6.41,0.453l-1.165-7.099L101.954,209.194z M109.645,209.57
            l7.306,1.011l-1.72,6.877l-6.611-1.064L109.645,209.57z M74.611,209.772c0.851,0,1.541,0.675,1.541,1.512s-0.69,1.518-1.541,1.517
            c-0.852,0-1.541-0.68-1.541-1.517S73.759,209.772,74.611,209.772z M98.544,210.697c-1.276,0-2.312,1.034-2.312,2.311
            c0,1.277,1.035,2.312,2.312,2.312c1.277,0,2.312-1.035,2.312-2.312C100.856,211.731,99.822,210.697,98.544,210.697z M86.871,210.985
            l1.893,6.949l-7.046,2.019l-2.162-6.685L86.871,210.985z M112.448,211.096c-1.276,0-2.312,1.034-2.312,2.312
            c0,1.276,1.035,2.312,2.312,2.312c1.277,0,2.312-1.035,2.312-2.312C114.759,212.13,113.725,211.096,112.448,211.096z
            M98.544,211.495c0.852,0,1.542,0.676,1.542,1.512c0,0.838-0.69,1.518-1.542,1.518c-0.851,0-1.541-0.68-1.541-1.518
            C97.003,212.171,97.694,211.495,98.544,211.495z M112.448,211.895c0.852,0.001,1.541,0.676,1.541,1.513s-0.689,1.517-1.541,1.517
            c-0.851,0-1.541-0.68-1.541-1.517S111.597,211.895,112.448,211.895z M137.172,211.909c-1.277,0-2.312,1.035-2.312,2.312
            c-0.001,1.277,1.034,2.312,2.312,2.312c1.276,0,2.312-1.034,2.312-2.312C139.484,212.945,138.448,211.909,137.172,211.909z
            M124.665,212.584l7.06,2.412l-2.817,6.598l-6.756-2.571L124.665,212.584z M137.172,212.709c0.851,0,1.541,0.675,1.541,1.512
            s-0.69,1.518-1.541,1.518c-0.852,0-1.541-0.681-1.541-1.518S136.321,212.709,137.172,212.709z M84.064,212.954
            c-1.276,0-2.312,1.035-2.312,2.312c0,1.277,1.035,2.312,2.312,2.312s2.312-1.034,2.312-2.312
            C86.375,213.99,85.341,212.954,84.064,212.954z M84.064,213.754c0.852,0,1.541,0.675,1.541,1.512s-0.689,1.518-1.541,1.518
            s-1.541-0.681-1.541-1.518S83.213,213.754,84.064,213.754z M126.837,215.103c-1.276,0-2.312,1.034-2.312,2.312
            c0,1.276,1.035,2.312,2.312,2.312s2.312-1.035,2.312-2.312C129.149,216.137,128.114,215.103,126.837,215.103z M126.837,215.902
            c0.852,0,1.541,0.676,1.541,1.513s-0.689,1.517-1.541,1.517s-1.541-0.68-1.541-1.517S125.986,215.902,126.837,215.902z
            M44.141,216.706c1.848,0.078,3.233,1.737,3.317,3.463c0.063,1.312-1.609,3.03-1.609,3.03l-1.949-1.804l-1.87,1.724
            c-0.315,0.105-1.77-2.365-1.325-3.644C41.282,217.811,42.473,216.636,44.141,216.706z M149.105,216.706l5.592,4.575
            c0,0-2.454,1.491-2.909,1.757c0.056-0.198,0.082-0.409,0.082-0.626c0-1.276-1.035-2.312-2.312-2.312s-2.312,1.035-2.312,2.312
            c0,1.095,0.765,2.015,1.786,2.254c-0.574,0.33-1.338,0.757-1.338,0.757l-2.952-2.476L149.105,216.706z M140.254,228.933
            l-2.475,1.016c-15.225-10-36.052-15.473-59.86-5.403l-0.819-1.974C94.776,215.211,117.074,212.92,140.254,228.933z M138.901,218.941
            l5.99,3.675l-3.804,5.841l-5.852-3.741L138.901,218.941z M137.09,230.267l-2.514,0.944c-18.584-11.94-38.392-11.304-56.09-4.146
            l-0.272-1.677C99.053,216.365,119.968,219.237,137.09,230.267L137.09,230.267z M149.558,220.901c0.851,0,1.541,0.675,1.541,1.512
            s-0.69,1.518-1.541,1.518c-0.852,0-1.541-0.681-1.541-1.518S148.706,220.901,149.558,220.901z M41.429,223.639l-2.066,2.085
            l1.887,2.12c0,0-0.599,0.507-1.033,0.742c-2.473,1.347-5.178-0.779-5.049-3.075C35.356,222.165,39.387,220.572,41.429,223.639
            L41.429,223.639z M139.763,222.042c-1.277,0-2.312,1.035-2.312,2.312s1.034,2.312,2.312,2.312c1.276,0,2.312-1.035,2.312-2.312
            S141.039,222.042,139.763,222.042z M49.793,222.136c1.84,0.014,3.269,1.427,3.445,3.051c0.141,1.296-0.533,2.539-1.985,3.42
            c-1.971,1.195-4.261-0.739-4.221-0.858l1.661-1.643l-1.997-2.044C46.638,224.024,48.014,222.122,49.793,222.136L49.793,222.136z
            M44.04,222.533l3.404,3.395l-3.602,3.356l-3.338-3.352L44.04,222.533z M133.829,231.568l-1.911,0.876l-2.605-1.569l-0.771,1.479
            l1.449,0.92l-1.507,0.564c-17.363-9.755-36.983-6.929-50.025-0.455c0,0,0.113-1.004,0.12-1.004l1.42-0.724l-0.53-1.797l-0.761,0.222
            l-0.058-1.989C97.272,219.706,118.402,221.626,133.829,231.568L133.829,231.568z M139.763,222.841c0.851,0,1.541,0.676,1.541,1.513
            s-0.69,1.517-1.541,1.517c-0.852,0-1.541-0.68-1.541-1.517S138.911,222.841,139.763,222.841z M43.968,224.055l-1.815,1.806
            l1.806,1.927l1.763-1.864L43.968,224.055z M100.803,224.454l-2.379,0.106l0.125,1.94l2.321-0.058L100.803,224.454z M102.426,224.464
            l0.043,1.941l2.158-0.01l-0.01-1.917L102.426,224.464L102.426,224.464z M106.254,224.498l-0.105,1.931l2.143,0.097l0.154-1.922
            L106.254,224.498z M97.008,224.743l-2.437,0.266l0.27,1.95l2.307-0.27L97.008,224.743z M110.247,224.773l-0.174,1.993l2.201,0.251
            l0.298-1.907L110.247,224.773z M43.978,224.782l1.06,1.127l-1.055,1.05l-1.122-1.099L43.978,224.782z M92.901,225.374l-2.351,0.371
            l0.251,2.008l2.292-0.452L92.901,225.374z M114.22,225.374l-0.39,1.859l2.186,0.524l0.356-1.897L114.22,225.374z M89.048,226.189
            l-1.975,0.524l0.429,1.955l2.085-0.51L89.048,226.189z M117.971,226.265l-0.414,1.889l2.23,0.606l0.447-1.811L117.971,226.265z
            M85.787,227.204l-2.065,0.732l0.534,1.811l2.1-0.708L85.787,227.204z M121.81,227.411l-0.688,1.815l1.931,0.775l0.853-1.646
            L121.81,227.411z M82.378,228.476l-1.96,0.805l0.809,1.796l1.859-0.848L82.378,228.476z M41.979,228.531l1.984,1.981l2.357-2.127
            c2.057,1.818,2.024,6.072-1.617,6.783C41.524,235.789,38.615,231.029,41.979,228.531L41.979,228.531z M125.349,228.914l-0.756,1.666
            l2.134,0.939l0.736-1.604L125.349,228.914z M64.497,239.605l26.92,45.755l-4.257-0.082l-26.054-44.214L64.497,239.605z
            M60.078,241.348l1.488,2.312c-2.915-2.32-7.199-0.368-7.019,2.557c0.143,1.306,1.247,2.101,1.252,0.843
            c-0.133-1.314,1.73-2.46,3.082-2.398c2.495,0.032,4.019,3.238,2.297,4.835c-1.132,1.043-2.664,0.996-2.147-0.434
            c0.081-0.493,0.041-0.673-0.192-0.886c-0.716-0.653-2.036,0.197-1.715,1.132c0.212,0.614,0.273,0.766-0.462,1.271
            c-2.854,2.005-0.865,5.955,2.591,4.155c0.707-0.254,0.993-0.292,1.314-0.168c1.438,0.553,2.418-0.695,1.055-1.344
            c-0.792-0.377-0.812-1.021-0.048-1.531c1.632-1.09,4.174,0.613,4.165,2.793c-0.006,1.542-2.041,2.683-3.992,2.234
            c-1.159-0.266-1.298,0.52-0.235,1.334c2.059,1.579,5.142,0.271,6.062-2.571c0.29-0.894,0.248-1.081,0.248-1.081l2.746,4.535
            c0,0-0.852-0.403-1.366-0.56c-2.586-0.79-5.486,0.888-5.495,3.178c-0.004,1.08,0.635,1.497,0.992,0.65
            c0.833-1.971,2.644-2.738,4.503-1.907c1.72,0.769,2.507,2.511,1.835,4.064c-0.704,1.627-3.064,2.106-2.798,0.568
            c0.127-0.732-0.32-1.181-1.108-1.107c-0.298,0.027-0.681,0.894-0.577,1.31c0.096,0.39,0.027,0.484-0.982,1.271
            c-2.399,1.871-0.555,4.926,2.441,4.04c0.503-0.148,0.69-0.135,1.142,0.082c1.083,0.522,2.221,0.197,2.225-0.636
            c0.001-0.572-0.257-0.792-0.935-0.794c-1.026-0.004-0.805-1.166,0.332-1.734c2.851-1.424,5.762,2.173,4.026,4.975
            c-0.746,1.205-1.217,1.329-3.882,1.036c-0.43-0.048-0.624,0.247-0.368,0.597c0.789,1.117,3.134,1.471,4.5,0.853
            c1.475-0.667,2.372-2.352,2.477-4.148l3.012,5.26c-2.343-2.449-6.385-1.513-7.034,1.995c-0.003,0.889,0.808,1.352,1.089,0.621
            c1.218-3.166,5.85-2.195,5.837,1.223c-0.002,0.551-0.11,0.862-0.463,1.344c-0.85,1.64-3.022,2.045-2.629,0.573
            c0.175-0.455-0.173-0.95-0.771-1.093c-0.589-0.142-0.964,0.352-0.949,1.247c0.011,0.671,0.016,0.875,0.016,0.875
            c-1.083,0.457-1.774,1.352-2.016,2.675l-21.086,0.048c2.507-14.615,1.918-27.813-2.875-40.294c-0.414-1.082-1.01-2.655-1.01-2.655
            l3.722,0.099c0.898,0.778,4.291,0.476,5.616-0.728L60.078,241.348z M63.658,247.087l2.178,3.912
            c-0.901-0.517-1.819-0.859-3.222-0.978C63.346,248.936,63.405,247.962,63.658,247.087z M57.934,251.244
            c0.793,0,1.435,0.642,1.435,1.436c0,0.793-0.642,1.435-1.435,1.435c-0.794,0-1.44-0.642-1.44-1.435
            C56.493,251.886,57.14,251.244,57.934,251.244z M72.948,262.931l2.098,3.733c-1.021-0.435-1.882-0.859-3.477-0.9
            C72.15,265.085,72.652,263.948,72.948,262.931z M66.901,266.93c0.752,0,1.362,0.61,1.362,1.362s-0.61,1.358-1.362,1.358
            c-0.753,0-1.358-0.606-1.358-1.358S66.148,266.93,66.901,266.93z M82.097,278.566l3.097,5.493c-1.218-0.697-2.529-1.581-4.174-1.411
            C81.802,280.975,82.23,280.063,82.097,278.566z M77.977,285.419l-3.321,0.011C75.32,282.527,78.005,283.281,77.977,285.419z
            M81.12,284.02c1.13,0.057,2.104,0.443,2.714,1.428l-4.18,0.011C79.655,285.458,79.684,284.014,81.12,284.02L81.12,284.02z"/>
    </g>
</svg>
