<?xml version="1.0" encoding="utf-8"?>
<svg version="1.2" baseProfile="tiny"
    xmlns="http://www.w3.org/2000/svg"
    xmlns:svg="http://www.w3.org/2000/svg"
    xmlns:xlink="http://www.w3.org/1999/xlink"
    viewBox="0 0 225 314" width="225px" height="314px">
    <defs>
        <style>
            .maxi-card { display: none; }
            @media (min-width: 75px) {
                .maxi-card { display: block; }
                .mini-card { display: none; }
            }
        </style>

        <path id="suit" d="M26.406,40.187c0.015-1.979-1.561-2.017-1.542-0.573c-0.133,7.257-6.311,10.83-10.799,9.982
            c-6.92-1.307-9.129-8.129-9.062-12.148C5.205,25.046,17.775,15.9,29.116,0c8.311,14.351,22.028,25.623,22.839,36.717
            c1.08,14.749-17.711,20.25-20.394,3.06c-0.173-1.214-1.613-1.759-1.501-0.063c0.408,4.711-0.171,6.674,5.179,18.287H21.252
            C24.351,52.574,26.195,45.911,26.406,40.187L26.406,40.187z"/>
        <path id="numeral" d="M9.842,0C5.149,0.091,2.822,4.021,2.797,7.953l0.004,10.317H0v3.426h2.801c0,0,0.049,1.564,0.041,2.503
            c-0.039,4.637,1.6,7.447,4.797,8.226c3.066,0.559,4.666-0.102,7-1.311c0.849,0.353,1.441,1.08,2.349,1.172
            c1.004,0.102,3.096,0.054,3.096,0.054l-0.058-3.515l-1.045-0.152c-2-0.034-2.866-0.733-2.649-1.982
            c0.424-0.813,0.485-1.405,0.524-2.389V6.849C16.796,2.572,13.299,0.038,9.842,0z M9.697,3.403c2.239-0.035,4.104,2.573,4.053,5.246
            l0.035,13.481c0.073,0.848-0.062,1.677-0.437,2.259c-0.295-0.86-4.93-5.597-7.248-5.378c0,0-0.094,0.239-0.16-5.686
            c-0.028-2.91-0.793-7.253,1.822-9.214C8.415,3.63,9.07,3.412,9.697,3.403z M12.038,28.031c0.205,0.416-0.556,0.826-1.367,1.053
            c-2.295,0.64-4.545-0.791-4.617-4.08c-0.021-1.003-0.088-2.075,0.265-2.233C7.372,22.296,11.417,26.779,12.038,28.031z"/>
    </defs>

    <rect width="100%" height="100%" fill="#fefefe"/>

    <!-- Little Card -->
    <g class="mini-card">
        <use xlink:href="#numeral" transform="matrix(3.5,0,0,3.5,78.4,33.95)"/>
        <use xlink:href="#suit" transform="matrix(2,0,0,2,55.5,170)"/>
    </g>

    <!-- Big Card -->
    <g class="maxi-card">

        <!-- Top Numeral and Suit -->
        <use xlink:href="#numeral" transform="matrix(1,0,0,1,7,12)"/>
        <use xlink:href="#suit" transform="matrix(0.4,0,0,0.4,6,51)"/>

        <!-- Bottom Numeral and Suit -->
        <use xlink:href="#numeral" transform="matrix(-1,0,0,-1,218,302)"/>
        <use xlink:href="#suit" transform="matrix(-0.4,0,0,-0.4,218,263)"/>

        <!-- Card Face -->
        <use xlink:href="#suit" transform="matrix(0.8,0,0,0.8,38,40)"/><!-- top left -->
        <use xlink:href="#suit" transform="matrix(-0.8,0,0,-0.8,186,274)"/><!-- bottom right -->

        <path fill="#E2CF00" d="M102.767,285.237l23.212-42.372c-0.003,0.01,5.619,2.153,12.192,3.859c-6.309,16.438-0.046,38.121-0.046,38.121
            S102.749,285.201,102.767,285.237z M38.976,212.823c-1.32-18.008-1.363-35.405,1.603-49.818c0.056-0.23-8.292-5.052-7.428-5.605
            c1.321-0.847,17.766-9.419,17.766-9.419s1.11,0.632,2.069,0.534c0.748-0.076,1.449-0.756,1.159-1.482
            c-0.688-1.718-1.914-5.992-1.178-10.295c0.423-2.472,1.763-5.193,3.153-6.858c3.099-3.714,10.173-1.751,12.229-1.813
            c1.307-0.039,5.253-13.842-1.032-16.403c-1.732-0.705-5.707,8.717-2.945,10.832c0.416,0.317-5.555-3.144-10.128-5.209
            c-0.424-0.191-2.291-1.629-2.712-3.526c-0.524-2.367,7.009-6.923,5.529-9.592c-2.154-3.888-7.72-9.701-10.102-8.105
            c-2.252,2.034-7.623,6.189-7.587,9.033c1.678,5.098,5.942,5.453,8.184,10.276c0.559,1.042,4.68,5.423,4.68,5.423
            c-1.547,2.365,0.957,6.499,1.073,5.867l-19.525-8.506c0,0,4.476,33.671-0.251,38.654c-0.5,0.527,4.182-1.32,4.262-1.032
            c1.423,1.8,17.191,11.824,21.706,15.428c8.016-11.178,10.943-16.096,21.274-26.012c2.268-1.874,7.323-5.297,10.214-9.408
            c2.322-3.305,3.285-7.025,2.868-9.914c-0.539-3.734-0.872-6.291-3.178-9.268c-5.326-6.877-13.8-13.436-13.65-13.556l2.896-2.354
            c0,0,10.45,8.639,14.875,14.993c2.981,4.28,1.645,9.189,4.215,10.067c0.618,0.212,4.841-0.141,6.228,0.125
            c0.167,0.032,30.74,21.605,25.197,22.85c-7.674,1.723-19.91,0.599-19.91,0.599c-8.736-8.525-12.953-11.329-18.16-8.657
            c0,0-13.194,11.538-20.81,20.573c-4.34,5.148-7.963,11.592-10.866,15.736c-1.118,1.597-15.129-11.862-14.987-10.248
            c2.082,14.65,3.269,32.3,1.657,44.265c-1.105,10.164-2.619,21.081-3.295,30.454c0,0,2.352-0.683,4.145-0.046
            c0.969,0.344,1.673,1.242,1.758,2.24c0.522,4.463-5.225,3.427-5.358,3.041c0.006-0.004,3.208,6.884,3.208,6.884
            s-4.979,8.585-4.841,8.212c0.086-0.231-4.524-7.621-4.524-7.621s3.497-6.177,3.938-7.462c0.264-0.771-5.047,2.555-5.457-2.264
            c-0.413-4.858,5.798-3.557,5.519-2.958C41.705,231.515,40.033,221.216,38.976,212.823L38.976,212.823z M113.83,235.233
            c0.138-0.103-13.212-5.355-25.475-4.86c-4.32-1.681-11.367-3.44-16.07-0.307c-5.289-3.579-9.855-7.521-14.495-11.426
            c1.3-0.017,6.166-31.31,9.35-42.212c-1.42-13.542,11.631-13.532,12.765-2.686c14.06,14.532,31.274,29.562,49.02,44.352
            C126.101,223.947,115.912,228.408,113.83,235.233L113.83,235.233z M144.571,139.438c-16.029-16.336-49.576-45.539-49.576-45.539
            l15.704-15.32c8.243,2.455,16.714,4.507,26.29,4.604c0.037,0.038,10.494,4.756,16.066-0.012l14.495,11.48
            c0,0-6.012,31.609-9.542,42.642c0.075,4.37-1.579,9.692-5.897,10.482C148.423,148.45,145.588,143.225,144.571,139.438z
            M176.969,101.596c1.672-10.275,2.017-17.755,3.177-29.743c-7.229,2.117-7.132-7.624-0.03-5.062l-3.292-7.252l4.875-8.168
            l4.476,7.757l-3.854,6.876c8.01,0.395,6.077,7.825-0.82,6.031c1.301,11.484,4.164,23.086,4.025,34.439
            c2.479,18.209-3.05,43.546-2.135,44.146l7.811,5.37l-1.334,39.616l-12.335-5.403l-3.671,2.475c1.179,2.332,2.678,4.567,3.184,7.1
            c0,0,8.495,6.983,7.315,9.16c0.548,0.321-6.045,9.041-7.979,8.824c-3.693-0.415-8.014-5.178-9.195-8.571
            c-1.042-3.413,7.627-6.758,6.533-9.254c-1.309-2.986-4.61-4.422-7.537-5.3c-4.035-1.211-5.882-4.403-6.067-4.403
            c0,0-1.567,12.662-3.077,11.649c-6.074-4.072-1.921-16.993-0.794-16.633c0,0,2.653,0.609,5.787,0.903
            c11.041,1.156,10.293-12.411,8.153-18.979c-0.537-1.559,0.303-1.57,0.243-1.59c-0.513-0.177,1.786-0.049,3.736-0.623
            c5.361-1.579,13.575-7.03,13.575-7.03c-8.63-4.784-16.247-10.242-23.081-15.418c0,0-6.345,10.819-13.863,18.325
            c-5.475,5.463-6.365,7.323-15.526,14.358c-0.178,0.137-6.942,8.22-3.722,17.658c2.757,8.077,16.006,16.821,15.908,17.405
            l-2.608,2.49c0.105,0.145-18.755-11.693-18.315-24.426c-0.021-0.481-8.571-0.646-8.571-0.646l-24.852-23.02l21.052-0.09
            l10.81,8.822l6.754,0.351c0.441,0.388,0.687-1.783,6.635-6.218c11.364-8.472,25.445-30.228,25.445-30.228
            s14.891,10.466,14.905,10.468C177.964,132.047,175.428,115.144,176.969,101.596L176.969,101.596z M122.756,27.314
            c0,0-15.472,29.045-23.956,42.728l-12.02-3.445c5.037-13.357,0.215-38.816-1.053-39.458L122.756,27.314z"/>
        <path fill="#131F67" d="M30.451,25.623l0.913,261.561l162.409-0.104l-0.468-261.456H30.451z M143.328,215.169c7.705-7.156,15.326-13.063,22.451-17.357
            c2.764-1.665,3.602-1.908,4.688-0.921c1.771,1.61,2.873,3.012,2.295,4.139c-0.131,0.255-0.547,0.677-0.547,0.677l-4.257-1.619
            l1.379,4.828c-3.83,1.559-3.761,5.7-0.064,7.896l-2.544,5.851l5.913-2.601c0.226,1.275,4.442,4.358,7.064,0.001l5.34,2.604
            l-1.84-6.535c1.753-1.67,2.774-4.339,0.018-6.798l1.27-5.119l-4.822,1.568c-1.208-1.651-1.909-1.538-2.187-1.988
            c-0.083-0.614-0.098-2.048-0.899-3.369c-0.663-1.093-1.422-2.253-2.131-3.065c-0.376-0.636-0.075-0.688,1.851-1.73
            c0.904-0.488,1.652-0.983,1.652-0.983s9.489,4.759,13.36,6.571l0.22,87.639l-52.052-0.152c-5.854-17.468-1.647-32.566-0.097-38.922
            c-2.729-0.228-16.806-4.785-17.228-6.354C127.738,230.571,135.306,222.523,143.328,215.169L143.328,215.169z M42.045,240.667
            c-6.789-2.192-6.857,5.981-3.39,6.615c0.899,0.164,1.839,0.299,3.245-0.155c0.349,0.072-4.066,6.853-4.066,6.853
            s3.536,6.42,5.229,9.148l5.345-9.482l-3.494-6.562c5.473,2.788,8.306-5.516,2.56-6.602c-1.389-0.189-2.923,0.505-2.923,0.505
            l3.021-28.403c2.436,1.654,6.88,4.973,6.88,4.973c1.012,15.649,0.271,28.69,9.021,51.458l0.089,15.842H33.52l-0.117-82.707
            l5.258,3.761c0.112,0.468-0.838,0.155-0.325,5.911C38.798,217.02,40.381,226.036,42.045,240.667L42.045,240.667z M149.918,28.052
            c0.24,0.34,0.222,0.859,0.429,1.548c1.216,4.051,5.443,8.916,8.812,10.193c1.179,0.447,1.638,1.127,0.956,1.809
            c-0.86,0.861-4.412-1.492-7.033-4.545c-2.381-2.771-3.969-5.064-4.32-6.805c-0.208-1.033-0.312-1.697-0.158-2.234
            C149.039,27.415,149.58,27.582,149.918,28.052z M154.119,27.614c0.445-0.002,1.044,0.522,1.403,1.477
            c0.865,2.294,2.222,4.009,4.343,5.491c0.562,0.394,0.786,0.983,0.5,1.327c-0.106,0.128-0.244,0.19-0.4,0.234
            c-1.653,0.462-6.009-4.576-6.355-7.703C153.534,27.76,153.773,27.615,154.119,27.614L154.119,27.614z M159.538,27.676
            c0.88-0.004,1.302,1.832,0.792,2.793c-0.332,0.303-1.062-0.165-1.71-1.369C158.065,28.064,158.287,27.682,159.538,27.676z
            M156.59,27.705c0.197-0.006,0.604-0.11,0.812,0.176c0.339,1.896,1.77,3.27,2.91,4.368c0.191,0.359,0.281,1.112-0.138,1.308
            c-1,0.443-4.01-2.979-4.03-4.957C156.137,28.004,156.32,27.714,156.59,27.705z M152.771,28.907
            c1.056,3.462,3.611,6.286,5.898,7.751c1.636,1.041,2.268,1.633,1.509,2.164c-0.188,0.132-0.379,0.233-0.424,0.227
            c-3.83-1.463-8.538-7.008-8.696-10.934C151.892,27.047,152.628,28.244,152.771,28.907z M139.515,43.935
            c-2.015,0.002-4.481,0.461-6.484,1.37c-2.788,1.265-3.486,2.105-3.08,2.41c0.292,0.214,2.087-0.556,2.987-0.673
            c4.854-1.201,8.193-1.496,11.357-0.117c2.445,1.066,2.46,0.577,0.818-1.198C143.923,44.44,141.798,43.931,139.515,43.935z
            M156.625,46.595c1.606-0.017,3.246,0.359,3.829,1.108c0.453,2.423-0.757,1.314-1.731,0.832c-1.409-0.65-3.023-1.212-4.529-0.98
            c-0.969,0.148-0.995,0.101-0.447-0.211C154.574,46.841,155.746,46.608,156.625,46.595L156.625,46.595z M137.598,47.538
            c-4.591,0.356-6.181,2.678-9.145,5.072c-1.218,0.926-0.94,1.643,0.543,1.399c1.832-0.3,2.57-0.228,5.068,0.625
            c2.728,0.932,4.683,1.317,6.182,0.741c2.835-1.089,2.592-0.907-1.462,3.017c-2.169,1.741-1.293,1.65,0.903,0.142
            c1.624-1.296,2.74-2.122,3.079-2.833c0.164-0.346,0.179-1.582,0.484-1.582c1.031,0,0.499-1.286-0.438-1.832
            c-0.615-0.438-0.479-0.897,0.319-1.74c1.251-1.316,0.825-1.912-0.533-1.092c-0.239,0.13-0.357-0.272-1.187-0.772
            C140.102,47.892,138.996,47.524,137.598,47.538L137.598,47.538z M140.907,49.262c1.109,0.934,0.635,1.191-1.787,1.169
            c-2.046-0.02-3.788,0.195-6.219,1.001c-2.761,0.916-2.93,0.939-1.309-0.442C133.823,49.089,138.355,47.182,140.907,49.262z
            M155.249,48.455c1.113-0.023,2.053,0.134,2.901,0.602c2.312,1.274,2.827,2.38,0.253,1.479c-1.615-0.564-3.797-0.485-5.304-0.067
            c-1.558,0.432-1.825,0.583-1.615-0.257C151.743,49.182,153.393,48.495,155.249,48.455z M137.061,52.217
            c0.549,2.746,2.633,1.849,2.839,0.19l0.761,0.003c-0.323,2.206-3.327,4.052-4.494-0.193
            C136.412,52.21,137.503,52.285,137.061,52.217z M153.683,52.263l0.564-0.018c0.372,2.105,2.33,2.795,3.181,0.16l0.684,0.014
            C157.588,56.813,152.938,54.673,153.683,52.263z M135.466,52.468c0.376,0.133,0.548,1.163,0.484,1.435
            c-0.131,0.563-1.97-0.036-2.359-0.587C133.975,52.907,134.882,52.262,135.466,52.468z M160.49,52.936l-0.005,0.77
            c-0.85,0.204-1.202,0.681-1.996,0.524c0.046-0.492-0.038-1.167,0.424-1.741C159.491,52.184,160.18,52.558,160.49,52.936z
            M141.958,53.825c-0.386,0.304-0.915,0.337-0.915,0.337c-0.083-0.736-0.207-1.565,0.711-1.572
            C142.358,52.767,142.316,53.513,141.958,53.825z M152.556,52.605c0.323,0.022,0.701,0.825,0.745,1.293
            c-0.094,0.769-1.985,0.462-1.985-0.302C151.316,53.273,152.106,52.606,152.556,52.605z M135.245,81.697
            c-1.461-0.73-12.534-7.459-15.371-19.358l-0.563,1.217c1.202,2.85,2.977,7.477,2.977,7.477c-0.074-0.398,0.452,3.1,1.58,9.04
            c-0.599,0.007-1.26-0.164-1.91-0.337c-1.461-5.438-1.807-9.701-3.033-15.022l-0.533,1.486c0,0,1.542,9.548,2.587,13.281
            c-0.598-0.057-1.697-0.303-1.697-0.303c-0.87-4.027-1.543-6.729-2.362-10.767l-0.754,0.976c1.082,3.315,1.504,6.278,2.049,9.454
            c-0.743-0.112-1.49-0.184-2.198-0.577c0,0-1.117-5.792-1.266-5.877c-0.426,0.43-0.601,0.981-0.601,0.981
            c-0.045-0.052,0.969,3.211,0.896,4.555c-0.712-0.117-1.944-0.473-2.814-0.765c-0.455,0.302-0.692,0.807-1.042,1.259
            c0.429,1.844,25.835,5.833,24.312,4.31c-0.01,0.159,11.202,4.906,17.459,0.872c0,0,10.883,8.069,15.134,11.293
            c0,0.367,1.473,2.077,3.005,3.164l4.309,3.318c1.252,0.973,1.753,0.269,1.943-1.562c0.211-2.04,1.693-15.785,2.039-18.716
            c1.294-9.873,1.292-9.769-0.207-9.313c-2.293,0.694-4.357-0.208-4.357-2.554c0-1.435,0.664-2.624,2.193-3.179
            c0.434-0.148,0.999-0.161,1.649-0.149c0.296,0.054,0.846,0.09,0.903,0.102c0.73-0.041-2.827-6.482-2.827-6.482
            s3.399-6.058,5.035-8.313l4.399,7.973l-3.603,7.032c7.017-0.526,6.33,8.294-0.539,5.341c0,0-0.041,2.62-0.027,2.428
            c0.066-0.75,0.056-1.391,0.293-1.531c6.655,2.521,8.012-7.183,0.84-6.735c1.18-2.058,2.495-4.185,3.722-6.452l-5.186-9.451
            l-5.857,9.744l2.947,6.083c-0.662-0.173-1.194-0.067-1.904,0.005c-4.341,0.889-3.408,7.875,1.554,6.914
            c0.566-0.109,1.419-0.538,1.419-0.538l-3.203,28.536c0,0-0.316,0.256-1.602-0.67c-1.484-1.07-4.594-3.394-4.792-3.632
            c1.111-18.244-3.452-37.438-8.662-49.456c-0.331-0.922-0.135-19.021-0.135-19.021l29.545,0.078l0.109,84.057
            c-1.545-0.978-3.215-2.265-4.804-3.385c-0.476-0.385-0.771-0.842-0.567-1.577c-0.522,1.117-0.207,1.597-0.207,1.597l6.524,5.212
            l-0.259,82.725c0,0-10.532-5.428-17.018-8.047c-2.925-1.193-3.056-0.85-3.056-0.85c0.009-0.005,2.067,4.64,1.479,5.478
            c1.394,1.34,3.737,4.145,3.851,6.889c1.249,1.081,1.599,1.215,2.535,2.771l3.913-1.414l-0.888,4.077
            c4.161,2.914,0.154,6.833-0.617,6.472c0,0,1.836,3.939,2.256,5.733c-0.657-0.045-3.953-1.832-4.871-2.256
            c-2.389,4.7-6.421,0.756-6.453,0.062l-4.474,1.992l1.584-5.092c-2.881-1.752-4.827-4.4-0.169-7.253l-1.076-3.972l3.831,1.505
            c0,0,0.715-1.148,1.258-1.985c-1.433-6.239-10.854-5.059-13.88-10.67c0,0-0.743,7.005-1.505,9.539
            c-0.298,6.7-4.991-0.077-4.991-7.165c0-1.601,2.012-6.985,2.692-7.246c0.708-0.099,7.434,3.152,11.949-0.077
            c2.057-2.139,5.603-8.154,2.195-17.572c-1.127-2.177,2.144-2.452,3.205-1.718c0,0,9.829-5.141,14.266-7.616
            c-7.443-4.09-22.92-14.971-22.909-15.487c-2.064,3.278-4.43,6.026-7.754,10.661c-5.389,6.346-9.602,12.376-16.44,17.446
            c-9.618,7.002-11.877,14.051-9.194,22.326c1.086,3.576,3.271,7.203,6.851,8.458c1.821,1.842,9.137,8.768,9.137,8.768
            c-12.213,11.119-20.598,20.266-26.479,30.371c4.964,2.61,16.935,6.391,16.935,6.391c-4.446,14.777-2.422,26.515,0.508,38.297
            c0,0-34.749,0.045-52.78-0.522c-0.154,0.152-2.106,0.048-2.132-0.076c-0.071-1.317,3.248-4.938,4.241-4.434
            c0.499-0.491,1.556-0.742,1.365-1.346c-2.487-0.297-6.263,4.001-6.411,5.779h-1.484c-0.304-0.265,2.693-7.261,8.699-7.818
            c-0.063,0.251,0.806-0.544,0.153-0.885c-7.001,0.829-10.262,8.598-10.055,8.703H78.97c2.381-7.639,8.579-10.05,12.166-10.382
            c0.034-0.015,1.163-0.408,0.86-1.077c-7.928,1.377-11.88,4.808-13.785,11.459h-1.429c1.031-6.746,7.971-12.656,15.815-12.464
            c0.245-0.155,0.546-0.339,0.418-1.105c-8.705,0.98-13.047,3.886-16.623,11.362c-3.199-8.304-12.09-12.243-12.195-12.278
            c0,0-0.215-2.324,0.281-2.228c7.585,2.745,10.48-3.84,10.164-7.667c-0.177-2.129-0.058-3.302-0.77-6.371
            c-0.636-2.736-1.105-4.58-1.055-5.769c0.05-1.176,0.418-1.414,1.287-1.808c1.626-0.737,2.644-3.405,2.282-3.732
            c-0.836,1.941-3.044,2.276-4.062,3.58c-0.812,1.075-0.454,2.785,0.992,8.725c0.882,3.619-0.163,1.955-2.22,0.821l-1.374-0.776
            c0.921,0.947,1.896,1.84,2.834,2.768c0.84,0.768,0.37,1.243-0.835,0.798c-1.735-0.865-5.08-0.503-6.361,0.587
            c-0.499,0.356-0.677,0.319-0.803-0.009c-0.561-9.224,0.409-14.897,3.465-21.829c1.975-4.713,4.915-8.241,8.838-8.492
            c3.953-0.327,9.636,1.058,14.797,4.562c6.062,4.117,11.969,10.377,12.597,18.058c0.024,0.089,0.466-0.656,0.667-1.05
            c0.277-0.913-0.734-3.656-2.313-6.835c-0.292-2.391-1.114-6.583-1.761-9.419c0.491-0.225,1.538-0.099,1.833,0.259
            c1.109,4.689,1.899,8.341,2.852,14.623c0.013,0.612,0.801-0.909,0.803-1.312c-0.137-0.938-2.755-13.229-2.702-12.949
            c0.015-0.418,2.483,0.131,2.145,0.519c0,0,1.877,10.312,2.01,9.992l0.635-0.875c0,0-1.792-7.53-1.567-8.982
            c0.153-0.222,1.541,0.228,1.98,0.467c0.553,0.741,0.906,3.428,1.14,5.261c0.639,0.487,0.765-0.922,0.717-1.294
            c-0.46-0.729-0.946-3.452-0.582-3.592c0.287-0.11,1.878,0.521,2.184,0.793c0.358,0.32,1.746-1.6,1.394-1.932
            c-7.505-2.875-16.975-4.553-24.1-4.666c-1.656,0.007-2.312-0.227-4.853-1.144c-6.467-2.335-11.813-0.009-12.598,0.729
            c-7.896-5.486-16.711-13.149-23.728-18.038c-0.33-0.219-1.117-0.349-1.204-0.349c-1.113,8.512-1.891,18.36-2.84,26.216
            c-0.386,3.11-0.432,3.353-0.289,3.441c0.123,0.076,0.367-0.048,0.463-0.098c2.31-0.851,4.396-0.297,5.501,1.788
            c0.557,2.983-2.053,4.946-4.804,3.53c-1.021-0.526-1.168-0.423-0.701,0.572c0.804,1.79,3.125,6.506,3.125,6.506
            c0.004,0.001-3.136,6.399-4.722,8.141c-1.547-2.498-3.521-5.023-4.376-7.751c1.215-2.379,3.511-5.441,4.236-7.785
            c-0.104-0.075-0.729-0.011-1.164,0.216c-4.014,1.898-4.658-1.676-4.604-2.961c0.108-2.612,2.384-3.168,5.689-1.951
            c-3.572-23.731-4.335-37.254-3.422-35.791c0,0-4.315-3.084-6.46-5.177L32.646,27.697l51.625,0.077
            c5.263,14.109,3.813,31.076,0.668,39.91c5.588,1.021,11.231,2.341,17.607,6.001c-10.771,15.792-27.683,32.86-45.999,43.788
            c-1.038,0.468-4.448-1.659-4.849-3.761c-0.094-0.488,0.178-1.45,0.727-1.433c1.346,0.437,2.649,1.037,3.964,1.572
            c0,0-1.831-4.593-0.947-5.29c0.574-0.377,1.045-0.692,1.413-1.081c1.314-1.698,1.21-3.625-0.183-5.105
            c-0.561-0.587-1.215-0.992-1.541-1.142c0,0,1.291-3.583,1.938-5.272l-5.082,1.682c-1.646-2.281-4.672-4.057-6.908-0.66
            c-0.427,0.906-0.338,0.767-3.484-0.625c-1.783-0.789-2.883-1.193-2.883-1.193c0.669,1.991,1.544,3.861,2.309,6.166
            c-3.502,2.232-2.704,5.997,0.243,7.12l-1.553,5.085c0,0,3.311-1.233,5.105-1.713c0,0,1.573,1.582,2.04,3.084
            c0.801,2.576,2.618,4.445,3.768,5.509c-1.915,1.403-2.86,1.876-5.017,2.913l7.443,3.007c-0.462-1.573-1.448-2.741-1.548-4.732
            c-0.088-1.705-0.186-1.736-1.287-2.891c-1.804-1.555-2.075-3.636-3.088-5.335c-0.706-0.427-1.27-1.281-1.796-2.247
            c-1.133,0.106-3.692,1.379-4.177,0.923c-0.594-0.634,1.03-3.881,0.851-4.205c-1.307-0.111-4.968-2.965-0.607-6.143l-1.391-5.169
            c0,0,3.318,1.451,4.909,2.263c1.105-5.164,6.144-2.688,6.958-0.461c0,0,3.994-1.313,3.747-0.248
            c-0.111,0.957-0.761,3.344-0.761,3.344c3.592,3.179,2.849,4.74-0.069,6.825c-0.044,1.686,0.663,4.306,0.663,4.306
            s-2.031-0.902-3.37-1.281c-0.535,0.536-1.144,1.504-1.042,2.002c0.908,4.019,5.864,5.138,13.207,9.246
            c0.252-2.597,2.044-6.146,2.246-9.262c0.127-2.272,0.205-2.309,1.804-1.582c4.208,3.039,2.924,11.39,1.39,14.815
            c-0.908,1.939-1.057,1.89-2.822,1.327c-2.445-0.779-6.769-0.465-9.146,0.341c-3.288,1.348-4.84,8.683-4.876,10.911
            c-0.058,2.117,0.105,4.217,1.217,6.833c0.46,1.674-0.386,2.964-1.895,2.515c-0.339-0.101-1.145-0.408-1.145-0.408l-14.195,7.343
            l2.675,1.573c0,0-1.972-1.177-0.75-1.814l12.171-6.352c2.268,0.885,1.964,1.065,3.434-0.466c0.88-0.906,1.312-0.925,2.49-0.812
            c7.176,0.688,10.354-0.356,11.595-3.363c0.186-0.451,0.115-0.436,0.848-0.806c1.357-0.527,1.996-1.482,2.064-2.681
            c0.046-0.785,0.387-0.893,0.984-1.441c1.116-1.025,1.343-2.311,0.64-3.631c-0.331-0.621-0.584-0.817-0.446-1.462
            c0.23-1.08-0.169-2.205-1.207-3.396c-1.194-1.369-1.187-1.138,1.062-3.233c4.419-4.2,8.312-7.415,12.611-11.216
            c2.939-2.6,2.622-2.414,3.767-1.225c4.212,4.38,5.864,11.208,3.968,17.213c-0.089,0.282-0.129,0.25,0.091,0
            c1.191-1.351,1.226-8.147,0.207-11.161c-1.241-3.703-2.443-5.632-6.549-9.258c-2.562-2.314-9.536-8.994-9.536-8.994
            c10.146-8.799,21.074-19.735,27.202-29.79c-3.145-3.373-17.724-6.482-17.724-6.482c1.814-3.765,5.404-20.677-0.741-39.429
            l52.376,0.604l1.863,0.127c0,0,0.28-0.107,0.43-0.146c0.502-0.132,0.752,0.222,0.631,0.783c-0.386,1.432-2.486,4.782-3.968,4.506
            c-0.661-0.257-0.475,1.013-0.771,1.542c2.336-0.303,5.075-3.263,5.762-6.196c0.376-0.616,0.62-0.721,0.995-0.602
            c0.432,0.137,0.324,0.548-0.144,1.967c-1.463,3.549-4.43,6.847-7.877,6.517l-0.447,1.211c4.652-0.075,8.249-4.437,9.312-7.698
            c0.742-1.939,0.771-2.202,1.518-2.016c0.616,0.571,0.235,1.391,0.024,2.065c-2.338,7.472-8.762,9.469-11.96,9.144
            c-0.385-0.048-0.453,0.313-0.336,0.929c6.871,0.453,12.344-5.466,13.117-10.546c0.377-1.41,1.03-1.892,1.407-1.247
            c0.212,0.568,0.142,1.148,0.037,1.69c-1.878,8.019-10.426,12.571-15.648,11.271c-0.242-0.226-0.635,0.883-0.066,1.278
            c10.543-0.397,13.799-5.839,16.204-10.646c2.868,4.327,5.214,8.789,12.088,11.411c0,0,0.686,1.51,0.146,1.848
            c-0.285,0.179-0.721,0.096-1.352-0.006c-8.379-1.354-11.15,6.478-7.583,18.177c0.977,3.203,0.539,2.712-1.549,4.717
            c-0.995,0.955-1.468,2.649-1.207,2.688c0.357-0.201,0.476-0.75,1.347-1.472c0.379-0.314,1.157-0.614,1.731-1.01
            c1.55-0.899,1.536-1.514,0.979-3.639c-0.414-1.58-1.468-6.386-1.469-6.873c-0.003-0.921,0.215-0.824,1.367,0.001
            c1.608,1.192,2.52,1.107,0.574-0.42c-0.754-0.592-1.243-1.053-1.471-1.385c-0.311-0.451-0.118-0.743,0.51-0.547
            c2.887,0.905,5.365,0.84,8.168-0.866c0.32,7.718-0.741,19.427-7.207,27.798C148.254,87.67,138.758,83.455,135.245,81.697
            L135.245,81.697z M142.843,63.962c-0.193,0.009-0.885,0.152-1.313,0.397c-1.904,1.09-1.45,4.959,0.629,5.474
            c0.836,0.207,1.595,0.321,3-0.35c0.837-0.399,2.008-0.711,2.337-0.574c0.69,0.288,0.908-0.321,1.056-1.009
            c0.33-1.538-2.192-1.575-4.2,0.015c-2.532,2.006-4.474-0.954-2.087-3.183C143.059,64.219,143.035,63.953,142.843,63.962z
            M123.169,72.24l2.127,2.458l1.337,5.858c-0.811,0.138-1.794-0.312-1.794-0.312C124.176,77.594,123.528,74.942,123.169,72.24
            L123.169,72.24z M152.138,73.714c-0.022,0.003-0.047,0.008-0.072,0.02c-0.09,0.039-0.486,0.218-1.034,0.278
            c-0.316,0.035-0.794-0.189-1.135-0.168c-0.931,0.058-1.801,0.332-2.034,0.428c-0.286,0.118-0.568,0.168-0.812,0.024
            c-0.694-0.409-2.718-0.294-3.332,0.067c-0.729,0.31-1.547,0.313-2.145,0.005c-0.258-0.134-0.521-0.47-0.567-0.424
            c-0.096,0.096-0.484,1.754-0.602,2.396c0.003,0.226-0.156,0.601-0.062,0.639c0.119,0.049,0.5-0.298,0.972-0.538
            c0.966-0.493,2.046-0.455,3.942,0.01c2.342,0.573,3.254,0.407,4.636-0.298c1.101-0.562,1.77-0.696,2.501-0.496
            c0.18,0.05,0.66,0.299,0.726,0.236c0.13-0.125-0.225-0.818-0.528-1.506C152.37,73.891,152.289,73.696,152.138,73.714z
            M126.876,76.358c2.057,1.948,1.901,1.781,3.2,2.745l-0.063,1.877c0,0-1.59,0.036-2.37-0.207
            C127.396,80.043,126.326,76.377,126.876,76.358z M143.792,77.619c0.14,0.096,0.342,0.196,0.621,0.291
            c3.274,1.228-0.15,0.918-0.478,2.088c0,0.105,0.149,0.122,0.311,0.059c1.124-0.441,3.869-0.728,5.117-0.486
            c1.619,0.547,1.721,0.169,0.163-0.644c-1.14-0.449,0.242-0.755,0.708-1.147c0.966-0.622,0.301-0.878-0.929-0.288
            c-1.232,0.591-3.425,0.581-4.425,0.021c-0.442-0.225-0.873-0.434-1.076-0.446C143.386,77.049,143.608,77.488,143.792,77.619
            L143.792,77.619z M130.905,79.722l1.916,1.498l-1.959-0.188L130.905,79.722z M87.505,117.363c-0.388,0-0.702,0.314-0.702,0.702
            c0,0.387,0.314,0.702,0.702,0.702c0.387,0,0.702-0.315,0.702-0.702C88.207,117.677,87.892,117.363,87.505,117.363z M90.063,118.071
            l-8.789,4.173l2.322,0.777l-0.018,2.404l2.139-0.682l0.907,2.245L90.063,118.071z M90.452,120.035
            c-0.387,0-0.702,0.315-0.702,0.702s0.315,0.702,0.702,0.702s0.702-0.315,0.702-0.702S90.839,120.035,90.452,120.035z
            M79.31,124.306c-0.387,0-0.702,0.31-0.702,0.697c0,0.387,0.315,0.702,0.702,0.702s0.702-0.315,0.702-0.702
            C80.012,124.615,79.697,124.306,79.31,124.306z M82.011,125.612l-9.866,4.531l2.925,0.89l-0.773,3.011l2.383-1l1.33,2.021
            L82.011,125.612z M82.301,127.769c-0.387,0-0.701,0.314-0.701,0.701c0,0.388,0.314,0.702,0.701,0.702
            c0.388,0,0.697-0.314,0.697-0.702C82.998,128.083,82.689,127.769,82.301,127.769z M62.727,128.22
            c3.709-0.005,7.87,1.406,9.29,4.582c0.378,1.588-1.183,2.533-4.516,1.62c-5.509-1.511-6.536-1.681-5.621-0.744
            c0.12,0.123,0.363,0.426,1.188,0.706c2.075,0.708,6.091,1.525,7.175,1.414c1.48-0.196,2.505,0.492,2.135,1.727
            c-0.42,1.401-2.342,1.975-5.231,1.567c-2.993-0.422-4.641-0.767-5.636-1.067c-1.277-0.387-1.321-0.354-0.717,0.543
            c0.315,0.467,0.346,0.841,0.812,0.929c1.977-0.112,4.081,0.267,5.896,0.438c3.258,0.291,3.768,1.215,1.375,2.625
            c-1.134,0.669-4.525,0.485-6.453-0.208c-1.377-0.496-4.535-1.205-3.317-0.244c0.292,0.231,0.192,0.798,0.702,0.977
            c1.67,0.23,6.392,0.562,7.13,1.229c0.476,0.43-0.595,1.522-2.8,2.093c-3.318,0.629-8.28,0.366-9.591-0.528
            c-2.427-4.941-1.121-13.029,2.678-16.19C58.438,128.739,60.5,128.223,62.727,128.22z M84.48,130.797
            c-0.387,0-0.697,0.314-0.697,0.702c0,0.387,0.311,0.697,0.697,0.697c0.388,0,0.702-0.311,0.702-0.697
            C85.182,131.112,84.867,130.797,84.48,130.797z M87.41,131.546l-10.187,5.073l2.576,0.765l-0.61,2.965l2.388-0.984l1.445,1.994
            L87.41,131.546z M87.49,134.029c-0.387,0-0.702,0.315-0.702,0.702s0.315,0.702,0.702,0.702s0.702-0.315,0.702-0.702
            S87.876,134.029,87.49,134.029z M93.413,140.01c-4.518,4.396-9.607,7.879-14.258,12.148l1.007-0.041l2.534-2.285l71.359-0.224
            l-1.667,2.434l0.702,0.301c0,0,2.14-3.164,1.994-3.31c-15.679,0.045-27.78,0.009-44.979,0.128
            c-3.135-3.104-6.446-6.014-9.723-8.964L93.413,140.01z M71.723,142.829c-0.388,0-0.702,0.315-0.702,0.702s0.314,0.702,0.702,0.702
            c0.387,0,0.697-0.315,0.697-0.702S72.11,142.829,71.723,142.829z M164.884,143.366c6.164,4.574,13.468,10.185,19.529,13.516
            c2.428,1.054,2.192,1.414-0.274,2.579c-2.424,1.507-6.459,3.449-9.824,5.146c-1.458,0.551-2.095-0.167-3.13,0.023
            c-0.746,0.19-0.96,0.331-1.404,0.919c-0.729,0.964-0.53,0.931-4.429,0.755c-3.934-0.178-5.555-0.09-6.4,0.342
            c-0.812,0.414-2.208,1.831-2.208,2.418c0,0.565-0.444,1.291-1.254,1.534c-0.943,0.229-2.032,0.977-1.986,2.135
            c-0.252,0.873-0.786,1.26-1.26,1.737c-1.121,1.132-1.009,2.021-0.685,3.071c0.149,0.471,0.378,0.36,0.262,1.752
            c-0.267,3.188-0.486,2.919,2.924,5.277l-17.421,15.181c-0.404,0.317-0.522,0.286-0.89,0.033c-2.125-1.577-3.604-4.185-4.455-6.793
            c-2.943-8.107,0.65-14.768,5.427-18.844c1.654-1.412,3.878-3.096,4.496-3.52C150.897,162.957,158.719,152.094,164.884,143.366z
            M74.323,143.959l-9.959,4.703l3.208,0.54l-0.614,2.771l2.323-0.881l1.229,2.336L74.323,143.959z M74.932,146.157
            c-0.387,0-0.702,0.315-0.702,0.702s0.315,0.697,0.702,0.697s0.697-0.311,0.697-0.697S75.319,146.157,74.932,146.157z
            M166.19,149.24l-1.13-2.674c0,0-3.146,7.749-3.812,10.375c2.665-1.374,10.473-5.349,10.473-5.349l-3.341-0.62l0.377-3.034
            L166.19,149.24z M52.426,149.719c-0.387,0-0.702,0.315-0.702,0.702s0.315,0.702,0.702,0.702c0.388,0,0.702-0.315,0.702-0.702
            S52.814,149.719,52.426,149.719z M55.477,150.359c0,0-7.411,3.478-10.756,4.979l3.123,0.654l-0.549,3.036l2.819-1.1l1.137,3.002
            L55.477,150.359z M55.873,152.653c-0.387,0-0.702,0.315-0.702,0.702s0.314,0.697,0.702,0.697c0.387,0,0.702-0.311,0.702-0.697
            S56.26,152.653,55.873,152.653z M160.745,153.157c-0.388,0-0.702,0.31-0.702,0.697c0,0.387,0.314,0.702,0.702,0.702
            c0.387,0,0.697-0.315,0.697-0.702C161.443,153.467,161.132,153.157,160.745,153.157z M172.862,153.791l-3.527,9.803l9.54-4.803
            l-2.59-0.707l0.014-2.425l-2.131,0.62L172.862,153.791z M60.124,156.149c-0.387,0-0.702,0.314-0.702,0.701
            c0,0.388,0.314,0.702,0.702,0.702c0.387,0,0.702-0.314,0.702-0.702C60.826,156.463,60.511,156.149,60.124,156.149z M164.46,156.326
            c-0.387,0-0.697,0.315-0.697,0.702s0.311,0.697,0.697,0.697c0.388,0,0.702-0.311,0.702-0.697S164.848,156.326,164.46,156.326z
            M63.049,157.045l-10.108,4.931l3.138,0.735l-0.345,3.156l2.551-1.449l1.385,2.878L63.049,157.045z M63.681,159.13
            c-0.387,0-0.663,0.314-0.663,0.702c0,0.387,0.314,0.697,0.702,0.697c0.387,0,0.697-0.311,0.697-0.697
            C64.417,159.445,64.068,159.13,63.681,159.13z M168.795,159.75c-0.388,0-0.702,0.314-0.702,0.701c0,0.388,0.314,0.697,0.702,0.697
            c0.387,0,0.701-0.31,0.701-0.697C169.496,160.065,169.182,159.75,168.795,159.75z M154.865,162.974l-0.938-2.639l-3.74,9.677
            l10.057-4.606l-3.191-0.749l0.057-2.527L154.865,162.974z M144.648,160.891c-0.115-0.006-0.216,0.025-0.216,0.101
            c0,0.224-2.57,2.735-2.57,2.735L112.178,164c0.062,0.005,2.471,0.672,2.471,0.672c3.894,3.11,9.996,8.629,9.996,8.629l7.369-0.294
            c4.08-4.006,10.212-7.053,12.946-12.001C144.894,160.94,144.763,160.897,144.648,160.891L144.648,160.891z M172.472,162.886
            c-0.387,0-0.702,0.314-0.702,0.702c0,0.387,0.315,0.697,0.702,0.697c0.388,0,0.697-0.311,0.697-0.697
            C173.169,163.2,172.859,162.886,172.472,162.886z M149.558,166.264c-0.387,0-0.697,0.311-0.697,0.697s0.311,0.702,0.697,0.702
            c0.388,0,0.702-0.315,0.702-0.702S149.946,166.264,149.558,166.264z M164.627,167.278c2.128-0.011,4.177,0.062,4.707,0.467
            c3.289,2.769,1.73,15.713-2.415,17.347c-4.549,1.024-7.694,1.214-11.643-1.391c-1.12-0.545-3.342-2.195-2.908-3.558
            c0.592-1.674,2.218-1.552,6.881-0.101c1.702,0.529,2.639,0.423,3.073,0.091c0.405-0.309-0.126-0.655-0.995-0.658
            c-0.351-0.001-1.858-0.373-3.116-0.76c-1.775-0.546-2.286-0.706-3.434-0.774c-1.93-0.114-2.491-0.189-2.491-1.37
            c0-2.205,3.066-2.496,8.709-1.202c0.675,0.154,1.897,0.326,2.197,0.317c0.218,0.083-0.43-0.73-0.538-1.217
            c-0.204-0.174-0.568-0.256-1.529-0.288c-3.629-0.356-6.641-0.603-6.706-1.077c-0.32-2.334,4.373-2.969,9.24-1.097
            c1.249,0.48,1.274,0.281,1.265-0.082c-0.019-0.672-2.11-1.847-5.195-1.814c-3.002,0.032-2.583-1.493-0.115-2.64
            C160.456,167.079,162.499,167.288,164.627,167.278L164.627,167.278z M153.021,169.779c-0.388,0-0.697,0.315-0.697,0.702
            s0.31,0.702,0.697,0.702c0.387,0,0.702-0.315,0.702-0.702S153.407,169.779,153.021,169.779z M142.206,174.621l-0.635-2.615
            l-4.084,10.176l10.314-5.252l-3.401-0.639l0.298-2.142L142.206,174.621z M136.95,178.707c-0.388,0-0.702,0.315-0.702,0.702
            s0.314,0.702,0.702,0.702c0.387,0,0.697-0.315,0.697-0.702S137.337,178.707,136.95,178.707z M147.226,181.594l-0.868-2.473
            l-3.469,8.857l8.802-3.931l-2.6-0.71l0.369-2.684L147.226,181.594z M140.22,181.62c-0.387,0-0.702,0.314-0.702,0.702
            c0,0.387,0.315,0.702,0.702,0.702s0.697-0.315,0.697-0.702C140.917,181.935,140.607,181.62,140.22,181.62z M142.473,185.003
            c-0.387,0-0.702,0.311-0.702,0.697s0.315,0.702,0.702,0.702s0.697-0.315,0.697-0.702S142.86,185.003,142.473,185.003z
            M138.05,187.077l-2.971,8.39l8.271-4.004l-2.417-0.796c0,0,0.133-1.887-0.095-1.799c-0.145,0.055-1.701,0.489-1.701,0.489
            L138.05,187.077z M145.411,188.08c-0.388,0-0.702,0.311-0.702,0.697c0,0.388,0.314,0.702,0.702,0.702
            c0.387,0,0.702-0.314,0.702-0.702C146.114,188.391,145.798,188.08,145.411,188.08z M134.447,192.116
            c-0.387,0-0.702,0.315-0.702,0.702s0.315,0.702,0.702,0.702c0.388,0,0.702-0.315,0.702-0.702S134.834,192.116,134.447,192.116z
            M137.608,195.363c-0.387,0-0.701,0.311-0.701,0.697s0.314,0.702,0.701,0.702c0.388,0,0.702-0.315,0.702-0.702
            S137.995,195.363,137.608,195.363z M93.988,234c-0.379,0.056-1.363-0.844-1.555-1.267c0.562-0.143,1.141-0.037,1.454,0.226
            C94.147,233.206,94.331,233.838,93.988,234z M96.982,233.394c-0.133,1.024,0.502,2.878,0.381,3.318
            c-0.325,0.159-1.97-1.605-2.375-2.034c-0.085-0.586,0.006-1.329,0.039-1.666C95.592,232.912,96.594,232.949,96.982,233.394z
            M99.945,233.904c0.352,2.271,1.351,5.923,1.195,7.154c-0.148-0.118-1.417-1.368-2.354-2.695c-0.33-0.794-0.843-3.559-0.799-4.882
            C98.619,233.394,99.467,233.495,99.945,233.904L99.945,233.904z M80.098,233.648c-1.012,0.517-2.162,0.888-3.605,0.882
            c-1.158-0.005-3.152-0.605-2.951-0.458c0.527,0.943,1.904,0.449,1.932,1.064c-0.343,0.608-1.258,0.551-1.714,1.134
            c-0.095,0.154,0.135,0.285,0.78,0.218c1.955-0.888,4.511-0.871,6.85-0.103c0.491,0.103,0.169-0.368,0.002-0.493
            c-0.304-0.223-0.806-0.457-1.229-0.507c-2.043-0.363-1.146-0.569,0.222-1.18C81.387,233.838,81.639,232.937,80.098,233.648
            L80.098,233.648z M84.524,236.533c-0.271,0.021-0.952,0.367-1.697,0.669c-1.259,0.509-2.423,0.39-4.116-0.082
            c-1.471-0.409-2.007-0.296-3.471,0.441c-0.971,0.623-2.035,0.797-2.805,0.361c-0.997-0.566-0.99-0.372-0.496,1.029
            c0.123,0.35-0.121,1.409,0.313,1.654c0.33,0.186,0.711-0.434,0.967-0.52c0.255-0.086,1.859,0.634,2.755-0.158
            c1.598-0.579,2.077,0.36,3.184,0.269c1.796-0.633,2.919-1.293,4.462-0.07c0.092-0.457,0.45-2.958,1.024-3.55
            C84.629,236.543,84.586,236.529,84.524,236.533L84.524,236.533z M81.252,243.733c-1.292,0.016-1.992,0.809-3.658,0.657
            c-1.331-0.093-1.787,1.087-1.223,1.947c0.396,0.606,0.929,0.718,2.743-0.114c0.746-0.342,1.783-1.094,2.39-1.033
            c1.774,0.177,2.203,1.893,0.726,3.342c-0.719,0.423-0.726,0.882-0.506,0.89c0.584,0.022,1.767-0.675,2.035-1.488
            C84.494,245.704,83.172,243.693,81.252,243.733z M87.05,253.998c-1.681,0.354-4.104,2.284-4.929,3.533
            c-0.771,1.218-1.509,2.594-0.97,3.274c0.441,0.558,1.059,1.099,1.112,1.401c0.046,0.264-0.314,0.525-0.652,0.903
            c-1.477,1.651-1.125,1.741,0.945,0.67c1.049-0.544,1.537-0.762,2.222-0.583c1.995,0.521,4.48,0.149,6.169-0.471
            c0.764-0.281,1.511-0.661,1.568-0.467c-3.083,3.393-6.928,2.538-8.3,2.332c-0.239-0.062-0.424-0.048-0.423,0.033
            c0,0.166,0.397,0.523,1.245,0.899c1.417,0.629,4.82-0.039,6.948-1.592c4.208-2.753,6.528-5.383,3.212-4.284
            c-1.521,0.504-2.091,0.416-3.938-0.418c-2.77-1.251-4.891-1.618-7.185-0.817c-2.905,1.013-0.677-1.382,2.592-3.458
            C87.376,254.505,87.465,253.99,87.05,253.998L87.05,253.998z M71.378,261.155l-0.969,0.014c-0.693-2.333-2.368-2.329-3.093,0.015
            l-0.81-0.057C67.301,258.217,70.295,257.617,71.378,261.155L71.378,261.155z M88.614,261.347l-0.729,0.033
            c-0.441-1.414-1.997-2.657-3.094-0.341l-0.505-0.104C85.183,257.236,88.755,259.293,88.614,261.347L88.614,261.347z
            M83.759,259.221c0.453,0,0.568,0.515,0.053,1.352c-0.362,0.589-0.794,0.535-1.226,0.091c-0.391-0.391-0.367-0.46,0.058-0.847
            C83.096,259.406,83.488,259.221,83.759,259.221z M89.12,259.236c0.197-0.006,0.572,0.156,0.992,0.298
            c1.104,0.373,1.355,0.682,0.903,1.135c-0.445,0.444-1.289,0.579-1.679,0.326c-0.018-0.556-0.568-0.984-0.587-1.542
            C88.751,259.303,88.924,259.241,89.12,259.236z M71.815,259.254c0.766-0.035,1.793,0.419,1.718,0.861
            c-0.082,0.482-0.837,0.799-1.46,0.852c-0.417,0.055-0.4-0.114-0.51-0.411c-0.098-0.264-0.224-0.602-0.295-0.865
            C71.096,259.183,71.423,259.27,71.815,259.254z M66.576,259.422c0,0-0.429,1.277-0.621,1.713c-1.603-0.086-1.451-0.793-0.693-1.304
            C65.668,259.522,66.08,259.515,66.576,259.422L66.576,259.422z M65.332,262.457c0.29,0.005,0.65,0.256,1.154,0.418
            c1.419,0.457,3.777,0.405,5.616-0.02c0.881-0.203,1.298-0.476,1.491-0.336c0.345,0.249-0.013,1.119-1.284,1.678
            c-1.656,0.611-4.184,0.942-6.098-0.033C64.575,263.329,64.394,262.441,65.332,262.457L65.332,262.457z M64.895,264.284
            c1.501,0.991,3.004,1.305,4.861,1.132c2.78-0.102,3.276-0.444,0.934,0.796c-2.165,1.147-5.503,0.936-6.146-0.308
            C64.176,265.193,64.413,264.344,64.895,264.284z M78.368,265.948c-0.01,0-0.017,0.001-0.023,0.005
            c0.224,1.5,2.743,2.873,3.952,3.197c2.565,1.138,6.644,0.012,9.714-1.312c2.241-0.967,3.05-2.426,0.38-1.597
            c-4.297,1.334-9.69,1.436-12.392,0.399C79.121,266.224,78.519,265.942,78.368,265.948L78.368,265.948z M64.23,271.567
            c5.377,1.213,11.876,9.505,11.852,13.13h-1.736c-2.644-9.223-9.509-11.218-10.181-11.769
            C63.857,271.796,64.242,271.539,64.23,271.567L64.23,271.567z M64.145,273.903c6.39,2.799,8.662,7.792,9.619,10.794h-1.867
            c-1.393-4.13-3.895-7.076-7.767-8.91C63.867,275.211,64.145,273.903,64.145,273.903L64.145,273.903z M64.135,276.729
            c3.274,0.966,6.162,5.276,6.982,7.968l-1.635-0.01c-1.159-3.003-2.801-4.93-5.41-6.039
            C63.965,278.081,63.987,277.442,64.135,276.729L64.135,276.729z M64.082,279.657c1.537,0.31,4.141,2.699,4.516,5.039h-1.5
            c-0.529-1.577-2.165-3.019-3.004-3.606C64.092,280.804,64.082,279.657,64.082,279.657z M64.24,282.156
            c0.165-0.104,2.46,1.964,2.073,2.54c0,0-1.429,0-2.067,0C64.222,284.055,64.207,282.15,64.24,282.156z"/>
        <path fill="#D40000" d="M122.795,27.715C118.899,35.263,98.904,69.257,98.7,70.44l5.121,2.266l24.86-44.817C128.682,27.888,123.53,27.721,122.795,27.715
            L122.795,27.715z M181.494,56.105l-2.322,3.266l1.976,3.582l2.006-3.544L181.494,56.105z M90.156,90.212
            c0,0-7.17,7.124-9.972,10.446c6.023,6.01,17.535,13.556,17.62,25.167l7.938,0.03l25.692,22.979c0,0,23.266,0.169,23.699,0.068
            c0.469-0.108,8.734-11.941,8.734-11.941l14.743,10.748c0,0-0.707-11.576-1.264-18.669c-0.183-4.745-0.34-7.663,3.128-9.763
            c-4.765-2.271-4.463-6.447-0.959-9.514c-1.156-1.598-2.884-1.894-3.144-7.56c-0.729-0.782-1.42-1.24-2.332-1.904l-0.952,0.851
            c-3.06,2.747-5.144,5.548-5.486,7.372c-0.654,3.472,2.871,5.85,4.909,3.313c0.574-0.715,1.087-0.515,1.087,0.418
            c0,1.893-2.381,2.962-4.396,1.977c-0.471-0.23-0.886-0.384-0.928-0.342c-0.073,0.073,1.998,5.146,2.558,6.266
            c0.932,1.862,1.419,3.731,1.491,5.688c0.077,2.09,0.035,2.357-0.942,5.968c-0.921,3.401-0.487,5.424,1.159,5.424
            c0.926,0,0.897,0.891-0.039,1.217c-1.989,0.693-3.224-0.772-3.294-3.904c-0.042-1.903-0.075-1.95-1.053-1.491
            c-3.402,1.6-7.098-1.259-5.496-4.25c0.336-0.629,0.733-0.431,0.942,0.466c0.392,1.683,1.272,2.425,2.865,2.419
            c3.672-0.014,5.21-5.201,3.093-10.425c-0.426-1.049-0.64-0.989-1.197,0.336c-0.876,2.079-2.344,2.691-3.554,1.481
            c-0.406-0.405-0.603-1.064-0.327-1.097c0.063-0.007,0.468-0.024,0.895-0.038c2.139-0.068,2.878-2.144,1.875-5.266
            c-0.881-2.743-1.017-3.24-1.279-4.727c-0.405-2.298-0.122-4.042,1.015-6.271c0.201-0.394,1.456-1.796,3.016-3.371
            c1.592-1.608,2.962-2.842,2.962-2.842s-0.806-0.694-1.897-1.515c-2.301-1.729-2.707-2.025-2.707-2.025s-10.934,30.02-10.159,41.716
            c-1.387,15.41-12.716,11.146-13.55,0.475L90.156,90.212z M89.669,94.713c3.736-0.062,6.2,4.88,7.607,15.133
            c0.466,3.397,2.536,8.156,4.039,9.28c3.79,2.838,9.723,0.651,9.728-3.587c0.006-5.275-7.401-6.058-7.516-0.793
            c-0.027,1.24-0.664,1.305-1.274,0.125c-0.545-1.054-0.054-3.021,1.005-4.016c0.679-0.637,0.626-0.757-0.668-1.472
            c-4.507-2.487-6.424-6.197-4.016-7.775c1.054-0.689,2.493,0.183,1.832,1.111c-1.032,1.45-1.045,1.681-0.183,2.885
            c0.98,1.369,2.143,2.053,4.9,2.866c2.314,0.683,2.695,0.811,3.765,1.298c3.13,1.427,4.56,4.567,3.467,7.617
            c-0.258,0.72-0.508,1.429-0.558,1.577c-0.112,0.335,0.071,0.337,2.274,0.043c3.506-0.467,7.4,0.786,9.319,2.996
            c1.031,1.188,1.858,3.858,1.885,6.088c0.005,0.429,0.138,1.398,0.298,2.154c0.161,0.756,0.375,2.033,0.472,2.837
            c0.917,7.628,7.268,11.528,10.012,6.15c1.727-3.385-2.267-6.771-4.299-3.646c-0.714,1.099-1.45,0.594-1.039-0.711
            c0.8-2.536,3.966-2.967,6.121-0.832c1.166,1.154,1.726,3.772,1.159,5.434c-0.297,0.872-0.266,0.927,0.38,0.702
            c1.449-0.505,3.953-0.02,4.852,0.942c2.118,2.266,1.693,4.985-0.913,5.866c-1.186,0.397-2.527-0.016-2.967-1.404
            c-0.193-0.989,0.488-1.274,1.015-0.423c0.985,1.595,3.132,0.31,2.625-1.572c-0.576-2.141-2.406-2.596-5.784-1.433
            c-5.371,1.848-7.104,1.693-9.676-0.861c-1.835-1.823-2.525-3.398-3.02-6.876c-0.546-3.84-0.598-3.939-1.548-3.131
            c-4.545,3.867-10.549-1.977-6.698-5.818c1.189-1.19,2.066-0.153,0.995,1.179c-1.564,1.943,0.475,4.65,3.029,4.02
            c4.651-1.147,3.702-7.955-1.332-9.545c-1.534-0.484-5.75-0.284-8.992,0.428c-9.054,1.987-13.054-1.877-14.916-14.396
            c-0.218-1.463-0.473-2.544-1.332-5.693c-1.021-3.736-4.488-5.765-6.381-3.731c-1.51,1.621-0.716,3.803,1.385,3.808
            c2.094,0.006,1.452,1.441-0.731,1.636c-3.788,0.336-4.447-5.97-0.812-7.776C88.066,94.955,88.894,94.726,89.669,94.713z
            M40.23,97.041l1.175,4.486l4.681,1.322l-1.484-4.27L40.23,97.041z M52.239,98.38l-1.257,4.061l3.549-0.87l1.157-4.235
            L52.239,98.38z M90.746,105.028c0.743,0,1.346,0.604,1.346,1.347c0.001,0.743-0.603,1.347-1.346,1.347
            c-0.744,0-1.347-0.604-1.347-1.347S90.002,105.028,90.746,105.028z M45.62,107.45l-3.691,1.292l-0.711,3.219l3.863-0.995
            L45.62,107.45z M54.426,108.468l-3.015-0.521l0.848,3.324l3.193,1.305L54.426,108.468z M185.335,108.213l-1.938,1.509
            c5.652,4.914-0.449,9.648-0.639,9.328c4.087,2.704,3.358,6.971,2.828,10.877c-0.967,6.969-1.344,13.56-2.399,20.701
            c0,0,4.924,3.397,8.198,4.712c0.062,0.008,0.02-41.901,0.02-41.901L185.335,108.213z M115.577,114.525
            c0.744,0,1.347,0.603,1.347,1.347c0,0.743-0.603,1.347-1.347,1.347c-0.743,0-1.346-0.604-1.346-1.347
            C114.232,115.127,114.834,114.525,115.577,114.525z M32.926,117.971l0.169,39.107l8.095-14.476l-5.569-6.425l4.814-5.14
            L32.926,117.971z M111.75,123.931c0.743,0,1.347,0.603,1.347,1.346c0,0.744-0.604,1.347-1.347,1.347
            c-0.744,0-1.347-0.603-1.347-1.347C110.404,124.533,111.006,123.931,111.75,123.931z M130.129,127.931
            c0.743,0,1.346,0.604,1.346,1.347c0,0.744-0.603,1.347-1.346,1.347c-0.744,0-1.347-0.603-1.347-1.347
            C128.782,128.534,129.385,127.931,130.129,127.931z M182.773,171.497l5.946,6.103l-4.645,5.783l7.313,12.41l-0.118-38.396
            L182.773,171.497z M32.851,158.654l0.283,42.062l6.358,4.638l1.612-1.522c-4.104-4.382-1.652-7.642,1.44-9.527
            c-5.457-1.271-3.8-8.508-3.475-11.861c-0.133-6.227,2.149-13.331,1.446-19.317L32.851,158.654z M69.471,164.5l-9.112,12.696
            c0,0-10.014-7.584-15.062-11.006c0.54,5.479,1.032,12.469,1.702,18.362c1.638,8.605-2.625,8.754-2.664,9.577
            c6.775,5.142,1.089,9.951,0.069,9.709c3.608,1.965,3.311,7.934,3.311,7.934l1.712,0.968c0,0,0.557-0.339,0.793-0.466
            c1.83-0.985,4.813-4.494,5.496-6.81c1.159-3.926-2.251-7.187-4.395-4.202c-1.054,1.466-1.897,0.485-1.034-1.202
            c0.788-1.541,2.845-2.314,4.212-1.582c0.796,0.425,0.618-0.679-0.61-3.771c-0.412-1.037-0.747-2.168-1.327-4.462
            c-0.562-2.22-0.343-4.895,0.63-7.617c1.402-3.925,0.905-6.388-1.342-6.603c-1.198-0.114-1.328-0.489-0.351-1.043
            c2.182-1.236,4.298,0.523,4.212,3.505c-0.046,1.613-0.028,1.641,0.822,1.299c4.307-1.728,7.709,2.741,4.698,6.17
            c-0.92,1.047-1.5,0.383-0.895-1.024c0.936-2.175,0.045-3.725-2.145-3.741c-3.176-0.024-4.934,4.363-3.684,9.189
            c0.391,1.506,0.451,1.524,1.506,0.519c0.936-0.893,1.636-1.179,2.36-0.961c1.504,0.449,1.898,2.049,0.457,1.851
            c-2.476-0.34-3.127,2.254-1.727,6.867c1.858,6.121-0.022,11.108-5.52,14.656c-0.278,0.18-0.722,0.524-0.722,0.524
            c2.121,1.89,3.477,2.963,6.279,4.669l10.004-40.424c0,0-0.169-2.296-0.415-3.378c-0.008-10.851,10.116-11.89,13.284-2.037
            c0.305,0.945,1.915,3.361,1.915,3.361l52.705,46.771c0,0,9.84-9.509,9.705-9.761c-7.476-7.534-17.571-12.86-17.938-24.814
            c-1.791-0.052-7.78,0.059-7.78,0.059l-25.627-23.505C84.952,164.828,77.819,164.253,69.471,164.5L69.471,164.5z M83.831,165.381
            c1.407-0.045,2.827,0.687,2.827,1.86c0,1.013-0.678,1.245-1.24,0.424c-0.785-1.148-1.697-1.24-2.626-0.265
            c-2.572,2.703,1.425,5.175,6.021,3.722c2.814-0.89,4.178-1.13,5.208-0.924c4.342,0.871,6.438,3.801,6.809,9.507
            c0.188,2.901,0.184,2.891,1.438,1.741c3.054-2.799,7.468-1.241,8.155,2.88c0.295,1.769-1.609,3.996-3.419,3.996
            c-0.71,0-0.598-0.741,0.168-1.105c1.841-0.878,1.913-3.78,0.125-4.915c-2.374-1.505-5.501,0.843-5.462,4.102
            c0.046,3.918,2.972,5.723,8.751,5.391c0.847-0.048,2.971-0.148,4.718-0.221c2.76-0.118,5.727-0.638,8.54,1.485
            c2.945,2.343,4.9,7,5.736,13.729c1.317,8.282,2.335,10.502,5.116,10.701c1.65,0.117,3.049-1.288,3.049-2.921
            c0-1.15-1.522-2.165-2.679-1.783c-1.395,0.46-1.677-1.052-0.303-1.626c1.904-0.795,4.229,0.737,4.746,3.131
            c0.302,1.395-1.272,4.07-2.923,4.737c-4.307,1.741-7.369-1.815-8.377-9.777c-0.619-3.65-0.958-6.112-2.097-9.232
            c-2.09-5.743-5.522-8.113-9.262-6.396c-4.233,1.945-3.394,8.284,1.092,8.237c2.464,0.195,2.98-1.615,3.031-3.554
            c0.058-1.431,1.679-0.088,1.817,0.896c0.133,1.193-0.938,2.671-1.883,3.37c-1.526,1.022-0.983,0.958,0.578,1.369
            c4.198,0.773,7.319,6.329,4.809,8.216c-1.304,0.796-2.69-0.375-1.785-1.524c1.438-1.828-0.996-4.716-5.425-5.687
            c-5.801-1.271-8.11-5.588-6.019-10.025c0.692-1.468,0.752-1.435-2.077-1.274c-6.226,0.352-8.437-0.509-10.526-4.116
            c-0.631-1.089-0.909-2.545-1.043-5.438c-0.24-5.18-0.713-8.387-1.366-9.29c-3.232-4.472-9.958-3.134-9.117,1.812
            c0.442,2.598,3.125,3.43,4.958,1.539c1.384-1.429,2.029-0.102,0.678,1.395c-3.251,3.598-8.908-0.603-7.228-5.366
            c0.385-1.091,0.437-1.056-1.648-1.116c-4.641-0.134-6.848-4.104-3.857-6.929C82.365,165.641,83.094,165.404,83.831,165.381
            L83.831,165.381z M95.026,182.422c0.744,0,1.347,0.604,1.347,1.347s-0.603,1.347-1.347,1.347c-0.743,0-1.347-0.604-1.347-1.347
            S94.282,182.422,95.026,182.422z M113.678,187.202c0.744,0,1.347,0.603,1.347,1.347c0,0.743-0.603,1.346-1.347,1.346
            c-0.743,0-1.346-0.603-1.346-1.346C112.332,187.805,112.935,187.202,113.678,187.202z M109.673,195.988
            c0.743,0,1.346,0.603,1.346,1.347c0.001,0.743-0.603,1.346-1.346,1.346c-0.744,0-1.347-0.603-1.347-1.346
            C108.326,196.59,108.929,195.988,109.673,195.988z M168.949,201.224l0.853,3.982l3.091,0.813l-0.482-3.412L168.949,201.224z
            M179.759,202.603l-0.066,2.361l2.748,0.323l0.973-4.071L179.759,202.603z M133.611,206.167c0.743,0,1.346,0.603,1.346,1.347
            c0,0.743-0.603,1.347-1.346,1.347c-0.744,0-1.347-0.604-1.347-1.347C132.264,206.77,132.866,206.167,133.611,206.167z
            M173.087,211.653l-3.231,0.896l-1.553,4.487l4.137-1.498L173.087,211.653z M179.407,212.057l0.396,3.324l3.98,1.8l-1.346-4.739
            L179.407,212.057z M120.731,240.399l-24.714,44.679l6.753-0.094l23.326-42.129L120.731,240.399z M43.001,251.214l-2.183,2.938
            l2.072,3.409l2.381-3.424L43.001,251.214z"/>
        <path fill="#000000" d="M84.997,26.597c4.551,13.796,4.974,27.393,1.024,40.456c2.25,0.114,12.066,2.632,17.47,5.966
            c-1.001,2.572-16.318,21.41-26.717,29.901c2.956,2.927,6.209,5.854,9.627,9.079c5.171,4.905,6.997,8.283,7.338,14.651
            c-0.046,3.075-1.148,6.869-3.106,9.555c-1.479,2.031-3.051,3.592-6.203,5.68c-2.907,1.926-7.157,6.069-12.502,12.18
            c-2.037,2.33-5.477,6.572-8.324,10.617c-1.077,1.471-4.25,6.061-4.25,6.061c-10.583-8.637-21.916-15.298-22.206-15.247
            c0,0,11.434-6.094,13.839-7.336c1.848,1.186,4.356,0.172,3.152-2.438c-2.314-5.938-0.7-12.049,2.142-16.315
            c0.681-1.028,2.32-1.628,4.973-1.813c1.151-0.074,2.367-0.037,3.587-0.053c0.439,0,1.625,0.17,2.274,0.524
            c2.162,1.181,2.595-0.338,3.943-5.448c1.341-5.085-0.817-11.515-3.896-11.536c-0.724-0.005-1.129,0.262-0.98,2.071
            c0.112,1.365-0.216,2.073-0.567,2.935c-0.768,1.879-1.176,3.719-1.42,6.17c0.45,0.091-2.857-3.291-8.067-4.631
            c-3.387-0.4-5.105-4.617-4.963-4.626c0,0,0.507-1.142,0.952-1.587c1.156,0.554,2.293,1.203,3.664,1.606
            c0,0-0.315-1.694-0.438-2.149c-0.629-2.355-0.595-2.714,0.312-3.203c2.251-1.212,2.488-3.38,0.731-5.352
            c-0.444-0.505-0.818-0.828-1.414-1.082l1.11-4.424c0,0-1.018,0.219-1.832,0.466c-2.354,0.716-2.179,0.74-3.183-0.403
            c-2.186-2.489-5.522-2.016-6.021,0.855c-0.056,0.317-0.202,0.822-0.202,0.822l-5.023-2.438c0.146,1.179,1.452,5.169,1.452,5.169
            c-4.396,3.414-0.682,6.438,0.518,6.757c0,0-1.026,3.268-1.38,4.625l4.957-1.416c0.417,0.944,0.93,1.661,1.961,2.322
            c0.269,2.789,2.418,5.037,3.898,6.39c0,0,0.213,1.021,0.085,1.673c-0.32,1.621,1.328,4.188,1.606,4.342
            c-6.803-2.782-13.894-6.122-20.74-9.4l0.428,84.146c0,0,1.595,1.428,4.756,3.693c1.52,1.088,1.519,1.092,1.202,2.347
            c-0.417,1.653-0.313,2.915,1.097,13.8c0.747,5.757,1.561,11.727,2.289,17.081c0.289,1.949,0.329,3.201,0.329,3.201
            c-1.512-0.7-3.712-0.771-4.85,0.506c-1.962,2.235-0.392,5.833,2.515,5.756c0.661-0.04,1.109-0.232,1.679-0.62
            c0.394-0.211,0.8-0.027,0.8-0.027l-4.338,7.622l4.994,8.408l4.981-8.992l-3.623-7.112c0,0,0.354-0.039,0.845,0.207
            c0.487,0.245,1.142,0.431,1.597,0.457c2.527,0.02,3.046-1.133,3.312-3.207c0-2.67-2.125-3.877-5.049-2.871
            c-0.459,0.158-0.966,0.202-0.966,0.202l3.067-29.347l1.645,1.206l0.538-0.293l-1.438-1.227c0.312-4.702-1.239-6.367-2.914-7.506
            c5.603-3.187,3.174-8.225-0.551-9.775c0,0,2.42-1.415,2.905-2.898c0.413-1.327,0.259-3.431-0.21-7.162
            c-0.35-5.752-1.586-17.638-1.586-17.638c4.895,3.69,9.92,7.641,14.646,11.372l9.473-13.166l22.832,0.159
            c0,0,17.353,15.755,26.086,23.788l7.54,0.067c0,0,0.083,0.807,0.159,1.342c0.715,7.779,5.933,13.122,10.685,16.868
            c1.937,1.74,6.723,6.31,6.723,6.31l-8.872,8.943l-54.328-48.523c0,0-0.26-0.708-0.365-1.14c-1.255-5.14-4.66-7.291-7.756-6.929
            c-3.249,0.38-6.021,3.579-5.881,9.025c0.021,0.843,0.326,2.327,0.326,2.327l-9.925,41.34c0,0-3.969-3.029-6.111-4.486l-0.472,0.273
            l5.809,4.367l0.434-0.188l1.648,1.288l0.125,0.88c5.082,3.458,13.7,9.911,13.7,9.911c4.068-3.023,8.345-2.013,12.628-0.876
            c0,0,3.113,1.041,4.77,1.034c8.416,0.189,15.869,1.824,23.692,4.65l-28.516,50.548l54.318,0.11
            c-2.678-10.58-5.521-21.326-0.438-39.373c-5.356-1.081-17.268-5.847-17.268-5.847s-0.057-0.271,0.447-0.89
            c2.201-3.149,7.77-11.684,12.988-16.619c0.635-0.454,9.73-9.28,9.818-9.56c0.05-0.156,0.269-0.752,0.626-0.985
            c0.838-0.56,3.066-2.666,3.066-2.666l-11.382-9.87c0,0-0.501-0.048-0.663-0.139c-1.589-0.889-4.458-5.847-5.164-9.166
            c-1.625-7.635,1.376-13.672,9.844-19.869c8.267-5.661,23.943-27.634,23.994-28.121c8.453,6.998,15.053,10.621,22.489,15.211
            c-4.492,2.577-8.155,4.301-11.299,6.005c-2.04,1.164-2.321,1.407-4.044,0.919c-1.953,0.016-2.621,0.769-2.126,2.452
            c2.956,4.671,1.688,15.545-2.31,17.642c-3.47,1.819-6.843,1.326-9.63,0.294c-2.151-0.688-2.123-0.696-3.083,1.256
            c-2.109,4.494-2.245,8.279-0.298,12.589c1.599,3.46,3.974,5.037,4.266,0.372c0.172-2.739,1.379-5.94,1.341-8.884
            c2.424,2.675,4.029,3.897,8.007,4.986c2.667,0.415,5.5,3.761,5.412,5.125c-0.732,0.739-0.955,1.685-1.073,1.617
            c-1.3-0.424-4.113-1.621-4.113-1.621l1.198,4.232c0,0-0.198,0.191-0.774,0.485c-2.648,1.351-2.477,5.003,0.303,6.463
            c0.566,0.297,0.606,0.438,0.365,1.217c-0.345,1.735-1.104,2.9-1.515,4.621c0,0,0.378,0.014,3.549-1.452l1.245-0.577l0.751,0.803
            c1.642,1.756,3.615,1.745,5.337-0.029l0.789-0.812l2.202,1.116c2.075,1.052,2.621,1.27,2.621,1.27s-1.197-4.644-1.419-5.175
            c-0.12-0.287-0.364-0.578-0.543-0.644c-0.297-0.11-0.249-0.18,0.538-0.804c1.996-1.582,2.196-3.765,0.495-5.424
            c-0.648-0.633-0.73-0.765-0.73-0.765l1.033-4.304l-4.287,1.42c-0.676-1.438-1.751-2.094-2.43-2.387
            c-0.073-1.942-0.316-3.938-3.654-6.975c1.125-1.026-0.213-3.502-1.314-4.986c1.878,0.631,6.573,2.616,6.573,2.616l0.709-0.028
            l2.241,1.074l0.263,0.398c0,0,7.053,3.328,10.291,4.886c-0.009-0.174-0.034-3.657-0.044-42.003
            c-0.005-22.862,0.032-41.667-0.014-41.787c-0.047-0.121-0.821-0.715-1.626-1.322c-1.484-1.121-1.788-1.34-3.674-2.597
            c-1.513-1.01-1.41-1.001-1.096-2.164c0.36-1.336,0.353-3.172-0.125-6.612c-0.354-2.539-1.633-11.469-2.524-18.677
            c-0.626-5.056-0.774-6.178-0.929-6.991c-0.248-2.048,0.019-2.939-0.026-2.97c7.082,3.067,7.641-7.104,0.541-5.731
            c1.358-2.739,2.503-4.011,3.667-6.937c-1.48-3.188-4.759-8.578-4.759-8.578l-5.188,9.035l3.054,6.251
            c-3.513-0.633-5.377,1.924-4.727,4.217c0.706,2.028,2.65,2.597,4.366,1.779c1.321-0.521,1.319-0.653,0.148,9.257
            c-0.346,2.93-1.885,16.633-2.096,18.672c-0.143,1.369-0.231,1.75-0.789,1.447c-0.756-0.325-1.188-0.799-1.947-1.298l-0.423,0.394
            c0.674,0.547,1.472,1.254,2.288,2.004c-0.188,3.629-0.113,5.731,2.907,7.502c-5.476,3.433-2.273,8.713,0.942,9.476
            c-1.917,0.495-3.808,2.961-3.35,7.86l1.554,20.191l-14.845-11.021l-8.713,12.469l-22.956,0.029l-25.895-23.365
            c0,0-5.677-0.077-8.007-0.135c0.265-0.123-0.488-7.223-4.236-11.857c-4.073-4.843-13.345-12.837-13.339-12.84l9.737-9.886
            l54.67,49.206c0,0,0.265,1.394,0.403,1.986c1.828,7.769,10.666,8.239,12.546,0.327c0.304-1.278,0.67-4.253,0.534-4.606
            c-0.044-0.114,0.23-1.412,0.61-2.886c2.938-11.526,5.442-21.469,8.333-32.535c0.398-1.523,0.821-3.22,0.938-3.77
            c0.477-2.245,0.405-2.231,2.756-0.462c1.438,1.084,2.034,1.472,2.034,1.472l0.456-0.477c-1.613-1.249-4.375-3.241-4.375-3.241
            l0.028-0.846c-8.876-6.356-10.704-8.044-15.96-12.209c-4.072,3.586-9.896,2.134-13.546,0.865c-0.939-0.37-3.25-0.971-3.25-0.971
            c-9.091,0.012-17.077-1.743-24.62-4.208l29.082-51.789l-11.232,0.001l-0.393,0.44h-5.845l-0.019-0.44L84.997,26.597z
            M192.249,196.924c0.001,0.032,0.005,0,0.005,0H192.249z M118.149,27.767l3.977,0.077L98.592,69.832l-2.501-0.977
            c0,0,0.229-0.12,0.227-1.89c-0.004-1.899-0.414-2.711-1.27-3.832c-0.717-0.971-1.022-1.024,1.077-0.735
            c4.291,0.589,7.34-4.076,5.636-7.719c-0.658-1.404-0.565-1.49,1.173-1.663c4.786-0.478,6.647-6.549,3.261-9.574
            c-0.7-0.634-0.388-1.037,0.918-0.755c4.141,0.894,7.348-3.697,5.703-7.295c-0.536-1.003-0.054-1.17,0.702-1.27
            C117.063,33.292,118.269,30.508,118.149,27.767L118.149,27.767z M86.431,27.772l18.422,0.005c-2.479,3.791,1.897,6.036,2.452,5.77
            c-3.972,2.17-2.882,5.227-0.821,6.277c1.998,1.019,4.996,0.102,4.197-4.311l0.985-0.428c0.959,1.084,1.909,7.802-5.4,6.867
            c-1.301-0.167-2.007,1.048-0.918,1.721c5.775,6.641-3.266,9.575-3.659,8.474l-0.03-1.124c2.444,0.449,5.573-2.701,2.83-5.502
            c-1.56-1.593-6.084-0.816-5.31,4.016c-2.672-3.991-5.589-2.787-6.376-0.679c-0.609,1.635,0.166,3.873,2.832,4.254
            c-2.977,2.493-1.531,5.275,0.515,5.89c2.259,0.679,4.565-0.242,3.942-4.345c0.035-0.389,0.824-0.262,0.89-0.284
            c2.335,5.827-3.247,7.969-6.261,6.766c-1.117-0.435-1.701,1.287-0.515,2.164c1.8,1.331,1.244,5.16,1.033,5.198
            c-3.347-1.27-8.143-2.208-7.963-2.137C90.474,53.717,90.267,40.858,86.431,27.772L86.431,27.772z M115.802,27.777l1.663,0.005
            c0.022,2.381-1.012,5.313-5.077,5.765c0.018-0.638-0.028-1.243-0.192-1.918C113.72,31.282,115.742,31.706,115.802,27.777z
            M123.068,27.906l5.313,0.023l-25,44.374l-3.996-2.054L123.068,27.906z M109.959,31.272c0.939,0,1.702,0.759,1.702,1.697
            c0,0.939-0.763,1.703-1.702,1.703c-0.938,0-1.697-0.764-1.697-1.703C108.262,32.031,109.021,31.272,109.959,31.272z M99.303,50.622
            c0.869,0,1.573,0.703,1.573,1.572s-0.704,1.577-1.573,1.577s-1.572-0.708-1.572-1.577S98.434,50.622,99.303,50.622z
            M181.603,51.877l4.231,7.366l-4.828,8.55l-4.029-8.193L181.603,51.877z M181.526,54.387l-2.977,4.914l2.703,5.035l3.072-4.785
            L181.526,54.387z M181.583,56.493l1.539,2.972l-1.87,3.015l-1.554-3.188L181.583,56.493z M177.482,66.476
            c0.32,0.001,0.662,0.069,1.015,0.217c2.851,1.19,1.942,5.524-1.102,5.256c-0.401-0.042-0.93-0.247-1.312-0.505
            C173.971,69.711,175.242,66.47,177.482,66.476z M184.449,66.558c2.493,0.045,3.995,3.513,1.37,5.136
            c-1.266,0.705-3.159,0.277-3.904-0.977c-0.639-1.075-0.363-2.869,1.067-3.799C183.492,66.658,183.988,66.549,184.449,66.558z
            M180.988,71.506c0.249,0.021,0.52,1.23,0.77,3.332c0.09,0.762,0.333,2.666,0.538,4.231c0.393,3.349,0.797,6.467,1.145,9.694
            c0.068,0.635,0.24,1.985,0.38,3c1.442,10.484,1.769,13.833,1.428,14.725c-0.909,3.126-5.175,3.364-6.958,1.548
            c-1.347-1.372-1.545-2.88-1.015-6.809c0.307-2.269,0.433-3.409,1.332-12.079c0.211-2.031,0.516-4.731,0.679-6.001
            c0.356-3.393,0.778-6.571,1.24-9.916C180.658,72.035,180.817,71.491,180.988,71.506z M111.123,79.295c0,0,13.663,4.504,24.058,4.3
            c1.525-0.002,1.773-0.015,3.673,0.605c1.127,0.368,2.9,0.866,3.938,1.106c3.205,0.62,6.021,0.445,8.517-0.572
            c0.392-0.16,0.968-0.643,1.548-0.467c0.354,0.107,0.87,0.812,0.87,0.812c-9.101,2.417-30.393,1.971-43.647-3.616L111.123,79.295z
            M181.319,80.729c-0.057,0.01-0.115,0.087-0.183,0.192c-0.223,0.352-0.038,2.658,0.789,9.997
            c1.58,14.018,1.573,14.317-0.342,15.791c-0.941,0.725-1.087,1.016-0.635,1.279c0.337,0.196,0.31,0.195,0.996,0.005
            c1.61-0.447,2.277-1.727,2.265-4.337c-0.01-1.991-0.033-2.23-0.654-7.122c-0.215-1.692-0.508-4.081-0.654-5.309
            C181.864,82.493,181.625,80.678,181.319,80.729z M109.747,82.196c13.603,4.871,27.815,6.25,44.946,3.621
            c0,0,1.647,1.066,2.477,1.591l-0.577,0.135l0.26,2.366l2.909-0.467c0,0,1.573,1.252,2.746,2.02
            c-15.275,4.664-39.945,3.86-55.165-2.904c-0.579-0.334-0.918-0.601-0.918-0.601c0.328-0.807,0.726-1.286,1.13-1.736l2.779,0.794
            l0.803-2.534l-2.125-0.774L109.747,82.196z M113.311,85.23l-0.89,2.495l3.886,1.154l0.663-2.549L113.311,85.23z M119.254,86.773
            l-0.515,2.842l3.9,0.722l0.485-2.765L119.254,86.773z M125.707,88.105l-0.308,2.741l4.136,0.438l0.255-2.774L125.707,88.105z
            M154.131,88.149l-3.52,0.385l0.221,2.413l3.559-0.418L154.131,88.149z M147.923,88.846l-3.491,0.23l0.12,2.529l3.511-0.221
            L147.923,88.846z M132.195,88.899l-0.005,2.688l3.577,0.135l0.044-2.745L132.195,88.899z M142.032,89.235l-3.299,0.015
            l-0.014,2.559l3.332,0.015L142.032,89.235z M103.785,89.687c0.355-0.011,1.169,0.782,1.505,1.669
            c0.661,1.744,0.357,3.678-0.678,4.318c-1.41,0.871-3.067-0.493-2.097-1.727c0.171-0.218,0.447-0.438,0.615-0.49
            c0.725-0.23,0.895-1.372,0.5-3.347C103.573,89.819,103.646,89.692,103.785,89.687z M109.06,90.356
            c14.724,4.82,31.432,6.439,48.645,2.914c0,0-8.157,33.312-8.334,33.328L109.06,90.356z M101.842,90.456
            c0.775,0,0.916,1.315,0.217,2.015c-0.893,0.894-2.596,0.177-2.241-0.942C99.921,91.203,101.33,90.456,101.842,90.456z
            M106.073,91.231c0.161-0.012,0.465,0.307,0.947,0.957c1.654,2.227,1.784,4.714,0.304,5.847c-1.736,1.329-3.005-0.732-1.559-2.534
            c0.375-0.466,0.43-1.328,0.207-3.235C105.894,91.585,105.913,91.242,106.073,91.231z M163.166,92.033
            c0.19-0.006,0.527,0.141,1.202,0.472c1.056,0.517,1.422,1.272,0.914,1.885c-0.738,0.89-2.762-0.872-2.38-2.072
            C162.96,92.135,163.019,92.038,163.166,92.033z M161.579,93.193c0.265,0.026,0.688,0.511,1.179,1.495
            c0.314,0.633,0.498,0.813,1.029,1.005c1.259,0.455,1.492,1.759,0.385,2.146c-1.203,0.419-2.1-0.445-2.65-2.559
            C161.159,93.886,161.24,93.158,161.579,93.193z M108.911,94.125c0.183-0.011,0.532,0.398,1.086,1.217
            c1.646,2.429,1.079,7.091-0.995,8.18c-0.914,0.479-1.551,0.377-2.284-0.356c-1.071-1.071-0.808-1.919,0.784-2.505
            c1.355-0.498,1.793-2.041,1.375-4.848C108.71,94.692,108.704,94.138,108.911,94.125L108.911,94.125z M116.749,94.895
            c10.055,8.292,19.133,17.181,30.833,27.559c2.778-8.549,6.829-26.298,6.842-26.356C153.983,96.462,134.771,99.188,116.749,94.895z
            M154.424,96.097c0.01-0.008,0.013-0.014,0.005-0.02L154.424,96.097z M160.661,94.919c0.167,0,0.652,1.247,0.928,2.385
            c0.25,1.031,1.246,2.758,1.63,2.822c1.982,0.336,2.826,1.44,1.847,2.419c-0.719,0.719-2.274,0.312-3.024-0.788
            C160.632,99.69,159.67,94.919,160.661,94.919z M48.467,96.064c1.195,0.009,2.345,0.763,2.635,2.317
            c0.338,1.809-0.685,3.124-1.55,2.913c-0.94-0.352-1.26-1.841-1.26-1.841s-0.224,1.215-0.609,1.827
            c-0.843,1.287-2.615-0.624-2.298-2.477C45.695,96.995,47.112,96.052,48.467,96.064z M120.033,96.539
            c10.95,1.646,20.371,2.072,33.435,0.654l-6.155,23.898L120.033,96.539z M111.763,96.577c0.162,0.011,0.495,0.303,1.015,0.852
            c1.701,1.8,2.192,4.296,1.086,5.535c-0.673,0.754-1.126,0.841-1.842,0.351c-0.913-0.626-0.982-1.567-0.144-2
            c0.771-0.399,0.84-1.274,0.23-2.934C111.655,97.144,111.526,96.563,111.763,96.577z M40.326,97.194l4,1.658l1.434,3.381
            l-3.991-1.029L40.326,97.194z M55.453,97.641l-1.188,3.365l-3.077,1.149l1.197-3.64L55.453,97.641z M159.815,98.348
            c0.148-0.003,0.368,0.423,0.635,1.303c0.661,2.178,0.941,2.728,1.544,3.015c0.981,0.469,1.054,1.659,0.125,2.082
            c-0.589,0.269-0.783,0.214-1.202-0.336c-0.653-0.856-1.179-2.496-1.274-3.968C159.553,99.065,159.624,98.35,159.815,98.348z
            M115.278,99.867c0.116-0.009,0.286,0.162,0.539,0.461c1.554,1.848,1.723,4.682,0.331,5.53c-1.348,0.821-3.233-0.874-2.058-1.852
            c0.105-0.088,0.349-0.284,0.543-0.433c0.327-0.25,0.355-0.396,0.385-2C115.039,100.382,115.084,99.88,115.278,99.867z
            M127.086,100.064l19.153,17.406l4.397-17.219C143.072,100.93,135.168,100.729,127.086,100.064z M80.035,100.94
            c6.051,6.389,13.969,11.554,15.849,17.907c3.371,8.745,0.899,18.892-6.991,24.696c-4.355,3.296-8.624,6.766-12.176,10.954
            c-5.826,6.203-9.715,12.98-13.608,17.897c-0.659,0.827-2.399,3.429-2.399,3.429s-0.852,0.974-3.697-1.413
            c-7.552-6.715-15.476-11.585-23.543-16.225l3.414-1.909c6.735,3.84,15.107,9.306,22.639,15.676c0,0,5.989-8.746,7.9-11.252
            c2.771-3.597,4.719-5.913,7.3-8.693c6.591-8.138,13.397-10.83,16.229-14.95c4.148-6.037,4.326-13.193,0.914-19.302
            c-3.365-5.829-9.907-9.826-14.253-14.652L80.035,100.94z M137.469,101.41h7.487c0,0-1.1,0.917-1.942,1.481
            c-0.529,0.354-1.147,0.305-2.313-0.183C139.569,102.235,137.469,101.41,137.469,101.41z M146.043,101.41l1.745,0.053
            c-1.305,1.64-2.643,2.697-4.395,4.155c-0.227,0.097-0.353,0.137-0.88-0.034c-3.579-1.184-6.863-2.688-10.349-4.111l3.106-0.015
            c0,0,1.495,0.478,3.741,1.409c2.575,1.068,3.243,1.396,4.236,0.745C144.207,102.976,145,102.017,146.043,101.41z M149.577,101.41
            l-0.625,2.294c-1.044,1.304-3.156,2.808-4.919,4.289c-0.414,0.216-0.4,0.255-2.207-0.447c-6.655-2.584-9.872-4.265-9.872-4.265
            l-1.352-1.207c0,0,1.735,0.496,2.88,0.947c0.781,0.308,2.111,0.812,2.958,1.125c0.846,0.312,2.718,1.108,3.967,1.602
            c2.881,1.137,2.722,1.171,5.481-1.265C148.878,101.845,149.577,101.41,149.577,101.41z M48.755,101.622l2.904,3.327l-3.871,3.256
            l-2.923-3.443L48.755,101.622z M158.956,101.625c0.668,1.25,1.116,2.729,2.2,3.781c0.816,0.778,1.02,1.379,0.535,1.817
            c-1.263,0.781-1.481-0.48-1.872-1.304C159.131,104.468,158.29,102.506,158.956,101.625z M53.929,101.958
            c0.074-0.002,0.149-0.001,0.227,0c3.097,0.047,3.828,4.624,0.913,5.723c-1.044,0.394-2.247,0.215-2.895-0.433
            c-0.629-0.629-0.717-1.16-0.285-1.489c0.672-0.478,2.271-0.511,2.271-0.511s-1.451-0.492-2.099-0.854
            C50.787,103.668,51.891,102.04,53.929,101.958L53.929,101.958z M117.697,101.963c0.175,0.01,0.477,0.366,0.903,1.072
            c1.562,2.581,1.48,7.49-0.148,8.732c-0.848,0.646-1.902,0.554-2.611-0.23c-0.935-1.034-0.646-2.079,0.74-2.692
            c1.34-0.593,1.613-1.917,1.068-5.188C117.458,102.516,117.471,101.951,117.697,101.963z M42.543,102.045
            c0.924-0.032,1.816,0.329,2.26,1.058c0.327,0.539,0.169,0.936-0.45,1.204c-0.753,0.298-2.181,0.567-2.181,0.567
            s1.385,0.228,2.222,0.567c1.048,0.462,0.967,1.311-0.567,2.04c-2.954,1.403-5.745-2.432-3.309-4.634
            C41.086,102.335,41.823,102.071,42.543,102.045z M120.221,103.897c0.021-0.004,0.046-0.004,0.072,0
            c0.271,0.033,0.771,0.426,1.274,1.092c1.761,2.332,2.066,5.837,0.567,6.521c-1.584,0.721-2.723-0.767-1.582-2.068
            c0.808-0.921,0.707-2.27-0.366-4.938C120.031,104.115,120.068,103.921,120.221,103.897z M158.252,104.007
            c0.139-0.011,0.392,0.551,0.798,1.683c0.896,2.494,1.661,3.54,2.583,3.54c1.157,0,1.764,1.586,0.851,2.226
            c-1.805,1.265-4.169-1.833-4.342-5.693C158.089,104.603,158.114,104.018,158.252,104.007z M148.712,105.252l-0.534,2.034
            c0,0-1.23,1.196-2.111,1.957c-1.397,1.208-1.742,1.448-2.846,1.072c-1.699-0.586-3.381-1.117-5.15-1.653l-4.092-3.386l9.338,3.645
            c0,0,0.81,0.239,1.092-0.043C145.631,107.656,146.974,106.709,148.712,105.252z M157.522,107.156
            c0.117-0.026,0.234,0.123,0.316,0.496c0.424,1.915,1.037,3.304,1.554,3.52c0.654,0.273,0.905,0.841,0.63,1.418
            c-0.795,1.667-2.885-1.276-2.885-4.062C157.137,107.737,157.326,107.201,157.522,107.156z M123.818,107.291
            c0.114-0.007,0.298,0.164,0.587,0.452c1.291,1.291,1.682,4.858,0.645,5.896c-1.499,1.498-3.1-0.729-1.645-2.289
            c0.384-0.412,0.385-0.441,0.293-2.27C123.633,107.808,123.628,107.303,123.818,107.291z M45.591,107.648l-1.01,3.347l-3.227,0.832
            l0.755-2.756L45.591,107.648z M49.457,107.989c0.256-0.01,0.546,0.087,0.852,0.308c1.314,0.952,1.422,2.579,0.808,3.78
            c-0.588,1.172-1.79,1.508-2.953,1.39c-1.508-0.168-2.646-1.219-2.567-2.828c0.026-0.806,0.378-1.7,0.923-2.082
            c0.385-0.269,0.699-0.158,1.032,0.394c0.31,0.539,0.839,1.761,0.839,1.761s0.018-1.253,0.195-1.898
            C48.73,108.299,49.049,108.005,49.457,107.989z M51.919,108.281l2.337,0.799l0.924,3.174l-2.616-1.015L51.919,108.281z
            M185.166,108.874c0,0,0.67,0.283,3.861,2.817c0.798,0.634,2.145,1.846,2.145,1.846l-0.077,41.417c0,0-6.292-3.401-7.107-4.207
            c-0.435-0.465-0.225-1.765-0.071-4.126c0.739-6.202,1.04-10.956,1.836-16.695c0.557-6.398,1.787-8.235-2.496-10.948
            c4.609-2.895,3.309-7.397,0.416-9.273L185.166,108.874z M147.582,109.032l-0.424,1.895c-1.517,2.597-2.875,2.464-5.198,1.26
            l-2.788-2.371c1.804,0.376,2.774,0.954,4.539,1.51c0.875,0.242,1.196,0.087,1.812-0.466
            C146.233,110.214,146.766,109.733,147.582,109.032z M126.905,110.028c0.945,1.031,1.192,2.048,1.111,4.559
            c-0.183,1.785-0.103,3.115-1.568,4.116c-0.715,0.469-1.952,0.47-2.505,0.005c-1.326-0.889-0.595-2.664,1.143-2.751
            c1.097-0.02,1.548-3.604,0.925-5.842c-0.096-0.348-0.071-0.576,0.101-0.593C126.283,109.506,126.604,109.699,126.905,110.028z
            M156.54,109.893c0.213-0.002,0.589,0.543,0.812,1.433c0.324,1.289,0.778,2.013,1.491,2.376c0.913,0.466,1.208,1.361,0.625,1.89
            c-1.162,1.052-2.351-0.21-2.731-2.899C156.72,112.386,156.186,109.921,156.54,109.893z M181.488,110.335
            c2.592,0.04,4.058,1.854,4.055,4.053c-0.028,1.585-0.895,3.196-2.488,3.865c-3.807,1.12-5.885-1.428-5.849-3.906
            C177.235,112.346,178.896,110.295,181.488,110.335z M129.17,111.773c2.18,2.181,2.277,6.843,0.144,6.843
            c-2.56-0.847-0.562-2.357-0.514-2.75c0.2-1.606-0.169-2.636-0.544-4.136C128.091,110.843,128.93,111.513,129.17,111.773z
            M181.627,111.562c-0.458-0.014-0.425,0.446,0.413,1.168c1.52,1.31,0.775,3.727-1.149,3.736c-0.888,0.005-1.105,0.603-0.332,0.914
            c2.99,1.2,5.031-3.344,2.352-5.237C182.351,111.748,181.902,111.57,181.627,111.562z M67.298,112.172
            c2.405,0.819,3.235,5.403,3.327,7.021c0.107,2.813-1.202,7.414-2.371,8.333c-3.026,2.381-4.444-6.033-1.856-11.449
            c0.227-0.443,0.511-1.043,0.404-2.149C66.697,112.83,66.882,112.18,67.298,112.172z M146.798,112.615c0,0-0.303,1.374-0.625,2.125
            c-0.373,0.87-0.647,0.897-1.515,0.154c-0.483-0.413-1.284-1.27-1.284-1.27c0.756,0.118,1.431,0.51,2.072,0.192
            C146.131,113.478,146.684,112.843,146.798,112.615z M155.93,112.687c0.171,0.006,0.389,0.484,0.678,1.433
            c0.792,2.597,1.484,3.573,2.534,3.573c1.72,0,2.094,2.07,0.472,2.602c-0.602,0.196-0.805,0.195-1.573-0.01
            c-1.157-0.309-2.741-4.215-2.515-6.203C155.632,113.147,155.759,112.681,155.93,112.687z M50.044,114.197
            c0.631-0.016,0.879,0.296,1.25,1.062c0.422,0.873,1.53,1.983,2.467,2.467c2.259,1.11,4.639,1.979,6.871,3.092
            c2.896,1.455,5.489,5.907,3.713,6.372c-0.644,0.148-1.385,0.156-2.044,0.096c-0.215-0.112-0.635-0.6-0.933-1.087
            c-1.32-2.16-3.79-4.275-7.598-5.265c-2.685-0.698-5.09-4.005-5.607-5.56c-0.134-0.402-0.14-0.718,0.222-0.822
            C49.149,114.332,49.665,114.205,50.044,114.197z M131.675,114.466c0.12-0.02,0.296,0.134,0.562,0.418
            c1.598,1.708,1.797,4.845,0.36,5.732c-1.556,0.962-2.919-0.629-1.697-1.981c0.539-0.596,0.539-0.596,0.539-2.385
            C131.44,115.017,131.475,114.498,131.675,114.466z M154.939,116.456c0.192,0.008,0.479,0.538,0.827,1.582
            c0.493,1.481,0.561,1.599,1.125,1.89c0.955,0.494,1.11,1.232,0.409,1.934c-1.306,1.306-2.621-0.796-2.626-4.193
            C154.673,116.852,154.77,116.449,154.939,116.456z M134.049,116.692c0.118,0.011,0.45,0.271,0.708,0.578
            c1.958,2.321,1.564,7.758-0.62,8.573c-0.729,0.272-0.951,0.287-1.404,0.092c-1.628-0.705-1.43-2.424,0.577-3.516
            C134.811,121.603,133.74,116.713,134.049,116.692z M33.949,118.405l8.084,4.01c0,0,2.215,4.665,3.235,6.415
            c0.7,1.213,2.102,2.384,0.654,3.192c-2.432,1.648-3.811,2.588-3.789,3.611c0.018,0.829,1.047,1.673,2.433,3.304
            c1.991,2.343,1.971,1.803,0.164,5.376c-1.386,2.506-2.563,8.18-2.563,8.18l-8.165,4.207c2.43-5.803,5.291-10.741,8.497-14.271
            c-2.382-1.769-4.384-3.609-6.473-6.054c1.541-2.064,3.575-3.731,5.453-5.525C37.666,126.538,35.278,122.404,33.949,118.405
            L33.949,118.405z M136.181,118.476c0.013-0.002,0.028-0.001,0.043,0c0.339,0.022,1.113,0.865,1.794,2.217
            c0.879,1.747,0.964,3.946,0.183,4.728c-1.347,1.347-3.101-0.385-1.842-1.818c0.888-0.645,0.646-2.249-0.053-3.919
            C135.983,118.883,135.988,118.507,136.181,118.476z M33.055,119.26c2.104,4.469,4.456,8.104,6.867,11.546l-5.261,5.52
            c1.619,1.88,3.583,3.898,6.338,6.242c-3.383,3.762-5.603,9.029-7.823,14.003L33.055,119.26z M154.039,119.357
            c0.183,0.013,0.441,0.555,0.707,1.645c0.336,1.373,0.565,1.725,1.366,2.067c1.272,0.546,1.302,1.774,0.053,2.217
            c-0.458,0.162-1.314-0.298-1.669-0.899c-0.467-0.859-0.707-2.015-0.702-3.072C153.721,120.004,153.833,119.341,154.039,119.357z
            M183.207,120.184c1.988,0.558,2.707,2.55,2.319,6.241c-0.52,4.937-1.13,10.429-1.625,14.964c-0.572,5.232-0.902,7.95-1.029,8.156
            c-0.403,0.652-0.47-1.806-0.178-4.54c0.444-3.907,0.69-7.328,1.067-11.232c0.845-8.687,0.639-11.432-0.933-12.233
            c-1.216-0.62-1.738-0.254-0.842,0.592c1.71,1.318,1.656,1.87-0.173,23.259c-0.188,2.213-0.265,3.779-0.265,3.779l-2.322-1.442
            c0,0-0.173-1.833-0.39-4.602c-0.524-5.215-0.831-10.774-1.179-15.772c-0.372-5.332,0.626-7.198,3.934-7.328
            C182.122,120.004,182.709,120.047,183.207,120.184L183.207,120.184z M140.532,123.282c0.254,0.706,1.407,5.967-1.544,4.456
            c-0.787-0.444-0.83-1.139-0.25-1.813c0.649-0.755,0.802-1.841,0.477-3.391c-0.198-0.942-0.438-1.725-0.438-1.725
            C139.346,121.018,140.467,123.099,140.532,123.282L140.532,123.282z M52.78,121.633c2.497,0.475,5.239,1.931,7.007,3.752
            c1.097,1.165,1.041,2.104-0.674,2.213c-1.65,0.243-1.686,0.512-2.474-0.171c-0.354-0.277-1.044-0.957-1.83-1.079
            C52.319,125.963,51.047,121.305,52.78,121.633L52.78,121.633z M153.549,123.011c0.264,0.423,0.291,1.255,0.51,1.852
            c0.373,1.666,1.517,2.899,2.544,2.745c0.69-0.083,1.644,0.126,1.745,0.952c0.201,0.699-0.166,1.361-0.923,1.664
            c-0.854,0.342-1.819,0.132-2.549-0.553C153.34,128.227,152.402,123.515,153.549,123.011z M141.541,123.076
            c0.896,0.343,2.038,3.21,2.16,5.483c-0.004,1.629-0.255,3.677-1.659,4.453c-0.892,0.461-1.813,0.23-2.217-0.549
            c-0.494-0.955-0.127-1.943,0.895-2.404c1.25-0.563,1.656-3.098,0.895-5.573C141.572,124.074,140.947,122.906,141.541,123.076z
            M46.178,124.266l6.588,3.337c-0.959,1.309-1.712,2.522-2.231,3.905C48.441,129.133,47.343,126.712,46.178,124.266z
            M144.017,125.408c0.113-0.003,0.492,0.358,0.824,0.68c1.645,1.592,2.354,4.483,1.36,5.54c-0.793,0.845-2.182,0.786-2.413-0.102
            c-0.084-0.435,0.378-1.249,0.581-1.64c0.304-0.582,0.358-2.243-0.101-3.457C144.063,125.885,143.871,125.411,144.017,125.408z
            M98.25,126.065l7.443,0.254l24.938,22.462l-2.342-0.054l-22.912-20.879l-7.132,0.02L98.25,126.065z M55.364,130.111
            c-2.842,4.517-3.617,10.21-1.872,15.27c1.325,3.589-1.567,3.804-2.755,1.438c-0.912-1.768-1.437-4.845-1.159-8.122
            c0.389-5.299,2.835-10.618,4.793-11.257C56.359,126.79,55.922,129.39,55.364,130.111L55.364,130.111z M157.545,140.981
            c-0.756,3.532-2.157,5.291-4.145,6.025c-8.142,3.007-11.688-13.414-4.136-17.34C156.463,127.273,158.544,136.315,157.545,140.981z
            M97.798,130.252l7.021,0.145c6.4,5.821,13.28,11.253,20.129,18.33h-3.312c0,0-0.969-0.92-1.197-1.14
            c-6.191-5.528-10.776-10.042-16.744-15.181l-6.266-0.173L97.798,130.252z M151.362,131.335c-3.796,0.153-4.105,5.297-3.991,7.245
            c0.276,2.807,1.395,6.954,4.958,6.627c2.614-0.261,3.824-3.356,3.585-7.074C155.689,134.634,154.262,131.332,151.362,131.335z
            M97.158,133.041l6.16,0.14c5.427,4.732,11.166,9.873,16.868,15.546h-2.688c0,0-0.702-0.669-0.914-0.885
            c-4.616-4.173-9.31-8.824-13.786-12.574l-6.391-0.25L97.158,133.041z M151.462,133.243c1.078,0.399,1.259,3.024,0.317,4.112
            c-0.645,0.745-2.127-0.666-2.26-2.443C149.439,133.828,150.492,132.884,151.462,133.243z M49.655,133.571
            c-0.496,1.697-0.821,3.605-1.024,5.669l-2.577-3.274L49.655,133.571z M153.419,136.73c0.63,0,1.14,0.51,1.14,1.14
            s-0.51,1.14-1.14,1.14s-1.14-0.51-1.14-1.14S152.789,136.73,153.419,136.73z M101.664,137.302l12.276,11.541l-3.496,0.038
            l-10.069-9.127l-6.391-0.24l1.251-2.179L101.664,137.302z M149.409,137.499c0.63,0,1.14,0.51,1.14,1.14s-0.51,1.14-1.14,1.14
            s-1.14-0.51-1.14-1.14S148.78,137.499,149.409,137.499z M164.023,137.524c6.921,5.378,16.689,12.515,26.837,18.301
            c0-0.02-1.673,1.314-3.213,1.736c-7.896-4.354-17.294-10.495-23.114-15.475c-5.495,8.089-16.05,22.804-25.433,29.598
            c-5.922,4.235-8.904,9.457-8.887,15.561c0.018,6.313,2.247,10.423,8.458,15.594c4.007,3.336,8.387,7.594,8.387,7.594l-2.304,1.985
            c-0.383-0.047-6.721-5.507-13.132-11.944c-3.523-3.538-5.091-11.303-4.491-15.493c0.815-5.698,2.715-9.782,8.116-14.181
            c2.074-1.605,4.169-2.853,5.997-4.679C158.028,148.167,164.023,137.524,164.023,137.524z M152.789,140.456
            c0.635,1.305,0.983,3.016-1.005,3.131c-1.178,0.067-1.853-1.894-0.832-3.641C151.725,138.572,152.413,139.742,152.789,140.456z
            M93.644,140.111l6.626,0.196c0,0,6.535,5.696,9.834,8.854H132.3c12.207,0,22.24,0.049,22.298,0.105
            c0.151,0.151-1.577,2.472-1.577,2.472l-73.207,0.043c0.016-0.011,4.522-4.024,6.136-5.149
            C88.808,144.637,91.427,142.781,93.644,140.111z M48.784,142.865c0.479,1.768,0.88,3.57,1.707,5.198l-5.083,2.697
            C46.342,148.071,47.412,145.483,48.784,142.865z M189.926,157.561c-1.009,2.751-3.65,8.363-6.842,12.617
            c-0.634,0.815-1.068,1.453-1.068,1.453l6.228,5.962l-5.405,5.747c3.036,3.158,5.604,7.996,6.954,11.848
            c-2.452-0.968-3.829-1.554-6.853-3.236c-0.855-2.145-1.727-4.417-2.688-6.376c-2.205-4.469-2.175-4.032-0.375-5.347
            c2.637-1.926,3.421-2.372,2.736-3.342c-0.481-0.683-3.592-4.376-3.779-4.492c-0.286-0.176-0.159-0.723,0.37-1.596
            c1.802-3.236,3.279-6.804,4.198-9.974L189.926,157.561z M191.105,157.786l0.163,37.575c-2.23-4.489-4.55-9.075-7.136-11.94
            c-0.098-0.194,5.641-5.799,5.641-5.799c-2.104-1.948-3.333-3.113-6.271-5.818C186.363,167.681,188.627,162.29,191.105,157.786z
            M33.185,159.09l7.14,4.145c-0.378,5.3-0.854,12.258-1.585,19.316c-0.613,5.508-0.866,8.046,0.109,9.574
            c0.827,1.118,3.057,2.327,3.057,2.327c-3.755,1.521-5.202,6.003-0.993,9.357c0,0-1.022,0.804-1.476,1.289l-5.857-4.381
            L33.185,159.09z M144.932,160.99c-1.779,1.994-4.57,4.952-6.713,6.366c-2.855,1.887-6.866,5.509-6.674,5.563
            c0,0-4.203-0.021-7.05-0.135l-9.819-8.761c0,0,0.352-0.129-13.012-0.02c-17.271,0.142-31.266-0.048-31.266-0.048l1.962-2.756
            L144.932,160.99z M179.934,162.711c-0.967,3.105-2.467,5.978-4.366,8.67c-0.439-1.91-0.682-3.938-1.601-5.56L179.934,162.711z
            M41.23,163.706l0.856,0.61c0,0-0.511,6.483-0.679,8.382c-0.301,3.506-0.448,6.665-0.755,10.237
            c-0.614,7.092-0.512,8.138,0.88,9.232c1.071,0.802,1.802,0.438,0.852-0.577c-0.626-0.805-0.623-0.788-0.812-1.972
            c-0.132-0.822-0.111-2.049,0.077-5.376c1.06-18.737,1.279-19.368,1.303-19.374l2.135,1.381c-0.119,0.287,1.955,18.886,1.744,23.509
            c-0.246,5.406-7.522,4.212-7.867,0.2c-0.143-0.922,1.238-16.103,1.238-16.103L41.23,163.706z M100.582,164.798l2.856,0.081
            l17.619,16.195l6.006,0.13l-0.524,2.044l-5.804-0.015L100.582,164.798z M111.508,164.798h2.765l10.084,9.141l6.207,0.097
            l-1.183,1.76l-6.174-0.178L111.508,164.798z M108.065,164.807l14.906,13.44l5.083,0.265l-0.783,1.837l-6.025-0.169l-16.749-15.339
            L108.065,164.807z M93.692,164.856h3.097l23.303,20.979l6.106,0.11l-0.091,1.891l-7.353-0.034L93.692,164.856z M172.111,165.451
            c1.229,0.309,1.836,1.5,2.702,5.92c1.012,5.153-1.18,13.52-3.924,15.089c-1.42,1.117-2.965-0.067-1.962-1.524
            c3.274-4.756,3.707-12.536,1.77-16.888C170.083,166.65,170.715,165.199,172.111,165.451z M73.245,166.226
            c7.446,0.089,9.37,15.381,2.046,17.525c-4.758,0.702-7.208-3.604-7.898-7.49C66.579,171.432,68.706,166.171,73.245,166.226z
            M69.153,175.4c0.445,3.064,2.346,6.574,5.108,6.274c3.634-0.395,4.09-5.246,3.73-7.688c-0.435-2.947-2.059-5.618-4.654-5.766
            C69.467,168.002,68.81,173.035,69.153,175.4L69.153,175.4z M73.145,169.448c1.038-0.017,1.803,1.37,1.52,3.092
            c-0.184,1.115-0.608,2.486-1.861,1.555c-0.584-0.532-1.106-2.095-0.966-3.262C71.929,170.066,72.308,169.469,73.145,169.448z
            M175.818,172.982l3.496,4.044l-3.972,2.784C175.9,177.682,176.084,175.419,175.818,172.982z M75.679,173.347
            c0.63,0,1.14,0.515,1.14,1.145s-0.51,1.14-1.14,1.14s-1.14-0.51-1.14-1.14S75.049,173.347,75.679,173.347z M71.601,174.049
            c0.63,0,1.14,0.51,1.14,1.14s-0.51,1.14-1.14,1.14s-1.145-0.51-1.145-1.14S70.971,174.049,71.601,174.049z M73.909,175.521
            c0.572,0.174,0.938,0.7,1.245,1.157c0.763,1.135,0.862,2.559,0.32,3.154c-1.095,1.301-2.806-0.09-2.6-2.1
            C73.027,176.26,73.417,175.371,73.909,175.521z M83.67,179.984c1.635,0,2.097,1.928,0.688,2.87
            c-0.916,0.613-1.119,2.606-0.554,5.366c0.459,1.994,0.219,2.302-0.971,0.505C80.802,185.468,81.326,179.984,83.67,179.984z
            M79.848,181.031c1.434-0.055,1.895,1.041,1.058,1.88c-0.49,0.544-0.441,1.979,0.105,3.159c0.774,1.709,0.592,2.226-0.855,0.582
            C78.155,184.514,78.186,181.095,79.848,181.031z M174.645,181.864c1.627,2.163,3.069,4.985,4.386,8.185l-7.055-3.241
            L174.645,181.864z M71.559,190.561c-0.499-0.578-0.741-2.449-1.15-3.249c-0.318-0.96-0.595-1.519-1.113-1.486
            c-2.98,0.252-2.854-2.598-1.143-3.137C71.694,181.575,72.985,190.124,71.559,190.561L71.559,190.561z M86.348,187.684
            c-0.506,1.494-0.138,2.387-0.033,3.983c0.089,0.725,0.126,0.915-0.469,0.359c-1.414-1.233-2.166-5.443-0.893-6.224
            C86.665,184.754,87.185,186.526,86.348,187.684z M157.021,185.686c0.692-0.031,1.478,0.507,1.866,1.496
            c0.56,1.423,0.508,4.913,0.226,6.771c-0.432,2.843-1.117,5.455-1.399,7.41c-0.998,1.187-3.457-3.011-3.688-6.323
            c-0.387-2.627,0.518-8.085,2.539-9.237C156.708,185.733,156.862,185.694,157.021,185.686z M166.545,186.134
            c0.618-0.028,0.478,0.18,0.935,0.658c0.694,0.727,0.977,0.903,1.957,1.212c2.023,0.636,4.248,3.457,3.391,4.313
            c-0.677,0.537-2.521-0.477-3.149-0.692c-0.678-0.233-1.523-0.524-1.881-0.645c-1.695-0.572-4.134-3.698-3.375-4.328
            C164.827,186.316,166.065,186.156,166.545,186.134z M161.614,186.653c1.253,0.013,1.596,0.325,2.312,1.674
            c1.063,1.999,3.037,3.409,5.905,4.222c3.661,1.117,6.819,3.239,6.665,7.17c-0.873,0.009-1.747,0.067-2.62,0.333
            c-1.014-2.852-3.534-4.486-5.704-4.979c-5.005-1.136-9.649-6.213-8.328-8.228C160.421,186.55,161.04,186.646,161.614,186.653z
            M75.284,186.903l43.234,37.651c-18.245-6.769-34.983-6.623-51.169-4.121L75.284,186.903z M93.723,189.396
            c-0.082,1.172-1.689,1.423-2.022,1.712c-0.809,0.703-0.701,2.732-0.355,5.1c0.265,1.422-0.089,1.358-0.837,0.245
            c-1.323-1.971-1.296-5.39-0.419-7.404C91.22,186.454,93.836,187.753,93.723,189.396z M68.86,187.552
            c1.658,0.172,2.115,2.428,2.184,3.924c0,2.061-0.585,1.983-0.914,0c-0.156-0.879-0.43-1.221-1.14-1.433
            C67.377,189.56,67.272,187.552,68.86,187.552z M88.95,189.856c-0.425,0.467-0.435,2.652-0.048,4.121
            c0.214,0.812-0.182,0.875-0.731,0.23c-1.788-2.098-1.953-5.655-0.293-6.343C89.23,187.513,89.58,189.162,88.95,189.856
            L88.95,189.856z M70.245,194.063c0.04,2.094-0.438,2.287-1.068,0.279c-0.161-0.467-0.448-0.937-0.653-1.077
            c-1.178-0.806-1.385-1.434-0.702-2.116C69.496,189.781,70.223,193.44,70.245,194.063z M76.564,192.216l-5.862,25
            c14.428-1.209,20.982-1.463,36.396,1.549L76.564,192.216z M94.043,192.63c0.882,0.221,1.187,1.372,0.158,2.462
            c-0.338,0.432-0.651,1.098-0.24,2.865c0.563,2.418-0.385,1.645-1.539-0.639C91.683,195.856,92.023,192.123,94.043,192.63
            L94.043,192.63z M66.447,192.707c1.567,0,3.021,2.544,3.044,5.327c0.016,2.25-0.305,2.088-1.141-0.062
            c-0.588-1.422-1.062-1.937-2.13-2.308C64.242,194.976,64.414,192.707,66.447,192.707z M77.039,193.428l27.149,23.726
            c-11.117-1.776-22.031-1.913-32.631-0.582L77.039,193.428z M99.635,194.323c2.13,0,2.968,2.631,0.356,3.552
            c-1.557,0.548-0.893,3.695-0.606,5.565c0.108,0.705-0.114,0.754-0.562,0.125C97.182,201.143,96.265,195.038,99.635,194.323z
            M96.76,197.28c-0.387,0.609-0.43,1.263-0.164,2.443c0.69,2.537,0.87,3.007-0.572,1.717c-1.518-1.604-2.18-4.782-0.908-5.723
            C96.543,194.66,97.829,195.832,96.76,197.28L96.76,197.28z M43.111,195.322c2.52-0.019,4.351,1.613,4.254,3.888
            c-0.106,2.506-1.676,4.086-3.98,4.218c-2.572,0.13-4.162-1.923-4.22-4.05C39.114,197.499,40.31,195.341,43.111,195.322z
            M43.067,196.327c-2.884-0.009-3.965,3.794-1.577,5.55c1.023,0.752,1.832,0.54,0.991-0.26c-1.586-1.508-0.949-3.999,1.14-4.458
            C44.653,196.933,44.252,196.331,43.067,196.327z M78.184,196.972l-3.472,16.84c7.103-1.104,15.694-0.767,22.326-0.145
            L78.184,196.972z M66.49,197.612c1.727-0.088,2.232,2.51,2.245,3.544c0.002,1.337-0.156,2.033-0.402,1.318
            c-0.581-1.686-1.155-2.612-1.779-2.612c-0.339-0.086-0.628-0.223-0.9-0.528C65.039,198.522,65.633,197.646,66.49,197.612z
            M78.506,198.284l2.289,1.943c-1.473-0.646-2.727,1.024-2.727,1.024L78.506,198.284z M102.064,201.463
            c-0.664,0.836-0.659,2.599-0.145,4.65c0.145,0.574-0.393,0.148-0.933-0.534c-1.024-1.291-1.506-2.804-1.32-4.045
            C99.873,198.399,103.852,199.01,102.064,201.463z M65.855,199.963c1.481,0.168,2.04,3.261,2.005,4.198
            c-0.048,0.979-0.271,1.641-0.466,1.045c-0.381-1.292-1.169-3.149-1.852-3.575C64.372,200.902,64.703,200.067,65.855,199.963z
            M179.273,203.428c0.053,1.092-0.401,2.208-1.073,2.567c-0.687,0.368-1.105-0.13-1.516-1.388c-0.302-0.924-0.408-1.279-0.408-1.279
            s-0.254,1.156-0.335,1.398c-0.535,1.604-2.279,1.62-3.01-0.173c-0.777-2.091,1.394-4.233,3.063-4.157
            C177.845,200.482,179.175,201.676,179.273,203.428L179.273,203.428z M80.333,201.093c0.521,0,2.539,0.904,2.539,0.904l2.01,1.779
            c0,0-1.849-0.804-2.5-1.034c-1.557-0.551-1.523-0.556-2.779,0.471c-1.294,1.058-2.356,1.833-2.356,1.833l0.399-2.284
            C77.646,202.762,79.538,201.093,80.333,201.093z M67.144,206.704c0.296,2.414-0.379,2.618-1.034,0.312
            c-0.562-1.974-1.114-2.692-2.067-2.692c-1.757,0.262-2.348-2.343-0.77-2.866C66.25,200.622,67.017,205.752,67.144,206.704
            L67.144,206.704z M169.182,201.41l2.746,1.274l0.582,2.842l-2.529-0.625L169.182,201.41z M107.643,201.672
            c2.643-0.732,2.97,2.557,0.943,3.043c-1.236,0.296-1.229,2.212-0.877,4.995c0.08,0.635,0.251,1.404,0.211,1.51
            c-0.188,0.503-0.816-0.266-1.663-2.049C104.992,205.92,105.387,202.298,107.643,201.672L107.643,201.672z M183.18,201.631
            l-0.765,3.289l-2.322-0.158l-0.087-2.015L183.18,201.631z M104.931,203.77c-1.272,1.843-0.129,3.543,0.153,4.984
            c0.05,0.838-1.032,0.018-1.655-1.203c-1.299-2.547-1.374-4.603-0.206-5.521C104.859,201.073,105.611,202.786,104.931,203.77z
            M81.103,203.32c0.449,0.005,1.059,0.248,2.337,0.74c0.969,0.373,3.212,1.284,3.212,1.284l2.967,2.62c0,0-2.604-0.96-4.419-1.726
            c-4.084-1.726-3.498-1.781-6.727,0.678c-0.933,0.71-1.904,1.52-1.904,1.52l0.394-2.106c0,0,1.22-1.212,2.741-2.308
            C80.359,203.549,80.653,203.315,81.103,203.32z M43.106,204.315c2.09-0.058,3.464,1.604,3.967,3.462
            c0.291,1.076,0.039,2.069-0.02,3.102c-1.442,11.057-2.077,21.316-3.404,31.555c-0.163,0.488-0.341,0.307-0.553-0.572
            c-1.536-9.282-2.536-19.471-3.828-28.669c-0.295-3.435-1.182-7.926,3.164-8.805C42.663,204.342,42.889,204.321,43.106,204.315
            L43.106,204.315z M42.981,205.541c-0.923,0.036-2.013,0.67-2.399,1.485c-0.791,1.666-0.585,5.059,0.918,15.225
            c0.125,0.846,0.299,2.259,0.385,3.14c0.264,2.699,0.622,4.843,0.88,5.241c0.491,0.759,0.555-0.057,0.202-2.697
            c-0.18-1.348-0.425-3.408-0.544-4.578c-0.675-4.821-0.821-8.252-1.24-12.651c-0.209-2.162,0.661-3.756,2.294-4.188
            c0.884-0.233,0.931-0.631,0.105-0.899C43.397,205.558,43.193,205.532,42.981,205.541L42.981,205.541z M181.228,205.676
            c3.054,0.007,4.176,4.282,1.188,5.789c-1.108,0.56-2.969,0.296-3.431-0.598c-0.224-0.695,0.027-1.1,0.581-1.395
            c0.674-0.358,1.663-0.666,1.663-0.666s-1.617-0.313-2.072-1.079C178.174,206.077,179.977,205.707,181.228,205.676L181.228,205.676z
            M66.35,210.287c-0.034,0.806-0.445,0.473-0.548,0c-0.329-1.072-1.016-2.235-1.592-2.698c-0.696-0.559-0.861-1.316-0.39-1.788
            C65.593,204.235,66.34,209.785,66.35,210.287z M169.94,205.664c0.782-0.022,1.845,0.243,2.518,0.915
            c0.868,0.868,0.82,1.194-0.634,1.724c-0.706,0.263-1.192,0.467-1.192,0.467s0.656,0.258,1.143,0.394
            c1.395,0.466,1.321,1.274,0.041,2.23c-1.744,1.302-4.546-0.426-4.513-2.718C167.328,206.86,168.448,205.707,169.94,205.664z
            M176.385,205.652l2.789,3.072l-3.26,3.376l-3.068-3.366L176.385,205.652z M81.608,205.94c0.04-0.002,0.078,0,0.12,0
            c0.864,0.017,2.244,0.6,5.626,1.962c1.858,0.749,4.006,1.602,4.006,1.602l3.044,2.693c0,0-4.17-1.31-5.621-2.044
            c-0.315-0.16-1.008-0.455-1.539-0.654s-1.849-0.715-2.929-1.149c-2.321-0.934-2.348-0.94-3.125-0.283
            c-0.333,0.28-1.149,0.921-1.813,1.423c-0.663,0.502-1.633,1.239-2.154,1.635c-0.614,0.467-1.39,1.174-1.39,1.174l0.491-2.597
            c0,0,0.438-0.43,1.221-1.029c0.635-0.485,1.717-1.314,2.404-1.842C80.647,206.294,81.011,205.968,81.608,205.94z M111.541,208.219
            c0.086,0.541,0.035,0.645-0.587,1.279c-0.785,0.802-0.892,2.115-0.317,3.818c0.159,0.47,0.353,1.025,0.309,1.068
            c-0.829,0.83-3.013-4.407-2.491-5.969C109.077,206.55,111.127,206.522,111.541,208.219z M63.671,208.446
            c0.572-0.027,1.235,0.406,1.568,1.308c0.902,2.521,0.351,5.612-0.572,2.731c-0.239-0.609-0.652-1.265-0.967-1.597
            c-0.323-0.344-1.051-0.743-1.034-1.303C62.737,208.85,63.167,208.469,63.671,208.446z M82.334,208.518
            c0.365,0.012,0.854,0.193,1.73,0.553c0.793,0.324,3.024,1.068,4.294,1.558c1.972,0.761,4.03,1.765,4.03,1.765l-4.463-0.25
            c0,0-1.517-0.504-2.419-0.875c-3.268-1.343-3.086-1.336-4.712-0.101c-0.581,0.44-1.312,1.154-1.312,1.154l-2.27,0.125
            c0,0,1.066-1.139,2.605-2.279c0.504-0.374,1.192-0.906,1.524-1.184C81.727,208.664,81.968,208.506,82.334,208.518L82.334,208.518z
            M117.245,209.398c1.242-0.235,1.923,0.948,1.844,1.687c-0.086,0.811-0.838,1.617-1.995,1.842
            c-0.243,0.906-0.937,2.973-0.532,6.055c0.326,1.444-0.285,1.477-0.909,0.092C114.642,216.828,113.17,210.17,117.245,209.398z
            M113.7,211.869c-0.526,1.126-0.709,2.032-0.418,3.452c0.323,1.578,0.391,1.968-0.505,0.981c-1.737-2.315-1.99-6.001-0.39-6.425
            C113.933,209.47,114.272,211.147,113.7,211.869z M61.643,210.143c2.71,0.429,3.509,5.046,3.13,7.021
            c-0.718,2.391-0.683,0.775-0.933-0.221c-0.667-2.405-1.439-3.715-2.265-3.853C59.352,212.721,59.663,209.83,61.643,210.143
            L61.643,210.143z M82.415,211.052c0.047-0.004,0.088,0.002,0.13,0.009c0.892,0.149,3.28,0.887,2.251,1.135l-3.525,0.02
            C80.587,212.24,81.716,211.101,82.415,211.052L82.415,211.052z M177.328,211.807c0.342-0.031,0.808,0.369,1.355,0.928
            c1.254,1.277,0.704,3.292-0.99,4.284c-2.66,1.56-5.688-1.379-4.227-4.077c0.801-1.481,1.764-1.217,2.586,0.873
            c0.15,0.254-0.002-0.262,0.279-0.897C176.613,212.284,176.987,211.838,177.328,211.807z M172.865,211.955l-0.798,3.213
            l-3.241,1.558l1.183-3.958L172.865,211.955z M179.608,212.504l2.582,0.206l1.433,4.174l-3.722-1.586L179.608,212.504z
            M118.591,214.863c1.878,0.078,2.068,1.852,0.99,2.628c-0.604,0.579-0.813,1.416-0.688,2.755c0.056,0.596,0.174,1.324,0.168,1.409
            c-0.018,0.285-0.254,0.241-0.577-0.11C116.501,219.382,116.766,214.787,118.591,214.863L118.591,214.863z M61.777,215.557
            c1.19,0,2.541,3.41,1.876,4.715c-0.418,0.766-0.822,0.577-0.975-0.312c-0.114-0.647-0.484-1.532-1.444-1.69
            C59.839,217.824,60.293,215.558,61.777,215.557L61.777,215.557z M122.024,217.62c0.909,0.47,0.995,1.516,0.174,2.102
            c-0.638,0.453-0.806,0.837-0.904,2.067c0.209,2.8-1.364,1.022-1.513-1.524C119.699,218.879,120.45,216.822,122.024,217.62
            L122.024,217.62z M60.777,218.481c0.854,0,1.869,1.533,1.645,2.43c-0.12,0.711-0.492,0.585-1.015,0.057
            c-0.202-0.157-0.655-0.32-0.866-0.385C59.262,220.197,59.477,218.481,60.777,218.481z M85.056,219.659
            c11.546-0.054,23.557,1.778,33.54,5.766l-0.822,1.476l-2.621-0.899l-0.899,2.376l2.159,0.822l-1.015,2.192
            c-11.782-3.875-24.488-6.761-45.604-3.635c-1.049-0.729-2.943-2.169-2.943-2.169l1.688-0.37l-0.222-2.347l-4.266,0.76l-1.245-1.304
            C69.473,220.617,77.156,219.696,85.056,219.659z M123.784,220.174c1.105,0.001,1.791,1.242,0.98,1.773
            c-0.567,0.372-1.829,0.474-2.082,0.169C122.159,221.486,122.903,220.172,123.784,220.174z M83.425,221.626l-0.048,2.433l3.481-0.11
            l0.072-2.309L83.425,221.626z M89.508,221.679l0.015,2.39l3.381,0.11l0.158-2.342L89.508,221.679z M80.665,221.842l-3.419,0.227
            l0.105,2.23l3.391-0.148L80.665,221.842z M95.951,222.212l-0.086,2.304l3.438,0.38l0.25-2.342L95.951,222.212z M74.303,222.323
            l-3.438,0.438l0.293,2.293l3.342-0.37L74.303,222.323z M102.597,223.069l-0.336,2.404l3.207,0.476l0.413-2.284L102.597,223.069z
            M108.954,224.414l-0.317,2.429l3.26,0.692l0.438-2.255L108.954,224.414z M85.878,227.213c10.825-0.013,20.69,1.853,29,5.011
            c0,0-1.076,2.322-1.457,2.572c-5.962-2.38-16.123-4.592-22.989-4.712c-2.517-0.094-3.074-0.16-4.001-0.48
            c-5.233-1.722-9.853-2.466-14.113,0.076l-1.741-1.23C75.838,227.613,80.957,227.219,85.878,227.213L85.878,227.213z
            M40.157,241.091c2.476,0.029,3.654,3.824,1.039,5.419c-0.702,0.397-1.624,0.344-2.366,0.01c-2.119-1.009-2.277-4.161,0.192-5.193
            C39.422,241.159,39.804,241.087,40.157,241.091L40.157,241.091z M121.068,241.216c0.886,0.542,4.159,1.991,4.159,1.991
            l-22.99,41.561l-5.563,0.043L121.068,241.216z M46.915,241.315c1.377-0.154,2.355,1.028,2.71,2.018
            c0.485,1.349-0.385,3.744-2.812,3.606C44.027,246.781,42.779,241.776,46.915,241.315L46.915,241.315z M125.977,243.476
            c0.617,0.339,2.85,0.709,3.044,1.14c0.084,0.216-0.085,0.64-0.135,1.188c-0.12,1.32,0.21,2.784,1.01,3.957
            c1.311,1.82-0.108,0.984-1.419,0.972c-2.955-0.755-6.72,3.271-5.289,7.415c0.331,0.916,0.266,0.989-1.317,1.471
            c-3.595,1.095-5.163,4.909-3.436,8.315c0.9,1.775,0.927,1.686-0.657,1.816c-4.398,0.365-6.952,4.268-5.106,8.257
            c0.286,0.617,0.104,0.787-0.855,0.966c-3.003,0.552-4.348,3.062-4.728,5.819l-3.972,0.038L125.977,243.476z M129.785,244.943
            l7.631,2.082c-3.169,10.775-3.606,23.293,0.207,37.771l-17.547,0.015c2.438-2.188,1.475-5.209-1.374-5.874
            c2.765-1.588,2.766-5.81-0.547-6.317c-2.912-0.446-4.416,2.322-3.122,5.097l-1.244,0.339c0,0-0.558-0.699-0.686-1.072
            c-1.099-3.203,1.201-6.382,5.121-6.371c2.418,0.006,2.919-0.678,1.582-2.164c-2.389-2.657-1.637-6.391,1.482-7.859
            c1.436-0.677,2.282-0.229,2.282-0.229l0.074,1.761c0,0-0.582,0.056-1.035,0.128c-3.445,0.551-2.806,6.042,0.695,5.994
            c1.927-0.025,3.306-1.487,3.306-3.586c0-0.59,0.003-1.46,0.003-1.46c1.77,3.027,4.81,3.244,6.104,0.781
            c1.523-2.899-1.241-4.722-4.014-4.423c0,0,0.582-0.378,0.949-0.566c2.952-1.519,1.936-5.855-1.329-5.855
            c-2.24,0-3.547,2.081-2.824,4.288c0.115,0.354,0.39,0.922,0.39,0.922l-1.333,0.338c0,0-0.302-0.23-0.438-0.442
            c-2.286-3.573,1.386-7.509,6.011-6.616c1.693,0.53,1.639-0.641,0.688-1.697C129.797,248.4,129.033,246.673,129.785,244.943
            L129.785,244.943z M43.543,246.501l4.005,7.059l-4.486,8.132l-4.447-7.617L43.543,246.501z M43.149,250.174l-2.779,3.828
            l2.722,4.396l2.582-4.448L43.149,250.174z M43.029,251.613l1.808,2.423l-1.822,2.977l-1.784-2.793L43.029,251.613z
            M125.804,259.239c0.842,0,1.529,0.683,1.529,1.524c0,0.843-0.688,1.524-1.529,1.524c-0.843,0-1.524-0.682-1.524-1.524
            C124.28,259.921,124.961,259.239,125.804,259.239z M115.02,278.377c0.873,0,1.582,0.704,1.582,1.577
            c0,0.872-0.709,1.582-1.582,1.582c-0.872,0-1.577-0.71-1.577-1.582C113.443,279.081,114.148,278.377,115.02,278.377z
            M112.629,279.452c-0.145,0.062,0.004,1.433,0.349,2.001c-2.278,0.14-2.882,1.882-3.103,3.354l-2.041-0.006
            C108.174,279.825,112.484,279.714,112.629,279.452z"/>
    </g>
</svg>
