<?xml version="1.0" encoding="utf-8"?>
<svg version="1.2" baseProfile="tiny"
    xmlns="http://www.w3.org/2000/svg"
    xmlns:svg="http://www.w3.org/2000/svg"
    xmlns:xlink="http://www.w3.org/1999/xlink"
    viewBox="0 0 225 314" width="225px" height="314px">
    <defs>
        <style>
            .maxi-card { display: none; }
            @media (min-width: 75px) {
                .maxi-card { display: block; }
                .mini-card { display: none; }
            }
        </style>

        <path id="suit" d="M26.406,40.187c0.015-1.979-1.561-2.017-1.542-0.573c-0.133,7.257-6.311,10.83-10.799,9.982
            c-6.92-1.307-9.129-8.129-9.062-12.148C5.205,25.046,17.775,15.9,29.116,0c8.311,14.351,22.028,25.623,22.839,36.717
            c1.08,14.749-17.711,20.25-20.394,3.06c-0.173-1.214-1.613-1.759-1.501-0.063c0.408,4.711-0.171,6.674,5.179,18.287H21.252
            C24.351,52.574,26.195,45.911,26.406,40.187L26.406,40.187z"/>
        <path id="numeral" d="M0,31.505V0H3.11v31.505H0L0,31.505z M12.328,0c-2.994,0-5.4,2.687-5.4,6.021v19.461c0,3.336,2.406,6.021,5.4,6.021h1.746
            c2.994,0,5.406-2.686,5.406-6.021V6.022C19.481,2.686,17.069,0,14.074,0H12.328z M13.232,2.978c1.768,0,3.19,1.337,3.19,3.002
            v19.723c0,1.664-1.424,3.006-3.19,3.006c-1.771,0-3.191-1.342-3.191-3.006V5.98C10.039,4.315,11.461,2.978,13.232,2.978z"/>
    </defs>

    <rect width="100%" height="100%" fill="#fefefe"/>

    <!-- Little Card -->
    <g class="mini-card">
        <use xlink:href="#numeral" transform="matrix(3.5,0,0,3.5,78.4,33.95)"/>
        <use xlink:href="#suit" transform="matrix(2,0,0,2,55.5,170)"/>
    </g>

    <!-- Big Card -->
    <g class="maxi-card">

        <!-- Top Numeral and Suit -->
        <use xlink:href="#numeral" transform="matrix(1,0,0,1,7,12)"/>
        <use xlink:href="#suit" transform="matrix(0.4,0,0,0.4,6,51)"/>

        <!-- Bottom Numeral and Suit -->
        <use xlink:href="#numeral" transform="matrix(-1,0,0,-1,218,302)"/>
        <use xlink:href="#suit" transform="matrix(-0.4,0,0,-0.4,218,263)"/>

        <!-- Card Face -->
        <use xlink:href="#suit" transform="matrix(1,0,0,1,34,28)"/><!-- top left -->
        <use xlink:href="#suit" transform="matrix(1,0,0,1,34,95)"/><!-- center top left -->
        <use xlink:href="#suit" transform="matrix(1,0,0,1,84,64.5)"/><!-- center top offset -->
        <use xlink:href="#suit" transform="matrix(-1,0,0,-1,91,221)"/><!-- center bottom left -->
        <use xlink:href="#suit" transform="matrix(-1,0,0,-1,91,286)"/><!-- bottom left -->

        <use xlink:href="#suit" transform="matrix(1,0,0,1,134,28)"/><!-- top right -->
        <use xlink:href="#suit" transform="matrix(1,0,0,1,134,95)"/><!-- center top right -->
        <use xlink:href="#suit" transform="matrix(-1,0,0,-1,141,248.5)"/><!-- center bottom offset -->
        <use xlink:href="#suit" transform="matrix(-1,0,0,-1,191,221)"/><!-- center bottom right -->
        <use xlink:href="#suit" transform="matrix(-1,0,0,-1,191,286)"/><!-- bottom right -->
    </g>
</svg>
